<svg id="Layer" xmlns="http://www.w3.org/2000/svg" xmlns:xlink="http://www.w3.org/1999/xlink" viewBox="0 0 335.99 235.19"><defs><style>.cls-1{fill:url(#Névtelen_színátmenet_158);}.cls-14,.cls-15,.cls-16,.cls-2,.cls-4{fill:#fff;}.cls-3,.cls-5{fill:#7799eb;}.cls-15,.cls-16,.cls-3,.cls-34,.cls-4{fill-rule:evenodd;}.cls-27,.cls-29,.cls-6{fill:#96b4ff;}.cls-7{fill:url(#Névtelen_színátmenet_189);}.cls-8{fill:url(#Névtelen_színátmenet_234);}.cls-9{fill:url(#Névtelen_színátmenet_235);}.cls-10{fill:#6177de;}.cls-11,.cls-14,.cls-20,.cls-25,.cls-28,.cls-35{opacity:0.2;}.cls-11{fill:url(#Névtelen_színátmenet_188);}.cls-12{fill:url(#Névtelen_színátmenet_225);}.cls-13{opacity:0.29;}.cls-15{opacity:0.1;}.cls-16,.cls-27{opacity:0.3;}.cls-17,.cls-36{opacity:0.5;}.cls-17{fill:url(#Névtelen_színátmenet_221);}.cls-18{fill:url(#Névtelen_színátmenet_131);}.cls-19,.cls-34,.cls-35{fill:#394caa;}.cls-21{fill:url(#Névtelen_színátmenet_169);}.cls-22{fill:url(#Névtelen_színátmenet_131-2);}.cls-23{fill:url(#Névtelen_színátmenet_169-2);}.cls-24{fill:url(#Névtelen_színátmenet_146);}.cls-25{fill:url(#Névtelen_színátmenet_166);}.cls-26{fill:#11193d;}.cls-28{fill:#5781bd;}.cls-29{opacity:0.4;}.cls-30{fill:#1b2552;}.cls-31{fill:#251647;}.cls-32{fill:#24306b;}.cls-33{fill:#2e3e8a;}.cls-36{isolation:isolate;}.cls-37{fill:url(#Névtelen_színátmenet_193);}.cls-38{fill:url(#Névtelen_színátmenet_205);}</style><linearGradient id="Névtelen_színátmenet_158" x1="167.99" y1="131.7" x2="167.99" y2="-14.43" gradientUnits="userSpaceOnUse"><stop offset="0" stop-color="#fff"/><stop offset="0.02" stop-color="#fcfeff"/><stop offset="0.26" stop-color="#d5f2ff"/><stop offset="0.39" stop-color="#c6edff"/><stop offset="0.54" stop-color="#c2e9ff"/><stop offset="0.69" stop-color="#b6deff"/><stop offset="0.84" stop-color="#a2caff"/><stop offset="0.99" stop-color="#86b0ff"/><stop offset="1" stop-color="#84aeff"/></linearGradient><linearGradient id="Névtelen_színátmenet_189" x1="72.56" y1="123.79" x2="72.56" y2="106.74" gradientUnits="userSpaceOnUse"><stop offset="0" stop-color="#fff" stop-opacity="0.5"/><stop offset="0.61" stop-color="#fff" stop-opacity="0.18"/><stop offset="1" stop-color="#fff" stop-opacity="0"/></linearGradient><linearGradient id="Névtelen_színátmenet_234" x1="72.06" y1="104.84" x2="122.93" y2="104.84" gradientUnits="userSpaceOnUse"><stop offset="0" stop-color="#f6f8f9" stop-opacity="0.5"/><stop offset="0.6" stop-color="#fcfcfd" stop-opacity="0.19"/><stop offset="1" stop-color="#fff" stop-opacity="0"/></linearGradient><linearGradient id="Névtelen_színátmenet_235" x1="22.7" y1="104.67" x2="67.56" y2="104.67" gradientUnits="userSpaceOnUse"><stop offset="0" stop-color="#fff" stop-opacity="0"/><stop offset="0.39" stop-color="#fff" stop-opacity="0.18"/><stop offset="1" stop-color="#fff" stop-opacity="0.5"/></linearGradient><linearGradient id="Névtelen_színátmenet_188" y1="135.45" x2="87.29" y2="135.45" gradientUnits="userSpaceOnUse"><stop offset="0.43" stop-color="#fff" stop-opacity="0.6"/><stop offset="0.5" stop-color="#f8fbff" stop-opacity="0.57"/><stop offset="0.61" stop-color="#e6eeff" stop-opacity="0.48"/><stop offset="0.75" stop-color="#c8dbff" stop-opacity="0.33"/><stop offset="0.91" stop-color="#9fc0ff" stop-opacity="0.13"/><stop offset="1" stop-color="#84aeff" stop-opacity="0"/></linearGradient><linearGradient id="Névtelen_színátmenet_225" x1="168.01" y1="235.19" x2="168.01" y2="140.8" gradientUnits="userSpaceOnUse"><stop offset="0.43" stop-color="#79e2ff"/><stop offset="1" stop-color="#b3e2ff"/></linearGradient><radialGradient id="Névtelen_színátmenet_221" cx="167.66" cy="180.5" fy="156.4218980478403" r="108.32" gradientTransform="matrix(1, 0, 0, 0.29, -0.35, 99.22)" gradientUnits="userSpaceOnUse"><stop offset="0.65" stop-color="#fff" stop-opacity="0.9"/><stop offset="1" stop-color="#fff" stop-opacity="0"/></radialGradient><linearGradient id="Névtelen_színátmenet_131" x1="53.05" y1="218.77" x2="53.05" y2="171.31" gradientUnits="userSpaceOnUse"><stop offset="0.22" stop-color="#2d3d88"/><stop offset="1" stop-color="#394caa"/></linearGradient><linearGradient id="Névtelen_színátmenet_169" x1="53.02" y1="188.87" x2="53.02" y2="171.26" gradientUnits="userSpaceOnUse"><stop offset="0.03" stop-color="#fff" stop-opacity="0"/><stop offset="0.12" stop-color="#fbfcff" stop-opacity="0.03"/><stop offset="0.25" stop-color="#f0f5ff" stop-opacity="0.12"/><stop offset="0.41" stop-color="#dee9ff" stop-opacity="0.27"/><stop offset="0.6" stop-color="#c5d9ff" stop-opacity="0.47"/><stop offset="0.8" stop-color="#a5c4ff" stop-opacity="0.73"/><stop offset="1" stop-color="#84aeff"/></linearGradient><linearGradient id="Névtelen_színátmenet_131-2" x1="312.48" y1="218.77" x2="312.48" y2="171.31" gradientTransform="matrix(-1, 0, 0, 1, 595.96, 0)" xlink:href="#Névtelen_színátmenet_131"/><linearGradient id="Névtelen_színátmenet_169-2" x1="267.9" y1="189.15" x2="267.9" y2="171.55" gradientTransform="matrix(-1, 0, 0, 1, 551.11, 0)" xlink:href="#Névtelen_színátmenet_169"/><linearGradient id="Névtelen_színátmenet_146" x1="167.99" y1="235.19" x2="167.99" y2="186.05" gradientUnits="userSpaceOnUse"><stop offset="0" stop-color="#1e2957"/><stop offset="0.42" stop-color="#314288"/><stop offset="0.8" stop-color="#4055b0"/><stop offset="1" stop-color="#465dbf"/></linearGradient><linearGradient id="Névtelen_színátmenet_166" x1="167.99" y1="224.99" x2="167.99" y2="186.01" gradientUnits="userSpaceOnUse"><stop offset="0.43" stop-color="#fff" stop-opacity="0"/><stop offset="0.48" stop-color="#fbfcff" stop-opacity="0.03"/><stop offset="0.56" stop-color="#f0f5ff" stop-opacity="0.12"/><stop offset="0.65" stop-color="#dee9ff" stop-opacity="0.27"/><stop offset="0.76" stop-color="#c5d9ff" stop-opacity="0.47"/><stop offset="0.88" stop-color="#a5c4ff" stop-opacity="0.73"/><stop offset="1" stop-color="#84aeff"/></linearGradient><linearGradient id="Névtelen_színátmenet_193" x1="43.64" y1="173.06" x2="43.64" y2="140.7" gradientUnits="userSpaceOnUse"><stop offset="0" stop-color="#0080c9" stop-opacity="0"/><stop offset="0.58" stop-color="#0061a1" stop-opacity="0.1"/><stop offset="1" stop-color="#00427a" stop-opacity="0.2"/></linearGradient><linearGradient id="Névtelen_színátmenet_205" x1="192.1" y1="235.19" x2="192.1" y2="186.19" gradientUnits="userSpaceOnUse"><stop offset="0" stop-opacity="0"/><stop offset="1" stop-opacity="0.3"/></linearGradient></defs><title>Artboard 1</title><rect class="cls-1" width="335.98" height="220.33"/><path class="cls-2" d="M336.13,112.49V73.17a3.65,3.65,0,0,0-.36.31,4.62,4.62,0,0,0-2.08-1.76,4.56,4.56,0,0,0-2.74-.26,5.69,5.69,0,0,0-1.29-.76A5.87,5.87,0,0,0,322.93,80a3.88,3.88,0,0,0-.48,0,2.91,2.91,0,0,0-2,.85,5.22,5.22,0,0,0-.95-.87,1.42,1.42,0,0,0,0-.29,3.33,3.33,0,0,0-5.94-2,3.26,3.26,0,0,0-.69-2.54,3.31,3.31,0,0,0-4.66-.52A3.34,3.34,0,0,0,307,77.05,3.33,3.33,0,0,0,304,80h-.09A4,4,0,0,0,300,84a3.92,3.92,0,0,0,.34,1.5,3.25,3.25,0,0,0-.77-.1,3,3,0,0,0-2.63,1.66,4.7,4.7,0,0,0-1.76-.32,4.61,4.61,0,0,0-.73,9.15,4.12,4.12,0,0,0,.85,2.83,1.5,1.5,0,0,1,.11.13,4.16,4.16,0,0,0-.68,3.31,4.3,4.3,0,0,0-.9.47,4.91,4.91,0,0,0-7.29,4.27,5,5,0,0,0-3.75-1.08,4.93,4.93,0,0,0-.27-2.68,4.92,4.92,0,0,0-7.54-5.85,5.46,5.46,0,0,0-.45.39,4.93,4.93,0,0,0-8.71,3c.12.15.22.3.32.45a3.36,3.36,0,0,0-2.24,1,4.56,4.56,0,0,0-2.08-1.76,4.65,4.65,0,0,0-2.74-.27,5.62,5.62,0,0,0-1.28-.76,5.88,5.88,0,0,0-6.74,9.26,2.52,2.52,0,0,0-.48,0,3,3,0,0,0-2,.85,6.06,6.06,0,0,0-.95-.87,1.32,1.32,0,0,0,0-.28,3.34,3.34,0,0,0-5.94-2,3.31,3.31,0,1,0-6.58-.51,3.31,3.31,0,0,0-3.05,3h-.09c-2.2,0-3.95,1.36-3.91,3.56,0,0,0,0,0,.07l96.32.13v0Z"/><g id="cloud"><path class="cls-2" d="M163.78,136.62a5.78,5.78,0,0,0-2.16.43,3.69,3.69,0,0,0-3.26-2,4.1,4.1,0,0,0-.94.13,4.7,4.7,0,0,0,.39-1.84,4.9,4.9,0,0,0-4.88-4.89l-.12,0a4.06,4.06,0,0,0-1.54-2.72,4.13,4.13,0,0,0-2.26-.84,4.06,4.06,0,1,0-8.06.77,4.09,4.09,0,0,0-7.25,2.61c0,.12,0,.24,0,.36a6.47,6.47,0,0,0-1.14,1.08,3.62,3.62,0,0,0-2.47-1,3.68,3.68,0,0,0-.59.06,7.21,7.21,0,0,0-8.46-11.21,6.89,6.89,0,0,0-1.56,1,5.62,5.62,0,0,0-5.87,2.58,4.15,4.15,0,0,0-2.77-1.13l.38-.56a6,6,0,0,0-10.74-3.55c-.18-.16-.36-.32-.56-.47a6,6,0,0,0-9.13,7.33,6,6,0,0,0-.28,3.29A6,6,0,0,0,86,127.46a6,6,0,0,0-9-5.1,6.17,6.17,0,0,0-1.12-.56,5,5,0,0,0-.9-4,2.09,2.09,0,0,0,.14-.17,5,5,0,0,0,1-3.48A5.66,5.66,0,0,0,75,102.9a5.74,5.74,0,0,0-2.16.43,3.72,3.72,0,0,0-3.27-2,3.62,3.62,0,0,0-.94.13A4.7,4.7,0,0,0,69,99.64a4.89,4.89,0,0,0-4.88-4.89H64a4.06,4.06,0,0,0-3.81-3.55,4,4,0,0,0-1.56-3.09A4.06,4.06,0,0,0,52.12,92a4.09,4.09,0,0,0-7.25,2.61c0,.12,0,.24,0,.35A6.6,6.6,0,0,0,43.76,96a3.62,3.62,0,0,0-2.47-1,3.8,3.8,0,0,0-.59.06,7.2,7.2,0,0,0-8.45-11.21,6.47,6.47,0,0,0-1.56,1,5.62,5.62,0,0,0-5.87,2.58A4.1,4.1,0,0,0,18,91.27a5.44,5.44,0,0,0-.52,2.41,3.6,3.6,0,0,0-2.24,1.12,3.64,3.64,0,0,0-5.5,3.33,3.78,3.78,0,0,0,.22,1,4.72,4.72,0,0,0-.86.87,4.78,4.78,0,0,0-2.55-.77,8.74,8.74,0,0,0-1.6-8.36c-1.49-1.77-2.8-2.79-4.93-3l.05,53.38H169.34A5.68,5.68,0,0,0,163.78,136.62Z"/></g><path class="cls-2" d="M230,57.55A4.07,4.07,0,0,0,224,54a4,4,0,0,0-.74-.39,3.44,3.44,0,0,0-.57-2.74l.1-.11a3.38,3.38,0,0,0,.7-2.34,3.81,3.81,0,0,0-.6-7.57,3.94,3.94,0,0,0-1.46.26,2.52,2.52,0,0,0-2.18-1.37,2.67,2.67,0,0,0-.64.08,3.22,3.22,0,0,0,.29-1.24,3.3,3.3,0,0,0-3.24-3.35h-.08a2.74,2.74,0,0,0-1-1.85,2.83,2.83,0,0,0-1.51-.6,2.74,2.74,0,0,0-4.88-1.67,2.71,2.71,0,0,0-.57,2.1,2.76,2.76,0,0,0-4.92,1.68,1.94,1.94,0,0,0,0,.24,4.9,4.9,0,0,0-.79.72,2.4,2.4,0,0,0-1.65-.7,2.6,2.6,0,0,0-.4,0,4.84,4.84,0,0,0-2.29-7.82,4.63,4.63,0,0,0-4.55.77,3.74,3.74,0,0,0-3.79,1.7,2.72,2.72,0,0,0-4.3.56,2.32,2.32,0,0,0-.45-.13,3.68,3.68,0,0,0-.38-1.62,2.77,2.77,0,0,0-4.66-2.52,3.74,3.74,0,0,0-1.72-1.46,3.79,3.79,0,0,0-2.27-.22,4.86,4.86,0,0,0-6.64,7l-.39,0a2.44,2.44,0,0,0-1.66.7,4.51,4.51,0,0,0-.79-.72,1,1,0,0,0,0-.24,2.76,2.76,0,0,0-2.81-2.72,2.71,2.71,0,0,0-2.1,1A2.74,2.74,0,0,0,156.61,27a2.7,2.7,0,0,0-1,2.1,2.78,2.78,0,0,0-1.51.59,2.75,2.75,0,0,0-1,1.85H153a3.3,3.3,0,0,0-3.24,3.35,3.21,3.21,0,0,0,.28,1.24,2.59,2.59,0,0,0-.63-.08,2.49,2.49,0,0,0-2.19,1.37,3.71,3.71,0,0,0-1.46-.26,3.81,3.81,0,0,0-.6,7.57,3.39,3.39,0,0,0,.71,2.34l.09.11a3.39,3.39,0,0,0-.56,2.74,3.83,3.83,0,0,0-.75.39,4.08,4.08,0,0,0-6,3.54,4,4,0,0,0-3.1-.9,4,4,0,0,0-.23-2.22A4.07,4.07,0,0,0,129,45.88a3,3,0,0,0-.38.33,4.08,4.08,0,0,0-7.21,2.51c.1.13.19.25.27.37a2.76,2.76,0,0,0-1.86.79,3.81,3.81,0,0,0-4-1.67,4.86,4.86,0,0,0-6.64,7,1.75,1.75,0,0,0-.4,0,2.44,2.44,0,0,0-1.65.7,4.9,4.9,0,0,0-.79-.72,1,1,0,0,0,0-.24,2.76,2.76,0,0,0-4.92-1.68,2.78,2.78,0,0,0-.56-2.11,2.75,2.75,0,0,0-3.86-.42,2.7,2.7,0,0,0-1,2.1,2.74,2.74,0,0,0-1.52.59,2.78,2.78,0,0,0-1,1.85h-.08c-1.81,0-3.26,1.14-3.23,2.95v.06l79.75.11v0h60.3V57.37Z"/><polygon class="cls-3" points="67.2 106.39 69.43 106.39 69.43 106.39 72.42 106.39 72.42 107.69 69.43 107.69 69.43 107.69 67.2 107.69 67.2 106.39 67.2 106.39"/><polygon class="cls-4" points="72.06 103.13 69.61 103.13 69.61 103.13 67.56 103.13 67.56 106.39 69.61 106.39 69.61 106.39 72.06 106.39 72.06 103.13 72.06 103.13"/><path class="cls-5" d="M69.78,99.77a2.89,2.89,0,0,0-2.88,2.85h5.76A2.89,2.89,0,0,0,69.78,99.77Z"/><path class="cls-6" d="M74.17,134.09l-.31-4.48-.18-2.8-.31-4.48-.19-2.8-.3-4.49-.19-2.79-.26-3.82H67.17l-.06.89-.18,2.6-.28,4.18-.18,2.6-.28,4.18-.18,2.6-.28,4.18-.18,2.6-.12,1.87h8.74ZM70.4,122.8H69.24v-1.44a.58.58,0,0,1,1.16,0Zm0-5.42H69.24v-1.44a.58.58,0,0,1,1.16,0Z"/><polygon class="cls-7" points="74.19 134.09 73.88 129.61 73.69 126.81 73.39 122.33 73.2 119.53 72.9 115.04 72.71 112.25 72.45 108.43 70.93 108.43 72.28 134.13 74.19 134.13 74.19 134.09"/><polygon class="cls-8" points="72.06 103.13 72.06 106.39 122.88 107.74 122.93 101.94 72.06 103.13"/><polygon class="cls-9" points="22.75 101.76 22.7 107.57 67.56 106.38 67.56 103.11 22.75 101.76"/><path class="cls-10" d="M87.29,140.78l-4.87-3.24a46.62,46.62,0,0,0-25.73-7.43H0v10.67Z"/><path class="cls-11" d="M52.21,134.15a47.1,47.1,0,0,1,24.49,6.64H87.29l-4.87-3.25a46.7,46.7,0,0,0-25.73-7.42H0v4Z"/><rect class="cls-12" y="140.8" width="336.01" height="94.39"/><g class="cls-13"><path class="cls-4" d="M231.64,153c44.77.12,75.08.35,75.08.61s-23.33.44-59.29.57c43,.12,71.84.34,71.84.6s-65.3.7-145.82.7-145.82-.32-145.82-.7,23.33-.44,59.29-.56c-43-.13-71.83-.35-71.83-.61s44-.58,104.23-.67c-44.76-.12-75.07-.34-75.07-.61s29.64-.48,73.6-.6c-61.77-.09-107.17-.36-107.17-.68s65.3-.7,145.81-.7,145.82.32,145.82.7-29.64.49-73.6.61c61.77.08,107.17.35,107.17.67s-44,.59-104.24.67Zm-42.93-9.75c80.52,0,145.82.32,145.82.7s-44.62.59-105.56.67c44.37.12,74.36.35,74.36.61s-65.3.7-145.82.7-145.81-.31-145.81-.7,44.61-.59,105.55-.67c-44.37-.12-74.36-.35-74.36-.61s65.3-.7,145.82-.7Z"/></g><polygon class="cls-14" points="-0.01 150.02 -0.01 146.11 176.32 148.04 -0.01 150.02"/><path class="cls-15" d="M111.05,166.59c42.51,0,77,.36,77,.8,0,.26-12,.5-30.59.64,34.81.08,60.94.4,60.94.79,0,.13-3,.25-8.37.36,17.12.15,28.05.37,28.05.62s-12.33.5-31.33.65c11.22.14,18,.32,18,.51,0,.44-34.47.8-77,.8s-77-.36-77-.8c0-.26,12.33-.5,31.33-.64-11.22-.14-18-.32-18-.52s3-.26,8.38-.36c-17.13-.15-28-.37-28-.62s12-.5,30.59-.64c-34.81-.08-60.95-.4-60.95-.79s34.48-.8,77-.8Zm40.27,5.18c42.51,0,77,.35,77,.8s-34.47.8-77,.8-77-.36-77-.8,34.47-.8,77-.8Z"/><path class="cls-16" d="M186.68,159.31c77.33,0,140.05.32,140.05.7s-62.72.7-140,.7S46.62,160.4,46.62,160s62.72-.7,140.06-.7Z"/><path class="cls-16" d="M146.32,163c80.52,0,145.82.51,145.82,1.13s-65.3,1.13-145.82,1.13S.51,164.79.51,164.16,65.8,163,146.32,163Z"/><path class="cls-17" d="M260.6,140.81H75.38C66,145.1,60.51,150.1,60.51,155.45c0,15.79,47.16,28.58,105.33,28.58l2.15,0,2.15,0c58.18,0,105.34-12.79,105.34-28.58C275.48,150.1,270,145.1,260.6,140.81Z"/><path class="cls-18" d="M.2,218.77H105.91l-.08-29.85S61.75,176,.2,171.31Z"/><path id="_Group_" data-name="&lt;Group&gt;" class="cls-19" d="M51.38,23.5c1.61-1.81,5-6.8,6.21-17.36,0,0-2.17,11.9-6.07,15.38.38-5.93.29-9.88.29-9.88-.31,3.74-.68,7.21-1.08,10.44,0,0-.18,1.47-.18,1.47A151.27,151.27,0,0,1,46.6,44.16c-2.65-10.26.6-27,.6-27a65.46,65.46,0,0,0-1.35,29.6C42.74,56.93,39.3,61.4,37,63.35c-.18-8.36-.6-27.76-.63-29.1,2.66-3.13,7-10.22,8.92-24.49.29-2,.57-5.82.74-10.17H44.69a88.81,88.81,0,0,1-1.34,11.2c-1.19-2.54-1.76-6.9-2-11.2H40.12c.07,7.6,1.68,12.28,2.56,14.27-1.3,5.31-3.31,10.27-6.41,13.85-.2-9.49-.55-18.81-.89-28.12H30.11c0,8.28-.05,15.46,0,16.31-3.39-3.61-5.55-8.83-6.92-14.42L22.74-.41H20.6c2.26,13.82,7,20.32,9.4,22.93l-.53,29c-2.21-1.61-6-5.88-9.49-17.15a173.57,173.57,0,0,1-4.7-23.19S14.39,3.46,14.05-.41h0c0,1.06,0,4.62.29,9.55l.14,2A134.84,134.84,0,0,0,16.93,28.8c-3.57-4-5.56-14.86-5.56-14.86,1.13,10.31,4.44,15.31,6.09,17.22C19.7,40.5,23.37,49.79,29.4,55.77c0,0,.11,95.42-.42,120.34l9.15,0c.12,0-.88-102.27-1-108.73,5.62-6,9.1-14.92,11.25-23.89,1.65-1.91,5-6.9,6.09-17.22,0,0-2,10.86-5.56,14.86A134.94,134.94,0,0,0,51.38,23.5Z"/><g class="cls-20"><path class="cls-21" d="M.2,171.26V187l105.63,1.83S61.75,176,.2,171.26Z"/></g><path id="_Group_2" data-name="&lt;Group&gt;" class="cls-5" d="M286.88,25.37c1.84-1.91,5.77-7.18,7.09-18.34,0,0-2.48,12.58-6.93,16.25.43-6.27.33-10.45.33-10.45-.36,4-.78,7.63-1.23,11a12.49,12.49,0,0,0-.21,1.55,152,152,0,0,1-4.51,21.77c-3-10.83.67-28.55.67-28.55a64.09,64.09,0,0,0-1.53,31.28c-3.56,10.77-7.49,15.5-10.07,17.56-.2-8.84-.69-29.34-.72-30.75,3-3.32,8-10.81,10.19-25.89.33-2.14.65-6.16.85-10.75h-1.58a87.19,87.19,0,0,1-1.53,11.83c-1.36-2.67-2-7.28-2.3-11.83H274c.08,8,1.92,13,2.92,15.09-1.48,5.6-3.78,10.85-7.32,14.64-.23-10-.62-19.88-1-29.73h-6c0,8.75-.06,16.34,0,17.24-3.88-3.82-6.35-9.33-7.91-15.24l-.47-2h-2.44c2.57,14.61,8,21.48,10.73,24.24L261.84,55c-2.52-1.69-6.91-6.21-10.85-18.12a170.78,170.78,0,0,1-5.36-24.51s-1-8.15-1.41-12.24h0c0,1.12,0,4.88.34,10.09l.16,2.09A132.42,132.42,0,0,0,247.51,31c-4.08-4.23-6.35-15.71-6.35-15.71,1.29,10.9,5.08,16.18,7,18.2,2.56,9.87,6.75,19.68,13.64,26,0,0,.12,100.85-.48,127.18l10.45.06c.14,0-1-108.09-1.15-114.91C277,65.47,281,56,283.43,46.56c1.89-2,5.67-7.3,7-18.21,0,0-2.27,11.48-6.36,15.71A132.21,132.21,0,0,0,286.88,25.37Z"/><path id="_Group_3" data-name="&lt;Group&gt;" class="cls-10" d="M306.4,99.37c15.88-17.62,16.88-56.3,16.88-56.3s-2.06,16.77-5.91,26.05C312.32,62.89,313.14,44,313.14,44c-3.42,16,1.25,25.05,2.85,28.11,0,0-3.41,15-9.68,22.6,0-2.22-1-94.73-1-94.73h-5.22c-.47,19.43-1.68,128.16-1.72,129.55q-.33,13.06-.67,26.12c-2.81-2-7.07-6.69-10.94-17.3a57.54,57.54,0,0,0-1.66-30.83s4,17.46.73,28.14a137.54,137.54,0,0,1-4.89-21.46,14.55,14.55,0,0,0-.23-1.53c-.5-3.37-.95-7-1.34-10.88,0,0,.09,5.71.53,12.35a119.72,119.72,0,0,0,3.08,18.42c-4.43-4.16-6.9-15.48-6.9-15.48,1.41,10.75,5.52,15.95,7.57,17.94,2.66,9.35,7,18.64,13.95,24.89q-.21,8.78-.4,17.56H308q-.21-6-.45-11.91Z"/><path class="cls-22" d="M336,218.77H231l.08-29.85S274.83,176,336,171.31Z"/><g class="cls-20"><path class="cls-23" d="M336,171.55v15.77l-105.63,1.83S274.47,176.24,336,171.55Z"/></g><path class="cls-24" d="M335.9,205.34s-74.54-19.15-168.84-19.29h-1C73.35,186.2.08,205.34.08,205.34L0,235.19H336Z"/><path class="cls-25" d="M166,201.06H167c83.4.15,151.72,18.81,168.92,23.93l-.06-19.69S261.36,186.15,167.06,186h-1C73.35,186.15.08,205.3.08,205.3L0,225C17.06,219.82,84.13,201.22,166,201.06Z"/><polygon class="cls-26" points="-0.1 235.05 14.03 235.05 14.06 -0.14 -0.1 -0.14 -0.1 235.05"/><polygon class="cls-27" points="8.45 -0.14 8.45 235.05 14.06 235.05 13.99 -0.14 8.45 -0.14"/><rect class="cls-28" x="1.49" y="-0.14" width="1.32" height="235.33"/><rect class="cls-28" x="4.35" y="-0.14" width="0.77" height="235.31"/><polygon class="cls-29" points="14.13 235.12 14.06 -0.14 11.46 -0.14 11.46 235.13 14.13 235.12"/><polygon class="cls-26" points="335.99 0 321.85 0 321.82 235.19 335.99 235.19 335.99 0"/><polygon class="cls-27" points="327.43 235.19 327.43 0 321.82 0 321.89 235.19 327.43 235.19"/><rect class="cls-28" x="333.07" y="-0.14" width="1.32" height="235.33"/><rect class="cls-28" x="330.76" y="-0.12" width="0.77" height="235.31"/><polygon class="cls-29" points="321.75 -0.07 321.82 235.19 324.42 235.19 324.42 -0.08 321.75 -0.07"/><path class="cls-30" d="M7.28,79.54s-7.34-.68-7.38-.67V.08H92.43c3.24,2.05,5.76,6.36,5.76,6.36s-6.11,1.73-9.93.18a5.75,5.75,0,0,1-2.6-2c-2.13.37-5.34.65-7.68-.3a6.48,6.48,0,0,1-1.2-.64c1,3.77-.35,8.86-.35,8.86s-5.2-2.92-7-6.55a12.9,12.9,0,0,1-2-.18,6.26,6.26,0,0,1,1.76,2.57c1.64,4.36-.35,11.57-.35,11.57a23.49,23.49,0,0,1-6.43-5.61,26,26,0,0,1-2.23,3.44A24.31,24.31,0,0,1,57,11.53c-.63,1-1.12,1.59-1.12,1.59a25.66,25.66,0,0,1-2.68-4.7,23.24,23.24,0,0,1-2.11,4c2.7,3,3.38,9.05,3.38,9.05a26,26,0,0,1-4.37-1.11,2,2,0,0,0,.08.22,5.08,5.08,0,0,1,.93,1.62A5.9,5.9,0,0,1,54.49,24a10.31,10.31,0,0,1,1.89,3A6.19,6.19,0,0,1,61.8,28.7c2.87,3,3.58,9.27,3.58,9.27a26.11,26.11,0,0,1-4.26-1.07,24.39,24.39,0,0,1,1.82,6.62,26.24,26.24,0,0,1-4.6-1.19A24.79,24.79,0,0,1,60,48.45a25.68,25.68,0,0,1-4.78-1.25,25.6,25.6,0,0,1,1.29,5.33,24.43,24.43,0,0,1-6.57-2,5.76,5.76,0,0,1,.74,1.8,12.28,12.28,0,0,1-.21,5.28c.64,1.49,1,2.62,1,2.62a10.76,10.76,0,0,1-1.59-.52c-.46,1.43-.9,2.41-.9,2.41s-3.89-3.16-5.42-6.68a5.67,5.67,0,0,1-.18,1c-1.06,4-6.11,7.84-6.11,7.84a25.48,25.48,0,0,1-1.33-4.49l0,0v-.12a12.25,12.25,0,0,1-.06-5.25,5.79,5.79,0,0,1,1.42-2.54,15.39,15.39,0,0,1,.82-5.31,13.67,13.67,0,0,1-3.28-3,24.92,24.92,0,0,1-2.85,5.3,26.41,26.41,0,0,1-2.17-3.22,26.54,26.54,0,0,1-2.33,4s-.2-.25-.5-.66a15.37,15.37,0,0,1-1.17-1.16,25.41,25.41,0,0,1-.64,2.92A25.14,25.14,0,0,1,25.93,57a26.44,26.44,0,0,1-3.76-1.42,26.19,26.19,0,0,1,.36,4.15,24,24,0,0,1-6.54-3c0,.65-.06,1.28-.12,1.88,1.63,3.1,1.74,7.58,1.75,8.42h0v.14a22.75,22.75,0,0,1-7.2-3.51,25.23,25.23,0,0,1,.53,5A25.94,25.94,0,0,1,6.75,67a.36.36,0,0,1-.07.1c2.07,3.41,2,9,2,9S.18,71.57,0,71.53C.39,72.88,7.28,79.54,7.28,79.54Z"/><path class="cls-31" d="M95.87,14.16s-7.23-.75-10.64-4-1.71-7.79-1.71-7.79S88,.45,91.37,3.71,95.87,14.16,95.87,14.16Z"/><path class="cls-32" d="M76.81,14.29s-7.23-.75-10.64-4S64.46,2.5,64.46,2.5,68.91.59,72.32,3.85,76.81,14.29,76.81,14.29Z"/><path class="cls-32" d="M59.73,6.67s-5.64,4.58-10.35,4.69-6.72-4.3-6.72-4.3,1.8-4.49,6.51-4.6S59.73,6.67,59.73,6.67Z"/><path class="cls-33" d="M60.89,19.93s-7.24-.75-10.65-4-1.7-7.79-1.7-7.79S53,6.22,56.39,9.48,60.89,19.93,60.89,19.93Z"/><path class="cls-31" d="M63.84,15.43s-5.71-.6-8.41-3.17a6,6,0,0,1-1.35-6.15,6,6,0,0,1,6.21,1.06C63,9.75,63.84,15.43,63.84,15.43Z"/><path class="cls-33" d="M86.16,11.84s-5.72-.6-8.41-3.17A6,6,0,0,1,76.4,2.51a6,6,0,0,1,6.21,1.07C85.3,6.15,86.16,11.84,86.16,11.84Z"/><path class="cls-31" d="M47.29,14.15s-5.72-.59-8.41-3.17a6,6,0,0,1-1.35-6.15A6,6,0,0,1,43.74,5.9C46.43,8.47,47.29,14.15,47.29,14.15Z"/><path class="cls-31" d="M27.6,17.84s-5.72-.59-8.41-3.17a6,6,0,0,1-1.35-6.15,6,6,0,0,1,6.21,1.07C26.74,12.16,27.6,17.84,27.6,17.84Z"/><path class="cls-33" d="M27.57,10.59s-5.72.48-8.85-1.55a6,6,0,0,1-2.46-5.8,6,6,0,0,1,6.3-.1C25.68,5.17,27.57,10.59,27.57,10.59Z"/><path class="cls-31" d="M71.64,43.64s-5.71-.59-8.41-3.17a6,6,0,0,1-1.35-6.15,6,6,0,0,1,6.21,1.07C70.79,38,71.64,43.64,71.64,43.64Z"/><path class="cls-32" d="M27.58,46.12s-5.72-.6-8.41-3.17a6,6,0,0,1-1.35-6.15A6,6,0,0,1,24,37.86C26.72,40.44,27.58,46.12,27.58,46.12Z"/><path class="cls-32" d="M13.56,69.26s-5.72-.59-8.41-3.17A6,6,0,0,1,3.8,59.94,6,6,0,0,1,10,61C12.7,63.58,13.56,69.26,13.56,69.26Z"/><path class="cls-32" d="M38.35,5.47S33.86,9.07,30,9s-5.58-3.68-5.58-3.68a5.71,5.71,0,0,1,5.19-3.59C33.46,1.8,38.35,5.47,38.35,5.47Z"/><path class="cls-31" d="M68.78,21.39S68,28.62,64.77,32,57,33.74,57,33.74s-1.91-4.44,1.35-7.86S68.78,21.39,68.78,21.39Z"/><path class="cls-32" d="M73.56,33.88s-5.65,4.58-10.36,4.69-6.72-4.3-6.72-4.3,1.8-4.49,6.51-4.6S73.56,33.88,73.56,33.88Z"/><path class="cls-33" d="M64.59,50.92s-7.23-.75-10.64-4-1.71-7.79-1.71-7.79,4.45-1.9,7.86,1.36S64.59,50.92,64.59,50.92Z"/><path class="cls-33" d="M52.84,30.2s-7.24-.75-10.65-4-1.7-7.79-1.7-7.79,4.44-1.9,7.85,1.36S52.84,30.2,52.84,30.2Z"/><path class="cls-32" d="M44,22.84s-7.23-.75-10.64-4S31.68,11,31.68,11s4.45-1.9,7.86,1.36S44,22.84,44,22.84Z"/><path class="cls-32" d="M1.37,14.9s.75-7.23,4-10.64,7.78-1.71,7.78-1.71S15.07,7,11.81,10.4,1.37,14.9,1.37,14.9Z"/><path class="cls-31" d="M34.73,43.41s-6.38-3.49-8.27-7.81,1.44-7.84,1.44-7.84,4.84-.05,6.72,4.28S34.73,43.41,34.73,43.41Z"/><path class="cls-32" d="M43,58.75s-6.38-3.49-8.27-7.81,1.44-7.85,1.44-7.85,4.84,0,6.72,4.29S43,58.75,43,58.75Z"/><path class="cls-31" d="M15.65,61.21s-4.47-5.74-4.48-10.46,4.43-6.62,4.43-6.62,4.46,1.88,4.47,6.6S15.65,61.21,15.65,61.21Z"/><path class="cls-33" d="M20.33,33.6S14,30.11,12.06,25.79s1.44-7.85,1.44-7.85,4.83,0,6.72,4.29S20.33,33.6,20.33,33.6Z"/><path class="cls-32" d="M6.12,38.65s-2-7-.32-11.37,6.56-4.53,6.56-4.53,3.45,3.39,1.72,7.78S6.12,38.65,6.12,38.65Z"/><path class="cls-32" d="M26.3,28.69S19.92,25.2,18,20.88,19.47,13,19.47,13s4.84,0,6.73,4.29S26.3,28.69,26.3,28.69Z"/><path class="cls-32" d="M47.74,38.54s-7,2-11.36.32-4.53-6.56-4.53-6.56,3.39-3.45,7.78-1.72S47.74,38.54,47.74,38.54Z"/><path class="cls-19" d="M45.25,20.58a1.6,1.6,0,0,0,2.32.64,1.63,1.63,0,0,0,1.72.37,2.49,2.49,0,0,0,1.37.55l.05.05s0,0,0,0h0l0,0a2.52,2.52,0,0,0-.54-1.38A1.63,1.63,0,0,0,49.82,19a1.6,1.6,0,0,0-.62-2.32s.95-1.07-1.58-2.65c-2.07-1.29-5.64-1.84-7.19-2.31l-.08-.08a.14.14,0,0,1,0,.06l-.06,0,.08.08c.45,1.55,1,5.13,2.23,7.21C44.17,21.52,45.25,20.58,45.25,20.58Z"/><path class="cls-19" d="M44.05,48.71a1.6,1.6,0,0,0,2.31.64,1.64,1.64,0,0,0,1.72.36,2.52,2.52,0,0,0,1.37.56l0,0s0,0,0,0h0l0,0A2.47,2.47,0,0,0,49,48.85a1.63,1.63,0,0,0-.34-1.73A1.6,1.6,0,0,0,48,44.8s.95-1.07-1.58-2.64c-2.07-1.29-5.64-1.85-7.19-2.32l-.07-.08s0,0,0,.07l-.06,0,.08.07c.45,1.56,1,5.13,2.23,7.21C43,49.65,44.05,48.71,44.05,48.71Z"/><path class="cls-19" d="M64.73,10.51a1.3,1.3,0,0,0,1.43,1.3,1.32,1.32,0,0,0,1.1.89,2.05,2.05,0,0,0,.78.89l0,.05v0l0,0,0-.05a2,2,0,0,0,.11-1.19A1.3,1.3,0,0,0,68.58,11,1.3,1.3,0,0,0,69,9.14s1.07-.42-.18-2.47C67.8,5,65.44,3.29,64.5,2.4l0-.09a.09.09,0,0,1,0,0l0,0,0,.08c-.24,1.28-1.16,4-1,6C63.62,10.79,64.73,10.51,64.73,10.51Z"/><path class="cls-19" d="M23.77,10.51a1.29,1.29,0,0,0,1.43,1.3,1.32,1.32,0,0,0,1.1.89,2.05,2.05,0,0,0,.78.89l0,.05v0l0,0v-.05a2,2,0,0,0,.11-1.19A1.3,1.3,0,0,0,27.62,11,1.3,1.3,0,0,0,28,9.14s1.07-.42-.18-2.47c-1-1.68-3.37-3.38-4.31-4.27l0-.09a.09.09,0,0,1,0,0l0,0,0,.08c-.24,1.28-1.16,4-1,6C22.66,10.79,23.77,10.51,23.77,10.51Z"/><path class="cls-19" d="M21.78,54.28A1.67,1.67,0,0,0,23.63,56a1.7,1.7,0,0,0,1.43,1.15,2.56,2.56,0,0,0,1,1.16l0,.06s0,0,0,0l0,0,0-.07a2.64,2.64,0,0,0,.15-1.53A1.71,1.71,0,0,0,26.77,55a1.67,1.67,0,0,0,.52-2.44s1.39-.55-.23-3.21c-1.31-2.17-4.36-4.37-5.58-5.53l0-.11a.13.13,0,0,1,0,.06l0,0,0,.11c-.31,1.65-1.51,5.22-1.32,7.75C20.34,54.64,21.78,54.28,21.78,54.28Z"/><path class="cls-19" d="M7.19,15.27a1.3,1.3,0,0,0,.09,1.93,1.3,1.3,0,0,0,.15,1.4,2.09,2.09,0,0,0-.08,1.19l0,.05,0,0v0l0-.05a1.92,1.92,0,0,0,.92-.76,1.29,1.29,0,0,0,1.23-.69,1.29,1.29,0,0,0,1.62-1.05s1.06.46,1.63-1.87c.47-1.91,0-4.77,0-6.07l0-.08,0,0V9.27l0,.08c-1.07.73-3.67,2-5,3.5C6.2,14.68,7.19,15.27,7.19,15.27Z"/><path class="cls-19" d="M7.19,52.5a1.3,1.3,0,0,0,.09,1.93,1.32,1.32,0,0,0,.15,1.41A2.05,2.05,0,0,0,7.35,57l0,0h0s0,0,0,0l0-.05a2,2,0,0,0,.92-.75,1.31,1.31,0,0,0,1.23-.7,1.29,1.29,0,0,0,1.62-1.05s1.06.46,1.63-1.87c.47-1.9,0-4.77,0-6.07l0-.08,0,0v0l0,.08c-1.07.73-3.67,2-5,3.51C6.2,51.91,7.19,52.5,7.19,52.5Z"/><path class="cls-19" d="M85.86,7.49a1.29,1.29,0,0,0,1.93-.09,1.3,1.3,0,0,0,1.4-.15,1.93,1.93,0,0,0,1.19.08l.05,0s0,0,0,0h0l0,0a2,2,0,0,0-.75-.92A1.31,1.31,0,0,0,89,5.14a1.29,1.29,0,0,0-1-1.62s.46-1-1.87-1.63c-1.9-.46-4.77,0-6.07,0l-.08,0,0,0h0l.08,0c.73,1.08,2,3.68,3.51,5C85.27,8.48,85.86,7.49,85.86,7.49Z"/><path class="cls-30" d="M328.54,79.54s7.34-.68,7.38-.67V.08H243.39c-3.24,2.05-5.76,6.36-5.76,6.36s6.11,1.73,9.93.18a5.75,5.75,0,0,0,2.6-2c2.13.37,5.34.65,7.68-.3a6.48,6.48,0,0,0,1.2-.64c-1,3.77.35,8.86.35,8.86s5.2-2.92,7-6.55a12.9,12.9,0,0,0,2-.18,6.26,6.26,0,0,0-1.76,2.57c-1.64,4.36.35,11.57.35,11.57a23.49,23.49,0,0,0,6.43-5.61,26,26,0,0,0,2.23,3.44,24.31,24.31,0,0,0,3.25-6.23c.63,1,1.12,1.59,1.12,1.59a25.66,25.66,0,0,0,2.68-4.7,23.24,23.24,0,0,0,2.11,4c-2.7,3-3.38,9.05-3.38,9.05a26,26,0,0,0,4.37-1.11,2,2,0,0,0-.08.22,5.08,5.08,0,0,0-.93,1.62A5.9,5.9,0,0,0,281.33,24a10.31,10.31,0,0,0-1.89,3A6.17,6.17,0,0,0,274,28.7c-2.87,3-3.58,9.27-3.58,9.27a26.11,26.11,0,0,0,4.26-1.07,24.39,24.39,0,0,0-1.82,6.62,26.24,26.24,0,0,0,4.6-1.19,24.79,24.79,0,0,0-1.61,6.12,25.68,25.68,0,0,0,4.78-1.25,25.6,25.6,0,0,0-1.29,5.33,24.43,24.43,0,0,0,6.57-2,5.76,5.76,0,0,0-.74,1.8,12.28,12.28,0,0,0,.21,5.28c-.64,1.49-1,2.62-1,2.62a10.76,10.76,0,0,0,1.59-.52c.46,1.43.9,2.41.9,2.41s3.89-3.16,5.42-6.68a5.67,5.67,0,0,0,.18,1c1.06,4,6.11,7.84,6.11,7.84a26.52,26.52,0,0,0,1.33-4.49l0,0v-.12a12.25,12.25,0,0,0,.06-5.25,5.79,5.79,0,0,0-1.42-2.54,15.39,15.39,0,0,0-.82-5.31,13.67,13.67,0,0,0,3.28-3,24.92,24.92,0,0,0,2.85,5.3,26.41,26.41,0,0,0,2.17-3.22,26,26,0,0,0,2.32,4s.21-.25.51-.66a13.86,13.86,0,0,0,1.16-1.16,27.17,27.17,0,0,0,.65,2.92,25.14,25.14,0,0,0-.81,6.14,26.44,26.44,0,0,0,3.76-1.42,27,27,0,0,0-.37,4.15,24,24,0,0,0,6.55-3c0,.65.06,1.28.12,1.88-1.63,3.1-1.74,7.58-1.75,8.42h0v.14a22.75,22.75,0,0,0,7.2-3.51,25.23,25.23,0,0,0-.53,5,25.94,25.94,0,0,0,4.2-1.64.36.36,0,0,0,.07.1c-2.07,3.41-2,9-2,9s8.51-4.54,8.66-4.58C335.42,72.88,328.54,79.54,328.54,79.54Z"/><path class="cls-31" d="M240,14.16s7.23-.75,10.64-4,1.71-7.79,1.71-7.79-4.44-1.91-7.86,1.35S240,14.16,240,14.16Z"/><path class="cls-32" d="M259,14.29s7.23-.75,10.64-4,1.71-7.78,1.71-7.78S266.91.59,263.5,3.85,259,14.29,259,14.29Z"/><path class="cls-32" d="M276.08,6.67s5.65,4.58,10.36,4.69,6.72-4.3,6.72-4.3-1.8-4.49-6.51-4.6S276.08,6.67,276.08,6.67Z"/><path class="cls-33" d="M274.93,19.93s7.23-.75,10.64-4,1.71-7.79,1.71-7.79-4.44-1.91-7.85,1.35S274.93,19.93,274.93,19.93Z"/><path class="cls-31" d="M272,15.43s5.71-.6,8.41-3.17a6,6,0,0,0,1.35-6.15,6,6,0,0,0-6.21,1.06C272.83,9.75,272,15.43,272,15.43Z"/><path class="cls-33" d="M249.66,11.84s5.72-.6,8.41-3.17a6,6,0,0,0,1.35-6.16,6,6,0,0,0-6.21,1.07C250.52,6.15,249.66,11.84,249.66,11.84Z"/><path class="cls-31" d="M288.53,14.15s5.72-.59,8.41-3.17a6,6,0,0,0,1.35-6.15,6,6,0,0,0-6.21,1.07C289.39,8.47,288.53,14.15,288.53,14.15Z"/><path class="cls-31" d="M308.22,17.84s5.72-.59,8.41-3.17A6,6,0,0,0,318,8.52a6,6,0,0,0-6.21,1.07C309.08,12.16,308.22,17.84,308.22,17.84Z"/><path class="cls-33" d="M308.24,10.59S314,11.07,317.1,9a6,6,0,0,0,2.46-5.8,6,6,0,0,0-6.3-.1C310.14,5.17,308.24,10.59,308.24,10.59Z"/><path class="cls-31" d="M264.18,43.64s5.71-.59,8.41-3.17a6,6,0,0,0,1.35-6.15,6,6,0,0,0-6.21,1.07C265,38,264.18,43.64,264.18,43.64Z"/><path class="cls-32" d="M308.24,46.12s5.72-.6,8.41-3.17A6,6,0,0,0,318,36.8a6,6,0,0,0-6.21,1.06C309.1,40.44,308.24,46.12,308.24,46.12Z"/><path class="cls-32" d="M322.26,69.26s5.71-.59,8.41-3.17A6,6,0,0,0,332,59.94,6,6,0,0,0,325.81,61C323.12,63.58,322.26,69.26,322.26,69.26Z"/><path class="cls-32" d="M297.47,5.47S302,9.07,305.81,9s5.58-3.68,5.58-3.68a5.71,5.71,0,0,0-5.19-3.59C302.36,1.8,297.47,5.47,297.47,5.47Z"/><path class="cls-31" d="M267,21.39s.75,7.23,4,10.64,7.79,1.71,7.79,1.71,1.91-4.44-1.35-7.86S267,21.39,267,21.39Z"/><path class="cls-32" d="M262.26,33.88s5.65,4.58,10.36,4.69,6.72-4.3,6.72-4.3-1.8-4.49-6.51-4.6S262.26,33.88,262.26,33.88Z"/><path class="cls-33" d="M271.22,50.92s7.24-.75,10.65-4,1.71-7.79,1.71-7.79-4.45-1.9-7.86,1.36S271.22,50.92,271.22,50.92Z"/><path class="cls-33" d="M283,30.2s7.23-.75,10.64-4,1.71-7.79,1.71-7.79-4.44-1.9-7.85,1.36S283,30.2,283,30.2Z"/><path class="cls-32" d="M291.79,22.84s7.23-.75,10.64-4S304.14,11,304.14,11s-4.45-1.9-7.86,1.36S291.79,22.84,291.79,22.84Z"/><path class="cls-32" d="M334.45,14.9s-.75-7.23-4-10.64-7.78-1.71-7.78-1.71S320.75,7,324,10.4,334.45,14.9,334.45,14.9Z"/><path class="cls-31" d="M301.09,43.41s6.38-3.49,8.26-7.81-1.43-7.84-1.43-7.84-4.84-.05-6.72,4.28S301.09,43.41,301.09,43.41Z"/><path class="cls-32" d="M292.81,58.75s6.38-3.49,8.27-7.81-1.44-7.85-1.44-7.85-4.84,0-6.72,4.29S292.81,58.75,292.81,58.75Z"/><path class="cls-31" d="M320.17,61.21s4.47-5.74,4.48-10.46-4.43-6.62-4.43-6.62-4.46,1.88-4.47,6.6S320.17,61.21,320.17,61.21Z"/><path class="cls-33" d="M315.49,33.6s6.38-3.49,8.27-7.81-1.44-7.85-1.44-7.85-4.84,0-6.72,4.29S315.49,33.6,315.49,33.6Z"/><path class="cls-32" d="M329.7,38.65s2-7,.32-11.37-6.56-4.53-6.56-4.53-3.45,3.39-1.72,7.78S329.7,38.65,329.7,38.65Z"/><path class="cls-32" d="M309.52,28.69s6.38-3.49,8.26-7.81S316.35,13,316.35,13s-4.84,0-6.73,4.29S309.52,28.69,309.52,28.69Z"/><path class="cls-32" d="M288.08,38.54s7,2,11.36.32S304,32.3,304,32.3s-3.39-3.45-7.78-1.72S288.08,38.54,288.08,38.54Z"/><path class="cls-19" d="M290.56,20.58a1.59,1.59,0,0,1-2.31.64,1.63,1.63,0,0,1-1.72.37,2.49,2.49,0,0,1-1.37.55l-.05.05s0,0,0,0h-.05l.05,0a2.52,2.52,0,0,1,.54-1.38A1.61,1.61,0,0,1,286,19a1.6,1.6,0,0,1,.62-2.32s-.95-1.07,1.58-2.65c2.07-1.29,5.64-1.84,7.19-2.31l.07-.08s0,0,0,.06l.06,0-.08.08c-.45,1.55-1,5.13-2.23,7.21C291.64,21.52,290.56,20.58,290.56,20.58Z"/><path class="cls-19" d="M291.77,48.71a1.6,1.6,0,0,1-2.31.64,1.64,1.64,0,0,1-1.72.36,2.52,2.52,0,0,1-1.37.56l-.05,0v0h0l.05,0a2.4,2.4,0,0,1,.54-1.38,1.63,1.63,0,0,1,.34-1.73,1.6,1.6,0,0,1,.61-2.32s-.95-1.07,1.59-2.64c2.07-1.29,5.64-1.85,7.19-2.32l.07-.08s0,0,0,.07l.06,0-.08.07c-.45,1.56-1,5.13-2.24,7.21C292.85,49.65,291.77,48.71,291.77,48.71Z"/><path class="cls-19" d="M271.08,10.51a1.29,1.29,0,0,1-1.42,1.3,1.32,1.32,0,0,1-1.1.89,2.05,2.05,0,0,1-.78.89l0,.05,0,0,0,0,0-.05a2,2,0,0,1-.11-1.19,1.3,1.3,0,0,1-.38-1.36,1.29,1.29,0,0,1-.41-1.89s-1.07-.42.18-2.47c1-1.68,3.37-3.38,4.31-4.27l0-.09a.09.09,0,0,0,0,0l0,0,0,.08c.25,1.28,1.17,4,1,6C272.2,10.79,271.08,10.51,271.08,10.51Z"/><path class="cls-19" d="M312.05,10.51a1.3,1.3,0,0,1-1.43,1.3,1.32,1.32,0,0,1-1.1.89,2.05,2.05,0,0,1-.78.89l0,.05a0,0,0,0,1,0,0l0,0,0-.05a2,2,0,0,1-.11-1.19A1.3,1.3,0,0,1,308.2,11a1.29,1.29,0,0,1-.41-1.89s-1.07-.42.18-2.47c1-1.68,3.37-3.38,4.31-4.27l0-.09a.09.09,0,0,0,0,0l0,0,0,.08c.25,1.28,1.17,4,1,6C313.16,10.79,312.05,10.51,312.05,10.51Z"/><path class="cls-19" d="M314,54.28A1.67,1.67,0,0,1,312.19,56a1.7,1.7,0,0,1-1.43,1.15,2.56,2.56,0,0,1-1,1.16l0,.06s0,0,0,0l0,0,0-.07a2.64,2.64,0,0,1-.15-1.53,1.71,1.71,0,0,1-.49-1.77,1.66,1.66,0,0,1-.52-2.44s-1.39-.55.23-3.21c1.31-2.17,4.36-4.37,5.58-5.53l0-.11s0,0,0,.06l0,0,0,.11c.31,1.65,1.51,5.22,1.32,7.75C315.48,54.64,314,54.28,314,54.28Z"/><path class="cls-19" d="M328.63,15.27a1.3,1.3,0,0,1-.09,1.93,1.3,1.3,0,0,1-.15,1.4,2.09,2.09,0,0,1,.08,1.19l0,.05,0,0a.06.06,0,0,0,0,0l0-.05a1.9,1.9,0,0,1-.91-.76,1.29,1.29,0,0,1-1.23-.69,1.29,1.29,0,0,1-1.62-1.05s-1.06.46-1.63-1.87c-.47-1.91,0-4.77,0-6.07l0-.08,0,0V9.27l0,.08c1.07.73,3.67,2,4.95,3.5C329.61,14.68,328.63,15.27,328.63,15.27Z"/><path class="cls-19" d="M328.63,52.5a1.3,1.3,0,0,1-.09,1.93,1.32,1.32,0,0,1-.15,1.41,2.05,2.05,0,0,1,.08,1.18l0,0h0a0,0,0,0,0,0,0l0-.05a1.93,1.93,0,0,1-.91-.75,1.31,1.31,0,0,1-1.23-.7,1.29,1.29,0,0,1-1.62-1.05S323.6,55,323,52.67c-.47-1.9,0-4.77,0-6.07l0-.08,0,0v0l0,.08c1.07.73,3.67,2,4.95,3.51C329.61,51.91,328.63,52.5,328.63,52.5Z"/><path class="cls-19" d="M250,7.49A1.29,1.29,0,0,1,248,7.4a1.32,1.32,0,0,1-1.41-.15,1.9,1.9,0,0,1-1.18.08l-.05,0s0,0,0,0h0l0,0a2,2,0,0,1,.75-.92,1.31,1.31,0,0,1,.7-1.23,1.29,1.29,0,0,1,1-1.62s-.46-1,1.87-1.63c1.9-.46,4.77,0,6.07,0l.08,0,0,0H256l-.08,0c-.73,1.08-2,3.68-3.51,5C250.55,8.48,250,7.49,250,7.49Z"/><path class="cls-30" d="M310.86,232.33c.51.26,1,.53,1.48.79l-3.55-2.73a200.45,200.45,0,0,0-24.34-16.1c-7.61-4.23-13.54-6.68-13.52-6.7a121.43,121.43,0,0,1,40.7,19.76c1.24,1,2.38,1.87,3.45,2.76-1.14-1.15-2.38-2.38-3.74-3.71A128.47,128.47,0,0,0,292,210.76a100,100,0,0,0-11.25-6.32,81.18,81.18,0,0,1,12.14,5.08,89,89,0,0,1,20.84,14.87c.86.84,1.66,1.65,2.41,2.44-1.06-1.6-2.22-3.31-3.5-5.14-2.87-4.12-6.11-8.44-9.53-12.5a134.45,134.45,0,0,0-10.37-11A120.45,120.45,0,0,0,280.36,188a94.85,94.85,0,0,1,14.08,8.59,100.18,100.18,0,0,1,11.91,10.25,98.08,98.08,0,0,1,10.5,12.51c.44.64.85,1.25,1.25,1.86-1-2.46-2.17-5.26-3.43-8.46-3.53-8.94-7.69-19.08-11.66-26.78s-7.39-13.05-7.36-13.06a115.64,115.64,0,0,1,9.53,12,134.89,134.89,0,0,1,14.14,26.33c1.14,2.89,2,5.47,2.79,7.82v16.15h-14c-7.85-4.07-17.19-8.1-24.49-11.46-7.52-3.43-12.72-6.27-12.71-6.28s5.63,2,13.53,4.58S302.55,228,310.86,232.33Z"/><path class="cls-30" d="M25.29,232.33c-.51.26-1,.53-1.47.79,1.11-.86,2.28-1.77,3.55-2.73a199.67,199.67,0,0,1,24.34-16.1c7.61-4.23,13.54-6.68,13.52-6.7a121.32,121.32,0,0,0-40.71,19.76c-1.24,1-2.38,1.87-3.44,2.76,1.13-1.15,2.38-2.38,3.74-3.71a128.4,128.4,0,0,1,19.31-15.64,102.07,102.07,0,0,1,11.25-6.32,81.35,81.35,0,0,0-12.13,5.08,88.57,88.57,0,0,0-20.84,14.87c-.87.84-1.66,1.65-2.41,2.44,1.06-1.6,2.21-3.31,3.49-5.14,2.88-4.12,6.12-8.44,9.53-12.5a136.19,136.19,0,0,1,10.37-11A118.6,118.6,0,0,1,55.8,188a93.67,93.67,0,0,0-14.08,8.59,100.18,100.18,0,0,0-11.91,10.25,96.46,96.46,0,0,0-10.5,12.51c-.45.64-.85,1.25-1.26,1.86,1-2.46,2.17-5.26,3.44-8.46,3.52-8.94,7.69-19.08,11.66-26.78s7.38-13.05,7.35-13.06a116.48,116.48,0,0,0-9.52,12,134.89,134.89,0,0,0-14.14,26.33c-1.14,2.89-2.05,5.47-2.8,7.82v16.15H28c7.86-4.07,17.2-8.1,24.5-11.46,7.52-3.43,12.71-6.27,12.7-6.28s-5.63,2-13.53,4.58S33.61,228,25.29,232.33Z"/><polygon class="cls-34" points="73.37 107.69 69.78 107.69 69.77 107.69 66.18 107.69 66.18 108.5 69.77 108.5 69.78 108.5 73.37 108.5 73.37 107.69 73.37 107.69"/><polygon class="cls-34" points="73.37 102.63 69.78 102.63 69.77 102.63 66.18 102.63 66.18 103.13 69.77 103.13 69.78 103.13 73.37 103.13 73.37 102.63 73.37 102.63"/><path class="cls-19" d="M80.6,171.83l-1.2,0c.1-.16,10.1-17,26.29-21.7a67.08,67.08,0,0,1,20-2.67c5.08-.08,9.88-.15,16.38-2,16.93-4.74,31.59-22,50.61-59.69l.89.45c-19.16,37.93-34,55.37-51.23,60.21-6.63,1.86-11.49,1.93-16.64,2A66.32,66.32,0,0,0,106,151.11C90.16,155.72,80.69,171.67,80.6,171.83Z"/><path class="cls-5" d="M212.38,52.75l-20.27-11.6c4,13.21-.27,43.61-1.07,48.87Z"/><path class="cls-6" d="M212.38,52.75l20.33,11.64C219.26,67.6,195.19,86.68,191,90Z"/><path class="cls-5" d="M232.71,64.39,212.38,52.75l13.4-23.4C226.05,42.14,232.5,63.69,232.71,64.39Z"/><path class="cls-6" d="M192.05,41.11l20.33,11.64,13.4-23.4C214.61,35.59,192.76,40.94,192.05,41.11Z"/><path class="cls-35" d="M225.78,29.35a65.26,65.26,0,0,0,.15,31.16c0,.14.07.22.07.22C215.81,60.73,191,90,191,90c4.15-3.34,28.22-22.42,41.67-25.63C232.5,63.69,226.05,42.14,225.78,29.35Z"/><path class="cls-31" d="M194.71,121.86l2.76-.3a16.64,16.64,0,0,1-1.77-2.21,13.59,13.59,0,0,1-1.82-11.52c1.11-3.43,3.8-6.11,4.68-9.65a8.5,8.5,0,0,0-4.11-9.09,5.65,5.65,0,0,0-.75-.35c-.42-.18-1.09.13-1.46.3-.07,0-1,.53-.64.67a8.24,8.24,0,0,1,4.73,9.12c-.75,3.53-3.51,6.27-4.67,9.65a13.68,13.68,0,0,0,1.54,11.31A16.38,16.38,0,0,0,194.71,121.86Z"/><path class="cls-6" d="M186.52,122.25h2.08a15.86,15.86,0,0,1,1.76-9.29c1.9-3.57,5-6.27,6.49-10.11a10.5,10.5,0,0,0-1-9.84,12.2,12.2,0,0,0-2.89-2.8,4.11,4.11,0,0,0-1.56-.65c-.42-.09-.48.08-.14.32a9.72,9.72,0,0,1,4,9.54,14.48,14.48,0,0,1-2,5.18c-1,1.78-2.47,3.32-3.67,5a16.79,16.79,0,0,0-3.34,11.29C186.38,121.35,186.44,121.8,186.52,122.25Z"/><g class="cls-36"><path class="cls-37" d="M82.42,144l4.87-3.25H0v10.68H56.69a50.27,50.27,0,0,0,9-.81l.08,1.26L66,156l.18,2.61.28,4.18.18,2.6.28,4.17.18,2.61.06.89h5.28l.26-3.82.19-2.8.3-4.48.19-2.8.3-4.48.19-2.8.25-3.68A41.52,41.52,0,0,0,82.42,144ZM69.24,164.11H70.4v1.44a.58.58,0,0,1-1.16,0Zm0-5.42H70.4v1.44a.58.58,0,0,1-1.16,0Z"/></g><path class="cls-38" d="M232.71,234.6a65.26,65.26,0,0,1-10-2.54c-1-.34-2.09-.7-3.16-1.08l-1.6-.58c-1.07-.39-2.14-.8-3.21-1.22l-3.19-1.28c-.89-.36-1.76-.73-2.62-1.1-1.21-.51-2.39-1-3.53-1.52l-2-.92-1.61-.73-1.54-.71c-1-.45-1.9-.88-2.77-1.3l-1.55-.74-1.12-.54L194,220l-1.64-.8a3.11,3.11,0,0,0,1.38.17c.25-.07.51-.14.75-.23,3.08-1.09,5-3.51,4.11-5.71a7.45,7.45,0,0,0-1.25-1.94,6.27,6.27,0,0,0-.46-1,13.65,13.65,0,0,0-3-3.16c-1.22-2.41-.37-5.11,1.84-7.2a13.75,13.75,0,0,1,1.77-1.39l-2.76-.19a12.85,12.85,0,0,0-1.51,1.3,6.82,6.82,0,0,0-2.13,5.05c-.25-.25-.49-.5-.71-.76a6.94,6.94,0,0,1-1.76-5.83h-2.08a6.11,6.11,0,0,0-.18.85c-.34,2.61.95,5,3.34,7.09,1.2,1,2.63,2,3.67,3.14a7.43,7.43,0,0,1,2,3.26c.53,2.28-.82,4.4-3.69,5.81-14.13-17.17-26-27.22-38.33-32.23l-1.79,0c12.8,4.82,25,15.06,39.75,33.11a109.29,109.29,0,0,1,2.42,15.85h38.78Z"/></svg>