<svg xmlns="http://www.w3.org/2000/svg" xmlns:xlink="http://www.w3.org/1999/xlink" viewBox="0 0 335.99 235.19"><defs><style>.cls-1{mask:url(#mask);filter:url(#luminosity-noclip-23);}.cls-10,.cls-12,.cls-14,.cls-16,.cls-18,.cls-2,.cls-20,.cls-22,.cls-24,.cls-26,.cls-28,.cls-30,.cls-32,.cls-34,.cls-36,.cls-38,.cls-4,.cls-40,.cls-42,.cls-44,.cls-6,.cls-8,.cls-85{mix-blend-mode:multiply;}.cls-2{fill:url(#Névtelen_színátmenet_36);}.cls-3{mask:url(#mask-2);filter:url(#luminosity-noclip-28);}.cls-4{fill:url(#Névtelen_színátmenet_29);}.cls-5{mask:url(#mask-3);filter:url(#luminosity-noclip-29);}.cls-6{fill:url(#Névtelen_színátmenet_17);}.cls-7{mask:url(#mask-4);filter:url(#luminosity-noclip-30);}.cls-8{fill:url(#Névtelen_színátmenet_16);}.cls-9{mask:url(#mask-5);filter:url(#luminosity-noclip-31);}.cls-10{fill:url(#Névtelen_színátmenet_15);}.cls-11{mask:url(#mask-6);filter:url(#luminosity-noclip-32);}.cls-12{fill:url(#Névtelen_színátmenet_14);}.cls-13{mask:url(#mask-7);filter:url(#luminosity-noclip-24);}.cls-14{fill:url(#Névtelen_színátmenet_35);}.cls-15{mask:url(#mask-8);filter:url(#luminosity-noclip-33);}.cls-16{fill:url(#Névtelen_színátmenet_13);}.cls-17{mask:url(#mask-9);filter:url(#luminosity-noclip-34);}.cls-18{fill:url(#Névtelen_színátmenet_12);}.cls-19,.cls-27{mask:url(#mask-10);}.cls-19{filter:url(#luminosity-noclip-35);}.cls-20{fill:url(#Névtelen_színátmenet_11);}.cls-21{mask:url(#mask-11);filter:url(#luminosity-noclip-36);}.cls-22{fill:url(#Névtelen_színátmenet_10);}.cls-23{mask:url(#mask-12);filter:url(#luminosity-noclip-37);}.cls-24{fill:url(#Névtelen_színátmenet_9);}.cls-25{mask:url(#mask-13);filter:url(#luminosity-noclip-38);}.cls-26{fill:url(#Névtelen_színátmenet_8);}.cls-27{filter:url(#luminosity-noclip-39);}.cls-28{fill:url(#Névtelen_színátmenet_7);}.cls-29{mask:url(#mask-15);filter:url(#luminosity-noclip-40);}.cls-30{fill:url(#Névtelen_színátmenet_6);}.cls-31{mask:url(#mask-16);filter:url(#luminosity-noclip-41);}.cls-32{fill:url(#Névtelen_színátmenet_5);}.cls-33{mask:url(#mask-17);filter:url(#luminosity-noclip-42);}.cls-34{fill:url(#Névtelen_színátmenet_4);}.cls-35{mask:url(#mask-18);filter:url(#luminosity-noclip-25);}.cls-36{fill:url(#Névtelen_színátmenet_33);}.cls-37{mask:url(#mask-19);filter:url(#luminosity-noclip-43);}.cls-38{fill:url(#Névtelen_színátmenet_3);}.cls-39{mask:url(#mask-20);filter:url(#luminosity-noclip-44);}.cls-40{fill:url(#Névtelen_színátmenet_2);}.cls-41,.cls-43{mask:url(#mask-21);}.cls-41{filter:url(#luminosity-noclip-26);}.cls-42{fill:url(#Névtelen_színátmenet_32);}.cls-43{filter:url(#luminosity-noclip-27);}.cls-44{fill:url(#Névtelen_színátmenet_30);}.cls-45{isolation:isolate;}.cls-46{fill:url(#Névtelen_színátmenet_96);}.cls-47{fill:url(#Névtelen_színátmenet_78);}.cls-48{fill:url(#Névtelen_színátmenet_120);}.cls-49,.cls-84{fill:#fff;}.cls-50{opacity:0.78;}.cls-51{opacity:0.53;}.cls-52{mask:url(#mask-23);}.cls-53{fill:url(#Névtelen_színátmenet_543);}.cls-54{opacity:0.28;}.cls-55{mask:url(#mask-24);}.cls-56{fill:url(#Névtelen_színátmenet_543-2);}.cls-57{opacity:0.32;}.cls-58{mask:url(#mask-25);}.cls-59{fill:url(#Névtelen_színátmenet_543-3);}.cls-60{opacity:0.13;}.cls-61{mask:url(#mask-26);}.cls-62{fill:url(#Névtelen_színátmenet_543-4);}.cls-63{mask:url(#mask-27);}.cls-64{fill:url(#Névtelen_színátmenet_543-5);}.cls-100,.cls-102,.cls-114,.cls-65,.cls-90{opacity:0.3;}.cls-66{mask:url(#mask-28);}.cls-67{fill:url(#Névtelen_színátmenet_543-6);}.cls-68{fill:url(#Névtelen_színátmenet_99);}.cls-69{fill:url(#linear-gradient);}.cls-70{fill:url(#Névtelen_színátmenet_52);}.cls-71,.cls-76,.cls-79{fill:#251647;}.cls-104,.cls-108,.cls-110,.cls-116,.cls-71,.cls-75,.cls-85{opacity:0.2;}.cls-72{fill:#8e7cb0;}.cls-73{fill:url(#linear-gradient-2);}.cls-74{fill:#272156;}.cls-77{fill:#571457;}.cls-78{fill:#442c63;}.cls-79{fill-rule:evenodd;}.cls-80{fill:#002a27;}.cls-81{fill:#573a80;}.cls-82{fill:#98aa25;}.cls-83{fill:#f6f8f9;}.cls-84{opacity:0.5;}.cls-85{fill:#c1cac7;}.cls-86{fill:#8678b5;}.cls-87{mask:url(#mask-29);}.cls-106,.cls-112,.cls-118,.cls-88,.cls-92,.cls-94,.cls-96{opacity:0.6;}.cls-88{fill:url(#Névtelen_színátmenet_26);}.cls-89{mask:url(#mask-30);}.cls-90{fill:url(#Névtelen_színátmenet_26-2);}.cls-91{mask:url(#mask-31);}.cls-92{fill:url(#Névtelen_színátmenet_31);}.cls-93{mask:url(#mask-32);}.cls-94{fill:url(#Névtelen_színátmenet_26-3);}.cls-95{mask:url(#mask-33);}.cls-96{fill:url(#Névtelen_színátmenet_31-2);}.cls-97{mask:url(#mask-34);}.cls-98{opacity:0.8;fill:url(#Névtelen_színátmenet_26-4);}.cls-99{mask:url(#mask-35);}.cls-100{fill:url(#Névtelen_színátmenet_26-5);}.cls-101{mask:url(#mask-36);}.cls-102{fill:url(#Névtelen_színátmenet_26-6);}.cls-103{mask:url(#mask-37);}.cls-104{fill:url(#Névtelen_színátmenet_26-7);}.cls-105{mask:url(#mask-38);}.cls-106{fill:url(#Névtelen_színátmenet_26-8);}.cls-107{mask:url(#mask-39);}.cls-108{fill:url(#Névtelen_színátmenet_26-9);}.cls-109{mask:url(#mask-40);}.cls-110{fill:url(#Névtelen_színátmenet_26-10);}.cls-111{mask:url(#mask-41);}.cls-112{fill:url(#Névtelen_színátmenet_31-3);}.cls-113{mask:url(#mask-42);}.cls-114{fill:url(#Névtelen_színátmenet_26-11);}.cls-115{mask:url(#mask-43);}.cls-116{fill:url(#Névtelen_színátmenet_26-12);}.cls-117{mask:url(#mask-44);}.cls-118{fill:url(#Névtelen_színátmenet_26-13);}.cls-119{filter:url(#luminosity-noclip-21);}.cls-120{filter:url(#luminosity-noclip-20);}.cls-121{filter:url(#luminosity-noclip-19);}.cls-122{filter:url(#luminosity-noclip-18);}.cls-123{filter:url(#luminosity-noclip-17);}.cls-124{filter:url(#luminosity-noclip-16);}.cls-125{filter:url(#luminosity-noclip-15);}.cls-126{filter:url(#luminosity-noclip-13);}.cls-127{filter:url(#luminosity-noclip-12);}.cls-128{filter:url(#luminosity-noclip-11);}.cls-129{filter:url(#luminosity-noclip-10);}.cls-130{filter:url(#luminosity-noclip-9);}.cls-131{filter:url(#luminosity-noclip-8);}.cls-132{filter:url(#luminosity-noclip-7);}.cls-133{filter:url(#luminosity-noclip-6);}.cls-134{filter:url(#luminosity-noclip-5);}.cls-135{filter:url(#luminosity-noclip-4);}.cls-136{filter:url(#luminosity-noclip-3);}.cls-137{filter:url(#luminosity-noclip-2);}.cls-138{filter:url(#luminosity-noclip);}</style><filter id="luminosity-noclip" x="57.98" y="-8310" width="278" height="32766" filterUnits="userSpaceOnUse" color-interpolation-filters="sRGB"><feFlood flood-color="#fff" result="bg"/><feBlend in="SourceGraphic" in2="bg"/></filter><mask id="mask" x="57.98" y="-8310" width="278" height="32766" maskUnits="userSpaceOnUse"><g class="cls-138"/></mask><linearGradient id="Névtelen_színátmenet_36" x1="865.06" y1="294.74" x2="1110.88" y2="205.79" gradientTransform="translate(-790.77 -117.16)" gradientUnits="userSpaceOnUse"><stop offset="0"/><stop offset="1" stop-color="#fff"/></linearGradient><filter id="luminosity-noclip-2" x="0.21" y="-8310" width="335.77" height="32766" filterUnits="userSpaceOnUse" color-interpolation-filters="sRGB"><feFlood flood-color="#fff" result="bg"/><feBlend in="SourceGraphic" in2="bg"/></filter><mask id="mask-2" x="0.21" y="-8310" width="335.77" height="32766" maskUnits="userSpaceOnUse"><g class="cls-137"/></mask><linearGradient id="Névtelen_színátmenet_29" x1="810.34" y1="346.52" x2="1107.39" y2="239.04" xlink:href="#Névtelen_színátmenet_36"/><filter id="luminosity-noclip-3" x="96.41" y="-8310" width="41.9" height="32766" filterUnits="userSpaceOnUse" color-interpolation-filters="sRGB"><feFlood flood-color="#fff" result="bg"/><feBlend in="SourceGraphic" in2="bg"/></filter><mask id="mask-3" x="96.41" y="-8310" width="41.9" height="32766" maskUnits="userSpaceOnUse"><g class="cls-136"/></mask><radialGradient id="Névtelen_színátmenet_17" cx="232.35" cy="-54.67" r="20.87" gradientTransform="matrix(-1, 0.06, -0.06, -1.01, 346.56, 59.77)" gradientUnits="userSpaceOnUse"><stop offset="0.74" stop-color="#ccc"/><stop offset="0.95"/></radialGradient><filter id="luminosity-noclip-4" x="195.03" y="-8310" width="65.91" height="32766" filterUnits="userSpaceOnUse" color-interpolation-filters="sRGB"><feFlood flood-color="#fff" result="bg"/><feBlend in="SourceGraphic" in2="bg"/></filter><mask id="mask-4" x="195.03" y="-8310" width="65.91" height="32766" maskUnits="userSpaceOnUse"><g class="cls-135"/></mask><radialGradient id="Névtelen_színátmenet_16" cx="121.64" cy="-50.72" r="32.84" xlink:href="#Névtelen_színátmenet_17"/><filter id="luminosity-noclip-5" x="248.96" y="-8310" width="55.51" height="32766" filterUnits="userSpaceOnUse" color-interpolation-filters="sRGB"><feFlood flood-color="#fff" result="bg"/><feBlend in="SourceGraphic" in2="bg"/></filter><mask id="mask-5" x="248.96" y="-8310" width="55.51" height="32766" maskUnits="userSpaceOnUse"><g class="cls-134"/></mask><radialGradient id="Névtelen_színátmenet_15" cx="70.88" cy="-17.83" r="27.66" gradientTransform="matrix(-1, 0.06, -0.06, -1.01, 346.56, 59.77)" gradientUnits="userSpaceOnUse"><stop offset="0.85" stop-color="#999"/><stop offset="0.95"/></radialGradient><filter id="luminosity-noclip-6" x="232.19" y="-8310" width="29.92" height="32766" filterUnits="userSpaceOnUse" color-interpolation-filters="sRGB"><feFlood flood-color="#fff" result="bg"/><feBlend in="SourceGraphic" in2="bg"/></filter><mask id="mask-6" x="232.19" y="-8310" width="29.92" height="32766" maskUnits="userSpaceOnUse"><g class="cls-133"/></mask><radialGradient id="Névtelen_színátmenet_14" cx="103.81" cy="-71.19" r="14.9" xlink:href="#Névtelen_színátmenet_17"/><filter id="luminosity-noclip-7" x="125.52" y="-8310" width="210.46" height="32766" filterUnits="userSpaceOnUse" color-interpolation-filters="sRGB"><feFlood flood-color="#fff" result="bg"/><feBlend in="SourceGraphic" in2="bg"/></filter><mask id="mask-7" x="125.52" y="-8310" width="210.46" height="32766" maskUnits="userSpaceOnUse"><g class="cls-132"/></mask><linearGradient id="Névtelen_színátmenet_35" x1="928.67" y1="331.85" x2="1115.29" y2="264.32" xlink:href="#Névtelen_színátmenet_36"/><filter id="luminosity-noclip-8" x="273.37" y="-8310" width="41.9" height="32766" filterUnits="userSpaceOnUse" color-interpolation-filters="sRGB"><feFlood flood-color="#fff" result="bg"/><feBlend in="SourceGraphic" in2="bg"/></filter><mask id="mask-8" x="273.37" y="-8310" width="41.9" height="32766" maskUnits="userSpaceOnUse"><g class="cls-131"/></mask><radialGradient id="Névtelen_színátmenet_13" cx="57.64" cy="-85.74" r="20.87" xlink:href="#Névtelen_színátmenet_15"/><filter id="luminosity-noclip-9" x="76.92" y="-8310" width="56.96" height="32766" filterUnits="userSpaceOnUse" color-interpolation-filters="sRGB"><feFlood flood-color="#fff" result="bg"/><feBlend in="SourceGraphic" in2="bg"/></filter><mask id="mask-9" x="76.92" y="-8310" width="56.96" height="32766" maskUnits="userSpaceOnUse"><g class="cls-130"/></mask><radialGradient id="Névtelen_színátmenet_12" cx="240.43" cy="5.81" r="28.38" xlink:href="#Névtelen_színátmenet_17"/><filter id="luminosity-noclip-10" x="185.27" y="-8310" width="41.9" height="32766" filterUnits="userSpaceOnUse" color-interpolation-filters="sRGB"><feFlood flood-color="#fff" result="bg"/><feBlend in="SourceGraphic" in2="bg"/></filter><mask id="mask-10" x="185.27" y="-8310" width="41.9" height="32766" maskUnits="userSpaceOnUse"><g class="cls-129"/></mask><radialGradient id="Névtelen_színátmenet_11" cx="138.17" cy="30.5" r="20.87" xlink:href="#Névtelen_színátmenet_17"/><filter id="luminosity-noclip-11" x="211.85" y="-8310" width="41.9" height="32766" filterUnits="userSpaceOnUse" color-interpolation-filters="sRGB"><feFlood flood-color="#fff" result="bg"/><feBlend in="SourceGraphic" in2="bg"/></filter><mask id="mask-11" x="211.85" y="-8310" width="41.9" height="32766" maskUnits="userSpaceOnUse"><g class="cls-128"/></mask><radialGradient id="Névtelen_színátmenet_10" cx="119.86" cy="-98.2" r="20.87" xlink:href="#Névtelen_színátmenet_17"/><filter id="luminosity-noclip-12" x="247.09" y="-8310" width="59.16" height="32766" filterUnits="userSpaceOnUse" color-interpolation-filters="sRGB"><feFlood flood-color="#fff" result="bg"/><feBlend in="SourceGraphic" in2="bg"/></filter><mask id="mask-12" x="247.09" y="-8310" width="59.16" height="32766" maskUnits="userSpaceOnUse"><g class="cls-127"/></mask><radialGradient id="Névtelen_színátmenet_9" cx="77.87" cy="-126.58" r="29.48" xlink:href="#Névtelen_színátmenet_17"/><filter id="luminosity-noclip-13" x="268.95" y="-8310" width="41.9" height="32766" filterUnits="userSpaceOnUse" color-interpolation-filters="sRGB"><feFlood flood-color="#fff" result="bg"/><feBlend in="SourceGraphic" in2="bg"/></filter><mask id="mask-13" x="268.95" y="-8310" width="41.9" height="32766" maskUnits="userSpaceOnUse"><g class="cls-126"/></mask><radialGradient id="Névtelen_színátmenet_8" cx="55.76" cy="12.77" r="20.87" xlink:href="#Névtelen_színátmenet_17"/><radialGradient id="Névtelen_színátmenet_7" cx="146.1" cy="-93.53" r="20.87" xlink:href="#Névtelen_színátmenet_17"/><filter id="luminosity-noclip-15" x="66.7" y="-8310" width="41.9" height="32766" filterUnits="userSpaceOnUse" color-interpolation-filters="sRGB"><feFlood flood-color="#fff" result="bg"/><feBlend in="SourceGraphic" in2="bg"/></filter><mask id="mask-15" x="66.7" y="-8310" width="41.9" height="32766" maskUnits="userSpaceOnUse"><g class="cls-125"/></mask><radialGradient id="Névtelen_színátmenet_6" cx="263.58" cy="-79.15" r="20.87" xlink:href="#Névtelen_színátmenet_17"/><filter id="luminosity-noclip-16" x="33.8" y="-8310" width="54.24" height="32766" filterUnits="userSpaceOnUse" color-interpolation-filters="sRGB"><feFlood flood-color="#fff" result="bg"/><feBlend in="SourceGraphic" in2="bg"/></filter><mask id="mask-16" x="33.8" y="-8310" width="54.24" height="32766" maskUnits="userSpaceOnUse"><g class="cls-124"/></mask><radialGradient id="Névtelen_színátmenet_5" cx="292.38" cy="-112.27" r="27.02" xlink:href="#Névtelen_színátmenet_15"/><filter id="luminosity-noclip-17" x="39.54" y="-8310" width="58.25" height="32766" filterUnits="userSpaceOnUse" color-interpolation-filters="sRGB"><feFlood flood-color="#fff" result="bg"/><feBlend in="SourceGraphic" in2="bg"/></filter><mask id="mask-17" x="39.54" y="-8310" width="58.25" height="32766" maskUnits="userSpaceOnUse"><g class="cls-123"/></mask><radialGradient id="Névtelen_színátmenet_4" cx="280.03" cy="-40.05" r="29.02" xlink:href="#Névtelen_színátmenet_17"/><filter id="luminosity-noclip-18" x="-0.28" y="-8310" width="210.46" height="32766" filterUnits="userSpaceOnUse" color-interpolation-filters="sRGB"><feFlood flood-color="#fff" result="bg"/><feBlend in="SourceGraphic" in2="bg"/></filter><mask id="mask-18" x="-0.28" y="-8310" width="210.46" height="32766" maskUnits="userSpaceOnUse"><g class="cls-122"/></mask><linearGradient id="Névtelen_színátmenet_33" x1="-596.83" y1="302.7" x2="-410.24" y2="235.19" gradientTransform="matrix(-1, 0, 0, 1, -398.77, -117.16)" xlink:href="#Névtelen_színátmenet_36"/><filter id="luminosity-noclip-19" x="37.56" y="-8310" width="41.9" height="32766" filterUnits="userSpaceOnUse" color-interpolation-filters="sRGB"><feFlood flood-color="#fff" result="bg"/><feBlend in="SourceGraphic" in2="bg"/></filter><mask id="mask-19" x="37.56" y="-8310" width="41.9" height="32766" maskUnits="userSpaceOnUse"><g class="cls-121"/></mask><radialGradient id="Névtelen_színátmenet_3" cx="285.47" cy="33.5" r="20.87" xlink:href="#Névtelen_színátmenet_17"/><filter id="luminosity-noclip-20" x="289.9" y="-8310" width="41.9" height="32766" filterUnits="userSpaceOnUse" color-interpolation-filters="sRGB"><feFlood flood-color="#fff" result="bg"/><feBlend in="SourceGraphic" in2="bg"/></filter><mask id="mask-20" x="289.9" y="-8310" width="41.9" height="32766" maskUnits="userSpaceOnUse"><g class="cls-120"/></mask><radialGradient id="Névtelen_színátmenet_2" cx="37.21" cy="-24.32" r="20.87" xlink:href="#Névtelen_színátmenet_17"/><filter id="luminosity-noclip-21" x="145.76" y="-8310" width="190.23" height="32766" filterUnits="userSpaceOnUse" color-interpolation-filters="sRGB"><feFlood flood-color="#fff" result="bg"/><feBlend in="SourceGraphic" in2="bg"/></filter><mask id="mask-21" x="145.76" y="-8310" width="190.23" height="32766" maskUnits="userSpaceOnUse"><g class="cls-119"/></mask><linearGradient id="Névtelen_színátmenet_32" x1="947.54" y1="302.28" x2="1116.07" y2="241.3" xlink:href="#Névtelen_színátmenet_36"/><linearGradient id="Névtelen_színátmenet_30" x1="947.78" y1="305.19" x2="1116.38" y2="244.19" xlink:href="#Névtelen_színátmenet_36"/><linearGradient id="Névtelen_színátmenet_96" x1="167.99" y1="-0.07" x2="167.99" y2="170.44" gradientUnits="userSpaceOnUse"><stop offset="0" stop-color="#a8a5d2"/><stop offset="0.07" stop-color="#ada7d3"/><stop offset="0.16" stop-color="#bdacd4"/><stop offset="0.25" stop-color="#d6b6d7"/><stop offset="0.35" stop-color="#f6c1da"/><stop offset="0.52" stop-color="#f8cce1"/><stop offset="0.69" stop-color="#faddec"/></linearGradient><linearGradient id="Névtelen_színátmenet_78" x1="168.08" y1="235.13" x2="168.08" y2="199.49" gradientUnits="userSpaceOnUse"><stop offset="0" stop-color="#35184f"/><stop offset="0.37" stop-color="#40225a"/><stop offset="1" stop-color="#503068"/></linearGradient><linearGradient id="Névtelen_színátmenet_120" x1="168.08" y1="199.49" x2="168.08" y2="128.74" gradientUnits="userSpaceOnUse"><stop offset="0" stop-color="#8678b5"/><stop offset="0.18" stop-color="#8c7db8"/><stop offset="0.42" stop-color="#9c8cc0"/><stop offset="0.7" stop-color="#b7a5ce"/><stop offset="0.99" stop-color="#ddc8e1"/><stop offset="1" stop-color="#dec9e2"/></linearGradient><filter id="luminosity-noclip-23" x="57.98" y="132.5" width="278" height="1.36" filterUnits="userSpaceOnUse" color-interpolation-filters="sRGB"><feFlood flood-color="#fff" result="bg"/><feBlend in="SourceGraphic" in2="bg"/></filter><mask id="mask-23" x="57.98" y="132.5" width="278" height="1.36" maskUnits="userSpaceOnUse"><g class="cls-1"><polygon class="cls-2" points="335.99 133.86 57.98 132.5 335.99 132.5 335.99 133.86"/></g></mask><linearGradient id="Névtelen_színátmenet_543" x1="865.06" y1="294.74" x2="1110.88" y2="205.79" gradientTransform="translate(-790.77 -117.16)" gradientUnits="userSpaceOnUse"><stop offset="0" stop-color="#fff"/><stop offset="1" stop-color="#fff"/></linearGradient><filter id="luminosity-noclip-24" x="125.52" y="178.84" width="210.46" height="2.87" filterUnits="userSpaceOnUse" color-interpolation-filters="sRGB"><feFlood flood-color="#fff" result="bg"/><feBlend in="SourceGraphic" in2="bg"/></filter><mask id="mask-24" x="125.52" y="178.84" width="210.46" height="2.87" maskUnits="userSpaceOnUse"><g class="cls-13"><polygon class="cls-14" points="335.99 181.71 125.52 180.47 335.99 178.84 335.99 181.71"/></g></mask><linearGradient id="Névtelen_színátmenet_543-2" x1="928.67" y1="331.85" x2="1115.29" y2="264.32" xlink:href="#Névtelen_színátmenet_543"/><filter id="luminosity-noclip-25" x="-0.28" y="150.52" width="210.46" height="1.52" filterUnits="userSpaceOnUse" color-interpolation-filters="sRGB"><feFlood flood-color="#fff" result="bg"/><feBlend in="SourceGraphic" in2="bg"/></filter><mask id="mask-25" x="-0.28" y="150.52" width="210.46" height="1.52" maskUnits="userSpaceOnUse"><g class="cls-35"><polygon class="cls-36" points="-0.28 151.65 210.18 152.05 -0.28 150.52 -0.28 151.65"/></g></mask><linearGradient id="Névtelen_színátmenet_543-3" x1="-596.83" y1="302.7" x2="-410.24" y2="235.19" gradientTransform="matrix(-1, 0, 0, 1, -398.77, -117.16)" xlink:href="#Névtelen_színátmenet_543"/><filter id="luminosity-noclip-26" x="145.76" y="153.66" width="190.23" height="1.03" filterUnits="userSpaceOnUse" color-interpolation-filters="sRGB"><feFlood flood-color="#fff" result="bg"/><feBlend in="SourceGraphic" in2="bg"/></filter><mask id="mask-26" x="145.76" y="153.66" width="190.23" height="1.03" maskUnits="userSpaceOnUse"><g class="cls-41"><polygon class="cls-42" points="335.99 154.69 145.76 154.69 335.99 153.66 335.99 154.69"/></g></mask><linearGradient id="Névtelen_színátmenet_543-4" x1="947.54" y1="302.28" x2="1116.07" y2="241.3" xlink:href="#Névtelen_színátmenet_543"/><filter id="luminosity-noclip-27" x="145.76" y="155.68" width="190.23" height="2.76" filterUnits="userSpaceOnUse" color-interpolation-filters="sRGB"><feFlood flood-color="#fff" result="bg"/><feBlend in="SourceGraphic" in2="bg"/></filter><mask id="mask-27" x="145.76" y="155.68" width="190.23" height="2.76" maskUnits="userSpaceOnUse"><g class="cls-43"><polygon class="cls-44" points="335.99 158.45 145.76 156.93 335.99 155.68 335.99 158.45"/></g></mask><linearGradient id="Névtelen_színátmenet_543-5" x1="947.78" y1="305.19" x2="1116.38" y2="244.19" xlink:href="#Névtelen_színátmenet_543"/><filter id="luminosity-noclip-28" x="0.21" y="174.82" width="335.77" height="1.6" filterUnits="userSpaceOnUse" color-interpolation-filters="sRGB"><feFlood flood-color="#fff" result="bg"/><feBlend in="SourceGraphic" in2="bg"/></filter><mask id="mask-28" x="0.21" y="174.82" width="335.77" height="1.6" maskUnits="userSpaceOnUse"><g class="cls-3"><polygon class="cls-4" points="335.99 176.42 0.21 175.84 0.21 174.82 335.99 175.39 335.99 176.42"/></g></mask><linearGradient id="Névtelen_színátmenet_543-6" x1="810.34" y1="346.52" x2="1107.39" y2="239.04" xlink:href="#Névtelen_színátmenet_543"/><linearGradient id="Névtelen_színátmenet_99" x1="66.35" y1="173.62" x2="268.81" y2="173.62" gradientUnits="userSpaceOnUse"><stop offset="0" stop-color="#b1a5d0"/><stop offset="0.06" stop-color="#a597c3"/><stop offset="0.25" stop-color="#8772a3"/><stop offset="0.44" stop-color="#6f5589"/><stop offset="0.63" stop-color="#5e4077"/><stop offset="0.82" stop-color="#53346c"/><stop offset="1" stop-color="#503068"/></linearGradient><linearGradient id="linear-gradient" x1="60.29" y1="173.18" x2="276.69" y2="173.18" gradientUnits="userSpaceOnUse"><stop offset="0" stop-color="#fdf4f9"/><stop offset="0.99" stop-color="#f3e5f2"/></linearGradient><linearGradient id="Névtelen_színátmenet_52" x1="59.29" y1="185.37" x2="275.86" y2="185.37" gradientUnits="userSpaceOnUse"><stop offset="0.01" stop-color="#af99c1"/><stop offset="0.27" stop-color="#a68ab7"/><stop offset="0.79" stop-color="#8e629e"/><stop offset="1" stop-color="#834f92"/></linearGradient><linearGradient id="linear-gradient-2" x1="204.46" y1="194.27" x2="223.22" y2="194.27" xlink:href="#linear-gradient"/><filter id="luminosity-noclip-29" x="96.41" y="108.82" width="41.9" height="42.21" filterUnits="userSpaceOnUse" color-interpolation-filters="sRGB"><feFlood flood-color="#fff" result="bg"/><feBlend in="SourceGraphic" in2="bg"/></filter><mask id="mask-29" x="96.41" y="108.82" width="41.9" height="42.21" maskUnits="userSpaceOnUse"><g class="cls-5"><path class="cls-6" d="M98.16,121.5a20.89,20.89,0,0,1,27.56-10.92,21.15,21.15,0,0,1,10.84,27.77A20.88,20.88,0,0,1,109,149.27,21.16,21.16,0,0,1,98.16,121.5Z"/></g></mask><radialGradient id="Névtelen_színátmenet_26" cx="232.35" cy="-54.67" r="20.87" gradientTransform="matrix(-1, 0.06, -0.06, -1.01, 346.56, 59.77)" gradientUnits="userSpaceOnUse"><stop offset="0.74" stop-color="#fff"/><stop offset="0.95" stop-color="#fff"/></radialGradient><filter id="luminosity-noclip-30" x="195.03" y="85.6" width="65.91" height="66.4" filterUnits="userSpaceOnUse" color-interpolation-filters="sRGB"><feFlood flood-color="#fff" result="bg"/><feBlend in="SourceGraphic" in2="bg"/></filter><mask id="mask-30" x="195.03" y="85.6" width="65.91" height="66.4" maskUnits="userSpaceOnUse"><g class="cls-7"><path class="cls-8" d="M197.77,105.55a32.86,32.86,0,0,1,43.36-17.18,33.29,33.29,0,0,1,17.06,43.68,32.86,32.86,0,0,1-43.36,17.19A33.3,33.3,0,0,1,197.77,105.55Z"/></g></mask><radialGradient id="Névtelen_színátmenet_26-2" cx="121.64" cy="-50.72" r="32.84" xlink:href="#Névtelen_színátmenet_26"/><filter id="luminosity-noclip-31" x="248.96" y="54.38" width="55.51" height="55.93" filterUnits="userSpaceOnUse" color-interpolation-filters="sRGB"><feFlood flood-color="#fff" result="bg"/><feBlend in="SourceGraphic" in2="bg"/></filter><mask id="mask-31" x="248.96" y="54.38" width="55.51" height="55.93" maskUnits="userSpaceOnUse"><g class="cls-9"><path class="cls-10" d="M251.27,71.18a27.67,27.67,0,0,1,36.52-14.47A28,28,0,0,1,302.15,93.5,27.67,27.67,0,0,1,265.64,108,28,28,0,0,1,251.27,71.18Z"/></g></mask><radialGradient id="Névtelen_színátmenet_31" cx="70.88" cy="-17.83" r="27.66" gradientTransform="matrix(-1, 0.06, -0.06, -1.01, 346.56, 59.77)" gradientUnits="userSpaceOnUse"><stop offset="0.85" stop-color="#fff"/><stop offset="0.95" stop-color="#fff"/></radialGradient><filter id="luminosity-noclip-32" x="232.19" y="123.23" width="29.92" height="30.14" filterUnits="userSpaceOnUse" color-interpolation-filters="sRGB"><feFlood flood-color="#fff" result="bg"/><feBlend in="SourceGraphic" in2="bg"/></filter><mask id="mask-32" x="232.19" y="123.23" width="29.92" height="30.14" maskUnits="userSpaceOnUse"><g class="cls-11"><path class="cls-12" d="M233.43,132.28a14.91,14.91,0,0,1,19.68-7.8,15.11,15.11,0,0,1,7.75,19.83,14.91,14.91,0,0,1-19.68,7.8A15.11,15.11,0,0,1,233.43,132.28Z"/></g></mask><radialGradient id="Névtelen_színátmenet_26-3" cx="103.81" cy="-71.19" r="14.9" xlink:href="#Névtelen_színátmenet_26"/><filter id="luminosity-noclip-33" x="273.37" y="128.9" width="41.9" height="42.21" filterUnits="userSpaceOnUse" color-interpolation-filters="sRGB"><feFlood flood-color="#fff" result="bg"/><feBlend in="SourceGraphic" in2="bg"/></filter><mask id="mask-33" x="273.37" y="128.9" width="41.9" height="42.21" maskUnits="userSpaceOnUse"><g class="cls-15"><path class="cls-16" d="M275.12,141.58a20.88,20.88,0,0,1,27.56-10.92,21.15,21.15,0,0,1,10.84,27.77A20.88,20.88,0,0,1,286,169.35,21.16,21.16,0,0,1,275.12,141.58Z"/></g></mask><radialGradient id="Névtelen_színátmenet_31-2" cx="57.64" cy="-85.74" r="20.87" xlink:href="#Névtelen_színátmenet_31"/><filter id="luminosity-noclip-34" x="76.92" y="40.73" width="56.96" height="57.39" filterUnits="userSpaceOnUse" color-interpolation-filters="sRGB"><feFlood flood-color="#fff" result="bg"/><feBlend in="SourceGraphic" in2="bg"/></filter><mask id="mask-34" x="76.92" y="40.73" width="56.96" height="57.39" maskUnits="userSpaceOnUse"><g class="cls-17"><path class="cls-18" d="M79.29,58a28.4,28.4,0,0,1,37.47-14.85A28.76,28.76,0,0,1,131.5,80.87,28.38,28.38,0,0,1,94,95.72,28.76,28.76,0,0,1,79.29,58Z"/></g></mask><radialGradient id="Névtelen_színátmenet_26-4" cx="240.43" cy="5.81" r="28.38" xlink:href="#Névtelen_színátmenet_26"/><filter id="luminosity-noclip-35" x="185.27" y="16.81" width="41.9" height="42.21" filterUnits="userSpaceOnUse" color-interpolation-filters="sRGB"><feFlood flood-color="#fff" result="bg"/><feBlend in="SourceGraphic" in2="bg"/></filter><mask id="mask-35" x="185.27" y="16.81" width="41.9" height="42.21" maskUnits="userSpaceOnUse"><g class="cls-19"><path class="cls-20" d="M187,29.49a20.88,20.88,0,0,1,27.56-10.92,21.17,21.17,0,0,1,10.85,27.77,20.9,20.9,0,0,1-27.57,10.92A21.16,21.16,0,0,1,187,29.49Z"/></g></mask><radialGradient id="Névtelen_színátmenet_26-5" cx="138.17" cy="30.5" r="20.87" xlink:href="#Névtelen_színátmenet_26"/><filter id="luminosity-noclip-36" x="211.85" y="145.48" width="41.9" height="42.21" filterUnits="userSpaceOnUse" color-interpolation-filters="sRGB"><feFlood flood-color="#fff" result="bg"/><feBlend in="SourceGraphic" in2="bg"/></filter><mask id="mask-36" x="211.85" y="145.48" width="41.9" height="42.21" maskUnits="userSpaceOnUse"><g class="cls-21"><path class="cls-22" d="M213.6,158.17a20.88,20.88,0,0,1,27.56-10.93A21.15,21.15,0,0,1,252,175a20.87,20.87,0,0,1-27.56,10.92A21.15,21.15,0,0,1,213.6,158.17Z"/></g></mask><radialGradient id="Névtelen_színátmenet_26-6" cx="119.86" cy="-98.2" r="20.87" xlink:href="#Névtelen_színátmenet_26"/><filter id="luminosity-noclip-37" x="247.09" y="162.71" width="59.16" height="59.6" filterUnits="userSpaceOnUse" color-interpolation-filters="sRGB"><feFlood flood-color="#fff" result="bg"/><feBlend in="SourceGraphic" in2="bg"/></filter><mask id="mask-37" x="247.09" y="162.71" width="59.16" height="59.6" maskUnits="userSpaceOnUse"><g class="cls-23"><path class="cls-24" d="M249.56,180.62a29.49,29.49,0,0,1,38.92-15.42,29.87,29.87,0,0,1,15.31,39.21,29.5,29.5,0,0,1-38.92,15.43A29.89,29.89,0,0,1,249.56,180.62Z"/></g></mask><radialGradient id="Névtelen_színátmenet_26-7" cx="77.87" cy="-126.58" r="29.48" xlink:href="#Névtelen_színátmenet_26"/><filter id="luminosity-noclip-38" x="268.95" y="29.38" width="41.9" height="42.21" filterUnits="userSpaceOnUse" color-interpolation-filters="sRGB"><feFlood flood-color="#fff" result="bg"/><feBlend in="SourceGraphic" in2="bg"/></filter><mask id="mask-38" x="268.95" y="29.38" width="41.9" height="42.21" maskUnits="userSpaceOnUse"><g class="cls-25"><path class="cls-26" d="M270.7,42.07a20.88,20.88,0,0,1,27.56-10.93A21.16,21.16,0,0,1,309.1,58.91a20.88,20.88,0,0,1-27.56,10.93A21.16,21.16,0,0,1,270.7,42.07Z"/></g></mask><radialGradient id="Névtelen_színátmenet_26-8" cx="55.76" cy="12.77" r="20.87" xlink:href="#Névtelen_színátmenet_26"/><filter id="luminosity-noclip-39" x="185.27" y="142.47" width="41.9" height="42.21" filterUnits="userSpaceOnUse" color-interpolation-filters="sRGB"><feFlood flood-color="#fff" result="bg"/><feBlend in="SourceGraphic" in2="bg"/></filter><mask id="mask-39" x="185.27" y="142.47" width="41.9" height="42.21" maskUnits="userSpaceOnUse"><g class="cls-27"><path class="cls-28" d="M187,155.15a20.88,20.88,0,0,1,27.56-10.92A21.16,21.16,0,0,1,225.43,172a20.89,20.89,0,0,1-27.57,10.93A21.16,21.16,0,0,1,187,155.15Z"/></g></mask><radialGradient id="Névtelen_színátmenet_26-9" cx="146.1" cy="-93.53" r="20.87" xlink:href="#Névtelen_színátmenet_26"/><filter id="luminosity-noclip-40" x="66.7" y="135.53" width="41.9" height="42.21" filterUnits="userSpaceOnUse" color-interpolation-filters="sRGB"><feFlood flood-color="#fff" result="bg"/><feBlend in="SourceGraphic" in2="bg"/></filter><mask id="mask-40" x="66.7" y="135.53" width="41.9" height="42.21" maskUnits="userSpaceOnUse"><g class="cls-29"><path class="cls-30" d="M68.44,148.21A20.9,20.9,0,0,1,96,137.29a21.16,21.16,0,0,1,10.84,27.77A20.89,20.89,0,0,1,79.29,176,21.17,21.17,0,0,1,68.44,148.21Z"/></g></mask><radialGradient id="Névtelen_színátmenet_26-10" cx="263.58" cy="-79.15" r="20.87" xlink:href="#Névtelen_színátmenet_26"/><filter id="luminosity-noclip-41" x="33.8" y="164.59" width="54.24" height="54.64" filterUnits="userSpaceOnUse" color-interpolation-filters="sRGB"><feFlood flood-color="#fff" result="bg"/><feBlend in="SourceGraphic" in2="bg"/></filter><mask id="mask-41" x="33.8" y="164.59" width="54.24" height="54.64" maskUnits="userSpaceOnUse"><g class="cls-31"><path class="cls-32" d="M36.06,181a27,27,0,0,1,35.68-14.14,27.39,27.39,0,0,1,14,35.95A27,27,0,0,1,50.1,217,27.4,27.4,0,0,1,36.06,181Z"/></g></mask><radialGradient id="Névtelen_színátmenet_31-3" cx="292.38" cy="-112.27" r="27.02" xlink:href="#Névtelen_színátmenet_31"/><filter id="luminosity-noclip-42" x="39.54" y="88.9" width="58.25" height="58.69" filterUnits="userSpaceOnUse" color-interpolation-filters="sRGB"><feFlood flood-color="#fff" result="bg"/><feBlend in="SourceGraphic" in2="bg"/></filter><mask id="mask-42" x="39.54" y="88.9" width="58.25" height="58.69" maskUnits="userSpaceOnUse"><g class="cls-33"><path class="cls-34" d="M42,106.53A29,29,0,0,1,80.3,91.35,29.41,29.41,0,0,1,95.37,130a29,29,0,0,1-38.32,15.19A29.42,29.42,0,0,1,42,106.53Z"/></g></mask><radialGradient id="Névtelen_színátmenet_26-11" cx="280.03" cy="-40.05" r="29.02" xlink:href="#Névtelen_színátmenet_26"/><filter id="luminosity-noclip-43" x="37.56" y="23.28" width="41.9" height="42.21" filterUnits="userSpaceOnUse" color-interpolation-filters="sRGB"><feFlood flood-color="#fff" result="bg"/><feBlend in="SourceGraphic" in2="bg"/></filter><mask id="mask-43" x="37.56" y="23.28" width="41.9" height="42.21" maskUnits="userSpaceOnUse"><g class="cls-37"><path class="cls-38" d="M39.31,36A20.89,20.89,0,0,1,66.87,25,21.15,21.15,0,0,1,77.71,52.81,20.88,20.88,0,0,1,50.15,63.73,21.16,21.16,0,0,1,39.31,36Z"/></g></mask><radialGradient id="Névtelen_színátmenet_26-12" cx="285.47" cy="33.5" r="20.87" xlink:href="#Névtelen_színátmenet_26"/><filter id="luminosity-noclip-44" x="289.9" y="65.61" width="41.9" height="42.21" filterUnits="userSpaceOnUse" color-interpolation-filters="sRGB"><feFlood flood-color="#fff" result="bg"/><feBlend in="SourceGraphic" in2="bg"/></filter><mask id="mask-44" x="289.9" y="65.61" width="41.9" height="42.21" maskUnits="userSpaceOnUse"><g class="cls-39"><path class="cls-40" d="M291.64,78.29a20.9,20.9,0,0,1,27.57-10.93,21.17,21.17,0,0,1,10.84,27.77,20.88,20.88,0,0,1-27.56,10.93A21.17,21.17,0,0,1,291.64,78.29Z"/></g></mask><radialGradient id="Névtelen_színátmenet_26-13" cx="37.21" cy="-24.32" r="20.87" xlink:href="#Névtelen_színátmenet_26"/></defs><title>Plan de travail 2</title><g class="cls-45"><g id="Layer"><rect class="cls-46" x="-0.01" y="-0.07" width="336" height="170.51"/><rect class="cls-47" x="0.18" y="199.49" width="335.81" height="35.64"/><rect class="cls-48" x="0.18" y="128.74" width="335.81" height="70.75"/><rect class="cls-49" x="0.18" y="196.07" width="335.81" height="4.57"/><g class="cls-50"><g class="cls-51"><g class="cls-52"><polygon class="cls-53" points="335.99 133.86 57.98 132.5 335.99 132.5 335.99 133.86"/></g></g><g class="cls-54"><g class="cls-55"><polygon class="cls-56" points="335.99 181.71 125.52 180.47 335.99 178.84 335.99 181.71"/></g></g><g class="cls-57"><g class="cls-58"><polygon class="cls-59" points="-0.28 151.65 210.18 152.05 -0.28 150.52 -0.28 151.65"/></g></g><g class="cls-60"><g class="cls-61"><polygon class="cls-62" points="335.99 154.69 145.76 154.69 335.99 153.66 335.99 154.69"/></g></g><g class="cls-54"><g class="cls-63"><polygon class="cls-64" points="335.99 158.45 145.76 156.93 335.99 155.68 335.99 158.45"/></g></g><g class="cls-65"><g class="cls-66"><polygon class="cls-67" points="335.99 176.42 0.21 175.84 0.21 174.82 335.99 175.39 335.99 176.42"/></g></g></g><path class="cls-68" d="M167.48,178.93c-63,0-90.35-6.63-101.13-10.62,37.34,4.18,99.06,4.38,99.71,4.38h3c.65,0,62.38-.2,99.72-4.38-10.77,4-38.12,10.6-101.09,10.62h-.24Z"/><path class="cls-69" d="M79.78,170.69c37.21,3,86.61,3.17,87.19,3.17h3c.58,0,50-.16,87.16-3.17-15.2,3.45-42.17,7.05-88.59,7.06h-.24c-46.4,0-73.36-3.61-88.55-7.06m90.91.81h0m106-5.24Zm0,0C244,170.84,181,171.51,170,171.51h-3c-11,0-74-.67-106.68-5.25,0,0,16.27,13.82,108,13.85h.31c91.78,0,108.05-13.85,108.05-13.85Z"/><path class="cls-70" d="M168.64,180.11h-.31c-87,0-106.15-12.46-107.9-13.75l-1-.1s-4,30,35.4,35.4c22.72,3.78,32.16,2.74,72.52,2.59,42.14.15,50.29,1.19,73-2.59,36.19-4.95,35.77-30.6,35.46-34.81C271.41,169.51,248.89,180.08,168.64,180.11Z"/><path class="cls-71" d="M275.8,166.85a45.8,45.8,0,0,1-10.52,4.21,32.17,32.17,0,0,1-.72,3.44c-5.27,4.27-13,7.81-24.22,9.35-22.72,3.78-30.87,2.74-73,2.59-40.36.15-49.8,1.19-72.52-2.59-15.94-2.18-24.78-8.39-29.65-15a35.77,35.77,0,0,1-3.46-1.63c3.58,8.53,12.28,18.24,33.11,21.09,22.72,3.79,32.16,2.74,72.52,2.59,42.14.15,50.29,1.2,73-2.59,9.63-1.31,16.66-4.1,21.79-7.55a29.61,29.61,0,0,1-5.76,7.65,57.81,57.81,0,0,1-16,4.37c-22.72,3.79-30.87,2.74-73,2.59-40.36.15-49.8,1.2-72.52-2.59-25.36-3.47-32.74-17.1-34.78-26.4l-.62-.07s0,.07,0,.21c.68,8.65,5.72,26.66,35.42,30.72,22.72,3.79,32.16,2.75,72.52,2.6,42.14.15,50.29,1.19,73-2.6.2,0,.39-.06.59-.09a63.26,63.26,0,0,1-10.82,2.39c-22.72,3.79-30.87,2.74-73,2.59-40,.15-49.62,1.17-71.86-2.48a66.62,66.62,0,0,0,9.57,2c22.72,3.78,32.16,2.74,72.52,2.59,42.14.15,50.29,1.19,73-2.59C276.53,196.71,276.11,171.06,275.8,166.85Z"/><path class="cls-72" d="M167.66,177.75q4.17,0,8.13,0l-.6-3.89c-3.75,0-6,0-6.1,0h-3c-.12,0-2.31,0-6,0l-.7,3.89q3.93,0,8,0Z"/><path class="cls-72" d="M123.17,176.43q7.44.49,16,.82l0-3.77c-4.55-.1-9.49-.23-14.65-.4Z"/><path class="cls-72" d="M210.65,173.08c-5.16.16-10.1.29-14.65.4l.05,3.76q8.61-.31,16-.82Z"/><path class="cls-73" d="M204.46,191.51a15.62,15.62,0,0,1,5.23-.46,22.22,22.22,0,0,1,4.84.87,21.85,21.85,0,0,1,4.55,1.88,15.42,15.42,0,0,1,4.14,3.23,15.38,15.38,0,0,1-5.23.47,22.22,22.22,0,0,1-4.84-.87,23.3,23.3,0,0,1-4.54-1.89A15.51,15.51,0,0,1,204.46,191.51Z"/><path class="cls-74" d="M240,193l-14.18-4.45c-9.12-2.87-17,2.06-17.7,2.51.52,0,1,0,1.54,0a22.22,22.22,0,0,1,4.84.87,21.85,21.85,0,0,1,4.55,1.88,15.42,15.42,0,0,1,4.14,3.23,15.38,15.38,0,0,1-5.23.47,22.22,22.22,0,0,1-4.84-.87,23.3,23.3,0,0,1-4.54-1.89c-.46-.26-.92-.55-1.37-.85.3.74,4,9.32,13.09,12.19l14.18,4.46s3.14,1,4.05-1.9,1.85-5.9,1.85-5.9l1.85-5.9C243.17,194,240,193,240,193Z"/><g class="cls-75"><path class="cls-76" d="M235.69,209l-14.18-4.45A21.47,21.47,0,0,1,210,195.43c-.48-.22-1-.43-1.43-.69s-.92-.55-1.37-.85c.3.74,4,9.32,13.09,12.19l14.18,4.46s3,.94,4-1.75A3.88,3.88,0,0,1,235.69,209Z"/></g><path class="cls-77" d="M95.68,157.34l135.84,42L94.75,160.47a1.63,1.63,0,1,1,.89-3.14Z"/><path class="cls-76" d="M33.51,235.14c6.66-8.33,12.22-19,16.91-29,8.29-17.66.92-20,.92-20,5.23-10-1.22-14.71-1.22-14.71a11.2,11.2,0,0,0-1.38-10.54,21,21,0,0,0,0-9.36l.13-.44-.18.19c0-.09,0-.18-.07-.26l-.13.44a21.17,21.17,0,0,0-5,7.92,11.2,11.2,0,0,0-6.79,8.17s-8,.55-8.9,11.79c0,0-6.21-1.16-8.64,18.19-1.48,11.85.24,26.72,1.46,37.62Z"/><path class="cls-78" d="M8.75,161.51a1.52,1.52,0,0,0,.11.28c.2,1.26.6,1.32,2.15,1.06l.12,0h.1c.1,0,.57-.1.72-.15s7.9-1.95,8.91-1.58a52.26,52.26,0,0,0-8.51,3h0c-1.85.91-3.35,2-3.63,3A11.34,11.34,0,0,0,9,174.42c.32.79.47,1.42.94,1.78.06.08.11.17.16.23.28.36,1.75.07,3.91-.28,2.33-.35,8.07.34,8.07.34-3.31.29-8.72.82-10.5,1.85l-.07,0s-1.55.42-1.48,3-.65,11.95-.65,11.95-.36,1.64,2.33,1.91c1.69.17,8.48,3.45,8.48,3.45-6.37-1.28-8.88-2-9.86-1.37-.4.17-1.38.82-1.46,3.4-.11,3.25.13,7.44.13,7.44s-.18.52.47,1.1a2.35,2.35,0,0,0,.95.57l.3.12.76.25a55.09,55.09,0,0,1,7.45,3.25c-1.07-.14-3.92-1.12-6.3-1.76-2.05-.55-3.18-.83-3.49-.46h0a.48.48,0,0,0-.07.39C8.84,213,9,218,18.09,222.67c0,0,2.19.63,1.77,2.63-.1.51-.27,1.44-.54,2.64l.54-2.64s-1.27,4.93-2.87,9.48h2.54c.65-1.85,1.43-4.16,2.36-7.07,19.27-60.42-7.41-89.37-7.41-89.37S6.18,143,8,155.78Z"/><path class="cls-79" d="M69.62,235.13H99.74c.3-.11.6-.21.88-.33,1.17-2.07,6.4-7.92,8.46-9-2.3.47-10-.68-12.28-1.51-5.64,1.81-12.43,6.52-14.73,10a28.15,28.15,0,0,1,11.84-10.93l.48-.22c-1.11-.55-2.37-1.1-3.84-1.71a30.36,30.36,0,0,0-5.41-1.6C79.09,221.25,71.56,229.77,69.62,235.13Z"/><path class="cls-79" d="M69.41,235.13a23.17,23.17,0,0,1,7-12.61c1.41-1.31,2.64-2.39,3.71-3.27A20.15,20.15,0,0,0,64.9,225.3c-3.4,3.57-4.88,6.93-4.82,9.83Z"/><path class="cls-80" d="M71.45,175c0,.08.06-.17,0,0Z"/><path class="cls-81" d="M26.39,217.2s-6.47,1.73-6.89.76,5.32-1.2,5.95-7.39-1.39-13.85-5.07-21.36c0,0-6.56,2.25-6.87.8,0,0,4.69-1.85,4.87-4.73,0,0-5.14-14.49-8.38-17.58,0,0-4.36,3.47-5.54,3.07,0,0,4.42-3.88,3.82-5.82-.4-1.32-4.32-5.22-8.28-7.7v77.88H24.31A38.1,38.1,0,0,0,26.39,217.2Z"/><path class="cls-81" d="M62.66,235.12Z"/><path class="cls-81" d="M80.56,195.89c0,.06.06-.12,0,0Z"/><path class="cls-81" d="M52.51,235.12a6.56,6.56,0,0,0-.39-.91c-.3-.57-.73-1.07-1.45-.9a1.7,1.7,0,0,0-1.13,1.21,3,3,0,0,0-.12.6Z"/><path class="cls-81" d="M52.73,235.12h9.9a1.72,1.72,0,0,0-.07-2.22,2.82,2.82,0,0,0-1.45-.59c-.6-.13-1.21-.21-1.81-.29l-.1,0,.12-.14a10.51,10.51,0,0,1,3.25.7,2.14,2.14,0,0,0,2.51-.75,1.86,1.86,0,0,0,.08-2c-.46-.72-1.47-.77-2.21-.89a7.74,7.74,0,0,0-1.18-.12l.33-.42A9.57,9.57,0,0,1,65,229a1.83,1.83,0,0,0,2.34-.52l-.06.08.06-.08c.12-.16.07-.09,0,0a2.17,2.17,0,0,0,.21-2.26c-.39-.63-1.26-.72-1.91-.79-.33,0-.66-.05-1-.07a7,7,0,0,1,2-.2,5.16,5.16,0,0,0,2.28,0,1.72,1.72,0,0,0,1.15-1.79c-.16-1.09-1.13-1.21-2-1.19a8.79,8.79,0,0,0-1.15.12,6.83,6.83,0,0,1,1.2-.2c.67-.06,1.33.13,2,.12h0c1.75-.06,2.45-3,.3-3.17a6.25,6.25,0,0,0-1.88.22,5.16,5.16,0,0,1,3.11-.57,1.52,1.52,0,0,0,1.61-1.57c0-.93-.73-1.3-1.56-1.18a7.68,7.68,0,0,0-1.61.47h0a5,5,0,0,1,2.24-.77c.55,0,1.15.2,1.66,0a1.68,1.68,0,0,0,.87-2c-.19-.65-.85-.77-1.41-.72a5.32,5.32,0,0,0-1.63.44l.22-.41a4.85,4.85,0,0,1,2.81-.48c.11,0,.07,0,0,0,1.55.27,1.94-2.7.05-2.49a4.4,4.4,0,0,0-.89.19,4.09,4.09,0,0,1,2.09-.6h0A1.14,1.14,0,0,0,77.2,208c-.25-.79-1.17-.6-1.69-.39a6.56,6.56,0,0,0-1,.5l.23-.46a16.71,16.71,0,0,1,1.56-.68,5,5,0,0,0,1.41-.42,1.19,1.19,0,0,0,.49-1.51c-.3-.52-1.09-.25-1.46-.11a2.39,2.39,0,0,0-.28.13c.68-.43,1.38-.84,2.11-1.23h0c.44-.21,1.43-1.09.88-1.68-.4-.42-1-.16-1.51.12v-.06a12.41,12.41,0,0,1,1.09-.82c.56-.34,1.58-1,1.27-1.8-.18-.5-.68-.36-1.16-.08.34-.37.68-.74,1-1.13.13-.16,1.06-1.55.33-1.61a.7.7,0,0,0-.35.05l.33-.76.08-.18a1.49,1.49,0,0,1,.07-.24c.07-.19.33-.83.1-1.06-.41-.41-1.2,1.19-1.3,1.42l-.26.62c.06-.34-.4-.67-.77-.19a5,5,0,0,0-.61,1.71c-.1-.29-.25-.46-.46-.4-.71.2-.66,1.75-.63,2.36s.09.95.09,1.42a.59.59,0,0,0-.12.19c-.12-.71-.42-2.12-1-1.54s-.45,2-.29,2.8c.1.56.16,1.11.21,1.67a5.13,5.13,0,0,0-.43-1.15c-.2-.35-.48-.76-.89-.55a1.15,1.15,0,0,0-.47.89,7.27,7.27,0,0,0,.56,2.6c0,.07.12.43.2.75-.1.18-.19.36-.28.54a4.46,4.46,0,0,0-.6-1.81c-.71-1.1-1.51-.22-1.46.69s.65,1.86.77,2.84a3.71,3.71,0,0,0-.64-1.21c-.24-.29-.59-.65-1-.54a1.18,1.18,0,0,0-.74.72,2.67,2.67,0,0,0,.41,2.14,5,5,0,0,1,.71,1.89l-.23.42a5.18,5.18,0,0,0-.67-1.73c-.26-.42-.68-.91-1.21-.79a1.25,1.25,0,0,0-1,1.1,3.09,3.09,0,0,0,.2,1.58c.2.59.65,1.07.81,1.68a2.75,2.75,0,0,1,.12.9,1.43,1.43,0,0,0,0,.25l0,.08a5.74,5.74,0,0,0-.43-1.52c-.36-.77-1.05-1.63-1.85-.91s-.51,1.9-.16,2.73a7.39,7.39,0,0,1,.58,1.5,10.06,10.06,0,0,1,.11,1.09h0a5.58,5.58,0,0,0-.71-1.84c-.25-.39-.6-.94-1.1-1a1.15,1.15,0,0,0-1,.45,2.84,2.84,0,0,0-.08,2.9,8.12,8.12,0,0,1,.75,1.54,4.51,4.51,0,0,1,.07.48,5.94,5.94,0,0,0-.72-1.61c-.26-.4-.58-1-1.11-1a1.13,1.13,0,0,0-1.08.66,3.26,3.26,0,0,0,.09,2.9,7.29,7.29,0,0,1,.77,1.71,3.26,3.26,0,0,1,.07.7,7.8,7.8,0,0,0-1.1-1.84c-.75-.86-1.65-1.26-2.49-.13a2.7,2.7,0,0,0,0,2.83,14.4,14.4,0,0,1,1,1.46c.11.22.27.53.38.81l-.39.51a7.13,7.13,0,0,0-.51-1.25,4.88,4.88,0,0,0-1.43-1.84c-1.2-.79-2,1-2,1.91a2.89,2.89,0,0,0,.35,1.6,11.72,11.72,0,0,1,1.14,2.23,1,1,0,0,1,0,.31l-.14.16a12.64,12.64,0,0,0-1-2.34c-.67-1.12-1.54-1.85-2.46-.79a3.18,3.18,0,0,0-.35,2.92c.22.6.6,1.16.85,1.75.05.11.23.81.36,1.26A20.62,20.62,0,0,0,54.43,231a1.3,1.3,0,0,0-2,0,2.76,2.76,0,0,0-.47,2.18A7.75,7.75,0,0,0,52.73,235.12Z"/><path class="cls-82" d="M53.08,235Z"/><path class="cls-74" d="M71,183.49c-.61-.47-1.39,0-2,.46v-.08a15.29,15.29,0,0,1,1.25-1.3c.65-.55,1.85-1.57,1.28-2.6-.34-.62-1-.33-1.53.13.37-.55.74-1.1,1.07-1.67.14-.24,1.07-2.24.1-2.18a1,1,0,0,0-.45.15l.27-1.06c0-.13.06-.2.07-.25s0-.12,0-.33.25-1.15-.09-1.4c-.62-.45-1.32,1.79-1.4,2.12l-.22.86c0-.46-.65-.79-1-.09a6.23,6.23,0,0,0-.44,2.35c-.21-.36-.43-.55-.7-.42-.88.41-.49,2.42-.33,3.2.13.61.32,1.22.42,1.84a.62.62,0,0,0-.12.27c-.3-.91-1-2.68-1.66-1.79s-.18,2.67.19,3.7a19,19,0,0,1,.62,2.13,6.45,6.45,0,0,0-.79-1.4c-.33-.43-.78-.9-1.27-.53a1.44,1.44,0,0,0-.43,1.24c0,1.26.78,2.13,1.26,3.28,0,.1.25.53.41.94-.08.25-.17.5-.25.76a5.65,5.65,0,0,0-1.15-2.23c-1.16-1.29-2,0-1.76,1.2s1.23,2.28,1.59,3.53a5.09,5.09,0,0,0-1.08-1.44c-.38-.33-.9-.72-1.4-.5a1.55,1.55,0,0,0-.81,1.1,3.53,3.53,0,0,0,1,2.7A6.55,6.55,0,0,1,63,198.49l-.21.59a6.7,6.7,0,0,0-1.23-2.1c-.43-.5-1.08-1.06-1.75-.79a1.67,1.67,0,0,0-1,1.63,4.14,4.14,0,0,0,.59,2c.39.72,1.07,1.26,1.4,2a3.38,3.38,0,0,1,.34,1.15,2.09,2.09,0,0,0,0,.33s0,.07,0,.11a7.51,7.51,0,0,0-.88-1.88c-.62-.94-1.7-1.91-2.59-.82s-.29,2.59.34,3.6A9.4,9.4,0,0,1,59,206.19a10.94,10.94,0,0,1,.37,1.39v0a7.37,7.37,0,0,0-1.31-2.25c-.4-.46-1-1.11-1.64-1.13a1.48,1.48,0,0,0-1.24.8,3.74,3.74,0,0,0,.49,3.8,10.73,10.73,0,0,1,1.3,1.84c0,.06.11.32.2.61a8.15,8.15,0,0,0-1.28-1.94c-.42-.48-.95-1.16-1.66-1.14A1.54,1.54,0,0,0,53,209.28a4.33,4.33,0,0,0,.72,3.76A9.8,9.8,0,0,1,55,215.12a4.15,4.15,0,0,1,.23.89,10.76,10.76,0,0,0-1.81-2.18c-1.15-1-2.41-1.29-3.27.35a3.56,3.56,0,0,0,.63,3.68,20,20,0,0,1,1.6,1.71c.18.26.46.62.66,1l-.41.74a9.4,9.4,0,0,0-.91-1.52,6.58,6.58,0,0,0-2.25-2.11c-1.73-.77-2.39,1.75-2.25,2.92a3.77,3.77,0,0,0,.79,2A15.5,15.5,0,0,1,50,225.25a1.17,1.17,0,0,1,.09.39l-.15.24A17.52,17.52,0,0,0,48.19,223c-1.11-1.33-2.39-2.1-3.37-.53a4.17,4.17,0,0,0,.14,3.88c.42.74,1,1.39,1.47,2.11.09.13.47,1,.73,1.56l-.24.34a9.36,9.36,0,0,0-2.65-4.14,1.73,1.73,0,0,0-2.59.36,3.68,3.68,0,0,0-.16,2.93,19.86,19.86,0,0,0,1.7,3,9.2,9.2,0,0,1,.61,1.61c0,.11,0,.24.05.37l-.27.33a10.19,10.19,0,0,0-1.7-3.92c-.51-.69-1.17-1.25-2.08-.87a2.26,2.26,0,0,0-1.22,1.8,5.37,5.37,0,0,0,.14,2.22,4.88,4.88,0,0,0,.49,1.12H52.65a2.62,2.62,0,0,0,.37-2.48c-.42-1.19-1.63-1.41-2.75-1.49a22,22,0,0,0-2.29-.08h-.29c.06-.1.13-.19.2-.29a25.66,25.66,0,0,1,4.68.5,3,3,0,0,0,3.14-1.23c-.14.2-.25.36,0,0s.16-.25,0,0a2.3,2.3,0,0,0-.51-3,3.58,3.58,0,0,0-2-.46c-.81,0-1.61,0-2.41,0h-.14l.13-.21a14,14,0,0,1,4.37.24,2.81,2.81,0,0,0,3.12-1.5,2.45,2.45,0,0,0-.3-2.58c-.74-.85-2.07-.7-3.06-.71a10.13,10.13,0,0,0-1.56.09l.34-.61a12.41,12.41,0,0,1,3.89.15,2.42,2.42,0,0,0,2.94-1.17l0,0,0,0c.12-.22.07-.13,0,0a2.84,2.84,0,0,0-.2-3c-.64-.75-1.79-.69-2.65-.65-.44,0-.87.08-1.3.12a9.78,9.78,0,0,1,2.56-.68c1-.11,2.14.09,3-.45A2.3,2.3,0,0,0,63.08,213c-.45-1.39-1.73-1.34-2.9-1.14a12.42,12.42,0,0,0-1.48.4,9.16,9.16,0,0,1,1.53-.51c.87-.21,1.76-.1,2.64-.26h0c.28-.05.1,0,0,0,2.26-.44,2.56-4.46-.27-4.19a8,8,0,0,0-2.4.68,6.83,6.83,0,0,1,3.93-1.39,2,2,0,0,0,1.78-2.38c-.18-1.21-1.22-1.54-2.27-1.21a8.83,8.83,0,0,0-2,1h0a6.55,6.55,0,0,1,2.77-1.46c.71-.15,1.53,0,2.15-.36a2.21,2.21,0,0,0,.72-2.81,1.6,1.6,0,0,0-2-.66,7,7,0,0,0-2,.92c.06-.19.14-.38.2-.58A6.43,6.43,0,0,1,67,197.82h0c2.07,0,2-3.92-.46-3.26a6.35,6.35,0,0,0-1.12.44,5.36,5.36,0,0,1,2.61-1.21c.06,0,.05,0,0,0a1.5,1.5,0,0,0,1.11-2.19c-.48-1-1.64-.54-2.28-.16a9.17,9.17,0,0,0-1.19.85c.07-.21.14-.42.2-.64a21.85,21.85,0,0,1,1.9-1.21,7.23,7.23,0,0,0,1.75-.83,1.57,1.57,0,0,0,.32-2.07c-.5-.62-1.46-.11-1.92.15a4,4,0,0,0-.34.23c.8-.71,1.63-1.39,2.5-2,.06,0,.25-.18,0,0C70.68,185.49,71.79,184.14,71,183.49Z"/><path class="cls-82" d="M60.92,220.16a.9.9,0,0,0-.05.09Z"/><path class="cls-76" d="M302.48,235.14c-6.67-8.33-12.22-19-16.91-29-8.3-17.66-.92-20-.92-20-5.23-10,1.21-14.71,1.21-14.71a11.23,11.23,0,0,1,1.38-10.54,21.1,21.1,0,0,1,0-9.36l-.12-.44.18.19a1.38,1.38,0,0,0,.06-.26l.13.44a21.17,21.17,0,0,1,5,7.92,11.21,11.21,0,0,1,6.8,8.17s8,.55,8.9,11.79c0,0,6.2-1.16,8.63,18.19,1.49,11.85-.23,26.72-1.45,37.62Z"/><path class="cls-78" d="M327.24,161.51a1.52,1.52,0,0,1-.11.28c-.2,1.26-.61,1.32-2.15,1.06l-.13,0h-.09c-.1,0-.58-.1-.73-.15s-7.9-1.95-8.9-1.58a52,52,0,0,1,8.5,3h0c1.84.91,3.34,2,3.63,3a11.48,11.48,0,0,1-.24,7.25,4.06,4.06,0,0,1-1,1.78,2.3,2.3,0,0,1-.15.23c-.29.36-1.75.07-3.91-.28-2.33-.35-8.07.34-8.07.34,3.31.29,8.71.82,10.49,1.85l.07,0s1.55.42,1.49,3,.64,11.95.64,11.95.36,1.64-2.32,1.91c-1.7.17-8.48,3.45-8.48,3.45,6.37-1.28,8.88-2,9.85-1.37.4.17,1.38.82,1.47,3.4.11,3.25-.13,7.44-.13,7.44s.18.52-.47,1.1a2.33,2.33,0,0,1-1,.57l-.29.12-.76.25a54.8,54.8,0,0,0-7.46,3.25c1.08-.14,3.92-1.12,6.31-1.76,2-.55,3.18-.83,3.48-.46h0a.52.52,0,0,1,.07.39c.17,1.43,0,6.47-9.07,11.14,0,0-2.19.63-1.78,2.63.11.51.28,1.44.54,2.64l-.54-2.64s1.28,4.93,2.87,9.48h-2.53c-.66-1.85-1.44-4.16-2.37-7.07-19.27-60.42,7.42-89.37,7.42-89.37s8.3,4.61,6.47,17.44Z"/><path class="cls-79" d="M266.36,235.13H236.24c-.29-.11-.59-.21-.87-.33-1.18-2.07-6.4-7.92-8.46-9,2.29.47,10.05-.68,12.28-1.51,5.64,1.81,12.42,6.52,14.72,10a28.09,28.09,0,0,0-11.83-10.93l-.48-.22c1.11-.55,2.37-1.1,3.84-1.71a30.36,30.36,0,0,1,5.41-1.6C256.9,221.25,264.43,229.77,266.36,235.13Z"/><path class="cls-79" d="M266.58,235.13a23.14,23.14,0,0,0-7-12.61c-1.4-1.31-2.63-2.39-3.7-3.27a20.16,20.16,0,0,1,15.23,6.05c3.39,3.57,4.88,6.93,4.82,9.83Z"/><path class="cls-80" d="M264.53,175c0,.08,0-.17,0,0Z"/><path class="cls-81" d="M309.59,217.2s6.48,1.73,6.9.76-5.32-1.2-5.95-7.39,1.39-13.85,5.07-21.36c0,0,6.56,2.25,6.87.8,0,0-4.69-1.85-4.87-4.73,0,0,5.13-14.49,8.37-17.58,0,0,4.37,3.47,5.55,3.07,0,0-4.42-3.88-3.82-5.82.4-1.32,4.32-5.22,8.28-7.7v77.88H311.68A38.08,38.08,0,0,1,309.59,217.2Z"/><path class="cls-81" d="M273.33,235.12h0C273.21,235,273.25,235,273.33,235.12Z"/><path class="cls-81" d="M255.43,195.89c0,.06-.06-.12,0,0Z"/><path class="cls-81" d="M283.48,235.12a8,8,0,0,1,.38-.91c.31-.57.74-1.07,1.46-.9a1.74,1.74,0,0,1,1.13,1.21,4,4,0,0,1,.12.6Z"/><path class="cls-81" d="M283.26,235.12h-9.9a1.72,1.72,0,0,1,.06-2.22,2.89,2.89,0,0,1,1.46-.59c.6-.13,1.2-.21,1.81-.29l.1,0-.12-.14a10.51,10.51,0,0,0-3.25.7,2.14,2.14,0,0,1-2.51-.75,1.86,1.86,0,0,1-.08-2c.45-.72,1.46-.77,2.2-.89a8,8,0,0,1,1.19-.12l-.34-.42A9.57,9.57,0,0,0,271,229a1.82,1.82,0,0,1-2.33-.52l.06.08-.07-.08c-.11-.16-.06-.09,0,0a2.19,2.19,0,0,1-.21-2.26,2.44,2.44,0,0,1,1.91-.79c.33,0,.66-.05,1-.07a7,7,0,0,0-2-.2,5.16,5.16,0,0,1-2.28,0,1.74,1.74,0,0,1-1.16-1.79c.17-1.09,1.14-1.21,2-1.19a8.79,8.79,0,0,1,1.15.12,6.83,6.83,0,0,0-1.2-.2c-.68-.06-1.34.13-2,.12h0c-1.74-.06-2.44-3-.29-3.17a6.18,6.18,0,0,1,1.87.22,5.11,5.11,0,0,0-3.1-.57,1.51,1.51,0,0,1-1.61-1.57c0-.93.73-1.3,1.55-1.18a8,8,0,0,1,1.62.47h0a5.08,5.08,0,0,0-2.25-.77c-.55,0-1.14.2-1.65,0a1.66,1.66,0,0,1-.87-2c.19-.65.84-.77,1.41-.72a5.4,5.4,0,0,1,1.63.44c-.08-.13-.15-.27-.23-.41a4.81,4.81,0,0,0-2.8-.48c-.11,0-.07,0,0,0-1.54.27-1.94-2.7,0-2.49a4.55,4.55,0,0,1,.89.19,4.12,4.12,0,0,0-2.1-.6h0a1.15,1.15,0,0,1-1.1-1.51c.25-.79,1.17-.6,1.69-.39a5.74,5.74,0,0,1,1,.5c-.07-.15-.15-.3-.22-.46a16.71,16.71,0,0,0-1.56-.68,4.92,4.92,0,0,1-1.41-.42,1.19,1.19,0,0,1-.49-1.51c.3-.52,1.08-.25,1.45-.11a2.55,2.55,0,0,1,.29.13c-.69-.43-1.39-.84-2.12-1.23,0,0-.21-.1,0,0-.44-.21-1.43-1.09-.88-1.68.4-.42,1-.16,1.51.12v-.06a11.22,11.22,0,0,0-1.1-.82c-.55-.34-1.57-1-1.27-1.8.19-.5.69-.36,1.16-.08-.33-.37-.67-.74-1-1.13-.13-.16-1.06-1.55-.33-1.61a.7.7,0,0,1,.35.05l-.33-.76a1.73,1.73,0,0,1-.08-.18s0-.09-.08-.24-.32-.83-.1-1.06c.42-.41,1.2,1.19,1.31,1.42l.26.62c-.06-.34.39-.67.76-.19a4.65,4.65,0,0,1,.61,1.71c.11-.29.26-.46.47-.4.71.2.66,1.75.63,2.36s-.09.95-.09,1.42a.59.59,0,0,1,.12.19c.11-.71.42-2.12,1-1.54s.46,2,.3,2.8a13.61,13.61,0,0,0-.21,1.67,4.69,4.69,0,0,1,.43-1.15c.19-.35.47-.76.89-.55a1.11,1.11,0,0,1,.46.89,7.05,7.05,0,0,1-.55,2.6c0,.07-.13.43-.2.75l.28.54a4.31,4.31,0,0,1,.6-1.81c.71-1.1,1.51-.22,1.46.69s-.65,1.86-.77,2.84a3.68,3.68,0,0,1,.63-1.21c.25-.29.59-.65,1-.54a1.2,1.2,0,0,1,.74.72,2.67,2.67,0,0,1-.41,2.14,5,5,0,0,0-.72,1.89l.24.42a5,5,0,0,1,.66-1.73c.27-.42.69-.91,1.22-.79a1.26,1.26,0,0,1,1,1.1,3.21,3.21,0,0,1-.2,1.58c-.21.59-.65,1.07-.81,1.68a2.51,2.51,0,0,0-.12.9s0,.14,0,.25l0,.08a5.74,5.74,0,0,1,.43-1.52c.35-.77,1-1.63,1.84-.91s.52,1.9.17,2.73a7.39,7.39,0,0,0-.58,1.5,8.05,8.05,0,0,0-.11,1.09h0a5.58,5.58,0,0,1,.71-1.84c.25-.39.6-.94,1.09-1a1.16,1.16,0,0,1,1,.45,2.84,2.84,0,0,1,.08,2.9,8.12,8.12,0,0,0-.75,1.54,3.7,3.7,0,0,0-.08.48,6.62,6.62,0,0,1,.72-1.61c.26-.4.58-1,1.12-1a1.13,1.13,0,0,1,1.08.66,3.29,3.29,0,0,1-.09,2.9,7.76,7.76,0,0,0-.78,1.71,4,4,0,0,0-.06.7,7.8,7.8,0,0,1,1.1-1.84c.75-.86,1.65-1.26,2.48-.13a2.7,2.7,0,0,1,0,2.83,14.4,14.4,0,0,0-1,1.46c-.11.22-.27.53-.38.81l.39.51a6.44,6.44,0,0,1,.51-1.25,4.88,4.88,0,0,1,1.43-1.84c1.2-.79,2,1,2,1.91a2.9,2.9,0,0,1-.36,1.6,11.68,11.68,0,0,0-1.13,2.23,1,1,0,0,0,0,.31l.14.16a12.64,12.64,0,0,1,1-2.34c.67-1.12,1.54-1.85,2.45-.79a3.15,3.15,0,0,1,.36,2.92c-.23.6-.6,1.16-.85,1.75-.05.11-.23.81-.36,1.26a21.19,21.19,0,0,1,1.71-3.19,1.31,1.31,0,0,1,2,0,2.84,2.84,0,0,1,.47,2.18A8.15,8.15,0,0,1,283.26,235.12Z"/><path class="cls-82" d="M282.91,235s0,0,0,0Z"/><path class="cls-74" d="M265,183.49c.61-.47,1.38,0,1.94.46a.25.25,0,0,0,0-.08,15.29,15.29,0,0,0-1.25-1.3c-.65-.55-1.85-1.57-1.29-2.6.35-.62,1-.33,1.53.13-.36-.55-.73-1.1-1.06-1.67-.14-.24-1.07-2.24-.1-2.18a1,1,0,0,1,.45.15c-.09-.35-.19-.7-.28-1.06a1.78,1.78,0,0,0-.07-.25s0-.12,0-.33-.26-1.15.09-1.4c.62-.45,1.31,1.79,1.4,2.12l.22.86c0-.46.64-.79,1-.09a6.44,6.44,0,0,1,.44,2.35c.2-.36.43-.55.69-.42.89.41.5,2.42.34,3.2-.13.61-.32,1.22-.42,1.84a.77.77,0,0,1,.12.27c.3-.91,1-2.68,1.66-1.79s.17,2.67-.2,3.7a21.29,21.29,0,0,0-.61,2.13,6.45,6.45,0,0,1,.79-1.4c.33-.43.78-.9,1.27-.53a1.47,1.47,0,0,1,.43,1.24c-.05,1.26-.79,2.13-1.27,3.28,0,.1-.24.53-.41.94.09.25.17.5.26.76a5.65,5.65,0,0,1,1.15-2.23c1.16-1.29,2,0,1.76,1.2s-1.23,2.28-1.59,3.53a4.91,4.91,0,0,1,1.08-1.44c.38-.33.9-.72,1.39-.5a1.53,1.53,0,0,1,.81,1.1,3.49,3.49,0,0,1-1,2.7,6.6,6.6,0,0,0-1.32,2.31c.07.2.15.4.22.59a6.51,6.51,0,0,1,1.23-2.1c.43-.5,1.07-1.06,1.74-.79a1.67,1.67,0,0,1,1,1.63,4.25,4.25,0,0,1-.59,2c-.39.72-1.07,1.26-1.41,2a3.62,3.62,0,0,0-.34,1.15s0,.19,0,.33,0,.07,0,.11a7.18,7.18,0,0,1,.88-1.88c.62-.94,1.7-1.91,2.59-.82s.28,2.59-.35,3.6a9.35,9.35,0,0,0-1.06,1.84,9.49,9.49,0,0,0-.37,1.39v0a7.35,7.35,0,0,1,1.3-2.25c.41-.46,1-1.11,1.64-1.13a1.47,1.47,0,0,1,1.24.8,3.74,3.74,0,0,1-.49,3.8,11.26,11.26,0,0,0-1.29,1.84,5.27,5.27,0,0,0-.2.61,8.11,8.11,0,0,1,1.27-1.94c.42-.48,1-1.16,1.67-1.14a1.51,1.51,0,0,1,1.27,1.09,4.33,4.33,0,0,1-.71,3.76,10.25,10.25,0,0,0-1.37,2.08,4.83,4.83,0,0,0-.23.89,10.81,10.81,0,0,1,1.82-2.18c1.15-1,2.41-1.29,3.26.35a3.54,3.54,0,0,1-.63,3.68,18.39,18.39,0,0,0-1.59,1.71,10.81,10.81,0,0,0-.66,1l.4.74a9.46,9.46,0,0,1,.92-1.52,6.49,6.49,0,0,1,2.25-2.11c1.73-.77,2.38,1.75,2.24,2.92a3.75,3.75,0,0,1-.78,2,15.5,15.5,0,0,0-1.94,2.68,1.48,1.48,0,0,0-.1.39l.15.24A17.61,17.61,0,0,1,287.8,223c1.11-1.33,2.39-2.1,3.37-.53a4.2,4.2,0,0,1-.14,3.88c-.42.74-1,1.39-1.48,2.11-.08.13-.46,1-.72,1.56a4.15,4.15,0,0,0,.24.34,9.27,9.27,0,0,1,2.65-4.14,1.73,1.73,0,0,1,2.59.36,3.72,3.72,0,0,1,.16,2.93,20.78,20.78,0,0,1-1.7,3,7.84,7.84,0,0,0-.61,1.61,3.69,3.69,0,0,0-.05.37l.26.33a10.5,10.5,0,0,1,1.7-3.92c.52-.69,1.18-1.25,2.08-.87a2.25,2.25,0,0,1,1.23,1.8,5.37,5.37,0,0,1-.15,2.22,4.85,4.85,0,0,1-.48,1.12H283.34a2.65,2.65,0,0,1-.38-2.48c.43-1.19,1.64-1.41,2.76-1.49a21.91,21.91,0,0,1,2.29-.08h.29c-.07-.1-.14-.19-.2-.29a25.57,25.57,0,0,0-4.68.5,3,3,0,0,1-3.14-1.23c.14.2.24.36,0,0s-.17-.25,0,0a2.29,2.29,0,0,1,.5-3,3.62,3.62,0,0,1,2-.46c.81,0,1.62,0,2.42,0h.14a2.39,2.39,0,0,1-.13-.21,14.07,14.07,0,0,0-4.38.24,2.8,2.8,0,0,1-3.11-1.5,2.43,2.43,0,0,1,.3-2.58c.74-.85,2.07-.7,3.05-.71a10.26,10.26,0,0,1,1.57.09l-.34-.61a12.4,12.4,0,0,0-3.89.15,2.41,2.41,0,0,1-2.94-1.17l0,0,0,0c-.12-.22-.07-.13,0,0a2.86,2.86,0,0,1,.19-3c.65-.75,1.8-.69,2.66-.65l1.3.12a9.75,9.75,0,0,0-2.57-.68c-1-.11-2.13.09-3-.45a2.29,2.29,0,0,1-1.13-2.57c.44-1.39,1.73-1.34,2.9-1.14a11.77,11.77,0,0,1,1.47.4,9,9,0,0,0-1.52-.51c-.87-.21-1.77-.1-2.64-.26h0c-.27-.05-.09,0,0,0-2.27-.44-2.56-4.46.26-4.19a8,8,0,0,1,2.41.68,6.83,6.83,0,0,0-3.93-1.39,2,2,0,0,1-1.78-2.38c.18-1.21,1.22-1.54,2.27-1.21a8.83,8.83,0,0,1,2,1h0a6.61,6.61,0,0,0-2.77-1.46c-.71-.15-1.53,0-2.15-.36a2.21,2.21,0,0,1-.72-2.81,1.58,1.58,0,0,1,2-.66,7.1,7.1,0,0,1,2,.92l-.21-.58a6.39,6.39,0,0,0-3.55-1.21h0c-2.08,0-2-3.92.46-3.26a6.57,6.57,0,0,1,1.11.44,5.36,5.36,0,0,0-2.61-1.21c-.05,0,0,0,0,0a1.51,1.51,0,0,1-1.12-2.19c.49-1,1.65-.54,2.29-.16a9.06,9.06,0,0,1,1.18.85c-.06-.21-.13-.42-.2-.64a20.27,20.27,0,0,0-1.89-1.21,7.06,7.06,0,0,1-1.75-.83,1.57,1.57,0,0,1-.33-2.07c.5-.62,1.47-.11,1.93.15.12.06.22.16.34.23-.8-.71-1.63-1.39-2.51-2-.05,0-.25-.18,0,0C265.31,185.49,264.2,184.14,265,183.49Z"/><path class="cls-82" d="M275.07,220.16l.05.09Z"/><path class="cls-83" d="M336,67.87,242.86,69s9.68-6.85,38.7-6.85c0,0,8.12-5.33,13.2-.55,0,0,7.57-7.2,14.58-.67,0,0,4.49-8,13.93-3.64,0,0,2.62-7.56,10.56-7.15a12.93,12.93,0,0,1,2.16.32Z"/><path class="cls-84" d="M125,102.29l124.46.78s-30.07-3.56-35.2-2.86c0,0-6.23-1.33-9.1-.16,0,0-5.85-2.08-11.27-.19,0,0-3.47-2.32-10.76-1.06a20.32,20.32,0,0,0-9.87-2.06c-6.14.12-9,2.41-9,2.41s-5.34-1.51-8.32.93c0,0-5.93-1.79-8.65.75a11.23,11.23,0,0,0-5.64.35Z"/><path class="cls-84" d="M2.42,83.4,94.68,83s-6.57-3.59-18.54-3.59c0,0-3.66-3.17-7.33-.39,0,0-4.38-4.11-9.08-.49a7.73,7.73,0,0,0-8.65-2,8.56,8.56,0,0,0-7.53-3.75c-6.71,0-7.68,4.13-7.68,4.13s-4.11-2.77-7.41.51c0,0-4.59-.89-6.33,2.23Z"/><path class="cls-49" d="M101.21,111l-.16,19.27a48.22,48.22,0,0,1-9.33-.23C93.68,124.7,98.6,116.12,101.21,111Z"/><path class="cls-77" d="M108.84,135.14H96.38l-.68,0a9.19,9.19,0,0,1-2-.35,4.29,4.29,0,0,1-.5-.19c-.34-.14-1.85-1.05-1.85-1.05s17.94,0,18.11,0Z"/><polygon class="cls-74" points="108.42 133.55 94.15 133.53 95.25 132.85 108.14 132.86 108.42 133.55"/><path class="cls-74" d="M101.29,132.86l.17-23.2s-.07-.07-.17-.07-.16,0-.16.07l-.18,23.2Z"/><path class="cls-85" d="M101,130.32l.14-19.1c0,.08-5.45,19.18-5.45,19.18A48.64,48.64,0,0,0,101,130.32Z"/><path class="cls-81" d="M179.09,148.06h-20L158,148a14.65,14.65,0,0,1-3.23-.55c-.27-.09-.55-.19-.82-.31-.53-.22-3-1.69-3-1.69.22.05,28.83.07,29.11.07Z"/><polygon class="cls-74" points="178.42 145.51 155.48 145.48 157.24 144.39 177.97 144.4 178.42 145.51"/><path class="cls-74" d="M167,144.39l.28-37.29c0-.06-.12-.11-.27-.11s-.27.05-.27.11l-.28,37.29Z"/><path class="cls-49" d="M166.44,140.31l.23-30.7c-.07.14-8.77,30.83-8.77,30.83A75.63,75.63,0,0,0,166.44,140.31Z"/><path class="cls-49" d="M167,140.31l.12-30.7c.07.14,8.77,30.83,8.77,30.83A82.2,82.2,0,0,1,167,140.31Z"/><path class="cls-76" d="M14.73,0C49.54,26.12,75,17.35,79.7,13.3c3.64-3.13,4-8.62-.63-13.29Z"/><path class="cls-76" d="M.38,0S29.77,16.24,40.59,32.67c10.58,16,4.52,26.06-3.29,25.48C31,57.68,5.86,45.4.38,0Z"/><path class="cls-81" d="M32.14,42.18l1.17,7.37-.37-6.38c2.25,2.78,4.51,5.55,6.82,8.29-2.18-3-4.4-6-6.64-8.94l6.37,1.92-7.15-3-1-1.32-5.1-6.62,9.22,2.52-9.85-3.34L22.76,29l-3.85-4.85,11.38,3.1L18.1,23.13,14,18c-.37-.46-.74-.91-1.1-1.37l7.52,1.87-8.08-2.55C10,13,7.56,10,5.1,7.1c2.19,3,4.44,6,6.69,9l.09.18L12.5,25l-.06-8,1.07,1.42,4,5.25,1.19,13-.37-11.9,3.72,4.84,3.06,3.85.94,10.29-.3-9.47,5,6.36C31.27,41.1,31.7,41.64,32.14,42.18Z"/><path class="cls-74" d="M.32,70.86c5.36-.51,11.16-6.59,12.17-20.21C14,31,.56.26.56.26L.32.69Z"/><path class="cls-86" d="M.32,63.9c0,.38,0,.75,0,1.13.12-3.71.17-7.42.2-11.13l3.87,5.41L.58,52.59c0-.54,0-1.09,0-1.64V42.59l5.77,7.62L.6,41.56V36.88l-.08-6.2,7.11,9.4L.5,29.37.41,22.81c0-.59,0-1.17,0-1.76l4.82,6.07L.35,20.17l0-1Z"/><path class="cls-78" d="M.22,0V2.27C17.05,30.13,58.44,32.61,58.44,32.61l12.73.78.1,0,0,0h0l-.09,0-8.85-9.19S43.84,4.9,19.92,0Z"/><path class="cls-81" d="M65.69,5.2l5.86-3.14L64.4,5l-1.63-.23L54.48,3.72,61,0h-.28L53.46,3.58,48.82,3l-6.16-.71L46.6,0h-1L41.36,2.12l-6.52-.76-1.75-.18L35,0h-.75L32.21,1.09C28.57.7,24.93.33,21.27,0H21.1c3.61.58,7.22,1.1,10.84,1.61l.18,0,6.59,5.71L33,1.76,34.76,2l6.57.86,10,8.32L42.66,3l6.05.78,4.89.57L61.54,11,54.63,4.51l8.06.93,2.06.22,6,4.38L66,5.79c3.56.38,7.12.74,10.68,1C73,6.24,69.37,5.72,65.69,5.2Z"/><g class="cls-75"><g class="cls-87"><path class="cls-88" d="M98.16,121.5a20.89,20.89,0,0,1,27.56-10.92,21.15,21.15,0,0,1,10.84,27.77A20.88,20.88,0,0,1,109,149.27,21.16,21.16,0,0,1,98.16,121.5Z"/></g><g class="cls-89"><path class="cls-90" d="M197.77,105.55a32.86,32.86,0,0,1,43.36-17.18,33.29,33.29,0,0,1,17.06,43.68,32.86,32.86,0,0,1-43.36,17.19A33.3,33.3,0,0,1,197.77,105.55Z"/></g><g class="cls-91"><path class="cls-92" d="M251.27,71.18a27.67,27.67,0,0,1,36.52-14.47A28,28,0,0,1,302.15,93.5,27.67,27.67,0,0,1,265.64,108,28,28,0,0,1,251.27,71.18Z"/></g><g class="cls-93"><path class="cls-94" d="M233.43,132.28a14.91,14.91,0,0,1,19.68-7.8,15.11,15.11,0,0,1,7.75,19.83,14.91,14.91,0,0,1-19.68,7.8A15.11,15.11,0,0,1,233.43,132.28Z"/></g><g class="cls-95"><path class="cls-96" d="M275.12,141.58a20.88,20.88,0,0,1,27.56-10.92,21.15,21.15,0,0,1,10.84,27.77A20.88,20.88,0,0,1,286,169.35,21.16,21.16,0,0,1,275.12,141.58Z"/></g><g class="cls-97"><path class="cls-98" d="M79.29,58a28.4,28.4,0,0,1,37.47-14.85A28.76,28.76,0,0,1,131.5,80.87,28.38,28.38,0,0,1,94,95.72,28.76,28.76,0,0,1,79.29,58Z"/></g><g class="cls-99"><path class="cls-100" d="M187,29.49a20.88,20.88,0,0,1,27.56-10.92,21.17,21.17,0,0,1,10.85,27.77,20.9,20.9,0,0,1-27.57,10.92A21.16,21.16,0,0,1,187,29.49Z"/></g><g class="cls-101"><path class="cls-102" d="M213.6,158.17a20.88,20.88,0,0,1,27.56-10.93A21.15,21.15,0,0,1,252,175a20.87,20.87,0,0,1-27.56,10.92A21.15,21.15,0,0,1,213.6,158.17Z"/></g><g class="cls-103"><path class="cls-104" d="M249.56,180.62a29.49,29.49,0,0,1,38.92-15.42,29.87,29.87,0,0,1,15.31,39.21,29.5,29.5,0,0,1-38.92,15.43A29.89,29.89,0,0,1,249.56,180.62Z"/></g><g class="cls-105"><path class="cls-106" d="M270.7,42.07a20.88,20.88,0,0,1,27.56-10.93A21.16,21.16,0,0,1,309.1,58.91a20.88,20.88,0,0,1-27.56,10.93A21.16,21.16,0,0,1,270.7,42.07Z"/></g><g class="cls-107"><path class="cls-108" d="M187,155.15a20.88,20.88,0,0,1,27.56-10.92A21.16,21.16,0,0,1,225.43,172a20.89,20.89,0,0,1-27.57,10.93A21.16,21.16,0,0,1,187,155.15Z"/></g><g class="cls-109"><path class="cls-110" d="M68.44,148.21A20.9,20.9,0,0,1,96,137.29a21.16,21.16,0,0,1,10.84,27.77A20.89,20.89,0,0,1,79.29,176,21.17,21.17,0,0,1,68.44,148.21Z"/></g><g class="cls-111"><path class="cls-112" d="M36.06,181a27,27,0,0,1,35.68-14.14,27.39,27.39,0,0,1,14,35.95A27,27,0,0,1,50.1,217,27.4,27.4,0,0,1,36.06,181Z"/></g><g class="cls-113"><path class="cls-114" d="M42,106.53A29,29,0,0,1,80.3,91.35,29.41,29.41,0,0,1,95.37,130a29,29,0,0,1-38.32,15.19A29.42,29.42,0,0,1,42,106.53Z"/></g><g class="cls-115"><path class="cls-116" d="M39.31,36A20.89,20.89,0,0,1,66.87,25,21.15,21.15,0,0,1,77.71,52.81,20.88,20.88,0,0,1,50.15,63.73,21.16,21.16,0,0,1,39.31,36Z"/></g><g class="cls-117"><path class="cls-118" d="M291.64,78.29a20.9,20.9,0,0,1,27.57-10.93,21.17,21.17,0,0,1,10.84,27.77,20.88,20.88,0,0,1-27.56,10.93A21.17,21.17,0,0,1,291.64,78.29Z"/></g></g></g></g></svg>