<svg xmlns="http://www.w3.org/2000/svg" viewBox="0 0 750 500"><linearGradient id="a" gradientUnits="userSpaceOnUse" x1="375" y1="497.388" x2="375" y2=".768"><stop offset="0" stop-color="#82b6c9"/><stop offset=".181" stop-color="#7ab0cb"/><stop offset=".463" stop-color="#649ed1"/><stop offset=".81" stop-color="#4081dc"/><stop offset="1" stop-color="#296fe2"/></linearGradient><path fill="url(#a)" d="M0 .01h750V500H0z"/><linearGradient id="b" gradientUnits="userSpaceOnUse" x1="145.882" y1="103.324" x2="145.882" y2="174.581"><stop offset="0" stop-color="#82b6c9"/><stop offset=".181" stop-color="#7ab0cb" stop-opacity=".819"/><stop offset=".463" stop-color="#649ed1" stop-opacity=".537"/><stop offset=".81" stop-color="#4081dc" stop-opacity=".19"/><stop offset="1" stop-color="#296fe2" stop-opacity="0"/></linearGradient><path opacity=".2" fill="url(#b)" d="M292.015 129.248c-17.249.837-34.273 6.173-48.881 15.39-5.158 3.253-10.053 7.002-15.545 9.659-8.21 3.981-17.636 5.391-26.644 3.981-2.571-.403-5.205-1.022-7.738-.434-3.028.697-5.383 2.997-7.776 4.973-9.813 8.094-23.011 11.936-35.629 10.371-8.675-1.077-17.179-4.57-25.862-3.609-12.207 1.348-24.491 11.254-35.482 5.763-2.494-1.255-4.593-3.222-7.126-4.392-6.653-3.059-14.43-.008-20.866 3.478-6.444 3.478-13.314 7.567-20.556 6.483-6.134-.914-11.432-5.484-17.636-5.631-6.886-.163-12.524 5.035-18.411 8.621a42.054 42.054 0 01-4.113 2.2v-74.433c7.691 1.433 15.127 5.29 23.004 5.244 10.084-.047 19.425-6.483 29.502-6.01 10.441.48 19.929 8.326 30.285 6.963 7.885-1.038 14.979-7.358 22.818-5.987 7.01 1.231 11.982 8.342 19.054 9.194 7.265.883 13.554-5.104 20.765-6.351 9.968-1.719 19.921 5.817 29.804 3.702 8.001-1.72 15.777-9.519 23.027-5.716 4.275 2.246 6.359 8.017 11.084 9.023 6.661 1.425 13.694-7.73 19.201-3.718 2.27 1.642 2.974 5.019 5.499 6.235 2.169 1.046 4.701.07 7.002-.643 16.575-5.146 33.917 4.366 51.22 5.644z"/><linearGradient id="c" gradientUnits="userSpaceOnUse" x1="586.205" y1="36.082" x2="586.205" y2="131.276"><stop offset="0" stop-color="#82b6c9"/><stop offset=".181" stop-color="#7ab0cb" stop-opacity=".819"/><stop offset=".463" stop-color="#649ed1" stop-opacity=".537"/><stop offset=".81" stop-color="#4081dc" stop-opacity=".19"/><stop offset="1" stop-color="#296fe2" stop-opacity="0"/></linearGradient><path opacity=".2" fill="url(#c)" d="M750.25 35.616v88.52c-8.17 1.884-16.477 1.447-22.931-4.157-2.254-1.962-4.32-4.565-7.111-5.09-1.733-.33-3.492.204-5.182.719-14.283 4.342-30.162 7.402-43.318-.262-3.577-2.079-6.889-4.935-10.808-5.954-6.429-1.681-12.891 1.875-18.978 4.74-11.551 5.43-25.296 8.47-36.146 1.428-5.643-3.652-10.099-9.811-16.34-11.851-5.745-1.884-11.841.117-17.749 1.137-5.916 1.03-12.814.66-16.699-4.507-2.185-2.904-3.167-7.042-5.993-9.111-5.788-4.216-12.797 3.497-19.67 3.74-5.08.185-9.476-3.779-14.359-5.391-4.021-1.331-8.298-1.03-12.481-.826-21.633 1.049-59.086 3.895-80.326-.932 23.247-1.389 62.193-7.548 85.431-8.937 8.401-.495 17.006-1.059 24.698-4.925 7.427-3.73 14.727-10.617 22.623-8.441 4.064 1.127 7.752 4.653 11.901 4.041 2.151-.32 4.038-1.719 5.831-3.099 5.66-4.342 11.329-8.898 17.791-11.414s13.975-2.739 19.781 1.36c2.595 1.826 5.908 4.468 8.255 2.263.99-.932 1.357-2.448 1.87-3.788 2.168-5.702 7.752-9.082 13.215-9.247 5.455-.175 10.74 2.409 15.265 5.896 1.195.923 2.561 1.962 3.97 1.593 1.383-.369 2.194-1.933 3.073-3.196 4.431-6.343 12.857-6.537 19.789-4.682 2.766.738 5.592 1.719 8.392 1.195 5.31-1.01 8.998-7.11 14.291-8.198 7.658-1.574 14.863 7.926 22.367 5.576 4.755-1.486 7.598-7.246 12.166-9.364 5.447-2.527 11.474.756 17.382 1.164z"/><linearGradient id="d" gradientUnits="userSpaceOnUse" x1="535.058" y1="97.073" x2="535.058" y2="290.557"><stop offset="0" stop-color="#82b6c9"/><stop offset=".181" stop-color="#7ab0cb" stop-opacity=".819"/><stop offset=".463" stop-color="#649ed1" stop-opacity=".537"/><stop offset=".81" stop-color="#4081dc" stop-opacity=".19"/><stop offset="1" stop-color="#296fe2" stop-opacity="0"/></linearGradient><circle fill="url(#d)" cx="535.058" cy="184.96" r="93.128"/><linearGradient id="e" gradientUnits="userSpaceOnUse" x1="541.535" y1="367.809" x2="541.535" y2="134.756"><stop offset="0" stop-color="#82b6c9"/><stop offset=".051" stop-color="#77a9c3"/><stop offset=".175" stop-color="#6290b8"/><stop offset=".313" stop-color="#517caf"/><stop offset=".47" stop-color="#456ea9"/><stop offset=".664" stop-color="#3e65a5"/><stop offset="1" stop-color="#3c63a4"/></linearGradient><path fill="url(#e)" d="M749.75 167v186.99c-71.83-5.49-143.74-9.98-215.77-10.21-37.33-.11-74.66.92-111.98 1.95l-84.83 2.34a38.99 38.99 0 01-3.55-21.69c12.24-6.62 24.48-13.25 36.72-19.88 15.52-8.41 31.1-16.85 45.3-27.33 20.27-14.96 37.33-33.78 56.33-50.31 18.99-16.54 40.87-31.19 65.73-35.23 5.07-.82 10.29-1.22 15.06-3.13 18.88-7.58 25.35-36.26 45.58-38.4 4.3-.46 8.65.47 12.96.14 8.76-.67 16.23-6.32 23.14-11.75 7.59-5.96 15.18-11.92 22.76-17.88 2.58-2.02 5.32-4.11 8.57-4.53 8.53-1.11 13.56 8.91 20.08 14.52 3.86 3.33 8.7 5.24 13.38 7.25 17.59 7.55 34.15 17.22 50.52 27.15z"/><linearGradient id="f" gradientUnits="userSpaceOnUse" x1="384.033" y1="365.052" x2="384.033" y2="134.191"><stop offset="0" stop-color="#82b6c9"/><stop offset=".051" stop-color="#77a9c3"/><stop offset=".175" stop-color="#6290b8"/><stop offset=".313" stop-color="#517caf"/><stop offset=".47" stop-color="#456ea9"/><stop offset=".664" stop-color="#3e65a5"/><stop offset="1" stop-color="#3c63a4"/></linearGradient><path fill="url(#f)" d="M234.237 201.765c4.16-2.57 8.301-5.129 12.304-7.766 2.743-1.807 5.51-3.627 8.559-4.85 3.357-1.347 6.96-1.935 10.518-2.588 14.199-2.609 28.455-6.6 41.059-13.809 12.914-7.386 19.679-18.374 29.317-29.133 2.579-2.879 5.037-5.94 8.214-8.143 5.217-3.616 11.513-4.158 17.102-6.834 8.281-3.965 12.937-7.021 21.596-2.355 8.963 4.829 16.625 11.754 24.81 17.728 15.541 11.343 33.034 19.671 50.412 27.93l15.765 7.493c30.562 14.526 61.141 29.06 90.917 45.136 14.452 7.803 29.257 16.469 38.242 30.217 4.664 7.137 7.519 15.315 11.97 22.587 17.517 28.623 55.686 37.974 76.461 64.328l-227.041 9.647c-24.055 1.022-48.268 2.037-72.113-1.297-16.28-2.277-32.223-6.561-48.483-8.973-19.132-2.838-38.544-3.064-57.884-3.22a8771.641 8771.641 0 00-209.377.81c11.675-5.325 23.696-10.897 32.301-20.416 8.824-9.762 13.236-22.799 21.606-32.953 7.644-9.272 16.867-14.297 27.568-18.814 10.477-4.422 19.095-12.408 26.629-20.736 8.25-9.12 15.552-19.9 25.228-27.608 7.528-6.001 15.961-11.216 24.32-16.381z"/><linearGradient id="g" gradientUnits="userSpaceOnUse" x1="217.84" y1="344.71" x2="217.84" y2="179.565"><stop offset="0" stop-color="#82b6c9"/><stop offset=".051" stop-color="#77a9c3"/><stop offset=".175" stop-color="#6290b8"/><stop offset=".313" stop-color="#517caf"/><stop offset=".47" stop-color="#456ea9"/><stop offset=".664" stop-color="#3e65a5"/><stop offset="1" stop-color="#3c63a4"/></linearGradient><path fill="url(#g)" d="M435.93 337.573c-57.04 11.71-115.52 4.885-173.42 2.506-55.83-2.31-111.71-.439-167.55 1.444L-.25 344.71V231.721c.56.162 1.11.358 1.66.566 4.31 1.674 8.55 4.608 13.04 3.892 3.07-.497 5.73-2.645 8.14-4.896 8.53-7.957 15.59-17.842 24.09-25.845 8.49-8.003 19.16-14.204 30.05-12.726-.97-3.626 2.1-7.16 5.27-8.13 3.18-.97 6.57-.404 9.77-1.224 4.58-1.189 8.44-5.127 13.11-5.693 2.41-.3 4.83.346 7.17 1.086 7.64 2.402 15.05 5.786 22.04 10.082 8.651 5.317 13.103 7.884 23.056 6.51 9.666-1.334 19.363-.156 28.062 4.47 3.044 1.619 5.884 3.589 8.716 5.555 21.556 14.962 42.686 32.031 66.329 43.399 17.98 8.645 41.124-5.486 54.566 13.512 2.29 3.234 4.06 6.929 6.54 9.966 3.24 3.996 7.52 6.617 11.72 9.181l12.63 7.691c29.361 17.899 58.861 35.857 90.221 48.456z"/><path fill="#3C63A4" d="M749.75 327.6V500h-750V324.04c77.77-17.91 158.91-16.33 238.55-10.87 93.28 6.41 186.87 17.92 279.95 8.66 49.14-4.89 98.18-15.56 147.42-12.03 28.61 2.05 56.56 8.84 84.08 17.8z"/><g fill="#2C4A7E"><path d="M749.75 368.87V500h-750V384.77c114.49-41.97 244.09-41.13 362.56-9.09 42.68 11.55 85.6 27.09 129.75 24.2 45.63-2.99 87.65-25.44 132.65-33.49 41.29-7.38 83.1-2.42 125.04 2.48z"/><path d="M423.458 364.886c-1.763-3.442-2.03-7.968-1.219-11.984.281-1.389.718-2.803 1.57-3.696.852-.893 2.215-1.064 2.978-.039.754 1.011.648 2.634.586 4.051a31.79 31.79 0 00.071 3.941c.173 2.156.838 4.663 2.433 5.165.016.005.032.006.047.01.163-10.41.915-20.741 3.108-30.893.446-2.066 1.593-4.613 3.579-4.334 1.67.235 2.409 2.344 2.649 4.111.798 5.862-.038 11.804-.62 17.687-.709 7.16-1.035 14.345-1.116 21.542a7.455 7.455 0 011.456.021c.514.056 1.04.153 1.544.034 1.462-.347 1.917-2.187 1.965-3.689a27.233 27.233 0 00-.758-7.307c-.364-1.496-1.214-3.795.331-4.976.482-.368 1.135-.443 1.734-.353 4.49.673 3.244 8.942 3.091 12.064-.115 2.353-.442 4.784-1.697 6.778-1.596 2.537-4.708 4.041-7.68 3.68.091 12.204.794 24.431 1.5 36.62a84.716 84.716 0 00-8.882.447c.547-11.042.189-22.174-.06-33.28-.678-.072-1.342-.329-1.927-.689-.848-.521-1.555-1.237-2.254-1.946-.945-.958-1.954-2.065-1.952-3.41 0-.296.055-.601.217-.849.388-.594 1.235-.673 1.93-.531 1.603.327 2.864 1.42 3.89 2.738a540.578 540.578 0 01-.079-6.233c-2.505-.011-5.007-1.891-6.435-4.68zm-170.467-41.035c1.959-3.825 2.256-8.855 1.354-13.317-.312-1.544-.798-3.115-1.745-4.108-.947-.993-2.461-1.182-3.31-.044-.837 1.124-.72 2.927-.651 4.502a35.344 35.344 0 01-.079 4.379c-.193 2.395-.932 5.181-2.704 5.74-.017.005-.035.006-.053.011-.182-11.568-1.017-23.048-3.454-34.33-.496-2.296-1.77-5.127-3.978-4.816-1.856.261-2.676 2.605-2.944 4.568-.886 6.514.042 13.118.689 19.654.788 7.957 1.15 15.941 1.24 23.938a8.329 8.329 0 00-1.618.023c-.572.062-1.156.17-1.715.037-1.625-.385-2.13-2.431-2.183-4.099a30.283 30.283 0 01.842-8.12c.405-1.662 1.349-4.217-.368-5.53-.535-.409-1.261-.492-1.927-.393-4.99.748-3.605 9.937-3.435 13.406.128 2.614.492 5.316 1.885 7.532 1.773 2.819 5.232 4.491 8.534 4.089-.101 13.562-.883 27.149-1.667 40.694a94.33 94.33 0 019.871.497c-.608-12.27-.21-24.641.067-36.982.753-.08 1.492-.366 2.141-.766.942-.579 1.728-1.375 2.505-2.162 1.05-1.065 2.171-2.294 2.169-3.79-.001-.329-.062-.668-.242-.943-.431-.66-1.372-.747-2.145-.59-1.781.363-3.182 1.578-4.323 3.042.041-2.311.073-4.62.087-6.926 2.789-.008 5.57-2.097 7.157-5.196zm155.58 32.198c-.152 1.37-.435 2.754-1.058 3.977-.597 1.172-2.496 3.418-2.558.725-.188-8.223.185-16.443.609-24.654.568-.096 1.126-.232 1.652-.463 1.828-.803 3.064-2.627 3.559-4.561.495-1.934.337-3.976-.001-5.944-.108-.632-.242-1.279-.601-1.811-.358-.531-.996-.923-1.627-.809-.619.112-1.073.68-1.252 1.283-.179.603-.139 1.246-.122 1.874.04 1.427-.052 2.894-.634 4.198a5.127 5.127 0 01-.831 1.292c-.013-2.718-.144-5.405-.081-8.171a413.297 413.297 0 00-.09-22.453c-.078-2.51.358-5.199-.329-7.639-.383-1.359-1.19-2.667-2.447-3.31-1.831-.936-3.541.072-4.623 1.582-.746 1.041-1.051 2.33-1.255 3.595-.524 3.252-.485 6.565-.446 9.859.112 9.301.408 18.599.589 27.899.092 4.702.155 9.405.15 14.107a427.236 427.236 0 01-.06 6.886c-.013.78.226 5.368-1.911 3.676-.464-.367-.649-.976-.788-1.551-1.698-7.037-.133-14.483-1.265-21.634-.283-1.791-.823-3.694-2.26-4.799-.497-.382-1.118-.654-1.741-.577-.787.096-1.423.737-1.736 1.465-.313.728-.361 1.539-.397 2.332-.388 8.582-.004 17.245 1.446 25.698.097.564.2 1.13.311 1.694a3.642 3.642 0 01-.894-.654c-1.041-1.049-1.478-2.55-1.724-4.007a21.288 21.288 0 01-.259-4.784c.029-.495.074-1.005-.078-1.477-.152-.472-.561-.903-1.057-.907-.393-.003-.744.256-.988.564-.605.763-.704 1.798-.762 2.77-.124 2.069-.171 4.164.234 6.197.406 2.033 1.299 4.019 2.818 5.43 1.142 1.06 2.667 1.752 4.209 1.816.181.39.373.774.593 1.146 1.662 2.815 4.455 4.96 5.529 8.048.646 1.857.598 3.874.543 5.84l-.29 10.374c-.044 1.576-.298 3.307-.059 4.866.153.999.014 2.583.705 3.374.607.694 1.669.688 2.589.626l4.813-.322c.272-.018.566-.045.77-.227.267-.238.279-.645.266-1.003-.139-3.855-.818-7.672-1.075-11.521-.229-3.425-.564-8.672 1.858-11.361 3.329-3.698 7.084-7.6 8.876-12.292 1.758-4.603 2.132-9.744.954-14.536-.292-1.187-.691-2.385-1.476-3.321-.786-.937-2.032-1.568-3.231-1.331-1.289.255-2.225 1.444-2.596 2.704-.371 1.26-.291 2.602-.256 3.916a52.479 52.479 0 01-.128 5.306c-.021.334-.05.667-.087 1zm-148.087-37.817c1.37-.193 2.16 1.564 2.468 2.988 3.992 18.479 1.064 37.812 2.003 56.76a58.528 58.528 0 00-6.124-.309c.857-14.799 1.713-29.679.255-44.411-.401-4.056-.978-8.153-.428-12.195.165-1.217.675-2.672 1.826-2.833zm-233.279 4.442c1.505-.212 2.373 1.718 2.711 3.283 4.385 20.302 1.169 41.541 2.2 62.359a64.059 64.059 0 00-6.728-.339c.942-16.258 1.882-32.606.28-48.791-.441-4.456-1.074-8.957-.47-13.397.182-1.339.742-2.937 2.007-3.115zm157.188 26.139a21.353 21.353 0 018.458-1.589c3.189.057 6.318.828 9.414 1.594a23.17 23.17 0 0010.676 7.888c-7.172 2.999-15.302 1.494-23.056.934-5.707-.412-11.437-.279-17.157-.147l-19.53.452 2.962-6.641c.382-.857.814-1.77 1.63-2.233.833-.473 1.876-.364 2.778-.688 1.949-.699 2.831-3.219 4.821-3.79 2.181-.625 4.535 1.428 6.659.633-.205 1.812 1.387 3.408 3.124 3.963 1.737.555 3.609.364 5.432.391.574.008 1.152.039 1.719-.055.721-.119 1.393-.435 2.07-.712zm457.35 8.749c1.247-.155 2.565-.3 3.716.205.721.316 1.311.863 1.935 1.344 2.794 2.157 6.329 3.057 9.755 3.906-6.305 3.967-14.327 3.625-21.453 5.798-3.597 1.096-6.984 2.844-10.637 3.733-2.529.615-5.139.807-7.735.996l-11.694.854a58.26 58.26 0 005.76-13.318l8.309-5.049c.508-.309 1.071-.629 1.659-.544.411.059.765.31 1.102.553l2.622 1.896c1.804 1.304 3.884 2.677 6.074 2.277.802-.147 1.54-.525 2.292-.841 2.617-1.1 5.476-1.46 8.295-1.81z"/></g><linearGradient id="h" gradientUnits="userSpaceOnUse" x1="305.368" y1="1.304" x2="305.368" y2="56.447"><stop offset="0" stop-color="#296fe2" stop-opacity="0"/><stop offset=".19" stop-color="#4081dc" stop-opacity=".19"/><stop offset=".537" stop-color="#649ed1" stop-opacity=".537"/><stop offset=".819" stop-color="#7ab0cb" stop-opacity=".819"/><stop offset="1" stop-color="#82b6c9"/></linearGradient><path opacity=".2" fill="url(#h)" d="M557.255.51c-29.952 9.43-60.359 17.2-91.569 19.23-6.238.4-12.634.61-18.436 2.97-2.673 1.09-5.178 2.63-7.941 3.48-5.05 1.56-10.812.6-15.1-2.52-1.436-1.04-2.891-2.37-4.654-2.32-2.01.06-3.465 1.86-4.862 3.32-7.475 7.85-21.07 8.63-29.378 1.68-1.634 5.11-7.218 8.07-12.535 8.28-5.317.2-10.446-1.76-15.417-3.7-5.02 10.72-17.615 17.21-29.15 15.04-3.198-.6-6.386-1.8-9.604-1.31-4.376.65-7.674 4.21-11.545 6.39-6.555 3.71-15.228 3.16-21.288-1.33-3.812-2.83-7.03-7.24-11.753-7.59-7.545-.56-12.06 9.47-19.545 10.62-11.535 1.77-21.367-17.99-31.001-11.34-1.891 1.31-3.06 3.4-4.495 5.21-7.287 9.26-22.872 10-30.992 1.48-2.178-2.28-3.931-5.14-6.743-6.56-7.297-3.69-17.248 4.27-23.793-.66-3.297-2.48-4.05-7.25-7.01-10.13-7.436-7.24-20.625 2.52-29.883-2.09-3.267-1.62-5.446-4.78-7.911-7.47C98.185 5.46 74.392 6.03 53.48.51h503.775z"/><g fill="#162D56"><path d="M749.75 397.22V500h-750v-47.14c63.23 8.57 128.72 6.2 190.72-7.03 30.43-6.5 60.71-15.64 92.17-15.13 29.24.47 57.26 9.27 86.24 12.47 68.34 7.55 135.14-16.13 201.85-30.32 58.26-12.39 118.83-17.65 179.02-15.63z"/><path d="M99.835 358.402c4.127-8.06 4.754-18.657 2.853-28.061-.657-3.253-1.68-6.563-3.676-8.655-1.996-2.092-5.186-2.491-6.974-.092-1.765 2.367-1.518 6.167-1.371 9.485.136 3.075.08 6.164-.166 9.227-.405 5.047-1.963 10.918-5.697 12.095-.037.012-.074.013-.111.024-.382-24.376-2.142-48.565-7.278-72.337-1.045-4.837-3.73-10.802-8.381-10.148-3.91.55-5.64 5.489-6.203 9.626-1.867 13.726.089 27.641 1.452 41.414 1.66 16.766 2.423 33.59 2.613 50.44a17.566 17.566 0 00-3.409.049c-1.205.132-2.435.358-3.615.079-3.423-.811-4.487-5.121-4.6-8.638a63.745 63.745 0 011.775-17.109c.853-3.502 2.843-8.886-.774-11.652-1.127-.862-2.656-1.038-4.06-.827-10.514 1.577-7.597 20.939-7.238 28.248.27 5.509 1.036 11.202 3.973 15.87 3.737 5.939 11.024 9.463 17.983 8.616-.212 28.576-1.86 57.206-3.513 85.747 6.946-.016 13.89.334 20.799 1.048-1.281-25.855-.442-51.921.141-77.925 1.587-.169 3.143-.771 4.512-1.613 1.985-1.221 3.642-2.897 5.278-4.556 2.212-2.244 4.575-4.834 4.57-7.985-.001-.694-.13-1.407-.509-1.988-.908-1.392-2.891-1.575-4.519-1.243-3.753.764-6.705 3.326-9.109 6.41.087-4.869.154-9.734.184-14.594 5.868-.024 11.727-4.425 15.07-10.955zm585.647-61.915c-.468 4.207-1.335 8.455-3.248 12.213-1.833 3.598-7.665 10.494-7.854 2.227-.578-25.251.567-50.494 1.871-75.707 1.742-.296 3.457-.713 5.072-1.423 5.612-2.466 9.408-8.066 10.929-14.005 1.521-5.938 1.033-12.21-.003-18.252-.333-1.94-.744-3.929-1.845-5.56-1.101-1.632-3.059-2.835-4.995-2.484-1.901.345-3.294 2.087-3.844 3.938-.55 1.852-.428 3.825-.374 5.756.122 4.381-.16 8.888-1.947 12.89a15.797 15.797 0 01-2.551 3.967c-.041-8.346-.442-16.597-.247-25.091a1280.392 1280.392 0 00-.275-68.945c-.239-7.708 1.1-15.966-1.01-23.457-1.175-4.174-3.654-8.19-7.515-10.164-5.624-2.876-10.874.222-14.197 4.859-2.292 3.197-3.228 7.156-3.853 11.039-1.608 9.986-1.491 20.159-1.369 30.273.344 28.562 1.253 57.113 1.81 85.672.282 14.438.476 28.879.461 43.32-.007 7.049-.063 14.097-.184 21.145-.041 2.395.693 16.485-5.869 11.288-1.423-1.127-1.992-2.998-2.418-4.763-5.214-21.61-.41-44.474-3.884-66.431-.87-5.499-2.527-11.345-6.941-14.737-1.527-1.174-3.435-2.007-5.347-1.772-2.417.296-4.369 2.263-5.331 4.5s-1.11 4.727-1.22 7.16c-1.191 26.353-.011 52.955 4.44 78.913.297 1.732.613 3.47.956 5.203a11.171 11.171 0 01-2.744-2.008c-3.198-3.22-4.54-7.829-5.294-12.305a65.399 65.399 0 01-.794-14.69c.09-1.521.228-3.086-.239-4.536-.467-1.451-1.722-2.773-3.245-2.785-1.206-.01-2.284.786-3.033 1.731-1.858 2.342-2.162 5.521-2.341 8.506-.381 6.354-.526 12.787.72 19.029 1.246 6.242 3.99 12.342 8.654 16.674 3.506 3.257 8.191 5.379 12.925 5.577a39.87 39.87 0 001.821 3.52c5.105 8.645 13.681 15.232 16.978 24.715 1.983 5.703 1.837 11.896 1.668 17.932l-.891 31.856c-.135 4.838-.915 10.155-.18 14.943.471 3.067.044 7.933 2.166 10.361 1.864 2.132 5.125 2.112 7.95 1.924l14.779-.988c.836-.056 1.739-.139 2.365-.696.821-.731.857-1.98.817-3.079-.428-11.839-2.511-23.559-3.302-35.379-.704-10.517-1.732-26.628 5.704-34.888 10.222-11.354 21.755-23.337 27.257-37.746 5.397-14.136 6.547-29.922 2.93-44.636-.896-3.645-2.121-7.322-4.534-10.198-2.412-2.876-6.24-4.815-9.922-4.087-3.958.783-6.831 4.434-7.971 8.304-1.14 3.871-.892 7.991-.786 12.025.144 5.434.012 10.874-.394 16.295a94.114 94.114 0 01-.282 3.057zM580.261 197.44c3.917-.709 6.212 5.988 7.117 11.412 11.753 70.376 3.713 143.878 6.735 215.985a126.473 126.473 0 00-17.536-1.282c2.193-56.288 4.38-112.886-.054-168.961-1.221-15.437-2.942-31.035-1.44-46.403.453-4.632 1.886-10.155 5.178-10.751zm-25.931 59.711c3.92-.542 6.182 4.387 7.061 8.384 11.406 51.859 3.006 106.122 5.672 159.303a169.865 169.865 0 00-17.528-.859c2.469-41.536 4.935-83.299.776-124.645-1.145-11.382-2.789-22.881-1.211-34.225.475-3.421 1.935-7.503 5.23-7.958z"/><path d="M131.32 457.219c-.891.22-2.16.544-3.663.999a58.75 58.75 0 00-2.42.76c-.857.277-1.754.592-2.676.934-.915.359-1.877.694-2.823 1.114-.955.396-1.912.835-2.871 1.268-.941.474-1.889.93-2.799 1.431-.923.473-1.788 1.023-2.638 1.525a42.128 42.128 0 00-2.373 1.581l-1.069.775c-.341.255-.656.524-.965.77-.247.203-.486.392-.714.582.123-.409.202-.831.233-1.256l.043-.043 1.779-1.762c.625-.629 1.323-1.254 2.007-1.935.705-.661 1.438-1.337 2.187-2.02.738-.695 1.521-1.363 2.292-2.044.78-.67 1.548-1.357 2.337-1.993l2.299-1.892c.767-.586 1.482-1.191 2.19-1.726l1.987-1.523 3.012-2.255c.733-.542 1.146-.866 1.146-.866s-.48.206-1.31.591c-.417.191-.916.434-1.478.734a33.32 33.32 0 00-1.879 1.026c-.686.383-1.413.824-2.169 1.312a51.175 51.175 0 00-2.351 1.577c-.788.585-1.629 1.158-2.424 1.816-.814.634-1.61 1.316-2.415 1.988-.774.708-1.558 1.403-2.297 2.124-.758.701-1.441 1.454-2.127 2.156a51.797 51.797 0 00-1.881 2.116c-.363.423-.699.833-1.02 1.237a4.842 4.842 0 00-.088-.397 75.24 75.24 0 001.291-1.584c.569-.722 1.176-1.454 1.759-2.224l1.781-2.322 1.737-2.355c.58-.772 1.113-1.56 1.649-2.307a128.052 128.052 0 002.823-4.165c1.615-2.466 2.577-4.196 2.577-4.196s-1.395 1.405-3.315 3.641a127.9 127.9 0 00-3.217 3.869c-.569.722-1.178 1.453-1.758 2.225l-1.78 2.323-1.736 2.356c-.577.774-1.112 1.56-1.648 2.307-.244.339-.477.676-.705 1.008-.202-.432-.414-.861-.595-1.302l.917-1.688c.686-1.276 1.465-2.591 2.224-3.975a361.287 361.287 0 012.454-4.204c.828-1.436 1.723-2.862 2.6-4.299.894-1.426 1.769-2.865 2.682-4.248.898-1.393 1.79-2.759 2.662-4.076.898-1.298 1.726-2.583 2.56-3.768l2.338-3.35a265.055 265.055 0 012.005-2.816l1.56-2.165c.87-1.198 1.357-1.893 1.357-1.893s-.59.608-1.605 1.69a62.888 62.888 0 00-1.794 1.985l-1.088 1.236-1.169 1.401-1.263 1.531-1.31 1.672a120.386 120.386 0 00-2.754 3.669c-.912 1.304-1.891 2.627-2.797 4.032-.936 1.385-1.836 2.825-2.751 4.255-.868 1.459-1.754 2.908-2.574 4.365-.848 1.441-1.595 2.907-2.353 4.306a122.25 122.25 0 00-2.048 4.105c-.118.244-.232.484-.346.725-.164-.599-.316-1.203-.48-1.803.282-.785.578-1.588.862-2.416.488-1.323.999-2.687 1.53-4.068.513-1.388 1.09-2.776 1.648-4.172.576-1.388 1.131-2.785 1.733-4.137.586-1.359 1.17-2.693 1.745-3.98.603-1.274 1.142-2.528 1.705-3.693l1.573-3.292c.492-1.018.948-1.95 1.359-2.773l1.062-2.136c.594-1.182.922-1.868.922-1.868s-.443.614-1.198 1.706a51.64 51.64 0 00-1.321 1.994l-.795 1.24-.841 1.398-.906 1.526-.924 1.659a98.133 98.133 0 00-1.914 3.629c-.617 1.282-1.294 2.59-1.887 3.962-.624 1.358-1.205 2.762-1.801 4.159-.547 1.417-1.112 2.827-1.613 4.235-.531 1.398-.961 2.806-1.414 4.155-.082.263-.158.515-.238.775-.344-.851-.722-1.69-1.05-2.544l.423-2.083c.186-.957.397-1.936.626-2.934l.667-3.059c.495-2.066.986-4.206 1.557-6.36.527-2.167 1.172-4.336 1.791-6.512.673-2.158 1.297-4.335 2.056-6.427l.544-1.57c.17-.525.356-1.041.554-1.549l1.14-3.02c.379-.99.815-1.936 1.194-2.884.386-.944.764-1.869 1.187-2.744l1.187-2.572c.377-.834.804-1.609 1.18-2.37l1.107-2.173 1.072-1.921.941-1.694c.293-.522.596-.981.851-1.408l1.621-2.677-1.887 2.5c-.294.403-.638.838-.978 1.334l-1.074 1.624-1.22 1.853c-.409.665-.81 1.381-1.245 2.12-.423.745-.899 1.504-1.328 2.322l-1.312 2.545c-.465.868-.885 1.785-1.315 2.724-.43.938-.879 1.894-1.293 2.883-.801 1.989-1.679 4.028-2.394 6.164-.785 2.112-1.437 4.305-2.132 6.483-.608 2.204-1.241 4.401-1.754 6.59-.57 2.176-.977 4.352-1.434 6.442-.385 2.033-.765 3.997-1.056 5.877l-.017-.081c-.002-.18-.006-.357-.007-.538l-.051-3.13c.008-2.125-.003-4.32.059-6.548.016-2.23.147-4.489.251-6.749.161-2.255.269-4.517.529-6.727l.17-1.653c.045-.55.108-1.095.184-1.635l.418-3.201c.142-1.05.35-2.072.502-3.081.16-1.008.316-1.995.527-2.943.212-1.039.264-3.156 1.615-3.433.241-.049.505-.034.714-.164.647-.401.055-1.537.538-2.126.807.197 1.697-.535 1.66-1.364-.025-.556-.388-1.124-.167-1.635.251-.581 1.072-.659 1.471-1.15.727-.894-.413-2.285.027-3.35.319-.774 1.407-1.177 1.402-2.014-.004-.691-.795-1.185-.805-1.877-.004-.273.118-.53.188-.793.125-.473.06-1.027-.287-1.373-.347-.345-1.006-.368-1.29.03-.136.191-.172.441-.319.624-.471.585-1.59.038-2.095.595-.449.494 0 1.435-.496 1.882-.345.311-.914.151-1.325.369-.368.195-.522.651-.517 1.067.005.416.135.82.184 1.233.028.235.023.493-.122.68-.19.247-.545.28-.816.432-.476.267-.65.893-.561 1.432.089.539.384 1.018.654 1.493.112.197.222.44.113.639-.065.118-.191.186-.294.273-.535.457-.334 1.321-.032 1.956.629 1.321.427 2.187.08 3.541l-.694 2.778c-.253.951-.452 1.941-.656 2.953-.204 1.012-.422 2.045-.598 3.103-.324 2.119-.711 4.305-.918 6.548-.28 2.236-.412 4.52-.589 6.799-.086 2.284-.199 4.568-.197 6.817-.056 2.249.046 4.46.08 6.6l.081 1.834a53.68 53.68 0 01-.302 2.03 71.046 71.046 0 00-.027-2.245c-.021-.95-.046-1.921-.09-2.908-.129-1.971-.205-4.013-.44-6.076-.176-2.068-.477-4.155-.738-6.248-.352-2.079-.666-4.164-1.093-6.195-.367-2.043-.884-4.021-1.329-5.945-.243-.957-.496-1.895-.751-2.811a61.186 61.186 0 00-.778-2.674l-.781-2.518c-.262-.81-.549-1.581-.806-2.327-.265-.743-.505-1.46-.757-2.133l-.749-1.9-.662-1.668c-.211-.512-.425-.976-.607-1.397l-1.181-2.636.882 2.749c.298.867.616 1.935.987 3.156l.593 1.943.614 2.166c.442 1.504.86 3.15 1.311 4.888.236.866.446 1.763.651 2.683l.656 2.806c.4 1.915.82 3.892 1.182 5.913.405 2.013.695 4.079 1.028 6.137.276 2.066.593 4.129.785 6.173.239 2.039.404 4.053.573 6.002l.182 2.876c.068.94.125 1.86.149 2.757l.102 2.613c.024.583.032 1.148.039 1.703-.032.121-.067.242-.1.363a95.275 95.275 0 00-.062-.988 137.362 137.362 0 00-.331-4.364c-.164-1.51-.287-3.077-.519-4.658-.196-1.585-.462-3.187-.713-4.792-.312-1.595-.596-3.195-.969-4.753-.324-1.568-.775-3.081-1.171-4.553-.208-.733-.44-1.448-.666-2.146a37.26 37.26 0 00-.698-2.035l-.71-1.909c-.235-.614-.507-1.191-.743-1.752-.245-.558-.468-1.098-.701-1.601l-.709-1.41a506.39 506.39 0 00-.626-1.235c-.2-.378-.408-.713-.583-1.021-.716-1.226-1.137-1.914-1.137-1.914s.302.755.85 2.055c.134.326.298.68.449 1.078l.485 1.287.554 1.458.558 1.636c.406 1.133.772 2.385 1.173 3.702.211.655.388 1.34.569 2.04.174.702.395 1.406.569 2.137.351 1.461.703 2.971 1.021 4.516.35 1.537.61 3.121.903 4.697.266 1.582.547 3.162.759 4.729.236 1.563.446 3.107.651 4.6l.544 4.318.438 3.595c-.016.047-.029.095-.045.142-.046-.168-.088-.332-.136-.502-.314-1.055-.608-2.157-.978-3.252-.351-1.102-.738-2.21-1.115-3.322-.408-1.1-.813-2.202-1.231-3.277-.401-1.083-.859-2.123-1.272-3.141a127.725 127.725 0 00-2.451-5.481c-1.499-3.178-2.643-5.234-2.643-5.234s.16.566.464 1.547c.305.98.754 2.375 1.324 4.035.284.83.588 1.73.929 2.675.337.946.676 1.948 1.058 2.973l2.309 6.445c.335.94.674 1.877.995 2.81-.114-.24-.222-.475-.34-.717-.53-1.091-1.056-2.229-1.629-3.366l-1.721-3.456-1.77-3.431c-.576-1.136-1.185-2.232-1.752-3.304a221.817 221.817 0 00-3.218-5.801c-1.926-3.374-3.337-5.559-3.337-5.559s.929 2.43 2.514 5.977a223.934 223.934 0 002.779 6.024c.53 1.091 1.055 2.23 1.63 3.366l1.722 3.455 1.771 3.43c.579 1.134 1.186 2.231 1.753 3.303.566 1.073 1.14 2.096 1.678 3.069.127.233.251.45.376.675l-.474-.533c-.419-.464-.84-.948-1.263-1.448l-1.312-1.518c-.869-1.048-1.777-2.122-2.662-3.243-.908-1.103-1.772-2.268-2.65-3.421-.848-1.175-1.724-2.331-2.505-3.525l-.596-.883a17.546 17.546 0 01-.581-.879l-1.11-1.745c-.362-.575-.679-1.162-1.02-1.721-.336-.561-.665-1.11-.951-1.664-.323-.598-1.168-1.66-.617-2.352.098-.123.234-.224.284-.374.153-.463-.604-.778-.609-1.266.478-.235.615-.96.256-1.353-.241-.263-.653-.393-.754-.735-.115-.389.257-.765.251-1.17-.01-.738-1.142-.954-1.364-1.658-.161-.512.208-1.157-.139-1.567-.286-.338-.878-.256-1.167-.592-.114-.133-.16-.309-.234-.467-.133-.284-.393-.53-.705-.557-.312-.027-.646.232-.622.545.012.15.097.288.1.438.009.481-.766.672-.785 1.153-.017.427.59.706.53 1.129-.042.295-.387.45-.5.725-.101.247.011.535.184.737.174.202.403.348.597.531.11.104.214.233.22.384.008.2-.153.362-.224.548-.124.327.048.706.313.935.265.228.607.342.935.465.136.051.29.125.318.268.017.085-.018.17-.032.255-.075.444.378.787.788.975.852.391 1.109.9 1.494 1.708l.801 1.651c.266.572.575 1.14.891 1.721.316.581.633 1.179.981 1.771.712 1.175 1.42 2.409 2.24 3.597.781 1.214 1.655 2.391 2.505 3.585.896 1.159 1.779 2.328 2.705 3.433.897 1.129 1.856 2.174 2.752 3.212.925 1.012 1.814 1.995 2.694 2.891l1.274 1.313 1.136 1.12.037.064c-.137.353-.271.707-.415 1.056l-.248.601a53.605 53.605 0 00-1.812-1.956c-.761-.747-1.525-1.545-2.366-2.286-.821-.763-1.689-1.495-2.547-2.242-.885-.712-1.765-1.43-2.654-2.106-.873-.697-1.781-1.316-2.637-1.945a99.69 99.69 0 00-4.827-3.216 92.42 92.42 0 00-3.516-2.112c-.862-.49-1.362-.758-1.362-.758s.423.379 1.179 1.02 1.844 1.543 3.164 2.602l2.132 1.705 2.381 1.891 2.528 2.034c.868.683 1.722 1.407 2.585 2.121.856.72 1.724 1.428 2.542 2.164.831.723 1.64 1.44 2.418 2.145.755.725 1.52 1.393 2.201 2.071l.155.152a5.536 5.536 0 00-.073.315l-.036-.02c-.707-.379-1.45-.787-2.232-1.18-.781-.394-1.578-.823-2.406-1.22l-2.503-1.22-2.527-1.17c-.83-.394-1.666-.738-2.465-1.095-1.604-.7-3.116-1.322-4.424-1.829-2.61-1.028-4.412-1.584-4.412-1.584s1.569 1.045 4.015 2.418c1.22.694 2.657 1.473 4.213 2.274.781.394 1.577.824 2.407 1.219l2.503 1.219 2.527 1.169c.831.391 1.667.738 2.466 1.094.798.358 1.583.676 2.324.984l.463.19c.112 1.75 1.144 3.443 2.692 4.288 1.882 1.027 4.382.75 6.018-.635a5.263 5.263 0 001.083-1.274l.057-.037a53.005 53.005 0 011.789-1.138c.654-.419 1.386-.834 2.148-1.288.76-.458 1.597-.883 2.434-1.365.854-.456 1.741-.915 2.649-1.373.898-.474 1.838-.906 2.769-1.353.936-.439 1.867-.89 2.802-1.297l2.734-1.225 4.884-2.14c1.432-.63 2.621-1.174 3.451-1.564.83-.39 1.299-.628 1.299-.628s-.519.107-1.411.323zm360.999-37.165c1.338.067 3.247.176 5.529.408 1.142.104 2.378.237 3.681.412 1.305.158 2.679.358 4.095.591 1.412.259 2.884.469 4.356.808 1.479.301 2.973.663 4.468 1.016 1.481.416 2.967.805 4.411 1.269 1.455.421 2.847.967 4.207 1.449 1.348.52 2.642 1.043 3.842 1.603l1.748.812c.56.271 1.086.568 1.598.833.411.221.806.426 1.186.635a8.523 8.523 0 01-.685-1.735l-.073-.05-3.041-2.028c-1.072-.727-2.246-1.428-3.417-2.212a313.366 313.366 0 00-3.698-2.284c-1.251-.789-2.56-1.529-3.856-2.289-1.306-.743-2.597-1.512-3.905-2.203l-3.823-2.068c-1.263-.626-2.457-1.293-3.62-1.861l-3.273-1.627-4.946-2.391c-1.201-.572-1.884-.921-1.884-.921s.745.161 2.043.482c.65.157 1.434.365 2.323.638.895.257 1.901.56 2.979.946 1.09.358 2.255.785 3.474 1.274a75.403 75.403 0 013.81 1.603c1.293.617 2.658 1.204 3.981 1.925 1.344.681 2.675 1.436 4.016 2.174 1.306.798 2.625 1.575 3.884 2.402 1.281.792 2.472 1.681 3.651 2.495a76.52 76.52 0 013.286 2.506c.639.504 1.234.999 1.807 1.487a7.85 7.85 0 01.014-.594 107.266 107.266 0 01-2.292-1.91c-1.017-.876-2.091-1.756-3.141-2.696a7888.03 7888.03 0 00-3.201-2.83l-3.147-2.89c-1.046-.944-2.03-1.924-3.007-2.845a186.66 186.66 0 01-5.209-5.18c-3.003-3.083-4.866-5.293-4.866-5.293s2.391 1.624 5.768 4.292a185.994 185.994 0 015.69 4.645c1.017.876 2.093 1.753 3.14 2.697l3.2 2.831 3.146 2.891c1.043.947 2.029 1.925 3.006 2.846.444.418.872.835 1.292 1.248.168-.676.353-1.349.489-2.032l-1.785-2.163c-1.339-1.637-2.824-3.303-4.298-5.075a534.971 534.971 0 00-4.691-5.339c-1.588-1.826-3.268-3.62-4.926-5.435-1.68-1.794-3.335-3.612-5.03-5.339a599.651 599.651 0 00-4.953-5.097c-1.649-1.61-3.195-3.219-4.72-4.684l-4.286-4.148a390.822 390.822 0 00-3.66-3.475l-2.84-2.667c-1.582-1.473-2.474-2.334-2.474-2.334s1.015.706 2.772 1.974c.882.63 1.937 1.415 3.125 2.344l1.904 1.468 2.067 1.681 2.238 1.841 2.345 2.029c1.615 1.388 3.269 2.907 4.971 4.489 1.671 1.613 3.443 3.237 5.134 4.996 1.728 1.723 3.42 3.535 5.131 5.329 1.652 1.849 3.326 3.677 4.907 5.536 1.617 1.828 3.098 3.72 4.574 5.514 1.442 1.821 2.824 3.592 4.082 5.31.238.317.468.629.698.942.068-.905.117-1.812.185-2.718-.624-1.046-1.271-2.114-1.909-3.222a439.545 439.545 0 00-3.329-5.402c-1.123-1.846-2.337-3.674-3.526-5.518-1.214-1.828-2.399-3.675-3.639-5.444a512.142 512.142 0 00-3.612-5.216c-1.22-1.657-2.343-3.303-3.474-4.815l-3.174-4.278a333.71 333.71 0 00-2.722-3.594l-2.118-2.764c-1.182-1.529-1.843-2.419-1.843-2.419s.807.756 2.192 2.11a73.46 73.46 0 012.45 2.489l1.485 1.554 1.596 1.768 1.725 1.934 1.788 2.12c1.233 1.451 2.479 3.027 3.756 4.666 1.242 1.665 2.578 3.35 3.811 5.151 1.274 1.772 2.498 3.621 3.743 5.456 1.179 1.878 2.383 3.74 3.494 5.619 1.151 1.854 2.161 3.752 3.186 5.559.191.353.37.695.557 1.044.256-1.315.563-2.624.794-3.939l-1.188-2.867a133.653 133.653 0 00-1.716-4.029l-1.81-4.197c-1.286-2.823-2.588-5.751-4.008-8.679-1.36-2.957-2.891-5.886-4.385-8.832-1.568-2.905-3.069-5.85-4.742-8.636l-1.218-2.099c-.39-.705-.8-1.393-1.226-2.065l-2.478-4.009c-.819-1.313-1.709-2.547-2.517-3.799-.818-1.246-1.617-2.465-2.468-3.601l-2.419-3.354c-.774-1.09-1.601-2.08-2.353-3.066l-2.193-2.805-2.073-2.453-1.822-2.164c-.566-.667-1.128-1.24-1.613-1.779l-3.07-3.384 3.403 3.056c.533.496 1.148 1.022 1.773 1.638l1.993 2.028 2.265 2.314c.771.839 1.547 1.753 2.376 2.69.814.949 1.709 1.904 2.552 2.957l2.591 3.281c.908 1.114 1.767 2.311 2.645 3.536.878 1.224 1.789 2.468 2.658 3.77 1.704 2.626 3.531 5.303 5.152 8.164 1.715 2.807 3.261 5.768 4.866 8.696 1.486 2.988 3.007 5.96 4.354 8.954 1.424 2.96 2.616 5.964 3.855 8.831 1.119 2.806 2.213 5.514 3.155 8.126l.001-.122c-.047-.258-.091-.512-.14-.772l-.801-4.5c-.605-3.042-1.202-6.191-1.913-9.366-.646-3.19-1.465-6.391-2.245-9.601-.86-3.187-1.647-6.397-2.637-9.492l-.705-2.322a39.884 39.884 0 00-.721-2.291l-1.493-4.47c-.497-1.465-1.08-2.871-1.579-4.275-.51-1.4-1.009-2.77-1.577-4.07-.594-1.43-1.259-4.449-3.273-4.469-.359-.004-.733.092-1.069-.035-1.039-.394-.508-2.187-1.364-2.896-1.101.508-2.581-.292-2.76-1.491-.12-.804.243-1.719-.217-2.389-.522-.762-1.721-.644-2.43-1.237-1.291-1.079-.047-3.39-.974-4.793-.674-1.021-2.345-1.293-2.572-2.495-.187-.992.808-1.921.629-2.914-.071-.392-.317-.726-.491-1.085-.311-.643-.372-1.455.028-2.047.4-.592 1.339-.809 1.857-.317.248.236.37.584.631.805.838.707 2.289-.389 3.168.267.781.583.401 2.057 1.236 2.559.581.35 1.352-.038 2.001.158.581.176.931.787 1.039 1.385.109.598.036 1.213.081 1.819.026.344.105.713.364.941.342.3.859.249 1.291.392.757.25 1.181 1.098 1.203 1.896.023.797-.267 1.565-.521 2.322-.105.313-.195.693.017.947.126.151.326.213.497.31.894.505.848 1.799.592 2.794-.533 2.068-.002 3.253.875 5.097l1.77 3.787c.629 1.292 1.19 2.655 1.764 4.048.574 1.393 1.176 2.813 1.723 4.279 1.057 2.947 2.222 5.971 3.144 9.128 1.026 3.126 1.853 6.361 2.744 9.579.762 3.249 1.561 6.49 2.187 9.714.708 3.207 1.18 6.405 1.728 9.48l.396 2.651a78.17 78.17 0 001 2.824c-.21-1.053-.405-2.124-.588-3.225-.236-1.367-.47-2.766-.683-4.193-.366-2.86-.827-5.808-1.066-8.829-.325-3.013-.476-6.088-.687-9.159-.077-3.077-.208-6.153-.164-9.183-.045-3.03.144-6.009.243-8.89.081-1.44.182-2.854.291-4.238.101-1.384.212-2.737.368-4.049l.416-3.826c.149-1.234.345-2.419.505-3.56.172-1.139.315-2.233.489-3.269l.543-2.932.483-2.574c.16-.793.336-1.517.479-2.172l.956-4.107-.496 4.185c-.185 1.326-.343 2.945-.533 4.798l-.308 2.95-.275 3.275c-.214 2.279-.353 4.755-.513 7.37a88.625 88.625 0 00-.184 4.026l-.156 4.204c-.038 2.856-.089 5.806-.042 8.803-.018 2.998.144 6.039.241 9.081.182 3.038.304 6.082.599 9.065.227 2.989.553 5.921.855 8.761l.543 4.172c.165 1.366.34 2.7.557 3.992l.584 3.774c.128.843.275 1.653.419 2.451.08.165.164.327.245.492-.064-.471-.126-.949-.187-1.434a199.3 199.3 0 01-.744-6.347c-.186-2.21-.448-4.489-.558-6.819-.161-2.326-.228-4.696-.317-7.065.001-2.373-.038-4.745.061-7.082.026-2.337.25-4.632.406-6.852.094-1.109.226-2.198.355-3.262.128-1.064.251-2.105.432-3.111l.484-2.934c.165-.945.394-1.848.575-2.718.195-.868.364-1.704.558-2.491l.622-2.218.551-1.944c.181-.597.386-1.136.551-1.626.684-1.957 1.095-3.061 1.095-3.061s-.222 1.166-.644 3.182c-.102.505-.237 1.058-.342 1.67l-.335 1.979-.387 2.245-.342 2.501c-.265 1.737-.44 3.633-.647 5.632-.12.997-.182 2.029-.246 3.083-.054 1.055-.173 2.125-.218 3.221a204.957 204.957 0 00-.202 6.757c-.073 2.301-.002 4.643.018 6.983.061 2.341.1 4.684.233 6.989.099 2.305.228 4.577.352 6.774l.427 6.34.377 5.274c.036.063.069.128.104.19.019-.254.034-.5.055-.757.155-1.6.269-3.26.494-4.933.195-1.677.44-3.373.669-5.072.278-1.69.55-3.382.849-5.04.273-1.664.638-3.282.945-4.857.656-3.14 1.337-6.055 1.981-8.539 1.261-4.973 2.326-8.239 2.326-8.239s-.071.856-.232 2.346c-.164 1.49-.417 3.615-.771 6.151-.175 1.269-.359 2.644-.583 4.092-.219 1.449-.425 2.981-.686 4.556l-1.509 9.88c-.218 1.441-.442 2.878-.642 4.305.096-.375.186-.743.288-1.123.454-1.711.891-3.489 1.395-5.279l1.501-5.432 1.579-5.41c.509-1.788 1.075-3.529 1.588-5.224a323.445 323.445 0 012.992-9.212c1.817-5.373 3.229-8.898 3.229-8.898s-.653 3.741-1.933 9.267a323.657 323.657 0 01-2.3 9.408c-.455 1.711-.888 3.49-1.396 5.278l-1.503 5.432-1.58 5.41c-.513 1.787-1.076 3.529-1.59 5.223-.511 1.695-1.049 3.322-1.547 4.867-.117.369-.234.715-.351 1.073l.531-.896c.471-.781.939-1.593 1.406-2.428l1.456-2.542c.953-1.745 1.954-3.538 2.909-5.391.994-1.834 1.907-3.744 2.842-5.643.887-1.92 1.82-3.822 2.605-5.751l.608-1.431c.212-.471.406-.946.587-1.422l1.103-2.811c.358-.925.649-1.855.981-2.751.324-.898.642-1.777.898-2.649.296-.947 1.209-2.705.227-3.542-.175-.149-.398-.256-.511-.457-.349-.621.649-1.284.519-1.984-.75-.203-1.149-1.205-.744-1.867.272-.445.826-.745.875-1.264.056-.589-.581-1.024-.686-1.607-.191-1.061 1.37-1.686 1.492-2.757.088-.779-.621-1.6-.239-2.284.316-.565 1.187-.612 1.507-1.174.126-.222.142-.487.205-.735.112-.444.415-.868.855-.995.44-.126.991.152 1.043.607.025.218-.059.439-.021.655.121.692 1.285.749 1.448 1.433.144.608-.648 1.176-.444 1.766.142.411.68.537.919.9.214.326.134.769-.058 1.108-.192.338-.481.611-.707.927-.129.18-.241.394-.207.612.045.288.32.475.474.723.27.434.129 1.025-.188 1.426s-.774.66-1.21.927c-.181.111-.38.26-.381.472 0 .126.073.239.117.357.232.616-.323 1.233-.857 1.617-1.112.798-1.338 1.599-1.664 2.865l-.686 2.589c-.222.894-.506 1.794-.796 2.715-.29.921-.578 1.866-.911 2.812-.692 1.883-1.362 3.849-2.206 5.78-.78 1.958-1.704 3.889-2.588 5.837-.961 1.911-1.9 3.833-2.917 5.674-.97 1.868-2.052 3.633-3.046 5.371-1.042 1.708-2.042 3.365-3.053 4.895l-1.459 2.237-1.315 1.922a4.098 4.098 0 01-.035.102c.295.467.586.937.89 1.397.174.263.35.527.523.792a78.724 78.724 0 012.051-3.309c.882-1.283 1.754-2.64 2.751-3.936.963-1.323 2.003-2.615 3.024-3.924 1.069-1.268 2.13-2.542 3.214-3.759 1.057-1.243 2.185-2.384 3.236-3.524a144.953 144.953 0 016.019-5.957 135.366 135.366 0 014.449-4.009c1.098-.943 1.741-1.467 1.741-1.467s-.501.661-1.404 1.791a229.479 229.479 0 01-3.807 4.613l-2.578 3.038-2.883 3.375-3.055 3.62c-1.053 1.221-2.074 2.497-3.112 3.761-1.025 1.271-2.072 2.528-3.039 3.81a240.047 240.047 0 00-2.865 3.748c-.879 1.25-1.789 2.421-2.576 3.583l-.18.261c.068.142.133.285.193.43l.047-.039c.908-.741 1.858-1.533 2.868-2.314 1.009-.783 2.032-1.62 3.107-2.42l3.246-2.447 3.294-2.382c1.079-.796 2.182-1.524 3.227-2.258a167.933 167.933 0 015.83-3.856c3.453-2.202 5.879-3.502 5.879-3.502s-1.957 1.936-5.079 4.587a169.664 169.664 0 01-5.403 4.435c-1.01.782-2.03 1.622-3.108 2.418l-3.247 2.446-3.295 2.381c-1.082.792-2.182 1.523-3.228 2.257-1.044.736-2.08 1.41-3.056 2.059l-.611.402c.329 2.539-.677 5.253-2.66 6.897-2.41 1.997-6.07 2.299-8.802.771a7.702 7.702 0 01-1.907-1.523l-.091-.037a78.215 78.215 0 00-2.882-1.131c-1.054-.417-2.219-.809-3.438-1.246-1.217-.444-2.535-.82-3.869-1.276a197.723 197.723 0 00-4.179-1.228c-1.419-.428-2.887-.784-4.345-1.166-1.464-.367-2.923-.754-4.377-1.076l-4.261-.992-7.596-1.702c-2.228-.503-4.084-.95-5.382-1.277-1.298-.327-2.037-.536-2.037-.536s.766.017 2.104.078zm215.163-15.123c-.806.02-1.958.057-3.335.162-.689.046-1.435.107-2.222.193-.788.076-1.618.175-2.475.294-.854.135-1.744.239-2.635.421-.895.159-1.8.354-2.706.544-.898.228-1.799.44-2.675.698-.883.231-1.729.539-2.555.809-.819.293-1.607.588-2.338.907l-1.065.463c-.342.155-.663.326-.975.478-.251.127-.492.244-.724.364.183-.328.331-.675.439-1.034l.045-.029 1.862-1.175c.656-.422 1.374-.826 2.091-1.28.731-.434 1.489-.875 2.261-1.32.765-.456 1.565-.882 2.356-1.32.797-.428 1.587-.871 2.385-1.268l2.333-1.188c.77-.358 1.499-.741 2.208-1.066l1.995-.931 3.014-1.365c.732-.326 1.148-.526 1.148-.526s-.451.086-1.237.259c-.394.085-.869.198-1.408.349-.543.141-1.153.309-1.808.525-.661.199-1.37.439-2.111.715-.746.264-1.521.575-2.318.908-.788.352-1.618.685-2.426 1.099-.819.39-1.632.824-2.451 1.248-.799.461-1.604.909-2.375 1.387-.784.458-1.514.974-2.236 1.447-.711.49-1.391.975-2.017 1.459a37.7 37.7 0 00-1.11.868 4.274 4.274 0 000-.358c.46-.357.931-.723 1.409-1.115.626-.512 1.286-1.026 1.932-1.576l1.97-1.656 1.938-1.693c.644-.553 1.251-1.128 1.854-1.668a111.692 111.692 0 003.214-3.04c1.855-1.811 3.01-3.114 3.01-3.114s-1.464.941-3.538 2.497a110.163 110.163 0 00-3.496 2.711c-.625.512-1.287 1.024-1.932 1.576l-1.969 1.656-1.938 1.693c-.643.555-1.251 1.128-1.853 1.668-.274.245-.538.49-.797.732-.091-.41-.192-.818-.264-1.231l1.107-1.275c.831-.965 1.75-1.946 2.664-2.991a322.128 322.128 0 012.905-3.144c.984-1.075 2.023-2.131 3.048-3.198 1.039-1.055 2.062-2.125 3.109-3.139a374.632 374.632 0 013.059-2.994c1.018-.944 1.973-1.89 2.913-2.749l2.643-2.433c.822-.751 1.579-1.435 2.256-2.037a5965.2 5965.2 0 011.75-1.563c.975-.863 1.525-1.368 1.525-1.368s-.622.41-1.699 1.147c-.54.366-1.188.822-1.917 1.364l-1.168.855-1.27.981-1.375 1.075-1.443 1.187c-.993.811-2.012 1.701-3.061 2.627-1.031.946-2.122 1.897-3.167 2.931-1.067 1.011-2.113 2.077-3.17 3.132-1.023 1.088-2.058 2.164-3.038 3.259-1.001 1.076-1.922 2.193-2.837 3.251a106.923 106.923 0 00-2.538 3.136c-.148.187-.291.372-.435.557-.027-.546-.043-1.093-.07-1.639.392-.621.797-1.254 1.198-1.911.67-1.043 1.367-2.118 2.086-3.202.704-1.094 1.463-2.177 2.206-3.269.758-1.082 1.5-2.177 2.273-3.223a299.97 299.97 0 012.254-3.086c.759-.979 1.461-1.954 2.165-2.847l1.975-2.528c.615-.781 1.184-1.495 1.693-2.123l1.317-1.632c.735-.902 1.146-1.429 1.146-1.429s-.497.443-1.352 1.237c-.43.395-.942.884-1.513 1.462l-.918.913-.988 1.041-1.068 1.139-1.109 1.249a85.2 85.2 0 00-2.332 2.753c-.773.983-1.603 1.978-2.372 3.044-.794 1.048-1.559 2.142-2.336 3.229-.738 1.113-1.491 2.216-2.188 3.331-.721 1.099-1.358 2.227-2.002 3.299l-.351.62c-.134-.796-.299-1.588-.418-2.384l.759-1.708c.342-.786.709-1.587 1.094-2.4l1.154-2.5c.817-1.68 1.645-3.424 2.544-5.165.864-1.76 1.829-3.5 2.774-5.251.988-1.725 1.937-3.476 2.985-5.128l.765-1.245c.245-.419.503-.826.77-1.225l1.552-2.376c.513-.778 1.068-1.508 1.573-2.249.511-.738 1.011-1.46 1.54-2.131l1.507-1.983c.482-.645.996-1.228 1.463-1.811l1.363-1.656 1.285-1.446 1.13-1.276c.351-.393.698-.73.998-1.047l1.9-1.991-2.095 1.789c-.328.291-.707.598-1.093.96l-1.231 1.191-1.399 1.359c-.477.493-.958 1.032-1.471 1.584-.505.559-1.058 1.12-1.581 1.742l-1.609 1.936c-.564.657-1.099 1.365-1.646 2.089-.547.724-1.114 1.459-1.657 2.23-1.065 1.556-2.206 3.14-3.225 4.838-1.075 1.664-2.051 3.424-3.061 5.162-.94 1.777-1.901 3.543-2.757 5.326-.902 1.76-1.665 3.551-2.454 5.259-.716 1.672-1.416 3.287-2.022 4.845l.001-.073.096-.463.55-2.697c.41-1.823.817-3.71 1.293-5.611.437-1.911.979-3.826 1.497-5.747.566-1.906 1.088-3.827 1.731-5.676l.459-1.387c.143-.464.3-.92.468-1.369l.967-2.669c.321-.875.694-1.712 1.015-2.55.328-.835.65-1.653 1.011-2.427.379-.852.825-2.66 2.039-2.641.216.003.44.067.644-.005.632-.221.339-1.309.865-1.723.655.322 1.559-.137 1.684-.856.084-.482-.12-1.039.167-1.435.326-.451 1.046-.362 1.482-.708.794-.63.079-2.04.659-2.872.421-.604 1.432-.743 1.586-1.463.128-.594-.458-1.169-.335-1.764.049-.235.202-.432.312-.646.197-.383.246-.87.014-1.233-.232-.362-.794-.507-1.113-.219-.153.138-.231.346-.392.475-.515.413-1.372-.269-1.911.113-.479.339-.273 1.233-.783 1.522-.355.202-.813-.043-1.207.065-.353.097-.572.46-.647.818s-.04.73-.076 1.094c-.021.207-.074.428-.234.561-.21.176-.521.137-.783.216-.46.139-.727.643-.753 1.123-.026.48.137.947.279 1.406.059.19.107.42-.025.57-.078.089-.199.123-.304.179-.546.291-.538 1.071-.399 1.673.289 1.253-.048 1.959-.604 3.056l-1.123 2.254c-.398.768-.757 1.58-1.124 2.411-.367.83-.75 1.676-1.102 2.55-.681 1.758-1.428 3.562-2.031 5.448-.665 1.866-1.212 3.802-1.797 5.726-.508 1.945-1.038 3.884-1.464 5.816-.475 1.921-.807 3.838-1.184 5.682l-.279 1.59a45.666 45.666 0 01-.645 1.685c.143-.631.276-1.273.403-1.933.163-.82.325-1.659.474-2.514.264-1.716.586-3.485.775-5.3.241-1.809.379-3.659.552-5.505.093-1.852.219-3.702.238-5.527.073-1.824.004-3.62-.012-5.357-.027-.868-.066-1.721-.111-2.556a54.505 54.505 0 00-.161-2.444l-.193-2.31c-.071-.745-.171-1.462-.25-2.151-.086-.689-.156-1.35-.245-1.976l-.283-1.773-.252-1.557c-.084-.48-.179-.918-.256-1.315l-.514-2.487.235 2.527c.091.801.162 1.778.249 2.897l.141 1.781.116 1.976c.094 1.376.141 2.868.198 4.445.038.788.048 1.599.05 2.427l.03 2.534c-.02 1.72-.034 3.497-.107 5.301-.034 1.805-.178 3.634-.282 5.465-.155 1.827-.275 3.657-.497 5.449-.182 1.796-.423 3.557-.647 5.262l-.39 2.504a51.57 51.57 0 01-.396 2.395l-.409 2.263c-.09.505-.191.991-.289 1.469l-.155.292.135-.86c.196-1.207.373-2.486.544-3.81.146-1.328.338-2.696.439-4.098.132-1.398.208-2.824.298-4.249.035-1.429.095-2.856.07-4.265.02-1.408-.08-2.793-.141-4.132a53.826 53.826 0 00-.165-1.969c-.061-.643-.119-1.271-.213-1.88l-.247-1.774c-.085-.572-.209-1.118-.305-1.646-.105-.526-.193-1.031-.298-1.508l-.341-1.345-.303-1.179c-.1-.362-.215-.69-.307-.988-.383-1.188-.613-1.86-.613-1.86s.116.705.339 1.926c.054.306.127.641.181 1.01l.172 1.197.199 1.357.168 1.511c.134 1.05.21 2.194.305 3.401.057.602.079 1.225.102 1.86.016.636.072 1.282.083 1.943.024 1.321.04 2.684.02 4.072.009 1.387-.069 2.796-.117 4.204-.072 1.409-.131 2.819-.246 4.205-.094 1.387-.206 2.752-.314 4.074l-.352 3.811-.307 3.17c-.022.037-.043.076-.066.113l-.021-.457c-.069-.966-.113-1.967-.223-2.978-.092-1.013-.214-2.038-.326-3.064-.142-1.022-.28-2.045-.435-3.048-.139-1.006-.334-1.986-.496-2.938a113.29 113.29 0 00-1.064-5.171c-.684-3.014-1.276-4.996-1.276-4.996s.03.517.104 1.416c.076.9.196 2.183.371 3.716.086.767.177 1.597.29 2.473.11.876.211 1.801.344 2.753l.759 5.972c.109.871.223 1.74.321 2.602-.052-.227-.101-.45-.156-.68-.248-1.037-.484-2.114-.76-3.199l-.822-3.294-.869-3.282c-.279-1.084-.594-2.141-.877-3.169a197.59 197.59 0 00-1.662-5.592c-1.013-3.263-1.81-5.407-1.81-5.407s.336 2.262 1.024 5.609a195.84 195.84 0 001.243 5.7c.248 1.037.482 2.115.761 3.199l.823 3.293.87 3.281c.282 1.084.595 2.141.878 3.169.282 1.029.581 2.016.858 2.954.065.224.13.434.195.651l-.306-.548a52.956 52.956 0 01-.81-1.483l-.838-1.552c-.547-1.065-1.123-2.16-1.67-3.29-.571-1.119-1.092-2.283-1.626-3.441-.505-1.17-1.038-2.329-1.482-3.502l-.344-.871c-.12-.287-.23-.576-.332-.865l-.622-1.709c-.202-.562-.363-1.127-.549-1.671-.182-.546-.36-1.08-.5-1.609-.164-.575-.688-1.647-.083-2.136.108-.087.244-.148.315-.267.219-.369-.371-.783-.283-1.203.454-.111.71-.708.476-1.113-.157-.272-.486-.461-.508-.774-.025-.356.365-.608.437-.957.131-.636-.799-1.036-.856-1.682-.041-.47.398-.954.178-1.371-.181-.345-.705-.386-.889-.73-.073-.136-.078-.295-.112-.446-.06-.269-.237-.529-.5-.612-.263-.083-.599.077-.638.35-.018.131.029.265.003.395-.084.415-.785.432-.893.841-.096.364.372.718.241 1.07-.092.245-.418.313-.567.528-.134.193-.092.461.018.668.111.207.28.375.412.569.075.11.139.241.116.372-.031.173-.2.281-.296.428-.169.257-.093.615.091.862s.456.409.715.577c.107.069.225.163.222.29-.002.076-.047.143-.076.213-.149.367.175.747.492.986.657.497.781.983.959 1.75l.374 1.57c.12.541.278 1.088.438 1.647.161.559.32 1.132.506 1.707.388 1.144.762 2.338 1.241 3.513.44 1.191.967 2.367 1.47 3.554.55 1.165 1.086 2.336 1.671 3.461.556 1.139 1.181 2.219 1.753 3.28.602 1.044 1.179 2.057 1.765 2.994l.845 1.369.763 1.177.019.062c-.185.277-.367.555-.557.828-.109.156-.219.312-.327.469a47.166 47.166 0 00-1.185-2.023c-.512-.786-1.016-1.616-1.597-2.411-.56-.811-1.167-1.605-1.761-2.408-.625-.779-1.244-1.563-1.879-2.312-.617-.764-1.28-1.468-1.895-2.171a87.03 87.03 0 00-3.534-3.677 80.86 80.86 0 00-2.618-2.481c-.647-.585-1.026-.91-1.026-.91s.291.406.818 1.1c.528.694 1.291 1.675 2.223 2.835l1.507 1.868 1.685 2.076 1.784 2.226c.615.751 1.211 1.535 1.817 2.311.598.781 1.209 1.553 1.772 2.34.576.778 1.135 1.548 1.669 2.3.51.766 1.041 1.485 1.497 2.196l.104.16a5.483 5.483 0 00-.123.256l-.027-.024c-.535-.46-1.095-.951-1.692-1.436-.596-.487-1.199-1.006-1.835-1.504l-1.918-1.522-1.947-1.484c-.638-.496-1.291-.95-1.909-1.408a101.912 101.912 0 00-3.452-2.41c-2.046-1.378-3.487-2.198-3.487-2.198s1.149 1.195 2.989 2.839c.915.828 2.002 1.769 3.186 2.752.596.486 1.198 1.007 1.835 1.503l1.918 1.522 1.948 1.484c.639.493 1.291.95 1.909 1.408.617.459 1.231.881 1.809 1.286l.362.251c-.236 1.524.328 3.173 1.497 4.193 1.421 1.239 3.62 1.476 5.288.597a4.62 4.62 0 001.171-.888l.055-.021a46.806 46.806 0 011.752-.637c.641-.236 1.348-.453 2.089-.699.74-.249 1.539-.455 2.349-.71.82-.229 1.669-.455 2.535-.676.861-.236 1.75-.429 2.634-.637.887-.199 1.772-.41 2.652-.581l2.58-.533 4.599-.91c1.349-.269 2.473-.51 3.26-.688.786-.178 1.235-.292 1.235-.292s-.459-.006-1.266.011zm-446.59 35.689l-22.575-1.447 7.7-9.33c3.493-4.233 7.166-8.605 12.168-10.864 5.199-2.348 11.832-1.891 16.042 1.959 2.652-2.036 6.415-.077 9.136 1.867 4.746 3.392 9.508 6.796 13.763 10.787l-17.191 1.229c-4.414.316-9.114.736-12.606 3.454-.926.721-1.764 1.602-2.852 2.041-1.122.452-2.377.382-3.585.304zm57.23-13.384c-.228.773.586 1.491 1.377 1.641.792.15 1.622-.026 2.408.156.938.218 1.683.911 2.366 1.59a82.046 82.046 0 016.953 7.847l-9.622.729c-1.747.132-3.498.265-5.249.192-4.498-.187-8.819-1.717-13.059-3.23l-1.109-.396c2.038-.054 2.768-2.636 3.948-4.298 2.522-3.549 7.78-3.113 11.987-4.231z"/></g><path fill="#2C4A7E" d="M287.055 359.451c-.395.02-.96.052-1.634.121-.338.031-.703.07-1.088.122a28.97 28.97 0 00-1.21.175c-.417.077-.852.139-1.288.239-.437.089-.879.196-1.321.3-.438.123-.877.238-1.304.375-.43.124-.842.286-1.243.428-.398.154-.781.308-1.136.474l-.517.24c-.166.08-.321.168-.472.246-.121.066-.238.126-.35.188.086-.163.154-.335.202-.513l.022-.015.899-.599c.317-.215.664-.422 1.01-.654.353-.222.72-.448 1.093-.675.37-.233.757-.452 1.14-.677.386-.219.768-.447 1.154-.651l1.13-.611c.373-.185.726-.382 1.07-.55l.967-.481 1.462-.707c.355-.169.557-.272.557-.272s-.22.048-.604.142c-.192.046-.424.108-.687.189a13.64 13.64 0 00-.88.28 16.95 16.95 0 00-1.027.377c-.363.139-.739.301-1.126.474-.382.182-.785.356-1.177.569-.397.201-.791.424-1.187.643-.386.236-.776.466-1.148.71-.379.234-.73.497-1.079.737-.343.249-.67.495-.971.741-.189.149-.365.295-.534.44a2.584 2.584 0 00-.004-.176c.221-.181.448-.366.677-.564.301-.259.618-.519.928-.797l.946-.836.93-.854c.309-.279.6-.569.889-.841a54.804 54.804 0 001.539-1.531c.888-.911 1.438-1.564 1.438-1.564s-.707.48-1.705 1.269c-.501.392-1.076.86-1.682 1.373-.301.259-.619.518-.928.797l-.946.837-.93.854c-.308.28-.6.569-.888.841-.131.123-.258.247-.382.369-.05-.2-.104-.399-.144-.601l.528-.639c.396-.484.835-.976 1.27-1.5.447-.515.91-1.044 1.387-1.578.469-.54.966-1.07 1.456-1.606.496-.53.986-1.068 1.487-1.578.495-.516.986-1.021 1.464-1.507.488-.476.944-.951 1.395-1.385l1.267-1.226c.394-.379.757-.724 1.082-1.027l.84-.788c.468-.435.731-.69.731-.69s-.3.209-.819.583c-.261.186-.573.418-.924.693l-.563.434-.611.497-.661.544-.693.6c-.477.41-.966.859-1.469 1.327-.494.477-1.018.957-1.518 1.477-.511.509-1.011 1.045-1.517 1.575-.488.546-.983 1.087-1.45 1.636-.478.54-.916 1.1-1.352 1.63a51.533 51.533 0 00-1.412 1.848c-.02-.267-.035-.536-.055-.803.184-.309.376-.625.564-.952.316-.52.645-1.056.984-1.597.332-.546.691-1.086 1.042-1.631.359-.54.709-1.086 1.076-1.609.36-.527.718-1.044 1.068-1.542.361-.49.693-.976 1.027-1.423l.938-1.264c.292-.391.562-.748.805-1.062l.626-.817c.349-.452.545-.715.545-.715s-.238.224-.648.624c-.206.199-.451.445-.724.736l-.439.459-.472.523-.51.572-.528.626c-.365.429-.733.895-1.11 1.379-.367.492-.762.99-1.126 1.522-.376.524-.738 1.07-1.106 1.613-.349.555-.704 1.105-1.033 1.661-.34.548-.639 1.109-.942 1.643l-.165.309c-.076-.389-.166-.775-.235-1.164l.351-.848c.158-.39.328-.787.507-1.191l.535-1.24c.38-.834.765-1.7 1.185-2.565.402-.874.854-1.74 1.296-2.61.463-.859.907-1.729 1.401-2.552l.36-.62c.115-.208.237-.412.363-.61l.732-1.185c.242-.388.505-.753.744-1.123.242-.368.478-.729.729-1.064l.715-.992c.229-.322.473-.615.696-.906l.648-.829.613-.725.539-.64c.167-.197.333-.366.477-.526l.908-1-1.006.903c-.158.147-.339.302-.524.484l-.589.599-.67.684c-.228.248-.457.518-.702.795-.241.281-.505.563-.754.874l-.766.97c-.268.329-.522.683-.782 1.045-.26.362-.529.73-.786 1.114-.504.776-1.044 1.567-1.523 2.413-.507.83-.964 1.705-1.438 2.57-.439.883-.889 1.762-1.287 2.647-.421.875-.773 1.763-1.139 2.61-.331.829-.654 1.63-.932 2.402v-.036l.041-.228.237-1.33c.179-.899.355-1.83.565-2.768.191-.943.433-1.889.663-2.838.254-.942.487-1.891.779-2.806l.208-.686c.064-.229.136-.455.213-.677l.441-1.321c.147-.433.319-.849.467-1.263.151-.414.298-.819.466-1.203.175-.423.372-1.315.967-1.321.106-.001.217.027.316-.01.307-.116.15-.646.403-.856.325.15.763-.086.816-.441.035-.238-.072-.508.064-.706.154-.225.509-.19.718-.366.382-.319.014-1.002.288-1.417.199-.302.693-.382.76-.737.055-.293-.239-.568-.186-.861.021-.116.094-.214.145-.32.092-.19.11-.43-.008-.605s-.396-.239-.549-.094c-.073.07-.109.173-.186.238-.248.209-.676-.115-.936.079-.231.172-.118.608-.365.756-.172.103-.4-.011-.591.047-.172.052-.275.233-.307.409s-.01.358-.024.538c-.008.102-.031.211-.108.278-.101.089-.254.074-.382.116-.224.074-.349.325-.356.56-.007.236.079.463.154.686.031.093.057.205-.005.28-.037.045-.096.063-.147.092-.264.149-.251.532-.175.826.157.611 0 .961-.259 1.506l-.523 1.119c-.186.382-.352.785-.522 1.196-.17.412-.347.831-.509 1.265-.312.871-.657 1.765-.929 2.698-.303.924-.548 1.88-.811 2.831-.225.96-.462 1.918-.646 2.871-.209.948-.349 1.893-.511 2.802l-.117.784c-.093.28-.192.558-.296.835a54.466 54.466 0 00.376-2.192c.108-.845.244-1.717.315-2.61.096-.891.141-1.799.203-2.707.023-.909.062-1.819.049-2.714.013-.896-.043-1.776-.072-2.628a57.49 57.49 0 00-.086-1.253c-.03-.409-.063-.809-.109-1.197l-.123-1.131c-.044-.365-.102-.715-.149-1.052-.051-.337-.093-.66-.145-.966l-.161-.867-.143-.761c-.047-.234-.099-.448-.142-.642l-.283-1.214.147 1.237c.055.392.101.87.158 1.418l.091.872.081.968c.063.674.104 1.405.152 2.178.028.386.043.784.055 1.19l.046 1.243c.011.844.026 1.716.013 2.602.005.886-.043 1.785-.071 2.684-.054.898-.09 1.798-.177 2.679-.067.883-.164 1.75-.253 2.59l-.161 1.233c-.049.404-.1.798-.164 1.18l-.173 1.115c-.038.249-.081.489-.124.724l-.072.145.055-.424c.081-.594.152-1.224.22-1.876.055-.653.132-1.327.165-2.016.048-.687.067-1.388.094-2.088 0-.701.011-1.402-.018-2.093-.008-.691-.074-1.369-.12-2.025-.028-.328-.067-.65-.105-.964-.038-.315-.074-.622-.128-.92l-.143-.867c-.049-.28-.116-.546-.17-.804-.058-.257-.107-.504-.165-.736l-.184-.656-.163-.575c-.054-.177-.114-.336-.163-.481-.202-.578-.324-.905-.324-.905s.066.345.19.94c.03.149.07.313.101.493l.099.585.114.663.101.739c.078.513.13 1.074.191 1.665.036.295.054.6.073.911.016.312.051.628.065.952.028.648.053 1.316.06 1.997.021.68 0 1.372-.005 2.064-.018.692-.029 1.384-.069 2.066-.029.681-.067 1.353-.104 2.002l-.126 1.874-.111 1.559-.031.056-.016-.224c-.046-.473-.08-.964-.146-1.458-.058-.496-.13-.997-.198-1.499-.082-.5-.163-1-.251-1.49-.081-.492-.188-.97-.279-1.435a54.492 54.492 0 00-.586-2.524c-.373-1.47-.688-2.435-.688-2.435s.021.253.069.694c.048.44.123 1.068.228 1.818.052.375.106.781.172 1.21.065.428.125.881.203 1.346l.446 2.92c.064.426.131.851.19 1.272-.029-.111-.055-.22-.085-.332-.134-.506-.263-1.031-.412-1.56l-.444-1.606-.467-1.599c-.15-.528-.318-1.043-.469-1.544-.309-1-.612-1.93-.884-2.723-.537-1.588-.954-2.63-.954-2.63s.193 1.106.571 2.739c.186.818.417 1.767.68 2.781.135.506.263 1.031.413 1.56l.444 1.606.467 1.599c.152.528.318 1.043.47 1.544.151.501.31.982.457 1.439l.104.317-.157-.265a28.612 28.612 0 01-.416-.718l-.43-.751c-.282-.516-.578-1.046-.86-1.593-.294-.542-.564-1.107-.84-1.668-.262-.568-.538-1.13-.77-1.7l-.18-.423a7.922 7.922 0 01-.174-.42l-.326-.831c-.106-.273-.192-.548-.29-.813-.096-.265-.19-.525-.265-.783-.088-.28-.358-.799-.067-1.047.052-.044.118-.076.151-.135.103-.184-.192-.38-.154-.587.222-.06.34-.356.22-.552-.08-.131-.244-.22-.259-.373-.017-.174.172-.303.203-.475.057-.314-.405-.498-.441-.815-.026-.23.184-.473.071-.675-.093-.167-.351-.181-.445-.347-.037-.066-.042-.144-.06-.217-.033-.131-.123-.257-.253-.294-.13-.037-.293.045-.308.18-.007.064.017.13.006.194-.036.205-.38.222-.428.424-.043.18.192.348.131.522-.042.121-.201.159-.272.266-.063.096-.04.227.017.328.057.1.142.181.209.274.038.053.071.116.061.181-.013.085-.095.14-.14.214-.08.128-.038.303.055.422.094.119.229.195.358.274.053.033.112.077.112.14 0 .037-.021.071-.035.105-.069.182.095.365.253.478.329.236.395.473.492.847l.203.765c.066.264.15.53.235.802.086.272.171.552.269.831.204.556.402 1.137.652 1.708.231.579.504 1.15.765 1.725.284.565.562 1.133.862 1.677.287.552.607 1.074.9 1.587.308.505.604.995.902 1.447l.431.661.389.568.01.03c-.087.138-.173.277-.263.413l-.155.234a22.62 22.62 0 00-.606-.978c-.261-.379-.518-.78-.813-1.163-.285-.391-.592-.773-.894-1.16-.316-.375-.63-.751-.95-1.111-.312-.367-.646-.704-.956-1.042a43.108 43.108 0 00-1.779-1.761 39.893 39.893 0 00-1.315-1.185c-.324-.279-.514-.434-.514-.434s.148.195.415.529.654.806 1.125 1.363l.762.898.852.997.903 1.07c.311.361.613.738.92 1.112.303.376.612.747.898 1.126.292.375.576.746.847 1.108.26.37.529.716.761 1.059l.053.077c-.02.042-.039.084-.057.127l-.014-.011c-.268-.219-.549-.453-.848-.684-.298-.231-.6-.479-.919-.715l-.959-.723-.974-.704c-.319-.235-.645-.45-.954-.667a51.207 51.207 0 00-1.723-1.14c-1.021-.651-1.738-1.035-1.738-1.035s.578.572 1.501 1.356c.459.395 1.004.843 1.597 1.311.298.231.6.479.919.715l.96.723.974.704c.32.234.645.45.954.667.309.217.615.417.903.609l.181.119c-.097.75.2 1.553.786 2.038.712.59 1.794.68 2.601.228.212-.118.401-.272.564-.45l.027-.011c.251-.105.537-.217.852-.334.311-.123.656-.239 1.016-.368.36-.131.749-.242 1.144-.377.4-.122.813-.244 1.235-.363.42-.127.853-.232 1.284-.345.433-.109.864-.223 1.294-.318l1.259-.293 2.245-.503a75.534 75.534 0 001.591-.377c.384-.097.602-.159.602-.159s-.222.001-.618.019z"/></svg>