<svg xmlns="http://www.w3.org/2000/svg" xmlns:xlink="http://www.w3.org/1999/xlink" width="1400" height="1000"><defs><path id="a" d="M0 0h1400v1000H0z"/></defs><clipPath id="b"><use xlink:href="#a" overflow="visible"/></clipPath><g clip-path="url(#b)"><linearGradient id="c" gradientUnits="userSpaceOnUse" x1="700" y1="595.829" x2="700" y2="24.817"><stop offset=".005" stop-color="#ffedc5"/><stop offset="1" stop-color="#b3c9d5"/></linearGradient><path fill="url(#c)" d="M0 0h1400v651.2H0z"/><linearGradient id="d" gradientUnits="userSpaceOnUse" x1="444.265" y1="77.93" x2="444.265" y2="501.711"><stop offset="0" stop-color="#fffbd3"/><stop offset="1" stop-color="#fffcdd" stop-opacity="0"/></linearGradient><path fill="url(#d)" d="M937 370.7c-45.5 0-85.7 22.5-110.2 57-6-1.7-12.3-2.6-18.7-2.6-11.3 0-22 2.7-31.5 7.5-7.1-22.8-27.2-39.8-51.7-42.4v-.4c0-60.3-48.8-109.1-109.1-109.1-36.3 0-68.4 17.7-88.3 45-6.6-2-13.6-3-20.8-3-21.2 0-40.2 9-53.5 23.5-7-29.7-33.6-51.8-65.4-51.8-18.6 0-35.5 7.6-47.6 19.8-10.2-49.2-53.7-86.1-105.9-86.1-59.7 0-108.1 48.4-108.1 108.1 0 6.1.5 12.1 1.5 17.9C103.6 361.3 86 383.6 86 410v.1c-8.5.6-15.9 4.9-20.8 11.2-19.3-13.3-42.7-21.1-68-21.1-37.9 0-71.8 17.6-93.8 45v150.3c22 27.5 55.9 45 93.8 45 32 0 61.1-12.5 82.6-32.9 164.4 10.2 581.7-3.6 758.3-10.2 24.6 26.5 59.8 43.1 98.8 43.1 16.9 0 33.1-3.1 48.1-8.8V379.5c-14.9-5.7-31.1-8.8-48-8.8z"/><linearGradient id="e" gradientUnits="userSpaceOnUse" x1="1161.039" y1="-.212" x2="1161.039" y2="423.568"><stop offset="0" stop-color="#fffbd3"/><stop offset="1" stop-color="#fffcdd" stop-opacity="0"/></linearGradient><path fill="url(#e)" d="M1653.8 292.5c-45.5 0-85.7 22.5-110.2 57-6-1.7-12.3-2.6-18.7-2.6-11.3 0-22 2.7-31.5 7.5-7.1-22.8-27.2-39.8-51.7-42.4v-.4c0-60.3-48.8-109.1-109.1-109.1-36.3 0-68.4 17.7-88.3 45-6.6-2-13.6-3-20.8-3-21.2 0-40.2 9-53.5 23.5-7-29.7-33.6-51.8-65.4-51.8-18.6 0-35.5 7.6-47.6 19.8-10.2-49.2-53.7-86.1-105.9-86.1-59.7 0-108.1 48.4-108.1 108.1 0 6.1.5 12.1 1.5 17.9-24.1 7.2-41.7 29.5-41.7 55.9v.1c-8.5.6-15.9 4.9-20.8 11.2-19.3-13.3-42.7-21.1-68-21.1-37.9 0-71.8 17.6-93.8 45v150.3c22 27.5 55.9 45 93.8 45 32 0 61.1-12.5 82.6-32.9 164.4 10.2 581.7-3.6 758.3-10.2 24.6 26.5 59.8 43.1 98.8 43.1 16.9 0 33.1-3.1 48.1-8.8V301.3c-14.9-5.7-31.1-8.8-48-8.8z"/><linearGradient id="f" gradientUnits="userSpaceOnUse" x1="700" y1="544.505" x2="700" y2="1276.693"><stop offset="0" stop-color="#ffd99c"/><stop offset="1" stop-color="#f7954e"/></linearGradient><path fill="url(#f)" d="M0 622.2h1400V1153H0z"/><linearGradient id="g" gradientUnits="userSpaceOnUse" x1="841.554" y1="678.034" x2="862.553" y2="412.547"><stop offset="0" stop-color="#ffd99c"/><stop offset="1" stop-color="#f7954e"/></linearGradient><path fill="url(#g)" d="M1515 646.8l-207.3-3.8-590.8-10.8-115.5-2.2-426.4-7.8c16 0 482-178.2 586-194.2 25.8-4 49.8-9.7 72.1-16 .1 0 .2-.1.2-.1 67.1-19.2 118.2-44.4 155.8-45.9 50-2 168 54 218 86S1515 646.8 1515 646.8z"/><linearGradient id="h" gradientUnits="userSpaceOnUse" x1="932.272" y1="685.948" x2="950.272" y2="547.948"><stop offset="0" stop-color="#ffd99c"/><stop offset="1" stop-color="#f7954e"/></linearGradient><path fill="url(#h)" d="M1307.7 643l-590.8-10.8-115.5-2.2-24.4-55.6 523-23.4s86.8 66.8 207.7 92z"/><linearGradient id="i" gradientUnits="userSpaceOnUse" x1="637.484" y1="455.719" x2="637.484" y2="759.438"><stop offset="0" stop-color="#ffd99c"/><stop offset="1" stop-color="#f7954e"/></linearGradient><path fill="url(#i)" d="M1065 574.4C946 613 804.2 627 716.8 632.1L175 622.2c16 0 482-178.2 586-194.2 25.8-4 49.8-9.7 72.1-16-5 1.6-107.3 34.1-156.1 75.1-50 41.9 574.8 26.7 388 87.3z"/><linearGradient id="j" gradientUnits="userSpaceOnUse" x1="182.985" y1="549.928" x2="182.985" y2="662.457"><stop offset="0" stop-color="#ffd99c"/><stop offset="1" stop-color="#f7954e"/></linearGradient><path fill="url(#j)" d="M378 573c-23-38-69-45-108-60-11-4-24-17-19-28 7.3-16.9 21.5-30.6 38.2-40.5-80 7.3-160.5 86.3-289.2 144.2l-19 138.8s42-1.5 158-.1c47.5.6 73.5-2.2 94.8-5.7C283.4 697 331 668.8 373 629c15-15 15-39 5-56z"/><linearGradient id="k" gradientUnits="userSpaceOnUse" x1="570.938" y1="799.878" x2="614.436" y2="502.893"><stop offset="0" stop-color="#ffd99c"/><stop offset="1" stop-color="#f7954e"/></linearGradient><path fill="url(#k)" d="M729 588.7C657 555.4 385 444 301 444c-3.9 0-7.9.2-11.8.5-16.7 9.9-30.9 23.5-38.2 40.5-5 11 8 24 19 28 39 15 85 22 108 60 10 17 10 41-5 56-42 39.8-89.6 68-139.2 92.7 30.8-5 51.7-11.2 113.2-10.4 104 1.4 612-58.4 612-58.4S801 622 729 588.7z"/><linearGradient id="l" gradientUnits="userSpaceOnUse" x1="1035.853" y1="548.458" x2="1035.853" y2="746.313"><stop offset="0" stop-color="#fffcd7"/><stop offset="1" stop-color="#fcbd78"/></linearGradient><path fill="url(#l)" d="M1144 694.9c8-.8 16 .8 24 0 133.7-16.3 266.8-11.6 396.7 6.8l20.2-25.3c-2.4.2-7.8-.3-15.6-1.3-59.3-7.6-262.7-43.8-455.4-32.3-218.2 13.1-627.1 76.3-627.1 76.3s126.6 25.5 270.5 50.3l8.7-2.4c125-32.1 247-60.9 378-72.1z"/><linearGradient id="m" gradientUnits="userSpaceOnUse" x1="1161.039" y1="602.559" x2="1161.039" y2="820.741"><stop offset="0" stop-color="#ffd99c"/><stop offset="1" stop-color="#f7954e"/></linearGradient><path fill="url(#m)" d="M1168 694.9c-8 .8-16-.8-24 0-131 11.2-253 40-378 72.1l-8.7 2.4c72.1 12.4 148.5 24.7 215.5 33.5 201 26.4 492 24 492 24l99.8-125.2c-129.8-18.5-262.9-23.2-396.6-6.8z"/><linearGradient id="n" gradientUnits="userSpaceOnUse" x1="375.511" y1="721.841" x2="375.511" y2="881.309"><stop offset="0" stop-color="#ffd99c"/><stop offset="1" stop-color="#f7954e"/></linearGradient><path fill="url(#n)" d="M864 857c-12-32-45-33-72-39-174-40-346-17-511-77-12-4-13-23-4-34 22.8-28.8 51.2-48.4 82.4-62.3-32.5-.3-70 2.4-109.6 11.1-123.2 26.8-339 71.7-339 71.7l-24 160.1h920.1c14.5-4.6 28.9-9.8 43.1-15.6 7-3 16-9 14-15z"/><linearGradient id="o" gradientUnits="userSpaceOnUse" x1="926.114" y1="434.084" x2="917.356" y2="804.859"><stop offset="0" stop-color="#ffd99c"/><stop offset="1" stop-color="#f7954e"/></linearGradient><path fill="url(#o)" d="M1564.7 841.9s-24.8-12-141.6-15-695.6-78.3-765.3-105.1-183-62.6-183-62.6-46.8-13.9-115.4-14.5c-31.1 13.9-59.6 33.5-82.4 62.3-9 11-8 30 4 34 165 60 337 37 511 77 27 6 60 7 72 39 2 6-7 12-14 15-14.3 5.8-28.6 11-43.1 15.6h739l18.8-45.7z"/><linearGradient id="p" gradientUnits="userSpaceOnUse" x1="977.955" y1="856.68" x2="981.707" y2="773.022"><stop offset=".312" stop-color="#3e301d"/><stop offset=".421" stop-color="#41331f"/><stop offset=".516" stop-color="#4a3a24"/><stop offset=".606" stop-color="#58442c"/><stop offset=".692" stop-color="#6b5134"/><stop offset=".777" stop-color="#84603d"/><stop offset=".86" stop-color="#a57245"/><stop offset=".939" stop-color="#cd854b"/><stop offset="1" stop-color="#f7954e"/></linearGradient><path fill="url(#p)" d="M1021.4 789.8c-.9-1.4-2.6-2.4-4.3-2.4-2.3-2-5.4-2.9-8.4-1.6-.4.2-.4.6-.2.9-1.9 3-3.4 6.2-5.1 9.2l-1.5 2.4h-6.5c-1.3-1.5-2.9-2.8-4.2-3.9-2.5-2.3-5-5-8.1-6.7.3-.2.5-.6.4-1v-.2c-.1-.4-.6-.7-1-.6l-.1.1c0-.1-.1-.1-.1-.2 0-.5-.3-.8-1-1-.1-.1-.3-.2-.4-.3.3-2 .4-4.4-1.4-5.7-1.9-1.4-5-1.8-7.2-1.7-.5 0-.8.3-1 .8-.1.4-.4.9-.8 1.5-6.4-2.2-19.7-3.5-19.3 4.9 0 .5.5.7.9.5 1-.6 1.1-1 1.8-1.9.4-.5.8-1 1.2-1.3 0 .1-.1.1-.1.2s-.1.3-.1.4c-.2.2-.3.5-.2.7-.2.7-.4 1.3-.7 2 0 .1-.1.2-.1.3-2.2.8-4.2 2.2-6 4.2-2.2 2.4-6 5.9-7.2 9.4-1.2 2-1.9 4.1-2.1 6.4-.2 3.8 1 9.4-2.9 11.9-.1 0-.1.1-.1.2-.2.1-.3.3-.2.5.4 3 .7 6.2 1.2 9.2 0 1.9.1 3.8.7 5.4l-.3.9c-.5.6-.6 1.1-.9 1.8-.1.4.1.9.4 1.1 1.1.5 1.9.6 3.1.5.4-.1.9-.5.7-1-.8-2.1-1-4.2-1.2-6.3.1-1.3.2-2.7.3-4 .1-1.6.3-3.3.3-5 .7-.5 1.2-1.3 1.7-1.8 1.8-1.7 3.9-3.2 5.9-4.7.4 3.3 1.2 6.6.9 10 0 .4.2.8.6 1 4.1 2.6 5.3 7.6 7.9 11.4.2.3.5.4.8.4.1.1.1.2.2.3v1.2c0 .6.6 1 1.1.9.1 0 .2-.1.3-.1.5.1 1 .1 1.4-.2l.3-.3c.3-.2.5-.6.2-1l-1.8-2.1c-.5-.6-1-1.3-1.5-1.9-.4-.7-.8-1.4-1.1-2-.8-1.6-1.7-3.2-2.6-4.7-.3-1.5-.5-2.9-.7-4.4.8-2.7.8-5.6 1.3-8.2.2-1.5.5-2.9.7-4.4.4-1.8.8-3.7 1.2-5.5.3.1.5.1.8.2 3.9 1.3 6.9 3.5 9.9 6.3 1.9 1.7 4.6 3.7 6.9 3.4-1 3.2-1.8 6.4-2.7 9.6-.2.5-.3 1-.4 1.5 0 .1-.1.3-.1.4v.2c-.1.6-.1 1.1-.1 1.7-.8 4.4-.8 9.2-1.7 13.3-.8.3-.4 1.6.6 1.4.9-.1 1.8-.3 2.6-.5.3-.1.6-.5.5-.8-1.6-3.8-.9-8.9-.3-13.4.3-1.8.6-3.5 1-5.3 1.3-2.7 3.1-5.4 4.4-7.5 1.4-2.4 3.1-4.6 4.7-6.8 1.1 4.5 3 8.7 4.3 13.1 1.2 4 1.7 9.2 4.5 12.4.1.3.1.5.2.8 1 3.1 3.1 5.6 4.5 8.6-.3.4-.5.9-.7 1.4-.2.5.3 1.2.9 1.2.3 0 .7-.1 1-.1.4 0 .8 0 1.1-.1.5-.2.7-.7.6-1.1.3-.3.2-.8 0-1.1l-.1-.1c-.3-1.7-1.5-3.4-2.5-4.7-.7-1-1.5-1.9-2.2-2.8-1.6-3.1-2-7.4-2.5-10.8-.9-5.7-2.3-11.3-3.3-17 4 3.3 9.1 6.1 13.4 4 6.4-3.2 10.7-10.1 16-15 .7-.1 1.4-.3 2.1-.4 1.3-.1 2.7 0 4-.3.4.2.9.2 1.1-.2.8-3-1.3-5.8-3.6-6z"/><linearGradient id="q" gradientUnits="userSpaceOnUse" x1="1076.141" y1="846.235" x2="1073.891" y2="800.092"><stop offset=".312" stop-color="#3e301d"/><stop offset=".421" stop-color="#41331f"/><stop offset=".516" stop-color="#4a3a24"/><stop offset=".606" stop-color="#58442c"/><stop offset=".692" stop-color="#6b5134"/><stop offset=".777" stop-color="#84603d"/><stop offset=".86" stop-color="#a57245"/><stop offset=".939" stop-color="#cd854b"/><stop offset="1" stop-color="#f7954e"/></linearGradient><path fill="url(#q)" d="M1090.9 827.4c-.5-.9-1.4-2.2-2.5-2.2-.7-.5-1.5-.8-1.9-1.2-1.2-.9-2.6-1.8-3.6-2.9-.4-1-.9-2-1.4-3-.6-1.2-1.2-2.4-1.9-3.6 0-.2 0-.5-.2-.8-.6-.9-1.4-2.2-2.4-2.9v-.1c.3-.3.6-.7.8-1.1.4-.6.6-1.3.8-2 .4-.5.9-1 1.2-1.6.4-.7 0-1.5-.7-1.8-.7-.3-1.5-.5-2.2-.6-.6-.1-1.5-.2-2.1.2l-.1.1c-.7-.3-1.6-.5-2.3-.6-.8-.1-1.3.9-.9 1.6.5.9 1 1.2.7 2.2-.2.5 0 1 .4 1.3-.2.7-.4 1.5-.4 2.2-.1.2 0 .4 0 .6-1 1.2-1.9 2.6-2.9 3.7-1.5 1.7-3.5 3.3-4.3 5.5-.1.3.2.4.4.3 0 .1.1.2.2.2 1.4.1 3.5.1 5.1-.5-.1 1.9 0 3.9 0 5.7 0 1.6-.2 4.7 1.3 5.8v1.5c0 .5 0 1.2.2 1.8-1.8 1.6-3.6 3.2-5.1 5.1-1.7 2.1-3.4 4.3-5.1 6.5 0 0 0 .1-.1.1-.3.3-.6.5-1 .7-.6.4-.7 1.3 0 1.7 1.9 1 4.3.9 6.4.8.3 0 .3-.4.1-.4-1.4-.4-2.8-.8-4.1-1.4 0 0 .1 0 .1-.1.1.1.3.2.5.1 2.2-.9 3.9-2.6 5.6-4.2.2-.2.5-.4.7-.7.7-.5 1.3-1 2-1.4 1-.7 2.3-1.4 3.5-2.2.1.7.2 1.4.2 2.1.1 1.5.2 3.3.9 4.8.1.7.2 1.4.3 2-.1.5-.2 1-.4 1.5-.1.4.2 1 .6 1 .7.1 1.3 0 1.8-.3 1.8.5 3.9-.6 5.6-.9.2 0 .2-.4 0-.4-.8-.1-1.5-.2-2.3-.3-.5 0-1.1 0-1.6-.1 0-.2.1-.4 0-.6.3 0 .7-.1.8-.5.9-3.7.4-8 .4-11.8 0-3.7-.7-7.4-.8-11.1l.7-.7c.9.8 1.9 1.3 3 1.9.8.4 1.7.8 2.6.8v.6c0 .6.6 1 1.2.9.3-.1.7-.1 1-.2h.2c.6.3 1.4-.4 1-1.1z"/><linearGradient id="r" gradientUnits="userSpaceOnUse" x1="698.958" y1="678.068" x2="782.967" y2="1095.11"><stop offset="0" stop-color="#ffd99c"/><stop offset="1" stop-color="#f7954e"/></linearGradient><path fill="url(#r)" d="M1596.9 887.6s-42.8-3.8-111-9.5c-217.5-18.2-693.5-55.7-867.1-51.2-228 5.9-696.1 60.7-696.1 60.7v185.3l141 80.1 1431.1-92.1 102.1-173.3z"/><linearGradient id="s" gradientUnits="userSpaceOnUse" x1="918.099" y1="1366.954" x2="801.087" y2="868.904"><stop offset="0" stop-color="#ffd99c"/><stop offset="1" stop-color="#f7954e"/></linearGradient><path fill="url(#s)" d="M1449.9 875.1c-543-18.2-1185.1-27.2-939.1 38.8S9.3 993.7-19 989.8s-25.3 65.1 13.7 74.1 313.3 48 720.7 60 869.5 15 911.5-3 117-54 84-81-261-164.8-261-164.8z"/></g></svg>