<?xml version="1.0" encoding="iso-8859-1"?>
<!-- Generator: Adobe Illustrator 21.0.0, SVG Export Plug-In . SVG Version: 6.00 Build 0)  -->
<svg version="1.1" xmlns="http://www.w3.org/2000/svg" xmlns:xlink="http://www.w3.org/1999/xlink" x="0px" y="0px" width="2800px"
	 height="2800px" viewBox="0 0 2800 2800" enable-background="new 0 0 2800 2800" xml:space="preserve">
<g id="BACKGROUND">
	<g>
		<g>
			<linearGradient id="SVGID_1_" gradientUnits="userSpaceOnUse" x1="1400" y1="2524.8303" x2="1400" y2="-9.094947e-13">
				<stop  offset="0" style="stop-color:#FFFFBA"/>
				<stop  offset="0.72" style="stop-color:#0070AD"/>
				<stop  offset="1" style="stop-color:#002863"/>
			</linearGradient>
			<rect fill="url(#SVGID_1_)" width="2800" height="2524.8"/>
		</g>
		<g>
			
				<ellipse transform="matrix(0.8473 -0.5312 0.5312 0.8473 -327.1732 202.0974)" fill="#FFFFFF" cx="187.8" cy="670" rx="3.7" ry="3.7"/>
			
				<ellipse transform="matrix(0.8473 -0.5311 0.5311 0.8473 -263.8888 430.9754)" fill="#FFFFFF" cx="617.5" cy="674.4" rx="3.7" ry="3.7"/>
			
				<ellipse transform="matrix(0.8473 -0.5312 0.5312 0.8473 -151.6136 227.8141)" fill="#FFFFFF" cx="320.3" cy="377.6" rx="3.7" ry="3.7"/>
			
				<ellipse transform="matrix(0.8473 -0.5312 0.5312 0.8473 -36.6267 75.4987)" fill="#FFFFFF" cx="113" cy="101.4" rx="3.7" ry="3.7"/>
			
				<ellipse transform="matrix(0.8473 -0.5311 0.5311 0.8473 -488.3742 324.6425)" fill="#FFFFFF" cx="320.3" cy="1011.6" rx="3.7" ry="3.7"/>
			
				<ellipse transform="matrix(0.8473 -0.5312 0.5312 0.8473 -323.483 784.6622)" fill="#FFFFFF" cx="1202.7" cy="954.8" rx="3.7" ry="3.7"/>
			
				<ellipse transform="matrix(0.8473 -0.5311 0.5311 0.8473 -49.8509 669.5419)" fill="#FFFFFF" cx="1139.4" cy="421.5" rx="3.7" ry="3.7"/>
			
				<ellipse transform="matrix(0.8473 -0.5311 0.5311 0.8473 100.6512 626.2692)" fill="#FFFFFF" cx="1139.4" cy="138.1" rx="3.7" ry="3.7"/>
			
				<ellipse transform="matrix(0.8473 -0.5311 0.5311 0.8473 50.4341 816.1406)" fill="#FFFFFF" cx="1444.5" cy="320.4" rx="6" ry="6"/>
			
				<ellipse transform="matrix(0.8473 -0.5311 0.5311 0.8473 -349.8429 575.6871)" fill="#FFFFFF" cx="826.2" cy="896.2" rx="3.7" ry="3.7"/>
			
				<ellipse transform="matrix(0.8473 -0.5312 0.5312 0.8473 -494.1306 521.5496)" fill="#FFFFFF" cx="659.8" cy="1120" rx="3.7" ry="3.7"/>
			
				<ellipse transform="matrix(0.8473 -0.5311 0.5311 0.8473 -153.3456 542.7011)" fill="#FFFFFF" cx="867.1" cy="538" rx="3.7" ry="3.7"/>
			
				<ellipse transform="matrix(0.8473 -0.5312 0.5312 0.8473 -353.9129 1421.5498)" fill="#FFFFFF" cx="2295" cy="1326.2" rx="3.7" ry="3.7"/>
			
				<ellipse transform="matrix(0.8473 -0.5311 0.5311 0.8473 -64.5453 1378.7408)" fill="#FFFFFF" cx="2365.4" cy="801.6" rx="3.7" ry="3.7"/>
			
				<ellipse transform="matrix(0.8473 -0.5311 0.5311 0.8473 104.8786 1518.6803)" fill="#FFFFFF" cx="2693.5" cy="577" rx="3.7" ry="3.7"/>
			
				<ellipse transform="matrix(0.8473 -0.5312 0.5312 0.8473 56.8926 1219.358)" fill="#FFFFFF" cx="2148.8" cy="510.8" rx="3.7" ry="3.7"/>
			
				<ellipse transform="matrix(0.8473 -0.5311 0.5311 0.8473 -86.74 430.7928)" fill="#FFFFFF" cx="705.8" cy="366.2" rx="3.7" ry="3.7"/>
			
				<ellipse transform="matrix(0.8473 -0.5311 0.5311 0.8473 -151.1055 814.4338)" fill="#FFFFFF" cx="1340.7" cy="670" rx="3.7" ry="3.7"/>
			
				<ellipse transform="matrix(0.8473 -0.5311 0.5311 0.8473 -561.8165 849.7366)" fill="#FFFFFF" cx="1196.8" cy="1401.9" rx="6" ry="6"/>
			
				<ellipse transform="matrix(0.8473 -0.5311 0.5311 0.8473 -272.8253 1105.3127)" fill="#FFFFFF" cx="1785.7" cy="1027.1" rx="3.7" ry="3.7"/>
			
				<ellipse transform="matrix(0.8473 -0.5311 0.5311 0.8473 -63.2074 1023.6774)" fill="#FFFFFF" cx="1748.5" cy="621.8" rx="3.7" ry="3.7"/>
			
				<ellipse transform="matrix(0.8473 -0.5312 0.5312 0.8473 -207.4729 969.525)" fill="#FFFFFF" cx="1582.2" cy="845.5" rx="3.7" ry="3.7"/>
			
				<ellipse transform="matrix(0.8473 -0.5312 0.5312 0.8473 -202.5779 1474.7261)" fill="#FFFFFF" cx="2463" cy="1089.6" rx="3.7" ry="3.7"/>
			
				<ellipse transform="matrix(0.8473 -0.5311 0.5311 0.8473 -277.3943 1645.7811)" fill="#FFFFFF" cx="2723.2" cy="1305.3" rx="3.7" ry="3.7"/>
			
				<ellipse transform="matrix(0.8473 -0.5312 0.5312 0.8473 150.4104 1013.3754)" fill="#FFFFFF" cx="1837.4" cy="245.1" rx="3.7" ry="3.7"/>
			
				<ellipse transform="matrix(0.8473 -0.5311 0.5311 0.8473 338.8903 1345.1232)" fill="#FFFFFF" cx="2508.5" cy="83.2" rx="3.7" ry="3.7"/>
			
				<ellipse transform="matrix(0.8473 -0.5312 0.5312 0.8473 -121.6111 1187.7236)" fill="#FFFFFF" cx="2004.5" cy="805.3" rx="3.7" ry="3.7"/>
			
				<ellipse transform="matrix(0.8473 -0.5311 0.5311 0.8473 182.787 1360.7881)" fill="#FFFFFF" cx="2457.8" cy="362.5" rx="6" ry="6"/>
			
				<ellipse transform="matrix(0.8473 -0.5312 0.5312 0.8473 -17.9698 1498.8749)" fill="#FFFFFF" cx="2597.4" cy="780.7" rx="4.5" ry="4.5"/>
			
				<ellipse transform="matrix(0.8473 -0.5311 0.5311 0.8473 -137.1299 1093.4341)" fill="#FFFFFF" cx="1832.9" cy="785.2" rx="4.5" ry="4.5"/>
			
				<ellipse transform="matrix(0.8473 -0.5311 0.5311 0.8473 62.5107 1362.3218)" fill="#FFFFFF" cx="2400.3" cy="572.5" rx="4.5" ry="4.5"/>
			
				<ellipse transform="matrix(0.8473 -0.5312 0.5312 0.8473 32.6021 729.4843)" fill="#FFFFFF" cx="1284.8" cy="308" rx="4.5" ry="4.5"/>
			
				<ellipse transform="matrix(0.8473 -0.5311 0.5311 0.8473 187.524 833.1855)" fill="#FFFFFF" cx="1542.7" cy="90.5" rx="7.2" ry="7.2"/>
			
				<ellipse transform="matrix(0.8473 -0.5311 0.5311 0.8473 59.7949 1074.3694)" fill="#FFFFFF" cx="1898.2" cy="433.2" rx="7.2" ry="7.2"/>
			
				<ellipse transform="matrix(0.8473 -0.5311 0.5311 0.8473 -161.869 1306.5411)" fill="#FFFFFF" cx="2191.1" cy="934.8" rx="7.2" ry="7.2"/>
			
				<ellipse transform="matrix(0.8473 -0.5311 0.5311 0.8473 227.626 1202.8923)" fill="#FFFFFF" cx="2205.6" cy="205.6" rx="7.2" ry="7.2"/>
			
				<ellipse transform="matrix(0.8473 -0.5311 0.5311 0.8473 -189.526 104.8317)" fill="#FFFFFF" cx="87.5" cy="382" rx="7.2" ry="7.2"/>
			
				<ellipse transform="matrix(0.8473 -0.5311 0.5311 0.8473 -168.2806 1584.9602)" fill="#FFFFFF" cx="2672.1" cy="1085.1" rx="4.5" ry="4.5"/>
			
				<ellipse transform="matrix(0.8473 -0.5311 0.5311 0.8473 297.1761 1459.2792)" fill="#FFFFFF" cx="2686.2" cy="212.9" rx="7.2" ry="7.2"/>
			
				<ellipse transform="matrix(0.8473 -0.5312 0.5312 0.8473 -393.4886 996.1193)" fill="#FFFFFF" cx="1535.4" cy="1182.3" rx="4.5" ry="4.5"/>
			
				<ellipse transform="matrix(0.8473 -0.5312 0.5312 0.8473 -243.2691 655.9561)" fill="#FFFFFF" cx="1019" cy="751" rx="4.5" ry="4.5"/>
			
				<ellipse transform="matrix(0.8473 -0.5311 0.5311 0.8473 -123.1672 918.3324)" fill="#FFFFFF" cx="1535.4" cy="673.4" rx="7.2" ry="7.2"/>
			
				<ellipse transform="matrix(0.8473 -0.5311 0.5311 0.8473 -331.249 1198.0522)" fill="#FFFFFF" cx="1917.8" cy="1175.1" rx="7.2" ry="7.2"/>
			
				<ellipse transform="matrix(0.8473 -0.5312 0.5312 0.8473 -499.8177 733.8879)" fill="#FFFFFF" cx="1026.3" cy="1236.1" rx="7.2" ry="7.2"/>
			
				<ellipse transform="matrix(0.8473 -0.5311 0.5311 0.8473 -184.676 344.7556)" fill="#FFFFFF" cx="507.2" cy="493.5" rx="4.5" ry="4.5"/>
			
				<ellipse transform="matrix(0.8473 -0.5311 0.5311 0.8473 -457.1041 496.3086)" fill="#FFFFFF" cx="634.5" cy="1043" rx="4.5" ry="4.5"/>
			
				<ellipse transform="matrix(0.8473 -0.5311 0.5311 0.8473 -7.9901 248.4163)" fill="#FFFFFF" cx="428" cy="138.1" rx="4.5" ry="4.5"/>
			
				<ellipse transform="matrix(0.8473 -0.5311 0.5311 0.8473 -94.4593 523.3992)" fill="#FFFFFF" cx="862.9" cy="426" rx="7.2" ry="7.2"/>
			
				<ellipse transform="matrix(0.8473 -0.5312 0.5312 0.8473 70.6747 494.5457)" fill="#FFFFFF" cx="895.3" cy="124.4" rx="4.5" ry="4.5"/>
			
				<ellipse transform="matrix(0.8473 -0.5311 0.5311 0.8473 -353.2356 282.831)" fill="#FFFFFF" cx="315.2" cy="755.7" rx="7.2" ry="7.2"/>
			
				<ellipse transform="matrix(0.8473 -0.5311 0.5311 0.8473 -625.628 238.5506)" fill="#FFFFFF" cx="102" cy="1207.2" rx="7.2" ry="7.2"/>
			<path fill="#FFFFFF" d="M2212.8,357.7c0,17.4-14.1,31.6-31.6,31.6c17.4,0,31.6,14.1,31.6,31.6c0-17.4,14.1-31.6,31.6-31.6
				C2226.9,389.2,2212.8,375.1,2212.8,357.7z"/>
			<path fill="#FFFFFF" d="M187.8,868.4c0,17.4-14.1,31.6-31.6,31.6c17.4,0,31.6,14.1,31.6,31.6c0-17.4,14.1-31.6,31.6-31.6
				C202,899.9,187.8,885.8,187.8,868.4z"/>
			<path fill="#FFFFFF" d="M1289.3,1136.3c0,17.4-14.1,31.6-31.6,31.6c17.4,0,31.6,14.1,31.6,31.6c0-17.4,14.1-31.6,31.6-31.6
				C1303.4,1167.8,1289.3,1153.7,1289.3,1136.3z"/>
			<path fill="#FFFFFF" d="M573.7,181.3c0,17.4-14.1,31.6-31.6,31.6c17.4,0,31.6,14.1,31.6,31.6c0-17.4,14.1-31.6,31.6-31.6
				C587.8,212.9,573.7,198.7,573.7,181.3z"/>
		</g>
		<g>
			<linearGradient id="SVGID_2_" gradientUnits="userSpaceOnUse" x1="1400" y1="2800" x2="1400" y2="1297.382">
				<stop  offset="0" style="stop-color:#53BD84"/>
				<stop  offset="0.5591" style="stop-color:#005E95"/>
				<stop  offset="1" style="stop-color:#00325F"/>
			</linearGradient>
			<path opacity="0.6" fill="url(#SVGID_2_)" d="M0,1386.2c58,6.3,144.5,9.5,245-12c129.4-27.7,154.2-69.1,240-76
				c133-10.7,183.6,80,344,148c196.1,83.2,383.8,59.2,472,48c260.7-33.2,335.8-153.1,560-120c82,12.1,116.3,34.7,180,56
				c153.5,51.3,391.9,66.4,759-104V2800H0V1386.2z"/>
			<linearGradient id="SVGID_3_" gradientUnits="userSpaceOnUse" x1="1400" y1="2800" x2="1400" y2="1448.9545">
				<stop  offset="0" style="stop-color:#53BD84"/>
				<stop  offset="0.5591" style="stop-color:#005E95"/>
				<stop  offset="1" style="stop-color:#00325F"/>
			</linearGradient>
			<path opacity="0.6" fill="url(#SVGID_3_)" d="M2800,1590.8c-149-73.1-263.3-77.3-340.9-67.2c-150.5,19.6-220,100.7-352,66.3
				c-73.9-19.3-103.5-58.1-168-44.8c-68.7,14.2-70.2,65.4-145.6,89.6c-78.2,25.1-113.7-18.2-204.4-8.4
				c-89.8,9.7-117.4,59-187.6,92.4c-195.3,93-476.6-52.8-666.4-151.2c-149.8-77.7-189.5-125.8-282.8-117.6
				c-92.1,8.1-138.9,62.7-277.2,84c-72.7,11.2-134.2,7.7-175.2,2.8V2800h2800V1590.8z"/>
			<linearGradient id="SVGID_4_" gradientUnits="userSpaceOnUse" x1="1400" y1="2800" x2="1400" y2="1657.9545">
				<stop  offset="0" style="stop-color:#53BD84"/>
				<stop  offset="0.5591" style="stop-color:#005E95"/>
				<stop  offset="1" style="stop-color:#00325F"/>
			</linearGradient>
			<path opacity="0.6" fill="url(#SVGID_4_)" d="M0,1658c98.7,46.1,247.9,101.1,437,114.7c89.7,6.4,116.5-1.6,228,3.5
				c240.8,10.9,307.1,57.1,468,73c249,24.6,250.8-70,588-86.9c250.7-12.5,298.4,37.4,560,31.3c223.2-5.2,403.2-46.5,519-79.9V2800H0
				V1658z"/>
		</g>
	</g>
</g>
<g id="OBJECTS">
	<g>
		<path fill="#1C164A" d="M1505.9,2189.8l-6.1-5.7l-14.7,18.6l-26.9,15.8l-3.4,6.7l-3.9,2.1l-4.7-2.6l-34.4,0.5l-24-3.1l0.5-2
			l-18.1-28.1l-42.2-79.3l5.4-18.7l-11.4-13l-33-8.1l-13.8-7.9l-39-11.8l-13.5-1.1l0.9-2.1l8.1-3.4l8.4,0.2l2.9-2.6l-1.6-7l1.1-2.3
			l-0.3-1.6l-1.8-0.6l-0.4-2.5l3.1-1.8l0.3-2.4l-1.3-3.1l4.7-2.5l0.9-2.8l-10.4-11.7l0.4-5.7l-5-9.3l0.8-4l-0.7-3.8
			c-0.4-2.5-2.2-4.6-4.6-5.4l-8.5-2.8c-3.2-1-6.6-1.4-9.9-0.9l-18.3,2.5c-1.3,0.2-2.5,0.9-3.3,1.9l-5.5,7.2
			c-4.8,6.3-7.4,14-7.4,21.9l0,0.3c0,6.9,2,13.6,5.7,19.5l8.3,12.9l-5.2,12.3l-6.3,0.2l-14.9,19.6l-18.9,24v23.1l-1.6,22.6
			l-16.8,58.2l-5.4,22.5l2.7,4.1l-5.4,9.2l-10.8,3.8h-18.3l-15.2,10v3.2l5.5-1.9l0.8,2.4l6.6-2.8l7.4-0.9l0.4,2.3l2.6,1.5l8-1.9h18
			l8.9-5.8l7.8-15l4.1-0.9l17.8-40.3l5,32.6l10.6,3.9l11.6,18.5l40.2,15l79.8-3.5h50.1v7l19.8,3.2l4.9-3.5l21.1,6.5h32.2l4.1-7.3
			l-15.3-6.9l34.6,1.5l13.8,5.4l6.8,1.7l8-18.4l-2.2-5.6l11.4-18.9L1505.9,2189.8z M1276.2,2121.4l-19.2,29.8l-4.6-43.3l15.7-6.5
			l21.4,7.8L1276.2,2121.4z M1329.1,2216.4l-13-1.3l-18.8-6.5l10.6-34.5l13.8,22.7l21.9,22.6L1329.1,2216.4z"/>
		<g>
			<linearGradient id="SVGID_5_" gradientUnits="userSpaceOnUse" x1="1730.5063" y1="2228.9773" x2="1730.5063" y2="1904.5068">
				<stop  offset="0" style="stop-color:#FFFF69"/>
				<stop  offset="1" style="stop-color:#FF4545"/>
			</linearGradient>
			<path fill="url(#SVGID_5_)" d="M1736.9,1904.5c-6.7,97.6-103.7,112.5-103.7,198.1c0,94,103.7,126.4,103.7,126.4
				s138-51.1,73.9-169.5c0,0-4.8,30.4-36.7,48.5C1774.1,2108,1844.5,2015.5,1736.9,1904.5z"/>
			<linearGradient id="SVGID_6_" gradientUnits="userSpaceOnUse" x1="1732.9279" y1="2228.9773" x2="1732.9279" y2="2045.3553">
				<stop  offset="0" style="stop-color:#FFFFFF"/>
				<stop  offset="1" style="stop-color:#FFF94D"/>
			</linearGradient>
			<path fill="url(#SVGID_6_)" d="M1737.8,2045.4c0,0-107.6,59.6-30.7,183.6h62.2c0,0,35.9-44.5,3.9-91.8c0,0-1.7,37.4-25.1,46.9
				C1763.5,2124.3,1722,2119.8,1737.8,2045.4z"/>
			<path fill="#212F69" d="M1798.8,2190h-136.6c-27.8,0-50.4,22.5-50.4,50.4v18.5c0,27.8,22.5,50.4,50.4,50.4h136.6
				c27.8,0,50.4-22.5,50.4-50.4v-18.5C1849.2,2212.6,1826.6,2190,1798.8,2190z"/>
			<path fill="#1C164A" d="M1798.8,2205.9h-136.6c-27.8,0-50.4,19.6-50.4,43.7v16.1c0,24.1,22.5,43.7,50.4,43.7h136.6
				c27.8,0,50.4-19.6,50.4-43.7v-16.1C1849.2,2225.4,1826.6,2205.9,1798.8,2205.9z"/>
			<path fill="#212F69" d="M1649.1,2217.1h-74.6c-15.2,0-27.5,12.3-27.5,27.5v10.1c0,15.2,12.3,27.5,27.5,27.5h74.6
				c15.2,0,27.5-12.3,27.5-27.5v-10.1C1676.6,2229.4,1664.3,2217.1,1649.1,2217.1z"/>
			<path fill="#212F69" d="M1886.5,2217.1h-74.6c-15.2,0-27.5,12.3-27.5,27.5v10.1c0,15.2,12.3,27.5,27.5,27.5h74.6
				c15.2,0,27.5-12.3,27.5-27.5v-10.1C1914,2229.4,1901.7,2217.1,1886.5,2217.1z"/>
			<path fill="#1C164A" d="M1649.1,2225.7h-74.6c-15.2,0-27.5,10.7-27.5,23.9v8.8c0,13.2,12.3,23.9,27.5,23.9h74.6
				c15.2,0,27.5-10.7,27.5-23.9v-8.8C1676.6,2236.4,1664.3,2225.7,1649.1,2225.7z"/>
			<path fill="#1C164A" d="M1886.5,2225.7h-74.6c-15.2,0-27.5,10.7-27.5,23.9v8.8c0,13.2,12.3,23.9,27.5,23.9h74.6
				c15.2,0,27.5-10.7,27.5-23.9v-8.8C1914,2236.4,1901.7,2225.7,1886.5,2225.7z"/>
		</g>
		<g>
			<path fill="#1C164A" d="M1925.1,2262.1l4.1,7.3h32.2l21.1-6.5l4.9,3.5l19.8-3.2v-7h50.1l79.8,3.5l40.2-15l11.6-18.5l10.6-3.9
				l5.3-34.1l8.5-34.7l12,25.8l16.4,50.7l4.1,0.9l7.8,15l8.9,5.8h18l8,1.9l2.6-1.5l0.4-2.3l7.4,0.9l6.6,2.8l0.8-2.4l5.5,1.9v-3.2
				l-15.2-10h-18.3l-10.8-3.8l-5.4-9.2l2.7-4.1l-5.4-22.5l-16.8-58.2l-1.6-22.6v-23.1l-25.2-30.8l-28-12.8l3.2-12.5l3.7-2l3.6-11.5
				l-1.1-2.8l-2.6,1.2v-12.2l-3.9-11.8l-10.8-8.9l-11.4-1.4l-9,1.4l-10.1,6.6l-6.2,14.5v11.2l-3.4-0.8l-1,1.6l4.5,14l2.2,1.6
				l1.8,10.8l-17.5,1.4l-39,11.8l-13.8,7.9l-33,8.1l-11.4,13l5.4,18.7l-42.2,79.3l-18.1,28.1l1.4,5.1l-3,3.2l-7.3,1.6l-21.9,22.2
				L1925.1,2262.1z M2089.8,2121.4l-13.3-12.2l21.4-7.8l15.7,6.5l-4.6,43.3L2089.8,2121.4z M2018,2224l26.4-27.2l13.8-22.7
				l10.6,34.5l7.8,13l-20.4,2.4l-7.7-6.5L2018,2224z"/>
			<g>
				<path fill="#212F69" d="M2147.6,2040.7l0-0.1c-0.1-0.6-0.4-1.1-0.9-1.4l-1.7-1.2l-4.1-11.9l1.7,0.4l0.1,0c0.1,0,0.3,0,0.4,0
					c1,0,1.7-0.8,1.7-1.8l-0.3-11c1.9-4.7,3.7-9.4,5.5-14.1c3.2-2.3,6.4-4.5,9.6-6.8l8.8-1.7l-9.1,0.9c0,0-0.1,0-0.1,0l0,0
					c-3.5,2.1-6.9,4.1-10.4,6.2c-0.1,0.1-0.2,0.2-0.3,0.3l0,0.1c-2.3,4.7-4.5,9.5-6.7,14.3c-0.1,0.1-0.1,0.3-0.1,0.5l0,0.1l-0.3,8.9
					l-1.3-0.3c-0.7-0.2-1.6,0.1-2,0.8l-0.1,0.1l-1.1,1.6c-0.3,0.4-0.4,1-0.2,1.5l0,0.1l4.1,14.1c0.1,0.4,0.4,0.8,0.8,1.1l0.1,0.1
					l1.4,1l1,6.9l-14.6,0.9c-0.2,0-0.4,0-0.5,0.1l-0.1,0l-19.6,5.5l-19.5,5.7c-0.2,0.1-0.5,0.2-0.7,0.3l-0.1,0l-13.4,7.5
					c-5.4,1.2-10.7,2.5-16.1,3.8l-16.5,4c-0.7,0.2-1.4,0.6-2,1.2l0,0l-11.4,12.9c-0.8,1-1.2,2.4-0.8,3.7l0,0
					c1.6,5.7,3.3,11.4,5,17.1l-9.7,18.4l-5.2,9.9l-5.2,10l-10.3,19.9c-3.5,6.6-6.8,13.3-10.2,19.9l-8.7,14.1
					c-3,4.7-5.8,9.5-8.7,14.3l-0.1,0.1c-0.3,0.5-0.4,1.2-0.2,1.8l1.1,3.9l-1.6,1.8l-6.5,1.6l-0.1,0c-0.3,0.1-0.6,0.3-0.9,0.5
					l-10.6,11.4c-3.5,3.8-7,7.5-10.5,11.4l-10.4,5.2l-10.6,5.4l11-4.4l11-4.4c0.1,0,0.2-0.1,0.2-0.2l0.1-0.1
					c3.8-3.5,7.6-7.1,11.3-10.7l10.8-10.3l6.8-1.3c0.4-0.1,0.8-0.3,1.1-0.6l0.1-0.1l3.1-3.2c0.5-0.5,0.7-1.3,0.6-2l0-0.1l-1-4.1
					c2.9-4.3,5.9-8.7,8.8-13l9.3-13.9c0,0,0.1-0.1,0.1-0.1l0.1-0.1c3.6-6.5,7.3-13.1,10.9-19.7l10.8-19.7l5.4-9.9l5.3-9.9l10.6-19.8
					c0.5-0.9,0.6-1.9,0.3-2.9l0,0c-1.6-5.5-3.2-11.1-4.8-16.6l9.1-10.5l15.3-3.8c5.5-1.4,11-2.7,16.5-4.2l0.1,0
					c0.3-0.1,0.6-0.2,0.9-0.4l13.4-7.9l19-6l19.1-6.1l17.1-1.7l0.1,0c0.1,0,0.2,0,0.2,0c1.4-0.3,2.3-1.7,2.1-3.1L2147.6,2040.7z"/>
				<path fill="#212F69" d="M2114.9,2104.8c-1.4-0.4-2.7-0.8-4.1-1.1c-1.4-0.4-2.8-0.7-4.2-1c-2.8-0.6-5.7-1.1-8.7-1.3
					c2.2,2,4.6,3.6,7,5.2c1.2,0.8,2.4,1.5,3.7,2.3c0.4,0.3,0.9,0.5,1.3,0.7c-1.2,6.5-2,13-2.3,19.5c-0.2,3.6-0.2,7.3,0,10.9
					c0.2,3.7,0.5,7.4,1.4,11.1c1.6-3.5,2.7-7,3.7-10.6c1-3.5,1.7-7.1,2.3-10.7c1.2-7.2,1.9-14.4,1.9-21.7l0-0.7
					C2117,2106.3,2116.2,2105.2,2114.9,2104.8z"/>
				<path fill="#212F69" d="M2079.5,2219.8c-1.1-2.3-2.3-4.5-3.5-6.7c-1.1-2.1-2.3-4.1-3.5-6.1l-1.2-3.8c-0.5-1.4-1-2.9-1.5-4.3
					c-1-2.8-2.1-5.6-3.3-8.4c-1.2-2.8-2.4-5.6-3.8-8.3c-1.4-2.7-2.8-5.4-4.5-8.1c0,3.1,0.4,6.2,0.8,9.2c0.4,3,0.9,6,1.5,9
					c0.6,3,1.3,5.9,2,8.8c0.4,1.5,0.8,2.9,1.2,4.4l1.3,4.3c0.1,0.3,0.2,0.6,0.4,0.9l0,0c1.3,2.2,2.7,4.3,4.1,6.4
					c0.5,0.8,1,1.5,1.6,2.3c-1.6,0.4-3.2,0.8-4.8,1.3c-1.7,0.5-3.3,1-5,1.5c-1.7,0.6-3.3,1.2-5,1.9c1.8,0.3,3.5,0.5,5.3,0.6
					c1.7,0.1,3.5,0.2,5.2,0.3c1.7,0.1,3.5,0.1,5.2,0.1c1.7,0,3.4,0,5.2-0.1c0.4,0,0.9-0.1,1.3-0.3c1.6-0.8,2.2-2.7,1.4-4.3
					L2079.5,2219.8z"/>
			</g>
		</g>
		<g>
			<path fill="#212F69" d="M1400.1,2222.8c-3.3-0.7-6.6-1.3-10-1.9l0.1-0.3c0.1-0.4,0.1-0.8-0.1-1.2l-0.1-0.2
				c-2.7-4.9-5.6-9.7-8.4-14.5c-1.4-2.4-2.8-4.8-4.3-7.2l-4.2-7c-3.3-6.7-6.7-13.4-10.1-20c-3.4-6.7-6.9-13.3-10.3-19.9
				c-3.5-6.6-7-13.2-10.5-19.8c-3.3-6.2-6.7-12.3-10-18.4l2.1-7.9l2.5-9.4l0-0.2c0.3-1,0-2.1-0.8-3c-3.9-4.2-7.8-8.4-11.8-12.6
				l-0.1-0.1c-0.3-0.4-0.8-0.6-1.3-0.7c-5.5-1.2-11.1-2.2-16.7-3.4c-2.8-0.6-5.6-1.1-8.4-1.6l-8.3-1.5c-4.7-2.3-9.4-4.6-14.2-6.8
				c4.4,3.1,8.8,6,13.2,8.9c0.1,0,0.1,0.1,0.2,0.1l0.1,0l8.1,2.5c2.7,0.8,5.4,1.7,8.1,2.5c5.1,1.5,10.2,3,15.4,4.5
				c3.1,3.8,6.1,7.5,9.2,11.2l-2.4,7.6l-2.9,9.3c-0.3,0.9-0.2,1.8,0.2,2.7l0.1,0.1c3.4,6.7,6.9,13.3,10.4,19.9
				c3.5,6.6,7,13.2,10.6,19.8c3.6,6.6,7.2,13.1,10.8,19.7c3.6,6.5,7.3,13.1,11,19.6l0.1,0.2l0,0.1l4.8,6.9c1.6,2.3,3.2,4.6,4.8,6.9
				c3.1,4.4,6.2,8.8,9.3,13.1l-0.2,1.2l0,0.2c0,0.1,0,0.1,0,0.2c-0.1,0.9,0.6,1.6,1.5,1.7c4,0.3,8.1,0.6,12.1,0.8
				c2,0.1,4,0.3,6.1,0.3l6.1,0.3l-5.9-1.3C1404,2223.6,1402,2223.2,1400.1,2222.8z"/>
			<path fill="#212F69" d="M1506.5,2189.2c-2.2-1.8-4.4-3.5-6.6-5.2c1.7,2,3.4,4,5.2,5.9c-0.8,2.4-1.6,4.9-2.3,7.3
				c-0.8,2.6-1.5,5.1-2.3,7.7l-2.2,7.8c-0.7,2.5-1.3,5-2,7.5c-0.9,1.5-1.8,3-2.7,4.5l-2.8,4.7c-1.9,3.1-3.7,6.4-5.5,9.6l0,0.1
				c-0.2,0.4-0.3,1-0.1,1.4c0.7,1.7,1.5,3.3,2.2,5c-0.5,1.3-1,2.7-1.5,4.1c-0.6,1.6-1.2,3.1-1.7,4.7c-0.5,1.6-1.1,3.2-1.6,4.7
				c-0.5,1.6-1,3.2-1.5,4.8c0.8-1.5,1.7-2.9,2.5-4.4c0.8-1.5,1.6-3,2.4-4.4c0.8-1.5,1.5-3,2.3-4.5c0.8-1.5,1.5-3,2.2-4.5
				c0.1-0.3,0.2-0.7,0.1-1l0-0.1c-0.6-1.6-1.1-3.2-1.7-4.8c1.8-2.9,3.7-5.7,5.5-8.7l2.9-4.7c1-1.6,1.9-3.2,2.8-4.7l0,0
				c0.1-0.2,0.2-0.3,0.2-0.5c0.6-2.6,1.3-5.2,1.9-7.8l1.8-7.9c0.5-2.6,1.1-5.3,1.6-7.9c0.5-2.6,1-5.3,1.5-7.9l0-0.1
				C1506.7,2189.6,1506.7,2189.4,1506.5,2189.2z"/>
			<path fill="#212F69" d="M1329.6,2213.9l-0.3,0c-2.1-0.5-4.3-0.9-6.4-1.3c-1.1-0.2-2.1-0.4-3.2-0.6l-2.6-0.4c-3-1.2-6-2.4-9.1-3.5
				c-1.6-0.5-3.1-1.1-4.7-1.6c-0.4-0.1-0.8-0.3-1.2-0.4c0.4-1.7,0.9-3.3,1.3-5c0.7-2.9,1.4-5.9,2-8.8c0.6-3,1.1-5.9,1.6-9
				c0.4-3,0.8-6,1-9.1c-1.6,2.7-3,5.4-4.3,8.1c-1.3,2.7-2.5,5.5-3.7,8.3c-1.2,2.8-2.3,5.6-3.3,8.4c-1,2.8-2,5.7-3,8.5
				c-0.6,1.9,0.4,4.1,2.3,4.8l0.2,0.1c1.6,0.6,3.1,1.1,4.7,1.7c1.6,0.6,3.1,1.1,4.7,1.6c3.1,1,6.3,2,9.5,2.9l0.4,0.1
				c0.1,0,0.3,0.1,0.4,0.1l3.3,0.1c1.1,0.1,2.2,0.1,3.3,0.1c2.2,0,4.4,0.1,6.6,0l-0.3,0c2.5,0.2,5,0.4,7.5,0.5
				c2.5,0.1,5,0.1,7.5,0.1c-2.3-1.1-4.6-2.1-6.9-3C1334.3,2215.5,1332,2214.7,1329.6,2213.9z"/>
			<path fill="#212F69" d="M1249.2,2016.8L1249.2,2016.8c-3.3-3.8-6.7-7.5-10-11.2c0.1-1.7,0.2-3.4,0.3-5.1l0-0.1
				c0-0.2,0-0.5-0.2-0.7l-4.9-8.9l0.7-3.5l0-0.1c0-0.1,0-0.2,0-0.4l-0.7-3.7c-0.2-1.4-0.9-2.8-1.9-3.8c-1-1.1-2.2-1.9-3.6-2.3
				l-3.6-1.1l-3.6-1c-1.2-0.3-2.5-0.7-3.7-0.9c-2.5-0.4-5.1-0.4-7.6,0.1c2.5-0.2,5,0,7.4,0.7c1.2,0.3,2.3,0.7,3.5,1.2l3.5,1.3
				l3.6,1.3c1,0.4,2,1.1,2.6,1.9c0.7,0.9,1.1,1.9,1.2,3l0.5,3.5l-0.9,3.8c-0.1,0.3,0,0.5,0.1,0.8l0,0l4.6,9
				c-0.2,1.8-0.3,3.5-0.4,5.3c0,0.4,0.1,0.8,0.4,1.1l0,0c3.3,3.7,6.5,7.4,9.8,11l-0.5,1.4l-4.2,2.2l0,0c-0.6,0.3-0.9,1.1-0.6,1.8
				l1.2,2.7l-0.2,1.3l-2.5,1.5l0,0c-0.4,0.3-0.7,0.8-0.6,1.3l0.4,2.5l0,0c0.1,0.5,0.4,0.8,0.9,1l1.1,0.3l0.1,0.5l-0.9,1.9l0,0
				c-0.1,0.2-0.1,0.5-0.1,0.7l1.6,6.4l-2.2,2c-2.7,0-5.4,0.1-8.1,0.1l0,0c-0.1,0-0.1,0-0.2,0c-2.7,1.3-5.3,2.5-8,3.8l0,0
				c0,0,0,0-0.1,0.1l-0.8,2.2l1-2c2.7-1,5.4-2,8.1-3c2.8,0.2,5.6,0.4,8.3,0.5c0.2,0,0.4-0.1,0.6-0.2l0,0l3-2.5
				c0.3-0.2,0.4-0.6,0.3-0.9l0-0.1l-1.3-6.6l1-1.9c0.1-0.2,0.2-0.5,0.1-0.7l0-0.1l-0.3-1.6c-0.1-0.4-0.4-0.8-0.8-0.9l0,0l-1-0.3
				l-0.1-0.9l2.4-1.4c0.3-0.2,0.6-0.5,0.7-1l0,0l0.3-2.4c0-0.2,0-0.5-0.1-0.7l0,0l-0.8-1.9l3.5-1.9c0.3-0.2,0.6-0.5,0.7-0.8l0,0
				l0.9-2.8C1249.7,2017.7,1249.6,2017.2,1249.2,2016.8z"/>
			<path fill="#212F69" d="M1255.2,2103.6c-1.4,0.4-2.8,0.7-4.1,1.1c-1.2,0.3-2.1,1.5-2.1,2.8l0,0.7c0.1,7.3,0.7,14.5,1.9,21.7
				c0.6,3.6,1.4,7.2,2.3,10.7c1,3.5,2.1,7.1,3.7,10.6c0.8-3.7,1.2-7.4,1.4-11.1c0.2-3.7,0.2-7.3,0-10.9c-0.3-6.6-1.1-13.1-2.3-19.5
				c0.4-0.2,0.9-0.5,1.3-0.7c1.2-0.7,2.5-1.5,3.7-2.3c2.4-1.6,4.8-3.2,7-5.2c-3,0.2-5.8,0.7-8.7,1.3
				C1258,2103,1256.6,2103.3,1255.2,2103.6z"/>
		</g>
		<path opacity="0.5" fill="#1C164A" d="M1972,1980.7v-54.4v-9.3v-1.3l-45.4,8.1v1.3v9.3v48.8c-3.1-2.5-8.1-3.4-13.2-2
			c-7.4,2-12.3,7.9-10.8,13.2c1.4,5.3,8.6,8.1,16,6.1c6.7-1.8,11.3-6.8,11.1-11.7v-54.9l39.5-7v48.3c-3.1-2.5-8.1-3.4-13.2-2
			c-7.4,2-12.3,7.9-10.8,13.2s8.6,8.1,16,6.1C1967.6,1990.7,1972.2,1985.6,1972,1980.7z"/>
		<path opacity="0.5" fill="#1C164A" d="M1679.4,1598v-46.5v-8v-1.1l-38.9,6.9v1.1v8v41.7c-2.6-2.1-6.9-2.9-11.3-1.7
			c-6.3,1.7-10.5,6.7-9.3,11.3c1.2,4.6,7.3,6.9,13.7,5.2c5.7-1.5,9.7-5.8,9.5-10v-47l33.8-6v41.3c-2.6-2.1-6.9-2.9-11.3-1.7
			c-6.3,1.7-10.5,6.7-9.3,11.3s7.3,6.9,13.7,5.2C1675.6,1606.5,1679.6,1602.2,1679.4,1598z"/>
		<path opacity="0.5" fill="#1C164A" d="M1571.4,1859.8c-12.1-5.1-17.4-12.9-17.4-22l-4.3,0.8v1.8v13.5v70.3
			c-4.4-3.6-11.7-4.9-19.1-2.9c-10.7,2.8-17.7,11.4-15.6,19c2,7.7,12.3,11.6,23,8.8c9.7-2.6,16.3-9.8,16-16.9v-71.7
			c4.5,5.8,14,2.2,18.9,8.7c6,8,0.4,15.4,0.4,15.4C1579.7,1882,1583.5,1864.9,1571.4,1859.8z"/>
		<path opacity="0.5" fill="#1C164A" d="M1824.4,1728.6c-10.3-4.4-14.9-11-14.9-18.8l-3.7,0.7v1.5v11.5v60.1c-3.8-3-10-4.2-16.3-2.5
			c-9.1,2.4-15.1,9.7-13.4,16.3c1.7,6.6,10.6,9.9,19.7,7.5c8.3-2.2,14-8.4,13.6-14.4v-44.2c3.8,4.9,12,1.9,16.2,7.5
			c5.1,6.9,0.4,13.2,0.4,13.2c4.6-2,7.6-12.8,2.1-18.7C1832.1,1743.7,1833.3,1732.4,1824.4,1728.6z M1824.4,1745.7
			c-9.2-3.9-13.8-9.6-14.7-16.3c3.9,4.6,11.9,1.7,16,7.2c3.2,4.3,2.6,8.3,1.6,10.8C1826.5,1746.8,1825.6,1746.2,1824.4,1745.7z"/>
	</g>
	<g>
		<rect y="2249.7" fill="#1C164A" width="2800" height="550.3"/>
		<g>
			<polygon fill="#1C164A" points="1058,2249.7 906.2,2082.6 906.2,2082.6 529,1667.3 151.8,2082.6 151.8,2082.6 0,2249.7 
				160.8,2112.5 201.8,2249.7 856.2,2249.7 897.3,2112.5 			"/>
			<g>
				<polygon fill="#1C164A" points="2800,2249.7 2642.7,2077.2 2694.8,2094.5 2668.7,2046.6 2772.5,2067.2 2618.5,1898.3 
					2661.8,1912.7 2641.3,1875.1 2722.7,1891.3 2584.2,1739.4 2632.9,1755.6 2617.4,1727.1 2679.2,1739.3 2564.1,1613.2 
					2604.9,1626.7 2594.1,1607 2636.8,1615.5 2551.6,1522 2602.1,1537.8 2542.1,1433.9 2482,1537.8 2532.5,1522 2447.3,1615.5 
					2490,1607 2479.2,1626.7 2520,1613.2 2404.9,1739.3 2466.7,1727.1 2451.2,1755.6 2499.9,1739.4 2361.4,1891.3 2442.8,1875.1 
					2422.3,1912.7 2465.6,1898.3 2311.6,2067.2 2415.4,2046.6 2389.3,2094.5 2441.4,2077.2 2284.1,2249.7 				"/>
				<g>
					<polygon fill="#212F69" points="2542.1,1433.9 2482,1537.8 2496.2,1533.4 					"/>
					<polygon fill="#212F69" points="2481,1898.3 2456.1,1908.7 2311.6,2067.2 2366,2056.4 					"/>
					<polygon fill="#212F69" points="2411.4,2054 2389.3,2094.5 2425.4,2082.5 2441,2046.6 					"/>
					<polygon fill="#212F69" points="2428.9,2090.9 2284.1,2249.7 2336.3,2249.7 2461.7,2077.2 					"/>
					<polygon fill="#212F69" points="2439.6,1880.9 2422.3,1912.7 2450.6,1903.3 2462.9,1875.1 					"/>
					<polygon fill="#212F69" points="2524.4,1613.2 2517.2,1616.2 2404.9,1739.3 2437.3,1732.9 					"/>
					<polygon fill="#212F69" points="2534.4,1522 2531.4,1523.2 2447.3,1615.5 2469.7,1611 					"/>
					<polygon fill="#212F69" points="2488.3,1610 2479.2,1626.7 2494.1,1621.8 2500.5,1607 					"/>
					<polygon fill="#212F69" points="2508.4,1739.4 2494.7,1745.1 2361.4,1891.3 2404.1,1882.8 					"/>
					<polygon fill="#212F69" points="2464.3,1731.5 2451.2,1755.6 2472.7,1748.4 2481.9,1727.1 					"/>
				</g>
				<polygon fill="#1C164A" points="2800,2249.7 2800,1325.7 2732,1443.5 2789.2,1425.5 2692.6,1531.4 2741,1521.8 2728.9,1544.1 
					2775,1528.8 2644.7,1671.7 2714.7,1657.8 2697.1,1690.1 2752.2,1671.8 2595.4,1843.8 2687.6,1825.5 2664.4,1868 2713.4,1851.8 
					2539,2043 2656.6,2019.7 2627,2073.9 2686,2054.3 2507.9,2249.7 				"/>
				<g>
					<polygon fill="#212F69" points="2800,1325.7 2732,1443.5 2748.1,1438.4 					"/>
					<polygon fill="#212F69" points="2730.9,1851.8 2702.7,1863.5 2539,2043 2600.7,2030.8 					"/>
					<polygon fill="#212F69" points="2652,2028 2627,2073.9 2667.9,2060.3 2685.6,2019.7 					"/>
					<polygon fill="#212F69" points="2671.9,2069.8 2507.9,2249.7 2566.9,2249.7 2709,2054.3 					"/>
					<polygon fill="#212F69" points="2684,1832.1 2664.4,1868 2696.4,1857.4 2710.3,1825.5 					"/>
					<polygon fill="#212F69" points="2780,1528.8 2771.9,1532.2 2644.7,1671.7 2681.4,1664.4 					"/>
					<polygon fill="#212F69" points="2791.4,1425.5 2788,1426.9 2692.6,1531.4 2718,1526.4 					"/>
					<polygon fill="#212F69" points="2739.2,1525.3 2728.9,1544.1 2745.7,1538.5 2753,1521.8 					"/>
					<polygon fill="#212F69" points="2761.9,1671.8 2746.3,1678.2 2595.4,1843.8 2643.7,1834.2 					"/>
					<polygon fill="#212F69" points="2712,1662.8 2697.1,1690.1 2721.4,1682 2731.9,1657.8 					"/>
				</g>
			</g>
			<g>
				<polygon fill="#1C164A" points="0,2249.7 157.3,2077.2 105.2,2094.5 131.3,2046.6 27.5,2067.2 181.5,1898.3 138.2,1912.7 
					158.7,1875.1 77.3,1891.3 215.8,1739.4 167.1,1755.6 182.6,1727.1 120.8,1739.3 235.9,1613.2 195.1,1626.7 205.9,1607 
					163.2,1615.5 248.4,1522 197.9,1537.8 257.9,1433.9 318,1537.8 267.5,1522 352.7,1615.5 310,1607 320.8,1626.7 280,1613.2 
					395.1,1739.3 333.3,1727.1 348.8,1755.6 300.1,1739.4 438.6,1891.3 357.2,1875.1 377.7,1912.7 334.4,1898.3 488.4,2067.2 
					384.6,2046.6 410.7,2094.5 358.6,2077.2 515.9,2249.7 				"/>
				<g>
					<polygon fill="#212F69" points="257.9,1433.9 318,1537.8 303.8,1533.4 					"/>
					<polygon fill="#212F69" points="319,1898.3 343.9,1908.7 488.4,2067.2 434,2056.4 					"/>
					<polygon fill="#212F69" points="388.6,2054 410.7,2094.5 374.6,2082.5 359,2046.6 					"/>
					<polygon fill="#212F69" points="371.1,2090.9 515.9,2249.7 463.7,2249.7 338.3,2077.2 					"/>
					<polygon fill="#212F69" points="360.4,1880.9 377.7,1912.7 349.4,1903.3 337.1,1875.1 					"/>
					<polygon fill="#212F69" points="275.6,1613.2 282.8,1616.2 395.1,1739.3 362.7,1732.9 					"/>
					<polygon fill="#212F69" points="265.6,1522 268.6,1523.2 352.7,1615.5 330.3,1611 					"/>
					<polygon fill="#212F69" points="311.7,1610 320.8,1626.7 305.9,1621.8 299.5,1607 					"/>
					<polygon fill="#212F69" points="291.6,1739.4 305.3,1745.1 438.6,1891.3 395.9,1882.8 					"/>
					<polygon fill="#212F69" points="335.7,1731.5 348.8,1755.6 327.3,1748.4 318.1,1727.1 					"/>
				</g>
				<polygon fill="#1C164A" points="0,2249.7 0,1325.7 68,1443.5 10.8,1425.5 107.4,1531.4 59,1521.8 71.1,1544.1 25,1528.8 
					155.3,1671.7 85.3,1657.8 102.9,1690.1 47.8,1671.8 204.6,1843.8 112.4,1825.5 135.6,1868 86.6,1851.8 261,2043 143.4,2019.7 
					173,2073.9 114,2054.3 292.1,2249.7 				"/>
				<g>
					<polygon fill="#212F69" points="0,1325.7 68,1443.5 51.9,1438.4 					"/>
					<polygon fill="#212F69" points="69.1,1851.8 97.3,1863.5 261,2043 199.3,2030.8 					"/>
					<polygon fill="#212F69" points="148,2028 173,2073.9 132.1,2060.3 114.4,2019.7 					"/>
					<polygon fill="#212F69" points="128.1,2069.8 292.1,2249.7 233.1,2249.7 91,2054.3 					"/>
					<polygon fill="#212F69" points="116,1832.1 135.6,1868 103.6,1857.4 89.7,1825.5 					"/>
					<polygon fill="#212F69" points="20,1528.8 28.1,1532.2 155.3,1671.7 118.6,1664.4 					"/>
					<polygon fill="#212F69" points="8.6,1425.5 12,1426.9 107.4,1531.4 82,1526.4 					"/>
					<polygon fill="#212F69" points="60.8,1525.3 71.1,1544.1 54.3,1538.5 47,1521.8 					"/>
					<polygon fill="#212F69" points="38.1,1671.8 53.7,1678.2 204.6,1843.8 156.3,1834.2 					"/>
					<polygon fill="#212F69" points="88,1662.8 102.9,1690.1 78.6,1682 68.1,1657.8 					"/>
				</g>
			</g>
			<radialGradient id="SVGID_7_" cx="1732.9279" cy="2065.4272" r="695.5728" gradientUnits="userSpaceOnUse">
				<stop  offset="0" style="stop-color:#FFFFFF"/>
				<stop  offset="1" style="stop-color:#FFFFFF;stop-opacity:0"/>
			</radialGradient>
			<circle opacity="0.3" fill="url(#SVGID_7_)" cx="1732.9" cy="2065.4" r="695.6"/>
		</g>
	</g>
</g>
</svg>
