<svg xmlns="http://www.w3.org/2000/svg" xmlns:xlink="http://www.w3.org/1999/xlink" viewBox="0 0 750 500"><defs><style>.cls-1{fill:none;}.cls-2{fill:#519ef2;}.cls-3{isolation:isolate;}.cls-4{clip-path:url(#clip-path);}.cls-5{clip-path:url(#clip-path-2);}.cls-6{fill:url(#linear-gradient);}.cls-17,.cls-19,.cls-24,.cls-28,.cls-7{opacity:0.5;}.cls-14,.cls-17,.cls-24,.cls-28,.cls-7{mix-blend-mode:screen;}.cls-7,.cls-8{fill:url(#radial-gradient);}.cls-18,.cls-25,.cls-29,.cls-8{opacity:0.9;}.cls-10,.cls-13,.cls-18,.cls-19,.cls-20,.cls-25,.cls-29,.cls-8{mix-blend-mode:overlay;}.cls-9{fill:#000001;}.cls-10,.cls-20{opacity:0.3;}.cls-10{fill:url(#linear-gradient-2);}.cls-11{fill:#fff;}.cls-12{fill:#ffde39;}.cls-13,.cls-14{fill:url(#radial-gradient-3);}.cls-14{opacity:0.7;}.cls-15{clip-path:url(#clip-path-3);}.cls-16{fill:url(#linear-gradient-3);}.cls-17,.cls-18{fill:url(#radial-gradient-5);}.cls-19{fill:url(#linear-gradient-4);}.cls-20{fill:url(#linear-gradient-5);}.cls-21{clip-path:url(#clip-path-4);}.cls-22{clip-path:url(#clip-path-5);}.cls-23{fill:url(#linear-gradient-6);}.cls-24,.cls-25{fill:url(#radial-gradient-7);}.cls-26{clip-path:url(#clip-path-6);}.cls-27{fill:url(#linear-gradient-7);}.cls-28,.cls-29{fill:url(#radial-gradient-9);}</style><clipPath id="clip-path"><rect class="cls-1" width="750" height="500"/></clipPath><clipPath id="clip-path-2"><rect class="cls-1" y="412.96" width="750" height="298.07"/></clipPath><linearGradient id="linear-gradient" x1="375" y1="1.27" x2="375" y2="-295.98" gradientTransform="matrix(1, 0, 0, -1, 0, 412.96)" gradientUnits="userSpaceOnUse"><stop offset="0" stop-color="#5277bd"/><stop offset="0.03" stop-color="#4e6eb0"/><stop offset="0.08" stop-color="#465c95"/><stop offset="0.15" stop-color="#404f82"/><stop offset="0.21" stop-color="#3c4877"/><stop offset="0.28" stop-color="#3b4573"/><stop offset="0.64" stop-color="#222a4a"/><stop offset="0.83" stop-color="#0f1f3b"/><stop offset="0.88" stop-color="#0d1b33"/><stop offset="0.94" stop-color="#070f1f"/><stop offset="1" stop-color="#000004"/></linearGradient><radialGradient id="radial-gradient" cx="373" cy="23.81" r="533.19" gradientTransform="matrix(1, 0, 0, -0.72, 0, 412.81)" xlink:href="#linear-gradient"/><linearGradient id="linear-gradient-2" x1="413.18" y1="-113" x2="358.28" y2="-53.88" gradientTransform="matrix(1, 0, 0, -1, 0, 412.96)" gradientUnits="userSpaceOnUse"><stop offset="0" stop-color="#fff"/><stop offset="1" stop-color="#fff" stop-opacity="0"/></linearGradient><radialGradient id="radial-gradient-3" cx="384" cy="300.6" r="277.27" gradientTransform="translate(0 -439.73) scale(1 2.06)" xlink:href="#linear-gradient-2"/><clipPath id="clip-path-3"><rect class="cls-1" width="750" height="412.96"/></clipPath><linearGradient id="linear-gradient-3" x1="375" y1="414.72" x2="375" y2="2.89" gradientTransform="matrix(1, 0, 0, 1, 0, 0)" xlink:href="#linear-gradient"/><radialGradient id="radial-gradient-5" cx="373" cy="436.98" r="533.19" gradientTransform="matrix(1, 0, 0, 1, 0, 0)" xlink:href="#linear-gradient"/><linearGradient id="linear-gradient-4" x1="207.75" y1="144.39" x2="274.87" y2="69.87" gradientTransform="matrix(1, 0, 0, 1, 0, 0)" xlink:href="#linear-gradient-2"/><linearGradient id="linear-gradient-5" x1="420.59" y1="258.9" x2="349.09" y2="335.9" gradientTransform="matrix(1, 0, 0, 1, 0, 0)" xlink:href="#linear-gradient-2"/><clipPath id="clip-path-4"><rect class="cls-1" x="-539.34" width="500" height="500.46"/></clipPath><clipPath id="clip-path-5"><rect class="cls-1" x="-664.34" y="412.96" width="750" height="298.07"/></clipPath><linearGradient id="linear-gradient-6" x1="-289.34" y1="1.27" x2="-289.34" y2="-295.98" xlink:href="#linear-gradient"/><radialGradient id="radial-gradient-7" cx="-291.34" cy="23.81" r="533.19" gradientTransform="matrix(1, 0, 0, -0.72, 0, 412.81)" xlink:href="#linear-gradient"/><clipPath id="clip-path-6"><rect class="cls-1" x="-664.34" width="750" height="412.96"/></clipPath><linearGradient id="linear-gradient-7" x1="-289.34" y1="414.72" x2="-289.34" y2="2.89" gradientTransform="matrix(1, 0, 0, 1, 0, 0)" xlink:href="#linear-gradient"/><radialGradient id="radial-gradient-9" cx="-291.34" cy="436.98" r="533.19" gradientTransform="matrix(1, 0, 0, 1, 0, 0)" xlink:href="#linear-gradient"/><symbol id="New_Symbol" data-name="New Symbol" viewBox="0 0 1.12 1.12"><circle class="cls-2" cx="0.56" cy="0.56" r="0.56"/></symbol></defs><title>Artboard 2</title><g class="cls-3"><g id="Background_1" data-name="Background 1"><g class="cls-4"><g class="cls-5"><rect class="cls-6" y="412.96" width="750" height="298.07"/><rect class="cls-7" y="412.96" width="750" height="298.07"/><rect class="cls-8" y="412.96" width="750" height="298.07"/><path class="cls-9" d="M750,511.15s-23,11.16-34.3,11.16-34.36-19.85-40.36-20.21-22-3.25-23.5-3.61-2-2.52-4-2.89-15.58-4.21-18.08-4.57-13-12.63-15-12.63-37-3.25-40-4.33-17.5-12.27-20-12.63-6,.72-8,0-4.5-2.17-6-2.89-17.5-7.22-19-7.22-4-6.13-4-6.13h-8.5l-6.5-5.78h-4.5s-4-6.13-7-6.13-9,1.08-10.5,0-10.42,2.41-11.42,1.32-8.5,2.17-10,2.17-17-10.11-19.5-10.47-23.5,3.61-26,3.25-15.5-9.38-17.5-9-16,7.22-18,6.86-5-2.53-6.5-2.53-14,3.25-15.5,3.25-13-3.61-15-3.61-30.5,8.3-32,7.94-7.5-3.61-9.5-4-10.5,3.25-10.5,3.25l-16.5-.72s-12.5,5.77-14,5.77-6-.72-6-.72l-13.5,4.33s-5,.36-6.5,0-15.5,5.05-17,5.41-7,5.05-9,5.42-9-.73-9-.73-12-2.52-14-2.88-17.5,2.88-19,2.88-14.5,9.39-16.5,10.11-18.5-5.41-20-5.05-27.5,16.23-31,15.87-11,1.08-13,0-28,10.47-31,10.47-22.5-7.94-27-8.66S0,492.72,0,492.72V413H750Z"/><path class="cls-10" d="M475.32,433.05a24.54,24.54,0,0,1-6.86,6.31c-3.06,1.71-6.88,2.5-10.34,3.75s-6.84,3.25-7.43,6c-.35,1.58.26,3.27-.61,4.74-1.19,2-4.68,2.88-5.82,4.89s.42,4.11.64,6.21-2.71,4.68-5,3.42c1.1-.72-1.07-1.85-2.37-1.35s-2,1.63-3.33,2.08c-2.18.71-5.83-.26-6.43,1.41-.24.67.33,1.33.53,2,.52,1.73-1.52,3.38-3.79,4s-4.79.68-7.17,1.12c-6.51,1.2-11.4,5.94-11.14,10.79.09,1.78.77,3.69-.37,5.27-2.19,3-9.72,3.54-11.29,6.76-1.2,2.44-4.88,4.12-8.45,3.85a3.22,3.22,0,0,0-2.15.25c-.47.39-.29,1-.34,1.47-.13,1.18-1.64,2.05-3.18,2.46s-3.21.52-4.7,1c-7.48,2.56-4.47,12.16-11.63,15.17-2.33,1-5.2,1-7.72,1.67-5.53,1.53-8.16,6-10.21,10-1.44,2.82-7.17,2.53-10.61,4.23a10.86,10.86,0,0,0-3.18,2.63q-5.16,5.54-10.31,11.08l-13.56,14.56a28,28,0,0,1-5.82,5.17c-1.54.95-3.32,1.7-4.78,2.71-2.19,1.51-3.58,3.53-5.61,5.14s-5.2,2.86-8,2.11a12.42,12.42,0,0,0,5.41-8.34,6.17,6.17,0,0,1,.57-2.52c1-1.63,3.53-2.34,5.61-3.28,5.27-2.38,8.1-7.28,6.74-11.66-1-3.08-3.65-6.53-1.09-9.09,1.67-1.68,4.87-2,7.72-2.27-1.45-1.78-.21-4.13,1.77-5.62s4.6-2.45,6.68-3.87c5.07-3.47,6-9.66,2-13.82-1.35-1.43-3.18-2.61-4.46-4.07s-2-3.39-.81-4.9,3.51-2.05,5.36-3,3.2-3,1.54-4.2l3.9,1.54c0-.93,1.78-.8,2.81-.24.7-4.36-2.79-8.89-.82-13.05,1.46-3.08,5.5-5.05,8.88-7.21s6.47-5.36,5.09-8.46c-.44-1-1.33-2-1.18-3,.24-1.6,2.8-2.46,5-2.48s4.45.48,6.64.22c3.42-.4,5.88-2.51,8-4.47,1.41-1.28,2.87-2.66,3.15-4.29a14.64,14.64,0,0,0-.2-3.09c-.3-6.19,8.87-11.68,6.4-17.62-1.76-4.23-9-6.79-9.25-11.2-.26-4.91,8.56-8.79,6.66-13.51,8.72-3.24,22.93-2.85,32.74-2.83,31,.07,61.7-6.39,92.5-4.22Z"/><use width="1.12" height="1.12" transform="matrix(1, 0, 0, -0.72, 254.79, 493.74)" xlink:href="#New_Symbol"/><use width="1.12" height="1.12" transform="matrix(1, 0, 0, -0.72, 400.9, 493.71)" xlink:href="#New_Symbol"/><use width="1.12" height="1.12" transform="matrix(1, 0, 0, -0.72, 435.9, 462.18)" xlink:href="#New_Symbol"/><use width="1.12" height="1.12" transform="matrix(1, 0, 0, -0.72, 347.27, 496.73)" xlink:href="#New_Symbol"/><use width="1.12" height="1.12" transform="matrix(1, 0, 0, -0.72, 358.16, 482.27)" xlink:href="#New_Symbol"/><use width="1.12" height="1.12" transform="matrix(1, 0, 0, -0.72, 357.79, 460.72)" xlink:href="#New_Symbol"/><use width="1.12" height="1.12" transform="matrix(1, 0, 0, -0.72, 341.23, 456.16)" xlink:href="#New_Symbol"/><use width="1.12" height="1.12" transform="matrix(1, 0, 0, -0.72, 304.41, 459.84)" xlink:href="#New_Symbol"/><use width="1.12" height="1.12" transform="matrix(1, 0, 0, -0.72, 293.8, 495.78)" xlink:href="#New_Symbol"/><use width="1.12" height="1.12" transform="matrix(1, 0, 0, -0.72, 232.73, 469.81)" xlink:href="#New_Symbol"/><use width="1.12" height="1.12" transform="matrix(1, 0, 0, -0.72, 206.22, 496.22)" xlink:href="#New_Symbol"/><use width="1.12" height="1.12" transform="matrix(1, 0, 0, -0.72, 494.09, 486.22)" xlink:href="#New_Symbol"/><use width="1.12" height="1.12" transform="matrix(1, 0, 0, -0.72, 474.64, 489.08)" xlink:href="#New_Symbol"/><use width="1.12" height="1.12" transform="matrix(1, 0, 0, -0.72, 536.15, 499.57)" xlink:href="#New_Symbol"/><use width="1.12" height="1.12" transform="matrix(1, 0, 0, -0.72, 385.64, 499.29)" xlink:href="#New_Symbol"/><use width="1.12" height="1.12" transform="matrix(1, 0, 0, -0.72, 394.39, 487.77)" xlink:href="#New_Symbol"/><use width="1.12" height="1.12" transform="matrix(1, 0, 0, -0.72, 413.85, 475.63)" xlink:href="#New_Symbol"/><use width="1.12" height="1.12" transform="matrix(1, 0, 0, -0.72, 418.73, 482.22)" xlink:href="#New_Symbol"/><path class="cls-11" d="M385.89,495.65c0-.32-.36-.57-.79-.57s-.79.25-.79.57.35.57.79.57S385.89,496,385.89,495.65Z"/><path class="cls-11" d="M386.8,485.46c0-.31-.35-.57-.79-.57s-.79.26-.79.57.35.57.79.57S386.8,485.78,386.8,485.46Z"/><path class="cls-11" d="M380.06,482.55c0-.32-.35-.57-.79-.57s-.79.25-.79.57.35.57.79.57S380.06,482.86,380.06,482.55Z"/><path class="cls-11" d="M398.63,467.63c0-.31-.36-.57-.79-.57s-.8.26-.8.57.36.57.8.57S398.63,468,398.63,467.63Z"/><path class="cls-11" d="M416.38,455.55c0-.31-.36-.57-.79-.57s-.79.26-.79.57.35.57.79.57S416.38,455.87,416.38,455.55Z"/><path class="cls-11" d="M436.63,451.54c0-.31-.35-.57-.79-.57s-.79.26-.79.57.35.58.79.58S436.63,451.86,436.63,451.54Z"/><path class="cls-11" d="M454.26,457.13c0-.32-.36-.57-.79-.57s-.79.25-.79.57.35.57.79.57S454.26,457.45,454.26,457.13Z"/><path class="cls-11" d="M420.57,445.92c0-.31-.36-.57-.79-.57s-.8.26-.8.57.36.57.8.57S420.57,446.24,420.57,445.92Z"/><path class="cls-11" d="M418.48,472.64c0-.32-.36-.57-.79-.57s-.8.25-.8.57.36.57.8.57S418.48,473,418.48,472.64Z"/><path class="cls-11" d="M438.51,446.42c0-.32-.36-.57-.79-.57s-.79.25-.79.57.35.57.79.57S438.51,446.73,438.51,446.42Z"/><path class="cls-11" d="M448.29,438.77c0-.32-.35-.57-.79-.57s-.79.25-.79.57.35.57.79.57S448.29,439.08,448.29,438.77Z"/><path class="cls-11" d="M463,439.83c0-.31-.35-.57-.79-.57s-.79.26-.79.57.35.57.79.57S463,440.15,463,439.83Z"/><path class="cls-11" d="M435,478.18c0-.31-.35-.57-.79-.57s-.79.26-.79.57.35.57.79.57S435,478.5,435,478.18Z"/><path class="cls-11" d="M378.16,490.21c0-.31-.35-.57-.79-.57s-.79.26-.79.57.35.58.79.58S378.16,490.53,378.16,490.21Z"/><path class="cls-11" d="M382.11,475.73c0-.31-.36-.57-.79-.57s-.8.26-.8.57.36.57.8.57S382.11,476.05,382.11,475.73Z"/><path class="cls-11" d="M392.19,492.86c0-.31-.36-.57-.8-.57s-.79.26-.79.57.36.57.79.57S392.19,493.18,392.19,492.86Z"/><path class="cls-11" d="M406.43,488.07c0-.31-.35-.57-.79-.57s-.79.26-.79.57.35.58.79.58S406.43,488.39,406.43,488.07Z"/><path class="cls-11" d="M357.31,499c0-.31-.35-.57-.79-.57s-.79.26-.79.57.35.57.79.57S357.31,499.32,357.31,499Z"/><path class="cls-11" d="M414,499.86c0-.32-.35-.57-.79-.57s-.79.25-.79.57.35.57.79.57S414,500.18,414,499.86Z"/><path class="cls-11" d="M435.49,484.93c0-.31-.35-.57-.79-.57s-.79.26-.79.57.35.57.79.57S435.49,485.25,435.49,484.93Z"/><path class="cls-11" d="M460,461.32c0-.32-.35-.58-.79-.58s-.79.26-.79.58.36.57.79.57S460,461.63,460,461.32Z"/><path class="cls-11" d="M472.12,453c0-.32-.35-.57-.79-.57s-.79.25-.79.57.35.57.79.57S472.12,453.31,472.12,453Z"/><path class="cls-11" d="M487.23,446.08c0-.32-.35-.57-.79-.57s-.79.25-.79.57.35.57.79.57S487.23,446.39,487.23,446.08Z"/><path class="cls-11" d="M408.34,442.55c0-.32-.35-.58-.79-.58s-.79.26-.79.58.35.57.79.57S408.34,442.86,408.34,442.55Z"/><path class="cls-11" d="M520.51,476.75c0-.32-.35-.57-.79-.57s-.79.25-.79.57.35.57.79.57S520.51,477.06,520.51,476.75Z"/><path class="cls-11" d="M540.53,493c0-.31-.35-.57-.79-.57s-.79.26-.79.57.35.57.79.57S540.53,493.32,540.53,493Z"/><path class="cls-11" d="M254.51,460c0-.32-.36-.57-.79-.57s-.8.25-.8.57.36.57.8.57S254.51,460.3,254.51,460Z"/><path class="cls-12" d="M416.77,476.68c0-.16-.18-.3-.41-.3s-.4.14-.4.3.18.29.4.29S416.77,476.84,416.77,476.68Z"/><path class="cls-12" d="M420.28,461.44c0-.17-.19-.3-.41-.3s-.41.13-.41.3.19.29.41.29S420.28,461.6,420.28,461.44Z"/><path class="cls-12" d="M391.62,464c0-.16-.19-.3-.41-.3s-.41.14-.41.3.18.29.41.29S391.62,464.11,391.62,464Z"/><path class="cls-12" d="M350.6,490.87c0-.16-.18-.29-.4-.29s-.41.13-.41.29.18.3.41.3S350.6,491,350.6,490.87Z"/><path class="cls-12" d="M363.69,464.52c0-.16-.18-.29-.4-.29s-.41.13-.41.29.18.29.41.29S363.69,464.68,363.69,464.52Z"/><path class="cls-12" d="M369.68,453.66c0-.16-.18-.3-.4-.3s-.41.14-.41.3.18.29.41.29S369.68,453.82,369.68,453.66Z"/><path class="cls-12" d="M461.21,484.58c0-.16-.18-.29-.41-.29s-.4.13-.4.29.18.29.4.29S461.21,484.74,461.21,484.58Z"/><path class="cls-12" d="M137.86,488.9c0-.16-.18-.29-.4-.29s-.41.13-.41.29.18.29.41.29S137.86,489.06,137.86,488.9Z"/><path class="cls-12" d="M181.66,477.14c0-.16-.18-.29-.41-.29s-.4.13-.4.29.18.29.4.29S181.66,477.3,181.66,477.14Z"/><path class="cls-12" d="M215.78,477.65c0-.16-.18-.29-.4-.29s-.41.13-.41.29.18.29.41.29S215.78,477.81,215.78,477.65Z"/><path class="cls-12" d="M280.43,477c0-.16-.18-.29-.4-.29s-.41.13-.41.29.18.29.41.29S280.43,477.11,280.43,477Z"/><path class="cls-12" d="M14,496.07c0-.17-.18-.3-.4-.3s-.41.13-.41.3.18.29.41.29S14,496.23,14,496.07Z"/><path class="cls-12" d="M89.48,486.11c0-.16-.18-.29-.4-.29s-.41.13-.41.29.18.3.41.3S89.48,486.27,89.48,486.11Z"/><path class="cls-12" d="M361.89,497.63c0-.16-.18-.29-.41-.29s-.41.13-.41.29.19.29.41.29S361.89,497.79,361.89,497.63Z"/><path class="cls-12" d="M371,488.2c0-.16-.18-.29-.4-.29s-.41.13-.41.29.18.3.41.3S371,488.37,371,488.2Z"/><path class="cls-12" d="M376.52,477.61c0-.16-.18-.3-.4-.3s-.41.14-.41.3.18.29.41.29S376.52,477.77,376.52,477.61Z"/><path class="cls-12" d="M390.06,466.49c0-.16-.18-.29-.4-.29s-.41.13-.41.29.18.3.41.3S390.06,466.66,390.06,466.49Z"/><path class="cls-12" d="M400.61,457.72c0-.16-.18-.29-.4-.29s-.41.13-.41.29.18.29.41.29S400.61,457.88,400.61,457.72Z"/><path class="cls-12" d="M396.09,495.07c0-.16-.18-.3-.4-.3s-.41.14-.41.3.18.29.41.29S396.09,495.23,396.09,495.07Z"/><path class="cls-12" d="M428.63,469.48c0-.17-.19-.3-.41-.3s-.41.13-.41.3.19.29.41.29S428.63,469.64,428.63,469.48Z"/><path class="cls-12" d="M421.45,482c0-.16-.18-.29-.41-.29s-.4.13-.4.29.18.3.4.3S421.45,482.15,421.45,482Z"/><path class="cls-12" d="M439,470.2c0-.17-.18-.3-.4-.3s-.41.13-.41.3.18.29.41.29S439,470.36,439,470.2Z"/><polygon class="cls-11" points="266.35 496.81 269.15 496.99 266.35 497.17 266.1 499.2 265.85 497.17 263.05 496.99 265.85 496.81 266.1 494.79 266.35 496.81"/><polygon class="cls-11" points="189.31 478.34 192.12 478.52 189.31 478.7 189.06 480.73 188.81 478.7 186.01 478.52 188.81 478.34 189.06 476.32 189.31 478.34"/><polygon class="cls-11" points="410.45 482.75 413.25 482.93 410.45 483.11 410.19 485.13 409.94 483.11 407.14 482.93 409.94 482.75 410.19 480.73 410.45 482.75"/><polygon class="cls-11" points="436.52 458.23 439.33 458.41 436.52 458.6 436.27 460.62 436.02 458.6 433.22 458.41 436.02 458.23 436.27 456.21 436.52 458.23"/><polygon class="cls-11" points="453.27 441.28 456.07 441.46 453.27 441.65 453.01 443.67 452.76 441.65 449.96 441.46 452.76 441.28 453.01 439.26 453.27 441.28"/><polygon class="cls-11" points="376.69 480.3 379.5 480.49 376.69 480.67 376.44 482.69 376.19 480.67 373.39 480.49 376.19 480.3 376.44 478.28 376.69 480.3"/><polygon class="cls-11" points="381.2 454.16 384 454.34 381.2 454.52 380.95 456.54 380.69 454.52 377.89 454.34 380.69 454.16 380.95 452.13 381.2 454.16"/></g><ellipse class="cls-13" cx="375" cy="413.46" rx="218.67" ry="39.9"/><ellipse class="cls-14" cx="375" cy="413.46" rx="218.67" ry="39.9"/><g class="cls-15"><rect class="cls-16" width="750" height="412.96"/><rect class="cls-17" width="750" height="412.96"/><rect class="cls-18" width="750" height="412.96"/><path class="cls-9" d="M750,276.93s-23-15.47-34.3-15.47-34.36,27.5-40.36,28-22,4.5-23.5,5-2,3.5-4,4-15.58,5.84-18.08,6.34-13,17.5-15,17.5-37,4.5-40,6-17.5,17-20,17.5-6-1-8,0a62.43,62.43,0,0,0-6,4c-1.5,1-17.5,10-19,10s-4,8.5-4,8.5h-8.5l-6.5,8h-4.5s-4,8.5-7,8.5-9-1.5-10.5,0-10.42-3.34-11.42-1.84-8.5-3-10-3-17,14-19.5,14.5-23.5-5-26-4.5-15.5,13-17.5,12.5-16-10-18-9.5-5,3.5-6.5,3.5-14-4.5-15.5-4.5-13,5-15,5-30.5-11.5-32-11-7.5,5-9.5,5.5-10.5-4.5-10.5-4.5l-16.5,1s-12.5-8-14-8a48.4,48.4,0,0,0-6,1l-13.5-6s-5-.5-6.5,0-15.5-7-17-7.5-7-7-9-7.5-9,1-9,1-12,3.5-14,4-17.5-4-19-4-14.5-13-16.5-14-18.5,7.5-20,7-27.5-22.48-31-22-11-1.49-13,0-28-14.51-31-14.51-22.5,11-27,12S0,302.46,0,302.46V413H750Z"/><path class="cls-19" d="M363,216.71c-3.24.53-5.07-3.44-6.49-6.39s-5.88-5.56-7.47-2.69c-8.84-1.3-11.06-14.67-19.62-17.26a29,29,0,0,1-4.46-1.21,11.55,11.55,0,0,1-4-4.06c-2.12-3-3.78-7.64-6.78-9.77q-9.08-6.39-17.59-13.52l-4.81-2.06a7.69,7.69,0,0,0-2.67-8.24c-3,2.18-7-1-9.34-3.9q-14.19-17.25-30-33.08c-6.35-6.36-13.09-12.67-21.37-16.14-2.63-1.1-5.61-2.09-7-4.56s-1.28-6.22-3.93-7.19-6.47,1.25-7.39-1.26c-.56-1.55,1.11-3,1.18-4.7.14-3.25-4.68-3.38-7.77-4.43-3.57-1.21-5.57-4.88-8.07-7.71s-7.05-4.93-9.86-2.41c-.92-2.1-3.77-4.24-4.78-6.3l-1.83-3.7a4.58,4.58,0,0,1-4.82,1.44q-2.7-5.39-5.39-10.78a4.94,4.94,0,0,0-1.87-2.36c-1.45-.75-3.17.09-4.76.43-5.85,1.27-10.74-4.08-15.19-8.08s-9.38-6.86-13.29-11.11S127,15.28,129,9.84c.44-1.22-.22-4.68-.28-6A12.69,12.69,0,0,1,117.41,0h37.43c2,.34,3.95.65,5.9,1A87,87,0,0,1,199.56,19.4c5.83,4.84,11.93,10.82,19.51,10.6,5.21-.14,9.85-3.28,14.94-4.4s11.93,1.31,12,6.53c2.65-5.6,11.72-3.79,15.32,1.25s4.05,11.64,6.61,17.28c5,11,18,18.84,17.56,30.91l5,1c3.83,6.9-7.68,17.75-1,22,5,3.18,11.86-1.41,17.29-3.83,3.51-1.57,7.57,2,8.07,5.77s-1.35,7.48-3.12,10.89-3.56,7.13-2.93,10.92a19,19,0,0,0,.64,2.44l1.5,4.79c1.84,5.9,5,12.9,11.15,13.35,2.65.2,5.26-1,7.91-.82s5.52,2.82,4.25,5.16c-1.12,2.06-4.92,3.08-4,5.23,2.47,3.2,2.5,7.6,2.41,11.65.87-2.16,4.3-2.07,5.77-.27s1.41,4.39.91,6.66-1.37,4.5-1.26,6.82a8.33,8.33,0,0,0,4.09,6.71c-.93,3.37,1.33,7,4.35,8.7s6.64,2.05,10.12,2.29A34.74,34.74,0,0,1,363,216.71Z"/><path class="cls-20" d="M475.32,385.12c-1.92-3.19-3.91-6.46-6.86-8.74s-6.88-3.46-10.34-5.19-6.84-4.5-7.43-8.32c-.35-2.19.26-4.54-.61-6.57-1.19-2.77-4.68-4-5.82-6.78s.42-5.69.64-8.59-2.71-6.49-5-4.74c1.1,1-1.07,2.56-2.37,1.86s-2-2.26-3.33-2.87c-2.18-1-5.83.35-6.43-2-.24-.93.33-1.85.53-2.79.52-2.4-1.52-4.68-3.79-5.6s-4.79-.94-7.17-1.55a15.3,15.3,0,0,1-11.14-14.94c.09-2.48.77-5.12-.37-7.31-2.19-4.19-9.72-4.91-11.29-9.36a8.33,8.33,0,0,0-8.45-5.34c-.76.08-1.65.22-2.15-.35s-.29-1.33-.34-2c-.13-1.64-1.64-2.84-3.18-3.4s-3.21-.73-4.7-1.44c-7.48-3.55-4.47-16.85-11.63-21-2.33-1.36-5.2-1.34-7.72-2.31-5.53-2.12-8.16-8.3-10.21-13.86-1.44-3.91-7.17-3.52-10.61-5.86a12.83,12.83,0,0,1-3.18-3.65q-5.16-7.66-10.31-15.35l-13.56-20.18a33.86,33.86,0,0,0-5.82-7.16c-1.54-1.32-3.32-2.36-4.78-3.76-2.19-2.09-3.58-4.88-5.61-7.12s-5.2-4-8-2.91a18.76,18.76,0,0,1,5.41,11.55,11.34,11.34,0,0,0,.57,3.49c1,2.25,3.53,3.24,5.61,4.54a15.56,15.56,0,0,1,6.74,16.16c-1,4.27-3.65,9-1.09,12.59,1.67,2.33,4.87,2.83,7.72,3.15-1.45,2.46-.21,5.72,1.77,7.78s4.6,3.4,6.68,5.37a15.31,15.31,0,0,1,2,19.15c-1.35,2-3.18,3.6-4.46,5.62s-2,4.71-.81,6.8,3.51,2.84,5.36,4.19,3.2,4.23,1.54,5.81l3.9-2.13c0,1.29,1.78,1.11,2.81.33.7,6.05-2.79,12.32-.82,18.08,1.46,4.27,5.5,7,8.88,10s6.47,7.42,5.09,11.72c-.44,1.39-1.33,2.71-1.18,4.15.24,2.21,2.8,3.41,5,3.44s4.45-.67,6.64-.31c3.42.56,5.88,3.47,8,6.18,1.41,1.79,2.87,3.7,3.15,5.95a28,28,0,0,1-.2,4.28c-.3,8.58,8.87,16.19,6.4,24.41-1.76,5.87-9,9.41-9.25,15.53-.26,6.8,8.56,12.17,6.66,18.71,8.72,4.49,22.93,4,32.74,3.92,31-.1,61.7,8.86,92.5,5.84Q483.49,398.67,475.32,385.12Z"/><use width="1.12" height="1.12" transform="translate(279.42 166.58)" xlink:href="#New_Symbol"/><use width="1.12" height="1.12" transform="translate(300.85 165.46)" xlink:href="#New_Symbol"/><use width="1.12" height="1.12" transform="translate(292.42 174.49)" xlink:href="#New_Symbol"/><use width="1.12" height="1.12" transform="translate(276.37 176.9)" xlink:href="#New_Symbol"/><use width="1.12" height="1.12" transform="translate(266.95 169.91)" xlink:href="#New_Symbol"/><use width="1.12" height="1.12" transform="translate(268.06 149.85)" xlink:href="#New_Symbol"/><use width="1.12" height="1.12" transform="translate(283.81 138.52)" xlink:href="#New_Symbol"/><use width="1.12" height="1.12" transform="translate(300.26 130.1)" xlink:href="#New_Symbol"/><use width="1.12" height="1.12" transform="translate(312.77 95.87)" xlink:href="#New_Symbol"/><use width="1.12" height="1.12" transform="translate(331.44 104.87)" xlink:href="#New_Symbol"/><use width="1.12" height="1.12" transform="translate(328.08 120.6)" xlink:href="#New_Symbol"/><use width="1.12" height="1.12" transform="translate(333.2 127.36)" xlink:href="#New_Symbol"/><use width="1.12" height="1.12" transform="translate(320.68 86.37)" xlink:href="#New_Symbol"/><use width="1.12" height="1.12" transform="translate(295.95 69.84)" xlink:href="#New_Symbol"/><use width="1.12" height="1.12" transform="translate(253.28 76.57)" xlink:href="#New_Symbol"/><use width="1.12" height="1.12" transform="translate(270.03 56.36)" xlink:href="#New_Symbol"/><use width="1.12" height="1.12" transform="translate(270.85 42.95)" xlink:href="#New_Symbol"/><use width="1.12" height="1.12" transform="translate(249.18 36.89)" xlink:href="#New_Symbol"/><use width="1.12" height="1.12" transform="translate(164 16.62)" xlink:href="#New_Symbol"/><use width="1.12" height="1.12" transform="translate(158.67 24.32)" xlink:href="#New_Symbol"/><use width="1.12" height="1.12" transform="translate(119.31 30.61)" xlink:href="#New_Symbol"/><use width="1.12" height="1.12" transform="translate(108.02 13.53)" xlink:href="#New_Symbol"/><use width="1.12" height="1.12" transform="translate(105.81 8.51)" xlink:href="#New_Symbol"/><use width="1.12" height="1.12" transform="translate(38.61 17.74)" xlink:href="#New_Symbol"/><use width="1.12" height="1.12" transform="translate(25.24 21.36)" xlink:href="#New_Symbol"/><use width="1.12" height="1.12" transform="translate(31.27 58.18)" xlink:href="#New_Symbol"/><use width="1.12" height="1.12" transform="translate(28.74 76.71)" xlink:href="#New_Symbol"/><use width="1.12" height="1.12" transform="translate(42.92 69.13)" xlink:href="#New_Symbol"/><use width="1.12" height="1.12" transform="translate(60.9 47.79)" xlink:href="#New_Symbol"/><use width="1.12" height="1.12" transform="translate(72.3 37.59)" xlink:href="#New_Symbol"/><use width="1.12" height="1.12" transform="translate(127.05 43.02)" xlink:href="#New_Symbol"/><use width="1.12" height="1.12" transform="translate(134.35 58.71)" xlink:href="#New_Symbol"/><use width="1.12" height="1.12" transform="translate(99.78 83.79)" xlink:href="#New_Symbol"/><use width="1.12" height="1.12" transform="translate(57.29 120.4)" xlink:href="#New_Symbol"/><use width="1.12" height="1.12" transform="translate(32.7 146.93)" xlink:href="#New_Symbol"/><use width="1.12" height="1.12" transform="translate(48.1 156.94)" xlink:href="#New_Symbol"/><use width="1.12" height="1.12" transform="translate(80.31 148.92)" xlink:href="#New_Symbol"/><use width="1.12" height="1.12" transform="translate(115.15 129.74)" xlink:href="#New_Symbol"/><use width="1.12" height="1.12" transform="translate(139.02 122.99)" xlink:href="#New_Symbol"/><use width="1.12" height="1.12" transform="translate(168.37 111.03)" xlink:href="#New_Symbol"/><use width="1.12" height="1.12" transform="translate(173.18 88.8)" xlink:href="#New_Symbol"/><use width="1.12" height="1.12" transform="translate(205.91 92.73)" xlink:href="#New_Symbol"/><use width="1.12" height="1.12" transform="translate(213.34 120.59)" xlink:href="#New_Symbol"/><use width="1.12" height="1.12" transform="translate(204.09 138.44)" xlink:href="#New_Symbol"/><use width="1.12" height="1.12" transform="translate(170.76 149.65)" xlink:href="#New_Symbol"/><use width="1.12" height="1.12" transform="translate(145.14 160.92)" xlink:href="#New_Symbol"/><use width="1.12" height="1.12" transform="translate(114.41 180.16)" xlink:href="#New_Symbol"/><use width="1.12" height="1.12" transform="translate(61.07 211.07)" xlink:href="#New_Symbol"/><use width="1.12" height="1.12" transform="translate(42.08 229.54)" xlink:href="#New_Symbol"/><use width="1.12" height="1.12" transform="translate(73.28 235.56)" xlink:href="#New_Symbol"/><use width="1.12" height="1.12" transform="translate(99.47 225.29)" xlink:href="#New_Symbol"/><use width="1.12" height="1.12" transform="translate(110.7 187.6)" xlink:href="#New_Symbol"/><use width="1.12" height="1.12" transform="translate(105.87 155.54)" xlink:href="#New_Symbol"/><use width="1.12" height="1.12" transform="translate(144.2 133.58)" xlink:href="#New_Symbol"/><use width="1.12" height="1.12" transform="translate(160.97 121.21)" xlink:href="#New_Symbol"/><use width="1.12" height="1.12" transform="translate(123.77 83.83)" xlink:href="#New_Symbol"/><use width="1.12" height="1.12" transform="translate(141.59 82.25)" xlink:href="#New_Symbol"/><use width="1.12" height="1.12" transform="translate(115.89 102.82)" xlink:href="#New_Symbol"/><use width="1.12" height="1.12" transform="translate(90.35 112.45)" xlink:href="#New_Symbol"/><use width="1.12" height="1.12" transform="translate(241.19 108.34)" xlink:href="#New_Symbol"/><use width="1.12" height="1.12" transform="translate(229.36 92.61)" xlink:href="#New_Symbol"/><use width="1.12" height="1.12" transform="translate(207.42 47.8)" xlink:href="#New_Symbol"/><use width="1.12" height="1.12" transform="translate(211.55 32.14)" xlink:href="#New_Symbol"/><use width="1.12" height="1.12" transform="translate(225.05 31.98)" xlink:href="#New_Symbol"/><use width="1.12" height="1.12" transform="translate(179.62 73.67)" xlink:href="#New_Symbol"/><use width="1.12" height="1.12" transform="translate(235.84 188.28)" xlink:href="#New_Symbol"/><use width="1.12" height="1.12" transform="translate(206.64 197.88)" xlink:href="#New_Symbol"/><use width="1.12" height="1.12" transform="translate(181.84 205.71)" xlink:href="#New_Symbol"/><use width="1.12" height="1.12" transform="translate(168.38 228.95)" xlink:href="#New_Symbol"/><use width="1.12" height="1.12" transform="translate(179.13 241.46)" xlink:href="#New_Symbol"/><use width="1.12" height="1.12" transform="translate(215.44 231)" xlink:href="#New_Symbol"/><use width="1.12" height="1.12" transform="translate(196.95 172.82)" xlink:href="#New_Symbol"/><use width="1.12" height="1.12" transform="translate(140.61 224.8)" xlink:href="#New_Symbol"/><use width="1.12" height="1.12" transform="translate(122.88 266.84)" xlink:href="#New_Symbol"/><use width="1.12" height="1.12" transform="translate(114.99 286.92)" xlink:href="#New_Symbol"/><use width="1.12" height="1.12" transform="translate(53.24 288.46)" xlink:href="#New_Symbol"/><use width="1.12" height="1.12" transform="translate(238.64 236.77)" xlink:href="#New_Symbol"/><use width="1.12" height="1.12" transform="translate(254.79 301.04)" xlink:href="#New_Symbol"/><use width="1.12" height="1.12" transform="translate(337.9 259.69)" xlink:href="#New_Symbol"/><use width="1.12" height="1.12" transform="translate(366.43 274.63)" xlink:href="#New_Symbol"/><use width="1.12" height="1.12" transform="translate(383.13 287.07)" xlink:href="#New_Symbol"/><use width="1.12" height="1.12" transform="translate(400.9 301.09)" xlink:href="#New_Symbol"/><use width="1.12" height="1.12" transform="translate(435.9 344.77)" xlink:href="#New_Symbol"/><use width="1.12" height="1.12" transform="translate(386.13 258.4)" xlink:href="#New_Symbol"/><use width="1.12" height="1.12" transform="translate(374.82 241.45)" xlink:href="#New_Symbol"/><use width="1.12" height="1.12" transform="translate(376.01 220.3)" xlink:href="#New_Symbol"/><use width="1.12" height="1.12" transform="translate(393.09 209.39)" xlink:href="#New_Symbol"/><use width="1.12" height="1.12" transform="translate(347.27 296.91)" xlink:href="#New_Symbol"/><use width="1.12" height="1.12" transform="translate(358.16 316.93)" xlink:href="#New_Symbol"/><use width="1.12" height="1.12" transform="translate(357.79 346.79)" xlink:href="#New_Symbol"/><use width="1.12" height="1.12" transform="translate(341.23 353.1)" xlink:href="#New_Symbol"/><use width="1.12" height="1.12" transform="translate(304.41 348.01)" xlink:href="#New_Symbol"/><use width="1.12" height="1.12" transform="translate(293.8 298.21)" xlink:href="#New_Symbol"/><use width="1.12" height="1.12" transform="translate(232.73 334.19)" xlink:href="#New_Symbol"/><use width="1.12" height="1.12" transform="translate(299.21 231.17)" xlink:href="#New_Symbol"/><use width="1.12" height="1.12" transform="translate(206.22 297.6)" xlink:href="#New_Symbol"/><use width="1.12" height="1.12" transform="translate(308.61 251.17)" xlink:href="#New_Symbol"/><use width="1.12" height="1.12" transform="translate(431.19 249.75)" xlink:href="#New_Symbol"/><use width="1.12" height="1.12" transform="translate(453.57 249.67)" xlink:href="#New_Symbol"/><use width="1.12" height="1.12" transform="translate(445.6 227.51)" xlink:href="#New_Symbol"/><use width="1.12" height="1.12" transform="translate(392.95 191.17)" xlink:href="#New_Symbol"/><use width="1.12" height="1.12" transform="translate(391.01 160.55)" xlink:href="#New_Symbol"/><use width="1.12" height="1.12" transform="translate(391.62 142.93)" xlink:href="#New_Symbol"/><use width="1.12" height="1.12" transform="translate(335.01 34.22)" xlink:href="#New_Symbol"/><use width="1.12" height="1.12" transform="translate(383.67 34.56)" xlink:href="#New_Symbol"/><use width="1.12" height="1.12" transform="translate(411.9 45.36)" xlink:href="#New_Symbol"/><use width="1.12" height="1.12" transform="translate(426.91 69.77)" xlink:href="#New_Symbol"/><use width="1.12" height="1.12" transform="translate(372.25 93.33)" xlink:href="#New_Symbol"/><use width="1.12" height="1.12" transform="translate(340.13 74.7)" xlink:href="#New_Symbol"/><use width="1.12" height="1.12" transform="translate(380.75 43.88)" xlink:href="#New_Symbol"/><use width="1.12" height="1.12" transform="translate(390.68 46.45)" xlink:href="#New_Symbol"/><use width="1.12" height="1.12" transform="translate(348.03 56.16)" xlink:href="#New_Symbol"/><use width="1.12" height="1.12" transform="translate(296.17 23.3)" xlink:href="#New_Symbol"/><use width="1.12" height="1.12" transform="translate(318.74 17.67)" xlink:href="#New_Symbol"/><use width="1.12" height="1.12" transform="translate(350.96 18.78)" xlink:href="#New_Symbol"/><use width="1.12" height="1.12" transform="translate(315.58 41.54)" xlink:href="#New_Symbol"/><use width="1.12" height="1.12" transform="translate(469.21 31.82)" xlink:href="#New_Symbol"/><use width="1.12" height="1.12" transform="translate(489.55 31.01)" xlink:href="#New_Symbol"/><use width="1.12" height="1.12" transform="translate(555.25 35.16)" xlink:href="#New_Symbol"/><use width="1.12" height="1.12" transform="translate(561.55 31.34)" xlink:href="#New_Symbol"/><use width="1.12" height="1.12" transform="translate(651.13 30.04)" xlink:href="#New_Symbol"/><use width="1.12" height="1.12" transform="translate(667.43 26.9)" xlink:href="#New_Symbol"/><use width="1.12" height="1.12" transform="translate(687.38 20.52)" xlink:href="#New_Symbol"/><use width="1.12" height="1.12" transform="translate(699.08 21.55)" xlink:href="#New_Symbol"/><use width="1.12" height="1.12" transform="translate(709.93 31.98)" xlink:href="#New_Symbol"/><use width="1.12" height="1.12" transform="translate(724.07 60.2)" xlink:href="#New_Symbol"/><use width="1.12" height="1.12" transform="translate(718.68 74.01)" xlink:href="#New_Symbol"/><use width="1.12" height="1.12" transform="translate(697.12 60.56)" xlink:href="#New_Symbol"/><use width="1.12" height="1.12" transform="translate(685.67 44.94)" xlink:href="#New_Symbol"/><use width="1.12" height="1.12" transform="translate(715.44 29.12)" xlink:href="#New_Symbol"/><use width="1.12" height="1.12" transform="translate(726.05 17.72)" xlink:href="#New_Symbol"/><use width="1.12" height="1.12" transform="translate(585.86 11.23)" xlink:href="#New_Symbol"/><use width="1.12" height="1.12" transform="translate(547.31 18.79)" xlink:href="#New_Symbol"/><use width="1.12" height="1.12" transform="translate(511.33 10.64)" xlink:href="#New_Symbol"/><use width="1.12" height="1.12" transform="translate(440.05 10.07)" xlink:href="#New_Symbol"/><use width="1.12" height="1.12" transform="translate(541.9 66.16)" xlink:href="#New_Symbol"/><use width="1.12" height="1.12" transform="translate(567.33 90.83)" xlink:href="#New_Symbol"/><use width="1.12" height="1.12" transform="translate(628.7 70.76)" xlink:href="#New_Symbol"/><use width="1.12" height="1.12" transform="translate(649.08 83.3)" xlink:href="#New_Symbol"/><use width="1.12" height="1.12" transform="translate(659.19 131.75)" xlink:href="#New_Symbol"/><use width="1.12" height="1.12" transform="translate(681.45 147.07)" xlink:href="#New_Symbol"/><use width="1.12" height="1.12" transform="translate(706.82 151.08)" xlink:href="#New_Symbol"/><use width="1.12" height="1.12" transform="translate(712.7 186.51)" xlink:href="#New_Symbol"/><use width="1.12" height="1.12" transform="translate(712.75 212.01)" xlink:href="#New_Symbol"/><use width="1.12" height="1.12" transform="translate(699.23 223.47)" xlink:href="#New_Symbol"/><use width="1.12" height="1.12" transform="translate(615.38 256.1)" xlink:href="#New_Symbol"/><use width="1.12" height="1.12" transform="translate(623.58 235.41)" xlink:href="#New_Symbol"/><use width="1.12" height="1.12" transform="translate(661.39 185.73)" xlink:href="#New_Symbol"/><use width="1.12" height="1.12" transform="translate(614.46 188.71)" xlink:href="#New_Symbol"/><use width="1.12" height="1.12" transform="translate(580.63 218.17)" xlink:href="#New_Symbol"/><use width="1.12" height="1.12" transform="translate(612.35 159.97)" xlink:href="#New_Symbol"/><use width="1.12" height="1.12" transform="translate(537.91 163.09)" xlink:href="#New_Symbol"/><use width="1.12" height="1.12" transform="translate(509.5 129.92)" xlink:href="#New_Symbol"/><use width="1.12" height="1.12" transform="translate(486.03 128.74)" xlink:href="#New_Symbol"/><use width="1.12" height="1.12" transform="translate(518.09 91.31)" xlink:href="#New_Symbol"/><use width="1.12" height="1.12" transform="translate(446.95 148.39)" xlink:href="#New_Symbol"/><use width="1.12" height="1.12" transform="translate(450.18 173.69)" xlink:href="#New_Symbol"/><use width="1.12" height="1.12" transform="translate(493.21 148.8)" xlink:href="#New_Symbol"/><use width="1.12" height="1.12" transform="translate(453.9 103.05)" xlink:href="#New_Symbol"/><use width="1.12" height="1.12" transform="translate(418.81 110.86)" xlink:href="#New_Symbol"/><use width="1.12" height="1.12" transform="translate(479.89 84.78)" xlink:href="#New_Symbol"/><use width="1.12" height="1.12" transform="translate(501.09 185.86)" xlink:href="#New_Symbol"/><use width="1.12" height="1.12" transform="translate(529.61 186.93)" xlink:href="#New_Symbol"/><use width="1.12" height="1.12" transform="translate(501.15 223.58)" xlink:href="#New_Symbol"/><use width="1.12" height="1.12" transform="translate(514.13 261.34)" xlink:href="#New_Symbol"/><use width="1.12" height="1.12" transform="translate(554.47 273.43)" xlink:href="#New_Symbol"/><use width="1.12" height="1.12" transform="translate(540.15 232.72)" xlink:href="#New_Symbol"/><use width="1.12" height="1.12" transform="translate(494.09 311.47)" xlink:href="#New_Symbol"/><use width="1.12" height="1.12" transform="translate(474.64 307.5)" xlink:href="#New_Symbol"/><use width="1.12" height="1.12" transform="translate(472.03 277.8)" xlink:href="#New_Symbol"/><use width="1.12" height="1.12" transform="translate(536.15 292.96)" xlink:href="#New_Symbol"/><use width="1.12" height="1.12" transform="translate(555.67 228.47)" xlink:href="#New_Symbol"/><use width="1.12" height="1.12" transform="translate(544.78 141.32)" xlink:href="#New_Symbol"/><use width="1.12" height="1.12" transform="translate(519.3 164.07)" xlink:href="#New_Symbol"/><use width="1.12" height="1.12" transform="translate(462.39 151.71)" xlink:href="#New_Symbol"/><use width="1.12" height="1.12" transform="translate(418.13 153.77)" xlink:href="#New_Symbol"/><use width="1.12" height="1.12" transform="translate(420.01 132.68)" xlink:href="#New_Symbol"/><use width="1.12" height="1.12" transform="translate(363.72 145.74)" xlink:href="#New_Symbol"/><use width="1.12" height="1.12" transform="translate(380.62 111.9)" xlink:href="#New_Symbol"/><use width="1.12" height="1.12" transform="translate(352.88 173.66)" xlink:href="#New_Symbol"/><use width="1.12" height="1.12" transform="translate(326.74 173.28)" xlink:href="#New_Symbol"/><use width="1.12" height="1.12" transform="translate(321.83 155.01)" xlink:href="#New_Symbol"/><use width="1.12" height="1.12" transform="translate(340.79 209.27)" xlink:href="#New_Symbol"/><use width="1.12" height="1.12" transform="translate(195.77 54.45)" xlink:href="#New_Symbol"/><use width="1.12" height="1.12" transform="translate(221.34 85.8)" xlink:href="#New_Symbol"/><use width="1.12" height="1.12" transform="translate(238.95 86.71)" xlink:href="#New_Symbol"/><use width="1.12" height="1.12" transform="translate(241.87 113.23)" xlink:href="#New_Symbol"/><use width="1.12" height="1.12" transform="translate(234.92 132.71)" xlink:href="#New_Symbol"/><use width="1.12" height="1.12" transform="translate(209.48 111.76)" xlink:href="#New_Symbol"/><use width="1.12" height="1.12" transform="translate(193.92 103.71)" xlink:href="#New_Symbol"/><use width="1.12" height="1.12" transform="translate(159.26 88.95)" xlink:href="#New_Symbol"/><use width="1.12" height="1.12" transform="translate(157.61 53.43)" xlink:href="#New_Symbol"/><use width="1.12" height="1.12" transform="translate(140.64 40.64)" xlink:href="#New_Symbol"/><use width="1.12" height="1.12" transform="translate(209.8 82.5)" xlink:href="#New_Symbol"/><use width="1.12" height="1.12" transform="translate(287.68 131.48)" xlink:href="#New_Symbol"/><use width="1.12" height="1.12" transform="translate(243.82 148.15)" xlink:href="#New_Symbol"/><use width="1.12" height="1.12" transform="translate(252.49 119.57)" xlink:href="#New_Symbol"/><use width="1.12" height="1.12" transform="translate(279.47 118.05)" xlink:href="#New_Symbol"/><use width="1.12" height="1.12" transform="translate(322.7 202.27)" xlink:href="#New_Symbol"/><use width="1.12" height="1.12" transform="translate(320.4 195.44)" xlink:href="#New_Symbol"/><use width="1.12" height="1.12" transform="translate(332.42 203.5)" xlink:href="#New_Symbol"/><use width="1.12" height="1.12" transform="translate(306.9 212.72)" xlink:href="#New_Symbol"/><use width="1.12" height="1.12" transform="translate(281.61 205.38)" xlink:href="#New_Symbol"/><use width="1.12" height="1.12" transform="translate(278.66 190.68)" xlink:href="#New_Symbol"/><use width="1.12" height="1.12" transform="translate(301.92 187.77)" xlink:href="#New_Symbol"/><use width="1.12" height="1.12" transform="translate(327.1 215.92)" xlink:href="#New_Symbol"/><use width="1.12" height="1.12" transform="translate(322.23 207.38)" xlink:href="#New_Symbol"/><use width="1.12" height="1.12" transform="translate(334.79 231.86)" xlink:href="#New_Symbol"/><use width="1.12" height="1.12" transform="translate(309.59 220.25)" xlink:href="#New_Symbol"/><use width="1.12" height="1.12" transform="translate(343.65 238.04)" xlink:href="#New_Symbol"/><use width="1.12" height="1.12" transform="translate(378.94 280.75)" xlink:href="#New_Symbol"/><use width="1.12" height="1.12" transform="translate(385.64 293.36)" xlink:href="#New_Symbol"/><use width="1.12" height="1.12" transform="translate(370.87 268.16)" xlink:href="#New_Symbol"/><use width="1.12" height="1.12" transform="translate(394.39 309.31)" xlink:href="#New_Symbol"/><use width="1.12" height="1.12" transform="translate(413.85 326.14)" xlink:href="#New_Symbol"/><use width="1.12" height="1.12" transform="translate(418.73 317.01)" xlink:href="#New_Symbol"/><use width="1.12" height="1.12" transform="translate(397.12 276.39)" xlink:href="#New_Symbol"/><use width="1.12" height="1.12" transform="translate(370.86 245.5)" xlink:href="#New_Symbol"/><use width="1.12" height="1.12" transform="translate(366.31 213.67)" xlink:href="#New_Symbol"/><use width="1.12" height="1.12" transform="translate(364.6 196.87)" xlink:href="#New_Symbol"/><use width="1.12" height="1.12" transform="translate(359.16 177.43)" xlink:href="#New_Symbol"/><use width="1.12" height="1.12" transform="translate(346.09 153.25)" xlink:href="#New_Symbol"/><use width="1.12" height="1.12" transform="translate(336.65 140.88)" xlink:href="#New_Symbol"/><use width="1.12" height="1.12" transform="translate(331.35 117.83)" xlink:href="#New_Symbol"/><use width="1.12" height="1.12" transform="translate(277.27 76.35)" xlink:href="#New_Symbol"/><use width="1.12" height="1.12" transform="translate(274.99 59.56)" xlink:href="#New_Symbol"/><use width="1.12" height="1.12" transform="translate(210.06 39.62)" xlink:href="#New_Symbol"/><use width="1.12" height="1.12" transform="translate(199.37 61.75)" xlink:href="#New_Symbol"/><use width="1.12" height="1.12" transform="translate(174.1 21.37)" xlink:href="#New_Symbol"/><use width="1.12" height="1.12" transform="translate(186.51 4.82)" xlink:href="#New_Symbol"/><use width="1.12" height="1.12" transform="translate(188.88 13.99)" xlink:href="#New_Symbol"/><use width="1.12" height="1.12" transform="translate(128.96 11.39)" xlink:href="#New_Symbol"/><use width="1.12" height="1.12" transform="translate(171.95 45.42)" xlink:href="#New_Symbol"/><use width="1.12" height="1.12" transform="translate(180.79 48.67)" xlink:href="#New_Symbol"/><use width="1.12" height="1.12" transform="translate(231.23 77.42)" xlink:href="#New_Symbol"/><use width="1.12" height="1.12" transform="translate(338.45 181.58)" xlink:href="#New_Symbol"/><use width="1.12" height="1.12" transform="translate(392.52 254.27)" xlink:href="#New_Symbol"/><use width="1.12" height="1.12" transform="translate(353.54 219.66)" xlink:href="#New_Symbol"/><use width="1.12" height="1.12" transform="translate(315.01 162.99)" xlink:href="#New_Symbol"/><path class="cls-11" d="M354.92,211.35a.79.79,0,1,1-.79-.8A.79.79,0,0,1,354.92,211.35Z"/><path class="cls-11" d="M354.73,67.31a.79.79,0,1,1-.79-.79A.79.79,0,0,1,354.73,67.31Z"/><path class="cls-11" d="M450.49,37.39a.79.79,0,1,1-.79-.8A.79.79,0,0,1,450.49,37.39Z"/><path class="cls-11" d="M479.13,73.19a.79.79,0,1,1-.79-.79A.79.79,0,0,1,479.13,73.19Z"/><path class="cls-11" d="M499.28,109.79a.79.79,0,1,1-.79-.79A.79.79,0,0,1,499.28,109.79Z"/><path class="cls-11" d="M416.78,141.09a.79.79,0,1,1-.79-.79A.79.79,0,0,1,416.78,141.09Z"/><path class="cls-11" d="M376.35,106.45a.79.79,0,1,1-.79-.79A.79.79,0,0,1,376.35,106.45Z"/><path class="cls-11" d="M348.25,107.3a.79.79,0,1,1-.79-.79A.79.79,0,0,1,348.25,107.3Z"/><path class="cls-11" d="M262.83,132.3a.79.79,0,1,1-.79-.8A.79.79,0,0,1,262.83,132.3Z"/><path class="cls-11" d="M251,107.7a.8.8,0,1,1-.8-.79A.79.79,0,0,1,251,107.7Z"/><path class="cls-11" d="M218.32,85.12a.79.79,0,1,1-.79-.79A.79.79,0,0,1,218.32,85.12Z"/><circle class="cls-11" cx="194.35" cy="67.91" r="0.79"/><path class="cls-11" d="M150.56,42.45a.79.79,0,1,1-.79-.79A.79.79,0,0,1,150.56,42.45Z"/><path class="cls-11" d="M154.16,14.54a.79.79,0,1,1-.79-.8A.79.79,0,0,1,154.16,14.54Z"/><circle class="cls-11" cx="182.59" cy="51.4" r="0.79"/><path class="cls-11" d="M111.86,23.11a.79.79,0,1,1-1.58,0,.79.79,0,0,1,1.58,0Z"/><path class="cls-11" d="M106.44,16.16a.8.8,0,1,1-.8-.8A.8.8,0,0,1,106.44,16.16Z"/><path class="cls-11" d="M168,20.94a.79.79,0,1,1-.79-.79A.79.79,0,0,1,168,20.94Z"/><path class="cls-11" d="M180.89,33.77a.79.79,0,1,1-.79-.79A.79.79,0,0,1,180.89,33.77Z"/><path class="cls-11" d="M174.6,58.7a.79.79,0,1,1-.79-.79A.79.79,0,0,1,174.6,58.7Z"/><path class="cls-11" d="M156.55,56.09a.79.79,0,1,1-1.58,0,.79.79,0,1,1,1.58,0Z"/><path class="cls-11" d="M113.7,12.41a.79.79,0,1,1-.79-.79A.79.79,0,0,1,113.7,12.41Z"/><path class="cls-11" d="M240.61,106.34a.79.79,0,0,1-1.58,0,.79.79,0,0,1,1.58,0Z"/><path class="cls-11" d="M273.61,150.65a.8.8,0,1,1-.79-.79A.79.79,0,0,1,273.61,150.65Z"/><path class="cls-11" d="M293.9,170.14a.79.79,0,1,1-.79-.8A.79.79,0,0,1,293.9,170.14Z"/><path class="cls-11" d="M310.15,193.51a.8.8,0,0,1-1.59,0,.8.8,0,0,1,1.59,0Z"/><path class="cls-11" d="M337.84,217.17a.79.79,0,1,1-.79-.8A.8.8,0,0,1,337.84,217.17Z"/><circle class="cls-11" cx="347.5" cy="237.98" r="0.79"/><path class="cls-11" d="M369,269.05a.79.79,0,1,1-.79-.79A.79.79,0,0,1,369,269.05Z"/><path class="cls-11" d="M385.89,298.4a.79.79,0,1,1-.79-.79A.79.79,0,0,1,385.89,298.4Z"/><path class="cls-11" d="M386.8,312.51a.79.79,0,1,1-.79-.79A.79.79,0,0,1,386.8,312.51Z"/><path class="cls-11" d="M345.09,267.07a.79.79,0,1,1-.79-.79A.79.79,0,0,1,345.09,267.07Z"/><path class="cls-11" d="M335.68,255.41a.79.79,0,1,1-.79-.79A.79.79,0,0,1,335.68,255.41Z"/><path class="cls-11" d="M380.06,316.55a.79.79,0,1,1-.79-.79A.79.79,0,0,1,380.06,316.55Z"/><path class="cls-11" d="M398.63,337.22a.8.8,0,1,1-.79-.79A.8.8,0,0,1,398.63,337.22Z"/><path class="cls-11" d="M416.38,354a.79.79,0,1,1-.79-.79A.79.79,0,0,1,416.38,354Z"/><circle class="cls-11" cx="435.84" cy="359.51" r="0.79"/><path class="cls-11" d="M454.26,351.77a.79.79,0,1,1-.79-.8A.8.8,0,0,1,454.26,351.77Z"/><path class="cls-11" d="M420.57,367.29a.8.8,0,1,1-.79-.79A.8.8,0,0,1,420.57,367.29Z"/><path class="cls-11" d="M415.07,280.25a.79.79,0,1,1-.79-.79A.79.79,0,0,1,415.07,280.25Z"/><path class="cls-11" d="M387.53,253.82a.8.8,0,1,1-.8-.79A.8.8,0,0,1,387.53,253.82Z"/><path class="cls-11" d="M418.48,330.28a.8.8,0,1,1-.79-.79A.79.79,0,0,1,418.48,330.28Z"/><path class="cls-11" d="M438.51,366.61a.79.79,0,1,1-.79-.79A.79.79,0,0,1,438.51,366.61Z"/><path class="cls-11" d="M448.29,377.21a.79.79,0,1,1-.79-.79A.79.79,0,0,1,448.29,377.21Z"/><path class="cls-11" d="M463,375.73a.79.79,0,1,1-.79-.79A.79.79,0,0,1,463,375.73Z"/><path class="cls-11" d="M435,322.6a.79.79,0,1,1-.79-.79A.79.79,0,0,1,435,322.6Z"/><circle class="cls-11" cx="39.07" cy="19.05" r="0.79"/><path class="cls-11" d="M16.16,36a.79.79,0,1,1-.79-.79A.79.79,0,0,1,16.16,36Z"/><path class="cls-11" d="M54.51,34.89a.79.79,0,1,1-.79-.79A.79.79,0,0,1,54.51,34.89Z"/><path class="cls-11" d="M46.22,13.53a.79.79,0,1,1-.79-.79A.79.79,0,0,1,46.22,13.53Z"/><path class="cls-11" d="M11.13,15.59a.79.79,0,1,1-.79-.79A.79.79,0,0,1,11.13,15.59Z"/><path class="cls-11" d="M78.41,33.77a.79.79,0,1,1-.79-.79A.79.79,0,0,1,78.41,33.77Z"/><circle class="cls-11" cx="119.53" cy="47.57" r="0.79"/><path class="cls-11" d="M163.43,45.05a.79.79,0,1,1-.79-.79A.79.79,0,0,1,163.43,45.05Z"/><circle class="cls-11" cx="161.45" cy="35.88" r="0.79"/><path class="cls-11" d="M136.39,26.73a.79.79,0,1,1-.79-.8A.79.79,0,0,1,136.39,26.73Z"/><path class="cls-11" d="M122.32,12.28a.79.79,0,1,1-.79-.79A.79.79,0,0,1,122.32,12.28Z"/><path class="cls-11" d="M84.36,18.88a.79.79,0,1,1-.79-.79A.79.79,0,0,1,84.36,18.88Z"/><path class="cls-11" d="M144.39,30.2a.79.79,0,1,1-.79-.79A.79.79,0,0,1,144.39,30.2Z"/><path class="cls-11" d="M176.82,26.52a.8.8,0,1,1-.8-.79A.8.8,0,0,1,176.82,26.52Z"/><circle class="cls-11" cx="183.64" cy="20.11" r="0.79"/><path class="cls-11" d="M198.53,35.14a.79.79,0,1,1-.79-.79A.79.79,0,0,1,198.53,35.14Z"/><path class="cls-11" d="M212.58,58.46a.79.79,0,1,1-1.58,0,.79.79,0,0,1,1.58,0Z"/><path class="cls-11" d="M215.57,67.92a.8.8,0,1,1-.8-.79A.79.79,0,0,1,215.57,67.92Z"/><path class="cls-11" d="M162.18,6.38a.8.8,0,0,1-1.59,0,.8.8,0,0,1,1.59,0Z"/><path class="cls-11" d="M190.72,89.27a.79.79,0,1,1-.79-.79A.79.79,0,0,1,190.72,89.27Z"/><path class="cls-11" d="M227.77,86.37a.8.8,0,1,1-.8-.8A.8.8,0,0,1,227.77,86.37Z"/><path class="cls-11" d="M249.53,101.87a.79.79,0,1,1-.79-.79A.79.79,0,0,1,249.53,101.87Z"/><path class="cls-11" d="M256.7,141.58a.79.79,0,1,1-.79-.79A.79.79,0,0,1,256.7,141.58Z"/><path class="cls-11" d="M236.14,132.47a.79.79,0,1,1-.79-.79A.79.79,0,0,1,236.14,132.47Z"/><path class="cls-11" d="M209.35,96.4a.8.8,0,1,1-.79-.79A.79.79,0,0,1,209.35,96.4Z"/><path class="cls-11" d="M316.69,182.83a.79.79,0,1,1-.79-.79A.79.79,0,0,1,316.69,182.83Z"/><path class="cls-11" d="M334.06,221.43a.8.8,0,1,1-.79-.79A.79.79,0,0,1,334.06,221.43Z"/><circle class="cls-11" cx="301.93" cy="208.52" r="0.79"/><path class="cls-11" d="M287.48,190a.79.79,0,1,1-.79-.79A.79.79,0,0,1,287.48,190Z"/><path class="cls-11" d="M299.89,197a.79.79,0,1,1-.79-.79A.79.79,0,0,1,299.89,197Z"/><path class="cls-11" d="M339.06,250.09a.79.79,0,1,1-.79-.79A.79.79,0,0,1,339.06,250.09Z"/><path class="cls-11" d="M369.56,275.38a.8.8,0,1,1-.8-.79A.79.79,0,0,1,369.56,275.38Z"/><path class="cls-11" d="M378.16,305.93a.79.79,0,1,1-.79-.79A.79.79,0,0,1,378.16,305.93Z"/><path class="cls-11" d="M382.11,326a.8.8,0,0,1-1.59,0,.8.8,0,0,1,1.59,0Z"/><path class="cls-11" d="M392.19,302.26a.8.8,0,1,1-.8-.79A.79.79,0,0,1,392.19,302.26Z"/><path class="cls-11" d="M406.43,308.89a.79.79,0,1,1-.79-.79A.79.79,0,0,1,406.43,308.89Z"/><path class="cls-11" d="M357.31,293.75a.79.79,0,1,1-.79-.79A.79.79,0,0,1,357.31,293.75Z"/><path class="cls-11" d="M352.93,231.17a.79.79,0,1,1-.79-.79A.79.79,0,0,1,352.93,231.17Z"/><path class="cls-11" d="M414,292.57a.79.79,0,1,1-.79-.8A.79.79,0,0,1,414,292.57Z"/><path class="cls-11" d="M354.91,243.49a.79.79,0,1,1-.79-.79A.79.79,0,0,1,354.91,243.49Z"/><path class="cls-11" d="M314.32,216.77a.79.79,0,1,1-1.58,0,.79.79,0,0,1,1.58,0Z"/><path class="cls-11" d="M435.49,313.25a.79.79,0,1,1-.79-.79A.79.79,0,0,1,435.49,313.25Z"/><path class="cls-11" d="M460,346a.79.79,0,1,1-.79-.79A.79.79,0,0,1,460,346Z"/><path class="cls-11" d="M472.12,357.5a.79.79,0,1,1-.79-.79A.79.79,0,0,1,472.12,357.5Z"/><path class="cls-11" d="M487.23,367.08a.79.79,0,1,1-.79-.79A.79.79,0,0,1,487.23,367.08Z"/><path class="cls-11" d="M408.34,372a.79.79,0,1,1-.79-.79A.79.79,0,0,1,408.34,372Z"/><path class="cls-11" d="M58.7,121.77a.79.79,0,1,1-.79-.79A.79.79,0,0,1,58.7,121.77Z"/><path class="cls-11" d="M46.67,173.16a.79.79,0,1,1-.79-.79A.79.79,0,0,1,46.67,173.16Z"/><path class="cls-11" d="M37.74,202.91a.8.8,0,1,1-.79-.79A.8.8,0,0,1,37.74,202.91Z"/><path class="cls-11" d="M142.75,173.54a.79.79,0,1,1-.79-.79A.79.79,0,0,1,142.75,173.54Z"/><circle class="cls-11" cx="135.54" cy="136.21" r="0.79"/><path class="cls-11" d="M101.5,275a.8.8,0,1,1-.8-.8A.8.8,0,0,1,101.5,275Z"/><path class="cls-11" d="M137,266a.79.79,0,1,1-.79-.79A.79.79,0,0,1,137,266Z"/><path class="cls-11" d="M134.25,208.46a.79.79,0,1,1-.79-.79A.79.79,0,0,1,134.25,208.46Z"/><path class="cls-11" d="M79.12,181.49a.79.79,0,1,1-.79-.79A.79.79,0,0,1,79.12,181.49Z"/><path class="cls-11" d="M92.16,228.42a.8.8,0,1,1-.8-.79A.79.79,0,0,1,92.16,228.42Z"/><path class="cls-11" d="M123,203.86a.79.79,0,1,1-.79-.79A.79.79,0,0,1,123,203.86Z"/><path class="cls-11" d="M194,213.18a.8.8,0,1,1-.79-.79A.8.8,0,0,1,194,213.18Z"/><path class="cls-11" d="M204.07,244.86a.79.79,0,1,1-.79-.79A.79.79,0,0,1,204.07,244.86Z"/><path class="cls-11" d="M407.72,129.16a.8.8,0,0,1-1.59,0,.8.8,0,0,1,1.59,0Z"/><path class="cls-11" d="M416.33,72.08a.79.79,0,1,1-.79-.79A.79.79,0,0,1,416.33,72.08Z"/><path class="cls-11" d="M420.41,42.18a.79.79,0,1,1-.79-.79A.79.79,0,0,1,420.41,42.18Z"/><circle class="cls-11" cx="505.64" cy="52.72" r="0.79"/><path class="cls-11" d="M489.47,87a.79.79,0,1,1-.79-.79A.79.79,0,0,1,489.47,87Z"/><path class="cls-11" d="M446.26,79.23a.8.8,0,0,1-1.59,0,.8.8,0,0,1,1.59,0Z"/><path class="cls-11" d="M436.72,90.24a.8.8,0,1,1-.79-.79A.8.8,0,0,1,436.72,90.24Z"/><path class="cls-11" d="M471.6,191.44a.8.8,0,1,1-.8-.79A.79.79,0,0,1,471.6,191.44Z"/><path class="cls-11" d="M496,227.15a.79.79,0,1,1-.79-.8A.79.79,0,0,1,496,227.15Z"/><path class="cls-11" d="M614.72,222a.79.79,0,1,1-.79-.8A.8.8,0,0,1,614.72,222Z"/><circle class="cls-11" cx="684.95" cy="215.69" r="0.79"/><path class="cls-11" d="M708.68,181.84a.79.79,0,1,1-.79-.79A.79.79,0,0,1,708.68,181.84Z"/><path class="cls-11" d="M659.42,179.92a.79.79,0,1,1-.79-.79A.79.79,0,0,1,659.42,179.92Z"/><path class="cls-11" d="M608.76,191.16a.8.8,0,1,1-.8-.79A.8.8,0,0,1,608.76,191.16Z"/><circle class="cls-11" cx="644.35" cy="215.68" r="0.79"/><path class="cls-11" d="M663.38,237.37a.79.79,0,1,1-.79-.79A.79.79,0,0,1,663.38,237.37Z"/><path class="cls-11" d="M680.47,38.66a.79.79,0,1,1-.79-.79A.79.79,0,0,1,680.47,38.66Z"/><path class="cls-11" d="M717.11,25.42a.8.8,0,1,1-.8-.79A.79.79,0,0,1,717.11,25.42Z"/><path class="cls-11" d="M713.49,76a.8.8,0,1,1-.8-.79A.79.79,0,0,1,713.49,76Z"/><circle class="cls-11" cx="679.6" cy="108.97" r="0.79"/><path class="cls-11" d="M653.77,65a.8.8,0,1,1-.79-.79A.8.8,0,0,1,653.77,65Z"/><path class="cls-11" d="M607.36,27.81a.79.79,0,1,1-.79-.79A.79.79,0,0,1,607.36,27.81Z"/><circle class="cls-11" cx="576.32" cy="56.16" r="0.79"/><path class="cls-11" d="M553.44,103.87a.79.79,0,1,1-.79-.79A.79.79,0,0,1,553.44,103.87Z"/><path class="cls-11" d="M591.9,138.12a.8.8,0,1,1-.8-.8A.8.8,0,0,1,591.9,138.12Z"/><path class="cls-11" d="M602.67,99.29a.79.79,0,1,1-.79-.79A.79.79,0,0,1,602.67,99.29Z"/><path class="cls-11" d="M607.68,70.6a.8.8,0,1,1-.8-.79A.8.8,0,0,1,607.68,70.6Z"/><path class="cls-11" d="M573.39,149.51a.79.79,0,1,1-.79-.79A.79.79,0,0,1,573.39,149.51Z"/><path class="cls-11" d="M546.11,119.94a.8.8,0,1,1-.8-.79A.79.79,0,0,1,546.11,119.94Z"/><path class="cls-11" d="M627.13,122.85a.8.8,0,1,1-.79-.79A.79.79,0,0,1,627.13,122.85Z"/><path class="cls-11" d="M646.31,149.42a.79.79,0,1,1-.79-.8A.79.79,0,0,1,646.31,149.42Z"/><path class="cls-11" d="M560.36,175.12a.79.79,0,1,1-.79-.79A.79.79,0,0,1,560.36,175.12Z"/><path class="cls-11" d="M342.37,26a.79.79,0,1,1-.79-.79A.79.79,0,0,1,342.37,26Z"/><circle class="cls-11" cx="289.24" cy="7.6" r="0.79"/><path class="cls-11" d="M259.84,27.91a.8.8,0,1,1-.8-.79A.79.79,0,0,1,259.84,27.91Z"/><path class="cls-11" d="M301.3,61.11a.79.79,0,1,1-.79-.79A.79.79,0,0,1,301.3,61.11Z"/><circle class="cls-11" cx="310.52" cy="106.89" r="0.79"/><path class="cls-11" d="M296.89,73.33a.79.79,0,1,1-.79-.8A.79.79,0,0,1,296.89,73.33Z"/><path class="cls-11" d="M286.84,113.2a.8.8,0,1,1-.8-.79A.8.8,0,0,1,286.84,113.2Z"/><path class="cls-11" d="M389.85,228.11a.79.79,0,1,1-.79-.79A.79.79,0,0,1,389.85,228.11Z"/><path class="cls-11" d="M520.51,324.59a.79.79,0,1,1-.79-.79A.79.79,0,0,1,520.51,324.59Z"/><path class="cls-11" d="M540.53,302.07a.79.79,0,1,1-.79-.8A.79.79,0,0,1,540.53,302.07Z"/><path class="cls-11" d="M228.21,277.33a.79.79,0,1,1-1.58,0,.79.79,0,0,1,1.58,0Z"/><path class="cls-11" d="M254.51,347.82a.8.8,0,1,1-.79-.79A.8.8,0,0,1,254.51,347.82Z"/><path class="cls-11" d="M731.09,195.31a.8.8,0,1,1-.79-.79A.8.8,0,0,1,731.09,195.31Z"/><path class="cls-11" d="M734.9,132.37a.79.79,0,1,1-.79-.79A.79.79,0,0,1,734.9,132.37Z"/><path class="cls-11" d="M736.19,48.52a.79.79,0,1,1-.79-.79A.79.79,0,0,1,736.19,48.52Z"/><path class="cls-11" d="M735.91,19.3a.79.79,0,1,1-.79-.8A.79.79,0,0,1,735.91,19.3Z"/><path class="cls-11" d="M697.5,12.84a.79.79,0,1,1-.79-.79A.79.79,0,0,1,697.5,12.84Z"/><path class="cls-11" d="M715.14,49.41a.8.8,0,1,1-.8-.8A.8.8,0,0,1,715.14,49.41Z"/><path class="cls-11" d="M322.83,208.61a.79.79,0,1,1-.79-.79A.79.79,0,0,1,322.83,208.61Z"/><path class="cls-11" d="M339.53,195a.79.79,0,1,1-.79-.79A.79.79,0,0,1,339.53,195Z"/><path class="cls-12" d="M309.77,251a.41.41,0,0,1-.81,0,.41.41,0,1,1,.81,0Z"/><path class="cls-12" d="M239.58,138.42a.41.41,0,0,1-.41.41.41.41,0,1,1,0-.81A.41.41,0,0,1,239.58,138.42Z"/><path class="cls-12" d="M285.29,197.38a.41.41,0,1,1-.81,0,.41.41,0,0,1,.81,0Z"/><path class="cls-12" d="M293.53,198.08a.42.42,0,0,1-.41.41.41.41,0,0,1,0-.82A.42.42,0,0,1,293.53,198.08Z"/><path class="cls-12" d="M272.31,142.4a.41.41,0,1,1-.41-.41A.4.4,0,0,1,272.31,142.4Z"/><path class="cls-12" d="M198.72,80.12a.41.41,0,1,1-.41-.41A.4.4,0,0,1,198.72,80.12Z"/><path class="cls-12" d="M203.75,105.16a.41.41,0,1,1-.4-.4A.4.4,0,0,1,203.75,105.16Z"/><path class="cls-12" d="M203,59.6a.41.41,0,0,1-.81,0,.41.41,0,1,1,.81,0Z"/><path class="cls-12" d="M154.05,38.88a.41.41,0,1,1-.81,0,.41.41,0,1,1,.81,0Z"/><path class="cls-12" d="M132.11,23.84a.4.4,0,0,1-.41.4.41.41,0,1,1,0-.81A.41.41,0,0,1,132.11,23.84Z"/><path class="cls-12" d="M170.09,21.54a.41.41,0,1,1-.81,0,.41.41,0,0,1,.81,0Z"/><path class="cls-12" d="M207.75,42.4a.41.41,0,1,1-.4-.41A.41.41,0,0,1,207.75,42.4Z"/><path class="cls-12" d="M251.46,117.48a.41.41,0,0,1-.81,0,.41.41,0,1,1,.81,0Z"/><path class="cls-12" d="M318,198.66a.41.41,0,1,1-.41-.41A.4.4,0,0,1,318,198.66Z"/><path class="cls-12" d="M343.48,248.91a.41.41,0,1,1-.81,0,.41.41,0,1,1,.81,0Z"/><path class="cls-12" d="M368.94,270.18a.41.41,0,0,1-.41.4.41.41,0,1,1,0-.81A.41.41,0,0,1,368.94,270.18Z"/><path class="cls-12" d="M416.77,324.68a.41.41,0,1,1-.81,0,.41.41,0,0,1,.81,0Z"/><path class="cls-12" d="M420.28,345.8a.41.41,0,1,1-.41-.4A.41.41,0,0,1,420.28,345.8Z"/><path class="cls-12" d="M391.62,342.32a.41.41,0,0,1-.41.41.41.41,0,0,1-.41-.41.41.41,0,0,1,.41-.41A.42.42,0,0,1,391.62,342.32Z"/><path class="cls-12" d="M350.6,305a.41.41,0,0,1-.81,0,.41.41,0,1,1,.81,0Z"/><path class="cls-12" d="M316.6,264.85a.41.41,0,1,1-.41-.41A.4.4,0,0,1,316.6,264.85Z"/><path class="cls-12" d="M363.69,341.53a.41.41,0,0,1-.81,0,.41.41,0,1,1,.81,0Z"/><path class="cls-12" d="M369.68,356.58a.41.41,0,0,1-.81,0,.41.41,0,1,1,.81,0Z"/><path class="cls-12" d="M461.21,313.74a.41.41,0,1,1-.41-.41A.4.4,0,0,1,461.21,313.74Z"/><path class="cls-12" d="M428.71,268.77a.41.41,0,1,1-.81,0,.41.41,0,1,1,.81,0Z"/><path class="cls-12" d="M430.78,225.7a.41.41,0,1,1-.41-.41A.42.42,0,0,1,430.78,225.7Z"/><path class="cls-12" d="M435.72,184.13a.41.41,0,1,1-.4-.41A.41.41,0,0,1,435.72,184.13Z"/><path class="cls-12" d="M385.09,158.83a.41.41,0,1,1-.81,0,.41.41,0,0,1,.81,0Z"/><path class="cls-12" d="M348.11,106.79a.41.41,0,0,1-.81,0,.41.41,0,1,1,.81,0Z"/><path class="cls-12" d="M412.14,101.09a.41.41,0,1,1-.81,0,.41.41,0,0,1,.81,0Z"/><path class="cls-12" d="M420.18,166.84a.41.41,0,1,1-.41-.41A.42.42,0,0,1,420.18,166.84Z"/><path class="cls-12" d="M331.76,120.85a.41.41,0,1,1-.41-.41A.4.4,0,0,1,331.76,120.85Z"/><path class="cls-12" d="M276.44,85.7a.41.41,0,1,1-.81,0,.41.41,0,0,1,.81,0Z"/><path class="cls-12" d="M322.89,48.89a.41.41,0,1,1-.4-.4A.4.4,0,0,1,322.89,48.89Z"/><path class="cls-12" d="M345.35,38.07a.41.41,0,1,1-.4-.4A.4.4,0,0,1,345.35,38.07Z"/><path class="cls-12" d="M359.4,39.74a.42.42,0,0,1-.41.41.41.41,0,0,1,0-.82A.42.42,0,0,1,359.4,39.74Z"/><path class="cls-12" d="M374,47.34a.41.41,0,1,1-.4-.4A.4.4,0,0,1,374,47.34Z"/><path class="cls-12" d="M297.17,23.2a.41.41,0,1,1-.41-.41A.4.4,0,0,1,297.17,23.2Z"/><path class="cls-12" d="M267.86,22.06a.41.41,0,1,1-.81,0,.41.41,0,1,1,.81,0Z"/><path class="cls-12" d="M208.4,27.38a.4.4,0,0,1-.41.4.41.41,0,1,1,0-.81A.41.41,0,0,1,208.4,27.38Z"/><path class="cls-12" d="M263.06,51.24a.42.42,0,0,1-.41.41.41.41,0,1,1,0-.82A.42.42,0,0,1,263.06,51.24Z"/><path class="cls-12" d="M270,45.09a.41.41,0,1,1-.41-.41A.41.41,0,0,1,270,45.09Z"/><path class="cls-12" d="M228.87,16.18a.41.41,0,1,1-.4-.41A.41.41,0,0,1,228.87,16.18Z"/><path class="cls-12" d="M245.24,59.07a.41.41,0,1,1-.4-.4A.4.4,0,0,1,245.24,59.07Z"/><path class="cls-12" d="M241.4,76.6a.41.41,0,1,1-.41-.41A.4.4,0,0,1,241.4,76.6Z"/><path class="cls-12" d="M466.64,42.51a.41.41,0,1,1-.4-.4A.4.4,0,0,1,466.64,42.51Z"/><path class="cls-12" d="M503,41.67a.41.41,0,1,1-.41-.41A.41.41,0,0,1,503,41.67Z"/><path class="cls-12" d="M518.5,57.38a.41.41,0,1,1-.4-.41A.41.41,0,0,1,518.5,57.38Z"/><path class="cls-12" d="M486.93,94.74a.41.41,0,1,1-.81,0,.41.41,0,1,1,.81,0Z"/><path class="cls-12" d="M510.39,123.3a.41.41,0,1,1-.41-.41A.4.4,0,0,1,510.39,123.3Z"/><path class="cls-12" d="M537.19,135.56a.41.41,0,1,1-.4-.4A.4.4,0,0,1,537.19,135.56Z"/><path class="cls-12" d="M534.8,174.64a.41.41,0,1,1-.4-.4A.4.4,0,0,1,534.8,174.64Z"/><path class="cls-12" d="M515.45,206.36a.41.41,0,1,1-.41-.4A.41.41,0,0,1,515.45,206.36Z"/><path class="cls-12" d="M453.62,214.32a.41.41,0,1,1-.81,0,.41.41,0,0,1,.81,0Z"/><path class="cls-12" d="M402.15,185.81a.41.41,0,0,1-.81,0,.41.41,0,1,1,.81,0Z"/><path class="cls-12" d="M547,239a.41.41,0,1,1-.4-.4A.4.4,0,0,1,547,239Z"/><path class="cls-12" d="M520.43,274.8a.41.41,0,1,1-.4-.41A.41.41,0,0,1,520.43,274.8Z"/><path class="cls-12" d="M586.47,255.35a.41.41,0,1,1-.41-.41A.4.4,0,0,1,586.47,255.35Z"/><path class="cls-12" d="M624.32,239.93a.41.41,0,1,1-.4-.4A.4.4,0,0,1,624.32,239.93Z"/><path class="cls-12" d="M669.38,220.61a.41.41,0,1,1-.41-.4A.41.41,0,0,1,669.38,220.61Z"/><path class="cls-12" d="M701.7,206a.41.41,0,1,1-.41-.4A.41.41,0,0,1,701.7,206Z"/><path class="cls-12" d="M711.93,200a.4.4,0,0,1-.41.4.41.41,0,1,1,0-.81A.41.41,0,0,1,711.93,200Z"/><path class="cls-12" d="M682.26,191a.41.41,0,1,1-.41-.41A.4.4,0,0,1,682.26,191Z"/><path class="cls-12" d="M630.59,177.32a.41.41,0,0,1-.81,0,.41.41,0,1,1,.81,0Z"/><path class="cls-12" d="M617.58,139a.41.41,0,1,1-.41-.41A.41.41,0,0,1,617.58,139Z"/><path class="cls-12" d="M660,105.87a.41.41,0,1,1-.4-.4A.4.4,0,0,1,660,105.87Z"/><path class="cls-12" d="M670.75,85.3a.41.41,0,1,1-.81,0,.41.41,0,1,1,.81,0Z"/><path class="cls-12" d="M691.1,47.92a.41.41,0,0,1-.41.41.41.41,0,1,1,0-.81A.41.41,0,0,1,691.1,47.92Z"/><path class="cls-12" d="M702.93,34.05a.41.41,0,1,1-.81,0,.41.41,0,0,1,.81,0Z"/><path class="cls-12" d="M695.77,27a.41.41,0,1,1-.81,0,.41.41,0,1,1,.81,0Z"/><path class="cls-12" d="M626.45,34.58a.41.41,0,1,1-.41-.41A.4.4,0,0,1,626.45,34.58Z"/><path class="cls-12" d="M590.87,43.51a.41.41,0,1,1-.81,0,.41.41,0,1,1,.81,0Z"/><path class="cls-12" d="M567.54,72.12a.41.41,0,1,1-.41-.41A.4.4,0,0,1,567.54,72.12Z"/><path class="cls-12" d="M616.69,85.2a.4.4,0,0,1-.41.4.41.41,0,1,1,0-.81A.41.41,0,0,1,616.69,85.2Z"/><path class="cls-12" d="M673.58,92.65a.41.41,0,0,1-.81,0,.41.41,0,1,1,.81,0Z"/><path class="cls-12" d="M676.82,106.82a.41.41,0,1,1-.41-.41A.42.42,0,0,1,676.82,106.82Z"/><path class="cls-12" d="M715.68,113.11a.41.41,0,1,1-.4-.41A.41.41,0,0,1,715.68,113.11Z"/><path class="cls-12" d="M728.65,117.38a.41.41,0,1,1-.4-.4A.4.4,0,0,1,728.65,117.38Z"/><path class="cls-12" d="M715.12,143.48a.41.41,0,1,1-.41-.41A.42.42,0,0,1,715.12,143.48Z"/><path class="cls-12" d="M699.34,123.87a.41.41,0,1,1-.41-.41A.41.41,0,0,1,699.34,123.87Z"/><path class="cls-12" d="M722.64,103.57a.41.41,0,1,1-.41-.41A.41.41,0,0,1,722.64,103.57Z"/><path class="cls-12" d="M729.9,186.89a.41.41,0,1,1-.4-.4A.4.4,0,0,1,729.9,186.89Z"/><path class="cls-12" d="M730.63,218.9a.41.41,0,1,1-.41-.41A.4.4,0,0,1,730.63,218.9Z"/><path class="cls-12" d="M723.85,242.63a.41.41,0,1,1-.41-.41A.4.4,0,0,1,723.85,242.63Z"/><path class="cls-12" d="M733.84,72.22a.41.41,0,1,1-.4-.4A.4.4,0,0,1,733.84,72.22Z"/><path class="cls-12" d="M737.58,19.79a.41.41,0,1,1-.41-.41A.4.4,0,0,1,737.58,19.79Z"/><path class="cls-12" d="M739.21,9.34a.41.41,0,1,1-.4-.4A.4.4,0,0,1,739.21,9.34Z"/><path class="cls-12" d="M191.1,162.73a.41.41,0,0,1-.81,0,.41.41,0,1,1,.81,0Z"/><path class="cls-12" d="M216.27,207.88a.41.41,0,1,1-.4-.4A.4.4,0,0,1,216.27,207.88Z"/><path class="cls-12" d="M241.71,213.38a.4.4,0,0,1-.41.4.41.41,0,1,1,0-.81A.41.41,0,0,1,241.71,213.38Z"/><path class="cls-12" d="M232.39,249.31a.41.41,0,1,1-.4-.4A.4.4,0,0,1,232.39,249.31Z"/><path class="cls-12" d="M147.69,291.19a.41.41,0,0,1-.81,0,.41.41,0,1,1,.81,0Z"/><path class="cls-12" d="M137.86,307.75a.41.41,0,0,1-.81,0,.41.41,0,1,1,.81,0Z"/><path class="cls-12" d="M181.66,324a.41.41,0,1,1-.81,0,.41.41,0,0,1,.81,0Z"/><path class="cls-12" d="M215.78,323.34a.41.41,0,0,1-.81,0,.41.41,0,1,1,.81,0Z"/><path class="cls-12" d="M280.43,324.31a.41.41,0,0,1-.81,0,.41.41,0,1,1,.81,0Z"/><path class="cls-12" d="M284.36,277.86a.41.41,0,0,1-.41.41.41.41,0,0,1-.41-.41.42.42,0,0,1,.41-.41A.41.41,0,0,1,284.36,277.86Z"/><path class="cls-12" d="M246.37,280.33a.41.41,0,1,1-.41-.41A.4.4,0,0,1,246.37,280.33Z"/><path class="cls-12" d="M202.6,287.39a.41.41,0,1,1-.4-.4A.4.4,0,0,1,202.6,287.39Z"/><path class="cls-12" d="M252.23,242.69a.41.41,0,0,1-.81,0,.41.41,0,1,1,.81,0Z"/><path class="cls-12" d="M97.4,224a.41.41,0,0,1-.82,0,.41.41,0,1,1,.82,0Z"/><path class="cls-12" d="M53,259.45a.41.41,0,1,1-.4-.4A.4.4,0,0,1,53,259.45Z"/><path class="cls-12" d="M16.37,280.42a.41.41,0,0,1-.81,0,.41.41,0,1,1,.81,0Z"/><path class="cls-12" d="M14,297.82a.41.41,0,1,1-.4-.4A.4.4,0,0,1,14,297.82Z"/><path class="cls-12" d="M17.06,244a.41.41,0,0,1-.41.41.41.41,0,1,1,0-.81A.4.4,0,0,1,17.06,244Z"/><path class="cls-12" d="M53.08,289.68a.41.41,0,1,1-.81,0,.41.41,0,1,1,.81,0Z"/><path class="cls-12" d="M89.48,311.61a.41.41,0,1,1-.4-.4A.4.4,0,0,1,89.48,311.61Z"/><path class="cls-12" d="M9.36,185.43A.41.41,0,1,1,9,185,.4.4,0,0,1,9.36,185.43Z"/><path class="cls-12" d="M32.29,185.45a.41.41,0,1,1-.81,0,.41.41,0,1,1,.81,0Z"/><path class="cls-12" d="M44.21,188.94a.41.41,0,0,1-.81,0,.41.41,0,1,1,.81,0Z"/><path class="cls-12" d="M18.57,210.88a.41.41,0,0,1-.81,0,.41.41,0,1,1,.81,0Z"/><path class="cls-12" d="M37.54,127.82a.41.41,0,1,1-.41-.41A.4.4,0,0,1,37.54,127.82Z"/><path class="cls-12" d="M11.65,134.41a.41.41,0,1,1-.81,0,.41.41,0,0,1,.81,0Z"/><path class="cls-12" d="M28.84,92.54a.41.41,0,1,1-.81,0,.41.41,0,0,1,.81,0Z"/><path class="cls-12" d="M44.55,86.75a.41.41,0,1,1-.41-.41A.41.41,0,0,1,44.55,86.75Z"/><path class="cls-12" d="M71.21,101.72a.41.41,0,1,1-.81,0,.41.41,0,0,1,.81,0Z"/><path class="cls-12" d="M35.2,123.18a.41.41,0,1,1-.41-.41A.4.4,0,0,1,35.2,123.18Z"/><path class="cls-12" d="M12.3,96.7a.41.41,0,1,1-.41-.41A.41.41,0,0,1,12.3,96.7Z"/><path class="cls-12" d="M13.38,43.72a.41.41,0,1,1-.81,0,.41.41,0,1,1,.81,0Z"/><path class="cls-12" d="M41.3,45.3a.41.41,0,1,1-.41-.41A.41.41,0,0,1,41.3,45.3Z"/><path class="cls-12" d="M31.2,22.42a.41.41,0,0,1-.81,0,.41.41,0,1,1,.81,0Z"/><path class="cls-12" d="M38.42,17a.41.41,0,1,1-.4-.4A.4.4,0,0,1,38.42,17Z"/><path class="cls-12" d="M96,71.47a.41.41,0,1,1-.81,0,.41.41,0,0,1,.81,0Z"/><path class="cls-12" d="M94.64,123.12a.41.41,0,1,1-.81,0,.41.41,0,0,1,.81,0Z"/><path class="cls-12" d="M118.11,144.42a.41.41,0,1,1-.41-.41A.4.4,0,0,1,118.11,144.42Z"/><path class="cls-12" d="M146.57,166.47a.41.41,0,0,1-.82,0,.41.41,0,0,1,.82,0Z"/><path class="cls-12" d="M136.07,191.76a.41.41,0,1,1-.4-.4A.4.4,0,0,1,136.07,191.76Z"/><path class="cls-12" d="M391.21,44.71a.41.41,0,1,1-.41-.41A.4.4,0,0,1,391.21,44.71Z"/><path class="cls-12" d="M405.55,77.39a.41.41,0,1,1-.4-.41A.41.41,0,0,1,405.55,77.39Z"/><path class="cls-12" d="M401.39,117.54a.41.41,0,1,1-.81,0,.41.41,0,0,1,.81,0Z"/><path class="cls-12" d="M153.29,67.82a.41.41,0,1,1-.41-.41A.4.4,0,0,1,153.29,67.82Z"/><path class="cls-12" d="M182.27,96a.41.41,0,1,1-.81,0,.41.41,0,1,1,.81,0Z"/><path class="cls-12" d="M208.87,114a.41.41,0,1,1-.41-.41A.4.4,0,0,1,208.87,114Z"/><path class="cls-12" d="M239.6,133.33a.41.41,0,1,1-.41-.41A.4.4,0,0,1,239.6,133.33Z"/><path class="cls-12" d="M228.22,142.64a.41.41,0,0,1-.41.41.41.41,0,1,1,0-.81A.41.41,0,0,1,228.22,142.64Z"/><path class="cls-12" d="M102.89,31.65a.41.41,0,1,1-.41-.41A.4.4,0,0,1,102.89,31.65Z"/><path class="cls-12" d="M119.77,35a.41.41,0,1,1-.81,0,.41.41,0,0,1,.81,0Z"/><path class="cls-12" d="M135.22,46.88a.41.41,0,1,1-.4-.4A.4.4,0,0,1,135.22,46.88Z"/><path class="cls-12" d="M145.82,58.49a.41.41,0,1,1-.81,0,.41.41,0,0,1,.81,0Z"/><path class="cls-12" d="M168.76,73.91a.41.41,0,0,1-.81,0,.41.41,0,1,1,.81,0Z"/><path class="cls-12" d="M175.28,82.4a.41.41,0,1,1-.41-.4A.41.41,0,0,1,175.28,82.4Z"/><path class="cls-12" d="M200.88,97.5a.41.41,0,1,1-.41-.41A.4.4,0,0,1,200.88,97.5Z"/><path class="cls-12" d="M206,109.4a.41.41,0,1,1-.41-.41A.41.41,0,0,1,206,109.4Z"/><path class="cls-12" d="M223.79,121.91a.41.41,0,1,1-.4-.4A.4.4,0,0,1,223.79,121.91Z"/><path class="cls-12" d="M242.24,148.28a.41.41,0,0,1-.41.41.41.41,0,1,1,0-.81A.4.4,0,0,1,242.24,148.28Z"/><path class="cls-12" d="M239.09,143a.41.41,0,1,1-.81,0,.41.41,0,0,1,.81,0Z"/><path class="cls-12" d="M221.9,113a.41.41,0,0,1-.41.4.41.41,0,1,1,0-.81A.41.41,0,0,1,221.9,113Z"/><path class="cls-12" d="M210.06,101.08a.41.41,0,1,1-.81,0,.41.41,0,0,1,.81,0Z"/><path class="cls-12" d="M190.23,86.81a.41.41,0,1,1-.81,0,.41.41,0,1,1,.81,0Z"/><path class="cls-12" d="M202.93,89.4a.41.41,0,1,1-.81,0,.41.41,0,0,1,.81,0Z"/><path class="cls-12" d="M173.73,61.6a.41.41,0,1,1-.81,0,.41.41,0,0,1,.81,0Z"/><path class="cls-12" d="M157.19,46.39a.41.41,0,1,1-.81,0,.41.41,0,1,1,.81,0Z"/><path class="cls-12" d="M140.14,29a.41.41,0,1,1-.41-.4A.41.41,0,0,1,140.14,29Z"/><path class="cls-12" d="M138.52,31.5a.41.41,0,1,1-.41-.41A.4.4,0,0,1,138.52,31.5Z"/><path class="cls-12" d="M165.45,46.74a.42.42,0,0,1-.41.41.41.41,0,1,1,0-.82A.42.42,0,0,1,165.45,46.74Z"/><path class="cls-12" d="M189.32,69.56a.41.41,0,1,1-.81,0,.41.41,0,1,1,.81,0Z"/><path class="cls-12" d="M299.59,213.94a.41.41,0,1,1-.4-.4A.4.4,0,0,1,299.59,213.94Z"/><path class="cls-12" d="M326,242.35a.41.41,0,1,1-.4-.4A.4.4,0,0,1,326,242.35Z"/><path class="cls-12" d="M336,258.68a.41.41,0,1,1-.81,0,.41.41,0,0,1,.81,0Z"/><path class="cls-12" d="M346.12,270.14a.41.41,0,1,1-.81,0,.41.41,0,1,1,.81,0Z"/><path class="cls-12" d="M351.27,277.15a.41.41,0,1,1-.4-.41A.41.41,0,0,1,351.27,277.15Z"/><path class="cls-12" d="M361.89,295.66a.4.4,0,0,1-.41.4.41.41,0,1,1,0-.81A.41.41,0,0,1,361.89,295.66Z"/><path class="cls-12" d="M371,308.72a.41.41,0,0,1-.81,0,.41.41,0,1,1,.81,0Z"/><path class="cls-12" d="M376.52,323.39a.41.41,0,1,1-.4-.4A.4.4,0,0,1,376.52,323.39Z"/><path class="cls-12" d="M390.06,338.79a.41.41,0,1,1-.4-.4A.4.4,0,0,1,390.06,338.79Z"/><path class="cls-12" d="M400.61,351a.41.41,0,1,1-.4-.4A.4.4,0,0,1,400.61,351Z"/><path class="cls-12" d="M344.53,255.12a.41.41,0,1,1-.41-.4A.41.41,0,0,1,344.53,255.12Z"/><path class="cls-12" d="M369.83,278.54a.41.41,0,1,1-.81,0,.41.41,0,0,1,.81,0Z"/><path class="cls-12" d="M396.09,299.21a.41.41,0,0,1-.81,0,.41.41,0,1,1,.81,0Z"/><path class="cls-12" d="M428.63,334.66a.41.41,0,1,1-.41-.4A.41.41,0,0,1,428.63,334.66Z"/><path class="cls-12" d="M364.37,249.33a.41.41,0,1,1-.4-.4A.4.4,0,0,1,364.37,249.33Z"/><path class="cls-12" d="M387.64,274.66a.41.41,0,1,1-.4-.4A.4.4,0,0,1,387.64,274.66Z"/><path class="cls-12" d="M381,263.33a.41.41,0,0,1-.81,0,.41.41,0,1,1,.81,0Z"/><path class="cls-12" d="M421.45,317.32a.41.41,0,1,1-.81,0,.41.41,0,0,1,.81,0Z"/><path class="cls-12" d="M439,333.66a.41.41,0,1,1-.4-.4A.4.4,0,0,1,439,333.66Z"/><polygon class="cls-11" points="40.75 223.16 43.55 222.91 40.75 222.66 40.5 219.85 40.25 222.66 37.45 222.91 40.25 223.16 40.5 225.96 40.75 223.16"/><polygon class="cls-11" points="52.05 75.92 54.86 75.67 52.05 75.42 51.8 72.62 51.55 75.42 48.75 75.67 51.55 75.92 51.8 78.72 52.05 75.92"/><polygon class="cls-11" points="95.31 122.56 98.11 122.31 95.31 122.05 95.06 119.25 94.81 122.05 92 122.31 94.81 122.56 95.06 125.36 95.31 122.56"/><polygon class="cls-11" points="130.62 197.19 133.42 196.93 130.62 196.68 130.36 193.88 130.11 196.68 127.31 196.93 130.11 197.19 130.36 199.99 130.62 197.19"/><polygon class="cls-11" points="67.13 258.13 69.94 257.88 67.13 257.63 66.88 254.82 66.63 257.63 63.83 257.88 66.63 258.13 66.88 260.93 67.13 258.13"/><polygon class="cls-11" points="23.37 265.04 26.17 264.79 23.37 264.53 23.12 261.73 22.87 264.53 20.07 264.79 22.87 265.04 23.12 267.84 23.37 265.04"/><polygon class="cls-11" points="431.56 211.48 434.36 211.23 431.56 210.98 431.31 208.18 431.06 210.98 428.25 211.23 431.06 211.48 431.31 214.28 431.56 211.48"/><polygon class="cls-11" points="452.41 186.51 455.21 186.25 452.41 186 452.16 183.2 451.91 186 449.11 186.25 451.91 186.51 452.16 189.31 452.41 186.51"/><polygon class="cls-11" points="414.83 24.2 417.63 23.95 414.83 23.7 414.58 20.9 414.33 23.7 411.52 23.95 414.33 24.2 414.58 27 414.83 24.2"/><polygon class="cls-11" points="324.87 128.16 327.68 127.91 324.87 127.66 324.62 124.86 324.37 127.66 321.57 127.91 324.37 128.16 324.62 130.96 324.87 128.16"/><polygon class="cls-11" points="140.69 93.76 143.49 93.51 140.69 93.26 140.44 90.46 140.19 93.26 137.39 93.51 140.19 93.76 140.44 96.56 140.69 93.76"/><polygon class="cls-11" points="185.89 122.07 188.69 121.81 185.89 121.56 185.64 118.76 185.39 121.56 182.59 121.81 185.39 122.07 185.64 124.87 185.89 122.07"/><polygon class="cls-11" points="266.35 296.79 269.15 296.54 266.35 296.29 266.1 293.49 265.85 296.29 263.05 296.54 265.85 296.79 266.1 299.59 266.35 296.79"/><polygon class="cls-11" points="286.35 259.22 289.15 258.97 286.35 258.72 286.1 255.92 285.85 258.72 283.05 258.97 285.85 259.22 286.1 262.02 286.35 259.22"/><polygon class="cls-11" points="230.25 248.1 233.05 247.85 230.25 247.6 230 244.8 229.74 247.6 226.94 247.85 229.74 248.1 230 250.9 230.25 248.1"/><polygon class="cls-11" points="189.31 322.38 192.12 322.13 189.31 321.88 189.06 319.07 188.81 321.88 186.01 322.13 188.81 322.38 189.06 325.18 189.31 322.38"/><polygon class="cls-11" points="584.04 246.08 586.84 245.83 584.04 245.58 583.79 242.78 583.54 245.58 580.74 245.83 583.54 246.08 583.79 248.88 584.04 246.08"/><polygon class="cls-11" points="592.97 284.39 595.77 284.14 592.97 283.89 592.72 281.09 592.47 283.89 589.67 284.14 592.47 284.39 592.72 287.2 592.97 284.39"/><polygon class="cls-11" points="509.01 264.28 511.81 264.03 509.01 263.78 508.76 260.98 508.51 263.78 505.71 264.03 508.51 264.28 508.76 267.08 509.01 264.28"/><polygon class="cls-11" points="633.87 125.23 636.67 124.98 633.87 124.73 633.62 121.93 633.37 124.73 630.57 124.98 633.37 125.23 633.62 128.04 633.87 125.23"/><polygon class="cls-11" points="658.83 84.67 661.63 84.42 658.83 84.17 658.58 81.37 658.33 84.17 655.52 84.42 658.33 84.67 658.58 87.48 658.83 84.67"/><polygon class="cls-11" points="578.52 24.42 581.32 24.17 578.52 23.92 578.27 21.12 578.02 23.92 575.22 24.17 578.02 24.42 578.27 27.22 578.52 24.42"/><polygon class="cls-11" points="487.2 100.47 490 100.22 487.2 99.97 486.95 97.17 486.7 99.97 483.9 100.22 486.7 100.47 486.95 103.27 487.2 100.47"/><polygon class="cls-11" points="551.71 105.06 554.51 104.8 551.71 104.55 551.46 101.75 551.21 104.55 548.41 104.8 551.21 105.06 551.46 107.86 551.71 105.06"/><polygon class="cls-11" points="694.88 61.41 697.69 61.16 694.88 60.91 694.63 58.11 694.38 60.91 691.58 61.16 694.38 61.41 694.63 64.22 694.88 61.41"/><polygon class="cls-11" points="713.91 100 716.71 99.75 713.91 99.5 713.65 96.7 713.4 99.5 710.6 99.75 713.4 100 713.65 102.8 713.91 100"/><polygon class="cls-11" points="740.05 95.31 742.85 95.06 740.05 94.81 739.8 92 739.55 94.81 736.75 95.06 739.55 95.31 739.8 98.11 740.05 95.31"/><polygon class="cls-11" points="740.09 194.72 742.89 194.47 740.09 194.22 739.83 191.42 739.58 194.22 736.78 194.47 739.58 194.72 739.83 197.53 740.09 194.72"/><polygon class="cls-11" points="721.14 236.96 723.94 236.71 721.14 236.46 720.88 233.66 720.63 236.46 717.83 236.71 720.63 236.96 720.88 239.76 721.14 236.96"/><polygon class="cls-11" points="692.61 250.54 695.41 250.29 692.61 250.04 692.35 247.24 692.1 250.04 689.3 250.29 692.1 250.54 692.35 253.34 692.61 250.54"/><polygon class="cls-11" points="633.23 288.27 636.03 288.02 633.23 287.77 632.98 284.97 632.73 287.77 629.93 288.02 632.73 288.27 632.98 291.07 633.23 288.27"/><polygon class="cls-11" points="397.39 195.13 400.19 194.88 397.39 194.63 397.14 191.82 396.88 194.63 394.08 194.88 396.88 195.13 397.14 197.93 397.39 195.13"/><polygon class="cls-11" points="396.52 276.85 399.32 276.6 396.52 276.35 396.27 273.54 396.02 276.35 393.21 276.6 396.02 276.85 396.27 279.65 396.52 276.85"/><polygon class="cls-11" points="410.45 316.27 413.25 316.02 410.45 315.77 410.19 312.97 409.94 315.77 407.14 316.02 409.94 316.27 410.19 319.07 410.45 316.27"/><polygon class="cls-11" points="436.52 350.24 439.33 349.99 436.52 349.74 436.27 346.94 436.02 349.74 433.22 349.99 436.02 350.24 436.27 353.04 436.52 350.24"/><polygon class="cls-11" points="453.27 373.72 456.07 373.47 453.27 373.22 453.01 370.42 452.76 373.22 449.96 373.47 452.76 373.72 453.01 376.52 453.27 373.72"/><polygon class="cls-11" points="309.43 191.9 312.23 191.65 309.43 191.4 309.17 188.59 308.92 191.4 306.12 191.65 308.92 191.9 309.17 194.7 309.43 191.9"/><polygon class="cls-11" points="272.34 159.35 275.14 159.09 272.34 158.84 272.09 156.04 271.83 158.84 269.03 159.09 271.83 159.35 272.09 162.15 272.34 159.35"/><polygon class="cls-11" points="273.98 137.35 276.78 137.1 273.98 136.85 273.73 134.05 273.48 136.85 270.68 137.1 273.48 137.35 273.73 140.16 273.98 137.35"/><polygon class="cls-11" points="243.61 121.54 246.41 121.29 243.61 121.04 243.35 118.24 243.1 121.04 240.3 121.29 243.1 121.54 243.35 124.34 243.61 121.54"/><polygon class="cls-11" points="241.54 128.88 244.34 128.63 241.54 128.37 241.29 125.57 241.04 128.37 238.24 128.63 241.04 128.88 241.29 131.68 241.54 128.88"/><polygon class="cls-11" points="220.6 86.45 223.4 86.2 220.6 85.95 220.35 83.15 220.1 85.95 217.3 86.2 220.1 86.45 220.35 89.25 220.6 86.45"/><polygon class="cls-11" points="181.75 74.81 184.55 74.56 181.75 74.3 181.5 71.5 181.25 74.3 178.45 74.56 181.25 74.81 181.5 77.61 181.75 74.81"/><polygon class="cls-11" points="184.16 44.29 186.97 44.04 184.16 43.79 183.91 40.98 183.66 43.79 180.86 44.04 183.66 44.29 183.91 47.09 184.16 44.29"/><polygon class="cls-11" points="181.23 22.63 184.03 22.38 181.23 22.13 180.97 19.33 180.72 22.13 177.92 22.38 180.72 22.63 180.97 25.43 181.23 22.63"/><polygon class="cls-11" points="142.23 12.74 145.03 12.49 142.23 12.24 141.98 9.44 141.73 12.24 138.93 12.49 141.73 12.74 141.98 15.54 142.23 12.74"/><polygon class="cls-11" points="142.73 33.97 145.53 33.72 142.73 33.47 142.48 30.66 142.23 33.47 139.42 33.72 142.23 33.97 142.48 36.77 142.73 33.97"/><polygon class="cls-11" points="281.08 185.6 283.88 185.35 281.08 185.1 280.83 182.29 280.58 185.1 277.78 185.35 280.58 185.6 280.83 188.4 281.08 185.6"/><polygon class="cls-11" points="376.69 319.66 379.5 319.41 376.69 319.16 376.44 316.36 376.19 319.16 373.39 319.41 376.19 319.66 376.44 322.46 376.69 319.66"/><polygon class="cls-11" points="381.2 355.89 384 355.64 381.2 355.38 380.95 352.58 380.69 355.38 377.89 355.64 380.69 355.89 380.95 358.69 381.2 355.89"/></g></g></g><g id="Background_2" data-name="Background 2"><g class="cls-21"><g class="cls-22"><rect class="cls-23" x="-664.34" y="412.96" width="750" height="298.07"/><rect class="cls-24" x="-664.34" y="412.96" width="750" height="298.07"/><rect class="cls-25" x="-664.34" y="412.96" width="750" height="298.07"/><path class="cls-9" d="M85.66,511.15s-22.95,11.16-34.31,11.16S17,502.46,11,502.1s-22-3.25-23.5-3.61-2-2.52-4-2.89-15.58-4.21-18.08-4.57-13-12.63-15-12.63-37-3.25-40-4.33-17.5-12.27-20-12.63-6,.72-8,0-4.5-2.17-6-2.89-17.5-7.22-19-7.22-4-6.13-4-6.13h-8.5l-6.5-5.78h-4.5s-4-6.13-7-6.13-9,1.08-10.5,0S-194,435.7-195,434.61s-8.5,2.17-10,2.17-17-10.11-19.5-10.47-23.5,3.61-26,3.25-15.5-9.38-17.5-9-16,7.22-18,6.86-5-2.53-6.5-2.53-14,3.25-15.5,3.25-13-3.61-15-3.61-30.5,8.3-32,7.94-7.5-3.61-9.5-4-10.5,3.25-10.5,3.25l-16.5-.72s-12.5,5.77-14,5.77-6-.72-6-.72l-13.5,4.33s-5,.36-6.5,0-15.5,5.05-17,5.41-7,5.05-9,5.42-9-.73-9-.73-12-2.52-14-2.88-17.5,2.88-19,2.88S-514,459.88-516,460.6s-18.5-5.41-20-5.05-27.5,16.23-31,15.87-11,1.08-13,0-28,10.47-31,10.47-22.5-7.94-27-8.66-26.34,19.49-26.34,19.49V413h750Z"/></g><g class="cls-26"><rect class="cls-27" x="-664.34" width="750" height="412.96"/><rect class="cls-28" x="-664.34" width="750" height="412.96"/><rect class="cls-29" x="-664.34" width="750" height="412.96"/><path class="cls-9" d="M85.66,276.93s-22.95-15.47-34.31-15.47S17,289,11,289.46s-22,4.5-23.5,5-2,3.5-4,4-15.58,5.84-18.08,6.34-13,17.5-15,17.5-37,4.5-40,6-17.5,17-20,17.5-6-1-8,0a62.43,62.43,0,0,0-6,4c-1.5,1-17.5,10-19,10s-4,8.5-4,8.5h-8.5l-6.5,8h-4.5s-4,8.5-7,8.5-9-1.5-10.5,0S-194,381.46-195,383s-8.5-3-10-3-17,14-19.5,14.5-23.5-5-26-4.5-15.5,13-17.5,12.5-16-10-18-9.5-5,3.5-6.5,3.5-14-4.5-15.5-4.5-13,5-15,5-30.5-11.5-32-11-7.5,5-9.5,5.5S-375,387-375,387l-16.5,1s-12.5-8-14-8a48.4,48.4,0,0,0-6,1l-13.5-6s-5-.5-6.5,0-15.5-7-17-7.5-7-7-9-7.5-9,1-9,1-12,3.5-14,4-17.5-4-19-4S-514,348-516,347s-18.5,7.5-20,7-27.5-22.48-31-22-11-1.49-13,0-28-14.51-31-14.51-22.5,11-27,12-26.34-27-26.34-27V413h750Z"/><use width="1.12" height="1.12" transform="translate(3.09 26.9)" xlink:href="#New_Symbol"/><use width="1.12" height="1.12" transform="translate(23.03 20.52)" xlink:href="#New_Symbol"/><use width="1.12" height="1.12" transform="translate(34.74 21.55)" xlink:href="#New_Symbol"/><use width="1.12" height="1.12" transform="translate(45.59 31.98)" xlink:href="#New_Symbol"/><use width="1.12" height="1.12" transform="translate(59.73 60.2)" xlink:href="#New_Symbol"/><use width="1.12" height="1.12" transform="translate(54.34 74.01)" xlink:href="#New_Symbol"/><use width="1.12" height="1.12" transform="translate(32.78 60.56)" xlink:href="#New_Symbol"/><use width="1.12" height="1.12" transform="translate(21.33 44.94)" xlink:href="#New_Symbol"/><use width="1.12" height="1.12" transform="translate(51.1 29.12)" xlink:href="#New_Symbol"/><use width="1.12" height="1.12" transform="translate(61.71 17.72)" xlink:href="#New_Symbol"/><use width="1.12" height="1.12" transform="translate(17.11 147.07)" xlink:href="#New_Symbol"/><use width="1.12" height="1.12" transform="translate(42.48 151.08)" xlink:href="#New_Symbol"/><use width="1.12" height="1.12" transform="translate(48.36 186.51)" xlink:href="#New_Symbol"/><use width="1.12" height="1.12" transform="translate(48.41 212.01)" xlink:href="#New_Symbol"/><use width="1.12" height="1.12" transform="translate(34.89 223.47)" xlink:href="#New_Symbol"/><path class="cls-11" d="M21.4,215.69a.8.8,0,1,1-.79-.79A.79.79,0,0,1,21.4,215.69Z"/><path class="cls-11" d="M44.34,181.84a.79.79,0,1,1-.79-.79A.79.79,0,0,1,44.34,181.84Z"/><path class="cls-11" d="M16.13,38.66a.79.79,0,1,1-.79-.79A.79.79,0,0,1,16.13,38.66Z"/><path class="cls-11" d="M52.76,25.42a.79.79,0,1,1-.79-.79A.79.79,0,0,1,52.76,25.42Z"/><path class="cls-11" d="M49.14,76a.79.79,0,1,1-.79-.79A.79.79,0,0,1,49.14,76Z"/><path class="cls-11" d="M16.05,109a.8.8,0,1,1-.8-.79A.8.8,0,0,1,16.05,109Z"/><path class="cls-11" d="M66.75,195.31a.8.8,0,1,1-.8-.79A.8.8,0,0,1,66.75,195.31Z"/><path class="cls-11" d="M70.56,132.37a.8.8,0,1,1-.8-.79A.79.79,0,0,1,70.56,132.37Z"/><path class="cls-11" d="M71.85,48.52a.8.8,0,1,1-.79-.79A.8.8,0,0,1,71.85,48.52Z"/><path class="cls-11" d="M71.57,19.3a.79.79,0,1,1-.79-.8A.79.79,0,0,1,71.57,19.3Z"/><path class="cls-11" d="M33.16,12.84a.79.79,0,1,1-.79-.79A.79.79,0,0,1,33.16,12.84Z"/><path class="cls-11" d="M50.79,49.41a.79.79,0,1,1-.79-.8A.79.79,0,0,1,50.79,49.41Z"/><path class="cls-12" d="M5,220.61a.41.41,0,1,1-.4-.4A.4.4,0,0,1,5,220.61Z"/><path class="cls-12" d="M37.35,206a.41.41,0,1,1-.4-.4A.4.4,0,0,1,37.35,206Z"/><path class="cls-12" d="M47.58,200a.41.41,0,0,1-.81,0,.41.41,0,1,1,.81,0Z"/><path class="cls-12" d="M17.92,191a.4.4,0,0,1-.41.4.41.41,0,1,1,0-.81A.41.41,0,0,1,17.92,191Z"/><path class="cls-12" d="M6.4,85.3a.41.41,0,1,1-.81,0,.41.41,0,1,1,.81,0Z"/><path class="cls-12" d="M26.75,47.92a.41.41,0,1,1-.4-.4A.4.4,0,0,1,26.75,47.92Z"/><path class="cls-12" d="M38.59,34.05a.41.41,0,1,1-.81,0,.41.41,0,0,1,.81,0Z"/><path class="cls-12" d="M31.43,27a.41.41,0,0,1-.41.41.41.41,0,0,1-.41-.41.41.41,0,0,1,.41-.41A.42.42,0,0,1,31.43,27Z"/><path class="cls-12" d="M9.24,92.65a.41.41,0,1,1-.41-.41A.4.4,0,0,1,9.24,92.65Z"/><path class="cls-12" d="M12.47,106.82a.41.41,0,1,1-.4-.41A.41.41,0,0,1,12.47,106.82Z"/><path class="cls-12" d="M51.34,113.11a.41.41,0,1,1-.41-.41A.41.41,0,0,1,51.34,113.11Z"/><path class="cls-12" d="M64.31,117.38a.41.41,0,1,1-.81,0,.41.41,0,0,1,.81,0Z"/><path class="cls-12" d="M50.77,143.48a.41.41,0,1,1-.4-.41A.41.41,0,0,1,50.77,143.48Z"/><path class="cls-12" d="M35,123.87a.41.41,0,1,1-.41-.41A.41.41,0,0,1,35,123.87Z"/><path class="cls-12" d="M58.3,103.57a.41.41,0,0,1-.41.41.41.41,0,0,1,0-.82A.41.41,0,0,1,58.3,103.57Z"/><path class="cls-12" d="M65.56,186.89a.41.41,0,1,1-.4-.4A.4.4,0,0,1,65.56,186.89Z"/><path class="cls-12" d="M66.29,218.9a.41.41,0,0,1-.41.4.41.41,0,1,1,0-.81A.41.41,0,0,1,66.29,218.9Z"/><path class="cls-12" d="M59.51,242.63a.41.41,0,1,1-.41-.41A.41.41,0,0,1,59.51,242.63Z"/><path class="cls-12" d="M69.5,72.22a.41.41,0,1,1-.4-.4A.4.4,0,0,1,69.5,72.22Z"/><path class="cls-12" d="M73.24,19.79a.41.41,0,1,1-.41-.41A.41.41,0,0,1,73.24,19.79Z"/><path class="cls-12" d="M74.87,9.34a.41.41,0,1,1-.81,0,.41.41,0,0,1,.81,0Z"/><polygon class="cls-11" points="30.54 61.41 33.34 61.16 30.54 60.91 30.29 58.11 30.04 60.91 27.24 61.16 30.04 61.41 30.29 64.22 30.54 61.41"/><polygon class="cls-11" points="49.56 100 52.37 99.75 49.56 99.5 49.31 96.7 49.06 99.5 46.26 99.75 49.06 100 49.31 102.8 49.56 100"/><polygon class="cls-11" points="75.71 95.31 78.51 95.06 75.71 94.81 75.45 92 75.2 94.81 72.4 95.06 75.2 95.31 75.45 98.11 75.71 95.31"/><polygon class="cls-11" points="75.74 194.72 78.54 194.47 75.74 194.22 75.49 191.42 75.24 194.22 72.44 194.47 75.24 194.72 75.49 197.53 75.74 194.72"/><polygon class="cls-11" points="56.79 236.96 59.59 236.71 56.79 236.46 56.54 233.66 56.29 236.46 53.49 236.71 56.29 236.96 56.54 239.76 56.79 236.96"/><polygon class="cls-11" points="28.26 250.54 31.06 250.29 28.26 250.04 28.01 247.24 27.76 250.04 24.96 250.29 27.76 250.54 28.01 253.34 28.26 250.54"/></g></g></g></g></svg>