<svg xmlns="http://www.w3.org/2000/svg" width="841.9" height="595.3"><path fill="#F15D51" d="M0 0h841.9v595.3H0z"/><path fill="#F79359" d="M418.4 269.3l423.5-10v-14H0v95.8l841.9-23.3v-38.5z"/><path fill="#FDC269" d="M0 427.9v-47.8s10-17.9 26-21c16-3.1 17 21 17 21s6-16 15-17.5 19 11.3 19 11.3-4-20.5 19-26.2 36 22.9 36 22.9 8.3-32.9 20.1-32.7c11.9.2 6.9 29.7 6.9 29.7s13-34.8 40-41.7 46 36.7 46 36.7-2.6-20.4 9.2-26C266 331 275 352.2 275 352.2s.4-8 14.2-9.1C303 342 317 362.6 317 362.6s8-18.8 31-24.7c23-5.8 39.9 42.3 39.9 42.3s1.3-28.8 16.2-32.5c14.9-3.7 24.1 14.9 24.1 14.9s3.8-25.8 32.8-32.2c29-6.4 32.2 53 32.2 53s6.8-18.3 20.8-20.8 22.7 14.6 22.7 14.6 4.9-34.5 26.1-39.3c21.2-4.8 34.7 21.4 34.7 21.4s5.4-27.5 20.4-33.4c15.1-5.9 9.1 36.7 9.1 36.7s13.8-28.5 30.1-26S677 364 677 364s12.4-24.5 17.7-24.3c5.3.3 34.3 12.4 34.3 12.4s-7-22.9 11-27c18-4.1 28 22.5 28 22.5s6-26.1 17-28.4c11-2.3 22 44.7 22 44.7s2-14.5 14-18.2c12-3.8 6 24.8 6 24.8l14.9-3.3v60.6H0z"/><path fill="#FFFFFA" d="M412.6 371.2c49.7-4.8 125.9 19.5 131.6 35.5 5.7 16-94.7 63.2-115 65.3-20.3 2.1-67.6-8.3-71.9-15.3s31.1-23.6 31.1-23.6-94.5-11.1-96-23.6 70.4-33.5 120.2-38.3z"/><path fill="#F26237" d="M0 395h841.9v200.3H0z"/><path fill="#F36E3F" d="M841.9 495.5L0 537.5V509l382-24L0 495.5V425l841.9-18-1.1 22.5L543.2 443l298.7-4.5z"/><path fill="#FDBF56" d="M292.5 409.4c1.4 12.5 96 23.6 96 23.6s-35.4 16.7-31.1 23.6c4.3 6.9 51.6 17.4 71.9 15.3 20.3-2.1 120.7-49.3 115-65.3-1.3-3.6-6.2-7.7-13.6-11.7H312.1c-12.4 5.2-20.1 10.4-19.6 14.5z"/><path fill="#F37451" d="M0 147.8l841.9-42v28.5l-382 24 382-10.5v70.5L0 236.3l1.1-22.5 297.6-13.5L0 204.8z"/><path fill="#A6435E" d="M791 323.7s-9.1 96.7-12.8 109.4c-3.7 12.7-15.3 43.5-15.3 43.5h15.3s10-40.1 12.8-61.8c2.8-21.7 4.4-92.1 4.4-92.1l-4.4 1z"/><path fill="#A6435E" d="M794 323.5s-26.6 5.3-30.9 13.3c-4.3 8-4.7 23.3-4.7 23.3s14.6-17.9 17.8-19.9c3.2-2 17.8-12 17.8-12v-4.7z"/><path fill="#A6435E" d="M794 323.5s-15.6-7.3-22.6-6.6c-7 .7-15.3 5.3-18.6 8.3-3.3 3-5 15.3-5 15.3s19.9-10.7 23.1-11.8c3.2-1.1 23.1-.5 23.1-.5v-4.7z"/><path fill="#A6435E" d="M794 323.5s-5.6-11-9.6-14.6c-4-3.7-20.6 0-20.6 0s11.6 4.9 17.3 7.9c5.6 3 13 11.3 13 11.3v-4.6z"/><path fill="#A6435E" d="M790.6 320.5s4-16.3 9-19.3 14-2.3 15.9 0c2 2.3 3.7 6 3.7 6s-9.3-1.3-11.6 0c-2.3 1.3-13.6 16.2-13.6 16.2l-3.4-2.9z"/><path fill="#A6435E" d="M794 328.1l-3.3-4.7s13-11.3 18.9-12.1c6-.8 18.9 5.3 21.3 8.4 2.3 3.1 3.7 18 3.7 18s-14.3-12-18.9-14.3-21.7 4.7-21.7 4.7z"/><path fill="#A6435E" d="M794 328.1s14 8 16.9 12.3c3 4.3 8.3 24.6 8.3 24.6s6.3-17.9 2.7-27.2c-3.7-9.3-23.9-14.3-23.9-14.3l-4 4.6z"/><g fill="#A6435E"><path d="M652.6 324.7s-22.9 16.4-41.7 28.7c0 0 3.5-16.4 8.8-21.1 5.3-4.7 32.9-14 32.9-14v6.4z"/><path d="M652.6 318.3s-15.5-8.5-25.5-8.9c-10-.4-26.4 16.6-26.4 16.6s26.4-3.8 51.9-1.2v-6.5z"/><path d="M652.6 318.3s.3-10.3-4.1-17.5c-4.4-7.2-12.6 8.5-12.6 8.5s6.2-1 8.4-.7c2.2.3 8.4 14.4 8.4 14.4v-4.7z"/><path d="M652.6 318.3s6.2-17.9 14.4-19.3 14.1 2.9 16.1 5.6 2.6 6.5 2.6 6.5-12.6-3.3-16.6-1.6-16.5 13.5-16.5 13.5v-4.7z"/><path d="M652.6 324.7s15.4-1.9 21.6-1.9c8.9 0 20.4 10.6 20.4 10.6s-1.7-17.3-8.2-20.5c-11.4-5.7-33.7 5.4-33.7 5.4v6.4z"/><path d="M652.6 324.7s10.9 5 16.6 10 16.6 22.9 16.6 22.9 2.9-19.9-4.4-28.6-28.7-9.2-28.7-9.2l-.1 4.9z"/><path d="M649.4 322.3l5.3-2.6s11.1 18.5 12.3 25.5c1.2 7-8.8 23.8-8.8 23.8s-2.9-23.8-3.5-29-5.3-17.7-5.3-17.7z"/><path d="M649.4 319.1s-14.8 72.5-19.8 89.4c-5 16.9-13.3 68.2-13.3 68.2h15.5s6-52.2 8-66.8c2-14.6 12.8-87.5 12.8-87.5l-3.2-3.3z"/></g><g fill="#A6435E"><path d="M500.8 328.3l-28.6 33.2s-2.7-17.5 5-24c5.9-5 23.6-16.1 23.6-16.1v6.9zm0 0s13.3 6.3 19 11.8 10.7 24.6 10.7 24.6 6-18.2 3.7-27.3c-2.3-9.2-33.3-16.1-33.3-16.1v7z"/><path d="M500.8 321.3s16.7-7.7 26-7.7 21.6 21.5 21.6 21.5-19.7-10.4-23.8-10.1-23.8 3.3-23.8 3.3v-7z"/><path d="M500.8 321.3s10.9-18.3 16.9-21.3c6.1-3 19.7 1.7 19.7 1.7L504.8 325l-4-3.7z"/><path d="M500.8 328.3l3.3-6.9s-3-12.7-5.3-18.3c-2.3-5.7-14-11-14-11l16 36.2z"/><path d="M500.8 328.3v-6.9s-9.3-14.3-16-17.7-21.3 3.2-21.3 3.2 15.7 5.7 21.3 9.6 16 11.8 16 11.8z"/><path d="M500.8 328.3v-6.9s-20.7-5.8-29-4.8c-8.3 1.1-12 20.9-12 20.9s17-9.2 22.3-9.2h18.7zm0 0s4.3-25.3 5-39.6c0 0 3.5 15.3 2.7 21-.7 5.7-5.8 19.6-5.8 19.6l-1.9-1z"/><path d="M498.3 323.1l-21.4 153.5h14.7l11.6-153.5z"/></g><path fill="#A6435E" d="M361.9 323.1l-21.5 153.5h14.8l11.6-153.5z"/><path fill="#A6435E" d="M363.5 323.5s-26.6 5.3-30.9 13.3c-4.3 8-4.7 23.3-4.7 23.3s14.6-17.9 17.8-19.9c3.2-2 17.8-12 17.8-12v-4.7z"/><path fill="#A6435E" d="M363.5 323.5s-15.6-7.3-22.6-6.6c-7 .7-15.3 5.3-18.6 8.3-3.3 3-5 15.3-5 15.3s19.9-10.7 23.1-11.8c3.2-1.1 23.1-.5 23.1-.5v-4.7z"/><path fill="#A6435E" d="M363.5 323.5s-5.6-11-9.6-14.6c-4-3.7-20.6 0-20.6 0s11.6 4.9 17.3 7.9c5.6 3 13 11.3 13 11.3v-4.6z"/><path fill="#A6435E" d="M360.2 320.5s4-16.3 9-19.3 14-2.3 15.9 0c2 2.3 3.7 6 3.7 6s-9.3-1.3-11.6 0c-2.3 1.3-13.6 16.2-13.6 16.2l-3.4-2.9z"/><path fill="#A6435E" d="M363.5 328.1l-3.3-4.7s13-11.3 18.9-12.1c6-.8 18.9 5.3 21.3 8.4 2.3 3.1 3.7 18 3.7 18s-14.3-12-18.9-14.3-21.7 4.7-21.7 4.7z"/><path fill="#A6435E" d="M363.5 328.1s14 8 16.9 12.3c3 4.3 8.3 24.6 8.3 24.6s6.3-17.9 2.7-27.2c-3.7-9.3-23.9-14.3-23.9-14.3l-4 4.6z"/><g fill="#A6435E"><path d="M74.4 319.1s-14.8 72.5-19.8 89.4c-5 16.9-13.3 68.2-13.3 68.2h15.5s6-52.2 8-66.8c2-14.6 12.8-87.5 12.8-87.5l-3.2-3.3zm-4 9.2l-28.6 33.2s-2.7-17.5 5-24c5.9-5 23.6-16.1 23.6-16.1v6.9z"/><path d="M70.4 328.3s13.3 6.3 19 11.8 10.7 24.6 10.7 24.6 6-18.2 3.7-27.3c-2.3-9.2-33.3-16.1-33.3-16.1v7z"/><path d="M70.4 321.3s16.7-7.7 26-7.7 21.6 21.5 21.6 21.5-19.6-10.4-23.8-10.1-23.8 3.3-23.8 3.3v-7z"/><path d="M70.4 321.3S81.3 303 87.3 300s19.7 1.7 19.7 1.7L74.4 325l-4-3.7z"/><path d="M70.4 328.3l3.3-6.9s-3-12.7-5.3-18.3-14-11-14-11l16 36.2z"/><path d="M70.4 328.3v-6.9s-9.3-14.3-16-17.7-21.3 3.2-21.3 3.2 15.7 5.7 21.3 9.6 16 11.8 16 11.8z"/><path d="M70.4 328.3v-6.9s-20.7-5.8-29-4.8c-8.3 1.1-12 20.9-12 20.9s17-9.2 22.3-9.2h18.7zm0 0s4.3-25.3 5-39.6c0 0 3.5 15.3 2.7 21-.7 5.7-5.8 19.6-5.8 19.6l-1.9-1z"/></g><g fill="#A6435E"><path d="M222.2 324.7s-22.9 16.4-41.7 28.7c0 0 3.5-16.4 8.8-21.1 5.3-4.7 32.9-14 32.9-14v6.4z"/><path d="M222.2 318.3s-15.5-8.5-25.5-8.9c-10-.4-26.4 16.6-26.4 16.6s26.4-3.8 51.9-1.2v-6.5z"/><path d="M222.2 318.3s.3-10.3-4.1-17.5c-4.4-7.2-12.6 8.5-12.6 8.5s6.2-1 8.4-.7c2.2.3 8.4 14.4 8.4 14.4v-4.7z"/><path d="M222.2 318.3s6.2-17.9 14.4-19.3 14.1 2.9 16.1 5.6 2.6 6.5 2.6 6.5-12.6-3.3-16.6-1.6c-4 1.6-16.6 13.6-16.6 13.6v-4.8z"/><path d="M222.2 324.7s15.4-1.9 21.6-1.9c8.9 0 20.4 10.6 20.4 10.6s-1.7-17.3-8.2-20.5c-11.4-5.7-33.7 5.4-33.7 5.4v6.4z"/><path d="M222.2 324.7s10.9 5 16.6 10c5.7 5 16.6 22.9 16.6 22.9s2.9-19.9-4.4-28.6c-7.3-8.7-28.7-9.2-28.7-9.2l-.1 4.9z"/><path d="M219 322.3l5.3-2.6s11.1 18.5 12.3 25.5-8.8 23.8-8.8 23.8-2.9-23.8-3.5-29-5.3-17.7-5.3-17.7z"/><path d="M220.3 323.7s-9.1 96.7-12.8 109.4c-3.7 12.7-15.3 43.5-15.3 43.5h15.3s10-40.1 12.8-61.8c2.8-21.7 4.4-92.1 4.4-92.1l-4.4 1z"/></g><path fill="#A6435E" d="M0 461.7h841.9v133.6H0z"/><path fill="#F37451" d="M0 134.3l841.9-58.5V62.3L0 98.3z"/><path fill="#F15D51" d="M107 293.8s8.4 5.2 12.9 9.6c0 0 5.5-2.8 8.7-6l-9.1 3.4s-5-4.5-12.5-7zm179 16.9s8.4 5.2 12.9 9.6c0 0 5.5-2.8 8.7-6l-9.1 3.4s-5.1-4.5-12.5-7zm296.7-17.9s-8.4 5.2-12.9 9.6c0 0-5.5-2.8-8.7-6l9.1 3.4c.1.1 5.1-4.4 12.5-7zm-447.1-21.5s8.1 6.6 9.4 7.8c0 0 8.7-8 12.8-11.5l-13.6 8.2-8.6-4.5zm206.9-5.7s8.1 6.6 9.4 7.8c0 0 8.7-8 12.8-11.5l-13.6 8.2-8.6-4.5z"/><path fill="#F37451" d="M0 77.3l611-25.5L0 62.3z"/><g fill="#A6435E"><circle cx="253.7" cy="458.3" r="6.2"/><circle cx="303" cy="458.3" r="6.2"/><path d="M239.5 421s17.7-1.7 22.7-1.7 55.1 1.7 55.1 1.7v-.9s-36.4-3.4-50.3-3.4c-14 0-25.8 2.5-27.5 4.3z"/><path d="M302.5 419.2s2.5-4.2 4.6-5.2c2.2-1 4.3-1.7 4.3-1.7l-2 8.4-6.9-1.5zm19 35.3s.3-12.7 0-13.7-8.1-18.1-12.2-18.9c-4.1-.8-50.2-1-56.9-1-6.7 0-15.6 5.1-15.6 5.1l1 .6-.5 13.7c-1.7 5.6-2.1 14.6-2.1 14.6l-1.3.2v3.2l88.8-1v-2.9h-1.2zM238 439.6l.7-12.4h2.2l.4 12.4H238zm17.4 0H243v-12.4h13.4l-1 12.4zm2 0l.6-12.4h16.7l1.1 12.4h-18.4zm41.7 0h-22.3v-12.4h22.3v12.4z"/></g></svg>