<svg xmlns="http://www.w3.org/2000/svg" xmlns:xlink="http://www.w3.org/1999/xlink" viewBox="0 0 750 500"><style>.st2{clip-path:url(#SVGID_3_)}.st28{fill:#224469}</style><g opacity=".8" id="BACKGROUND"><linearGradient id="SVGID_1_" gradientUnits="userSpaceOnUse" x1="375" y1="500" x2="375" y2="0"><stop offset=".15" stop-color="#ffce68"/><stop offset=".251" stop-color="#ffd06d"/><stop offset=".373" stop-color="#ffd47c"/><stop offset=".505" stop-color="#ffdc94"/><stop offset=".644" stop-color="#ffe7b6"/><stop offset=".747" stop-color="#fff0d4"/><stop offset=".886" stop-color="#fff0d6"/><stop offset=".943" stop-color="#fff0dd"/><stop offset=".985" stop-color="#fff0e9"/><stop offset="1" stop-color="#fff0f0"/></linearGradient><path fill="url(#SVGID_1_)" d="M0 0h750v500H0z"/></g><g id="OBJECTS"><defs><path id="SVGID_2_" d="M0 0h750v500H0z"/></defs><clipPath id="SVGID_3_"><use xlink:href="#SVGID_2_" overflow="visible"/></clipPath><g class="st2"><path d="M429.24 183.24c0 29.96-24.29 54.24-54.24 54.24-29.96 0-54.24-24.29-54.24-54.24 0-29.96 24.29-54.24 54.24-54.24 29.96 0 54.24 24.29 54.24 54.24z" fill="#fffcf9"/><linearGradient id="SVGID_4_" gradientUnits="userSpaceOnUse" x1="589.536" y1="321.064" x2="589.536" y2="208.655"><stop offset="0" stop-color="#c3b6e6"/><stop offset=".149" stop-color="#d1bcda"/><stop offset=".471" stop-color="#eac6c5"/><stop offset=".764" stop-color="#faccb8"/><stop offset="1" stop-color="#ffceb3"/></linearGradient><path d="M759.07 287.93c-3.71-3.51-19.8-1.64-25.09-1.91-7.69-.38-15.94.45-23.98 0-16.4-.92-34.62-6.68-50.05-13.02-24.23-9.96-38.53-28.88-57.45-46.08-3.73-3.39-7.61-8.24-12.2-5.17-10.43.25-11.32-8.95-15.5-11.55-5.82-3.62-19.74-.13-22.63 2.98-2.04 2.87-1.98 2.38-5 4-3.17 4.32-10.3 11.58-17.55 7.95-14.9-3.16-14.25 16-26.38 12.5-17-6.75-34.48 11.64-40 14.62-13.79 7.47-30.32 2.2-43.25 7.75l44 34c20.05 4.17 43.62 4.25 64.27 5.78 26.06 1.92 50.5 12.53 76.5 15 51.41 4.89 101.49 8.21 153.05 5.05.5-.99.9-2.05 1.25-3.17v-28.73z" fill="url(#SVGID_4_)"/><radialGradient id="SVGID_5_" cx="627.624" cy="275.917" r="63.353" gradientTransform="matrix(1.8115 .1559 -.0857 .9963 -563.431 -77.035)" gradientUnits="userSpaceOnUse"><stop offset="0" stop-color="#fff"/><stop offset="1" stop-color="#fff" stop-opacity="0"/></radialGradient><path d="M664.63 305.58c-3 34.86-56.81 58.7-120.2 53.24-63.38-5.45-112.33-38.13-109.33-72.99 3-34.86 56.81-58.7 120.19-53.25 63.39 5.46 112.34 38.14 109.34 73z" opacity=".4" fill="url(#SVGID_5_)"/><linearGradient id="SVGID_6_" gradientUnits="userSpaceOnUse" x1="376.59" y1="405.054" x2="376.59" y2="143.932"><stop offset="0" stop-color="#ada2cc"/><stop offset="1" stop-color="#ffceb3"/></linearGradient><path d="M753.02 371c-.52-5.59 3.52-11.38 6.05-17.25v-19.66c-3.29-11.14-9.34-21.38-6.2-32.94-32.54-1.65-64.41-1.03-96.62-4.93-22.98-2.78-46.14-5.38-69.05-8.22-12.81-1.59-24.71-5.43-37.22-6-32.44-1.47-69.72-6.44-99.73-17.25-25.32-9.12-53.13-14.19-74.52-32.48-4.98-4.26-9.55-10.48-15.75-12.24-2.95-.84-7.23.96-10.97-.04-3.58-.95-4.19-3.72-7.2-5.02-7.1-3.08-14.22-2.77-20.55-8.23-6.09-5.25-8.44-9.03-16.25-13-7.01-3.57-14.48-5.68-20.73-10.02-5.31-3.69-7.77-8.83-12.03-14-4.24-5.14-10.34-11.55-15.22-15.75-7.25-6.25-10.57-2.84-18.85-2.15-1.52-2.9-4.15-5.39-7.18-6.93-6.5-4.9-15.21 10.04-21.27 17.07-3.42 3.96-15.23-4.48-24.56 5.2-6.05 12.4-22.2 20.2-33.23 26.55-5.54 3.19-10.52 9.72-16.7 11.52-7.24 2.11-13.98-1.65-20.97 2.03-10.12 5.32-22.52 14.03-31.47 21.7-6.5 5.56-25.3-1.31-34.53 3.17-2 2.17-4.11 8.69-7.33 5.75-2.2-2.98-6.67-1.93-8.7-.3-2.47 1.44-2.99 1.54-5.25 3.5-7.34-6.7-11.89 1.55-17.27 4.7-4.83 2.83-10.71 4.59-15.62 7.72v94.07c1.11.11 2.14.24 2.89.39 9.54 1.87 16.56 7.07 25.78 11.08 23.17 10.07 44.68 19.29 70.27 22.22 97.39 11.14 196.38 4.4 293.94 13.45 47.63 4.42 95.16 9.83 143.03 10.3 39.15.38 77.95-3.02 117.02-3.02 23.11 0 45.38.06 68.23-3 13-1.74 27.05-.43 39.33-4.18-2.79-7.66-.81-15.75-1.57-23.81z" fill="url(#SVGID_6_)"/><radialGradient id="SVGID_7_" cx="429.757" cy="288.85" r="96.722" gradientTransform="matrix(1.8115 .1559 -.0857 .9963 -563.431 -77.035)" gradientUnits="userSpaceOnUse"><stop offset="0" stop-color="#fff"/><stop offset="1" stop-color="#fff" stop-opacity="0"/></radialGradient><path d="M365.53 292.82c-4.58 53.22-86.74 89.61-183.5 81.29-96.77-8.33-171.5-58.22-166.92-111.44 4.58-53.22 86.74-89.62 183.5-81.29 96.77 8.33 171.5 58.22 166.92 111.44z" opacity=".4" fill="url(#SVGID_7_)"/><linearGradient id="SVGID_8_" gradientUnits="userSpaceOnUse" x1="376.59" y1="230.334" x2="376.59" y2="414.853"><stop offset="0" stop-color="#9488ae"/><stop offset="1" stop-color="#c3b6e6"/></linearGradient><path d="M759.07 270.75c-18.47 6.65-37.48 12.23-55.16 20.22-11.17 5.04-23.58 12.42-36.41 15.34l-.45-.06c-4.13-.58-8.18.41-12.31-.24-1.49-.23-3.97-1.25-4.95-2.55-.98-1.3-.58-3.94-3.01-3.74-.47-2.62-5.91-2.87-8.01-2.75.13-2.24-.19-6.48-2.29-7.52-2.6-1.29-5.66-.35-8.44-2-2-1.19-3.87-.98-5.81-1.94-1.21-.6-.91-1.66-1.75-2.19-.85-.55-1.83.05-2.7-.36-1.04-.48-3.36-2.36-4.12-3.12-.79-.79-.6-1.82-1.69-2.51-.98-.62-2.18-.16-3.27-.3-3.57-.46-7.92-1.75-11.24-3.31-.81-.38-2.03-1.09-2.74-1.5-.52-.31-1.87-1.58-2.25-1.71-1.42-.49-1.87.4-3.06.47-.98.06-1.55-.38-2.44-.46-3.76-.32-7.22-2.49-10.75-2.5-1.19 0-2.11.63-3.25.75-.98.11-1.35-.45-2.5-.23-2.32.43-2.65 2.75-4.75 3.68-2.13.95-4.16-.76-6.25.04-1.29.5-1.77 1.55-3.25 1.77-1 .15-1.51-.55-2.49-.26-3.4 1.01-6.31 5.06-8.21 8-1.34 2.09-1.22 3.91-3.86 4.82-2.48.85-3.74-.71-5.96-1.32-3.58-.98-8.36-.51-11.99-.69-1.75-.09-4.59-.17-6.25.18-1.18.25-2.04 1.46-3.2 1.82-.83.26-1.96-.1-2.8.18-2 .65-3.21 2.08-5.49 2.27-2.28.2-4-.93-5.95-1.26-2.41-.41-2.5 1.23-5.06 1.75-3.13.63-2.55 1.01-4.8 2.96-.62.54-1.6.73-2.4 1.53-.49.49-.9 1.45-1.55 2.07-1.13 1.07-3 2.08-4.3 3.13-2.84 2.27-5.76 4.88-8.69 7.51-1.12 1.01-2.14 2.06-3.33 2.94-3.91 1.56-7.53 2.11-10.43.67-16.36 17.44-37.12-9.49-50.25-19.38-2.32-1.75-6.4 1.1-8.73-.6-1.56-1.14-2.96-7.22-3.18-7.32-6.71-2.84-5.92-2.13-13.24-2.89-12.53-1.3-19.18 4.12-30 6.04-8.93 1.58-25.89 1.63-34.53-.04-11.71-2.26-13.1-12.46-19.76-19.23-2.96-3.01-7.22-5.82-11.65-7.83a25.935 25.935 0 00-4.06-3.8c-2.38-1.8-4.19-2.75-7.11-2.25-1.3.22-2.65 1.16-3.98 1.41-1.47.28-2.59.07-4 .25-4.01.52-8.15 9-12.35 7.35-1.7-.67-2.4-4-3.39-5.35-2.23-3.02-3.6-1.94-6.25-2.42-2.32-.42-5.09-1.73-7.68-1.6-2.5.13-5.47 4.11-7.33 2.32-3.66.73-2.98 3.16-4.75 5.62-1.41 1.96-3.91 3.03-5.67 4.66-1.78 1.65-3.47 3.83-5.49 5.18-2.4 1.61-4.86 1.33-7.42 2.15-3.26 1.04-4.61 2.76-8.33 2.75-2.87-.01-5.56.36-8.33.07-5.24-.54-10.56-1.73-15.08-4.33-4.37-2.51-8.22-5.05-12.92-6.07-2.84-.62-4.96-.93-7.67-2.33-2.88-1.49-3.82-2.34-6.94-1.72a2.68 2.68 0 00-.07-.27c-2.66-1.07-2.2-3.34-5.73-3.11-1.1.07-2.5 1.03-3.57 1.12-1.56.12-2.2-.29-3.61-.45-5.68-.64-8.07-3.6-11.74-7.59-1.51-1.63-.88-1.24-3-1.98-1.4-.49-1.96-.22-3.08-.92-1.65-1.03-2.62-3.36-3.9-4.83-.93-1.07-3.61-3.76-5.08-4.52-2.55-1.31-5.22-.01-7.88-.46-.7-2.02-2.96-2.16-4.73-2.53-2.21-.47-3.3-1.33-5.32-2.09-4.06-1.53-7.4-2.98-12.02-2.98-4.05 0-8.71.46-12.09 2.24-.48.25-.94.53-1.38.82-5.88 2.17-11.05 6.01-16.92 8.86-20.08 9.76-34.91 10-55.16 11.66v135.33c19.08 10.1 44.89 13.07 63.66 17.17 65.02 14.21 129.25 6.3 195.49 5.66 38.21-.37 76.61-2.14 114.74-4.17 40.93-2.18 83.35-1.83 124-6.71 71.25-8.54 143.29-6.44 214.24-17.62 17.3-2.73 36.92-5.46 52.83-13.15v-99.7z" fill="url(#SVGID_8_)"/><radialGradient id="SVGID_9_" cx="371.741" cy="308.041" r="69.584" gradientTransform="matrix(1.7678 -.4251 .2338 .9723 -637.184 179.582)" gradientUnits="userSpaceOnUse"><stop offset="0" stop-color="#fff"/><stop offset="1" stop-color="#fff" stop-opacity="0"/></radialGradient><path d="M215.01 291.48c8.99 37.36-38.81 80.9-106.74 97.24-67.94 16.34-130.3-.71-139.28-38.08-8.98-37.37 38.81-80.9 106.74-97.24 67.94-16.33 130.3.72 139.28 38.08z" opacity=".5" fill="url(#SVGID_9_)"/><radialGradient id="SVGID_10_" cx="332.567" cy="322.324" r="69.584" gradientTransform="matrix(1.7678 -.4251 .2338 .9723 -637.184 179.582)" gradientUnits="userSpaceOnUse"><stop offset="0" stop-color="#fff"/><stop offset="1" stop-color="#fff" stop-opacity="0"/></radialGradient><path d="M149.1 322.02c8.99 37.36-38.81 80.9-106.74 97.24-67.94 16.34-130.3-.71-139.28-38.08-8.98-37.37 38.81-80.9 106.74-97.24 67.94-16.33 130.29.72 139.28 38.08z" opacity=".5" fill="url(#SVGID_10_)"/><radialGradient id="SVGID_11_" cx="471.645" cy="366.237" r="69.586" gradientTransform="matrix(1.8023 .24 -.132 .9912 -518.715 -141.852)" gradientUnits="userSpaceOnUse"><stop offset="0" stop-color="#fff"/><stop offset="1" stop-color="#fff" stop-opacity="0"/></radialGradient><path d="M408.4 351.06c-5.07 38.09-65.34 61.5-134.6 52.27-69.26-9.22-121.3-47.58-116.23-85.68 5.07-38.09 65.33-61.5 134.6-52.27 69.27 9.23 121.3 47.58 116.23 85.68z" opacity=".5" fill="url(#SVGID_11_)"/><radialGradient id="SVGID_12_" cx="624.701" cy="354.864" r="69.584" gradientTransform="matrix(1.8022 -.2407 .1324 .9912 -608.416 158.228)" gradientUnits="userSpaceOnUse"><stop offset="0" stop-color="#fff"/><stop offset="1" stop-color="#fff" stop-opacity="0"/></radialGradient><path d="M689.81 342.86c5.09 38.09-46.94 76.47-116.2 85.72S444.08 414.45 439 376.35c-5.09-38.09 46.94-76.47 116.19-85.72 69.26-9.25 129.53 14.14 134.62 52.23z" opacity=".5" fill="url(#SVGID_12_)"/><radialGradient id="SVGID_13_" cx="725.879" cy="379.434" r="69.584" gradientTransform="matrix(1.8022 -.2407 .1324 .9912 -608.416 158.228)" gradientUnits="userSpaceOnUse"><stop offset="0" stop-color="#fff"/><stop offset="1" stop-color="#fff" stop-opacity="0"/></radialGradient><path d="M875.41 342.86c5.09 38.09-46.94 76.47-116.2 85.72s-129.53-14.13-134.61-52.23c-5.09-38.09 46.94-76.47 116.19-85.72 69.26-9.25 129.53 14.14 134.62 52.23z" opacity=".5" fill="url(#SVGID_13_)"/><linearGradient id="SVGID_14_" gradientUnits="userSpaceOnUse" x1="283.02" y1="334.357" x2="283.02" y2="334.415"><stop offset="0" stop-color="#566bac"/><stop offset="1" stop-color="#9488ae"/></linearGradient><path d="M282.99 334.42c.02-.01.04-.03.06-.04-.06-.04-.07-.02-.06.04z" fill="url(#SVGID_14_)"/><linearGradient id="SVGID_15_" gradientUnits="userSpaceOnUse" x1="376.59" y1="465.104" x2="376.59" y2="295.709"><stop offset="0" stop-color="#9488ae"/><stop offset="1" stop-color="#566bac"/></linearGradient><path d="M759.07 352.5c-4.29-2.8-8.57-5.14-12.1-6.75-6.46-2.94-13.94-5.65-20.97-7.81-9.45-2.9-9.81-6.75-17.95-11.17-7.93-4.31-14.42.82-22.35-2.48-2.75-1.14-4.69-5.03-8.7-6.37-3.09-1.03-6.08.63-9.78-1.15-3.4-1.63-2.33-6.12-8.22-6.57-1.51-.12-9.57 3.16-11 3.8-5.94 2.64-12.74 5.53-18.98 9.22-7.53 4.46-9.39 9.96-18.02 13-6.98 2.46-15.41 3.02-22.23 6.48-8.58 4.36-11.33 10.15-21.8 7.32-7.44-2.01-13.79-5.76-21.98-6.02-2.15-.07-5.42.33-9.19.76-.64-.04-1.26-.07-1.81-.1-5.5-.27-10.17.26-15.33-1.01-5.53-1.36-8.13-4.64-12.01-8.33-.33-.32-2.07-1.8-2.73-2.25-1.17-.79-1.97-.93-3.27-1.41-2.24-.83-5.15-.45-7.33-1.33-2.3-.93-2.61-4.24-3.67-6.34-1.44-2.85-3.39-3.03-6.67-3.67-2.96-.57-4.46.92-7-.33-2.14-1.05-2.61-3.63-5.68-1.76-1.6.97-2.59 3.75-4.4 5.01-2.15 1.49-3.66 2.76-5.57 4.5-1.1 1-1.98 1.43-3.07 2.59-1 1.06-1.75 2.05-2.94 2.9-2 1.43-5.99 2.67-8.33 3.03-1.48.22-2.46-.37-3.93.12-1.05.36-2.27 2.13-3.42 2.61-2.87 1.19-5.21-.14-7.98-.02-1.51.07-2.62 1.12-4.02 1.02-1.36-.1-1.81-1.05-2.92-1.34-2.4-.63-4.43.03-6.73-.23-2.63-.3-4.74-.97-6.69.9-1.99 1.91-1.63 4.83-5.66 3.27-1.83-.71-3.41-2.7-4.92-4.33-2.47-2.66-3.16-1.85-6.33-3-4.01-1.45-8.3-5.98-12.69-5.33-.9-2.59-2.67-4.83-3.63-7.37-.92-2.43-1.09-4.68-3-6.66-2.66-2.76-6.24-3.57-10-3.81-1.76-.68-3.51-1.04-5.09-.88-5.41.55-11.62 6.71-15.97 7.7-6.63 1.5-14.24 1.55-20.02 4.08-8.14 3.57-11.79 4.65-21.06 5.94-1.03.14-2.31.36-3.7.65-4.94.08-9.88.37-14.92.74-10.45.76-16.16 8.6-25.48 11.18-8.86 2.45-20.41 6.8-28.37 2.67-5.46-2.83-5.18-6.55-8.81-10.52-2.82-3.08-8.98-2.18-10.78-7.88-1.31-.19-4.91.03-5.88-.77-1.96-1.63-.97-2.62-2.69-4.7-2.52-3.06-3.01-3.98-6.79-4.8-6.16-1.34-13.82-1.92-20.51-2.5-7.12-.62-12.81-5.46-19.35-5.36-4.58.07-13.04-6.03-18.1-3.22-3.94 2.25-8.78-1.83-13.23-2.93-4.2-1.04-3.84-.38-6.83-.21-2.07-.36-3.34-.13-5.29-3.54-7.38-6.09-22.07 2.54-25.85 11.17-8.46-2.68-15.69 5.96-22.05 10.25-4.26 2.88-7.51 3.1-12.01 5.14-3.26 1.47-6.61 6.05-9.97 6.73-1.72.35-4.07-.91-6-.7-2.05.22-4.53 1.51-6.66 2.04-4.45 1.1-8.87 2.08-12.66 4.78-3.83 2.73-7.52 4.85-11.37 6.56-3.23-.05-6.9-.27-10.52-.29v113.36c4.12 1.48 7.81 2.69 9.94 3.5 11.31 4.32 23.04 3.73 35.13 3.73 22.94-.01 46 1.47 68.87 1.02 33.72-.66 68.79-7.11 101.95-13.27 16.95-3.15 34.02-6.89 51.02-9.55 17.26-2.7 35.3-.21 52.75-.2 63.02.01 126.42 1.16 189-5 29.33-2.89 58.72-8.1 88.22-9.02 28.34-.88 56.74.23 85-1 26.33-1.15 57.03 4.1 83.07-3.15V352.5z" fill="url(#SVGID_15_)"/><radialGradient id="SVGID_16_" cx="387.858" cy="348.999" r="48.183" gradientTransform="matrix(1.7678 -.4251 .2338 .9723 -637.09 179.463)" gradientUnits="userSpaceOnUse"><stop offset="0" stop-color="#fff"/><stop offset="1" stop-color="#fff" stop-opacity="0"/></radialGradient><path d="M215.35 333.43c6.22 25.87-26.87 56.02-73.91 67.33-47.04 11.31-90.22-.49-96.44-26.37-6.22-25.87 26.87-56.02 73.91-67.33 47.03-11.31 90.21.49 96.44 26.37z" opacity=".5" fill="url(#SVGID_16_)"/><radialGradient id="SVGID_17_" cx="572.53" cy="442.761" r="48.183" gradientTransform="matrix(1.8098 .1744 -.0959 .9954 -516.63 -170.81)" gradientUnits="userSpaceOnUse"><stop offset="0" stop-color="#fff"/><stop offset="1" stop-color="#fff" stop-opacity="0"/></radialGradient><path d="M564.28 378.17c-2.55 26.49-43.66 44.2-91.83 39.56-48.16-4.64-85.13-29.88-82.58-56.36 2.55-26.49 43.67-44.2 91.82-39.56 48.17 4.63 85.14 29.87 82.59 56.36z" opacity=".5" fill="url(#SVGID_17_)"/><linearGradient id="SVGID_18_" gradientUnits="userSpaceOnUse" x1="376.59" y1="512.993" x2="376.59" y2="306.683"><stop offset="0" stop-color="#566bac"/><stop offset=".3" stop-color="#5269aa"/><stop offset=".589" stop-color="#4763a3"/><stop offset=".873" stop-color="#335a98"/><stop offset="1" stop-color="#285491"/></linearGradient><path d="M759.07 408.41c-4.28-.75-8.59-1.03-11.57-1.39-9.29-1.13-17.94-3.4-27.5-3.51-4.29-.05-8.28-.57-12.5-1-5.28-.53-6.63-2.04-11.01-4.42-6.71-3.63-15.22-1.97-22.11-5.07-1.91-.86-2.35-1.78-4.49-2.16-.42-.08-2.01 1.15-2.89 1.16-1.37.01-1.55-1.57-2.36-1.65-3.63-.39-7.43.77-11.14 1.15-8.78.89-16.22 3.14-25.01 1.5-7.18-1.34-13.92-4.59-20.49-7.5-2.92-1.29-6.08-3.68-8.99-4.01-2.58-.3-3.89 1.87-5.99 2.04-2.33.18-3.97-1.03-6.05-1.55-1.48-.37-3.04-.22-4.97-.98-1.69-.66-2.43-2.26-4.5-2.51-3.71-.45-7.88 2.32-11.5 2.9-8.52 1.36-14.28 1.47-21.88-2.51-.61-.32-1.22-.65-1.84-.97-1.82-1.54-3.65-3-5.62-4.24-7.33-4.62-13.97-8.57-21.82-12.85-3.62-1.98-6.21-5.58-9.5-7.17-4.82-2.33-9.92 1.1-14.02 1.36-5.04.33-9.61-3.85-13.34-3.88-6.86-.04-7.59 6.77-11.97 9.75-2.05 1.4-5.27.47-7.2 2.28-2.22 2.09-1.23 5.06-2.97 7.03-2.25 2.54-10.07 6.38-13.18 8.12-4.58 2.55-9.39 4.77-13.31 6.02-4.31 1.37-11.84 3.79-17.37 3.35-6.26-.5-8.93-.72-15.33-.02-6.44.71-8.36-1.73-13.32-3.35-2.36-.77-5.29-.42-7.51-1.15-1.93-.63-3.5-2.69-5.82-2.85-5.94-.4-7.35 3.94-13.5.83-7.87-3.98-13.03-9.33-17.65-15.66-2.32-3.18-2.67-9.9-5.66-12.35-1.59-1.3-5.23-.42-7.4-1.97-1.42-1.02-2.27-4.21-3.8-5.53-3.07-2.64-8.73-3.73-12.66-4.63-4.93-1.14-9.5-5.57-14.55-4.76-.3-.41-.33-1.19-.58-1.66-3.38.05-7.17-2.01-10.18-4.26-.73-.55-2.74-2.75-3.52-3.13-2.21-1.08-3.75-.23-5.7-.97-3.15-1.2-6.06-3.24-8.63-4.56-3.5-1.8-5.47-5.69-10.06-4.75 0-.78-4.19-.97-4.18-1.75-2.83-2.31-4.77-1.24-9.25-2.15-5.39-1.09-8.44 1.08-13.37.71-1.13-.08-3.75-2.36-5.3-2.72-1.64-.38-4.27.48-5.37.05-2.06-.81-1.57-3.29-3.95-4.06-2.16-.7-4.18.02-5.85.18-3.43.35-8.51 1.58-12.15 2.52-1.39.36-4.77 1.75-6 1.82-1.55.08-4.59-.58-5.5-.5-5.44.5-5.66 1.34-9.22 6.01-2.6 3.42-4.14 5.18-5.4 10.55-3.82.06-7.83 5.63-11.05 6.8-2.08.76-4.3.54-6.37 1.78-1.47.89-2.48 3.27-4.34 4.36-3.05 1.79-9.67 2.79-12.96 3.67-2.43.65-2.95 1.14-5.2 1.5-1.51.25-4.2-.77-5.98-.54-9.37 1.25-11.77 14.65-21.34 14.51-7.09-.1-21.75-10.08-27.48-2.06-10.02-7.4-17.3 6.27-25.85 9.41-2.4.88-5 1.52-7.69 1.94-11.2-1.84-21.75-7.72-32.31-11.23-3.78-1.26-9.57-3.36-15.89-5.33v136.86c36.69 10.69 78.5 11.3 115.78 12.99 35.6 1.61 70.63 6.87 106.33 6.76 4.57-.01 9.08.22 13.57.57h134.88c90.59-4.83 181.03-16.07 271.55-19.58 39.26-1.52 84.03 3.9 122.85-5.27v-76.32z" fill="url(#SVGID_18_)"/><radialGradient id="SVGID_19_" cx="409.03" cy="403.852" r="96.72" gradientTransform="matrix(1.7678 -.4251 .2338 .9723 -637.184 179.582)" gradientUnits="userSpaceOnUse"><stop offset="0" stop-color="#fff"/><stop offset="1" stop-color="#fff" stop-opacity="0"/></radialGradient><path d="M351.3 357.25c12.49 51.94-53.94 112.45-148.37 135.16-94.43 22.71-181.11-.99-193.6-52.92-12.49-51.94 53.94-112.45 148.37-135.16 94.44-22.71 181.11.99 193.6 52.92z" opacity=".7" fill="url(#SVGID_19_)"/><linearGradient id="SVGID_20_" gradientUnits="userSpaceOnUse" x1="376.59" y1="533.611" x2="376.59" y2="306.487"><stop offset="0" stop-color="#285491"/><stop offset=".066" stop-color="#27528c"/><stop offset=".37" stop-color="#234a78"/><stop offset=".679" stop-color="#21456d"/><stop offset="1" stop-color="#204369"/></linearGradient><path d="M759.07 385.43c-1-.32-1.98-.79-2.96-1.57-2.75-2.17-3.73-4.6-6.99-6.49-5.73-3.31-11.1-8.2-16-12.53-2.59-2.29-3.09-4.92-7.24-5.74-5.75-1.13-3.94 2.52-8.38 3.44-8.8-10.28-22.61-14.24-32.88-22.67-1.5-1.23-2.36-1.97-3.62-3.85-.66-.98-1.74-4.58-2.36-5.05-2.73-2.09-6.4-1.78-9.65-4.46-4.97-4.11-11.86-10.75-17.99-12.65-7.37-2.29-8.82 3.15-14.47 4.27-3.93.78-9.66-3.85-13.03-6.27-5.1-3.67-8.34-5.44-15.51-5.38-5.67.05-9.24 6.98-13.9 6.6-.93 2.09-4.72 5.48-6.46 7.05-3.36 3.02-6.05 1.99-10.02 3.48-2.79 1.04-5.83 5.08-8.45 6.54-3.18 1.76-6.39 1.93-9.14 4.35-.71.62-3.34 3.37-3.89 3.65-1.8.92-4.23-.16-6.13.97-4.19 2.49-2.22 7.71-4.12 11.27-1.15 2.16-5.03 5.96-7 7.49-1.47 1.14-3.25.85-4.37 1.7-1.92 1.44-2.53 4.16-4.36 5.57-1.29.99-2.87.49-4.15 1.48-1.24.95-1.63 2.48-2.6 3.26-2.09 1.68-4.32 3.06-6.51 4.6-2.7 1.9-5.18 3.89-7.9 5.58-4.94-.43-9.87-1.12-14.98-2.4-9.25-2.3-19.37-10.83-29.22-8.1-1.48-10.04-19.68-4.21-18.22-16.46-4.13.38-6.17.39-9.72-.95-3.27-1.24-3.78-4.91-8.07-2.37 1.75 12.32-13.27 4.27-18.12 3.37-5.05-.94-6.33-.35-10.16-4.8-2.42-2.81-3.86-6.1-6.67-8.58-4.18 2.35-10.33 1.69-12.62-2.65-7.41.57-7.19-3.5-12.73-5.97-2.24-.99-4.16.11-6.32-.32-1.11-.22-4.19-2.03-5.5-2.5-3.83-1.36-10.25-3.51-14.67-2.67-5.65 1.08-6.16 4.44-11.85 2.67-5.69-1.78-5.24-5.62-11.33-1.15-3.81 2.79-5.81 4.97-9.52 7.11-8.02 4.65-13.58 14.16-21.94 20.06-2.91 2.05-7.55 6.79-11.5 7.85-5.09 1.36-11.49-.28-16.52-.53-7.12-.35-9.8.51-15.34 3.86-4.33 2.62-9.27 2.78-13.15 5.6-2.52 1.84-3.18 6.11-6.19 7.25-1.52.58-5.49-.62-7.33-.71-4.31-.21-12.08-.29-15.85 1.43-4.89 2.23-7.98 6.74-14.15 7.23-4.53.36-9.17-4-12.67-6.53-.47-.34-6.72-3.34-6.67-3.35-3.82.36-3.47 3.93-5.85 5.21-4.1 2.21-7.3-.71-12.64.83.56-.16-6.33 4.14-5.53 3.14-2.05 2.58-.89 2.95-1.34 5.51-.15.85 1.58 2.14.86 4.02-.63 1.64-2.34 1.06-2.84 1.84-1.17 1.8-3.21 2.54-3.43 5.9-3.57.12-2.97 2.69-5.06 4.1-1.71 1.15-3.22 1.51-5.46 2.71-4.56 2.42-5.29 4.33-9.39 7.98-6.55 5.84-16.53 7.49-24.65 6.65-9.97-1.03-22.14-1.11-32 0-6.21.7-10.42 1.47-15.51 3.21-2.98 1.02-8.89 4.74-11.8 4.81-5.19.12-8.93-4.43-14.7-2.03-3.82 1.59-5.85 6.5-9.95 8.05-2.38.9-5.18.01-7.55 1.1-1.53.7-3.1 3.1-4.65 4.03-.77.46-1.58.85-2.39 1.21v64.87h764.96V385.43z" fill="url(#SVGID_20_)"/><linearGradient id="SVGID_21_" gradientUnits="userSpaceOnUse" x1="291.201" y1="153.355" x2="291.201" y2="46.479" gradientTransform="rotate(-5.468 609.343 156.021)"><stop offset=".355" stop-color="#f4f7ea" stop-opacity="0"/><stop offset=".726" stop-color="#f9fbf4" stop-opacity=".576"/><stop offset="1" stop-color="#fff"/></linearGradient><path d="M465.25 146.07c-10.47-1.2-22.71-4.29-33.22-6.9-37.44-9.33-67.63-27.34-101.96-42.52-9.82-4.35-31.33-22.02-41.3-19.94-10.75 2.24-12.54 11.11-25.91 9.87-12.33-1.15-22.95-1.59-35.25 2.8-13.43 4.79-23.29 13.01-36.71 18.52-9.19 3.77-24.8 4.58-32.65 11.81-5.69 5.24-4.61 13.77-9.76 18.98-5.2 5.26-12.6 3.95-18.74 6.35-7.14 2.79-9.63 6.78-18.06 6.11-5.17-.41-8.75-3.27-15.66-2.86-14.9.87-22.81 11.85-37.62 12.27l463.67 1.13c-11.75-1.2-25.92-5.36-34.23-8.59-8.99-3.49-12.36-5.85-22.6-7.03z" fill="url(#SVGID_21_)"/><linearGradient id="SVGID_22_" gradientUnits="userSpaceOnUse" x1="468.636" y1="245.327" x2="468.636" y2="168.343" gradientTransform="rotate(-5.468 609.343 156.021)"><stop offset=".355" stop-color="#f4f7ea" stop-opacity="0"/><stop offset=".726" stop-color="#f9fbf4" stop-opacity=".576"/><stop offset="1" stop-color="#fff"/></linearGradient><path d="M602.31 231.24c-7.54-.87-16.36-3.09-23.93-4.97-26.97-6.72-48.72-19.69-73.44-30.63-7.08-3.13-22.57-15.86-29.75-14.36-7.74 1.62-9.03 8.01-18.66 7.11-8.88-.83-16.53-1.14-25.39 2.02-9.68 3.45-16.78 9.37-26.44 13.34-6.62 2.72-17.86 3.3-23.52 8.51-4.1 3.78-3.32 9.92-7.03 13.67-3.75 3.79-9.08 2.85-13.5 4.58-5.15 2.01-6.94 4.88-13.01 4.4-3.73-.3-6.3-2.35-11.28-2.06-10.73.63-16.43 8.54-27.1 8.84l333.99.81c-8.46-.87-18.67-3.86-24.66-6.19-6.48-2.52-8.9-4.21-16.28-5.07z" opacity=".3" fill="url(#SVGID_22_)"/><linearGradient id="SVGID_23_" gradientUnits="userSpaceOnUse" x1="526.968" y1="109.203" x2="526.968" y2="68.582" gradientTransform="rotate(-5.468 609.343 156.021)"><stop offset=".355" stop-color="#f4f7ea" stop-opacity="0"/><stop offset=".726" stop-color="#f9fbf4" stop-opacity=".576"/><stop offset="1" stop-color="#fff"/></linearGradient><path d="M588.6 102.97c-3.98-.46-8.63-1.63-12.63-2.62-14.23-3.55-25.71-10.39-38.75-16.16-3.73-1.65-11.91-8.37-15.7-7.58-4.08.85-4.77 4.22-9.85 3.75-4.69-.44-8.72-.6-13.4 1.07-5.11 1.82-8.85 4.94-13.95 7.04-3.49 1.43-9.43 1.74-12.41 4.49-2.16 1.99-1.75 5.23-3.71 7.21-1.98 2-4.79 1.5-7.12 2.41-2.71 1.06-3.66 2.58-6.87 2.32-1.97-.16-3.33-1.24-5.95-1.09-5.66.33-8.67 4.51-14.3 4.66l176.23.43c-4.46-.46-9.85-2.04-13.01-3.27-3.41-1.31-4.69-2.21-8.58-2.66z" fill="url(#SVGID_23_)"/><linearGradient id="SVGID_24_" gradientUnits="userSpaceOnUse" x1="32.679" y1="67.912" x2="32.679" y2="27.291" gradientTransform="rotate(-5.468 609.343 156.021)"><stop offset=".355" stop-color="#f4f7ea" stop-opacity="0"/><stop offset=".726" stop-color="#f9fbf4" stop-opacity=".576"/><stop offset="1" stop-color="#fff"/></linearGradient><path d="M92.6 108.97c-3.98-.46-8.63-1.63-12.63-2.62-14.23-3.55-25.71-10.39-38.75-16.16-3.73-1.65-11.91-8.37-15.7-7.58-4.08.85-4.77 4.22-9.85 3.75-4.69-.44-8.72-.6-13.4 1.07-5.11 1.82-8.85 4.94-13.95 7.04-3.49 1.43-9.43 1.74-12.41 4.49-2.16 1.99-1.75 5.23-3.71 7.21-1.98 2-4.79 1.5-7.12 2.41-2.71 1.06-3.66 2.58-6.87 2.32-1.97-.16-3.33-1.24-5.95-1.09-5.66.33-8.67 4.51-14.3 4.66l176.23.43c-4.46-.46-9.85-2.04-13.01-3.27-3.41-1.31-4.69-2.21-8.58-2.66z" fill="url(#SVGID_24_)"/><linearGradient id="SVGID_25_" gradientUnits="userSpaceOnUse" x1="649.449" y1="200.77" x2="649.449" y2="142.756" gradientTransform="rotate(-5.468 609.343 156.021)"><stop offset=".22" stop-color="#f4f7ea" stop-opacity="0"/><stop offset=".669" stop-color="#f9fbf4" stop-opacity=".576"/><stop offset="1" stop-color="#fff"/></linearGradient><path d="M747.38 176.33c-5.68-.65-12.33-2.33-18.03-3.75-20.32-5.07-36.71-14.84-55.34-23.08-5.33-2.36-17.01-11.95-22.42-10.82-5.83 1.22-6.81 6.03-14.06 5.36-6.69-.62-12.46-.86-19.13 1.52-7.29 2.6-12.64 7.06-19.93 10.05-4.99 2.05-13.46 2.49-17.72 6.41-3.09 2.85-2.5 7.47-5.3 10.3-2.82 2.86-6.84 2.15-10.17 3.45-3.88 1.52-5.23 3.68-9.81 3.32-2.81-.22-4.75-1.77-8.5-1.55-8.09.47-12.38 6.43-20.42 6.66l251.69.61c-6.38-.65-14.07-2.91-18.58-4.66-4.89-1.9-6.72-3.17-12.28-3.82z" opacity=".6" fill="url(#SVGID_25_)"/><linearGradient id="SVGID_26_" gradientUnits="userSpaceOnUse" x1="45.407" y1="183.182" x2="45.407" y2="125.167" gradientTransform="rotate(-5.468 609.343 156.021)"><stop offset=".22" stop-color="#f4f7ea" stop-opacity="0"/><stop offset=".669" stop-color="#f9fbf4" stop-opacity=".576"/><stop offset="1" stop-color="#fff"/></linearGradient><path d="M144.38 216.39c-5.68-.65-12.33-2.33-18.03-3.75-20.32-5.07-36.71-14.84-55.34-23.08-5.33-2.36-17.01-11.95-22.42-10.82-5.83 1.22-6.81 6.03-14.06 5.36-6.69-.62-12.46-.86-19.13 1.52-7.29 2.6-12.64 7.06-19.93 10.05-4.99 2.05-13.46 2.49-17.72 6.41-3.09 2.85-2.5 7.47-5.3 10.3-2.82 2.86-6.84 2.15-10.17 3.45-3.88 1.52-5.23 3.68-9.81 3.32-2.81-.22-4.75-1.77-8.5-1.55-8.09.47-12.38 6.43-20.42 6.66l251.69.61c-6.38-.65-14.07-2.91-18.58-4.67-4.89-1.89-6.72-3.17-12.28-3.81z" opacity=".5" fill="url(#SVGID_26_)"/><linearGradient id="SVGID_27_" gradientUnits="userSpaceOnUse" x1="747.022" y1="162.31" x2="747.022" y2="161.707"><stop offset="0" stop-color="#f4f7ea" stop-opacity="0"/><stop offset=".417" stop-color="#f4eaea" stop-opacity=".417"/><stop offset="1" stop-color="#f4dbea"/></linearGradient><path d="M750 162.29l-5.96-.59c2.19.44 4.24.68 5.96.59z" fill="url(#SVGID_27_)"/></g><g class="st2"><path class="st28" d="M694.1 107.54s19.3-31.05 44.88-42.43c25.58-11.37 64.12-18.43 79.95-17.45-4.2 1.05-7.86 1.58-11.75 3.21 14.64-1.1 24.44 5.96 24.44 5.96-6.37-2.34-19.62-3.46-22.46-2.96 4.44.89 24.03 6.02 27.78 4.74-2 1.71-11.42 1.59-14.85.51 9.64 5.51 11.58 8.83 12.91 12.87-4.22-5-13.17-12.62-24.41-12.95 15.72 6.85 20.92 14.5 21.65 16.26-3.92-3.91-21.17-13.52-30.54-12.2 13.82 4.36 20.82 11.6 20.82 11.6s-14.58-8.72-22.74-8.86c11.39 5.42 20.41 13.44 20.41 13.44s-21.27-12.99-30.97-13.48c8.8 4.94 15.31 12.88 15.31 12.88-4.21-2.6-17.15-10.26-17.15-10.26s10.96 13.11 17.27 13.99c-4.12.93-15.25-6-18-8.64 3.64 6.46 5.57 12.7 5.22 13.7-3.63-6.36-10.38-13.33-10.38-13.33s3.76 9.58 2.68 15.31c-1.89-5.41-5.14-14.46-6.08-14.4 2.2 8.38 2.01 17.4 2.01 17.4s-1.99-13.75-6.9-17.28c4.51 12.05 3.98 20.92 3.25 22.09-.04-4.38-6.55-18.9-6.55-18.9s-.02 13.58 3.92 19.36c-1.53-.35-8.63-12.9-9.1-19.18-.18 9.74 1.52 21.24 4.44 25.33-2.65-1.42-8.69-13.2-8.06-20.93-.61 7.21 4.11 19.84 4.11 19.84s-9.41-9-8.96-20.15c-1.06 7.08 2.74 17.48 2.74 17.48s-5.4-6.36-5.81-15.27c-.69 8.58 1.43 20.11 3.95 21.97-3.5-2.73-7.19-13.67-7.6-16-1.43 3.17 1.27 13.25 1.82 13.98-2.11-.78-5.96-13.15-5.96-13.15s-.13 10.56 2.83 13.7c-1.73-.94-5.66-7.25-6.74-12.18-.89 6.85 4.18 14.31 4.18 14.31s-7.77-5.64-8.22-14.75c-1.74 6.78 1.3 13.98 1.3 13.98s-4.66-5.76-4.3-12.61c-2.19 3.61-.6 11.48 1.05 14.33-1.89-.61-5.85-9.53-5.49-13.45-1.95 2.01-.46 10.52-.46 10.52s-3.25-6.63-2.51-9.58c-1.93 1.48.28 11.12.28 11.12s-3.7-8.02-3.04-10.85c-1.83 3.24-.25 11.12 2.21 14.44-2.13-.25-6.88-6.8-8.04-18.74-2.67 4.38-2.35 13.41-.65 15.92-2.23-.23-5.2-11.77-4.31-15.68-2.89 5.83-2.69 11.43-2.69 11.43l-.77-10.67s-3.47.77-5.21 5.14c-1.74 4.38-8.07 12.07-9.29 12.28-1.21.23-1.42-2.76-1.42-2.76z"/><path class="st28" d="M690.4 109.21s3.58-36.39 21.49-57.91c17.9-21.5 49.35-44.88 63.98-51-3.3 2.79-6.35 4.9-9.12 8.07C779.39.91 791.29 2.9 791.29 2.9c-6.73.72-19.12 5.57-21.44 7.27 4.37-1.17 24.21-5.23 27-8.03-1.03 2.41-9.54 6.47-13.08 7.02 11.08.68 14.28 2.8 17.27 5.84-5.99-2.62-17.39-5.49-27.61-.82 17.13-.8 25.17 3.76 26.6 5.01-5.24-1.77-24.96-2.76-32.78 2.57 14.33-2.19 23.81 1.19 23.81 1.19s-16.94-1.37-24.32 2.12c12.61-.18 24.26 3.02 24.26 3.02s-24.82-2.23-33.74 1.61c10.08.54 19.42 4.78 19.42 4.78-4.93-.47-19.91-1.62-19.91-1.62s15.63 6.91 21.68 4.91c-3.28 2.65-16.33 1.37-19.97.21 6.12 4.19 10.62 8.93 10.74 9.98-6.06-4.1-15.2-7.36-15.2-7.36s7.61 6.92 9.18 12.54c-4.09-4.02-11-10.69-11.81-10.22 5.68 6.55 9.5 14.71 9.5 14.71S753 46.21 747.06 45.21c9.38 8.81 12.81 17 12.67 18.39-1.96-3.92-14.22-14.07-14.22-14.07s5.98 12.19 12.07 15.64c-1.52.35-13.44-7.75-16.65-13.17 4.15 8.81 10.77 18.37 15.18 20.74-3-.09-13.63-7.99-16.48-15.21 2.63 6.73 12.46 15.99 12.46 15.99s-12.42-3.92-16.95-14.11c2.19 6.81 10.2 14.46 10.2 14.46s-7.65-3.31-11.96-11.13c3.17 8 10.18 17.41 13.26 17.96-4.35-.9-12.51-9.08-13.9-10.99.12 3.48 7 11.32 7.82 11.74-2.24.24-11.17-9.17-11.17-9.17s4.56 9.54 8.59 11.05c-1.97-.09-8.28-4-11.42-7.95 2.23 6.53 10.07 10.98 10.07 10.98s-9.46-1.62-13.89-9.58c1.44 6.85 7.34 11.96 7.34 11.96s-6.73-3.11-9.43-9.41c-.36 4.21 4.54 10.56 7.27 12.39-1.95.28-9.46-5.95-10.87-9.64-.86 2.66 4.24 9.64 4.24 9.64s-5.85-4.51-6.49-7.48c-1.07 2.18 5.17 9.85 5.17 9.85s-6.87-5.56-7.54-8.38c-.21 3.72 4.7 10.08 8.38 11.96-2.02.72-9.17-3.05-15.5-13.26-.47 5.12 3.82 13.07 6.46 14.58-2.11.78-9.87-8.26-10.81-12.17-.02 6.51 2.64 11.45 2.64 11.45l-5.41-9.23s-2.77 2.22-2.39 6.91c.37 4.69-1.9 14.39-2.9 15.12-.99.73-2.5-1.86-2.5-1.86z"/><path class="st28" d="M694.88 116.93s-18.34-31.64-16.37-59.56c1.98-27.92 13.85-65.26 22.16-78.78-1.04 4.21-2.29 7.7-2.69 11.89 5.91-13.43 16.73-18.76 16.73-18.76-5.05 4.51-12.26 15.69-13.15 18.42 2.87-3.49 16.6-18.38 17.23-22.29.57 2.57-3.97 10.83-6.53 13.35 9.4-5.91 13.24-6.07 17.44-5.35-6.4 1.38-17.33 5.69-22.9 15.46 13.43-10.65 22.63-11.65 24.52-11.46-5.3 1.63-21.88 12.33-25.11 21.22 10.35-10.14 20.02-12.93 20.02-12.93s-14.55 8.77-18.5 15.92c10.13-7.51 21.45-11.72 21.45-11.72s-21.45 12.69-26.44 21.01c8.48-5.45 18.55-7.46 18.55-7.46-4.28 2.5-17.11 10.32-17.11 10.32s16.73-3.52 20.47-8.68c-1.11 4.08-12.46 10.65-16.09 11.84 7.41-.17 13.82 1.06 14.54 1.83-7.32.2-16.64 2.9-16.64 2.9s10.23 1.17 14.77 4.82c-5.67-.87-15.17-2.25-15.56-1.4 8.44 2 16.31 6.4 16.31 6.4s-13.08-4.69-18.49-2.03c12.76 1.68 20.33 6.32 21.02 7.52-3.88-2.03-19.75-3.1-19.75-3.1s11.97 6.4 18.93 5.64c-1.03 1.18-15.44 1.56-21.21-.97 8.51 4.72 19.47 8.63 24.44 7.98-2.5 1.66-15.73 1.46-22.26-2.73 6.07 3.93 19.45 5.7 19.45 5.7s-12.37 4.07-22-1.56c5.75 4.26 16.72 5.79 16.72 5.79s-8.15 1.77-16.21-2.05c7.25 4.64 18.43 8.18 21.25 6.83-4.05 1.82-15.45-.06-17.7-.8 2.13 2.75 12.29 5.1 13.21 4.96-1.68 1.5-14.42-.92-14.42-.92s9.27 5.08 13.42 3.95c-1.65 1.09-9.06 1.59-13.91.21 5.62 4 14.59 3.04 14.59 3.04s-8.62 4.22-16.88.33c5.17 4.72 12.94 5.42 12.94 5.42s-7.27 1.41-13.15-2.14c2.17 3.63 9.86 5.93 13.15 5.81-1.42 1.37-11.15.68-14.45-1.47.86 2.66 9.07 5.35 9.07 5.35s-7.38-.25-9.64-2.29c.4 2.41 9.95 4.99 9.95 4.99s-8.82-.5-11.01-2.41c2.01 3.14 9.7 5.44 13.79 4.83-1.23 1.76-9.23 2.88-20.33-1.71 2.62 4.42 10.74 8.37 13.76 8.06-1.26 1.86-12.84-.95-15.88-3.56 3.79 5.29 8.83 7.75 8.83 7.75L689.43 96s-.95 3.43 2.09 7.01c3.05 3.59 6.86 12.79 6.48 13.97-.39 1.15-3.12-.05-3.12-.05z"/><path class="st28" d="M695.46 109.15s32.65-16.46 60.4-12.86c27.76 3.6 64.35 17.63 77.35 26.71-4.13-1.29-7.54-2.74-11.71-3.38 13.07 6.67 17.77 17.8 17.77 17.8-4.23-5.31-14.95-13.16-17.63-14.21 3.33 3.07 17.38 17.65 21.25 18.5-2.59.41-10.58-4.6-12.95-7.29 5.35 9.73 5.28 13.56 4.32 17.72-1-6.47-4.68-17.64-14.1-23.76 9.85 14.03 10.31 23.27 10.02 25.14-1.32-5.38-11.03-22.56-19.73-26.3 9.53 10.92 11.75 20.74 11.75 20.74s-7.91-15.03-14.82-19.4c6.91 10.56 10.44 22.11 10.44 22.11s-11.42-22.16-19.44-27.62c4.95 8.79 6.37 18.95 6.37 18.95-2.25-4.41-9.3-17.68-9.3-17.68s2.53 16.91 7.47 20.94c-4-1.34-9.9-13.05-10.88-16.75-.26 7.41-1.86 13.74-2.68 14.41.22-7.32-1.92-16.77-1.92-16.77s-1.77 10.13-5.67 14.45c1.2-5.61 3.12-15.01 2.31-15.45-2.49 8.3-7.35 15.9-7.35 15.9s5.46-12.78 3.11-18.34c-2.42 12.64-7.49 19.93-8.73 20.55 2.25-3.76 4.24-19.55 4.24-19.55s-7.08 11.59-6.73 18.58c-1.12-1.11-.65-15.51 2.21-21.12-5.22 8.23-9.75 18.93-9.39 23.93-1.52-2.59-.54-15.79 4.03-22.06-4.28 5.83-6.83 19.09-6.83 19.09s-3.35-12.59 2.83-21.87c-4.58 5.49-6.75 16.35-6.75 16.35s-1.29-8.24 2.99-16.06c-5.05 6.96-9.24 17.92-8.06 20.81-1.57-4.15.96-15.42 1.83-17.61-2.87 1.97-5.8 11.97-5.72 12.89-1.41-1.77 1.76-14.34 1.76-14.34s-5.62 8.96-4.72 13.18c-.99-1.71-1.05-9.14.59-13.91-4.32 5.38-3.87 14.39-3.87 14.39s-3.71-8.86.65-16.87c-5.01 4.88-6.16 12.61-6.16 12.61s-.99-7.35 2.89-13.01c-3.76 1.95-6.49 9.5-6.56 12.78-1.29-1.5-.04-11.17 2.31-14.34-2.71.7-5.87 8.75-5.87 8.75s.68-7.36 2.85-9.5c-2.42.27-5.55 9.65-5.55 9.65s1.01-8.78 3.04-10.85c-3.25 1.82-6 9.36-5.62 13.49-1.69-1.32-2.33-9.38 2.9-20.19-4.57 2.35-8.99 10.23-8.86 13.27-1.78-1.37 1.7-12.76 4.49-15.64-5.51 3.47-8.25 8.36-8.25 8.36l4.89-9.51s-3.36-1.15-7.12 1.68c-3.77 2.83-13.16 6.1-14.32 5.65-1.15-.48.23-3.14.23-3.14z"/><path class="st28" d="M694.52 107.96s36.33 4.13 57.56 22.36c21.24 18.23 44.15 50.02 50.04 64.76-2.75-3.35-4.81-6.44-7.94-9.25 7.26 12.76 5.09 24.63 5.09 24.63-.62-6.75-5.28-19.2-6.95-21.55 1.09 4.39 4.85 24.29 7.62 27.12-2.4-1.07-6.33-9.63-6.83-13.19-.86 11.08-3.02 14.24-6.1 17.18 2.71-5.95 5.75-17.31 1.24-27.6.54 17.14-4.14 25.12-5.41 26.52 1.85-5.22 3.15-24.92-2.07-32.81 1.97 14.35-1.55 23.78-1.55 23.78s1.63-16.9-1.75-24.34c-.01 12.61-3.39 24.21-3.39 24.21s2.6-24.79-1.11-33.76c-.68 10.07-5.08 19.35-5.08 19.35.54-4.92 1.92-19.89 1.92-19.89s-7.15 15.53-5.23 21.61c-2.61-3.32-1.12-16.35.08-19.98-4.27 6.06-9.08 10.48-10.14 10.6 4.19-6 7.59-15.08 7.59-15.08s-7.04 7.51-12.67 8.98c4.08-4.02 10.85-10.84 10.39-11.65-6.62 5.58-14.86 9.28-14.86 9.28s11.56-7.69 12.65-13.64c-8.96 9.25-17.19 12.56-18.57 12.41 3.94-1.91 14.27-14.02 14.27-14.02s-12.28 5.81-15.82 11.84c-.33-1.54 7.95-13.32 13.43-16.45-8.88 4.02-18.54 10.49-20.98 14.86.14-3 8.2-13.5 15.46-16.25-6.77 2.53-16.17 12.22-16.17 12.22s4.1-12.36 14.36-16.73c-6.85 2.08-14.62 9.97-14.62 9.97s3.44-7.6 11.3-11.79c-8.04 3.05-17.55 9.92-18.14 12.99.96-4.34 9.26-12.37 11.2-13.73-3.48.06-11.43 6.83-11.85 7.64-.21-2.25 9.33-11.03 9.33-11.03s-9.61 4.41-11.17 8.43c.11-1.98 4.13-8.22 8.12-11.31-6.56 2.13-11.13 9.9-11.13 9.9s1.76-9.43 9.8-13.74c-6.87 1.34-12.07 7.16-12.07 7.16s3.2-6.68 9.55-9.28c-4.2-.43-10.64 4.38-12.5 7.09-.25-1.96 6.1-9.36 9.8-10.72-2.65-.9-9.7 4.09-9.7 4.09s4.61-5.77 7.58-6.38c-2.18-1.1-9.93 5.03-9.93 5.03s5.66-6.78 8.5-7.4c-3.72-.27-10.15 4.54-12.1 8.19-.69-2.04 3.19-9.12 13.49-15.29-5.11-.55-13.12 3.63-14.67 6.23-.75-2.12 8.42-9.74 12.33-10.62-6.51-.11-11.49 2.46-11.49 2.46l9.31-5.27s-2.18-2.81-6.88-2.5c-4.69.3-14.35-2.11-15.07-3.12-.68-1.05 1.93-2.52 1.93-2.52zm-1.49 6.47s-28.71-22.64-56.63-24.65c-27.92-2-66.57 4.46-81.13 10.77 4.31-.44 7.94-1.18 12.15-.98-14.14 3.93-20.95 13.9-20.95 13.9 5.19-4.35 17.26-9.91 20.1-10.41-3.87 2.35-20.54 13.83-24.51 13.9 2.46.92 11.28-2.39 14.13-4.56-7.18 8.47-7.88 12.25-7.75 16.5 2.26-6.14 8.1-16.35 18.54-20.48-12.45 11.79-14.74 20.75-14.83 22.64 2.36-5 15.31-19.9 24.57-21.84-11.5 8.81-15.64 17.99-15.64 17.99s10.75-13.16 18.38-16.06c-8.87 8.97-14.64 19.58-14.64 19.58s15.6-19.44 24.55-23.2c-6.6 7.63-10.02 17.32-10.02 17.32 3.08-3.88 12.64-15.47 12.64-15.47s-5.85 16.06-11.5 19.03c4.19-.53 12.31-10.82 14-14.26-1.22 7.32-.91 13.85-.24 14.67 1.24-7.21 5.22-16.06 5.22-16.06s-.29 10.28 2.68 15.3c-.07-5.73-.08-15.33.81-15.59.79 8.63 4.03 17.05 4.03 17.05s-2.8-13.61.6-18.59c-.15 12.88 3.38 21.02 4.46 21.88-1.46-4.13-.27-20-.27-20s4.64 12.75 2.9 19.54c1.31-.86 3.74-15.07 2.04-21.14 3.48 9.1 5.78 20.49 4.44 25.33 2.01-2.24 3.68-15.36.46-22.43 3.03 6.57 2.88 20.07 2.88 20.07s5.79-11.67 1.58-22c3.4 6.29 3.36 17.37 3.36 17.37s2.91-7.81.27-16.33c3.56 7.84 5.49 19.4 3.74 22 2.38-3.76 2.13-15.3 1.72-17.63 2.42 2.5 3.3 12.89 3.04 13.78 1.73-1.45 1.13-14.41 1.13-14.41s3.72 9.9 2.01 13.85c1.31-1.49 2.86-8.75 2.18-13.75 3.16 6.13.93 14.87.93 14.87s5.39-7.93 2.73-16.65c3.93 5.78 3.53 13.58 3.53 13.58s2.43-7-.25-13.33c3.29 2.67 4.46 10.6 3.88 13.84 1.57-1.22 2.26-10.95.59-14.51 2.52 1.23 4.01 9.74 4.01 9.74s.79-7.35-.9-9.86c2.33.74 3.53 10.55 3.53 10.55s.75-8.79-.82-11.23c2.83 2.44 4 10.37 2.83 14.33 1.92-.96 4.16-8.72 1.18-20.36 4.02 3.22 6.77 11.81 6.04 14.77 2.02-.98.88-12.84-1.27-16.23 4.7 4.49 6.42 9.84 6.42 9.84l-2.9-10.29s3.52-.46 6.65 3.05c3.12 3.53 11.68 8.61 12.9 8.39 1.24-.25.42-3.13.42-3.13z"/><path class="st28" d="M697.08 114.73s-15.73-33-39.89-47.15c-24.15-14.14-61.68-25.44-77.52-26.23 4.06 1.51 7.65 2.45 11.33 4.5-14.42-2.72-24.94 3.2-24.94 3.2 6.58-1.61 19.87-1.25 22.63-.45-4.51.4-24.55 3.33-28.13 1.63 1.8 1.92 11.17 2.84 14.7 2.16-10.19 4.41-12.48 7.49-14.25 11.36 4.74-4.5 14.49-11.08 25.69-10.16-16.38 5.07-22.4 12.09-23.31 13.75 4.33-3.44 22.53-11.09 31.7-8.72-14.22 2.81-21.98 9.21-21.98 9.21s15.46-7.05 23.59-6.27c-11.92 4.12-21.78 11.09-21.78 11.09s22.58-10.53 32.27-9.95c-9.29 3.92-16.63 11.1-16.63 11.1 4.48-2.11 18.18-8.29 18.18-8.29s-12.36 11.82-18.73 11.98c3.99 1.39 15.83-4.26 18.87-6.59-4.33 6.02-6.95 12.01-6.71 13.04 4.31-5.92 11.79-12.09 11.79-12.09s-4.81 9.1-4.36 14.9c2.48-5.16 6.71-13.79 7.64-13.63-3.12 8.09-3.93 17.08-3.93 17.08s3.51-13.45 8.77-16.41c-5.82 11.48-6.27 20.35-5.68 21.59.53-4.35 8.61-18.06 8.61-18.06s-1.48 13.5-6.04 18.81c1.55-.19 10.01-11.86 11.18-18.06-.91 9.7-3.88 20.95-7.22 24.68 2.79-1.12 10.09-12.16 10.33-19.91-.19 7.23-6.28 19.27-6.28 19.27s10.35-7.9 11.14-19.03c.26 7.15-4.67 17.06-4.67 17.06s6.07-5.73 7.47-14.53c-.27 8.59-3.66 19.82-6.37 21.39 3.79-2.33 8.67-12.79 9.34-15.06 1.07 3.32-2.74 13.02-3.36 13.7 2.19-.54 7.38-12.41 7.38-12.41s-1.04 10.52-4.33 13.3c1.83-.75 6.43-6.58 8.05-11.35.12 6.89-5.75 13.75-5.75 13.75s8.36-4.73 9.82-13.74c.97 6.93-2.85 13.74-2.85 13.74s5.28-5.21 5.68-12.06c1.77 3.83-.68 11.48-2.64 14.12 1.94-.4 6.87-8.81 6.95-12.76 1.71 2.22-.72 10.51-.72 10.51s3.96-6.23 3.56-9.25c1.75 1.7-1.51 11.03-1.51 11.03s4.56-7.56 4.24-10.44c1.46 3.43-.99 11.07-3.81 14.11 2.14-.02 7.59-5.99 10.07-17.74 2.17 4.66.85 13.59-1.12 15.91 2.24.02 6.46-11.13 6.03-15.11 2.22 6.11 1.41 11.66 1.41 11.66l1.96-10.52s3.36 1.14 4.6 5.69c1.24 4.55 6.68 12.88 7.87 13.23 1.11.37 1.66-2.58 1.66-2.58z"/><path class="st28" d="M695.49 123.51s6.5-35.98-4.85-61.57c-11.34-25.58-35.2-56.67-47.61-66.55 2.42 3.59 4.78 6.45 6.58 10.26-10.12-10.63-22.13-11.96-22.13-11.96 6.28 2.53 16.87 10.58 18.64 12.85-3.89-2.31-21.86-11.65-23.78-15.1.34 2.6 7.41 8.84 10.66 10.34-10.84-2.36-14.5-1.21-18.21.9 6.48-.88 18.24-.54 26.79 6.75-16.26-5.44-25.24-3.27-26.96-2.45 5.53-.27 24.77 4.16 30.82 11.43-13.17-6.03-23.22-5.37-23.22-5.37s16.67 3.31 22.82 8.68C632.97 18.1 620.89 18 620.89 18s24.49 4.63 32 10.77c-9.83-2.24-19.99-.71-19.99-.71 4.88.89 19.6 3.89 19.6 3.89s-16.93 2.38-22.2-1.21c2.43 3.45 15.33 5.79 19.15 5.67-7.03 2.36-12.65 5.68-13.06 6.67 6.94-2.29 16.62-2.93 16.62-2.93s-9.21 4.57-12.24 9.55c5.03-2.75 13.5-7.27 14.16-6.6-7.27 4.75-13.16 11.57-13.16 11.57s10.7-8.87 16.7-8.2c-11.43 5.91-16.97 12.85-17.22 14.21 2.96-3.22 17.53-9.63 17.53-9.63s-9.09 10.09-15.88 11.74c1.37.76 15.05-3.79 19.62-8.13-6.4 7.35-15.38 14.73-20.27 15.81 2.91.73 15.29-3.97 20.01-10.13-4.38 5.76-16.35 11.97-16.35 11.97s13.02-.37 20.16-8.94c-3.96 5.96-13.76 11.13-13.76 11.13s8.27-1.11 14.55-7.44c-5.24 6.83-14.55 13.96-17.66 13.65 4.43.32 14.5-5.32 16.37-6.77-1.07 3.31-9.82 8.96-10.73 9.15 2.09.84 13.24-5.76 13.24-5.76s-6.99 7.93-11.28 8.27c1.91.46 9.06-1.59 13.16-4.52-3.92 5.66-12.69 7.8-12.69 7.8s9.54 1.03 15.98-5.42c-3.26 6.2-10.33 9.5-10.33 9.5s7.33-1.15 11.65-6.47c-.81 4.15-7.26 8.92-10.39 9.92 1.8.81 10.72-3.15 13.09-6.3.1 2.8-6.72 8.11-6.72 8.11s6.87-2.74 8.3-5.42c.44 2.4-7.67 8.06-7.67 8.06s8.13-3.47 9.54-6c-.82 3.64-7.27 8.41-11.33 9.23 1.75 1.24 9.66-.43 18.53-8.52-.95 5.05-7.25 11.52-10.19 12.26 1.82 1.33 11.74-5.25 13.72-8.75-1.76 6.27-5.67 10.3-5.67 10.3l7.73-7.4s2.06 2.89.42 7.3c-1.65 4.41-2.1 14.36-1.34 15.34.74.97 2.9-1.11 2.9-1.11z"/><path class="st28" d="M692.3 116.4s-36.3-4.39-61.18 8.43c-24.88 12.81-54.52 38.45-63.67 51.41 3.45-2.62 6.16-5.14 9.87-7.16-10.02 10.73-10.65 22.78-10.65 22.78 2.16-6.41 9.58-17.45 11.75-19.35-2.08 4.02-10.35 22.5-13.7 24.62 2.58-.49 8.38-7.91 9.7-11.25-1.73 10.96-.36 14.56 1.96 18.13-1.26-6.42-1.59-18.18 5.18-27.15-4.5 16.55-1.79 25.39-.88 27.06-.59-5.5 2.71-24.97 9.61-31.44-5.25 13.51-4 23.51-4 23.51s2.33-16.84 7.33-23.29c-2.9 12.28-2.3 24.33-2.3 24.33s3.2-24.71 8.88-32.58c-1.66 9.95.46 20.01.46 20.01.6-4.92 2.74-19.79 2.74-19.79s3.36 16.75.09 22.23c3.3-2.62 4.87-15.64 4.53-19.46 2.77 6.89 6.42 12.3 7.42 12.65-2.7-6.8-3.9-16.43-3.9-16.43s5.11 8.93 10.25 11.67c-3.03-4.86-8.05-13.05-7.42-13.74 5.17 6.97 12.32 12.46 12.32 12.46s-9.48-10.16-9.16-16.19c6.57 11.06 13.82 16.2 15.2 16.36-3.39-2.77-10.64-16.94-10.64-16.94s10.6 8.48 12.64 15.17c.67-1.41-4.65-14.8-9.26-19.11 7.71 5.97 15.61 14.5 16.97 19.32.56-2.95-4.85-15.04-11.28-19.39 6.01 4.04 12.91 15.64 12.91 15.64s-1.12-12.98-10.1-19.6c6.18 3.61 11.9 13.08 11.9 13.08s-1.58-8.19-8.27-14.09c7.13 4.84 14.78 13.71 14.66 16.84.07-4.44-6.16-14.18-7.72-15.95 3.37.87 9.53 9.28 9.77 10.17.72-2.14-6.52-12.88-6.52-12.88s8.32 6.51 8.92 10.78c.35-1.94-2.12-8.96-5.29-12.88 5.9 3.59 8.54 12.22 8.54 12.22s.48-9.59-6.35-15.64c6.37 2.89 10.08 9.76 10.08 9.76s-1.57-7.24-7.14-11.24c4.19.56 9.33 6.73 10.52 9.79.7-1.85-3.77-10.52-7.05-12.7 2.78-.26 8.49 6.23 8.49 6.23s-3.14-6.69-5.9-7.96c2.37-.58 8.5 7.18 8.5 7.18s-3.93-7.9-6.55-9.17c3.68.6 8.81 6.77 9.87 10.76 1.14-1.82-.99-9.61-9.59-18 5.09.66 11.93 6.57 12.83 9.47 1.22-1.89-5.93-11.43-9.53-13.19 6.35 1.4 10.6 5.06 10.6 5.06l-7.83-7.29s2.76-2.22 7.27-.84c4.5 1.39 14.45 1.26 15.38.45.94-.83-1.26-2.87-1.26-2.87z"/><path class="st28" d="M692.78 114.97s-32.76 16.24-46.54 40.6c-13.78 24.37-24.52 62.05-25.05 77.9 1.45-4.07 2.34-7.67 4.32-11.39-2.5 14.46 3.58 24.89 3.58 24.89-1.71-6.55-1.56-19.85-.79-22.62.46 4.5 3.69 24.5 2.05 28.1 1.9-1.82 2.67-11.21 1.94-14.72 4.57 10.12 7.68 12.37 11.58 14.09-4.58-4.68-11.3-14.33-10.55-25.53 5.32 16.29 12.43 22.21 14.1 23.1-3.51-4.28-11.43-22.36-9.2-31.56 3.02 14.18 9.55 21.85 9.55 21.85s-7.28-15.35-6.63-23.49c4.29 11.85 11.41 21.62 11.41 21.62s-10.87-22.43-10.43-32.12c4.06 9.23 11.34 16.47 11.34 16.47-2.18-4.44-8.56-18.05-8.56-18.05s12 12.18 12.26 18.54c1.33-4.01-4.5-15.75-6.87-18.76 6.09 4.23 12.11 6.76 13.14 6.51-5.98-4.22-12.26-11.61-12.26-11.61s9.16 4.67 14.97 4.14c-5.21-2.4-13.89-6.51-13.74-7.43 8.13 3 17.13 3.67 17.13 3.67s-13.5-3.3-16.53-8.52c11.56 5.65 20.43 5.97 21.67 5.36-4.36-.46-18.18-8.34-18.18-8.34s13.52 1.28 18.9 5.76c-.21-1.55-12.01-9.83-18.22-10.9 9.71.76 20.99 3.56 24.78 6.85-1.15-2.77-12.3-9.91-20.06-10.03 7.23.08 19.36 5.99 19.36 5.99s-8.06-10.23-19.19-10.85c7.15-.37 17.13 4.42 17.13 4.42s-5.81-5.98-14.64-7.25c8.6.13 19.88 3.36 21.49 6.05-2.38-3.75-12.92-8.48-15.2-9.12 3.3-1.11 13.06 2.55 13.75 3.16-.57-2.18-12.53-7.2-12.53-7.2s10.54.88 13.38 4.12c-.78-1.81-6.68-6.32-11.49-7.87 6.9-.23 13.84 5.54 13.84 5.54s-4.86-8.28-13.88-9.6c6.91-1.08 13.78 2.63 13.78 2.63s-5.29-5.19-12.14-5.48c3.81-1.83 11.49.51 14.16 2.42-.42-1.94-8.91-6.74-12.85-6.76 2.18-1.75 10.51.56 10.51.56s-6.3-3.87-9.3-3.42c1.66-1.78 11.05 1.34 11.05 1.34s-7.62-4.45-10.51-4.07c3.41-1.51 11.09.83 14.16 3.6-.05-2.15-6.1-7.5-17.89-9.79 4.63-2.24 13.57-1.06 15.92.88-.02-2.25-11.22-6.3-15.2-5.8 6.09-2.32 11.64-1.59 11.64-1.59l-10.54-1.79s1.09-3.38 5.61-4.69c4.53-1.31 12.78-6.87 13.12-8.07.31-1.25-2.65-1.74-2.65-1.74z"/><path class="st28" d="M708.65 115.45c.95 5.4-3.03 10.6-8.87 11.63-5.85 1.02-11.35-2.52-12.3-7.92-.95-5.41 3.03-10.61 8.87-11.64 5.84-1.02 11.36 2.52 12.3 7.93z"/><path class="st28" d="M695.81 129.02c1.06 6.05-1.66 11.58-6.08 12.36-4.42.77-8.86-3.5-9.92-9.55-1.06-6.05 1.66-11.58 6.09-12.36 4.41-.78 8.85 3.5 9.91 9.55zm15.75.95c.92 5.23-1.28 10-4.92 10.64-3.64.64-7.33-3.1-8.24-8.33-.92-5.24 1.28-10 4.92-10.64 3.64-.63 7.33 3.09 8.24 8.33z"/><path class="st28" d="M694.21 131.58s55.11 262.26 7.71 394.6c12.45 3.46 15.16-2.65 15.16-2.65s40.44-136.76-18.91-404.51c-15.09-17.69-3.96 12.56-3.96 12.56z"/></g><g class="st2"><path class="st28" d="M40.23 341.85s-12.86-14.84-27.38-18.71c-14.52-3.87-35.56-4.36-43.87-2.5 2.31.2 4.3.17 6.5.71-7.85.65-12.46 5.22-12.46 5.22 3.18-1.78 10.11-3.49 11.66-3.47-2.28.85-12.24 5.22-14.33 4.86 1.21.74 6.19-.12 7.92-.98-4.65 3.74-5.39 5.66-5.76 7.92 1.81-3 5.92-7.81 11.85-8.93-7.76 4.96-9.87 9.46-10.11 10.45 1.75-2.41 10.09-8.96 15.17-9.05-6.96 3.48-10.06 7.91-10.06 7.91s6.99-5.86 11.31-6.62c-5.58 3.83-9.69 8.85-9.69 8.85s10.18-8.68 15.29-9.76c-4.25 3.36-7.03 8.12-7.03 8.12 2.02-1.74 8.23-6.89 8.23-6.89s-4.71 7.88-7.98 8.88c2.26.15 7.58-4.47 8.82-6.1-1.38 3.74-1.88 7.21-1.61 7.71 1.39-3.68 4.38-7.94 4.38-7.94s-1.19 5.4-.13 8.34c.54-3.03 1.51-8.1 2.01-8.15-.46 4.63.4 9.4.4 9.4s-.1-7.46 2.2-9.75c-1.38 6.77-.34 11.43.14 11.99-.35-2.33 1.88-10.57 1.88-10.57s1.15 7.2-.45 10.6c.78-.32 3.49-7.57 3.21-10.94.92 5.15.99 11.39-.21 13.8 1.29-.98 3.49-7.74 2.51-11.78.93 3.77-.5 10.87-.5 10.87s4.23-5.56 3.05-11.44c1.16 3.67.02 9.5.02 9.5s2.33-3.83 1.79-8.59c1.09 4.49.94 10.78-.24 11.98 1.63-1.74 2.66-7.86 2.68-9.13 1.03 1.56.44 7.13.22 7.57 1.06-.59 2.05-7.48 2.05-7.48s.96 5.59-.34 7.5c.84-.64 2.39-4.32 2.54-7.03 1.05 3.56-1.01 7.94-1.01 7.94s3.65-3.65 3.11-8.52c1.49 3.45.49 7.52.49 7.52s1.99-3.45 1.21-7.05c1.47 1.73 1.29 6.04.65 7.69.95-.48 2.3-5.54 1.78-7.6 1.2.9 1.13 5.54 1.13 5.54s1.16-3.79.53-5.29c1.15.62.79 5.92.79 5.92s1.28-4.57.7-6.01c1.25 1.57 1.07 5.87.04 7.85 1.11-.31 3.08-4.19 2.68-10.62 1.79 2.1 2.38 6.91 1.69 8.39 1.16-.31 1.76-6.68.96-8.68 2.02 2.85 2.39 5.83 2.39 5.83l-.49-5.72s1.91.11 3.2 2.29c1.29 2.18 5.3 5.72 5.96 5.73.65.02.51-1.58.51-1.58z"/><path class="st28" d="M42.33 342.42s-4.97-19-16.29-28.9c-11.31-9.9-29.96-19.64-38.24-21.65 1.99 1.2 3.78 2.06 5.52 3.51-7.33-2.89-13.48-.83-13.48-.83 3.63-.19 10.61 1.34 11.98 2.05-2.42-.25-13.28-.73-15-1.98.75 1.19 5.6 2.63 7.53 2.62-5.82 1.3-7.34 2.69-8.66 4.55 2.96-1.9 8.76-4.38 14.57-2.77-9.15 1.02-13.03 4.12-13.68 4.9 2.63-1.38 13-3.57 17.6-1.4-7.78.05-12.53 2.64-12.53 2.64s8.87-2.16 13.08-.93c-6.7.97-12.61 3.65-12.61 3.65S-4.9 304.6.15 305.89c-5.3 1.13-9.9 4.17-9.9 4.17 2.58-.66 10.42-2.54 10.42-2.54s-7.7 4.98-11.08 4.44c1.96 1.13 8.77-.65 10.61-1.58-2.89 2.74-4.88 5.63-4.85 6.2 2.87-2.69 7.44-5.19 7.44-5.19s-3.45 4.31-3.81 7.42c1.83-2.48 4.93-6.6 5.4-6.42-2.46 3.95-3.8 8.6-3.8 8.6s3.21-6.73 6.28-7.77c-4.23 5.47-5.36 10.1-5.17 10.82.71-2.24 6.36-8.66 6.36-8.66s-2.14 6.97-5.08 9.31c.84.06 6.48-5.25 7.72-8.39-1.46 5.02-4.16 10.65-6.3 12.28 1.58-.3 6.55-5.39 7.46-9.45-.83 3.79-5.26 9.53-5.26 9.53s6.26-3.13 7.8-8.91c-.59 3.79-4.19 8.53-4.19 8.53s3.78-2.4 5.41-6.91c-1.01 4.51-3.93 10.09-5.52 10.64 2.23-.84 5.87-5.87 6.44-7 .23 1.86-2.76 6.59-3.16 6.88 1.21-.06 5.15-5.8 5.15-5.8s-1.61 5.44-3.62 6.58c1.04-.21 4.05-2.82 5.39-5.18-.63 3.65-4.41 6.67-4.41 6.67s4.88-1.66 6.56-6.25c-.19 3.75-2.89 6.96-2.89 6.96s3.31-2.22 4.21-5.79c.55 2.2-1.52 5.99-2.81 7.18 1.06-.01 4.51-3.96 4.95-6.03.68 1.34-1.44 5.47-1.44 5.47s2.72-2.88 2.81-4.51c.75 1.07-1.91 5.66-1.91 5.66s3.17-3.53 3.29-5.08c.42 1.95-1.64 5.74-3.43 7.05 1.13.21 4.61-2.39 7.1-8.34.68 2.67-.92 7.25-2.19 8.28 1.18.23 4.54-5.21 4.7-7.37.56 3.45-.43 6.3-.43 6.3l2.09-5.35s1.66.94 1.85 3.46c.2 2.52 2.22 7.47 2.81 7.77.6.35 1.18-1.15 1.18-1.15z"/><path class="st28" d="M40.61 346.89s7.06-18.33 3.65-32.97c-3.41-14.64-12.85-33.44-18.4-39.91.91 2.15 1.87 3.89 2.43 6.08-4.27-6.63-10.46-8.54-10.46-8.54 3.06 1.97 7.83 7.29 8.53 8.66-1.82-1.61-10.36-8.34-11.02-10.37-.09 1.41 3.02 5.41 4.59 6.53-5.48-2.34-7.53-2.1-9.7-1.36 3.51.19 9.67 1.56 13.45 6.26-8.02-4.52-12.98-4.27-13.97-4.01 2.95.42 12.65 4.69 15.11 9.13-6.34-4.5-11.71-5.17-11.71-5.17s8.45 3.42 11.16 6.88c-6.01-3.13-12.37-4.4-12.37-4.4s12.45 4.92 15.79 8.91c-4.96-2.17-10.47-2.39-10.47-2.39 2.48.96 9.95 4.03 9.95 4.03s-9.17-.45-11.59-2.88c.93 2.07 7.51 4.6 9.53 4.92-3.94.53-7.24 1.73-7.56 2.2 3.9-.51 9.07.13 9.07.13s-5.33 1.49-7.43 3.8c2.93-.94 7.86-2.47 8.13-2.06-4.31 1.77-8.11 4.77-8.11 4.77s6.54-3.59 9.63-2.64c-6.63 1.97-10.25 5.07-10.51 5.76 1.89-1.4 10.21-3.31 10.21-3.31s-5.81 4.4-9.56 4.59c.65.54 8.32-.47 11.17-2.31-4.12 3.22-9.6 6.22-12.29 6.3 1.46.67 8.47-.55 11.57-3.33-2.88 2.6-9.83 4.67-9.83 4.67s6.9 1.12 11.53-2.68c-2.69 2.75-8.38 4.48-8.38 4.48s4.47.25 8.42-2.46c-3.45 3.07-9.08 5.9-10.69 5.42 2.3.62 8.19-1.34 9.32-1.92-.9 1.64-6.09 3.74-6.59 3.75 1.02.66 7.57-1.7 7.57-1.7s-4.49 3.48-6.79 3.23c.97.44 4.94.08 7.4-1.06-2.64 2.6-7.48 2.84-7.48 2.84s4.93 1.51 8.98-1.25c-2.34 2.94-6.41 3.97-6.41 3.97s3.98.13 6.79-2.24c-.84 2.11-4.73 3.97-6.48 4.19.87.61 5.97-.58 7.54-2-.23 1.48-4.36 3.6-4.36 3.6s3.89-.75 4.92-2.03c-.01 1.31-4.86 3.49-4.86 3.49s4.63-1.01 5.63-2.21c-.8 1.84-4.68 3.71-6.91 3.72.8.83 5.14.75 10.64-2.63-1.01 2.57-4.99 5.35-6.62 5.44.83.88 6.73-1.59 8.12-3.23-1.56 3.13-4.03 4.86-4.03 4.86l4.82-3.13s.79 1.74-.52 3.9-2.56 7.36-2.26 7.95c.36.6 1.71-.27 1.71-.27z"/><path class="st28" d="M39.64 342.82s-18.7-5.98-33.12-1.72c-14.42 4.25-32.64 14.78-38.77 20.69 2.08-1.03 3.77-2.09 5.92-2.78-6.37 4.64-7.92 10.94-7.92 10.94 1.79-3.17 6.82-8.24 8.15-9.03-1.5 1.91-7.73 10.83-9.71 11.61 1.41 0 5.22-3.33 6.25-4.96-2.02 5.61-1.66 7.64-.8 9.76-.02-3.52.99-9.75 5.47-13.79-4.04 8.27-3.51 13.21-3.19 14.18.24-2.96 3.95-12.9 8.25-15.62-4.13 6.59-4.48 11.99-4.48 11.99s2.92-8.64 6.22-11.54c-2.77 6.18-3.67 12.61-3.67 12.61s4.18-12.72 7.98-16.29c-1.88 5.08-1.78 10.59-1.78 10.59.82-2.53 3.44-10.16 3.44-10.16s.08 9.18-2.19 11.74c2.01-1.05 4.15-7.76 4.36-9.8.76 3.91 2.15 7.13 2.64 7.42-.73-3.86-.4-9.05-.4-9.05s1.79 5.22 4.23 7.18c-1.11-2.87-2.92-7.7-2.53-8 2.02 4.19 5.24 7.81 5.24 7.81s-3.97-6.32-3.2-9.46c2.35 6.5 5.66 9.94 6.37 10.16-1.51-1.8-3.9-10.01-3.9-10.01s4.73 5.55 5.14 9.29c.5-.68-.96-8.28-2.95-11.02 3.46 3.92 6.77 9.22 7 11.9.59-1.5-1.05-8.42-4-11.36 2.76 2.73 5.23 9.54 5.23 9.54s.71-6.96-3.35-11.36c2.89 2.52 4.96 8.1 4.96 8.1s-.01-4.48-2.94-8.26c3.27 3.26 6.41 8.72 6.03 10.35.48-2.33-1.81-8.09-2.46-9.19 1.69.8 4.09 5.86 4.12 6.35.6-1.06-2.14-7.46-2.14-7.46s3.73 4.28 3.62 6.59c.38-.99-.21-4.94-1.49-7.33 2.74 2.49 3.27 7.3 3.27 7.3s1.22-5.01-1.77-8.89c3.07 2.17 4.33 6.17 4.33 6.17s-.1-3.98-2.63-6.66c2.16.72 4.25 4.49 4.56 6.22.56-.91-.92-5.93-2.44-7.41 1.5.14 3.85 4.14 3.85 4.14s-.98-3.85-2.31-4.8c1.31-.06 3.76 4.65 3.76 4.65s-1.28-4.57-2.53-5.5c1.88.69 3.97 4.46 4.12 6.68.78-.84.45-5.17-3.24-10.46 2.62.86 5.63 4.67 5.82 6.29.83-.88-1.98-6.62-3.7-7.92 3.21 1.38 5.08 3.74 5.08 3.74l-3.39-4.63s1.68-.89 3.92.29 7.5 2.12 8.07 1.79c.56-.31-.4-1.61-.4-1.61z"/><path class="st28" d="M40.04 342.11s-18.92 5.26-28.64 16.72C1.68 370.29-7.79 389.08-9.68 397.4c1.18-2.01 2.01-3.82 3.43-5.58-2.78 7.38-.62 13.49-.62 13.49-.24-3.63 1.18-10.63 1.86-12.02-.21 2.42-.52 13.29-1.75 15.02 1.18-.77 2.54-5.64 2.51-7.57 1.39 5.8 2.8 7.3 4.69 8.6-1.94-2.93-4.51-8.7-2.99-14.53 1.16 9.13 4.32 12.97 5.11 13.61-1.42-2.61-3.77-12.95-1.67-17.58.16 7.77 2.83 12.48 2.83 12.48s-2.29-8.83-1.13-13.06c1.07 6.69 3.84 12.55 3.84 12.55s-3.47-12.93-2.26-18c1.21 5.28 4.32 9.83 4.32 9.83-.7-2.56-2.7-10.38-2.7-10.38s5.1 7.63 4.6 11.02c1.1-1.98-.78-8.76-1.73-10.59 2.78 2.85 5.7 4.79 6.27 4.76-2.73-2.83-5.3-7.36-5.3-7.36s4.36 3.39 7.48 3.69c-2.5-1.79-6.67-4.83-6.5-5.3 3.98 2.4 8.66 3.67 8.66 3.67s-6.78-3.1-7.86-6.16c5.53 4.15 10.18 5.21 10.9 5.01-2.25-.68-8.75-6.23-8.75-6.23s7 2.04 9.39 4.94c.04-.84-5.34-6.4-8.51-7.59 5.05 1.38 10.72 4 12.38 6.11-.33-1.58-5.49-6.47-9.57-7.31 3.81.77 9.61 5.11 9.61 5.11s-3.22-6.21-9.03-7.66c3.81.52 8.59 4.06 8.59 4.06s-2.47-3.74-6.99-5.3c4.52.94 10.14 3.78 10.72 5.36-.88-2.22-5.96-5.78-7.1-6.34 1.85-.26 6.63 2.66 6.93 3.05-.08-1.21-5.88-5.06-5.88-5.06s5.47 1.53 6.64 3.53c-.23-1.04-2.89-4.01-5.26-5.31 3.66.57 6.74 4.31 6.74 4.31s-1.73-4.85-6.36-6.46c3.76.13 7 2.78 7 2.78s-2.26-3.27-5.85-4.12c2.19-.58 6.01 1.42 7.23 2.7-.03-1.06-4.02-4.45-6.1-4.86 1.33-.7 5.49 1.35 5.49 1.35s-2.93-2.67-4.56-2.74c1.06-.77 5.69 1.83 5.69 1.83s-3.57-3.12-5.13-3.21c1.95-.46 5.76 1.55 7.11 3.32.19-1.14-2.46-4.57-8.44-6.97 2.66-.72 7.26.82 8.31 2.07.22-1.19-5.29-4.46-7.44-4.59 3.45-.61 6.3.34 6.3.34l-5.38-2.01s.92-1.67 3.44-1.91c2.51-.24 7.43-2.33 7.73-2.93.29-.59-1.22-1.15-1.22-1.15zm1.34 3.3s13.32-14.43 27.95-17.85c14.64-3.42 35.68-3.25 43.93-1.14-2.33.13-4.31.04-6.53.51 7.83.89 12.28 5.6 12.28 5.6-3.12-1.87-9.99-3.8-11.54-3.82 2.25.92 12.06 5.6 14.17 5.3-1.23.7-6.19-.32-7.88-1.23 4.52 3.88 5.21 5.83 5.5 8.1-1.72-3.07-5.67-7.99-11.56-9.3 7.6 5.2 9.57 9.76 9.77 10.76-1.68-2.45-9.8-9.26-14.87-9.51 6.85 3.7 9.81 8.22 9.81 8.22s-6.81-6.07-11.11-6.97c5.46 4.01 9.42 9.15 9.42 9.15s-9.91-8.99-14.98-10.23c4.14 3.49 6.78 8.34 6.78 8.34-1.96-1.8-8.01-7.14-8.01-7.14s4.46 8.02 7.7 9.12c-2.27.07-7.44-4.7-8.63-6.38 1.27 3.78 1.65 7.27 1.37 7.76-1.27-3.72-4.13-8.08-4.13-8.08s1.02 5.43-.13 8.34c-.45-3.05-1.25-8.14-1.75-8.2.31 4.64-.7 9.38-.7 9.38s.34-7.45-1.89-9.81c1.17 6.82-.02 11.43-.52 11.98.42-2.31-1.54-10.63-1.54-10.63s-1.38 7.16.11 10.61c-.77-.35-3.25-7.67-2.87-11.04-1.08 5.12-1.34 11.35-.21 13.8-1.26-1.02-3.25-7.84-2.14-11.85-1.05 3.74.16 10.89.16 10.89s-4.06-5.7-2.69-11.53c-1.27 3.62-.31 9.49-.31 9.49s-2.2-3.9-1.52-8.64c-1.23 4.46-1.27 10.75-.13 11.99-1.58-1.79-2.42-7.94-2.4-9.21-1.07 1.53-.66 7.11-.45 7.56-1.04-.62-1.82-7.54-1.82-7.54s-1.14 5.56.1 7.52c-.82-.68-2.25-4.4-2.32-7.11-1.16 3.52.76 7.96.76 7.96s-3.53-3.75-2.85-8.6c-1.6 3.4-.73 7.5-.73 7.5s-1.88-3.51-.99-7.09c-1.52 1.69-1.47 6-.89 7.67-.93-.51-2.12-5.61-1.54-7.65-1.23.86-1.3 5.5-1.3 5.5s-1.04-3.83-.35-5.31c-1.17.59-.98 5.89-.98 5.89s-1.14-4.6-.51-6.03c-1.3 1.53-1.25 5.84-.29 7.84-1.1-.35-2.94-4.27-2.34-10.7-1.86 2.04-2.6 6.83-1.96 8.34-1.15-.35-1.55-6.74-.69-8.71-2.11 2.78-2.57 5.76-2.57 5.76l.67-5.7s-1.91.05-3.27 2.18c-1.36 2.13-5.47 5.55-6.13 5.54-.66 0-.46-1.6-.46-1.6z"/><path class="st28" d="M39.25 345.92s5.56-18.83 17.18-28.37c11.61-9.54 30.56-18.7 38.9-20.45-2.02 1.14-3.85 1.95-5.63 3.34 7.42-2.66 13.5-.41 13.5-.41-3.62-.3-10.64 1.01-12.04 1.67 2.42-.17 13.3-.31 15.05-1.51-.79 1.17-5.69 2.45-7.61 2.39 5.78 1.48 7.25 2.92 8.52 4.82-2.89-1.99-8.62-4.65-14.48-3.22 9.11 1.3 12.9 4.52 13.52 5.32-2.59-1.46-12.89-3.98-17.55-1.95 7.78.29 12.44 3.03 12.44 3.03s-8.79-2.43-13.04-1.33c6.67 1.18 12.49 4.04 12.49 4.04s-12.86-3.68-17.95-2.55c5.26 1.29 9.76 4.48 9.76 4.48-2.55-.74-10.34-2.86-10.34-2.86s7.55 5.23 10.94 4.77c-2 1.07-8.75-.92-10.56-1.9 2.81 2.83 4.7 5.78 4.66 6.35-2.78-2.78-7.27-5.41-7.27-5.41s3.32 4.42 3.57 7.53c-1.75-2.53-4.72-6.75-5.2-6.58 2.34 4.03 3.52 8.72 3.52 8.72s-3-6.84-6.03-7.96c4.06 5.59 5.04 10.26 4.83 10.97-.65-2.26-6.09-8.85-6.09-8.85s1.92 7.04 4.79 9.47c-.84.03-6.31-5.45-7.45-8.63 1.3 5.07 3.83 10.78 5.91 12.48-1.57-.36-6.38-5.59-7.16-9.69.71 3.82 4.96 9.69 4.96 9.69s-6.16-3.32-7.51-9.15c.46 3.81 3.92 8.65 3.92 8.65s-3.7-2.52-5.19-7.07c.87 4.53 3.61 10.21 5.18 10.81-2.2-.91-5.68-6.05-6.22-7.2-.29 1.85 2.55 6.67 2.94 6.98-1.21-.1-4.96-5.96-4.96-5.96s1.44 5.49 3.42 6.69c-1.03-.24-3.97-2.95-5.23-5.34.52 3.66 4.21 6.81 4.21 6.81s-4.83-1.8-6.36-6.46c.07 3.76 2.67 7.05 2.67 7.05s-3.24-2.32-4.03-5.92c-.62 2.18 1.33 6.03 2.59 7.27-1.06-.05-4.39-4.09-4.76-6.18-.72 1.32 1.27 5.51 1.27 5.51s-2.63-2.97-2.67-4.6c-.79 1.05 1.73 5.72 1.73 5.72s-3.06-3.62-3.13-5.18c-.49 1.94 1.46 5.78 3.21 7.16-1.14.17-4.53-2.54-6.84-8.56-.76 2.65.7 7.28 1.94 8.34-1.19.2-4.37-5.36-4.47-7.5-.66 3.43.24 6.3.24 6.3l-1.93-5.41s-1.69.89-1.96 3.4c-.27 2.52-2.46 7.4-3.05 7.68-.61.27-1.15-1.24-1.15-1.24z"/><path class="st28" d="M40.84 350.44s-6.48-18.53-2.62-33.06c3.85-14.53 13.89-33.02 19.63-39.31-.98 2.11-1.99 3.82-2.62 6 4.47-6.49 10.72-8.21 10.72-8.21-3.12 1.87-8.05 7.03-8.8 8.39 1.87-1.55 10.61-8.02 11.34-10.02.04 1.41-3.18 5.31-4.78 6.38 5.55-2.17 7.59-1.87 9.73-1.06-3.51.08-9.72 1.26-13.64 5.84 8.16-4.26 13.11-3.86 14.09-3.57-2.95.32-12.79 4.3-15.38 8.67 6.48-4.31 11.86-4.81 11.86-4.81S61.8 288.83 59 292.2c6.1-2.94 12.5-4.01 12.5-4.01s-12.59 4.52-16.06 8.41c5.03-2.02 10.54-2.06 10.54-2.06-2.51.88-10.07 3.72-10.07 3.72s9.18-.17 11.67-2.51c-1 2.04-7.64 4.36-9.68 4.62 3.93.66 7.19 1.95 7.49 2.43-3.88-.63-9.06-.15-9.06-.15s5.27 1.65 7.3 4.03c-2.9-1.03-7.77-2.72-8.07-2.31 4.25 1.91 7.96 5.02 7.96 5.02s-6.42-3.8-9.55-2.94c6.56 2.17 10.09 5.38 10.33 6.08-1.84-1.46-10.11-3.63-10.11-3.63s5.67 4.58 9.41 4.88c-.66.52-8.3-.74-11.09-2.66 4.01 3.36 9.4 6.52 12.09 6.68-1.48.63-8.45-.81-11.47-3.68 2.81 2.69 9.68 4.97 9.68 4.97s-6.94.9-11.44-3.04c2.6 2.83 8.24 4.74 8.24 4.74s-4.48.11-8.34-2.72c3.35 3.18 8.89 6.18 10.52 5.75-2.32.55-8.14-1.6-9.25-2.21.84 1.66 5.97 3.92 6.46 3.95-1.04.62-7.51-1.94-7.51-1.94s4.38 3.62 6.68 3.43c-.98.4-4.94-.08-7.36-1.29 2.56 2.67 7.39 3.07 7.39 3.07s-4.97 1.35-8.94-1.53c2.25 3.01 6.28 4.17 6.28 4.17s-3.98.01-6.72-2.45c.78 2.13 4.6 4.12 6.35 4.39-.89.58-5.95-.76-7.47-2.24.18 1.49 4.25 3.74 4.25 3.74s-3.87-.88-4.86-2.18c-.03 1.31 4.75 3.63 4.75 3.63s-4.6-1.15-5.57-2.38c.74 1.86 4.57 3.84 6.79 3.94-.82.81-5.16.59-10.54-2.95.93 2.6 4.82 5.5 6.44 5.64-.85.86-6.67-1.79-8.02-3.48 1.46 3.18 3.88 4.98 3.88 4.98l-4.72-3.27s-.85 1.71.4 3.91 2.33 7.44 2.01 8.02c-.35.59-1.67-.33-1.67-.33z"/><path class="st28" d="M41.93 346.4s18.88-5.39 33.16-.69c14.28 4.69 32.16 15.79 38.11 21.89-2.05-1.1-3.7-2.21-5.84-2.97 6.22 4.84 7.57 11.18 7.57 11.18-1.69-3.22-6.55-8.45-7.86-9.27 1.44 1.96 7.39 11.06 9.34 11.9-1.41-.04-5.11-3.49-6.09-5.15 1.85 5.67 1.42 7.69.49 9.78.13-3.51-.69-9.78-5.04-13.96 3.78 8.4 3.09 13.32 2.75 14.28-.15-2.97-3.54-13.01-7.75-15.86 3.92 6.72 4.1 12.13 4.1 12.13s-2.66-8.73-5.85-11.73c2.58 6.27 3.27 12.71 3.27 12.71s-3.78-12.84-7.46-16.53c1.72 5.14 1.44 10.65 1.44 10.65-.74-2.56-3.12-10.26-3.12-10.26s-.37 9.17 1.83 11.79c-1.97-1.11-3.9-7.88-4.05-9.94-.88 3.89-2.37 7.06-2.87 7.34.86-3.83.68-9.04.68-9.04s-1.96 5.17-4.45 7.05c1.2-2.83 3.17-7.6 2.77-7.91-2.15 4.13-5.48 7.65-5.48 7.65s4.17-6.19 3.49-9.36c-2.55 6.42-5.96 9.76-6.68 9.96 1.57-1.75 4.21-9.88 4.21-9.88s-4.9 5.39-5.43 9.11c-.48-.69 1.22-8.24 3.3-10.92-3.59 3.82-7.05 9.01-7.37 11.68-.54-1.52 1.3-8.38 4.35-11.23-2.85 2.65-5.53 9.38-5.53 9.38s-.5-6.98 3.7-11.25c-2.97 2.43-5.21 7.94-5.21 7.94s.15-4.47 3.2-8.17c-3.37 3.17-6.68 8.52-6.35 10.17-.41-2.35 2.07-8.04 2.75-9.11-1.71.74-4.27 5.73-4.32 6.22-.56-1.07 2.37-7.38 2.37-7.38s-3.87 4.15-3.82 6.47c-.35-1 .37-4.93 1.72-7.28-2.82 2.4-3.5 7.2-3.5 7.2s-1.06-5.04 2.05-8.83c-3.13 2.07-4.52 6.02-4.52 6.02s.22-3.97 2.84-6.56c-2.17.65-4.38 4.35-4.75 6.08-.53-.92 1.11-5.9 2.67-7.33-1.5.1-3.98 4.02-3.98 4.02s1.1-3.81 2.46-4.72c-1.31-.11-3.9 4.52-3.9 4.52s1.42-4.52 2.7-5.41c-1.9.63-4.1 4.33-4.33 6.54-.76-.87-.28-5.18 3.56-10.35-2.64.78-5.77 4.49-6.01 6.11-.81-.9 2.18-6.56 3.94-7.8-3.25 1.28-5.2 3.58-5.2 3.58l3.54-4.53s-1.65-.95-3.93.17c-2.27 1.11-7.56 1.89-8.12 1.54-.55-.38.45-1.64.45-1.64z"/><path class="st28" d="M41.56 345.68s18.74 5.85 28.11 17.6c9.36 11.76 18.24 30.84 19.86 39.2-1.11-2.04-1.89-3.87-3.25-5.68 2.55 7.46.2 13.5.2 13.5.35-3.62-.85-10.66-1.49-12.07.13 2.43.11 13.3 1.28 15.07-1.16-.81-2.36-5.72-2.27-7.65-1.57 5.75-3.03 7.21-4.95 8.45 2.03-2.87 4.78-8.55 3.44-14.43-1.45 9.09-4.72 12.83-5.53 13.44 1.5-2.56 4.17-12.83 2.22-17.52-.4 7.78-3.22 12.39-3.22 12.39s2.57-8.75 1.53-13.02c-1.28 6.65-4.23 12.43-4.23 12.43s3.87-12.81 2.82-17.92c-1.38 5.24-4.62 9.69-4.62 9.69.78-2.54 3.01-10.3 3.01-10.3s-5.34 7.47-4.94 10.87c-1.04-2.01 1.06-8.74 2.06-10.53-2.87 2.76-5.85 4.61-6.42 4.56 2.82-2.74 5.52-7.19 5.52-7.19s-4.46 3.25-7.59 3.46c2.56-1.71 6.82-4.62 6.66-5.1-4.06 2.28-8.78 3.39-8.78 3.39s6.88-2.89 8.05-5.92c-5.65 3.97-10.33 4.89-11.04 4.67 2.27-.61 8.94-5.96 8.94-5.96s-7.06 1.82-9.54 4.65c-.02-.84 5.54-6.22 8.74-7.32-5.09 1.22-10.83 3.66-12.56 5.72.38-1.57 5.69-6.29 9.79-7.01-3.83.65-9.76 4.81-9.76 4.81s3.41-6.11 9.26-7.38c-3.82.41-8.71 3.79-8.71 3.79s2.58-3.66 7.15-5.08c-4.55.79-10.26 3.46-10.89 5.02.95-2.19 6.13-5.59 7.29-6.12-1.84-.31-6.71 2.46-7.02 2.84.12-1.21 6.04-4.87 6.04-4.87s-5.51 1.36-6.75 3.31c.26-1.02 3.01-3.92 5.43-5.14-3.68.46-6.87 4.1-6.87 4.1s1.88-4.8 6.55-6.26c-3.76.01-7.09 2.56-7.09 2.56s2.37-3.2 5.98-3.93c-2.18-.65-6.05 1.24-7.31 2.48.06-1.06 4.16-4.33 6.24-4.67-1.3-.74-5.53 1.19-5.53 1.19s3.01-2.59 4.64-2.6c-1.03-.8-5.75 1.64-5.75 1.64s3.67-3 5.23-3.05c-1.93-.51-5.81 1.37-7.21 3.1-.15-1.14 2.6-4.49 8.66-6.7-2.64-.8-7.29.58-8.37 1.81-.18-1.19 5.42-4.29 7.57-4.36-3.42-.72-6.31.14-6.31.14l5.44-1.84s-.86-1.7-3.37-2.01c-2.51-.31-7.36-2.57-7.64-3.17-.23-.57 1.3-1.08 1.3-1.08z"/><path class="st28" d="M33.18 347.27c-.04 2.94 2.5 5.37 5.69 5.42 3.19.05 5.81-2.29 5.85-5.24.05-2.95-2.5-5.37-5.69-5.42-3.18-.05-5.81 2.3-5.85 5.24z"/><path class="st28" d="M41.13 353.38c-.05 3.3 1.86 6 4.27 6.04 2.41.04 4.4-2.6 4.46-5.9.05-3.3-1.86-6-4.27-6.04-2.41-.04-4.4 2.6-4.46 5.9zm-8.27 1.84c-.04 2.85 1.52 5.2 3.51 5.23 1.98.03 3.62-2.26 3.67-5.11.04-2.86-1.52-5.19-3.51-5.23-1.99-.03-3.63 2.25-3.67 5.11z"/><path class="st28" d="M42.2 354.61s-7.09 143.73 29.21 209.92c-6.31 2.89-8.26-.13-8.26-.13s-32.99-69.11-24.11-216.12c6.5-10.66 3.16 6.33 3.16 6.33z"/></g></g></svg>