<svg version="1.1" id="publicdomainvectors.org" xmlns="http://www.w3.org/2000/svg" x="0" y="0" viewBox="0 0 660 660" xml:space="preserve"><style>.st0{fill:#9ec1e3}.st0,.st1,.st3,.st5,.st6{fill-rule:evenodd;clip-rule:evenodd}.st1{fill:#c3dffa}.st3{fill:#fff}.st5{fill:#5f93c7}.st6{fill:#9fc4e6}</style><path class="st0" d="M1.33-.09h659.38v659.38H1.33z"/><path class="st1" d="M18.73 306.7l76.66-44.25 32.8 18.94 65.58-37.86 54.81 31.65 100.65-58.11 32.59 18.82 69.05-39.87 109.77 63.38 8.49 96.76-554.98-7.33z"/><path fill-rule="evenodd" clip-rule="evenodd" fill="#497bad" d="M1.33 348.83h659.38v310.46H1.33z"/><path class="st0" d="M41.53 306.71l48.54-34.34-3.66 12.82 9.85 18.55-16.03 28.85-38.7-25.88zm355.8-29.99l7.33-38.92 40.75-28.39-7.78 45.33-40.3 21.98zm-78.76-13.06l17.4-16.71-2.75-15.34 14.42-9.16-4.12 10.76 11.22 16.71-9.61 46.94-26.56-33.2zm-213.15 47.63l-11.68 26.56 24.73-25.18 24.5-12.13 6.18-16.48-43.73 27.23zm87.8-64.45l38.52 36.75-72.29 35.26 33.77-72.01z"/><path class="st3" d="M660.71 239.85l-107.14-61.86-186.92 107.92-54.39-31.41-17.93 9.18-31.8-18.36-152.35 87.96L1.33 270.12v78.71h659.38z"/><path class="st1" d="M359.98 348.83l72.47-77.84 70.83-21.06 48.01-58.61-21.73 82.42-40.24 25.64-16.43 49.45H359.98zm282.43 0l-39.38-80.13 57.68 44.88v35.25h-18.3zm-330.15 0l-49.45-94.32-49.92 46.71-27.01 3.2-53.12 44.41 1.83.46z"/><path class="st3" d="M186.8 348.83l27.93-23.35 17.4-3.2 11.45-16.03-2.29 27.47-17.86 15.34z"/><path class="st1" d="M39.38 349.16L1.84 309.93l-.51 38.9z"/><path fill-rule="evenodd" clip-rule="evenodd" fill="#578abd" d="M18.73 370.93l76.66 23.09 32.8-9.88 65.58 19.75 54.81-16.51 100.65 30.31 32.59-9.81 69.05 20.79 109.77-33.06 7.85-46.66H14.15z"/><path class="st5" d="M660.71 405.81l-107.14 32.27-186.92-56.3-54.39 16.38-17.93-4.79-31.8 9.58-152.35-45.89L1.33 390.02v-41.07h659.38z"/><path class="st3" d="M85.52 458.97l20.27-30.4 48.64-3.24 21.08-21.08 87.57 12.16 40.54 27.56 61.61 14.6 22.71 34.05H41.74z"/><path class="st1" d="M298.19 492.62l-35.11-76.21-35.87 26.3-2.74 29.76-15.57 20.15z"/><path class="st6" d="M105.79 428.57l55.03 17.8 32.97-5.03 33.42 1.37-2.74 29.76-15.57 20.15H41.74l43.78-33.65z"/><path class="st5" d="M85.52 507.27l20.27 13.23 48.64 1.41 21.08 9.18 87.57-5.3 40.54-12 61.61-6.35 22.71-14.82H41.74z"/><path d="M1.33 161.1l659.38-24.73v19.23L1.33 227.95V161.1zm0-68.69l473.62 15.57L1.33 134.54V92.41z" fill-rule="evenodd" clip-rule="evenodd" fill="#afd0f0"/><path class="st3" d="M660.71 609.85H394.35l33.89-64.11 57.7-23.81 21.98-41.21 74.18-16.49 43.95 37.55 34.66 2.28z"/><path class="st6" d="M485.94 521.93l81.5 31.82 64.11-10.07 29.16 33.88v32.29H394.35l33.89-64.11z"/><path class="st1" d="M567.44 553.75l58.61-51.97 5.5 41.9-64.11 10.07-81.5-31.82 21.98-41.21z"/><path class="st5" d="M660.71 609.85H394.35l33.89 29.73 57.7 11.04 9.96 8.67h164.81zM208.9 557.87l65.94 2.52 65.94 2.52-65.94 2.52-65.94 2.52-65.94-2.52-65.94-2.52 65.94-2.52zm263.52-113.1l45.68 1.74 45.68 1.75L518.1 450l-45.68 1.75-45.67-1.75-45.68-1.74 45.68-1.75z"/><path d="M562.63 414.55l45.68 1.74 45.68 1.75-45.68 1.74-45.68 1.75-45.67-1.75-45.68-1.74 45.68-1.75zm-231.69-38.62l45.68 1.74 45.67 1.75-45.67 1.74-45.68 1.74-45.68-1.74-45.67-1.74 45.67-1.75zM91.48 386.79l32.76 1.25 32.75 1.26-32.75 1.25-32.76 1.25-32.75-1.25-32.76-1.25 32.76-1.26zm71.48-25.06l25.72.99 25.72.98-25.72.98-25.72.98-25.72-.98-25.71-.98 25.71-.98zm359.87 7.95l25.71.98 25.72.99-25.72.98-25.71.98-25.72-.98-25.72-.98 25.72-.99z" fill="#78a7d6" fill-rule="evenodd" clip-rule="evenodd"/></svg>