<svg xmlns="http://www.w3.org/2000/svg" xmlns:xlink="http://www.w3.org/1999/xlink" viewBox="0 0 500 500"><defs><linearGradient id="c" x1="250" y1="343.69" x2="250" y2="37.01" gradientUnits="userSpaceOnUse"><stop offset="0" stop-color="#fe85d8"/><stop offset=".41" stop-color="#7600d8"/><stop offset=".5" stop-color="#7100cf"/><stop offset=".64" stop-color="#6500b8"/><stop offset=".81" stop-color="#500091"/><stop offset="1" stop-color="#360060"/></linearGradient><linearGradient id="e" x1="258.83" y1="373.34" x2="258.83" y2="252.91" gradientUnits="userSpaceOnUse"><stop offset="0" stop-color="#210045" stop-opacity="0"/><stop offset="1" stop-color="#1d003e"/></linearGradient><linearGradient id="f" x1="64.24" y1="491.86" x2="437.16" y2="388.66" gradientUnits="userSpaceOnUse"><stop offset="0" stop-color="#230048"/><stop offset="1" stop-color="#4b0048"/></linearGradient><linearGradient id="b" x1="439.23" y1="371.39" x2="439.23" y2="281.72" gradientUnits="userSpaceOnUse"><stop offset="0" stop-color="#39004d"/><stop offset="1" stop-color="#69005c"/></linearGradient><linearGradient id="a" x1="412.78" y1="368.78" x2="433.28" y2="279.3" gradientUnits="userSpaceOnUse"><stop offset="0" stop-color="#700050"/><stop offset=".68" stop-color="#ff43ca"/><stop offset="1" stop-color="#f9e29e"/></linearGradient><linearGradient id="g" x1="416.3" y1="369.88" x2="436.8" y2="280.4" xlink:href="#a"/><linearGradient id="h" x1="419.82" y1="370.98" x2="440.32" y2="281.5" xlink:href="#a"/><linearGradient id="i" x1="423.35" y1="372.07" x2="443.84" y2="282.6" xlink:href="#a"/><linearGradient id="j" x1="426.87" y1="373.17" x2="447.36" y2="283.7" xlink:href="#a"/><linearGradient id="k" x1="414.04" y1="369.39" x2="434.53" y2="279.91" xlink:href="#a"/><linearGradient id="l" x1="417.56" y1="370.49" x2="438.05" y2="281.01" xlink:href="#a"/><linearGradient id="m" x1="421.08" y1="371.58" x2="441.57" y2="282.11" xlink:href="#a"/><linearGradient id="n" x1="424.6" y1="372.68" x2="445.09" y2="283.21" xlink:href="#a"/><linearGradient id="o" x1="428.12" y1="373.78" x2="448.61" y2="284.31" xlink:href="#a"/><linearGradient id="p" x1="415.29" y1="370" x2="435.78" y2="280.52" xlink:href="#a"/><linearGradient id="q" x1="418.81" y1="371.1" x2="439.3" y2="281.62" xlink:href="#a"/><linearGradient id="r" x1="422.33" y1="372.19" x2="442.82" y2="282.72" xlink:href="#a"/><linearGradient id="s" x1="425.85" y1="373.29" x2="446.35" y2="283.82" xlink:href="#a"/><linearGradient id="t" x1="429.37" y1="374.39" x2="449.87" y2="284.92" xlink:href="#a"/><linearGradient id="u" x1="416.54" y1="370.61" x2="437.04" y2="281.13" xlink:href="#a"/><linearGradient id="v" x1="420.06" y1="371.71" x2="440.56" y2="282.23" xlink:href="#a"/><linearGradient id="w" x1="423.58" y1="372.8" x2="444.08" y2="283.33" xlink:href="#a"/><linearGradient id="x" x1="427.11" y1="373.9" x2="447.6" y2="284.43" xlink:href="#a"/><linearGradient id="y" x1="430.63" y1="375" x2="451.12" y2="285.53" xlink:href="#a"/><linearGradient id="z" x1="417.8" y1="371.22" x2="438.29" y2="281.74" xlink:href="#a"/><linearGradient id="A" x1="421.32" y1="372.32" x2="441.81" y2="282.84" xlink:href="#a"/><linearGradient id="B" x1="424.84" y1="373.41" x2="445.33" y2="283.94" xlink:href="#a"/><linearGradient id="C" x1="428.36" y1="374.51" x2="448.85" y2="285.04" xlink:href="#a"/><linearGradient id="D" x1="431.88" y1="375.61" x2="452.37" y2="286.14" xlink:href="#a"/><linearGradient id="E" x1="419.05" y1="371.83" x2="439.54" y2="282.35" xlink:href="#a"/><linearGradient id="F" x1="422.57" y1="372.93" x2="443.06" y2="283.45" xlink:href="#a"/><linearGradient id="G" x1="426.09" y1="374.02" x2="446.58" y2="284.55" xlink:href="#a"/><linearGradient id="H" x1="429.61" y1="375.12" x2="450.11" y2="285.65" xlink:href="#a"/><linearGradient id="I" x1="433.13" y1="376.22" x2="453.63" y2="286.75" xlink:href="#a"/><linearGradient id="J" x1="420.3" y1="372.44" x2="440.8" y2="282.96" xlink:href="#a"/><linearGradient id="K" x1="423.82" y1="373.54" x2="444.32" y2="284.06" xlink:href="#a"/><linearGradient id="L" x1="427.34" y1="374.63" x2="447.84" y2="285.16" xlink:href="#a"/><linearGradient id="M" x1="430.87" y1="375.73" x2="451.36" y2="286.26" xlink:href="#a"/><linearGradient id="N" x1="434.39" y1="376.83" x2="454.88" y2="287.36" xlink:href="#a"/><linearGradient id="O" x1="421.56" y1="373.05" x2="442.05" y2="283.57" xlink:href="#a"/><linearGradient id="P" x1="425.08" y1="374.15" x2="445.57" y2="284.67" xlink:href="#a"/><linearGradient id="Q" x1="428.6" y1="375.24" x2="449.09" y2="285.77" xlink:href="#a"/><linearGradient id="R" x1="432.12" y1="376.34" x2="452.61" y2="286.87" xlink:href="#a"/><linearGradient id="S" x1="435.64" y1="377.44" x2="456.13" y2="287.97" xlink:href="#a"/><linearGradient id="T" x1="422.81" y1="373.66" x2="443.3" y2="284.18" xlink:href="#a"/><linearGradient id="U" x1="426.33" y1="374.75" x2="446.82" y2="285.28" xlink:href="#a"/><linearGradient id="V" x1="429.85" y1="375.85" x2="450.34" y2="286.38" xlink:href="#a"/><linearGradient id="W" x1="433.37" y1="376.95" x2="453.87" y2="287.48" xlink:href="#a"/><linearGradient id="X" x1="436.89" y1="378.05" x2="457.39" y2="288.58" xlink:href="#a"/><linearGradient id="Y" x1="424.06" y1="374.27" x2="444.56" y2="284.79" xlink:href="#a"/><linearGradient id="Z" x1="427.58" y1="375.36" x2="448.08" y2="285.89" xlink:href="#a"/><linearGradient id="aa" x1="431.1" y1="376.46" x2="451.6" y2="286.99" xlink:href="#a"/><linearGradient id="ab" x1="434.63" y1="377.56" x2="455.12" y2="288.09" xlink:href="#a"/><linearGradient id="ac" x1="438.15" y1="378.66" x2="458.64" y2="289.19" xlink:href="#a"/><linearGradient id="ad" x1="425.32" y1="374.88" x2="445.81" y2="285.4" xlink:href="#a"/><linearGradient id="ae" x1="428.84" y1="375.97" x2="449.33" y2="286.5" xlink:href="#a"/><linearGradient id="af" x1="432.36" y1="377.07" x2="452.85" y2="287.6" xlink:href="#a"/><linearGradient id="ag" x1="435.88" y1="378.17" x2="456.37" y2="288.7" xlink:href="#a"/><linearGradient id="ah" x1="439.4" y1="379.27" x2="459.89" y2="289.8" xlink:href="#a"/><linearGradient id="ai" x1="426.57" y1="375.49" x2="447.06" y2="286.01" xlink:href="#a"/><linearGradient id="aj" x1="430.09" y1="376.58" x2="450.58" y2="287.11" xlink:href="#a"/><linearGradient id="ak" x1="433.61" y1="377.68" x2="454.1" y2="288.21" xlink:href="#a"/><linearGradient id="al" x1="437.13" y1="378.78" x2="457.63" y2="289.31" xlink:href="#a"/><linearGradient id="am" x1="440.65" y1="379.88" x2="461.15" y2="290.41" xlink:href="#a"/><linearGradient id="an" x1="427.82" y1="376.1" x2="448.32" y2="286.62" xlink:href="#a"/><linearGradient id="ao" x1="431.34" y1="377.19" x2="451.84" y2="287.72" xlink:href="#a"/><linearGradient id="ap" x1="434.86" y1="378.29" x2="455.36" y2="288.82" xlink:href="#a"/><linearGradient id="aq" x1="438.39" y1="379.39" x2="458.88" y2="289.92" xlink:href="#a"/><linearGradient id="ar" x1="441.91" y1="380.49" x2="462.4" y2="291.01" xlink:href="#a"/><linearGradient id="as" x1="429.08" y1="376.71" x2="449.57" y2="287.23" xlink:href="#a"/><linearGradient id="at" x1="432.6" y1="377.8" x2="453.09" y2="288.33" xlink:href="#a"/><linearGradient id="au" x1="436.12" y1="378.9" x2="456.61" y2="289.43" xlink:href="#a"/><linearGradient id="av" x1="439.64" y1="380" x2="460.13" y2="290.53" xlink:href="#a"/><linearGradient id="aw" x1="443.16" y1="381.1" x2="463.65" y2="291.62" xlink:href="#a"/><linearGradient id="ax" x1="430.33" y1="377.32" x2="450.82" y2="287.84" xlink:href="#a"/><linearGradient id="ay" x1="433.85" y1="378.41" x2="454.34" y2="288.94" xlink:href="#a"/><linearGradient id="az" x1="437.37" y1="379.51" x2="457.86" y2="290.04" xlink:href="#a"/><linearGradient id="aA" x1="440.89" y1="380.61" x2="461.39" y2="291.14" xlink:href="#a"/><linearGradient id="aB" x1="444.41" y1="381.71" x2="464.91" y2="292.23" xlink:href="#a"/><linearGradient id="aC" x1="431.58" y1="377.92" x2="452.08" y2="288.45" xlink:href="#a"/><linearGradient id="aD" x1="435.1" y1="379.02" x2="455.6" y2="289.55" xlink:href="#a"/><linearGradient id="aE" x1="438.62" y1="380.12" x2="459.12" y2="290.65" xlink:href="#a"/><linearGradient id="aF" x1="442.15" y1="381.22" x2="462.64" y2="291.75" xlink:href="#a"/><linearGradient id="aG" x1="445.67" y1="382.32" x2="466.16" y2="292.84" xlink:href="#a"/><linearGradient id="aH" x1="54.17" y1="369.99" x2="54.17" y2="269.91" xlink:href="#b"/><linearGradient id="aI" x1="17.63" y1="374.66" x2="42.4" y2="266.5" xlink:href="#a"/><linearGradient id="aJ" x1="24.12" y1="375.99" x2="48.89" y2="267.82" xlink:href="#a"/><linearGradient id="aK" x1="30.6" y1="377.31" x2="55.38" y2="269.15" xlink:href="#a"/><linearGradient id="aL" x1="37.09" y1="378.64" x2="61.87" y2="270.48" xlink:href="#a"/><linearGradient id="aM" x1="43.58" y1="379.97" x2="68.36" y2="271.81" xlink:href="#a"/><linearGradient id="aN" x1="19.14" y1="374.83" x2="43.92" y2="266.67" xlink:href="#a"/><linearGradient id="aO" x1="25.63" y1="376.16" x2="50.4" y2="268" xlink:href="#a"/><linearGradient id="aP" x1="32.12" y1="377.49" x2="56.89" y2="269.33" xlink:href="#a"/><linearGradient id="aQ" x1="38.61" y1="378.82" x2="63.38" y2="270.65" xlink:href="#a"/><linearGradient id="aR" x1="45.1" y1="380.14" x2="69.87" y2="271.98" xlink:href="#a"/><linearGradient id="aS" x1="20.66" y1="375" x2="45.43" y2="266.84" xlink:href="#a"/><linearGradient id="aT" x1="27.15" y1="376.33" x2="51.92" y2="268.17" xlink:href="#a"/><linearGradient id="aU" x1="33.64" y1="377.66" x2="58.41" y2="269.5" xlink:href="#a"/><linearGradient id="aV" x1="40.12" y1="378.99" x2="64.9" y2="270.83" xlink:href="#a"/><linearGradient id="aW" x1="46.61" y1="380.32" x2="71.39" y2="272.15" xlink:href="#a"/><linearGradient id="aX" x1="22.17" y1="375.18" x2="46.95" y2="267.01" xlink:href="#a"/><linearGradient id="aY" x1="28.66" y1="376.5" x2="53.43" y2="268.34" xlink:href="#a"/><linearGradient id="aZ" x1="35.15" y1="377.83" x2="59.92" y2="269.67" xlink:href="#a"/><linearGradient id="ba" x1="41.64" y1="379.16" x2="66.41" y2="271" xlink:href="#a"/><linearGradient id="bb" x1="48.13" y1="380.49" x2="72.9" y2="272.33" xlink:href="#a"/><linearGradient id="bc" x1="23.69" y1="375.35" x2="48.46" y2="267.19" xlink:href="#a"/><linearGradient id="bd" x1="30.18" y1="376.68" x2="54.95" y2="268.52" xlink:href="#a"/><linearGradient id="be" x1="36.67" y1="378" x2="61.44" y2="269.84" xlink:href="#a"/><linearGradient id="bf" x1="43.15" y1="379.33" x2="67.93" y2="271.17" xlink:href="#a"/><linearGradient id="bg" x1="49.64" y1="380.66" x2="74.42" y2="272.5" xlink:href="#a"/><linearGradient id="bh" x1="25.2" y1="375.52" x2="49.98" y2="267.36" xlink:href="#a"/><linearGradient id="bi" x1="31.69" y1="376.85" x2="56.46" y2="268.69" xlink:href="#a"/><linearGradient id="bj" x1="38.18" y1="378.18" x2="62.95" y2="270.02" xlink:href="#a"/><linearGradient id="bk" x1="44.67" y1="379.51" x2="69.44" y2="271.34" xlink:href="#a"/><linearGradient id="bl" x1="51.16" y1="380.83" x2="75.93" y2="272.67" xlink:href="#a"/><linearGradient id="bm" x1="26.72" y1="375.69" x2="51.49" y2="267.53" xlink:href="#a"/><linearGradient id="bn" x1="33.21" y1="377.02" x2="57.98" y2="268.86" xlink:href="#a"/><linearGradient id="bo" x1="39.7" y1="378.35" x2="64.47" y2="270.19" xlink:href="#a"/><linearGradient id="bp" x1="46.18" y1="379.68" x2="70.96" y2="271.52" xlink:href="#a"/><linearGradient id="bq" x1="52.67" y1="381.01" x2="77.45" y2="272.84" xlink:href="#a"/><linearGradient id="br" x1="28.23" y1="375.87" x2="53.01" y2="267.7" xlink:href="#a"/><linearGradient id="bs" x1="34.72" y1="377.19" x2="59.49" y2="269.03" xlink:href="#a"/><linearGradient id="bt" x1="41.21" y1="378.52" x2="65.98" y2="270.36" xlink:href="#a"/><linearGradient id="bu" x1="47.7" y1="379.85" x2="72.47" y2="271.69" xlink:href="#a"/><linearGradient id="bv" x1="54.19" y1="381.18" x2="78.96" y2="273.02" xlink:href="#a"/><linearGradient id="bw" x1="29.75" y1="376.04" x2="54.52" y2="267.88" xlink:href="#a"/><linearGradient id="bx" x1="36.24" y1="377.37" x2="61.01" y2="269.2" xlink:href="#a"/><linearGradient id="by" x1="42.73" y1="378.7" x2="67.5" y2="270.53" xlink:href="#a"/><linearGradient id="bz" x1="49.21" y1="380.02" x2="73.99" y2="271.86" xlink:href="#a"/><linearGradient id="bA" x1="55.7" y1="381.35" x2="80.48" y2="273.19" xlink:href="#a"/><linearGradient id="bB" x1="31.26" y1="376.21" x2="56.04" y2="268.05" xlink:href="#a"/><linearGradient id="bC" x1="37.75" y1="377.54" x2="62.52" y2="269.38" xlink:href="#a"/><linearGradient id="bD" x1="44.24" y1="378.87" x2="69.01" y2="270.71" xlink:href="#a"/><linearGradient id="bE" x1="50.73" y1="380.2" x2="75.5" y2="272.04" xlink:href="#a"/><linearGradient id="bF" x1="57.22" y1="381.52" x2="81.99" y2="273.36" xlink:href="#a"/><linearGradient id="bG" x1="32.78" y1="376.38" x2="57.55" y2="268.22" xlink:href="#a"/><linearGradient id="bH" x1="39.27" y1="377.71" x2="64.04" y2="269.55" xlink:href="#a"/><linearGradient id="bI" x1="45.76" y1="379.04" x2="70.53" y2="270.88" xlink:href="#a"/><linearGradient id="bJ" x1="52.24" y1="380.37" x2="77.02" y2="272.21" xlink:href="#a"/><linearGradient id="bK" x1="58.73" y1="381.7" x2="83.51" y2="273.54" xlink:href="#a"/><linearGradient id="bL" x1="34.29" y1="376.56" x2="59.07" y2="268.39" xlink:href="#a"/><linearGradient id="bM" x1="40.78" y1="377.89" x2="65.56" y2="269.72" xlink:href="#a"/><linearGradient id="bN" x1="47.27" y1="379.21" x2="72.04" y2="271.05" xlink:href="#a"/><linearGradient id="bO" x1="53.76" y1="380.54" x2="78.53" y2="272.38" xlink:href="#a"/><linearGradient id="bP" x1="60.25" y1="381.87" x2="85.02" y2="273.71" xlink:href="#a"/><linearGradient id="bQ" x1="35.81" y1="376.73" x2="60.58" y2="268.57" xlink:href="#a"/><linearGradient id="bR" x1="42.3" y1="378.06" x2="67.07" y2="269.9" xlink:href="#a"/><linearGradient id="bS" x1="48.79" y1="379.39" x2="73.56" y2="271.22" xlink:href="#a"/><linearGradient id="bT" x1="55.27" y1="380.71" x2="80.05" y2="272.55" xlink:href="#a"/><linearGradient id="bU" x1="61.76" y1="382.04" x2="86.54" y2="273.88" xlink:href="#a"/><linearGradient id="bV" x1="37.32" y1="376.9" x2="62.1" y2="268.74" xlink:href="#a"/><linearGradient id="bW" x1="43.81" y1="378.23" x2="68.59" y2="270.07" xlink:href="#a"/><linearGradient id="bX" x1="50.3" y1="379.56" x2="75.07" y2="271.4" xlink:href="#a"/><linearGradient id="bY" x1="56.79" y1="380.89" x2="81.56" y2="272.72" xlink:href="#a"/><linearGradient id="bZ" x1="63.28" y1="382.21" x2="88.05" y2="274.05" xlink:href="#a"/><linearGradient id="ca" x1="38.84" y1="377.07" x2="63.61" y2="268.91" xlink:href="#a"/><linearGradient id="cb" x1="45.33" y1="378.4" x2="70.1" y2="270.24" xlink:href="#a"/><linearGradient id="cc" x1="51.82" y1="379.73" x2="76.59" y2="271.57" xlink:href="#a"/><linearGradient id="cd" x1="58.3" y1="381.06" x2="83.08" y2="272.9" xlink:href="#a"/><linearGradient id="ce" x1="64.79" y1="382.39" x2="89.57" y2="274.23" xlink:href="#a"/><linearGradient id="cf" x1="40.35" y1="377.25" x2="65.13" y2="269.09" xlink:href="#a"/><linearGradient id="cg" x1="46.84" y1="378.58" x2="71.62" y2="270.41" xlink:href="#a"/><linearGradient id="ch" x1="53.33" y1="379.9" x2="78.1" y2="271.74" xlink:href="#a"/><linearGradient id="ci" x1="59.82" y1="381.23" x2="84.59" y2="273.07" xlink:href="#a"/><linearGradient id="cj" x1="66.31" y1="382.56" x2="91.08" y2="274.4" xlink:href="#a"/><linearGradient id="ck" x1="419.66" y1="174.95" x2="419.66" y2="172.56" xlink:href="#b"/><linearGradient id="cl" x1="419.66" y1="210.89" x2="419.66" y2="193.84" xlink:href="#b"/><linearGradient id="cm" x1="416.44" y1="201.68" x2="422.88" y2="201.68" xlink:href="#b"/><linearGradient id="cn" x1="417.09" y1="185.84" x2="422.23" y2="185.84" xlink:href="#b"/><linearGradient id="co" x1="417.61" y1="181.61" x2="421.71" y2="181.61" xlink:href="#b"/><linearGradient id="cp" x1="417.61" y1="178.96" x2="421.71" y2="178.96" xlink:href="#b"/><linearGradient id="cq" x1="406.73" y1="215.43" x2="432.59" y2="215.43" xlink:href="#b"/><linearGradient id="cr" x1="406.73" y1="300.21" x2="432.59" y2="300.21" xlink:href="#a"/><linearGradient id="cs" x1="419.66" y1="214.86" x2="419.66" y2="211.03" xlink:href="#b"/><linearGradient id="ct" x1="410.55" y1="220.72" x2="428.37" y2="220.72" xlink:href="#b"/><linearGradient id="cu" x1="410.65" y1="228.83" x2="428.18" y2="228.83" xlink:href="#b"/><linearGradient id="cv" x1="410.46" y1="236.93" x2="428.37" y2="236.93" xlink:href="#b"/><linearGradient id="cw" x1="410.27" y1="245.04" x2="428.56" y2="245.04" xlink:href="#b"/><linearGradient id="cx" x1="410.08" y1="253.15" x2="428.75" y2="253.15" xlink:href="#b"/><linearGradient id="cy" x1="409.89" y1="261.25" x2="428.94" y2="261.25" xlink:href="#b"/><linearGradient id="cz" x1="409.7" y1="269.36" x2="429.13" y2="269.36" xlink:href="#b"/><linearGradient id="cA" x1="409.51" y1="277.47" x2="429.32" y2="277.47" xlink:href="#b"/><linearGradient id="cB" x1="409.32" y1="285.58" x2="429.51" y2="285.58" xlink:href="#b"/><linearGradient id="cC" x1="409.13" y1="293.68" x2="429.7" y2="293.68" xlink:href="#b"/><linearGradient id="cD" x1="408.93" y1="301.79" x2="429.89" y2="301.79" xlink:href="#b"/><linearGradient id="cE" x1="408.74" y1="309.9" x2="430.08" y2="309.9" xlink:href="#b"/><linearGradient id="cF" x1="408.55" y1="318" x2="430.27" y2="318" xlink:href="#b"/><linearGradient id="cG" x1="408.36" y1="326.11" x2="430.46" y2="326.11" xlink:href="#b"/><linearGradient id="cH" x1="408.17" y1="334.22" x2="430.65" y2="334.22" xlink:href="#b"/><linearGradient id="cI" x1="407.98" y1="342.32" x2="430.84" y2="342.32" xlink:href="#b"/><linearGradient id="cJ" x1="407.79" y1="350.43" x2="431.04" y2="350.43" xlink:href="#b"/><linearGradient id="cK" x1="407.6" y1="358.54" x2="431.23" y2="358.54" xlink:href="#b"/><linearGradient id="cL" x1="407.41" y1="366.65" x2="431.42" y2="366.65" xlink:href="#b"/><linearGradient id="cM" x1="407.22" y1="374.75" x2="431.61" y2="374.75" xlink:href="#b"/><linearGradient id="cN" x1="168.02" y1="365.42" x2="236.81" y2="289.19" xlink:href="#a"/><linearGradient id="cO" x1="199.3" y1="378.75" x2="201.02" y2="340.72" xlink:href="#a"/><linearGradient id="cP" x1="200.33" y1="336.72" x2="200.33" y2="301.69" xlink:href="#a"/><linearGradient id="cQ" x1="177.18" y1="290.94" x2="225.19" y2="276.08" xlink:href="#a"/><linearGradient id="cR" x1="173.04" y1="329.94" x2="173.82" y2="329.94" xlink:href="#b"/><linearGradient id="cS" x1="182.06" y1="329.94" x2="182.84" y2="329.94" xlink:href="#b"/><linearGradient id="cT" x1="191.08" y1="329.94" x2="191.86" y2="329.94" xlink:href="#b"/><linearGradient id="cU" x1="200.1" y1="329.94" x2="200.88" y2="329.94" xlink:href="#b"/><linearGradient id="cV" x1="209.12" y1="329.94" x2="209.9" y2="329.94" xlink:href="#b"/><linearGradient id="cW" x1="218.14" y1="329.94" x2="218.91" y2="329.94" xlink:href="#b"/><linearGradient id="cX" x1="227.15" y1="329.94" x2="227.93" y2="329.94" xlink:href="#b"/><linearGradient id="cY" x1="166.3" y1="278.73" x2="234.36" y2="278.73" xlink:href="#b"/><linearGradient id="cZ" x1="166.3" y1="293.81" x2="234.36" y2="293.81" xlink:href="#b"/><linearGradient id="da" x1="166.3" y1="337.27" x2="234.36" y2="337.27" xlink:href="#b"/><linearGradient id="db" x1="166.3" y1="315.3" x2="234.36" y2="315.3" xlink:href="#b"/><linearGradient id="dc" x1="166.3" y1="358.77" x2="234.36" y2="358.77" xlink:href="#b"/><linearGradient id="dd" x1="166.3" y1="377.47" x2="234.36" y2="377.47" xlink:href="#b"/><linearGradient id="de" x1="234.52" y1="384.13" x2="234.52" y2="278.39" xlink:href="#b"/><linearGradient id="df" x1="166.19" y1="376.91" x2="166.19" y2="289.8" xlink:href="#b"/><linearGradient id="dg" x1="303.47" y1="363.53" x2="303.47" y2="215.61" xlink:href="#b"/><linearGradient id="dh" x1="259.84" y1="359.22" x2="293.65" y2="211.63" xlink:href="#a"/><linearGradient id="di" x1="265.65" y1="361.03" x2="299.46" y2="213.44" xlink:href="#a"/><linearGradient id="dj" x1="271.46" y1="362.84" x2="305.26" y2="215.25" xlink:href="#a"/><linearGradient id="dk" x1="277.27" y1="364.66" x2="311.07" y2="217.07" xlink:href="#a"/><linearGradient id="dl" x1="283.08" y1="366.47" x2="316.88" y2="218.88" xlink:href="#a"/><linearGradient id="dm" x1="261.91" y1="360.23" x2="295.72" y2="212.63" xlink:href="#a"/><linearGradient id="dn" x1="267.72" y1="362.04" x2="301.52" y2="214.45" xlink:href="#a"/><linearGradient id="do" x1="273.53" y1="363.85" x2="307.33" y2="216.26" xlink:href="#a"/><linearGradient id="dp" x1="279.34" y1="365.66" x2="313.14" y2="218.07" xlink:href="#a"/><linearGradient id="dq" x1="285.14" y1="367.48" x2="318.95" y2="219.88" xlink:href="#a"/><linearGradient id="dr" x1="263.98" y1="361.23" x2="297.78" y2="213.64" xlink:href="#a"/><linearGradient id="ds" x1="269.79" y1="363.04" x2="303.59" y2="215.45" xlink:href="#a"/><linearGradient id="dt" x1="275.6" y1="364.85" x2="309.4" y2="217.27" xlink:href="#a"/><linearGradient id="du" x1="281.4" y1="366.67" x2="315.21" y2="219.08" xlink:href="#a"/><linearGradient id="dv" x1="287.21" y1="368.48" x2="321.02" y2="220.89" xlink:href="#a"/><linearGradient id="dw" x1="266.05" y1="362.24" x2="299.85" y2="214.65" xlink:href="#a"/><linearGradient id="dx" x1="271.85" y1="364.05" x2="305.66" y2="216.46" xlink:href="#a"/><linearGradient id="dy" x1="277.66" y1="365.86" x2="311.47" y2="218.27" xlink:href="#a"/><linearGradient id="dz" x1="283.47" y1="367.68" x2="317.27" y2="220.08" xlink:href="#a"/><linearGradient id="dA" x1="289.28" y1="369.49" x2="323.08" y2="221.9" xlink:href="#a"/><linearGradient id="dB" x1="268.11" y1="363.24" x2="301.92" y2="215.65" xlink:href="#a"/><linearGradient id="dC" x1="273.92" y1="365.06" x2="307.73" y2="217.46" xlink:href="#a"/><linearGradient id="dD" x1="279.73" y1="366.87" x2="313.53" y2="219.28" xlink:href="#a"/><linearGradient id="dE" x1="285.54" y1="368.68" x2="319.34" y2="221.09" xlink:href="#a"/><linearGradient id="dF" x1="291.35" y1="370.49" x2="325.15" y2="222.9" xlink:href="#a"/><linearGradient id="dG" x1="270.18" y1="364.25" x2="303.98" y2="216.66" xlink:href="#a"/><linearGradient id="dH" x1="275.99" y1="366.06" x2="309.79" y2="218.47" xlink:href="#a"/><linearGradient id="dI" x1="281.8" y1="367.87" x2="315.6" y2="220.28" xlink:href="#a"/><linearGradient id="dJ" x1="287.61" y1="369.69" x2="321.41" y2="222.1" xlink:href="#a"/><linearGradient id="dK" x1="293.41" y1="371.5" x2="327.22" y2="223.91" xlink:href="#a"/><linearGradient id="dL" x1="272.25" y1="365.26" x2="306.05" y2="217.66" xlink:href="#a"/><linearGradient id="dM" x1="278.06" y1="367.07" x2="311.86" y2="219.48" xlink:href="#a"/><linearGradient id="dN" x1="283.86" y1="368.88" x2="317.67" y2="221.29" xlink:href="#a"/><linearGradient id="dO" x1="289.67" y1="370.69" x2="323.48" y2="223.1" xlink:href="#a"/><linearGradient id="dP" x1="295.48" y1="372.5" x2="329.29" y2="224.91" xlink:href="#a"/><linearGradient id="dQ" x1="274.32" y1="366.26" x2="308.12" y2="218.67" xlink:href="#a"/><linearGradient id="dR" x1="280.12" y1="368.07" x2="313.93" y2="220.48" xlink:href="#a"/><linearGradient id="dS" x1="285.93" y1="369.89" x2="319.74" y2="222.29" xlink:href="#a"/><linearGradient id="dT" x1="291.74" y1="371.7" x2="325.54" y2="224.11" xlink:href="#a"/><linearGradient id="dU" x1="297.55" y1="373.51" x2="331.35" y2="225.92" xlink:href="#a"/><linearGradient id="dV" x1="276.38" y1="367.27" x2="310.19" y2="219.67" xlink:href="#a"/><linearGradient id="dW" x1="282.19" y1="369.08" x2="316" y2="221.49" xlink:href="#a"/><linearGradient id="dX" x1="288" y1="370.89" x2="321.8" y2="223.3" xlink:href="#a"/><linearGradient id="dY" x1="293.81" y1="372.7" x2="327.61" y2="225.11" xlink:href="#a"/><linearGradient id="dZ" x1="299.62" y1="374.52" x2="333.42" y2="226.92" xlink:href="#a"/><linearGradient id="ea" x1="278.45" y1="368.27" x2="312.25" y2="220.68" xlink:href="#a"/><linearGradient id="eb" x1="284.26" y1="370.09" x2="318.06" y2="222.49" xlink:href="#a"/><linearGradient id="ec" x1="290.07" y1="371.9" x2="323.87" y2="224.31" xlink:href="#a"/><linearGradient id="ed" x1="295.87" y1="373.71" x2="329.68" y2="226.12" xlink:href="#a"/><linearGradient id="ee" x1="301.68" y1="375.52" x2="335.49" y2="227.93" xlink:href="#a"/><linearGradient id="ef" x1="280.52" y1="369.28" x2="314.32" y2="221.69" xlink:href="#a"/><linearGradient id="eg" x1="286.33" y1="371.09" x2="320.13" y2="223.5" xlink:href="#a"/><linearGradient id="eh" x1="292.13" y1="372.9" x2="325.94" y2="225.31" xlink:href="#a"/><linearGradient id="ei" x1="297.94" y1="374.72" x2="331.75" y2="227.12" xlink:href="#a"/><linearGradient id="ej" x1="303.75" y1="376.53" x2="337.55" y2="228.94" xlink:href="#a"/><linearGradient id="ek" x1="282.58" y1="370.28" x2="316.39" y2="222.69" xlink:href="#a"/><linearGradient id="el" x1="288.39" y1="372.1" x2="322.2" y2="224.51" xlink:href="#a"/><linearGradient id="em" x1="294.2" y1="373.91" x2="328.01" y2="226.32" xlink:href="#a"/><linearGradient id="en" x1="300.01" y1="375.72" x2="333.81" y2="228.13" xlink:href="#a"/><linearGradient id="eo" x1="305.82" y1="377.53" x2="339.62" y2="229.94" xlink:href="#a"/><linearGradient id="ep" x1="284.65" y1="371.29" x2="318.46" y2="223.7" xlink:href="#a"/><linearGradient id="eq" x1="290.46" y1="373.1" x2="324.26" y2="225.51" xlink:href="#a"/><linearGradient id="er" x1="296.27" y1="374.92" x2="330.07" y2="227.32" xlink:href="#a"/><linearGradient id="es" x1="302.08" y1="376.73" x2="335.88" y2="229.14" xlink:href="#a"/><linearGradient id="et" x1="307.89" y1="378.54" x2="341.69" y2="230.95" xlink:href="#a"/><linearGradient id="eu" x1="286.72" y1="372.3" x2="320.52" y2="224.7" xlink:href="#a"/><linearGradient id="ev" x1="292.53" y1="374.11" x2="326.33" y2="226.52" xlink:href="#a"/><linearGradient id="ew" x1="298.34" y1="375.92" x2="332.14" y2="228.33" xlink:href="#a"/><linearGradient id="ex" x1="304.14" y1="377.73" x2="337.95" y2="230.14" xlink:href="#a"/><linearGradient id="ey" x1="309.95" y1="379.55" x2="343.76" y2="231.95" xlink:href="#a"/><linearGradient id="ez" x1="288.79" y1="373.3" x2="322.59" y2="225.71" xlink:href="#a"/><linearGradient id="eA" x1="294.6" y1="375.11" x2="328.4" y2="227.52" xlink:href="#a"/><linearGradient id="eB" x1="300.4" y1="376.93" x2="334.21" y2="229.34" xlink:href="#a"/><linearGradient id="eC" x1="306.21" y1="378.74" x2="340.02" y2="231.15" xlink:href="#a"/><linearGradient id="eD" x1="312.02" y1="380.55" x2="345.82" y2="232.96" xlink:href="#a"/><linearGradient id="eE" x1="290.85" y1="374.31" x2="324.66" y2="226.72" xlink:href="#a"/><linearGradient id="eF" x1="296.66" y1="376.12" x2="330.47" y2="228.53" xlink:href="#a"/><linearGradient id="eG" x1="302.47" y1="377.93" x2="336.28" y2="230.34" xlink:href="#a"/><linearGradient id="eH" x1="308.28" y1="379.75" x2="342.08" y2="232.15" xlink:href="#a"/><linearGradient id="eI" x1="314.09" y1="381.56" x2="347.89" y2="233.97" xlink:href="#a"/><linearGradient id="eJ" x1="334.71" y1="102.7" x2="335.54" y2="102.7" xlink:href="#b"/><linearGradient id="eK" x1="334.34" y1="121.63" x2="335.91" y2="121.63" xlink:href="#b"/><linearGradient id="eL" x1="333.21" y1="133.6" x2="337.04" y2="133.6" xlink:href="#b"/><linearGradient id="eM" x1="320.6" y1="163.22" x2="349.67" y2="163.22" xlink:href="#a"/><linearGradient id="eN" x1="335.14" y1="233.3" x2="335.14" y2="263.11" xlink:href="#b"/><linearGradient id="eO" x1="317.68" y1="157.34" x2="352.16" y2="157.34" xlink:href="#b"/><linearGradient id="eP" x1="317.68" y1="170.54" x2="352.16" y2="170.54" xlink:href="#b"/><linearGradient id="eQ" x1="316.03" y1="140.07" x2="354.29" y2="140.07" xlink:href="#b"/><linearGradient id="eR" x1="306.1" y1="223.02" x2="365.22" y2="223.02" xlink:href="#b"/><linearGradient id="eS" x1="306.1" y1="191.67" x2="365.22" y2="191.67" xlink:href="#b"/><linearGradient id="eT" x1="307.11" y1="207.35" x2="364.21" y2="207.35" xlink:href="#a"/><linearGradient id="eU" x1="378.02" y1="323.29" x2="378.02" y2="316.44" xlink:href="#b"/><linearGradient id="eV" x1="378.17" y1="365.63" x2="378.17" y2="375.52" xlink:href="#b"/><linearGradient id="eW" x1="342.31" y1="354.16" x2="413.94" y2="354.16" xlink:href="#b"/><linearGradient id="eX" x1="342.31" y1="327.07" x2="413.94" y2="327.07" xlink:href="#b"/><linearGradient id="eY" x1="343.79" y1="336.65" x2="412.46" y2="336.65" xlink:href="#a"/><linearGradient id="eZ" x1="260.39" y1="300.38" x2="260.39" y2="291.71" xlink:href="#b"/><linearGradient id="fa" x1="234.2" y1="341.72" x2="286.58" y2="341.72" xlink:href="#a"/><linearGradient id="fb" x1="231.45" y1="299.87" x2="289.33" y2="299.87" xlink:href="#b"/><linearGradient id="fc" x1="233.08" y1="315.04" x2="287.69" y2="315.04" xlink:href="#b"/><linearGradient id="fd" x1="233.08" y1="327.79" x2="287.69" y2="327.79" xlink:href="#b"/><linearGradient id="fe" x1="233.08" y1="340.54" x2="287.69" y2="340.54" xlink:href="#b"/><linearGradient id="ff" x1="233.08" y1="353.28" x2="287.69" y2="353.28" xlink:href="#b"/><linearGradient id="fg" x1="233.08" y1="366.03" x2="287.69" y2="366.03" xlink:href="#b"/><linearGradient id="fh" x1="234.2" y1="380.9" x2="286.58" y2="380.9" xlink:href="#b"/><linearGradient id="fi" x1="95.99" y1="203.6" x2="95.99" y2="131.1" xlink:href="#b"/><linearGradient id="fj" x1="95.79" y1="214.36" x2="95.79" y2="133.45" xlink:href="#a"/><linearGradient id="fk" x1="95.99" y1="359.86" x2="95.99" y2="224.83" xlink:href="#b"/><linearGradient id="fl" x1="96.3" y1="285.26" x2="96.3" y2="207.9" xlink:href="#a"/><linearGradient id="fm" x1="96.3" y1="335.73" x2="96.3" y2="288.58" xlink:href="#a"/><linearGradient id="fn" x1="96.3" y1="373.22" x2="96.3" y2="315.67" xlink:href="#a"/><linearGradient id="fo" x1="136.61" y1="115.96" x2="136.61" y2="109.18" xlink:href="#b"/><linearGradient id="fp" x1="150.23" y1="81.51" x2="150.23" y2="75.31" xlink:href="#b"/><linearGradient id="fq" x1="150.23" y1="97.65" x2="150.23" y2="91.17" xlink:href="#b"/><linearGradient id="fr" x1="150.23" y1="115.09" x2="150.23" y2="102.84" xlink:href="#b"/><linearGradient id="fs" x1="143.85" y1="234.1" x2="143.85" y2="127.25" xlink:href="#a"/><linearGradient id="ft" x1="124.33" y1="116.8" x2="163.18" y2="116.8" xlink:href="#b"/><linearGradient id="fu" x1="124.41" y1="130.26" x2="162.96" y2="130.26" xlink:href="#b"/><linearGradient id="fv" x1="124.41" y1="147.13" x2="162.96" y2="147.13" xlink:href="#b"/><linearGradient id="fw" x1="124.41" y1="164.01" x2="162.96" y2="164.01" xlink:href="#b"/><linearGradient id="fx" x1="124.41" y1="180.89" x2="162.96" y2="180.89" xlink:href="#b"/><linearGradient id="fy" x1="124.41" y1="197.76" x2="162.96" y2="197.76" xlink:href="#b"/><linearGradient id="fz" x1="124.41" y1="214.64" x2="162.96" y2="214.64" xlink:href="#b"/><linearGradient id="fA" x1="143.88" y1="367.29" x2="143.88" y2="224.69" xlink:href="#a"/><linearGradient id="fB" x1="117.91" y1="231.25" x2="169.6" y2="231.25" xlink:href="#b"/><linearGradient id="fC" x1="118.02" y1="249.16" x2="169.3" y2="249.16" xlink:href="#b"/><linearGradient id="fD" x1="118.02" y1="271.61" x2="169.3" y2="271.61" xlink:href="#b"/><linearGradient id="fE" x1="118.02" y1="294.07" x2="169.3" y2="294.07" xlink:href="#b"/><linearGradient id="fF" x1="118.02" y1="316.53" x2="169.3" y2="316.53" xlink:href="#b"/><linearGradient id="fG" x1="118.02" y1="338.98" x2="169.3" y2="338.98" xlink:href="#b"/><linearGradient id="fH" x1="118.02" y1="361.44" x2="169.3" y2="361.44" xlink:href="#b"/><linearGradient id="fI" x1="10.19" y1="382.14" x2="471.95" y2="382.14" xlink:href="#b"/><clipPath id="d"><path fill="none" d="M0 0h500v500H0z"/></clipPath></defs><path fill="url(#c)" d="M0 0h500v500H0z"/><g clip-path="url(#d)"><path fill="url(#e)" d="M-39.32 383.31v-88.07h35.55v21.82h8.89v-4.85h8.48v-5.25h4.45V210h20.6v-10.51h4.85v8.89h14.54v52.12h6.87v57.77h7.67V191.82h61.41v45.65h9.29v65.45h22.22v22.62h6.06v5.66h7.68v-7.28h5.25v-37.16h4.45v-11.32h7.27v-11.31h18.18v-30.7h46.05v67.87h13.74v-55.75h5.25v-36.77h39.19v50.51h6.87v25.04h14.14v22.22h6.87v-8.48h5.25v-4.85h16.56v-28.68h30.3v-9.29h35.15v79.99h5.65v-6.06h6.47v-4.04h3.23v-68.28h28.68v35.96h5.26v42.01h5.65v-90.49h11.31v-75.55h49.7v77.57h7.27v136.95h-596.3z"/></g><path fill="url(#f)" d="M0 380.9h500V500H0z"/><path fill="url(#b)" d="M428.93 280.76h20.6v102.73h-20.6z"/><path fill="url(#a)" d="M430.15 285.06h2.71v3.95h-2.71z"/><path fill="url(#g)" d="M433.92 285.06h2.71v3.95h-2.71z"/><path fill="url(#h)" d="M437.69 285.06h2.71v3.95h-2.71z"/><path fill="url(#i)" d="M441.47 285.06h2.71v3.95h-2.71z"/><path fill="url(#j)" d="M445.24 285.06h2.71v3.95h-2.71z"/><path fill="url(#k)" d="M430.15 291.15h2.71v3.95h-2.71z"/><path fill="url(#l)" d="M433.92 291.15h2.71v3.95h-2.71z"/><path fill="url(#m)" d="M437.69 291.15h2.71v3.95h-2.71z"/><path fill="url(#n)" d="M441.47 291.15h2.71v3.95h-2.71z"/><path fill="url(#o)" d="M445.24 291.15h2.71v3.95h-2.71z"/><path fill="url(#p)" d="M430.15 297.23h2.71v3.95h-2.71z"/><path fill="url(#q)" d="M433.92 297.23h2.71v3.95h-2.71z"/><path fill="url(#r)" d="M437.69 297.23h2.71v3.95h-2.71z"/><path fill="url(#s)" d="M441.47 297.23h2.71v3.95h-2.71z"/><path fill="url(#t)" d="M445.24 297.23h2.71v3.95h-2.71z"/><path fill="url(#u)" d="M430.15 303.31h2.71v3.95h-2.71z"/><path fill="url(#v)" d="M433.92 303.31h2.71v3.95h-2.71z"/><path fill="url(#w)" d="M437.69 303.31h2.71v3.95h-2.71z"/><path fill="url(#x)" d="M441.47 303.31h2.71v3.95h-2.71z"/><path fill="url(#y)" d="M445.24 303.31h2.71v3.95h-2.71z"/><path fill="url(#z)" d="M430.15 309.39h2.71v3.95h-2.71z"/><path fill="url(#A)" d="M433.92 309.39h2.71v3.95h-2.71z"/><path fill="url(#B)" d="M437.69 309.39h2.71v3.95h-2.71z"/><path fill="url(#C)" d="M441.47 309.39h2.71v3.95h-2.71z"/><path fill="url(#D)" d="M445.24 309.39h2.71v3.95h-2.71z"/><path fill="url(#E)" d="M430.15 315.47h2.71v3.95h-2.71z"/><path fill="url(#F)" d="M433.92 315.47h2.71v3.95h-2.71z"/><path fill="url(#G)" d="M437.69 315.47h2.71v3.95h-2.71z"/><path fill="url(#H)" d="M441.47 315.47h2.71v3.95h-2.71z"/><path fill="url(#I)" d="M445.24 315.47h2.71v3.95h-2.71z"/><path fill="url(#J)" d="M430.15 321.55h2.71v3.95h-2.71z"/><path fill="url(#K)" d="M433.92 321.55h2.71v3.95h-2.71z"/><path fill="url(#L)" d="M437.69 321.55h2.71v3.95h-2.71z"/><path fill="url(#M)" d="M441.47 321.55h2.71v3.95h-2.71z"/><path fill="url(#N)" d="M445.24 321.55h2.71v3.95h-2.71z"/><path fill="url(#O)" d="M430.15 327.64h2.71v3.95h-2.71z"/><path fill="url(#P)" d="M433.92 327.64h2.71v3.95h-2.71z"/><path fill="url(#Q)" d="M437.69 327.64h2.71v3.95h-2.71z"/><path fill="url(#R)" d="M441.47 327.64h2.71v3.95h-2.71z"/><path fill="url(#S)" d="M445.24 327.64h2.71v3.95h-2.71z"/><path fill="url(#T)" d="M430.15 333.72h2.71v3.95h-2.71z"/><path fill="url(#U)" d="M433.92 333.72h2.71v3.95h-2.71z"/><path fill="url(#V)" d="M437.69 333.72h2.71v3.95h-2.71z"/><path fill="url(#W)" d="M441.47 333.72h2.71v3.95h-2.71z"/><path fill="url(#X)" d="M445.24 333.72h2.71v3.95h-2.71z"/><path fill="url(#Y)" d="M430.15 339.8h2.71v3.95h-2.71z"/><path fill="url(#Z)" d="M433.92 339.8h2.71v3.95h-2.71z"/><path fill="url(#aa)" d="M437.69 339.8h2.71v3.95h-2.71z"/><path fill="url(#ab)" d="M441.47 339.8h2.71v3.95h-2.71z"/><path fill="url(#ac)" d="M445.24 339.8h2.71v3.95h-2.71z"/><path fill="url(#ad)" d="M430.15 345.88h2.71v3.95h-2.71z"/><path fill="url(#ae)" d="M433.92 345.88h2.71v3.95h-2.71z"/><path fill="url(#af)" d="M437.69 345.88h2.71v3.95h-2.71z"/><path fill="url(#ag)" d="M441.47 345.88h2.71v3.95h-2.71z"/><path fill="url(#ah)" d="M445.24 345.88h2.71v3.95h-2.71z"/><path fill="url(#ai)" d="M430.15 351.96h2.71v3.95h-2.71z"/><path fill="url(#aj)" d="M433.92 351.96h2.71v3.95h-2.71z"/><path fill="url(#ak)" d="M437.69 351.96h2.71v3.95h-2.71z"/><path fill="url(#al)" d="M441.47 351.96h2.71v3.95h-2.71z"/><path fill="url(#am)" d="M445.24 351.96h2.71v3.95h-2.71z"/><path fill="url(#an)" d="M430.15 358.05h2.71V362h-2.71z"/><path fill="url(#ao)" d="M433.92 358.05h2.71V362h-2.71z"/><path fill="url(#ap)" d="M437.69 358.05h2.71V362h-2.71z"/><path fill="url(#aq)" d="M441.47 358.05h2.71V362h-2.71z"/><path fill="url(#ar)" d="M445.24 358.05h2.71V362h-2.71z"/><path fill="url(#as)" d="M430.15 364.13h2.71v3.95h-2.71z"/><path fill="url(#at)" d="M433.92 364.13h2.71v3.95h-2.71z"/><path fill="url(#au)" d="M437.69 364.13h2.71v3.95h-2.71z"/><path fill="url(#av)" d="M441.47 364.13h2.71v3.95h-2.71z"/><path fill="url(#aw)" d="M445.24 364.13h2.71v3.95h-2.71z"/><path fill="url(#ax)" d="M430.15 370.21h2.71v3.95h-2.71z"/><path fill="url(#ay)" d="M433.92 370.21h2.71v3.95h-2.71z"/><path fill="url(#az)" d="M437.69 370.21h2.71v3.95h-2.71z"/><path fill="url(#aA)" d="M441.47 370.21h2.71v3.95h-2.71z"/><path fill="url(#aB)" d="M445.24 370.21h2.71v3.95h-2.71z"/><path fill="url(#aC)" d="M430.15 376.29h2.71v3.95h-2.71z"/><path fill="url(#aD)" d="M433.92 376.29h2.71v3.95h-2.71z"/><path fill="url(#aE)" d="M437.69 376.29h2.71v3.95h-2.71z"/><path fill="url(#aF)" d="M441.47 376.29h2.71v3.95h-2.71z"/><path fill="url(#aG)" d="M445.24 376.29h2.71v3.95h-2.71z"/><path fill="url(#aH)" d="M35.62 268.85h37.1V383.5h-37.1z"/><path fill="url(#aI)" d="M37.82 273.64h4.88v4.41h-4.88z"/><path fill="url(#aJ)" d="M44.61 273.64h4.88v4.41h-4.88z"/><path fill="url(#aK)" d="M51.41 273.64h4.88v4.41h-4.88z"/><path fill="url(#aL)" d="M58.2 273.64h4.88v4.41H58.2z"/><path fill="url(#aM)" d="M64.99 273.64h4.88v4.41h-4.88z"/><path fill="url(#aN)" d="M37.82 280.43h4.88v4.41h-4.88z"/><path fill="url(#aO)" d="M44.61 280.43h4.88v4.41h-4.88z"/><path fill="url(#aP)" d="M51.41 280.43h4.88v4.41h-4.88z"/><path fill="url(#aQ)" d="M58.2 280.43h4.88v4.41H58.2z"/><path fill="url(#aR)" d="M64.99 280.43h4.88v4.41h-4.88z"/><path fill="url(#aS)" d="M37.82 287.22h4.88v4.41h-4.88z"/><path fill="url(#aT)" d="M44.61 287.22h4.88v4.41h-4.88z"/><path fill="url(#aU)" d="M51.41 287.22h4.88v4.41h-4.88z"/><path fill="url(#aV)" d="M58.2 287.22h4.88v4.41H58.2z"/><path fill="url(#aW)" d="M64.99 287.22h4.88v4.41h-4.88z"/><path fill="url(#aX)" d="M37.82 294.01h4.88v4.41h-4.88z"/><path fill="url(#aY)" d="M44.61 294.01h4.88v4.41h-4.88z"/><path fill="url(#aZ)" d="M51.41 294.01h4.88v4.41h-4.88z"/><path fill="url(#ba)" d="M58.2 294.01h4.88v4.41H58.2z"/><path fill="url(#bb)" d="M64.99 294.01h4.88v4.41h-4.88z"/><path fill="url(#bc)" d="M37.82 300.79h4.88v4.41h-4.88z"/><path fill="url(#bd)" d="M44.61 300.79h4.88v4.41h-4.88z"/><path fill="url(#be)" d="M51.41 300.79h4.88v4.41h-4.88z"/><path fill="url(#bf)" d="M58.2 300.79h4.88v4.41H58.2z"/><path fill="url(#bg)" d="M64.99 300.79h4.88v4.41h-4.88z"/><path fill="url(#bh)" d="M37.82 307.58h4.88v4.41h-4.88z"/><path fill="url(#bi)" d="M44.61 307.58h4.88v4.41h-4.88z"/><path fill="url(#bj)" d="M51.41 307.58h4.88v4.41h-4.88z"/><path fill="url(#bk)" d="M58.2 307.58h4.88v4.41H58.2z"/><path fill="url(#bl)" d="M64.99 307.58h4.88v4.41h-4.88z"/><path fill="url(#bm)" d="M37.82 314.37h4.88v4.41h-4.88z"/><path fill="url(#bn)" d="M44.61 314.37h4.88v4.41h-4.88z"/><path fill="url(#bo)" d="M51.41 314.37h4.88v4.41h-4.88z"/><path fill="url(#bp)" d="M58.2 314.37h4.88v4.41H58.2z"/><path fill="url(#bq)" d="M64.99 314.37h4.88v4.41h-4.88z"/><path fill="url(#br)" d="M37.82 321.16h4.88v4.41h-4.88z"/><path fill="url(#bs)" d="M44.61 321.16h4.88v4.41h-4.88z"/><path fill="url(#bt)" d="M51.41 321.16h4.88v4.41h-4.88z"/><path fill="url(#bu)" d="M58.2 321.16h4.88v4.41H58.2z"/><path fill="url(#bv)" d="M64.99 321.16h4.88v4.41h-4.88z"/><path fill="url(#bw)" d="M37.82 327.94h4.88v4.41h-4.88z"/><path fill="url(#bx)" d="M44.61 327.94h4.88v4.41h-4.88z"/><path fill="url(#by)" d="M51.41 327.94h4.88v4.41h-4.88z"/><path fill="url(#bz)" d="M58.2 327.94h4.88v4.41H58.2z"/><path fill="url(#bA)" d="M64.99 327.94h4.88v4.41h-4.88z"/><path fill="url(#bB)" d="M37.82 334.73h4.88v4.41h-4.88z"/><path fill="url(#bC)" d="M44.61 334.73h4.88v4.41h-4.88z"/><path fill="url(#bD)" d="M51.41 334.73h4.88v4.41h-4.88z"/><path fill="url(#bE)" d="M58.2 334.73h4.88v4.41H58.2z"/><path fill="url(#bF)" d="M64.99 334.73h4.88v4.41h-4.88z"/><path fill="url(#bG)" d="M37.82 341.52h4.88v4.41h-4.88z"/><path fill="url(#bH)" d="M44.61 341.52h4.88v4.41h-4.88z"/><path fill="url(#bI)" d="M51.41 341.52h4.88v4.41h-4.88z"/><path fill="url(#bJ)" d="M58.2 341.52h4.88v4.41H58.2z"/><path fill="url(#bK)" d="M64.99 341.52h4.88v4.41h-4.88z"/><path fill="url(#bL)" d="M37.82 348.31h4.88v4.41h-4.88z"/><path fill="url(#bM)" d="M44.61 348.31h4.88v4.41h-4.88z"/><path fill="url(#bN)" d="M51.41 348.31h4.88v4.41h-4.88z"/><path fill="url(#bO)" d="M58.2 348.31h4.88v4.41H58.2z"/><path fill="url(#bP)" d="M64.99 348.31h4.88v4.41h-4.88z"/><path fill="url(#bQ)" d="M37.82 355.09h4.88v4.41h-4.88z"/><path fill="url(#bR)" d="M44.61 355.09h4.88v4.41h-4.88z"/><path fill="url(#bS)" d="M51.41 355.09h4.88v4.41h-4.88z"/><path fill="url(#bT)" d="M58.2 355.09h4.88v4.41H58.2z"/><path fill="url(#bU)" d="M64.99 355.09h4.88v4.41h-4.88z"/><path fill="url(#bV)" d="M37.82 361.88h4.88v4.41h-4.88z"/><path fill="url(#bW)" d="M44.61 361.88h4.88v4.41h-4.88z"/><path fill="url(#bX)" d="M51.41 361.88h4.88v4.41h-4.88z"/><path fill="url(#bY)" d="M58.2 361.88h4.88v4.41H58.2z"/><path fill="url(#bZ)" d="M64.99 361.88h4.88v4.41h-4.88z"/><path fill="url(#ca)" d="M37.82 368.67h4.88v4.41h-4.88z"/><path fill="url(#cb)" d="M44.61 368.67h4.88v4.41h-4.88z"/><path fill="url(#cc)" d="M51.41 368.67h4.88v4.41h-4.88z"/><path fill="url(#cd)" d="M58.2 368.67h4.88v4.41H58.2z"/><path fill="url(#ce)" d="M64.99 368.67h4.88v4.41h-4.88z"/><path fill="url(#cf)" d="M37.82 375.46h4.88v4.41h-4.88z"/><path fill="url(#cg)" d="M44.61 375.46h4.88v4.41h-4.88z"/><path fill="url(#ch)" d="M51.41 375.46h4.88v4.41h-4.88z"/><path fill="url(#ci)" d="M58.2 375.46h4.88v4.41H58.2z"/><path fill="url(#cj)" d="M64.99 375.46h4.88v4.41h-4.88z"/><path fill="url(#ck)" d="M419.26 175.45h.8l-.3-31.95h-.2l-.3 31.95z"/><path fill="url(#cl)" d="M421.43 210.94h-3.54l1.13-36.37h1.28l1.13 36.37z"/><path d="M422 200.45h-4.7c-.48 0-.87.55-.87 1.23s.39 1.24.87 1.24h4.7c.48 0 .87-.56.87-1.24s-.38-1.23-.87-1.23z" fill="url(#cm)"/><path d="M421.49 184.78h-3.66c-.41 0-.74.48-.74 1.06s.33 1 .74 1h3.66c.41 0 .74-.47.74-1s-.33-1.06-.74-1.06z" fill="url(#cn)"/><path d="M421.2 180.88h-3.08c-.28 0-.51.33-.51.73s.23.73.51.73h3.08c.28 0 .51-.33.51-.73s-.23-.73-.51-.73z" fill="url(#co)"/><path d="M421.2 178.23h-3.08c-.28 0-.51.33-.51.73s.23.73.51.73h3.08c.28 0 .51-.33.51-.73s-.23-.73-.51-.73z" fill="url(#cp)"/><path fill="url(#cq)" d="M406.73 213.94h25.86v2.98h-25.86z"/><path d="M432.59 216.92h-25.86s3.67.93 4.1 4.58l-3.8 162h24.77L428 221.9a5.65 5.65 0 014.59-4.98z" fill="url(#cr)"/><path fill="url(#cs)" d="M409.45 210.74h20.42v3.48h-20.42z"/><path d="M428.37 220.3h-17.82a6.7 6.7 0 01.22.83h17.34a5 5 0 01.26-.83z" fill="url(#ct)"/><path fill="url(#cu)" d="M410.65 229.24h17.53l-.02-.83h-17.49l-.02.83z"/><path fill="url(#cv)" d="M410.46 237.35h17.91l-.02-.83h-17.87l-.02.83z"/><path fill="url(#cw)" d="M410.27 245.46h18.29l-.02-.84h-18.25l-.02.84z"/><path fill="url(#cx)" d="M410.08 253.56h18.67l-.02-.83H410.1l-.02.83z"/><path fill="url(#cy)" d="M409.89 261.67h19.05l-.02-.83h-19.01l-.02.83z"/><path fill="url(#cz)" d="M409.7 269.78h19.43l-.02-.84h-19.39l-.02.84z"/><path fill="url(#cA)" d="M409.51 277.88h19.81l-.02-.83h-19.77l-.02.83z"/><path fill="url(#cB)" d="M409.32 285.99h20.19l-.02-.83h-20.16l-.01.83z"/><path fill="url(#cC)" d="M409.13 294.1h20.57l-.02-.83h-20.54l-.01.83z"/><path fill="url(#cD)" d="M408.94 302.2h20.95l-.02-.83h-20.92l-.01.83z"/><path fill="url(#cE)" d="M408.74 310.31h21.34l-.02-.83h-21.3l-.02.83z"/><path fill="url(#cF)" d="M408.55 318.42h21.72l-.02-.83h-21.68l-.02.83z"/><path fill="url(#cG)" d="M408.36 326.53h22.1l-.02-.84h-22.06l-.02.84z"/><path fill="url(#cH)" d="M408.17 334.63h22.48l-.02-.83h-22.44l-.02.83z"/><path fill="url(#cI)" d="M407.98 342.74h22.87l-.03-.83H408l-.02.83z"/><path fill="url(#cJ)" d="M407.79 350.85h23.25l-.02-.83h-23.21l-.02.83z"/><path fill="url(#cK)" d="M407.6 358.95h23.63l-.02-.83h-23.59l-.02.83z"/><path fill="url(#cL)" d="M407.41 367.06h24.01l-.02-.83h-23.97l-.02.83z"/><path fill="url(#cM)" d="M407.22 375.17h24.39l-.02-.83h-24.35l-.02.83z"/><path fill="url(#cN)" d="M166.3 275.74h68.06v107.75H166.3z"/><path fill="url(#cO)" d="M166.3 339.31h68.06v33.44H166.3z"/><path fill="url(#cP)" d="M166.3 292.83h68.06v44.28H166.3z"/><path fill="url(#cQ)" d="M166.3 275.74h68.06v16.07H166.3z"/><path fill="url(#cR)" d="M173.04 279.92h.78v100.04h-.78z"/><path fill="url(#cS)" d="M182.06 279.92h.78v100.04h-.78z"/><path fill="url(#cT)" d="M191.08 279.92h.78v100.04h-.78z"/><path fill="url(#cU)" d="M200.1 279.92h.78v100.04h-.78z"/><path fill="url(#cV)" d="M209.12 279.92h.78v100.04h-.78z"/><path fill="url(#cW)" d="M218.14 279.92h.78v100.04h-.78z"/><path fill="url(#cX)" d="M227.15 279.92h.78v100.04h-.78z"/><path fill="url(#cY)" d="M166.3 275.74h68.06v5.98H166.3z"/><path fill="url(#cZ)" d="M166.3 287.79h68.06v12.04H166.3z"/><path fill="url(#da)" d="M166.3 331.25h68.06v12.04H166.3z"/><path fill="url(#db)" d="M166.3 314.68h68.06v1.22H166.3z"/><path fill="url(#dc)" d="M166.3 358.16h68.06v1.22H166.3z"/><path fill="url(#dd)" d="M166.3 371.46h68.06v12.04H166.3z"/><path d="M234.33 272.42h.38a.83.83 0 01.83.83v110.24h-2V273.25a.83.83 0 01.79-.83z" fill="url(#de)"/><path d="M166 272.42h.38a.83.83 0 01.83.83v110.24h-2V273.25a.83.83 0 01.79-.83z" fill="url(#df)"/><path fill="url(#dg)" d="M286.48 214.04h33.99v169.45h-33.99z"/><path fill="url(#dh)" d="M288.49 221.13h4.47v6.52h-4.47z"/><path fill="url(#di)" d="M294.71 221.13h4.47v6.52h-4.47z"/><path fill="url(#dj)" d="M300.94 221.13h4.47v6.52h-4.47z"/><path fill="url(#dk)" d="M307.16 221.13h4.47v6.52h-4.47z"/><path fill="url(#dl)" d="M313.38 221.13h4.47v6.52h-4.47z"/><path fill="url(#dm)" d="M288.49 231.16h4.47v6.52h-4.47z"/><path fill="url(#dn)" d="M294.71 231.16h4.47v6.52h-4.47z"/><path fill="url(#do)" d="M300.94 231.16h4.47v6.52h-4.47z"/><path fill="url(#dp)" d="M307.16 231.16h4.47v6.52h-4.47z"/><path fill="url(#dq)" d="M313.38 231.16h4.47v6.52h-4.47z"/><path fill="url(#dr)" d="M288.49 241.2h4.47v6.52h-4.47z"/><path fill="url(#ds)" d="M294.71 241.2h4.47v6.52h-4.47z"/><path fill="url(#dt)" d="M300.94 241.2h4.47v6.52h-4.47z"/><path fill="url(#du)" d="M307.16 241.2h4.47v6.52h-4.47z"/><path fill="url(#dv)" d="M313.38 241.2h4.47v6.52h-4.47z"/><path fill="url(#dw)" d="M288.49 251.23h4.47v6.52h-4.47z"/><path fill="url(#dx)" d="M294.71 251.23h4.47v6.52h-4.47z"/><path fill="url(#dy)" d="M300.94 251.23h4.47v6.52h-4.47z"/><path fill="url(#dz)" d="M307.16 251.23h4.47v6.52h-4.47z"/><path fill="url(#dA)" d="M313.38 251.23h4.47v6.52h-4.47z"/><path fill="url(#dB)" d="M288.49 261.26h4.47v6.52h-4.47z"/><path fill="url(#dC)" d="M294.71 261.26h4.47v6.52h-4.47z"/><path fill="url(#dD)" d="M300.94 261.26h4.47v6.52h-4.47z"/><path fill="url(#dE)" d="M307.16 261.26h4.47v6.52h-4.47z"/><path fill="url(#dF)" d="M313.38 261.26h4.47v6.52h-4.47z"/><path fill="url(#dG)" d="M288.49 271.29h4.47v6.52h-4.47z"/><path fill="url(#dH)" d="M294.71 271.29h4.47v6.52h-4.47z"/><path fill="url(#dI)" d="M300.94 271.29h4.47v6.52h-4.47z"/><path fill="url(#dJ)" d="M307.16 271.29h4.47v6.52h-4.47z"/><path fill="url(#dK)" d="M313.38 271.29h4.47v6.52h-4.47z"/><path fill="url(#dL)" d="M288.49 281.32h4.47v6.52h-4.47z"/><path fill="url(#dM)" d="M294.71 281.32h4.47v6.52h-4.47z"/><path fill="url(#dN)" d="M300.94 281.32h4.47v6.52h-4.47z"/><path fill="url(#dO)" d="M307.16 281.32h4.47v6.52h-4.47z"/><path fill="url(#dP)" d="M313.38 281.32h4.47v6.52h-4.47z"/><path fill="url(#dQ)" d="M288.49 291.36h4.47v6.52h-4.47z"/><path fill="url(#dR)" d="M294.71 291.36h4.47v6.52h-4.47z"/><path fill="url(#dS)" d="M300.94 291.36h4.47v6.52h-4.47z"/><path fill="url(#dT)" d="M307.16 291.36h4.47v6.52h-4.47z"/><path fill="url(#dU)" d="M313.38 291.36h4.47v6.52h-4.47z"/><path fill="url(#dV)" d="M288.49 301.39h4.47v6.52h-4.47z"/><path fill="url(#dW)" d="M294.71 301.39h4.47v6.52h-4.47z"/><path fill="url(#dX)" d="M300.94 301.39h4.47v6.52h-4.47z"/><path fill="url(#dY)" d="M307.16 301.39h4.47v6.52h-4.47z"/><path fill="url(#dZ)" d="M313.38 301.39h4.47v6.52h-4.47z"/><path fill="url(#ea)" d="M288.49 311.42h4.47v6.52h-4.47z"/><path fill="url(#eb)" d="M294.71 311.42h4.47v6.52h-4.47z"/><path fill="url(#ec)" d="M300.94 311.42h4.47v6.52h-4.47z"/><path fill="url(#ed)" d="M307.16 311.42h4.47v6.52h-4.47z"/><path fill="url(#ee)" d="M313.38 311.42h4.47v6.52h-4.47z"/><path fill="url(#ef)" d="M288.49 321.45h4.47v6.52h-4.47z"/><path fill="url(#eg)" d="M294.71 321.45h4.47v6.52h-4.47z"/><path fill="url(#eh)" d="M300.94 321.45h4.47v6.52h-4.47z"/><path fill="url(#ei)" d="M307.16 321.45h4.47v6.52h-4.47z"/><path fill="url(#ej)" d="M313.38 321.45h4.47v6.52h-4.47z"/><path fill="url(#ek)" d="M288.49 331.49h4.47v6.52h-4.47z"/><path fill="url(#el)" d="M294.71 331.49h4.47v6.52h-4.47z"/><path fill="url(#em)" d="M300.94 331.49h4.47v6.52h-4.47z"/><path fill="url(#en)" d="M307.16 331.49h4.47v6.52h-4.47z"/><path fill="url(#eo)" d="M313.38 331.49h4.47v6.52h-4.47z"/><path fill="url(#ep)" d="M288.49 341.52h4.47v6.52h-4.47z"/><path fill="url(#eq)" d="M294.71 341.52h4.47v6.52h-4.47z"/><path fill="url(#er)" d="M300.94 341.52h4.47v6.52h-4.47z"/><path fill="url(#es)" d="M307.16 341.52h4.47v6.52h-4.47z"/><path fill="url(#et)" d="M313.38 341.52h4.47v6.52h-4.47z"/><path fill="url(#eu)" d="M288.49 351.55h4.47v6.52h-4.47z"/><path fill="url(#ev)" d="M294.71 351.55h4.47v6.52h-4.47z"/><path fill="url(#ew)" d="M300.94 351.55h4.47v6.52h-4.47z"/><path fill="url(#ex)" d="M307.16 351.55h4.47v6.52h-4.47z"/><path fill="url(#ey)" d="M313.38 351.55h4.47v6.52h-4.47z"/><path fill="url(#ez)" d="M288.49 361.58h4.47v6.52h-4.47z"/><path fill="url(#eA)" d="M294.71 361.58h4.47v6.52h-4.47z"/><path fill="url(#eB)" d="M300.94 361.58h4.47v6.52h-4.47z"/><path fill="url(#eC)" d="M307.16 361.58h4.47v6.52h-4.47z"/><path fill="url(#eD)" d="M313.38 361.58h4.47v6.52h-4.47z"/><path fill="url(#eE)" d="M288.49 371.61h4.47v6.52h-4.47z"/><path fill="url(#eF)" d="M294.71 371.61h4.47v6.52h-4.47z"/><path fill="url(#eG)" d="M300.94 371.61h4.47v6.52h-4.47z"/><path fill="url(#eH)" d="M307.16 371.61h4.47v6.52h-4.47z"/><path fill="url(#eI)" d="M313.38 371.61h4.47v6.52h-4.47z"/><path fill="url(#eJ)" d="M335.54 112.39h-.83L335 93h.25l.29 19.39z"/><path fill="url(#eK)" d="M334.34 111.93h1.57v19.4h-1.57z"/><path d="M334.77 130.81h.72a1.56 1.56 0 011.56 1.56v4h-3.84v-4a1.56 1.56 0 011.56-1.56z" fill="url(#eL)"/><path fill="url(#eM)" d="M320.6 142.37h29.07v41.7H320.6z"/><path fill="url(#eN)" d="M320.6 228.59h29.07v154.9H320.6z"/><rect x="317.68" y="155.05" width="34.48" height="4.58" rx="1.73" fill="url(#eO)"/><rect x="317.68" y="168.25" width="34.48" height="4.58" rx="1.73" fill="url(#eP)"/><path d="M316.64 145.14h37c.59 0 .84-1.06.36-1.56-2.73-2.84-9.49-8.58-19.37-8.58a24.14 24.14 0 00-18.42 8.62c-.4.52-.14 1.52.43 1.52z" fill="url(#eQ)"/><path d="M322.25 231.33h26.82c7.55 0 13.95-7 16.15-16.61H306.1c2.2 9.64 8.6 16.61 16.15 16.61z" fill="url(#eR)"/><path d="M349.07 183.37h-26.82c-7.55 0-13.95 7-16.15 16.61h59.12c-2.22-9.64-8.6-16.61-16.15-16.61z" fill="url(#eS)"/><path d="M363.44 200h-55.55a35.21 35.21 0 000 14.74h55.55a35.66 35.66 0 000-14.74z" fill="url(#eT)"/><path d="M391 314.27h-25.91c-3.89 0-7 4.45-7 9.94H398c0-5.49-3.15-9.94-7-9.94z" fill="url(#eU)"/><path fill="url(#eV)" d="M348.73 363.47h58.88v20.03h-58.88z"/><path d="M342.31 360.32c0 3 1.7 5.37 3.8 5.37h64c2.1 0 3.8-2.4 3.8-5.37v-17.69h-71.6z" fill="url(#eW)"/><path d="M413.94 328.84c0-3-1.7-5.37-3.8-5.37h-64c-2.1 0-3.8 2.41-3.8 5.37v1.83h71.63z" fill="url(#eX)"/><path fill="url(#eY)" d="M343.79 330.67h68.67v11.96h-68.67z"/><path fill="url(#eZ)" d="M243.34 290.09h34.09v54.37h-34.09z"/><path fill="url(#fa)" d="M234.2 299.94h52.38v83.55H234.2z"/><rect x="231.45" y="297.78" width="57.87" height="4.19" rx="1.58" fill="url(#fb)"/><rect x="233.08" y="312.95" width="54.61" height="4.19" rx="1.58" fill="url(#fc)"/><rect x="233.08" y="325.69" width="54.61" height="4.19" rx="1.58" fill="url(#fd)"/><rect x="233.08" y="338.44" width="54.61" height="4.19" rx="1.58" fill="url(#fe)"/><rect x="233.08" y="351.19" width="54.61" height="4.19" rx="1.58" fill="url(#ff)"/><rect x="233.08" y="363.94" width="54.61" height="4.19" rx="1.58" fill="url(#fg)"/><path fill="url(#fh)" d="M234.2 378.31h52.38v5.18H234.2z"/><path fill="url(#fi)" d="M79.58 112.29l32.83 25.19v98.97H79.58V112.29z"/><path fill="url(#fj)" d="M83.28 231.26V123.43l25.03 17.67v90.16H83.28z"/><path fill="url(#fk)" d="M121.45 172.56L70.53 230v153.49h50.92V172.56z"/><path fill="url(#fl)" d="M115.7 189.83l-38.81 45.79v38.07l38.81 8.33v-92.19z"/><path fill="url(#fm)" d="M76.89 280.49v39.02l38.81 8.33v-39.02l-38.81-8.33z"/><path fill="url(#fn)" d="M76.89 375.45h38.81v-40.8l-38.81-8.33v49.13z"/><path fill="url(#fo)" d="M131.71 109.31h9.82v6.97h-9.82z"/><path fill="url(#fp)" d="M150.7 82.9h-.94l.34-32.5h.25l.35 32.5z"/><path fill="url(#fq)" d="M148.8 81.96h2.86v17.89h-2.86z"/><path fill="url(#fr)" d="M147.44 99.09h5.59v16.95h-5.59z"/><path fill="url(#fs)" d="M126.68 116.47h34.35v114.74h-34.35z"/><rect x="124.33" y="115.34" width="38.84" height="2.91" rx="1.1" fill="url(#ft)"/><rect x="124.41" y="126.26" width="38.54" height="7.98" rx="3.01" fill="url(#fu)"/><rect x="124.41" y="143.14" width="38.54" height="7.98" rx="3.01" fill="url(#fv)"/><rect x="124.41" y="160.02" width="38.54" height="7.98" rx="3.01" fill="url(#fw)"/><rect x="124.41" y="176.89" width="38.54" height="7.98" rx="3.01" fill="url(#fx)"/><rect x="124.41" y="193.77" width="38.54" height="7.98" rx="3.01" fill="url(#fy)"/><rect x="124.41" y="210.65" width="38.54" height="7.98" rx="3.01" fill="url(#fz)"/><path fill="url(#fA)" d="M121.03 230.82h45.71V383.5h-45.71z"/><rect x="117.91" y="229.32" width="51.69" height="3.87" rx="1.46" fill="url(#fB)"/><path d="M165.55 243.85h-43.77c-2.08 0-3.76 2.38-3.76 5.31s1.68 5.31 3.76 5.31h43.77c2.07 0 3.75-2.38 3.75-5.31s-1.68-5.31-3.75-5.31z" fill="url(#fC)"/><path d="M165.55 266.3h-43.77c-2.08 0-3.76 2.38-3.76 5.31 0 2.94 1.68 5.32 3.76 5.32h43.77c2.07 0 3.75-2.38 3.75-5.32 0-2.93-1.68-5.31-3.75-5.31z" fill="url(#fD)"/><path d="M165.55 288.76h-43.77c-2.08 0-3.76 2.38-3.76 5.31s1.68 5.31 3.76 5.31h43.77c2.07 0 3.75-2.38 3.75-5.31s-1.68-5.31-3.75-5.31z" fill="url(#fE)"/><path d="M165.55 311.22h-43.77c-2.08 0-3.76 2.37-3.76 5.31 0 2.93 1.68 5.31 3.76 5.31h43.77c2.07 0 3.75-2.38 3.75-5.31 0-2.94-1.68-5.31-3.75-5.31z" fill="url(#fF)"/><path d="M165.55 333.67h-43.77c-2.08 0-3.76 2.38-3.76 5.31s1.68 5.32 3.76 5.32h43.77c2.07 0 3.75-2.38 3.75-5.32s-1.68-5.31-3.75-5.31z" fill="url(#fG)"/><path d="M165.55 356.13h-43.77c-2.08 0-3.76 2.38-3.76 5.31 0 2.93 1.68 5.31 3.76 5.31h43.77c2.07 0 3.75-2.38 3.75-5.31 0-2.93-1.68-5.31-3.75-5.31z" fill="url(#fH)"/><path d="M467.33 386.76H14.81a4.62 4.62 0 01-4.62-4.62 4.62 4.62 0 014.62-4.62h452.52a4.62 4.62 0 014.62 4.62 4.62 4.62 0 01-4.62 4.62z" fill="url(#fI)"/></svg>