<svg xmlns="http://www.w3.org/2000/svg" xmlns:xlink="http://www.w3.org/1999/xlink" viewBox="0 0 500 500"><defs><linearGradient id="linear-gradient" x1="250" y1="424.61" x2="250" y2="-54.92" gradientTransform="rotate(-180 250 246.42)" gradientUnits="userSpaceOnUse"><stop offset="0" stop-color="#ffc572"/><stop offset=".19" stop-color="#ff6559"/><stop offset=".29" stop-color="#df4971"/><stop offset=".43" stop-color="#bb2a8c"/><stop offset=".55" stop-color="#a1139f"/><stop offset=".66" stop-color="#9205ab"/><stop offset=".75" stop-color="#8c00af"/><stop offset=".79" stop-color="#8500ac"/><stop offset=".85" stop-color="#7300a5"/><stop offset=".92" stop-color="#540099"/><stop offset="1" stop-color="#2a0088"/><stop offset="1" stop-color="#280087"/></linearGradient><linearGradient id="linear-gradient-2" x1="194.11" y1="453.67" x2="194.11" y2="400.66" gradientUnits="userSpaceOnUse"><stop offset="0" stop-color="#f2ffff"/><stop offset="1" stop-color="#93fffd" stop-opacity="0"/></linearGradient><linearGradient id="linear-gradient-3" x1="262.1" y1="178.58" x2="262.1" y2="443.49" gradientUnits="userSpaceOnUse"><stop offset="0" stop-color="#751178"/><stop offset=".06" stop-color="#6f1075"/><stop offset=".69" stop-color="#3d0457"/><stop offset="1" stop-color="#29004c"/></linearGradient><linearGradient id="linear-gradient-4" x1="-17.39" y1="493.79" x2="-17.39" y2="272.46" gradientUnits="userSpaceOnUse"><stop offset="0" stop-color="#931c47"/><stop offset=".3" stop-color="#6f1349"/><stop offset=".77" stop-color="#3d054b"/><stop offset="1" stop-color="#29004c"/></linearGradient><linearGradient id="linear-gradient-5" x1="19.85" y1="239.77" x2="19.85" y2="461.05" gradientUnits="userSpaceOnUse"><stop offset=".27" stop-color="#f2ffff"/><stop offset="1" stop-color="#93fffd" stop-opacity="0"/></linearGradient><linearGradient id="linear-gradient-6" x1="-17.39" y1="243.25" x2="-17.39" y2="465.88" xlink:href="#linear-gradient-2"/><linearGradient id="linear-gradient-7" x1="115.34" y1="513.24" x2="115.34" y2="187.86" gradientUnits="userSpaceOnUse"><stop offset=".19" stop-color="#e43e8d"/><stop offset=".32" stop-color="#c23381"/><stop offset=".65" stop-color="#701865"/><stop offset=".89" stop-color="#3d0753"/><stop offset="1" stop-color="#29004c"/></linearGradient><linearGradient id="linear-gradient-8" x1="155" y1="166.79" x2="155" y2="464.43" xlink:href="#linear-gradient-5"/><linearGradient id="linear-gradient-9" x1="89.73" y1="459.75" x2="89.73" y2="273.19" xlink:href="#linear-gradient-2"/><linearGradient id="linear-gradient-10" x1="240.9" y1="501.03" x2="240.9" y2="196.51" gradientUnits="userSpaceOnUse"><stop offset="0" stop-color="#e43e8d"/><stop offset=".17" stop-color="#c23381"/><stop offset=".57" stop-color="#701865"/><stop offset=".86" stop-color="#3d0753"/><stop offset="1" stop-color="#29004c"/></linearGradient><linearGradient id="linear-gradient-11" x1="240.81" y1="144.35" x2="240.81" y2="436.43" xlink:href="#linear-gradient-2"/><linearGradient id="linear-gradient-12" x1="259.87" y1="463.04" x2="259.87" y2="204.18" xlink:href="#linear-gradient-2"/><linearGradient id="linear-gradient-13" x1="441.95" y1="502.52" x2="441.95" y2="233.16" xlink:href="#linear-gradient-4"/><linearGradient id="linear-gradient-14" x1="420.71" y1="186.4" x2="420.71" y2="463.52" xlink:href="#linear-gradient-5"/><linearGradient id="linear-gradient-15" x1="458.74" y1="460.38" x2="458.74" y2="260" xlink:href="#linear-gradient-2"/><linearGradient id="linear-gradient-16" x1="351.92" y1="481.7" x2="351.92" y2="247.74" xlink:href="#linear-gradient-4"/><linearGradient id="linear-gradient-17" x1="315.34" y1="217.63" x2="315.34" y2="462.08" xlink:href="#linear-gradient-5"/><linearGradient id="linear-gradient-18" x1="303.81" y1="334.92" x2="409.7" y2="334.92" xlink:href="#linear-gradient-2"/><linearGradient id="linear-gradient-19" x1="373.25" y1="459.56" x2="373.25" y2="277.13" xlink:href="#linear-gradient-2"/><linearGradient id="linear-gradient-20" x1="324.75" y1="325.33" x2="324.75" y2="251.04" xlink:href="#linear-gradient-2"/><linearGradient id="linear-gradient-21" x1="154.07" y1="511.82" x2="154.07" y2="259.57" gradientTransform="rotate(-180 154.075 359.99)" xlink:href="#linear-gradient-4"/><linearGradient id="linear-gradient-22" x1="3695.32" y1="267.53" x2="3695.32" y2="459.77" gradientTransform="matrix(1 0 0 -1 -3513.85 719.98)" xlink:href="#linear-gradient-5"/><linearGradient id="linear-gradient-23" x1="3684.89" y1="359.77" x2="3768.16" y2="359.77" gradientTransform="matrix(-1 0 0 1 3876.79 0)" xlink:href="#linear-gradient-2"/><linearGradient id="linear-gradient-24" x1="3739.49" y1="457.79" x2="3739.49" y2="314.32" gradientTransform="matrix(1 0 0 -1 -3602.19 760.93)" xlink:href="#linear-gradient-2"/><linearGradient id="linear-gradient-25" x1="47.18" y1="311.81" x2="47.18" y2="284.64" xlink:href="#linear-gradient-2"/><linearGradient id="linear-gradient-26" x1="47.18" y1="157.96" x2="47.18" y2="437.6" gradientTransform="rotate(-180 47.18 377.265)" gradientUnits="userSpaceOnUse"><stop offset="0" stop-color="#ff543e"/><stop offset="1" stop-color="#82009f"/></linearGradient><linearGradient id="linear-gradient-27" x1="3511.16" y1="302.31" x2="3511.16" y2="458.15" gradientTransform="matrix(1 0 0 -1 -3419.29 754.53)" xlink:href="#linear-gradient-5"/><linearGradient id="linear-gradient-28" x1="3583.81" y1="456.55" x2="3583.81" y2="340.24" gradientTransform="matrix(1 0 0 -1 -3564.59 787.73)" xlink:href="#linear-gradient-2"/><linearGradient id="linear-gradient-29" x1="470.08" y1="99.87" x2="470.08" y2="496.23" xlink:href="#linear-gradient-26"/><linearGradient id="linear-gradient-30" x1="447.84" y1="286.06" x2="447.84" y2="455.14" xlink:href="#linear-gradient-2"/><linearGradient id="linear-gradient-31" x1="473.16" y1="295.52" x2="473.16" y2="443.73" xlink:href="#linear-gradient-2"/><linearGradient id="linear-gradient-32" x1="484.34" y1="457.24" x2="484.34" y2="325.88" xlink:href="#linear-gradient-2"/><linearGradient id="linear-gradient-33" x1="319.34" y1="481.56" x2="319.34" y2="351.57" xlink:href="#linear-gradient-4"/><linearGradient id="linear-gradient-34" x1="290.35" y1="318.83" x2="290.35" y2="457.39" xlink:href="#linear-gradient-5"/><linearGradient id="linear-gradient-35" x1="-1104.18" y1="384.59" x2="-1019.47" y2="384.59" gradientTransform="matrix(-1 0 0 1 -746.36 0)" xlink:href="#linear-gradient-2"/><linearGradient id="linear-gradient-36" x1="3746.31" y1="472.38" x2="3746.31" y2="381.74" gradientTransform="matrix(1 0 0 -1 -3569.59 810.76)" xlink:href="#linear-gradient-4"/><linearGradient id="linear-gradient-37" x1="3729.49" y1="358.91" x2="3729.49" y2="455.53" gradientTransform="matrix(1 0 0 -1 -3535.95 810.76)" xlink:href="#linear-gradient-5"/><linearGradient id="linear-gradient-38" x1="-4515" y1="404.77" x2="-4465.84" y2="404.77" gradientTransform="translate(4669.38)" xlink:href="#linear-gradient-2"/><linearGradient id="linear-gradient-39" x1="294.51" y1="460" x2="294.51" y2="373.91" xlink:href="#linear-gradient-26"/><linearGradient id="linear-gradient-40" x1="4412.81" y1="376.44" x2="4412.81" y2="505.56" gradientTransform="matrix(-1 0 0 1 4674.46 0)" xlink:href="#linear-gradient-5"/><linearGradient id="linear-gradient-41" x1="308.5" y1="477.84" x2="308.5" y2="409.21" xlink:href="#linear-gradient-2"/><linearGradient id="linear-gradient-42" x1="319.34" y1="323.94" x2="319.34" y2="298.33" xlink:href="#linear-gradient-2"/><linearGradient id="linear-gradient-43" x1="393.47" y1="434.63" x2="393.47" y2="292.72" xlink:href="#linear-gradient-2"/><linearGradient id="linear-gradient-44" x1="527.85" y1="438.57" x2="527.85" y2="330.28" xlink:href="#linear-gradient-2"/><linearGradient id="linear-gradient-45" x1="33.67" y1="438.57" x2="33.67" y2="330.28" xlink:href="#linear-gradient-2"/><linearGradient id="linear-gradient-46" x1="-.73" y1="457.51" x2="-.73" y2="343.97" gradientUnits="userSpaceOnUse"><stop offset="0" stop-color="#2b102b"/><stop offset=".37" stop-color="#2a0a38"/><stop offset="1" stop-color="#29004c"/></linearGradient><linearGradient id="linear-gradient-47" x1="4130.53" y1="457.51" x2="4130.53" y2="343.97" gradientTransform="matrix(-1 0 0 1 4631.27 0)" xlink:href="#linear-gradient-46"/><linearGradient id="linear-gradient-48" x1="250" y1="435.73" x2="250" y2="511.52" xlink:href="#linear-gradient-46"/><radialGradient id="radial-gradient" cx="245.25" cy="284.45" r="300.3" gradientTransform="rotate(45 250.005 195.805)" gradientUnits="userSpaceOnUse"><stop offset=".46" stop-color="#fff" stop-opacity="0"/><stop offset=".54" stop-color="#fff" stop-opacity=".01"/><stop offset=".61" stop-color="#fff" stop-opacity=".06"/><stop offset=".68" stop-color="#fff" stop-opacity=".13"/><stop offset=".74" stop-color="#fff" stop-opacity=".23"/><stop offset=".8" stop-color="#fff" stop-opacity=".36"/><stop offset=".86" stop-color="#fff" stop-opacity=".51"/><stop offset=".92" stop-color="#fff" stop-opacity=".7"/><stop offset=".98" stop-color="#fff" stop-opacity=".91"/><stop offset="1" stop-color="#fff"/></radialGradient><clipPath id="clip-path"><path fill="none" d="M0 0h500v500H0z"/></clipPath><style>.cls-13{fill:#ffd8c1}.cls-16{fill:#32024f;opacity:.2;mix-blend-mode:multiply}.cls-17{fill:#e702ff}.cls-46{fill:#ffe9e1}.cls-52{fill:#f3df68}</style></defs><g style="isolation:isolate"><g clip-path="url(#clip-path)" id="BACKGROUND_1" data-name="BACKGROUND 1"><path transform="rotate(180 250 246.42)" fill="url(#linear-gradient)" d="M-143.8-16.11h787.6v525.06h-787.6z"/><path style="mix-blend-mode:overlay" fill="url(#linear-gradient-2)" d="M185.27 398.94h17.69v52.31h-17.69z"/><circle cx="250" cy="195.8" r="146.93" transform="rotate(-45 250.005 195.805)" fill="url(#radial-gradient)"/><path d="M69.7 50.34a2 2 0 10-2.63 1 2 2 0 002.63-1zm45.12-11.47a1.05 1.05 0 10-1.38.55 1.06 1.06 0 001.38-.55zM215.3 21.85a.92.92 0 10-1.21.48.93.93 0 001.21-.48zm-82.98 39.49a.91.91 0 10-1.2.48.92.92 0 001.2-.48zM281.73 7.41a.93.93 0 10-1.21.48.92.92 0 001.21-.48zm75.77 50.07a.91.91 0 10-1.2.48.93.93 0 001.2-.48zm19.95-45a1.51 1.51 0 00-.8-2 1.52 1.52 0 10.8 2zm-6.01 25.28a2 2 0 10-2.67 1.07 2 2 0 002.67-1.07zm86.12-28.95a1.38 1.38 0 10-1.82.72 1.38 1.38 0 001.82-.72zM48.93 11A2.2 2.2 0 1046 12.19 2.21 2.21 0 0048.93 11zM176 50.42a1.79 1.79 0 00-3.28-1.42 1.79 1.79 0 003.28 1.42zm99.1-18.21a1.87 1.87 0 10-2.46 1 1.87 1.87 0 002.46-1zM30.39 64.63a1.42 1.42 0 10-1.86.74 1.41 1.41 0 001.86-.74zM429.7 8a1.32 1.32 0 10-1.74.7 1.32 1.32 0 001.74-.7zM67.75 21.33a1.28 1.28 0 00-.67-1.69 1.29 1.29 0 10.67 1.69zm68.52 44.05a.41.41 0 10-.54.22.41.41 0 00.54-.22zm4.97-3.64a.41.41 0 00-.21-.54.42.42 0 00-.54.22.41.41 0 00.22.54.4.4 0 00.53-.22zM106 50.93a1 1 0 00-1.82-.78 1 1 0 001.82.78zm-14.27 18.6a.65.65 0 00-.34-.86.66.66 0 00-.87.34.67.67 0 00.35.87.65.65 0 00.86-.35zm-7.56-31.9a.9.9 0 10-1.17.47.9.9 0 001.17-.47zM70.52 8a.47.47 0 10-.61.25.47.47 0 00.61-.25zm9.15 11.14a.41.41 0 00-.76-.32.41.41 0 00.21.54.42.42 0 00.55-.22zm4.97-3.64a.4.4 0 00-.21-.53.41.41 0 00-.54.21.41.41 0 10.75.32zm-57.97-3.59a.66.66 0 00-1.22-.52.66.66 0 001.22.52zm78.49-5.47a.8.8 0 10-1.06.42.81.81 0 001.06-.42zm-2.76 16.21a.84.84 0 10-1.54-.66.84.84 0 001.54.66zM6.62 40.12a.47.47 0 00-.91.22.47.47 0 00.57.35.47.47 0 00.34-.57zm14.02 3.44a.41.41 0 00-.5-.3.41.41 0 00.19.8.42.42 0 00.31-.5zm1.79-5.9a.41.41 0 10-.3.5.41.41 0 00.3-.5zm6.64-17.5a.8.8 0 10-.59 1 .81.81 0 00.59-1zm11.85 12.55a.84.84 0 00-1-.62.84.84 0 101 .62zM10.1 22.18a.82.82 0 10-1.1.28.83.83 0 001.1-.28zm125.19-3.67a.48.48 0 00-.22-.63.47.47 0 00-.63.22.47.47 0 00.22.63.48.48 0 00.63-.22zm8.61 11.58a.42.42 0 00-.19-.56.42.42 0 00-.36.75.42.42 0 00.55-.19zm5.1-3.41a.42.42 0 00-.19-.55.41.41 0 10-.36.74.41.41 0 00.55-.19zm103.78-2.25a.66.66 0 10-.88.31.67.67 0 00.88-.31zm-87.48-7.02a.8.8 0 10-1.44-.7.81.81 0 00.37 1.08.8.8 0 001.07-.38zm1.15 17.23a.84.84 0 10-1.51-.73.84.84 0 101.51.73zm36.25 8.97a.83.83 0 10-1.1.38.82.82 0 001.1-.38zm111.04 17.23a.41.41 0 10-.8.18.43.43 0 00.5.31.4.4 0 00.3-.49zM183.27 9.68a1 1 0 00-1.19-.75 1 1 0 00-.74 1.19 1 1 0 001.93-.44zm-.57 23.45a.66.66 0 10-.49.79.66.66 0 00.49-.79zM264.45 10a.84.84 0 00-1-.63.84.84 0 00.38 1.64.84.84 0 00.62-1.01zm213.24 46a1 1 0 10-.74 1.19 1 1 0 00.74-1.19zM370.1 17.66a.41.41 0 00-.7.44.41.41 0 10.7-.44zm-.18-6.16a.41.41 0 00-.7.44.41.41 0 00.7-.44zm-97.38-4.37a.66.66 0 00-1.12.7.66.66 0 001.12-.7zm129.03 12.16a.67.67 0 00-.91-.2.66.66 0 00-.21.91.65.65 0 00.91.2.66.66 0 00.21-.91zM308.6 33.8a.41.41 0 10-.75.31.41.41 0 10.75-.31zm3.92-18.31a.81.81 0 00-1-.43.8.8 0 101 .43zm13.62 10.62a.85.85 0 00-1.1-.46.84.84 0 00.64 1.56.85.85 0 00.46-1.1zm14.58.41a.9.9 0 10-.49 1.18.91.91 0 00.49-1.18zM327 37.8a1 1 0 10-.54 1.29 1 1 0 00.54-1.29zM304 6.37a.66.66 0 10-.36.86.65.65 0 00.36-.86zm29.06 10a.83.83 0 10-1.53.63.83.83 0 101.53-.63zm.94 13.04a.58.58 0 10-.31.76.59.59 0 00.31-.76zm-8.61 17.14a.41.41 0 000 .59.4.4 0 00.58 0 .41.41 0 00-.58-.58zm-5.97 1.57a.41.41 0 00.59.58.42.42 0 000-.58.41.41 0 00-.59 0zM305.51 35a.84.84 0 000 1.19.85.85 0 001.19 0 .84.84 0 000-1.19.83.83 0 00-1.19 0zm161.63-7.24a.9.9 0 101.27 0 .9.9 0 00-1.27 0zm-58.05 11.78a.47.47 0 000 .66.48.48 0 00.67 0 .47.47 0 000-.67.46.46 0 00-.67.01zm-4.43-13.74a.41.41 0 10.59 0 .42.42 0 00-.59 0zm-5.96 1.57a.41.41 0 000 .58.41.41 0 00.58-.58.41.41 0 00-.58 0zM488.26 19a1 1 0 101.4 0 1 1 0 00-1.4 0zM380.32 30.91a.8.8 0 001.14 1.09.8.8 0 10-1.14-1.12zm4.46-16.69a.85.85 0 000 1.19.84.84 0 100-1.19zM392 46a.83.83 0 10.83.82.84.84 0 00-.83-.82zm41.63-6.81a.82.82 0 000 1.17.83.83 0 100-1.17zm11.67-5.91a.57.57 0 000 .82.58.58 0 00.82 0 .57.57 0 000-.81.56.56 0 00-.82-.01z" fill="#eefbdc"/><path d="M-132.32 284v25.08h4.56v-41.53h30.42v29.37h5.52v12.19h9.14v-82.39h29.9v-20.09h40.71v63.48H-2v-78.66H9.9v-3.06h7.42v3.06h11v34.14h31.52v52.94h8.48v-13.84h10.37v-4.88h2.42v-8.37H83v8.37h2.84v-8.37h1.87v8.37h1.61v4.88h3.62V270h46.26v-56.3h13.1v-4.07h9v-12.81h14.18l3.05 2.9v2.52H185v7.39h5.13v111.2h4v-11.64h1.49v-38h4.27v-4.29h11.72v4.29H235V131.9h12.68v-3.09h25.16v3.09h18.91v182.73h4.2v-7.1h4.75v7.1h4.06v-37.39h3.91v-3.36h10.82v3.36h33v71.27h4.13V170.13h15.78v-6.44h26.46v6.44h28.46V297h19.56v-15.11h2.52v-3.29h4V276h.78v2.61h1.49V276h.79v2.61h1.88v3.29h4.5v-26.8h13.18v-38.75h4.62v-5.7h10l2.15 2v1.59h6.36v2.07h5.19v15.39h21.74v-8.28h27.12v8.28h20.44v78.71H592v-28.69h5.57v-4.55h6v-8.64h2.17v8.64h3.85v4.55h3.4v-45.49h21.11v-6.44h4.72v-4.58l2.16-2h10v6.62h4.72v6.44h19.73v215h-826.7V284z" fill="url(#linear-gradient-3)"/><path fill="url(#linear-gradient-4)" d="M-61.98 241.14H27.2v210.11h-89.18z"/><path style="mix-blend-mode:overlay" fill="url(#linear-gradient-5)" d="M12.49 241.14H27.2v210.11H12.49z"/><path d="M27.2 245.3H-62v-.42h89.2zm0 3.9H-62v.42h89.2zm0 4.32H-62v.42h89.2zm0 4.32H-62v.42h89.2zm0 4.33H-62v.41h89.2zm0 4.32H-62v.41h89.2zm0 4.32H-62v.42h89.2zm0 4.32H-62v.42h89.2zm0 4.32H-62v.42h89.2zm0 4.33H-62v.41h89.2zm0 4.32H-62v.41h89.2zm0 4.32H-62v.41h89.2zm0 4.32H-62v.42h89.2zm0 4.32H-62v.42h89.2zm0 4.32H-62v.42h89.2zm0 4.32H-62v.42h89.2zm0 4.33H-62v.41h89.2zm0 4.32H-62v.41h89.2zm0 4.32H-62v.42h89.2zm0 4.32H-62v.42h89.2zm0 4.32H-62v.42h89.2zm0 4.33H-62v.41h89.2zm0 4.32H-62v.41h89.2zm0 4.32H-62v.42h89.2zm0 4.32H-62v.4h89.2zm0 4.32H-62v.42h89.2zm0 4.33H-62v.41h89.2zm0 4.32H-62v.43h89.2zm0 4.32H-62v.42h89.2zm0 4.32H-62v.42h89.2zm0 4.32H-62v.47h89.2zm0 4.32H-62v.42h89.2zm0 4.33H-62v.41h89.2zm0 4.32H-62v.41h89.2zm0 4.32H-62v.42h89.2zm0 4.32H-62v.42h89.2zm0 4.32H-62v.42h89.2zm0 4.33H-62v.41h89.2zm0 4.32H-62v.41h89.2zm0 4.32H-62v.42h89.2zm0 4.32H-62v.42h89.2zm0 4.32H-62v.42h89.2zm0 4.33H-62v.41h89.2zm0 4.32H-62v.41h89.2zm0 4.32H-62v.42h89.2zm0 4.32H-62v.42h89.2zm0 4.32H-62v.42h89.2zm0 4.33H-62v.41h89.2z" style="mix-blend-mode:overlay" fill="url(#linear-gradient-6)"/><path class="cls-13" d="M4.77 246.62h3.27v1H4.77zm17.46 8.76h3.49v1h-3.49zm-6.02 51.96h4.57v1h-4.57zM2.71 316H6.2v1H2.71zm21.09 12.78h1.16v1H23.8zm-24.86-51.72h8.65v1h-8.65zm19.01-8.71h1.08v1h-1.08zm2.71 12.98h1.55v1h-1.55zm3.14 0h1.54v1H23.8zM.46 246.62h2.01v1H.46zm3.99 95.05h3.49v1H4.45zm13.5-8.5h3.49v1h-3.49zm-18.34 8.5H.69v1H-.39zm24.12 47.75h1.08v1h-1.08zm-5.78 0h4.57v1h-4.57zm0 25.63h4.57v1h-4.57zM2.71 402.29H6.2v1H2.71zm18.8-51.9h4.57v1h-4.57zM15.94 372h2.01v1h-2.01z"/><path fill="url(#linear-gradient-7)" d="M73.63 168.64h83.4v282.62h-83.4z"/><path style="mix-blend-mode:overlay" fill="url(#linear-gradient-8)" d="M152.95 168.64h4.08v282.62h-4.08z"/><path class="cls-16" d="M153 181.14v-.82h-7.34v-11.69h-.82v11.69h-4.51v-11.69h-.83v11.69H131v-11.69h-.82v11.69h-4.51v-11.69h-.83v11.69h-8.46v-11.69h-.82v11.69H111v-11.69h-.83v11.69h-8.46v-11.69h-.82v11.69h-4.47v-11.69h-.83v11.69h-8.46v-11.69h-.82v11.69H81.8v-11.69H81v11.69h-7.37v.82H81v12.57h-7.37v.83H81v12.57h-7.37v.82H81v12.57h-7.37v.83H81v12.57h-7.37v.82H81v12.58h-7.37v.82H81v12.57h-7.37v.83H81v12.57h-7.37v.82H81v12.58h-7.37v.82H81v12.57h-7.37v.82H81v12.58h-7.37v.82H81v12.57h-7.37v.83H81v12.57h-7.37v.82H81v12.58h-7.37v.82H81v12.57h-7.37v.83H81v12.57h-7.37v.82H81v12.57h-7.37v.83H81v12.57h-7.37v.82H81v12.58h-7.37v.82H81v12.57h-7.37v.83H81v15.58h.83v-15.58h4.51v15.58h.82v-15.58h8.46v15.58h.83v-15.58h4.51v15.58h.82v-15.58h8.46v15.58h.76v-15.58h4.51v15.58h.82v-15.58h8.46v15.58h.83v-15.58h4.51v15.58h.87v-15.58h8.46v15.58h.83v-15.58h4.51v15.58h.82v-15.58H153v-.83h-7.34v-12.57H153v-.82h-7.34v-12.58H153v-.82h-7.34v-12.57H153v-.83h-7.34v-12.57H153v-.82h-7.34v-12.57H153v-.83h-7.34v-12.57H153v-.82h-7.34v-12.58H153v-.82h-7.34V328.5H153v-.83h-7.34V315.1H153v-.82h-7.34V301.7H153v-.82h-7.34v-12.57H153v-.82h-7.34v-12.58H153v-.82h-7.34v-12.57H153v-.83h-7.34v-12.57H153v-.82h-7.34v-12.58H153v-.82h-7.34v-12.57H153v-.83h-7.34v-12.57H153v-.82h-7.34v-12.57H153v-.83h-7.34v-12.57zm-13.5 0v12.57H131v-12.57zM111 367.86v-12.57h4.51v12.57zm4.51.83v12.57H111v-12.57zM111 354.47v-12.58h4.51v12.58zm0-13.4V328.5h4.51v12.57zm0-13.4V315.1h4.51v12.57zm0-13.39V301.7h4.51v12.58zm0-13.4v-12.57h4.51v12.57zm0-13.39v-12.58h4.51v12.58zm0-13.4v-12.57h4.51v12.57zm0-13.4v-12.57h4.51v12.57zm0-13.39v-12.58h4.51v12.58zm0-13.4v-12.57h4.51v12.57zm-.83 0h-8.46v-12.57h8.46zm0 .82v12.58h-8.46v-12.58zm0 13.4v12.57h-8.46v-12.57zm0 13.4v12.57h-8.46v-12.57zm0 13.39v12.58h-8.46v-12.58zm0 13.4v12.57h-8.46v-12.57zm0 13.39v12.58h-8.46V301.7zm0 13.4v12.57h-8.46V315.1zm0 13.4v12.57h-8.46V328.5zm0 13.39v12.58h-8.46v-12.58zm0 13.4v12.57h-8.46v-12.57zm0 13.4v12.57h-8.46v-12.57zm0 13.39v12.57h-8.46v-12.57zm.83 0h4.51v12.57H111zm5.33 0h8.46v12.57h-8.46zm0-.82v-12.57h8.46v12.57zm0-13.4v-12.57h8.46v12.57zm0-13.39v-12.58h8.46v12.58zm0-13.4V328.5h8.46v12.57zm0-13.4V315.1h8.46v12.57zm0-13.39V301.7h8.46v12.58zm0-13.4v-12.57h8.46v12.57zm0-13.39v-12.58h8.46v12.58zm0-13.4v-12.57h8.46v12.57zm0-13.4v-12.57h8.46v12.57zm0-13.39v-12.58h8.46v12.58zm0-13.4v-12.57h8.46v12.57zm0-13.4v-12.57h8.46v12.57zm-.82 0H111v-12.57h4.51zm-5.34 0h-8.46v-12.57h8.46zm-9.28 0h-4.47v-12.57h4.51zm0 .83v12.57h-4.47v-12.57zm0 13.39v12.58h-4.47v-12.58zm0 13.4v12.57h-4.47v-12.57zm0 13.4v12.57h-4.47v-12.57zm0 13.39v12.58h-4.47v-12.58zm0 13.4v12.57h-4.47v-12.57zm0 13.39v12.58h-4.47V301.7zm0 13.4v12.57h-4.47V315.1zm0 13.4v12.57h-4.47V328.5zm0 13.39v12.58h-4.47v-12.58zm0 13.4v12.57h-4.47v-12.57zm0 13.4v12.57h-4.47v-12.57zm0 13.39v12.57h-4.47v-12.57zm0 13.4v12.57h-4.47v-12.57zm.82 0h8.46v12.57h-8.46zm9.29 0h4.51v12.57H111zm5.33 0h8.46v12.57h-8.46zm9.29 0h4.51v12.57h-4.51zm0-.83v-12.57h4.51v12.57zm0-13.39v-12.57h4.51v12.57zm0-13.4v-12.57h4.51v12.57zm0-13.39v-12.58h4.51v12.58zm0-13.4V328.5h4.51v12.57zm0-13.4V315.1h4.51v12.57zm0-13.39V301.7h4.51v12.58zm0-13.4v-12.57h4.51v12.57zm0-13.39v-12.58h4.51v12.58zm0-13.4v-12.57h4.51v12.57zm0-13.4v-12.57h4.51v12.57zm0-13.39v-12.58h4.51v12.58zm0-13.4v-12.57h4.51v12.57zm0-13.4v-12.57h4.51v12.57zm0-13.39v-12.57h4.51v12.57zm-.83 0h-8.46v-12.57h8.46zm-9.28 0H111v-12.57h4.51zm-5.34 0h-8.46v-12.57h8.46zm-9.28 0h-4.47v-12.57h4.51zm-5.34 0h-8.42v-12.57h8.46zm0 .82v12.57h-8.42v-12.57zm0 13.4v12.57h-8.42v-12.57zm0 13.39v12.58h-8.42v-12.58zm0 13.4v12.57h-8.42v-12.57zm0 13.4v12.57h-8.42v-12.57zm0 13.39v12.58h-8.42v-12.58zm0 13.4v12.57h-8.42v-12.57zm0 13.39v12.58h-8.42V301.7zm0 13.4v12.57h-8.42V315.1zm0 13.4v12.57h-8.42V328.5zm0 13.39v12.58h-8.42v-12.58zm0 13.4v12.57h-8.42v-12.57zm0 13.4v12.57h-8.42v-12.57zm0 13.39v12.57h-8.42v-12.57zm0 13.4v12.57h-8.42v-12.57zm0 13.39v12.58h-8.42v-12.58zm.83 0h4.51v12.58h-4.47zm5.33 0h8.46v12.58h-8.46zm9.29 0h4.51v12.58H111zm5.33 0h8.46v12.58h-8.46zm9.29 0h4.51v12.58h-4.51zm5.33 0h8.46v12.58H131zm0-.82v-12.57h8.46v12.57zm0-13.4v-12.57h8.46v12.57zm0-13.39v-12.57h8.46v12.57zm0-13.4v-12.57h8.46v12.57zm0-13.39v-12.58h8.46v12.58zm0-13.4V328.5h8.46v12.57zm0-13.4V315.1h8.46v12.57zm0-13.39V301.7h8.46v12.58zm0-13.4v-12.57h8.46v12.57zm0-13.39v-12.58h8.46v12.58zm0-13.4v-12.57h8.46v12.57zm0-13.4v-12.57h8.46v12.57zm0-13.39v-12.58h8.46v12.58zm0-13.4v-12.57h8.46v12.57zm0-13.4v-12.57h8.46v12.57zm0-13.39v-12.57h8.46v12.57zm-.82-26v12.57h-4.51v-12.54zm-5.34 0v12.57h-8.46v-12.54zm-9.28 0v12.57H111v-12.54zm-5.34 0v12.57h-8.46v-12.54zm-9.28 0v12.57h-4.47v-12.54zm-5.34 0v12.57h-8.42v-12.54zm-13.79 0h4.51v12.57H81.8zm0 13.4h4.51v12.57H81.8zm0 13.39h4.51v12.6H81.8zm0 13.4h4.51v12.6H81.8zm0 13.39h4.51v12.61H81.8zm0 13.4h4.51v12.57H81.8zm0 13.4h4.51v12.57H81.8zm0 13.39h4.51v12.58H81.8zm0 13.4h4.51v12.57H81.8zm0 13.39h4.51v12.58H81.8zm0 13.4h4.51v12.57H81.8zm0 13.4h4.51v12.57H81.8zm0 13.39h4.51v12.58H81.8zm0 13.4h4.51v12.57H81.8zm0 13.4h4.51v12.57H81.8zm0 13.39h4.51v12.57H81.8zm0 13.4h4.51v12.57H81.8zm0 13.39h4.51v12.58H81.8zm0 26v-12.57h4.51v12.57zm5.33 0v-12.57h8.46v12.57zm9.29 0v-12.57h4.51v12.57zm5.33 0v-12.57h8.46v12.57zm9.29 0v-12.57h4.51v12.57zm5.33 0v-12.57h8.46v12.57zm9.29 0v-12.57h4.51v12.57zm5.33 0v-12.57h8.46v12.57zm13.8 0h-4.51v-12.57h4.51zm0-13.39h-4.51v-12.58h4.51zm0-13.4h-4.51v-12.57h4.51zm0-13.4h-4.51v-12.57h4.51zm0-13.39h-4.51v-12.57h4.51zm0-13.4h-4.51v-12.57h4.51zm0-13.39h-4.51v-12.58h4.51zm0-13.4h-4.51V328.5h4.51zm0-13.4h-4.51V315.1h4.51zm0-13.39h-4.51V301.7h4.51zm0-13.4h-4.51v-12.57h4.51zm0-13.39h-4.51v-12.58h4.51zm0-13.4h-4.51v-12.57h4.51zm0-13.4h-4.51v-12.57h4.51zm0-13.39h-4.51v-12.58h4.51zm0-13.4h-4.51v-12.57h4.51zm0-13.4h-4.51v-12.57h4.51zm0-13.39h-4.51v-12.57h4.51zm0-13.4h-4.51v-12.57h4.51z"/><path class="cls-17" d="M104.32 182.81h3.63v1h-3.63zm-14.77 13.31h3.63v1h-3.63zm29.38-13.31h1.67v1h-1.67zm13.74 0h1.99v1h-1.99zm0 13.31h1.99v1h-1.99zm3.72-13.31h.86v1h-.86zm-32.68 40.28h4.24v1h-4.24zm16.05 0h1.58v1h-1.58zm7.46 0h.95v1h-.95zm-22.9 133.97h3.63v1h-3.63zm-14.77 13.31h3.63v1h-3.63zm29.38-13.31h1.67v1h-1.67zm13.74 0h1.99v1h-1.99zm0 13.31h1.99v1h-1.99zm3.72-13.31h.86v1h-.86zm-3.29 40.28h4.23v1h-4.23zm-43.86 26.99h4.23v1h-4.23zm-5.19-13.77h1.58v1h-1.58zm43.17-13.22h.95v1h-.95zM89.11 249.53h4.07v1h-4.07zm29.64 13.92h4.67v1h-4.67zm14.01 26.19h4.84v1h-4.84zm8.55 0h1.99v1h-1.99zm-49.35 0h1.73v1h-1.73zm-2.85 0h1.21v1h-1.21zm-5.71 27.05h1.64v1H83.4zm5.1 0h5.19v1H88.5zm17.89 0h1.73v1h-1.73zm28.18 0h1.81v1h-1.81zm13.14 0h1.64v1h-1.64zm-44.17 13.48h4.93v1h-4.93z"/><path style="mix-blend-mode:overlay" fill="url(#linear-gradient-9)" d="M73.63 267.15h32.2v184.1h-32.2z"/><path fill="url(#linear-gradient-10)" d="M202.96 139.32h75.89v311.94h-75.89z"/><path d="M271.49 146.23h-26.72v-1.88h26.72zm0 3.63h-26.72v1.88h26.72zm0 5.51h-26.72v1.88h26.72zm0 5.51h-26.72v1.87h26.72zm0 5.51h-26.72v1.87h26.72zm0 5.5h-26.72v1.88h26.72zm0 5.51h-26.72v1.88h26.72zm0 5.51h-26.72v1.88h26.72zm0 5.51h-26.72v1.88h26.72zm0 5.51h-26.72v1.87h26.72zm0 5.51h-26.72v1.87h26.72zm0 5.5h-26.72v1.88h26.72zm0 5.51h-26.72v1.88h26.72zm0 5.51h-26.72v1.88h26.72zm0 5.51h-26.72v1.88h26.72zm0 5.51h-26.72v1.87h26.72zm0 5.51h-26.72v1.87h26.72zm0 5.5h-26.72v1.88h26.72zm0 5.51h-26.72v1.88h26.72zm0 5.51h-26.72v1.88h26.72zm0 5.51h-26.72v1.88h26.72zm0 5.51h-26.72v1.87h26.72zm0 5.51h-26.72v1.87h26.72zm0 5.5h-26.72v1.88h26.72zm0 5.51h-26.72v1.88h26.72zm0 5.51h-26.72v1.88h26.72zm0 5.51h-26.72v1.88h26.72zm0 5.51h-26.72V295h26.72zm0 5.51h-26.72v1.87h26.72zm0 5.51h-26.72v1.9h26.72zm0 5.5h-26.72v1.88h26.72zm0 5.51h-26.72V317h26.72zm0 5.51h-26.72v1.88h26.72zm0 5.51h-26.72V328h26.72zm0 5.51h-26.72v1.87h26.72zm0 5.51h-26.72V339h26.72zm0 5.5h-26.72v1.88h26.72zm0 5.51h-26.72V350h26.72zm0 5.51h-26.72v1.88h26.72zm0 5.51h-26.72v1.88h26.72zm0 5.51h-26.72v1.87h26.72zm0 5.51h-26.72v1.87h26.72zm0 5.5h-26.72v1.88h26.72zm0 5.51h-26.72v1.88h26.72zm0 5.51h-26.72v1.88h26.72zm0 5.51h-26.72v1.88h26.72zm0 5.51h-26.72v1.87h26.72zm0 5.51h-26.72v1.87h26.72zm0 5.5h-26.72v1.88h26.72zm0 5.51h-26.72v1.88h26.72zm0 5.51h-26.72v1.88h26.72zm0 5.51h-26.72v1.88h26.72zm0 5.51h-26.72v1.87h26.72zm0 5.51h-26.72v1.87h26.72zm0 5.5h-26.72v1.88h26.72zm-34.65-297.45h-26.71v1.88h26.71zm0 5.51h-26.71v1.88h26.71zm0 5.51h-26.71v1.88h26.71zm0 5.51h-26.71v1.87h26.71zm0 5.51h-26.71v1.87h26.71zm0 5.5h-26.71v1.88h26.71zm0 5.51h-26.71v1.88h26.71zm0 5.51h-26.71v1.88h26.71zm0 5.51h-26.71v1.88h26.71zm0 5.51h-26.71v1.87h26.71zm0 5.51h-26.71v1.87h26.71zm0 5.5h-26.71v1.88h26.71zm0 5.51h-26.71v1.88h26.71zm0 5.51h-26.71v1.88h26.71zm0 5.51h-26.71v1.88h26.71zm0 5.51h-26.71v1.87h26.71zm0 5.51h-26.71v1.87h26.71zm0 5.5h-26.71v1.88h26.71zm0 5.51h-26.71v1.88h26.71zm0 5.51h-26.71v1.88h26.71zm0 5.51h-26.71v1.88h26.71zm0 5.51h-26.71v1.87h26.71zm0 5.51h-26.71v1.87h26.71zm0 5.5h-26.71v1.88h26.71zm0 5.51h-26.71v1.88h26.71zm0 5.51h-26.71v1.88h26.71zm0 5.51h-26.71v1.88h26.71zm0 5.51h-26.71V295h26.71zm0 5.51h-26.71v1.87h26.71zm0 5.51h-26.71v1.9h26.71zm0 5.5h-26.71v1.88h26.71zm0 5.51h-26.71V317h26.71zm0 5.51h-26.71v1.88h26.71zm0 5.51h-26.71V328h26.71zm0 5.51h-26.71v1.87h26.71zm0 5.51h-26.71V339h26.71zm0 5.5h-26.71v1.88h26.71zm0 5.51h-26.71V350h26.71zm0 5.51h-26.71v1.88h26.71zm0 5.51h-26.71v1.88h26.71zm0 5.51h-26.71v1.87h26.71zm0 5.51h-26.71v1.87h26.71zm0 5.5h-26.71v1.88h26.71zm0 5.51h-26.71v1.88h26.71zm0 5.51h-26.71v1.88h26.71zm0 5.51h-26.71v1.88h26.71zm0 5.51h-26.71v1.87h26.71zm0 5.51h-26.71v1.87h26.71zm0 5.5h-26.71v1.88h26.71zm0 5.51h-26.71v1.88h26.71zm0 5.51h-26.71v1.88h26.71zm0 5.51h-26.71v1.88h26.71zm0 5.51h-26.71v1.87h26.71zm0 5.51h-26.71v1.87h26.71zm0 5.5h-26.71v1.88h26.71z" style="mix-blend-mode:overlay" fill="url(#linear-gradient-11)"/><path class="cls-13" d="M247.06 210.89h7.37v1h-7.37zm14.51 0h2.32v1h-2.32zm-46.75-66.1h2.32v1h-2.32zm51.63 66.1h1.32v1h-1.32zm-48.06-66.1h1.32v1h-1.32zm.21 187.29h2.32v1h-2.32zm3.56 0h1.32v1h-1.32zm30-11.02h7.17v1h-7.17zm-26.91-99.15h7.17v1h-7.17zm18.53-77.12h2.15v1h-2.15zm16.84 11.02h1.48v1h-1.48zm-8.52 0h5.32v1h-5.32zm-30.4 0h2.45v1h-2.45zm6.85 38.56h5.69v1h-5.69zm-14.23 77.11h8.14v1h-8.14zm12.29-104.66h2.33v1h-2.33zm38.68 16.53h1.32v1h-1.32zm0 55.08h2.33v1h-2.33zm-7.4 27.54h2.33v1h-2.33zm-29.65-5.5h2.32v1h-2.32zm-3.05 0h1.32v1h-1.32zm39.44-5.51h1.32v1h-1.32zm-39.39-60.59h2.32v1h-2.32zm32.24 33.05h2.33v1h-2.33zm-23.26 66.1h2.33v1h-2.33zm20.21-66.1h1.32v1h-1.32zm-24.26-60.6h1.32v1h-1.32zm24.26 29.38h1.32v1h-1.32zm-40.04-12.85h7.17v1h-7.17zm32.67 82.62h7.17v1h-7.17zm14.04-95.72h2.15v1h-2.15zm-43.42 205.89h7.37v1h-7.37zm14.51 0h2.32v1h-2.32zm4.89 0h1.32v1h-1.32zm15.08 66.1h7.17v1h-7.17zm-37.76-132.2h2.15v1h-2.15zm16.84 11.02h1.48v1h-1.48zm-8.52 0h5.31v1h-5.31zm13.19 82.62h2.32v1h-2.32zm-7.4 27.55h2.33v1h-2.33zm6.74-11.02h1.32v1h-1.32zm-7.15-27.54h2.33v1h-2.33zm-3.05 0h1.32v1h-1.32zm0-31.22h1.32v1h-1.32zm-7.37 69.78h7.17v1h-7.17zm14.04-95.72h2.15v1h-2.15zm-5.32-97.08h1.48v1h-1.48zm-8.52 0h5.32v1h-5.32zm-3.72-33.05h5.31v1h-5.31zm12.59 88.14h5.31v1h-5.31zm3.42-55.09h2.45v1h-2.45zm22.56 93.65h2.33v1h-2.33zm3.56 0h1.32v1h-1.32zm6.87 77.11h7.17v1h-7.17zm-3.55-66.1h2.45v1h-2.45zm2.69 38.56h5.69v1h-5.69zm-5.6-22.03h2.32v1h-2.32zm-3.05 0h1.32v1h-1.32zm5.34 22.03h2.32v1h-2.32zm1.28-22.03h1.32v1h-1.32zm-7.97 11.01h7.17v1h-7.17zm12.01 55.09h1.48v1h-1.48zm-8.52 0h5.31v1h-5.31zm-3.72-33.05h5.31v1h-5.31zm-38.23 16.52h2.45v1h-2.45z"/><path style="mix-blend-mode:overlay" fill="url(#linear-gradient-12)" d="M240.9 195.8h37.95v255.45H240.9z"/><path fill="url(#linear-gradient-13)" d="M414.45 188.12h54.99v263.14h-54.99z"/><path style="mix-blend-mode:overlay" fill="url(#linear-gradient-14)" d="M414.45 188.12h12.51v263.14h-12.51z"/><path style="mix-blend-mode:overlay" fill="url(#linear-gradient-15)" d="M448.03 253.52h21.41v197.73h-21.41z"/><path d="M469.38 331.76H427v-3.15h42.42zm0 7.11H427v-3.15h42.42zm0 7.11H427v-3.14h42.42zm0 7.12H427V350h42.42zm0 7.11H427v-3.15h42.42zm0 7.11H427v-3.15h42.42zm0 7.11H427v-3.15h42.42zm0 7.11H427v-3.14h42.42zm0 7.12H427v-3.15h42.42zm0 7.11H427v-3.15h42.42zm0 7.11H427v-3.15h42.42zm0 7.11H427v-3.15h42.42zm0 7.11H427V414h42.42zm0 7.11H427v-3.14h42.42zm0 7.12H427v-3.15h42.42zm0 7.11H427v-3.15h42.42zm0 7.11H427v-3.15h42.42zm0-124H427v3.15h42.42zm0-7.11H427v3.15h42.42zm0-7.11H427v3.15h42.42zm0-7.11H427v3.14h42.42zm0-7.12H427v3.15h42.42zm0-7.11H427v3.15h42.42zm0-7.11H427V282h42.42zm0-7.11H427v3.15h42.42zm0-7.11H427v3.15h42.42zm0-7.11H427v3.14h42.42zm0-7.12H427v3.15h42.42zm0-7.11H427v3.15h42.42zm0-7.11H427v3.15h42.42zm0-7.11H427v3.15h42.42zm0-7.11H427v3.14h42.42zm0-7.12H427V218h42.42zm0-7.11H427v3.15h42.42zm0-7.11H427v3.15h42.42zm0-7.11H427v3.15h42.42z" style="mix-blend-mode:multiply" fill="#320778" opacity=".4"/><path class="cls-17" d="M461.87 308.35h4.3v1h-4.3zm-7.18-113.8h4.09v1h-4.09zm-18.55 0h4.71v1h-4.71zm15.9 0h.9v1h-.9zm-17.65 0h.9v1h-.9zm24.88 92.47h1.59v1h-1.59zm-1.75 0h.9v1h-.9zm.56 42.67h4.89v1h-4.89zm3.79-42.67h4.89v1h-4.89zm-9.22 42.67h1.47v1h-1.47zm-18.93 0h1.01v1h-1.01zm3.19 0h3.63v1h-3.63zm-6.42 0h1.67v1h-1.67zm30.88-85.34h3.88v1h-3.88zm-22.23 35.56h1.59v1h-1.59zm7.72-7.12h1.59v1h-1.59zm-16.14 7.12h4.59v1h-4.59zm5.77 0h.9v1h-.9zm-.71-7.12h3.43v1h-3.43zm9.49-28.44h1.59v1h-1.59zm-5.42 0h1.59v1h-1.59zm-6.25-28.45h1.59v1h-1.59zm9.02 28.45h.9v1h-.9zm18.77-35.56h1.59v1h-1.59zm-6.7 0h4.95v1h-4.95zm-8.73 92.45h6.7v1h-6.7zm-14.33-49.78h4.89v1h-4.89zm19.31 21.33h4.89v1h-4.89zm-10.1 42.81h1.47v1h-1.47zm20.34-57.03h1.01v1h-1.01zm3.19 0H468v1h-3.63zm-35.46 35.56h3.63v1h-3.63zm26.24-64.01h3.63v1h-3.63zm2.79 28.45h1.67v1h-1.67zm-24.83 120.9h3.71v1h-3.71zm23.49-35.56h1.52v1h-1.52zm-7.39 7.11h1.52v1h-1.52zm12.57-7.11h4.39v1h-4.39zm-1.99 0h.86v1h-.86zm-1.75 7.11h3.29v1h-3.29zm-7.31 28.45h1.52v1h-1.52zm5.18 0h1.52v1h-1.52zm-1.99 0h.86v1h-.86zm6.7-7.11h4.68v1h-4.68zm-23.16-21.34h4.68v1h-4.68zm-1.41 14.23h.96v1h-.96zm-5.56 0h3.47v1h-3.47zm8.02 0h1.6v1h-1.6zm5.01-156.46h1.67v1h-1.67z"/><path fill="url(#linear-gradient-16)" d="M313.07 219.15h77.7v232.11h-77.7z"/><path style="mix-blend-mode:overlay" fill="url(#linear-gradient-17)" d="M313.07 219.15h4.54v232.11h-4.54z"/><path d="M313.07 225.74h77.7v.67h-77.7zm0 10.89h77.7v.67h-77.7zm0 10.88h77.7v.67h-77.7zm0 10.89h77.7v.67h-77.7zm0 10.88h77.7v.72h-77.7zm0 10.89h77.7v.66h-77.7zm0 10.88h77.7v.67h-77.7zm0 10.88h77.7v.67h-77.7zm0 10.89h77.7v.67h-77.7zm0 10.88h77.7v.67h-77.7zm0 10.89h77.7v.67h-77.7zm0 10.88h77.7v.67h-77.7zm0 10.89h77.7v.64h-77.7zm0 10.88h77.7v.67h-77.7zm0 10.88h77.7v.67h-77.7zm0 10.89h77.7v.67h-77.7zm0 10.88h77.7v.67h-77.7zm0 10.89h77.7v.67h-77.7zm0 10.88h77.7v.67h-77.7zm0 10.89h77.7v.66h-77.7zm0 10.88h77.7v.67h-77.7z" style="mix-blend-mode:overlay" fill="url(#linear-gradient-18)"/><path style="mix-blend-mode:overlay" fill="url(#linear-gradient-19)" d="M355.73 271.23h35.04v180.03h-35.04z"/><path style="mix-blend-mode:overlay" fill="url(#linear-gradient-20)" d="M317.61 236.63h14.27v55.01h-14.27z"/><path class="cls-17" d="M361.08 250.39h10.59v1h-10.59zM356 360.56h2.16v1H356zm18.06-11.02h2.16v1h-2.16zm3.77 0h1.23v1h-1.23zm-10.06 0h5.13v1h-5.13zm-5.52-77.55h2.16v1h-2.16zm-2.39 0h1.23v1h-1.23zm9.28-43.79h6.68v1h-6.68zm-3.34 43.79h6.68v1h-6.68zm-12.58-43.79h2v1h-2zm-21.84 0h1.37v1h-1.37zm4.36 0h4.95v1h-4.95zm-8.77 0h2.28v1h-2.28zm38.16 81.58h5.29v1h-5.29zm-30.44-32.83h2.16v1h-2.16zm14.62 6.97h2.16v1h-2.16zm-22.02-6.97h2.16v1h-2.16zm3.78 0h1.23v1h-1.23zm-5.33 6.97h1.23v1h-1.23zm21.41 25.86h2.16v1h-2.16zm-7.4 0h2.16v1h-2.16zm-8.53 29.86h2.16v1h-2.16zm12.31-29.86h1.23v1h-1.23zm4.55-54.72h1.23v1h-1.23zm-19.54 49.76h6.68v1h-6.68z"/><path class="cls-17" d="M350.88 283.92h6.68v1h-6.68zM341.1 242h2v1h-2zm23.76 55.85h1.37v1h-1.37zm4.36 0h4.95v1h-4.95zm-44.4-34.83h4.95v1h-4.95zm31.81 62.69h4.95v1h-4.95zm3.81-27.86h2.28v1h-2.28zm-3.28 138.51h2.16v1h-2.16zm-11.06-9h3.95v1h-3.95zm14.62 9h6.68v1h-6.68zm18.35-173.34h5.29v1h-5.29zm-45.44 118.07h2.16v1h-2.16zm-4.06 24.83h1.23v1h-1.23zm9.63-24.83h6.68v1h-6.68zm25.93 24.6h5.29v1h-5.29zm-17.98 0h2.16v1h-2.16zm-7.4 0h2.16v1h-2.16zm3.78 0h1.23v1h-1.23zm33.77 19.09h6.68v1h-6.68zm-12.44-31.02h1.37v1h-1.37zm4.36 0h4.95v1h-4.95zm-8.78 0h2.28v1h-2.28z"/><path transform="rotate(180 154.075 359.99)" fill="url(#linear-gradient-21)" d="M123.52 268.73h61.1v182.53h-61.1z"/><path transform="rotate(180 181.47 359.99)" style="mix-blend-mode:overlay" fill="url(#linear-gradient-22)" d="M178.31 268.73h6.31v182.53h-6.31z"/><path d="M184.63 274.44h-61.11v-.53h61.11zm0 8.56h-61.11v-.53h61.11zm0 8.56h-61.11V291h61.11zm0 8.56h-61.11v-.53h61.11zm0 8.56h-61.11v-.53h61.11zm0 8.56h-61.11v-.53h61.11zm0 8.56h-61.11v-.53h61.11zm0 8.56h-61.11v-.53h61.11zm0 8.56h-61.11v-.53h61.11zm0 8.55h-61.11V351h61.11zm0 8.56h-61.11v-.52h61.11zm0 8.56h-61.11v-.52h61.11zm0 8.56h-61.11v-.52h61.11zm0 8.56h-61.11v-.52h61.11zm0 8.56h-61.11v-.52h61.11zm0 8.56h-61.11v-.53h61.11zm0 8.56h-61.11v-.53h61.11zm0 8.56h-61.11v-.53h61.11zm0 8.56h-61.11V428h61.11zm0 8.56h-61.11v-.53h61.11zm0 8.56h-61.11v-.53h61.11z" style="mix-blend-mode:overlay" fill="url(#linear-gradient-23)"/><path transform="rotate(180 137.3 380.465)" style="mix-blend-mode:overlay" fill="url(#linear-gradient-24)" d="M123.52 309.68h27.55v141.57h-27.55z"/><path class="cls-13" d="M137.99 293.19h7.87v1h-7.87zm10.03 86.63h1.61v1h-1.61zm-13.41-8.66h1.61v1h-1.61zm-2.12 0h.91v1h-.91zm4.58 0h3.81v1h-3.81zm6.31-60.99h1.61v1h-1.61zm2.47 0h.91v1h-.91zm-10.94-34.43h4.96v1h-4.96zm2.48 34.43h4.96v1h-4.96zm12.82-34.43h1.49v1h-1.49zm16.69 0h1.02v1h-1.02zm-5.9 0h3.68v1H161zm8.51 0h1.69v1h-1.69zm-30.59 64.15h3.93v1h-3.93zm24.94-25.81h1.61v1h-1.61zm-10.87 5.48h1.61v1h-1.61zm16.36-5.48h1.61v1h-1.61zm-2.11 0h.91v1h-.91zm3.96 5.48h.92v1h-.92zm-16.6 20.33h1.61v1h-1.61zm5.49 0h1.61v1h-1.61zm6.34 23.49h1.61v1h-1.61zm-8.45-23.49h.91v1h-.91zm-3.38-43.03h.92v1h-.92zm10.48 39.13h4.96v1h-4.96z"/><path class="cls-13" d="M148.47 319.56h4.96v1h-4.96zm10.75-32.97h1.49v1h-1.49zm-17.19 43.92h1.02v1h-1.02zm-5.89 0h3.68v1h-3.68zm32.98-27.39h3.68v1h-3.68zm-23.64 49.3h3.68v1h-3.68zm-.84-21.91h1.69v1h-1.69zm2.52 108.93h1.61v1h-1.61zm6.89-7.08h2.94v1h-2.94zm-12.88 7.08h4.96v1h-4.96zm-12.61-136.32h3.93v1h-3.93zm36.08 92.85h1.61v1h-1.61zm3.71 19.53h.91v1h-.91zm-11.2-19.53h4.96v1h-4.96zm-18.23 19.35h3.93v1h-3.93zm15.68 0h1.61v1h-1.61zm5.49 0h1.61v1h-1.61zm-2.11 0h.91v1h-.91zm-29.13 15.01h4.96v1h-4.96zm13.18-24.39h1.02v1h-1.02zm-5.89 0h3.68v1h-3.68zm8.5 0h1.69v1h-1.69z"/><path style="mix-blend-mode:overlay" fill="url(#linear-gradient-25)" d="M-3.75 272.92H98.1v30.36H-3.75z"/><path transform="rotate(180 47.18 377.265)" fill="url(#linear-gradient-26)" d="M-3.75 303.28H98.1v147.97H-3.75z"/><path transform="rotate(180 91.87 377.265)" style="mix-blend-mode:overlay" fill="url(#linear-gradient-27)" d="M85.63 303.28h12.48v147.97H85.63z"/><path class="cls-16" d="M98.11 307.91H-3.75v-.42H98.11zm0 6.94H-3.75v-.43H98.11zm0 6.94H-3.75v-.43H98.11zm0 6.94H-3.75v-.43H98.11zm0 6.94H-3.75v-.43H98.11zm0 6.94H-3.75v-.43H98.11zm0 6.94H-3.75v-.43H98.11zm0 6.94H-3.75v-.43H98.11zm0 6.93H-3.75V363H98.11zm0 6.94H-3.75v-.42H98.11zm0 6.94H-3.75v-.42H98.11zm0 6.94H-3.75v-.43H98.11zm0 6.94H-3.75v-.43H98.11zm0 6.94H-3.75v-.43H98.11zm0 6.94H-3.75v-.43H98.11zm0 6.94H-3.75v-.43H98.11zm0 6.94H-3.75v-.43H98.11zm0 6.94H-3.75v-.43H98.11zm0 6.93H-3.75v-.42H98.11zm0 6.94H-3.75v-.42H98.11zm0 6.94H-3.75v-.42H98.11z"/><path transform="rotate(180 19.22 393.865)" style="mix-blend-mode:overlay" fill="url(#linear-gradient-28)" d="M-3.75 336.48h45.93v114.77H-3.75z"/><path class="cls-13" d="M50.33 323.02h13.59v1H50.33zm-6.53 70.23h2.78v1H43.8zm23.18-7.02h2.78v1h-2.78zm4.85 0h1.58v1h-1.58zm-12.92 0h6.59v1h-6.59zm-7.09-49.44h2.78v1h-2.78zm-3.06 0h1.58v1h-1.58zm11.91-27.92h8.57v1h-8.57zm-4.29 27.92h8.57v1h-8.57zm-16.14-27.92h2.57v1h-2.57zm-28.03 0h1.76v1h-1.76zm5.59 0h6.35v1H17.8zm-11.26 0h2.92v1H6.54zm48.98 52.01h6.79v1h-6.79zm-39.07-20.93h2.78v1h-2.78zm18.77 4.44H38v1h-2.78zm-28.26-4.44h2.78v1H6.96zm4.85 0h1.58v1h-1.58zm-6.85 4.44h1.58v1H4.96zm27.48 16.49h2.78v1h-2.78zm-9.49 0h2.78v1h-2.78zM12 379.92h2.78v1H12zm15.8-19.04h1.58v1H27.8zm5.84-34.89h1.58v1h-1.58zM8.55 357.71h8.57v1H8.55z"/><path class="cls-13" d="M37.24 344.39h8.57v1h-8.57zm-12.57-26.72h2.57v1h-2.57zm30.5 35.6h1.76v1h-1.76zm5.6 0h6.35v1h-6.35zm-56.99-22.2h6.35v1H3.78zm40.84 39.97h6.35v1h-6.35zm4.89-17.77h2.92v1h-2.92zm-4.22 88.31h2.78v1h-2.78zm-14.19-5.74h5.07v1H31.1zm18.76 5.74h8.57v1h-8.57zm23.55-110.51h6.79v1h-6.79zm-58.32 75.27h2.78v1h-2.78zm-5.21 15.83h1.58v1H9.88zm12.36-15.83h8.57v1h-8.57zm33.28 15.69h6.79v1h-6.79zm-23.08 0h2.78v1h-2.78zm-9.49 0h2.78v1h-2.78zm4.85 0h1.58v1H27.8zm43.34 12.16h8.57v1h-8.57zm-15.97-19.77h1.76v1h-1.76zm5.6 0h6.35v1h-6.35zm-11.26 0h2.92v1h-2.92z"/><path fill="url(#linear-gradient-29)" d="M444.7 292.96h50.77v158.29H444.7z"/><path style="mix-blend-mode:overlay" fill="url(#linear-gradient-30)" d="M444.7 292.96h6.27v158.29h-6.27z"/><path d="M491.15 296.47h-15.66v-1h15.66zm0 1.84h-15.66v1h15.66zm0 2.8h-15.66v.95h15.66zm0 2.79h-15.66v1h15.66zm0 2.8h-15.66v.95h15.66zm0 2.8h-15.66v.95h15.66zm0 2.79h-15.66v.95h15.66zm0 2.8h-15.66v1h15.66zm0 2.79h-15.66v.95h15.66zm0 2.8h-15.66v.95h15.66zm0 2.79h-15.66v.95h15.66zm0 2.8h-15.66v1h15.66zm0 2.79h-15.66v.94h15.66zm0 2.8h-15.66v.95h15.66zm0 2.79h-15.66v1h15.66zm0 2.8h-15.66v.95h15.66zm0 2.79h-15.66v.95h15.66zm0 2.8h-15.66v.96h15.66zm0 2.79h-15.66v.95h15.66zm0 2.8h-15.66v.95h15.66zm0 2.79h-15.66v1h15.66zm0 2.8h-15.66v.95h15.66zm0 2.79h-15.66v1h15.66zm0 2.8h-15.66v.95h15.66zm0 2.79h-15.66v1h15.66zm0 2.8h-15.66v1h15.66zm0 2.79h-15.66v1h15.66zm0 2.8h-15.66v.95h15.66zm0 2.79h-15.66v1h15.66zm0 2.8h-15.66v.95h15.66zm0 2.79h-15.66v1h15.66zm0 2.8h-15.66v.95h15.66zm0 2.79h-15.66v1h15.66zm0 2.8h-15.66v.95h15.66zm0 2.8h-15.66v.95h15.66zm0 2.79h-15.66v.95h15.66zm0 2.8h-15.66v1h15.66zm0 2.79h-15.66v.95h15.66zm0 2.8h-15.66v.95h15.66zm0 2.79h-15.66v1h15.66zm0 2.8h-15.66v.95h15.66zm0 2.79h-15.66v.95h15.66zm0 2.8h-15.66v.95h15.66zm0 2.79h-15.66v1h15.66zm0 2.8h-15.66v.95h15.66zm0 2.79h-15.66v.95h15.66zm0 2.8h-15.66v.95h15.66zm0 2.79h-15.66v.95h15.66zm0 2.8h-15.66v.95h15.66zm0 2.79h-15.66v1h15.66zm0 2.8h-15.66v1h15.66zm0 2.79h-15.66v1h15.66zm0 2.8h-15.66v.95h15.66zm0 2.79h-15.66v1h15.66zm0 2.8h-15.66v1h15.66zm-20.31-150.94h-15.66v1h15.66zm0 2.79h-15.66v1h15.66zm0 2.8h-15.66v.95h15.66zm0 2.79h-15.66v1h15.66zm0 2.8h-15.66v.95h15.66zm0 2.8h-15.66v.95h15.66zm0 2.79h-15.66v.95h15.66zm0 2.8h-15.66v1h15.66zm0 2.79h-15.66v.95h15.66zm0 2.8h-15.66v.95h15.66zm0 2.79h-15.66v.95h15.66zm0 2.8h-15.66v1h15.66zm0 2.79h-15.66v.94h15.66zm0 2.8h-15.66v.95h15.66zm0 2.79h-15.66v1h15.66zm0 2.8h-15.66v.95h15.66zm0 2.79h-15.66v.95h15.66zm0 2.8h-15.66v.96h15.66zm0 2.79h-15.66v.95h15.66zm0 2.8h-15.66v.95h15.66zm0 2.79h-15.66v1h15.66zm0 2.8h-15.66v.95h15.66zm0 2.79h-15.66v1h15.66zm0 2.8h-15.66v.95h15.66zm0 2.79h-15.66v1h15.66zm0 2.8h-15.66v1h15.66zm0 2.79h-15.66v1h15.66zm0 2.8h-15.66v.95h15.66zm0 2.79h-15.66v1h15.66zm0 2.8h-15.66v.95h15.66zm0 2.79h-15.66v1h15.66zm0 2.8h-15.66v.95h15.66zm0 2.79h-15.66v1h15.66zm0 2.8h-15.66v.95h15.66zm0 2.8h-15.66v.95h15.66zm0 2.79h-15.66v.95h15.66zm0 2.8h-15.66v1h15.66zm0 2.79h-15.66v.95h15.66zm0 2.8h-15.66v.95h15.66zm0 2.79h-15.66v1h15.66zm0 2.8h-15.66v.95h15.66zm0 2.79h-15.66v.95h15.66zm0 2.8h-15.66v.95h15.66zm0 2.79h-15.66v1h15.66zm0 2.8h-15.66v.95h15.66zm0 2.79h-15.66v.95h15.66zm0 2.8h-15.66v.95h15.66zm0 2.79h-15.66v.95h15.66zm0 2.8h-15.66v.95h15.66zm0 2.79h-15.66v1h15.66zm0 2.8h-15.66v1h15.66zm0 2.79h-15.66v1h15.66zm0 2.8h-15.66v.95h15.66zm0 2.79h-15.66v1h15.66zm0 2.8h-15.66v1h15.66z" style="mix-blend-mode:overlay" fill="url(#linear-gradient-31)"/><path class="cls-13" d="M476.83 329.04h4.32v1h-4.32zm8.51 0h1.36v1h-1.36zm-27.41-33.54h1.36v1h-1.36zm30.27 33.54h.78v1h-.78zm-28.18-33.54h.78v1h-.78zm.12 95.03h1.36v1h-1.36zm2.09 0h.78v1h-.78zm17.59-5.59h4.21v1h-4.21zm-15.78-50.31h4.21v1h-4.21zm10.87-39.13h1.26v1h-1.26zm9.87 5.59h.87v1h-.87zm-4.99 0h3.12v1h-3.12zm-17.83 0h1.43v1h-1.43zm4.02 19.56h3.33v1h-3.33zm-8.35 39.13h4.77v1h-4.77zm7.21-53.1h1.36v1h-1.36zm22.68 8.38h.78v1h-.78zm0 27.95h1.36v1h-1.36zm-4.34 13.98h1.36v1h-1.36zm-17.38-2.8h1.36v1h-1.36zm-1.79 0h.78v1h-.78zm23.12-2.79h.78v1h-.78zm-23.09-30.75h1.36v1h-1.36zm18.9 16.77h1.36v1h-1.36zm-13.64 33.54h1.36v1h-1.36zm11.85-33.54h.78v1h-.78zm-14.22-30.74h.78v1h-.78zm14.22 14.9h.78v1h-.78zm-23.47-6.52h4.21v1h-4.21zm19.15 41.93h4.21v1h-4.21zm8.24-48.57h1.26v1h-1.26zM459.6 412.89h4.32v1h-4.32zm8.51 0h1.36v1h-1.36zm2.87 0h.78v1h-.78zm8.84 33.54h4.21v1h-4.21zm-22.14-67.08h1.26v1h-1.26zm9.88 5.59h.87v1h-.87zm-5 0h3.12v1h-3.12zm7.73 41.93h1.36v1h-1.36zm-4.33 13.97h1.36v1h-1.36zm3.95-5.59h.78v1h-.78zm-4.19-13.97h1.36v1h-1.36zm-1.79 0h.78v1h-.78zm0-15.84h.78v1h-.78zm-4.33 35.4h4.21v1h-4.21zm8.24-48.57h1.26v1h-1.26zm-3.12-49.26h.87v1h-.87zm-5 0h3.12v1h-3.12zm-2.18-16.77h3.12v1h-3.12zm7.38 44.72h3.12v1h-3.12zm2.01-27.95h1.44v1h-1.44zm13.22 47.52h1.36v1h-1.36zm2.1 0h.78v1h-.78zm4.02 39.13h4.21v1h-4.21zm-2.08-33.54h1.44v1h-1.44zm1.58 19.57h3.33v1h-3.33zm-3.29-11.18h1.36v1h-1.36zm-1.79 0h.78v1h-.78zm3.14 11.18h1.36v1h-1.36zm.74-11.18h.78v1h-.78zm-4.67 5.59h4.21v1h-4.21zm7.04 27.95h.87v1h-.87zm-4.99 0h3.12v1h-3.12zm-2.18-16.77h3.12v1h-3.12zm-22.42 8.38h1.44v1h-1.44z"/><path style="mix-blend-mode:overlay" fill="url(#linear-gradient-32)" d="M473.22 321.63h22.25v129.63h-22.25z"/><path fill="url(#linear-gradient-33)" d="M288.26 319.69h62.16v131.57h-62.16z"/><path style="mix-blend-mode:overlay" fill="url(#linear-gradient-34)" d="M288.26 319.69h4.19v131.57h-4.19z"/><path d="M288.26 322.34h62.16v1h-62.16zm0 4.75h62.16v-1h-62.16zm0 3.74h62.16v-1h-62.16zm0 3.74h62.16v-1h-62.16zm0 3.74h62.16v-1h-62.16zm0 3.75h62.16v-1h-62.16zm0 3.74h62.16v-1h-62.16zm0 3.74h62.16v-1h-62.16zm0 3.74h62.16v-1h-62.16zm0 3.75h62.16v-1h-62.16zm0 3.74h62.16v-1h-62.16zm0 3.74h62.16v-1h-62.16zm0 3.74h62.16v-1h-62.16zm0 3.75h62.16v-1h-62.16zm0 3.74h62.16v-1h-62.16zm0 3.74h62.16v-1h-62.16zm0 3.74h62.16v-1h-62.16zm0 3.75h62.16v-1h-62.16zm0 3.74h62.16v-1h-62.16zm0 3.74h62.16v-1h-62.16zm0 3.74h62.16v-1h-62.16zm0 3.75h62.16v-1h-62.16zm0 3.74h62.16v-1h-62.16zm0 3.74h62.16v-1h-62.16zm0 3.74h62.16v-1h-62.16zm0 3.75h62.16v-1h-62.16zm0 3.74h62.16v-1h-62.16zm0 3.74h62.16v-1h-62.16zm0 3.74h62.16v-1h-62.16zm0 3.75h62.16v-1h-62.16zm0 3.74h62.16v-1h-62.16zm0 3.74h62.16v-1h-62.16zm0 3.74h62.16v-1h-62.16zm0 3.75h62.16v-1h-62.16z" style="mix-blend-mode:overlay" fill="url(#linear-gradient-35)"/><path class="cls-46" d="M300.68 417.77h7.82v1h-7.82zm9.98 0h1.6v1h-1.6zm.71-29.89h1.6v1h-1.6zm2.65 29.89h.91v1h-.91zm-.19-29.89h.91v1h-.91zm-.8-41.2h1.6v1h-1.6zm2.45 0h.91v1h-.91zm-8.41 0H312v1h-4.93zm34.33 0h1.02v1h-1.02zm-6.09-22.57h3.65v1h-3.65zm8.68 22.57h1.68v1h-1.68zm-8.79 33.49h3.91v1h-3.91zm-21.27 22.53h5.6v1h-5.6zm-14.75-78.59h3.25v1h-3.25zm38.3 89.67h.91v1h-.91zm-40.3 26.33h3.52v1h-3.52zm28.35-82.03h1.6v1h-1.6zm-8.61 82.03h2.89v1h-2.89zm-2.1 0h.91v1h-.91zm28.81-82.03h.91v1h-.91zm-12.32 70.9h1.6v1h-1.6zm5.46 0h1.6v1h-1.6zm5.62-29.84h1.6v1h-1.6zm-7.72 29.84h.91v1h-.91zm-31.38-104.87h.91v1h-.91zm23.84 11.17h.91v1h-.91zm-14.18-3.54h4.93v1h-4.93zm5.14 26.34h4.93v1h-4.93zm13.2-33.97h1.48v1h-1.48zm-13.3 48.86h3.65v1h-3.65zm-16.43-7.61h6.28v1h-6.28z"/><path transform="rotate(180 176.715 405.38)" fill="url(#linear-gradient-36)" d="M158.68 359.51h36.07v91.75h-36.07z"/><path transform="rotate(180 193.535 405.38)" style="mix-blend-mode:overlay" fill="url(#linear-gradient-37)" d="M192.32 359.51h2.43v91.75h-2.43z"/><path d="M194.75 362.06h-36.07v-.7h36.07zm0 1.91h-36.07v.7h36.07zm0 2.61h-36.07v.7h36.07zm0 2.61h-36.07v.7h36.07zm0 2.61h-36.07v.7h36.07zm0 2.61h-36.07v.7h36.07zm0 2.61h-36.07v.7h36.07zm0 2.61h-36.07v.7h36.07zm0 2.61h-36.07v.7h36.07zm0 2.61h-36.07v.7h36.07zm0 2.61h-36.07v.7h36.07zm0 2.61h-36.07v.7h36.07zm0 2.61h-36.07v.7h36.07zm0 2.61h-36.07v.7h36.07zm0 2.61h-36.07v.69h36.07zm0 2.6h-36.07v.7h36.07zm0 2.61h-36.07v.7h36.07zm0 2.61h-36.07v.7h36.07zm0 2.61h-36.07v.7h36.07zm0 2.61h-36.07v.7h36.07zm0 2.61h-36.07v.7h36.07zm0 2.61h-36.07v.7h36.07zm0 2.61h-36.07v.7h36.07zm0 2.61h-36.07v.7h36.07zm0 2.61h-36.07v.7h36.07zm0 2.61h-36.07v.7h36.07zm0 2.61h-36.07v.7h36.07zm0 2.61h-36.07v.7h36.07zm0 2.61h-36.07v.7h36.07zm0 2.61h-36.07v.7h36.07zm0 2.61h-36.07v.7h36.07zm0 2.61h-36.07v.7h36.07zm0 2.61h-36.07v.7h36.07zm0 2.61h-36.07v.7h36.07z" style="mix-blend-mode:overlay" fill="url(#linear-gradient-38)"/><path class="cls-46" d="M183 427.75h4.54v1H183zm-2.18 0h.93v1h-.93zm-.41-20.84h.93v1h-.93zm-1.14 20.84h.53v1h-.53zm.11-20.84h.53v1h-.53zm.07-28.73h.93v1h-.93zm-1.02 0h.53v1h-.53zm2.54 0h2.86v1h-2.86zm-17.65 0h.59v1h-.59zm2-15.74h2.12v1h-2.12zm-3.89 15.74h.98v1h-.98zm3.81 23.35h2.27v1h-2.27zm11.37 15.72h3.25v1h-3.25zm9.91-54.81h1.89v1h-1.89zm-20.86 62.53h.53v1h-.53zm21.87 18.36h2.04v1h-2.04zm-15.34-57.2h.93v1h-.93zm4.25 57.2h1.68v1h-1.68zm2.37 0h.53v1h-.53zm-16.72-57.2h.53v1h-.53zm6.75 49.44h.93v1h-.93zm-3.17 0h.93v1h-.93zm-3.26-20.81h.93v1h-.93zm4.88 20.81h.53v1h-.53zm18.21-73.13h.53v1h-.53zm-13.84 7.79h.53v1h-.53zm5.9-2.47h2.86v1h-2.86zm-2.98 18.37h2.86v1h-2.86zm-5.66-23.69h.86v1h-.86zm6.46 34.08h2.12v1h-2.12zm8.01-5.31h3.64v1h-3.64z"/><path fill="url(#linear-gradient-39)" d="M257.99 377.24h73.03v74.01h-73.03z"/><path style="mix-blend-mode:overlay" fill="url(#linear-gradient-40)" d="M257.99 377.24h7.32v74.01h-7.32z"/><path class="cls-16" d="M262.44 451.25h.49v-4.66h2.67v4.66h.48v-4.66h5v4.66h.49v-4.66h2.67v4.66h.49v-4.66h5v4.66h.48v-4.66h2.67v4.66h.49v-4.66h5v4.66h.5v-4.66h2.66v4.66h.5v-4.66h5v4.66h.5v-4.66h2.66v4.66h.5v-4.66h5v4.66h.49v-4.66h2.67v4.66h.48v-4.66h5v4.66h.49v-4.66h2.67v4.66h.51v-4.66h5v4.66h.49v-4.66h2.67v4.66h.48v-4.66H331v-.36h-4.35v-5.45H331v-.36h-4.35V435H331v-.36h-4.35v-5.45H331v-.36h-4.35v-5.45H331V423h-4.35v-5.46H331v-.35h-4.35v-5.46H331v-.35h-4.35v-5.46H331v-.35h-4.35v-5.47H331v-.36h-4.35v-5.45H331v-.36h-4.35v-5.45H331v-.36h-4.35v-5.45H331v-.36h-4.35v-5.07h-.48v5.07h-2.67v-5.07h-.5v5.07h-5v-5.07h-.49v5.07h-2.67v-5.07h-.49v5.07h-5v-5.07h-.48v5.07h-2.67v-5.07h-.49v5.07h-5v-5.07h-.5v5.07h-2.66v-5.07h-.5v5.07h-5v-5.07h-.5v5.07h-2.65v-5.07h-.5v5.07h-5v-5.07h-.49v5.07h-2.67v-5.07h-.48v5.07h-5v-5.07h-.49v5.07h-2.67v-5.07h-.49v5.07h-5v-5.07h-.48v5.07h-2.67v-5.07h-.49v5.07h-4.35v.36h4.35v5.45h-4.35v.36h4.35v5.45h-4.35v.36h4.35v5.45h-4.35v.36h4.35v5.46h-4.35v.35h4.35v5.46h-4.35v.35h4.35v5.46h-4.35v.35h4.35V423h-4.35v.36h4.35v5.45h-4.35v.36h4.35v5.45h-4.35v.38h4.35v5.45h-4.35v.36h4.35v5.45h-4.35v.36h4.35zm61.08-68.58h2.67v5.45h-2.67zm0 5.81h2.67v5.45h-2.67zm0 5.81h2.67v5.45h-2.67zm0 5.81h2.67v5.46h-2.67zm0 5.81h2.67v5.46h-2.67zm0 5.81h2.67v5.46h-2.67zm0 5.81h2.67V423h-2.67zm0 5.82h2.67v5.45h-2.67zm0 5.81h2.67v5.45h-2.67zm0 5.81h2.67v5.45h-2.67zm0 5.81h2.67v5.45h-2.67zM318 382.67h5v5.45h-5zm0 5.81h5v5.45h-5zm0 5.81h5v5.45h-5zm0 5.81h5v5.46h-5zm0 5.81h5v5.46h-5zm0 5.81h5v5.46h-5zm0 5.81h5V423h-5zm0 5.82h5v5.45h-5zm0 5.81h5v5.45h-5zm0 5.81h5v5.45h-5zm0 5.81h5v5.45h-5zm-3.16-58.11h2.67v5.45h-2.67zm0 5.81h2.67v5.45h-2.67zm0 5.81h2.67v5.45h-2.67zm0 5.81h2.67v5.46h-2.67zm0 5.81h2.67v5.46h-2.67zm0 5.81h2.67v5.46h-2.67zm0 5.81h2.67V423h-2.67zm0 5.82h2.67v5.45h-2.67zm0 5.81h2.67v5.45h-2.67zm0 5.81h2.67v5.45h-2.67zm0 5.81h2.67v5.45h-2.67zm-5.5-58.11h5v5.45h-5zm0 5.81h5v5.45h-5zm0 5.81h5v5.45h-5zm0 5.81h5v5.46h-5zm0 5.81h5v5.46h-5zm0 5.81h5v5.46h-5zm0 5.81h5V423h-5zm0 5.82h5v5.45h-5zm0 5.81h5v5.45h-5zm0 5.81h5v5.45h-5zm0 5.81h5v5.45h-5zm-3.15-58.11h2.67v5.45h-2.67zm0 5.81h2.67v5.45h-2.67zm0 5.81h2.67v5.45h-2.67zm0 5.81h2.67v5.46h-2.67zm0 5.81h2.67v5.46h-2.67zm0 5.81h2.67v5.46h-2.67zm0 5.81h2.67V423h-2.67zm0 5.82h2.67v5.45h-2.67zm0 5.81h2.67v5.45h-2.67zm0 5.81h2.67v5.45h-2.67zm0 5.81h2.67v5.45h-2.67zm-5.5-58.11h5v5.45h-5zm0 5.81h5v5.45h-5zm0 5.81h5v5.45h-5zm0 5.81h5v5.46h-5zm0 5.81h5v5.46h-5zm0 5.81h5v5.46h-5zm0 5.81h5V423h-5zm0 5.82h5v5.45h-5zm0 5.81h5v5.45h-5zm0 5.81h5v5.45h-5zm0 5.81h5v5.45h-5zm-3.16-58.11h2.66v5.45h-2.66zm0 5.81h2.66v5.45h-2.66zm0 5.81h2.66v5.45h-2.66zm0 5.81h2.66v5.46h-2.66zm0 5.81h2.66v5.46h-2.66zm0 5.81h2.66v5.46h-2.66zm0 5.81h2.66V423h-2.66zm0 5.82h2.66v5.45h-2.66zm0 5.81h2.66v5.45h-2.66zm0 5.81h2.66v5.45h-2.66zm0 5.81h2.66v5.45h-2.66zm-5.49-58.11h5v5.45h-5zm0 5.81h5v5.45h-5zm0 5.81h5v5.45h-5zm0 5.81h5v5.46h-5zm0 5.81h5v5.46h-5zm0 5.81h5v5.46h-5zm0 5.81h5V423h-5zm0 5.82h5v5.45h-5zm0 5.81h5v5.45h-5zm0 5.81h5v5.45h-5zm0 5.81h5v5.45h-5zm-3.16-58.11h2.66v5.45h-2.64zm0 5.81h2.66v5.45h-2.64zm0 5.81h2.66v5.45h-2.64zm0 5.81h2.66v5.46h-2.64zm0 5.81h2.66v5.46h-2.64zm0 5.81h2.66v5.46h-2.64zm0 5.81h2.66V423h-2.64zm0 5.82h2.66v5.45h-2.64zm0 5.81h2.66v5.45h-2.64zm0 5.81h2.66v5.45h-2.64zm0 5.81h2.66v5.45h-2.64zm-5.51-58.11h5v5.45h-5zm0 5.81h5v5.45h-5zm0 5.81h5v5.45h-5zm0 5.81h5v5.46h-5zm0 5.81h5v5.46h-5zm0 5.81h5v5.46h-5zm0 5.81h5V423h-5zm0 5.82h5v5.45h-5zm0 5.81h5v5.45h-5zm0 5.81h5v5.45h-5zm0 5.81h5v5.45h-5zm-3.16-58.11h2.67v5.45h-2.67zm0 5.81h2.67v5.45h-2.67zm0 5.81h2.67v5.45h-2.67zm0 5.81h2.67v5.46h-2.67zm0 5.81h2.67v5.46h-2.67zm0 5.81h2.67v5.46h-2.67zm0 5.81h2.67V423h-2.67zm0 5.82h2.67v5.45h-2.67zm0 5.81h2.67v5.45h-2.67zm0 5.81h2.67v5.45h-2.67zm0 5.81h2.67v5.45h-2.67zm-5.49-58.11h5v5.45h-5zm0 5.81h5v5.45h-5zm0 5.81h5v5.45h-5zm0 5.81h5v5.46h-5zm0 5.81h5v5.46h-5zm0 5.81h5v5.46h-5zm0 5.81h5V423h-5zm0 5.82h5v5.45h-5zm0 5.81h5v5.45h-5zm0 5.81h5v5.45h-5zm0 5.81h5v5.45h-5zm-3.16-58.11h2.67v5.45h-2.67zm0 5.81h2.67v5.45h-2.67zm0 5.81h2.67v5.45h-2.67zm0 5.81h2.67v5.46h-2.67zm0 5.81h2.67v5.46h-2.67zm0 5.81h2.67v5.46h-2.67zm0 5.81h2.67V423h-2.67zm0 5.82h2.67v5.45h-2.67zm0 5.81h2.67v5.45h-2.67zm0 5.81h2.67v5.45h-2.67zm0 5.81h2.67v5.45h-2.67zm-5.5-58.11h5v5.45h-5zm0 5.81h5v5.45h-5zm0 5.81h5v5.45h-5zm0 5.81h5v5.46h-5zm0 5.81h5v5.46h-5zm0 5.81h5v5.46h-5zm0 5.81h5V423h-5zm0 5.82h5v5.45h-5zm0 5.81h5v5.45h-5zm0 5.81h5v5.45h-5zm0 5.81h5v5.45h-5zm-3.15-58.11h2.67v5.45h-2.67zm0 5.81h2.67v5.45h-2.67zm0 5.81h2.67v5.45h-2.67zm0 5.81h2.67v5.46h-2.67zm0 5.81h2.67v5.46h-2.67zm0 5.81h2.67v5.46h-2.67zm0 5.81h2.67V423h-2.67zm0 5.82h2.67v5.45h-2.67zm0 5.81h2.67v5.45h-2.67zm0 5.81h2.67v5.45h-2.67zm0 5.81h2.67v5.45h-2.67z"/><path class="cls-52" d="M284.73 383.11h2.15v1h-2.15zm8.75 5.77h2.15v1h-2.15zm-16.24-5.77h.99v1h-.99zm-8.32 0h1.18v1h-1.18zm0 5.77h1.18v1h-1.18zm-1.53-5.77h.51v1h-.51zm17.34 17.47h2.51v1h-2.51zm-7.93 0h.94v1h-.94zm-4.04 0h.56v1h-.56zm20.72 11.47h2.41v1h-2.41zm-17.91 6.04h2.76v1h-2.76zm-8.39 11.36h2.86v1h-2.86zm25.99 0h1.02v1h-1.02zm2 0h.72v1h-.72zm3.12 11.73h.97v1h-.97zm-5.12 0h3.07v1h-3.07zm-8.54 0h1.02v1h-1.02zm-16.73 0h1.07v1h-1.07zm16.52 5.85h2.92v1h-2.92zm34.28-63.92h2.15v1h-2.15zm-7.49 0h.99v1h-.99zm-8.32 0h1.18v1h-1.18zm0 5.77h1.18v1h-1.18zm-1.53-5.77h.51v1h-.51zm17.34 17.47h2.51v1h-2.51zm-7.93 0h.94v1h-.94zm-4.04 0h.56v1h-.56zm2.81 17.51h2.76v1h-2.76zm-8.39 11.36h2.87v1h-2.87zm-3.37 0h1.18v1h-1.18zm20.9 0h1.02v1h-1.02zm1.99 0h.72v1h-.72zm-2.07 11.73h1.02v1h-1.02zm-16.73 0h1.07v1h-1.07z"/><path class="cls-52" d="M294.19 441.18h.97v1h-.97zm24.2 5.85h2.92v1h-2.92z"/><path style="mix-blend-mode:overlay" fill="url(#linear-gradient-41)" d="M285.98 397.02h45.04v54.24h-45.04z"/><path style="mix-blend-mode:overlay" fill="url(#linear-gradient-42)" d="M288.26 296.95h62.16v22.74h-62.16z"/><path style="mix-blend-mode:overlay" fill="url(#linear-gradient-43)" d="M350.88 284.42h85.17v166.83h-85.17z"/><path style="mix-blend-mode:overlay" fill="url(#linear-gradient-44)" d="M476.2 323.95h103.3v127.31H476.2z"/><path style="mix-blend-mode:overlay" fill="url(#linear-gradient-45)" d="M-17.98 323.95h103.3v127.31h-103.3z"/><path fill="url(#linear-gradient-46)" d="M122.13 427.98v-7.91h-7.88v5.3h-8.71V408.1H93.86v-10.67h-.76v-.42h-1.55v-.52h-3.94v.52h-1.19v-.52h-1.44v.52h-6.7v.42h-.76v8.34h-8.83v-5.01h-1.4v5.01h-1.98v-5.01h-1.4v5.01h-3.03v4.51h-5v14.54h-4.47v-11.91h-3.27v-28.45h-2.46v-1.5h-3.63v.76h-2.29v-.97h-1.03v-2.64h-.41v2.64h-.57v-2.64h-.41v2.64h-2.39v1.23h-1.06v.48H30.5v28.45h-6.22v-16.85h-2.1v-3.94h-7.95v1.74h-1.84v2.2h-2.14v12.41H7.42v-4.9h-8.67v9.34h-5.88v-13.34h-6.49v-14.48h-10.96v-5.5H-40.2v-3.74h-.92v3.74h-1.28v-3.74h-.91v3.74h-6.15v4.94h-1.61v.56h-2.76v31.64h-.61v-2.43h-.61v-1.11h-.4v1.11h-2.1v1.3h-.94v1.13h-2.27v-41.74h-8.12v-9.41h-5.7v-9.66h-.43v9.66h-1.65v-6.66h-1.14v-3h-.47v3h-4.54v5.31h-1.13v1.35h-4.85v9.41h-8.13v12.63h-4.34v-45.75h-1.58v-.89h-13.99v-1.07h-3v1.07h-2.49v-1.07h-8.21v1.07h-3.23v.89h-1.58v109.38h269.22v-23.27h-11.75z"/><path fill="url(#linear-gradient-47)" d="M377.87 427.98v-7.91h7.88v5.3h8.71V408.1h11.68v-10.67h.76v-.42h1.55v-.52h3.94v.52h1.19v-.52h1.43v.52h6.71v.42h.76v8.34h8.83v-5.01h1.4v5.01h1.98v-5.01h1.4v5.01h3.03v4.51h5v14.54h4.47v-11.91h3.27v-28.45h2.46v-1.5h3.62v.76h2.3v-.97h1.03v-2.64h.41v2.64h.57v-2.64h.4v2.64h2.4v1.23h1.06v.48h3.39v28.45h6.22v-16.85h2.1v-3.94h7.95v1.74h1.84v2.2h2.14v12.41h2.83v-4.9h8.67v9.34h5.88v-13.34h6.49v-14.48h10.96v-5.5h15.62v-3.74h.92v3.74h1.28v-3.74h.91v3.74h6.15v4.94h1.61v.56h2.76v31.64h.61v-2.43h.61v-1.11h.4v1.11h2.1v1.3h.94v1.13h2.27v-41.74h8.12v-9.41h5.7v-9.66h.43v9.66h1.65v-6.66h1.14v-3h.47v3h4.54v5.31h1.13v1.35h4.85v9.41h8.13v12.63h4.34v-45.75h1.58v-.89h13.99v-1.07h3v1.07h2.49v-1.07h8.21v1.07h3.23v.89h1.58v109.38H366.12v-23.27h11.75z"/><path fill="url(#linear-gradient-48)" d="M-143.8 445.5h787.6v64.03h-787.6z"/></g></g></svg>