<svg xmlns="http://www.w3.org/2000/svg" xmlns:xlink="http://www.w3.org/1999/xlink" viewBox="0 0 600 400"><defs><linearGradient id="_ÂÁ_Ï_ÌÌ_È_ËÂÌÚ_301" x1="300" y1="299.58" x2="300" gradientUnits="userSpaceOnUse"><stop offset=".24" stop-color="#b40042"/><stop offset=".68" stop-color="#2f0039"/><stop offset="1" stop-color="#030022"/></linearGradient><linearGradient id="_ÂÁ_Ï_ÌÌ_È_ËÂÌÚ_103" x1="300" y1="299.08" x2="300" y2="76.22" gradientUnits="userSpaceOnUse"><stop offset="0" stop-color="#70164d"/><stop offset=".5" stop-color="#150b4d"/><stop offset="1" stop-color="#000037"/></linearGradient><linearGradient id="_ÂÁ_Ï_ÌÌ_È_ËÂÌÚ_99" x1="245.04" y1="299.8" x2="245.04" y2="182.25" gradientUnits="userSpaceOnUse"><stop offset=".26" stop-color="#ff4f50"/><stop offset="1" stop-color="#d3007a"/></linearGradient><linearGradient id="_ÂÁ_Ï_ÌÌ_È_ËÂÌÚ_81" x1="482.47" y1="217.9" x2="522.7" y2="217.9" gradientUnits="userSpaceOnUse"><stop offset="0" stop-color="#ff6a36"/><stop offset="1" stop-color="#fe3561"/></linearGradient><linearGradient id="_ÂÁ_Ï_ÌÌ_È_ËÂÌÚ_87" x1="482.47" y1="231.82" x2="522.7" y2="231.82" gradientUnits="userSpaceOnUse"><stop offset="0" stop-color="#ff591f"/><stop offset="1" stop-color="#d92161"/></linearGradient><linearGradient id="_ÂÁ_Ï_ÌÌ_È_ËÂÌÚ_99-2" x1="339.03" y1="276.86" x2="339.03" y2="161.25" xlink:href="#_ÂÁ_Ï_ÌÌ_È_ËÂÌÚ_99"/><linearGradient id="_ÂÁ_Ï_ÌÌ_È_ËÂÌÚ_99-3" x1="-435.27" y1="276.86" x2="-435.27" y2="161.25" gradientTransform="matrix(-1 0 0 1 -133.16 0)" xlink:href="#_ÂÁ_Ï_ÌÌ_È_ËÂÌÚ_99"/><linearGradient id="_ÂÁ_Ï_ÌÌ_È_ËÂÌÚ_69" x1="320.6" y1="278.16" x2="320.6" y2="156.02" gradientUnits="userSpaceOnUse"><stop offset="0" stop-color="#fd4300"/><stop offset="0" stop-color="#fc4300"/><stop offset=".12" stop-color="#c13300"/><stop offset=".24" stop-color="#8e2600"/><stop offset=".37" stop-color="#621a00"/><stop offset=".49" stop-color="#3f1100"/><stop offset=".62" stop-color="#230900"/><stop offset=".74" stop-color="#100400"/><stop offset=".87" stop-color="#040100"/><stop offset="1"/></linearGradient><linearGradient id="_ÂÁ_Ï_ÌÌ_È_ËÂÌÚ_91" x1="389.36" y1="299.61" x2="389.36" y2="133.9" gradientUnits="userSpaceOnUse"><stop offset=".26" stop-color="#e90050"/><stop offset="1" stop-color="#880061"/></linearGradient><linearGradient id="_ÂÁ_Ï_ÌÌ_È_ËÂÌÚ_91-2" x1="359.83" y1="299.58" x2="359.83" y2="133.9" xlink:href="#_ÂÁ_Ï_ÌÌ_È_ËÂÌÚ_91"/><linearGradient id="_ÂÁ_Ï_ÌÌ_È_ËÂÌÚ_91-3" x1="394.47" y1="299.61" x2="394.47" y2="232.9" xlink:href="#_ÂÁ_Ï_ÌÌ_È_ËÂÌÚ_91"/><linearGradient id="_ÂÁ_Ï_ÌÌ_È_ËÂÌÚ_91-4" x1="352.98" y1="299.63" x2="352.98" y2="237.2" xlink:href="#_ÂÁ_Ï_ÌÌ_È_ËÂÌÚ_91"/><linearGradient id="_ÂÁ_Ï_ÌÌ_È_ËÂÌÚ_47" x1="322.15" y1="249.14" x2="322.15" y2="230.35" gradientUnits="userSpaceOnUse"><stop offset="0" stop-color="#6d0947"/><stop offset="1" stop-color="#a9096d"/></linearGradient><linearGradient id="_ÂÁ_Ï_ÌÌ_È_ËÂÌÚ_47-5" x1="274.19" y1="249.14" x2="274.19" y2="230.35" xlink:href="#_ÂÁ_Ï_ÌÌ_È_ËÂÌÚ_47"/><linearGradient id="_ÂÁ_Ï_ÌÌ_È_ËÂÌÚ_7" x1="272.01" y1="248.99" x2="324.09" y2="248.99" gradientUnits="userSpaceOnUse"><stop offset="0" stop-color="#52156c"/><stop offset="1" stop-color="#6d0947"/></linearGradient><linearGradient id="_ÂÁ_Ï_ÌÌ_È_ËÂÌÚ_7-2" x1="258.38" y1="258.66" x2="337.73" y2="258.66" xlink:href="#_ÂÁ_Ï_ÌÌ_È_ËÂÌÚ_7"/><linearGradient id="_ÂÁ_Ï_ÌÌ_È_ËÂÌÚ_37" x1="256.33" y1="262.74" x2="339.84" y2="262.74" gradientUnits="userSpaceOnUse"><stop offset=".01" stop-color="#40005f"/><stop offset="1" stop-color="#6d0947"/></linearGradient><linearGradient id="_ÂÁ_Ï_ÌÌ_È_ËÂÌÚ_7-3" x1="255.27" y1="281.58" x2="340.9" y2="281.58" xlink:href="#_ÂÁ_Ï_ÌÌ_È_ËÂÌÚ_7"/><linearGradient id="_ÂÁ_Ï_ÌÌ_È_ËÂÌÚ_124" x1="297.73" y1="237.22" x2="297.73" y2="213.96" gradientUnits="userSpaceOnUse"><stop offset="0" stop-color="#fe3561"/><stop offset="1" stop-color="#ff6a36"/></linearGradient><linearGradient id="_ÂÁ_Ï_ÌÌ_È_ËÂÌÚ_28" x1="298.05" y1="299.58" x2="298.05" y2="252.39" gradientUnits="userSpaceOnUse"><stop offset=".01" stop-color="#88156c"/><stop offset="1" stop-color="#911c54"/></linearGradient><linearGradient id="_ÂÁ_Ï_ÌÌ_È_ËÂÌÚ_31" x1="298.05" y1="299.58" x2="298.05" y2="260.17" gradientUnits="userSpaceOnUse"><stop offset=".01" stop-color="#6a156c"/><stop offset="1" stop-color="#911c54"/></linearGradient><linearGradient id="_ÂÁ_Ï_ÌÌ_È_ËÂÌÚ_97" x1="387.78" y1="299.47" x2="387.78" y2="267.61" gradientUnits="userSpaceOnUse"><stop offset="0" stop-color="#ffd600"/><stop offset=".32" stop-color="#ffda00"/><stop offset=".62" stop-color="#fee600"/><stop offset=".93" stop-color="#fdf900"/><stop offset="1" stop-color="#fdff00"/></linearGradient><linearGradient id="_ÂÁ_Ï_ÌÌ_È_ËÂÌÚ_88" x1="384.98" y1="299.08" x2="384.98" y2="244.53" gradientUnits="userSpaceOnUse"><stop offset="0" stop-color="#fdff00"/><stop offset="1"/></linearGradient><linearGradient id="_ÂÁ_Ï_ÌÌ_È_ËÂÌÚ_69-3" x1="374.4" y1="299.08" x2="374.4" y2="168.87" xlink:href="#_ÂÁ_Ï_ÌÌ_È_ËÂÌÚ_69"/><linearGradient id="_ÂÁ_Ï_ÌÌ_È_ËÂÌÚ_69-4" x1="379.56" y1="299.08" x2="379.56" y2="168.87" xlink:href="#_ÂÁ_Ï_ÌÌ_È_ËÂÌÚ_69"/><linearGradient id="_ÂÁ_Ï_ÌÌ_È_ËÂÌÚ_69-5" x1="394.98" y1="299.08" x2="394.98" y2="168.87" xlink:href="#_ÂÁ_Ï_ÌÌ_È_ËÂÌÚ_69"/><linearGradient id="_ÂÁ_Ï_ÌÌ_È_ËÂÌÚ_69-6" x1="354.21" y1="299.08" x2="354.21" y2="168.87" xlink:href="#_ÂÁ_Ï_ÌÌ_È_ËÂÌÚ_69"/><linearGradient id="_ÂÁ_Ï_ÌÌ_È_ËÂÌÚ_69-7" x1="374.6" y1="299.08" x2="374.6" y2="168.87" xlink:href="#_ÂÁ_Ï_ÌÌ_È_ËÂÌÚ_69"/><linearGradient id="_ÂÁ_Ï_ÌÌ_È_ËÂÌÚ_99-4" x1="167.53" y1="295.98" x2="167.53" y2="152.19" xlink:href="#_ÂÁ_Ï_ÌÌ_È_ËÂÌÚ_99"/><linearGradient id="_ÂÁ_Ï_ÌÌ_È_ËÂÌÚ_123" x1="408.45" y1="238.78" x2="433.43" y2="232.55" gradientTransform="rotate(-180 420.945 235.67)" gradientUnits="userSpaceOnUse"><stop offset="0" stop-color="#37104e"/><stop offset=".48" stop-color="#230c48"/><stop offset="1" stop-color="#120943"/></linearGradient><linearGradient id="_ÂÁ_Ï_ÌÌ_È_ËÂÌÚ_7-4" x1="416.41" y1="254.7" x2="425.48" y2="254.7" xlink:href="#_ÂÁ_Ï_ÌÌ_È_ËÂÌÚ_7"/><linearGradient id="_ÂÁ_Ï_ÌÌ_È_ËÂÌÚ_7-5" x1="416.41" y1="234.61" x2="425.48" y2="234.61" xlink:href="#_ÂÁ_Ï_ÌÌ_È_ËÂÌÚ_7"/><linearGradient id="_ÂÁ_Ï_ÌÌ_È_ËÂÌÚ_7-6" x1="416.41" y1="216.05" x2="425.48" y2="216.05" xlink:href="#_ÂÁ_Ï_ÌÌ_È_ËÂÌÚ_7"/><linearGradient id="_ÂÁ_Ï_ÌÌ_È_ËÂÌÚ_7-7" x1="410.61" y1="273.01" x2="431.28" y2="273.01" xlink:href="#_ÂÁ_Ï_ÌÌ_È_ËÂÌÚ_7"/><linearGradient id="_ÂÁ_Ï_ÌÌ_È_ËÂÌÚ_52" x1="172.59" y1="205.68" x2="231.13" y2="205.68" gradientUnits="userSpaceOnUse"><stop offset="0" stop-color="#4d006a"/><stop offset=".25" stop-color="#5f0557"/><stop offset=".51" stop-color="#69084b"/><stop offset=".77" stop-color="#6d0947"/><stop offset=".9" stop-color="#630e4d"/><stop offset=".99" stop-color="#4a066a"/></linearGradient><linearGradient id="_ÂÁ_Ï_ÌÌ_È_ËÂÌÚ_141" x1="192.5" y1="249.51" x2="192.5" y2="236.5" gradientUnits="userSpaceOnUse"><stop offset="0" stop-color="#52156c"/><stop offset="1" stop-color="#8e0947"/></linearGradient><linearGradient id="_ÂÁ_Ï_ÌÌ_È_ËÂÌÚ_141-2" x1="190.13" y1="249.51" x2="190.13" y2="236.5" xlink:href="#_ÂÁ_Ï_ÌÌ_È_ËÂÌÚ_141"/><linearGradient id="_ÂÁ_Ï_ÌÌ_È_ËÂÌÚ_141-3" x1="173.37" y1="256.55" x2="208.31" y2="256.55" xlink:href="#_ÂÁ_Ï_ÌÌ_È_ËÂÌÚ_141"/><linearGradient id="_ÂÁ_Ï_ÌÌ_È_ËÂÌÚ_141-4" x1="180.19" y1="261.08" x2="210.28" y2="261.08" xlink:href="#_ÂÁ_Ï_ÌÌ_È_ËÂÌÚ_141"/><linearGradient id="_ÂÁ_Ï_ÌÌ_È_ËÂÌÚ_18" x1="192.2" y1="299.52" x2="192.2" y2="264.58" gradientUnits="userSpaceOnUse"><stop offset="0" stop-color="#b80947"/><stop offset="1" stop-color="#78156c"/></linearGradient><linearGradient id="_ÂÁ_Ï_ÌÌ_È_ËÂÌÚ_141-5" x1="188.08" y1="237.72" x2="196.3" y2="237.72" xlink:href="#_ÂÁ_Ï_ÌÌ_È_ËÂÌÚ_141"/><linearGradient id="_ÂÁ_Ï_ÌÌ_È_ËÂÌÚ_141-6" x1="189.44" y1="235.58" x2="195.56" y2="235.58" xlink:href="#_ÂÁ_Ï_ÌÌ_È_ËÂÌÚ_141"/><linearGradient id="_ÂÁ_Ï_ÌÌ_È_ËÂÌÚ_100" x1="126.93" y1="299.47" x2="126.93" y2="132.4" gradientUnits="userSpaceOnUse"><stop offset="0" stop-color="#34269c"/><stop offset="1" stop-color="#52156c"/></linearGradient><linearGradient id="_ÂÁ_Ï_ÌÌ_È_ËÂÌÚ_68" x1="93.11" y1="141.67" x2="93.11" y2="141.22" gradientUnits="userSpaceOnUse"><stop offset="0" stop-color="#000021"/><stop offset="1" stop-color="#130037"/></linearGradient><linearGradient id="_ÂÁ_Ï_ÌÌ_È_ËÂÌÚ_68-2" x1="93.11" y1="153.12" x2="93.11" y2="152.67" xlink:href="#_ÂÁ_Ï_ÌÌ_È_ËÂÌÚ_68"/><linearGradient id="_ÂÁ_Ï_ÌÌ_È_ËÂÌÚ_68-3" x1="93.11" y1="164.56" x2="93.11" y2="164.12" xlink:href="#_ÂÁ_Ï_ÌÌ_È_ËÂÌÚ_68"/><linearGradient id="_ÂÁ_Ï_ÌÌ_È_ËÂÌÚ_68-4" x1="93.11" y1="176.01" x2="93.11" y2="175.56" xlink:href="#_ÂÁ_Ï_ÌÌ_È_ËÂÌÚ_68"/><linearGradient id="_ÂÁ_Ï_ÌÌ_È_ËÂÌÚ_68-5" x1="93.11" y1="187.46" x2="93.11" y2="187.01" xlink:href="#_ÂÁ_Ï_ÌÌ_È_ËÂÌÚ_68"/><linearGradient id="_ÂÁ_Ï_ÌÌ_È_ËÂÌÚ_68-6" x1="93.11" y1="198.9" x2="93.11" y2="198.46" xlink:href="#_ÂÁ_Ï_ÌÌ_È_ËÂÌÚ_68"/><linearGradient id="_ÂÁ_Ï_ÌÌ_È_ËÂÌÚ_68-7" x1="93.11" y1="210.35" x2="93.11" y2="209.9" xlink:href="#_ÂÁ_Ï_ÌÌ_È_ËÂÌÚ_68"/><linearGradient id="_ÂÁ_Ï_ÌÌ_È_ËÂÌÚ_68-8" x1="93.11" y1="221.8" x2="93.11" y2="221.35" xlink:href="#_ÂÁ_Ï_ÌÌ_È_ËÂÌÚ_68"/><linearGradient id="_ÂÁ_Ï_ÌÌ_È_ËÂÌÚ_68-9" x1="93.11" y1="233.25" x2="93.11" y2="232.8" xlink:href="#_ÂÁ_Ï_ÌÌ_È_ËÂÌÚ_68"/><linearGradient id="_ÂÁ_Ï_ÌÌ_È_ËÂÌÚ_68-10" x1="93.11" y1="244.69" x2="93.11" y2="244.25" xlink:href="#_ÂÁ_Ï_ÌÌ_È_ËÂÌÚ_68"/><linearGradient id="_ÂÁ_Ï_ÌÌ_È_ËÂÌÚ_68-11" x1="93.11" y1="256.14" x2="93.11" y2="255.69" xlink:href="#_ÂÁ_Ï_ÌÌ_È_ËÂÌÚ_68"/><linearGradient id="_ÂÁ_Ï_ÌÌ_È_ËÂÌÚ_68-12" x1="93.11" y1="267.59" x2="93.11" y2="267.14" xlink:href="#_ÂÁ_Ï_ÌÌ_È_ËÂÌÚ_68"/><linearGradient id="_ÂÁ_Ï_ÌÌ_È_ËÂÌÚ_68-13" x1="93.11" y1="279.03" x2="93.11" y2="278.59" xlink:href="#_ÂÁ_Ï_ÌÌ_È_ËÂÌÚ_68"/><linearGradient id="_ÂÁ_Ï_ÌÌ_È_ËÂÌÚ_68-14" x1="93.11" y1="290.48" x2="93.11" y2="290.03" xlink:href="#_ÂÁ_Ï_ÌÌ_È_ËÂÌÚ_68"/><linearGradient id="_ÂÁ_Ï_ÌÌ_È_ËÂÌÚ_168" x1="300" y1="400" x2="300" y2="299.08" gradientUnits="userSpaceOnUse"><stop offset="0" stop-color="#000037"/><stop offset=".5" stop-color="#150b4d"/><stop offset="1" stop-color="#70164d"/></linearGradient><linearGradient id="_ÂÁ_Ï_ÌÌ_È_ËÂÌÚ_103-2" x1="300" y1="349.83" x2="300" y2="126.96" gradientTransform="matrix(1 0 0 -1.48 0 818.74)" xlink:href="#_ÂÁ_Ï_ÌÌ_È_ËÂÌÚ_103"/><linearGradient id="_ÂÁ_Ï_ÌÌ_È_ËÂÌÚ_99-5" x1="245.04" y1="350.55" x2="245.04" y2="233" gradientTransform="matrix(1 0 0 -1.48 0 818.74)" xlink:href="#_ÂÁ_Ï_ÌÌ_È_ËÂÌÚ_99"/><linearGradient id="_ÂÁ_Ï_ÌÌ_È_ËÂÌÚ_81-2" x1="482.47" y1="268.65" x2="522.7" y2="268.65" gradientTransform="matrix(1 0 0 -1.48 0 818.74)" xlink:href="#_ÂÁ_Ï_ÌÌ_È_ËÂÌÚ_81"/><linearGradient id="_ÂÁ_Ï_ÌÌ_È_ËÂÌÚ_87-2" x1="482.47" y1="282.57" x2="522.7" y2="282.57" gradientTransform="matrix(1 0 0 -1.48 0 818.74)" xlink:href="#_ÂÁ_Ï_ÌÌ_È_ËÂÌÚ_87"/><linearGradient id="_ÂÁ_Ï_ÌÌ_È_ËÂÌÚ_99-6" x1="339.03" y1="327.61" x2="339.03" y2="211.99" gradientTransform="matrix(1 0 0 -1.48 0 818.74)" xlink:href="#_ÂÁ_Ï_ÌÌ_È_ËÂÌÚ_99"/><linearGradient id="_ÂÁ_Ï_ÌÌ_È_ËÂÌÚ_99-7" x1="-435.27" y1="327.61" x2="-435.27" y2="211.99" gradientTransform="matrix(-1 0 0 -1.48 -133.16 818.74)" xlink:href="#_ÂÁ_Ï_ÌÌ_È_ËÂÌÚ_99"/><linearGradient id="_ÂÁ_Ï_ÌÌ_È_ËÂÌÚ_69-8" x1="320.6" y1="328.91" x2="320.6" y2="206.77" gradientTransform="matrix(1 0 0 -1.48 0 818.74)" xlink:href="#_ÂÁ_Ï_ÌÌ_È_ËÂÌÚ_69"/><linearGradient id="_ÂÁ_Ï_ÌÌ_È_ËÂÌÚ_91-5" x1="389.36" y1="350.36" x2="389.36" y2="184.64" gradientTransform="matrix(1 0 0 -1.48 0 818.74)" xlink:href="#_ÂÁ_Ï_ÌÌ_È_ËÂÌÚ_91"/><linearGradient id="_ÂÁ_Ï_ÌÌ_È_ËÂÌÚ_91-6" x1="359.83" y1="350.33" x2="359.83" y2="184.64" gradientTransform="matrix(1 0 0 -1.48 0 818.74)" xlink:href="#_ÂÁ_Ï_ÌÌ_È_ËÂÌÚ_91"/><linearGradient id="_ÂÁ_Ï_ÌÌ_È_ËÂÌÚ_91-7" x1="394.47" y1="350.36" x2="394.47" y2="283.65" gradientTransform="matrix(1 0 0 -1.48 0 818.74)" xlink:href="#_ÂÁ_Ï_ÌÌ_È_ËÂÌÚ_91"/><linearGradient id="_ÂÁ_Ï_ÌÌ_È_ËÂÌÚ_91-8" x1="352.98" y1="350.38" x2="352.98" y2="287.94" gradientTransform="matrix(1 0 0 -1.48 0 818.74)" xlink:href="#_ÂÁ_Ï_ÌÌ_È_ËÂÌÚ_91"/><linearGradient id="_ÂÁ_Ï_ÌÌ_È_ËÂÌÚ_47-9" x1="322.15" y1="299.89" x2="322.15" y2="281.1" gradientTransform="matrix(1 0 0 -1.48 0 818.74)" xlink:href="#_ÂÁ_Ï_ÌÌ_È_ËÂÌÚ_47"/><linearGradient id="_ÂÁ_Ï_ÌÌ_È_ËÂÌÚ_47-13" x1="274.19" y1="299.89" x2="274.19" y2="281.1" gradientTransform="matrix(1 0 0 -1.48 0 818.74)" xlink:href="#_ÂÁ_Ï_ÌÌ_È_ËÂÌÚ_47"/><linearGradient id="_ÂÁ_Ï_ÌÌ_È_ËÂÌÚ_7-8" x1="272.01" y1="299.74" x2="324.09" y2="299.74" gradientTransform="matrix(1 0 0 -1.48 0 818.74)" xlink:href="#_ÂÁ_Ï_ÌÌ_È_ËÂÌÚ_7"/><linearGradient id="_ÂÁ_Ï_ÌÌ_È_ËÂÌÚ_7-9" x1="258.38" y1="309.41" x2="337.73" y2="309.41" gradientTransform="matrix(1 0 0 -1.48 0 818.74)" xlink:href="#_ÂÁ_Ï_ÌÌ_È_ËÂÌÚ_7"/><linearGradient id="_ÂÁ_Ï_ÌÌ_È_ËÂÌÚ_37-2" x1="256.33" y1="313.49" x2="339.84" y2="313.49" gradientTransform="matrix(1 0 0 -1.48 0 818.74)" xlink:href="#_ÂÁ_Ï_ÌÌ_È_ËÂÌÚ_37"/><linearGradient id="_ÂÁ_Ï_ÌÌ_È_ËÂÌÚ_7-10" x1="255.27" y1="332.33" x2="340.9" y2="332.33" gradientTransform="matrix(1 0 0 -1.48 0 818.74)" xlink:href="#_ÂÁ_Ï_ÌÌ_È_ËÂÌÚ_7"/><linearGradient id="_ÂÁ_Ï_ÌÌ_È_ËÂÌÚ_124-5" x1="297.73" y1="287.97" x2="297.73" y2="264.71" gradientTransform="matrix(1 0 0 -1.48 0 818.74)" xlink:href="#_ÂÁ_Ï_ÌÌ_È_ËÂÌÚ_124"/><linearGradient id="_ÂÁ_Ï_ÌÌ_È_ËÂÌÚ_28-2" x1="298.05" y1="350.33" x2="298.05" y2="303.14" gradientTransform="matrix(1 0 0 -1.48 0 818.74)" xlink:href="#_ÂÁ_Ï_ÌÌ_È_ËÂÌÚ_28"/><linearGradient id="_ÂÁ_Ï_ÌÌ_È_ËÂÌÚ_31-2" x1="298.05" y1="350.33" x2="298.05" y2="310.92" gradientTransform="matrix(1 0 0 -1.48 0 818.74)" xlink:href="#_ÂÁ_Ï_ÌÌ_È_ËÂÌÚ_31"/><linearGradient id="_ÂÁ_Ï_ÌÌ_È_ËÂÌÚ_97-2" x1="387.78" y1="350.22" x2="387.78" y2="318.36" gradientTransform="matrix(1 0 0 -1.48 0 818.74)" xlink:href="#_ÂÁ_Ï_ÌÌ_È_ËÂÌÚ_97"/><linearGradient id="_ÂÁ_Ï_ÌÌ_È_ËÂÌÚ_88-2" x1="384.98" y1="349.83" x2="384.98" y2="295.28" gradientTransform="matrix(1 0 0 -1.48 0 818.74)" xlink:href="#_ÂÁ_Ï_ÌÌ_È_ËÂÌÚ_88"/><linearGradient id="_ÂÁ_Ï_ÌÌ_È_ËÂÌÚ_69-10" x1="374.4" y1="349.83" x2="374.4" y2="219.62" gradientTransform="matrix(1 0 0 -1.48 0 818.74)" xlink:href="#_ÂÁ_Ï_ÌÌ_È_ËÂÌÚ_69"/><linearGradient id="_ÂÁ_Ï_ÌÌ_È_ËÂÌÚ_69-11" x1="379.56" y1="349.83" x2="379.56" y2="219.62" gradientTransform="matrix(1 0 0 -1.48 0 818.74)" xlink:href="#_ÂÁ_Ï_ÌÌ_È_ËÂÌÚ_69"/><linearGradient id="_ÂÁ_Ï_ÌÌ_È_ËÂÌÚ_69-12" x1="394.98" y1="349.83" x2="394.98" y2="219.62" gradientTransform="matrix(1 0 0 -1.48 0 818.74)" xlink:href="#_ÂÁ_Ï_ÌÌ_È_ËÂÌÚ_69"/><linearGradient id="_ÂÁ_Ï_ÌÌ_È_ËÂÌÚ_69-13" x1="354.21" y1="349.83" x2="354.21" y2="219.62" gradientTransform="matrix(1 0 0 -1.48 0 818.74)" xlink:href="#_ÂÁ_Ï_ÌÌ_È_ËÂÌÚ_69"/><linearGradient id="_ÂÁ_Ï_ÌÌ_È_ËÂÌÚ_69-14" x1="374.6" y1="349.83" x2="374.6" y2="219.62" gradientTransform="matrix(1 0 0 -1.48 0 818.74)" xlink:href="#_ÂÁ_Ï_ÌÌ_È_ËÂÌÚ_69"/><linearGradient id="_ÂÁ_Ï_ÌÌ_È_ËÂÌÚ_99-8" x1="167.53" y1="346.73" x2="167.53" y2="202.94" gradientTransform="matrix(1 0 0 -1.48 0 818.74)" xlink:href="#_ÂÁ_Ï_ÌÌ_È_ËÂÌÚ_99"/><linearGradient id="_ÂÁ_Ï_ÌÌ_È_ËÂÌÚ_123-2" x1="408.45" y1="289.53" x2="433.44" y2="283.3" gradientTransform="matrix(-1 0 0 1.48 841.89 -31.8)" xlink:href="#_ÂÁ_Ï_ÌÌ_È_ËÂÌÚ_123"/><linearGradient id="_ÂÁ_Ï_ÌÌ_È_ËÂÌÚ_7-11" x1="416.41" y1="305.45" x2="425.48" y2="305.45" gradientTransform="matrix(1 0 0 -1.48 0 818.74)" xlink:href="#_ÂÁ_Ï_ÌÌ_È_ËÂÌÚ_7"/><linearGradient id="_ÂÁ_Ï_ÌÌ_È_ËÂÌÚ_7-12" x1="416.41" y1="285.36" x2="425.48" y2="285.36" gradientTransform="matrix(1 0 0 -1.48 0 818.74)" xlink:href="#_ÂÁ_Ï_ÌÌ_È_ËÂÌÚ_7"/><linearGradient id="_ÂÁ_Ï_ÌÌ_È_ËÂÌÚ_7-13" x1="410.61" y1="323.76" x2="431.28" y2="323.76" gradientTransform="matrix(1 0 0 -1.48 0 818.74)" xlink:href="#_ÂÁ_Ï_ÌÌ_È_ËÂÌÚ_7"/><linearGradient id="_ÂÁ_Ï_ÌÌ_È_ËÂÌÚ_52-2" x1="172.59" y1="256.42" x2="231.13" y2="256.42" gradientTransform="matrix(1 0 0 -1.48 0 818.74)" xlink:href="#_ÂÁ_Ï_ÌÌ_È_ËÂÌÚ_52"/><linearGradient id="_ÂÁ_Ï_ÌÌ_È_ËÂÌÚ_141-7" x1="192.5" y1="300.26" x2="192.5" y2="287.25" gradientTransform="matrix(1 0 0 -1.48 0 818.74)" xlink:href="#_ÂÁ_Ï_ÌÌ_È_ËÂÌÚ_141"/><linearGradient id="_ÂÁ_Ï_ÌÌ_È_ËÂÌÚ_141-8" x1="190.13" y1="300.26" x2="190.13" y2="287.25" gradientTransform="matrix(1 0 0 -1.48 0 818.74)" xlink:href="#_ÂÁ_Ï_ÌÌ_È_ËÂÌÚ_141"/><linearGradient id="_ÂÁ_Ï_ÌÌ_È_ËÂÌÚ_141-9" x1="173.37" y1="307.3" x2="208.31" y2="307.3" gradientTransform="matrix(1 0 0 -1.48 0 818.74)" xlink:href="#_ÂÁ_Ï_ÌÌ_È_ËÂÌÚ_141"/><linearGradient id="_ÂÁ_Ï_ÌÌ_È_ËÂÌÚ_141-10" x1="180.19" y1="311.83" x2="210.28" y2="311.83" gradientTransform="matrix(1 0 0 -1.48 0 818.74)" xlink:href="#_ÂÁ_Ï_ÌÌ_È_ËÂÌÚ_141"/><linearGradient id="_ÂÁ_Ï_ÌÌ_È_ËÂÌÚ_18-2" x1="192.2" y1="350.27" x2="192.2" y2="315.33" gradientTransform="matrix(1 0 0 -1.48 0 818.74)" xlink:href="#_ÂÁ_Ï_ÌÌ_È_ËÂÌÚ_18"/><linearGradient id="_ÂÁ_Ï_ÌÌ_È_ËÂÌÚ_141-11" x1="188.08" y1="288.47" x2="196.3" y2="288.47" gradientTransform="matrix(1 0 0 -1.48 0 818.74)" xlink:href="#_ÂÁ_Ï_ÌÌ_È_ËÂÌÚ_141"/><linearGradient id="_ÂÁ_Ï_ÌÌ_È_ËÂÌÚ_141-12" x1="189.44" y1="286.33" x2="195.56" y2="286.33" gradientTransform="matrix(1 0 0 -1.48 0 818.74)" xlink:href="#_ÂÁ_Ï_ÌÌ_È_ËÂÌÚ_141"/><linearGradient id="_ÂÁ_Ï_ÌÌ_È_ËÂÌÚ_100-2" x1="126.93" y1="350.22" x2="126.93" y2="183.14" gradientTransform="matrix(1 0 0 -1.48 0 818.74)" xlink:href="#_ÂÁ_Ï_ÌÌ_È_ËÂÌÚ_100"/><linearGradient id="_ÂÁ_Ï_ÌÌ_È_ËÂÌÚ_68-15" x1="93.11" y1="283.95" x2="93.11" y2="283.59" gradientTransform="matrix(1 0 0 -1.48 0 818.74)" xlink:href="#_ÂÁ_Ï_ÌÌ_È_ËÂÌÚ_68"/><linearGradient id="_ÂÁ_Ï_ÌÌ_È_ËÂÌÚ_68-16" x1="93.11" y1="295.4" x2="93.11" y2="295.03" gradientTransform="matrix(1 0 0 -1.48 0 818.74)" xlink:href="#_ÂÁ_Ï_ÌÌ_È_ËÂÌÚ_68"/><linearGradient id="_ÂÁ_Ï_ÌÌ_È_ËÂÌÚ_68-17" x1="93.11" y1="306.85" x2="93.11" y2="306.48" gradientTransform="matrix(1 0 0 -1.48 0 818.74)" xlink:href="#_ÂÁ_Ï_ÌÌ_È_ËÂÌÚ_68"/><linearGradient id="_ÂÁ_Ï_ÌÌ_È_ËÂÌÚ_68-18" x1="93.11" y1="318.3" x2="93.11" y2="317.93" gradientTransform="matrix(1 0 0 -1.48 0 818.74)" xlink:href="#_ÂÁ_Ï_ÌÌ_È_ËÂÌÚ_68"/><linearGradient id="_ÂÁ_Ï_ÌÌ_È_ËÂÌÚ_68-19" x1="93.11" y1="329.74" x2="93.11" y2="329.38" gradientTransform="matrix(1 0 0 -1.48 0 818.74)" xlink:href="#_ÂÁ_Ï_ÌÌ_È_ËÂÌÚ_68"/><linearGradient id="_ÂÁ_Ï_ÌÌ_È_ËÂÌÚ_68-20" x1="93.11" y1="341.19" x2="93.11" y2="340.82" gradientTransform="matrix(1 0 0 -1.48 0 818.74)" xlink:href="#_ÂÁ_Ï_ÌÌ_È_ËÂÌÚ_68"/><radialGradient id="_ÂÁ_Ï_ÌÌ_È_ËÂÌÚ_92" cx="263.23" cy="198.37" r="4.94" gradientTransform="matrix(0 8.82 -9.16 0 2108.34 -2045.37)" gradientUnits="userSpaceOnUse"><stop offset="0" stop-color="#f8ff2a"/><stop offset=".11" stop-color="#c5cb21"/><stop offset=".24" stop-color="#929619"/><stop offset=".37" stop-color="#656811"/><stop offset=".5" stop-color="#41420b"/><stop offset=".63" stop-color="#242506"/><stop offset=".75" stop-color="#101103"/><stop offset=".88" stop-color="#040401"/><stop offset="1"/></radialGradient><radialGradient id="_ÂÁ_Ï_ÌÌ_È_ËÂÌÚ_92-2" cx="265" cy="198.33" r="4.11" xlink:href="#_ÂÁ_Ï_ÌÌ_È_ËÂÌÚ_92"/><radialGradient id="_ÂÁ_Ï_ÌÌ_È_ËÂÌÚ_125" cx="264.92" cy="210.76" r="3.84" gradientTransform="matrix(0 8.82 -9.16 0 2108.34 -2045.37)" gradientUnits="userSpaceOnUse"><stop offset="0" stop-color="#3bcaff"/><stop offset=".11" stop-color="#2fa1cb"/><stop offset=".24" stop-color="#237796"/><stop offset=".37" stop-color="#185268"/><stop offset=".5" stop-color="#0f3542"/><stop offset=".63" stop-color="#091e25"/><stop offset=".75" stop-color="#040d11"/><stop offset=".88" stop-color="#010304"/><stop offset="1"/></radialGradient><radialGradient id="_ÂÁ_Ï_ÌÌ_È_ËÂÌÚ_92-3" cx="268.92" cy="198.37" r="4.94" gradientTransform="matrix(0 -13.1 -9.16 0 2108.34 3855.1)" xlink:href="#_ÂÁ_Ï_ÌÌ_È_ËÂÌÚ_92"/><radialGradient id="_ÂÁ_Ï_ÌÌ_È_ËÂÌÚ_92-4" cx="270.7" cy="198.33" r="4.11" gradientTransform="matrix(0 -13.1 -9.16 0 2108.34 3855.1)" xlink:href="#_ÂÁ_Ï_ÌÌ_È_ËÂÌÚ_92"/><radialGradient id="_ÂÁ_Ï_ÌÌ_È_ËÂÌÚ_125-2" cx="270.62" cy="210.76" r="3.84" gradientTransform="matrix(0 -13.1 -9.16 0 2108.34 3855.1)" xlink:href="#_ÂÁ_Ï_ÌÌ_È_ËÂÌÚ_125"/><radialGradient id="_ÂÁ_Ï_ÌÌ_È_ËÂÌÚ_92-5" cx="299.6" cy="300.1" r="212.42" xlink:href="#_ÂÁ_Ï_ÌÌ_È_ËÂÌÚ_92"/><clipPath id="clip-path"><path fill="none" d="M0 0h600v400H0z"/></clipPath><style>.cls-5{fill:#de0864}.cls-6{fill:#090039}.cls-8{fill:#540b3c}.cls-9{fill:#981063}.cls-10{fill:#ef0864}.cls-14{fill:#ffd000}.cls-16{fill:#6d0947}.cls-17{fill:#c2096d}.cls-134,.cls-20,.cls-57{opacity:.5}.cls-134,.cls-20{mix-blend-mode:screen}.cls-20{fill:url(#_ÂÁ_Ï_ÌÌ_È_ËÂÌÚ_69)}.cls-22{fill:#febb1d}.cls-25{fill:#de2e79}.cls-26{fill:#900979}.cls-28{fill:#8b1b53}.cls-29{fill:#34266a}.cls-30{fill:#bb2e79}.cls-31{fill:#120943}.cls-32{fill:#281961}.cls-33{fill:#02fffc}.cls-34{fill:#02c7fc}.cls-35{fill:#028dfc}.cls-36{fill:url(#_ÂÁ_Ï_ÌÌ_È_ËÂÌÚ_47)}.cls-37{fill:#52156c}.cls-38{fill:url(#_ÂÁ_Ï_ÌÌ_È_ËÂÌÚ_47-5)}.cls-39{fill:#38003d}.cls-41{fill:#ae1b53}.cls-45{fill:url(#_ÂÁ_Ï_ÌÌ_È_ËÂÌÚ_124)}.cls-46{fill:#d4105e}.cls-47{fill:#4f1054}.cls-50,.cls-57{fill:#5c0060}.cls-52{fill:#400060}.cls-53{fill:#fec43b}.cls-54{fill:#581c72}.cls-55{fill:#5a2073}.cls-56{fill:#a72c7f}.cls-187,.cls-188,.cls-57,.cls-68{mix-blend-mode:multiply}.cls-58{fill:#83226b}.cls-59{fill:#4a0056}.cls-60{fill:#3b0647}.cls-61{fill:#43015f}.cls-62{fill:#610040}.cls-125,.cls-126{mix-blend-mode:color-dodge}.cls-66,.cls-68{fill:#fea93d}.cls-67{fill:#feef55}.cls-69{fill:#ffffc0}.cls-81{fill:#120e48}.cls-82{fill:#540943}.cls-83{fill:#15266a}.cls-85{fill:#220939}.cls-86{fill:#090034}.cls-91{fill:#070c2c}.cls-92{fill:#2e0943}.cls-93{fill:#0275c9}.cls-96{fill:#120f70}.cls-100{fill:#a63172}.cls-101{fill:#3f3172}.cls-102{fill:#322a5c}.cls-104{fill:#983888}.cls-105{fill:#95266a}.cls-106{fill:#420943}.cls-121{fill:#121989}.cls-122{fill:#fed843}.cls-124{fill:#ff43f9;mix-blend-mode:soft-light}.cls-125{fill:#00caf9}.cls-126{fill:#deff00}.cls-134{fill:url(#_ÂÁ_Ï_ÌÌ_È_ËÂÌÚ_69-8)}.cls-139{fill:url(#_ÂÁ_Ï_ÌÌ_È_ËÂÌÚ_47-9)}.cls-140{fill:url(#_ÂÁ_Ï_ÌÌ_È_ËÂÌÚ_47-13)}.cls-145{fill:url(#_ÂÁ_Ï_ÌÌ_È_ËÂÌÚ_124-5)}.cls-182,.cls-187,.cls-188{fill:#110f2b}.cls-183{fill:#08060d}.cls-184{fill:#241c36}.cls-185{fill:#c82c59}.cls-186{fill:#1c0927}.cls-187{opacity:.4}.cls-188{opacity:.44}.cls-190{fill:#0b0a1e}.cls-191{fill:#683847}.cls-193{fill:#0a081a}</style></defs><g style="isolation:isolate"><g clip-path="url(#clip-path)" id="city"><path fill="url(#_ÂÁ_Ï_ÌÌ_È_ËÂÌÚ_301)" d="M0 0h600v299.58H0z"/><path class="cls-5" d="M164.7 74.46a.41.41 0 01-.41.41.41.41 0 01-.42-.41.42.42 0 01.42-.42.41.41 0 01.41.42z"/><circle class="cls-5" cx="79.9" cy="38.82" r=".41"/><circle class="cls-5" cx="32.74" cy="48.28" r=".41"/><circle class="cls-5" cx="240.5" cy="146.61" r=".41"/><circle class="cls-5" cx="333.88" cy="170.29" r=".41"/><path class="cls-5" d="M375.41 133.14a.41.41 0 11-.41-.41.41.41 0 01.41.41z"/><circle class="cls-5" cx="371.24" cy="190" r=".41"/><path class="cls-5" d="M351.49 118a.42.42 0 01-.83 0 .42.42 0 11.83 0z"/><circle class="cls-5" cx="53.91" cy="236.56" r=".41"/><circle class="cls-5" cx="95.04" cy="199.41" r=".41"/><circle class="cls-5" cx="91.28" cy="256.28" r=".41"/><circle class="cls-5" cx="71.11" cy="184.27" r=".41"/><circle class="cls-5" cx="67.39" cy="120.75" r=".41"/><circle class="cls-5" cx="278.51" cy="147.41" r=".41"/><circle class="cls-5" cx="319.24" cy="169.31" r=".41"/><path class="cls-5" d="M292.06 42.15a.67.67 0 01-.67.67.68.68 0 01-.68-.67.69.69 0 01.68-.68.68.68 0 01.67.68zm-78.17-16.4a.68.68 0 11-1.35 0 .68.68 0 011.35 0z"/><circle class="cls-5" cx="253.23" cy="84.16" r=".67"/><path class="cls-5" d="M419.76 105.52a.68.68 0 11-1.35 0 .68.68 0 011.35 0z"/><circle class="cls-5" cx="156.03" cy="88.98" r=".67"/><circle class="cls-5" cx="444.75" cy="75.81" r=".41"/><path class="cls-5" d="M572.53 43.5a.68.68 0 01-.68.67.67.67 0 01-.67-.67.68.68 0 01.67-.68.69.69 0 01.68.68zm-78.18-16.4a.68.68 0 11-1.35 0 .68.68 0 011.35 0z"/><circle class="cls-5" cx="533.69" cy="85.51" r=".67"/><path class="cls-5" d="M437.17 90.33a.68.68 0 11-.67-.68.67.67 0 01.67.68z"/><path class="cls-6" d="M210.28 286.44h39.67v12.65h-39.67z"/><path class="cls-6" d="M246.81 292.43h11.26v6.65h-11.26z"/><circle class="cls-5" cx="480.16" cy="152.68" r=".41"/><circle class="cls-5" cx="403.96" cy="224.83" r=".41"/><circle class="cls-5" cx="310.58" cy="248.51" r=".41"/><circle class="cls-5" cx="269.45" cy="211.36" r=".41"/><circle class="cls-5" cx="273.21" cy="268.22" r=".41"/><circle class="cls-5" cx="293.38" cy="196.22" r=".41"/><circle class="cls-5" cx="577.07" cy="198.97" r=".41"/><circle class="cls-5" cx="365.94" cy="225.63" r=".41"/><circle class="cls-5" cx="325.21" cy="247.53" r=".41"/><path class="cls-5" d="M352.39 120.37a.68.68 0 001.35 0 .68.68 0 10-1.35 0z"/><circle class="cls-5" cx="431.24" cy="103.97" r=".67"/><path class="cls-5" d="M390.55 162.38a.67.67 0 00.67.67.68.68 0 00.68-.67.69.69 0 00-.68-.68.68.68 0 00-.67.68zm-165.86 21.36a.69.69 0 00.68.68.68.68 0 00.67-.68.67.67 0 00-.67-.67.68.68 0 00-.68.67zm263.05-16.54a.68.68 0 00.68.67.68.68 0 000-1.35.68.68 0 00-.68.68z"/><path fill="url(#_ÂÁ_Ï_ÌÌ_È_ËÂÌÚ_103)" d="M600 265.11h-23.35v-46.06h-208.3v-114.2H335.8v95.76h-45.49V88.98l-30.23-12.76-13.27 12.08v64.94H54.92v78.2H0v67.64h600v-33.97z"/><path class="cls-8" transform="rotate(180 50.44 198.395)" d="M36.9 98.65h27.08v199.48H36.9z"/><path class="cls-9" transform="rotate(180 58.215 198.395)" d="M44.68 98.65h27.08v199.48H44.68z"/><path class="cls-9" d="M33.49 267.36h24.73v31.72H33.49z"/><path class="cls-8" d="M26.52 267.36h24.73v31.72H26.52zm506.89-74.99h36.72v108.3h-36.72z"/><path class="cls-9" d="M526.27 192.37h36.72v108.3h-36.72z"/><path class="cls-8" d="M413.96 98.65h29.67v199.48h-29.67z"/><path class="cls-9" d="M405.44 98.65h29.67v199.48h-29.67z"/><path class="cls-10" d="M428.1 162.83h1.01v1.58h-1.01zm-13.26-8.39h1.01v1.58h-1.01zm17.11 90.21h1.01v1.58h-1.01zm-17.11-71.23h1.01V175h-1.01zm0 12.83h1.01v1.58h-1.01zm17.61-48.7h1.01v1.58h-1.01zm-27.63 109.69h1.01v1.58h-1.01zm11.03-121.59h1.01v1.58h-1.01zm1.86 0h1.01v1.58h-1.01zm131.84 117.99h1.01v1.58h-1.01zm-13.26-8.38h1.01v1.58h-1.01zm16.61 51.72h1.01v1.58h-1.01zm-16.61-32.74h1.01v1.58h-1.01zm0 12.83h1.01v1.58h-1.01zm17.61-48.71h1.01v1.58h-1.01zm-15.24 74h1.01v1.58h-1.01zm-1.36-85.89h1.01v1.58h-1.01zm1.86 0h1.01v1.58h-1.01zM67.18 169.88h1.01v1.58h-1.01zm-13.26-8.39h1.01v1.58h-1.01zm3.79 92.07h1.01v1.58h-1.01zm-3.79-73.09h1.01v1.58h-1.01zm0 12.83h1.01v1.58h-1.01zm17.61-48.7h1.01v1.58h-1.01zm-16.61 88.59h1.01v1.58h-1.01zm0-100.49h1.01v1.58h-1.01zm1.86 0h1.01v1.58h-1.01z"/><path fill="url(#_ÂÁ_Ï_ÌÌ_È_ËÂÌÚ_99)" d="M229.99 182.25h30.1V299.8h-30.1z"/><path fill="url(#_ÂÁ_Ï_ÌÌ_È_ËÂÌÚ_81)" d="M522.7 298.17h-40.23V151.26l40.23-13.62v160.53z"/><path fill="url(#_ÂÁ_Ï_ÌÌ_È_ËÂÌÚ_87)" d="M482.47 164.17h40.23v135.29h-40.23z"/><path class="cls-14" d="M513.36 190.41h1.01v1.58h-1.01zm-13.27-8.38h1.01v1.58h-1.01zm17.11 90.2h1.01v1.58h-1.01zM491.87 216h1.01v1.58h-1.01zm-1.29 0h1.01v1.58h-1.01zm27.13-50.87h1.01v1.58h-1.01zm-27.64 109.7h1.01v1.58h-1.01zm11.03-121.59h1.01v1.58h-1.01zm1.86 0h1.01v1.58h-1.01z"/><path d="M302.57 164.3h35.74L339 177l-8.83 23.17-23-2.38s-6.86-24.9-4.6-33.49z" fill="#9a096d"/><path class="cls-16" d="M307.14 177.41h26.59v.56h-26.59zm0 8.3h26.59v.56h-26.59zm-2.07-15.69h30.73v.56h-30.73z"/><path class="cls-17" d="M346.05 276.86h-17.68v-82.85h2.8l-.01-8.86 2.56.02.01-7.76 2.03-.07.04-7.09 2.51.05v-9.05h1.82l5.92 115.61z"/><path fill="url(#_ÂÁ_Ï_ÌÌ_È_ËÂÌÚ_99-2)" d="M347.87 276.86H330.2v-82.85h2.79l-.01-8.86 2.56.02.01-7.76 2.03-.07.04-7.09 2.51.05v-9.05l7.74 6.46v109.15z"/><path class="cls-17" d="M294.82 276.86h17.68v-82.85h-2.8l.02-8.86-2.56.02-.02-7.76-2.03-.07-.04-7.09-2.5.05v-9.05h-1.55l-6.2 115.61z"/><path fill="url(#_ÂÁ_Ï_ÌÌ_È_ËÂÌÚ_99-3)" d="M293.27 276.86h17.68v-82.85h-2.8l.02-8.86-2.56.02-.02-7.76-2.03-.07-.04-7.09-2.5.05v-9.05l-7.75 6.46v109.15z"/><path class="cls-16" d="M312.5 194.01h15.87v82.85H312.5z"/><path class="cls-20" d="M285.38 156.02h70.44v122.14h-70.44z"/><path class="cls-20" d="M285.38 156.02h70.44v122.14h-70.44z"/><path fill="url(#_ÂÁ_Ï_ÌÌ_È_ËÂÌÚ_91)" d="M368.79 299.61V133.9l41.14 62.89v102.29l-41.14.53z"/><path class="cls-22" d="M368.79 133.9h-4.69l1.38 165.68 3.31.03V133.9z"/><path fill="url(#_ÂÁ_Ï_ÌÌ_È_ËÂÌÚ_91-2)" d="M364.1 133.9l-9.92 59.42v106.26h11.3L364.1 133.9z"/><path fill="url(#_ÂÁ_Ï_ÌÌ_È_ËÂÌÚ_91-3)" d="M414.73 232.9l-40.51 21.57v45.14l38.47-.14 2.04-66.57z"/><path class="cls-25" d="M374.22 254.47l7.5 1.44 33.01-23.01-4.8-2.55-35.71 24.12z"/><path class="cls-26" d="M374.22 299.61h7.5v-43.7l-7.5-1.44v45.14zm-12.55.19v-44.78l-4.98 1.84v42.77l4.98.17z"/><path class="cls-25" d="M361.67 255.02l-7.49-18.84-4.91 1.01 7.42 19.67 4.98-1.84z"/><path fill="url(#_ÂÁ_Ï_ÌÌ_È_ËÂÌÚ_91-4)" d="M356.69 299.63h-7.42v-62.44l7.42 19.67v42.77z"/><path class="cls-14" d="M391.13 207.41h1.01v1.58h-1.01zm-13.26-8.38h1.01v1.58h-1.01zm17.11 90.2h1.01v1.58h-1.01zM369.64 233h1.01v1.58h-1.01zm23.47 26.24h1.01v1.58h-1.01zM368.35 233h1.01v1.58h-1.01zm-13.38 33.03h1.01v1.58h-1.01zm40.51-83.9h1.01v1.58h-1.01zm-36.8 43.92h1.01v1.58h-1.01zm9.17 65.78h1.01v1.58h-1.01zm11.02-121.59h1.01v1.58h-1.01zm1.86 0h1.01v1.58h-1.01z"/><path class="cls-28" d="M244.32 299.58h38.41V177.86l-38.41-50.05v171.77z"/><path class="cls-29" d="M241.72 299.58h38.4V175.79l-38.4-61.01v184.8z"/><path class="cls-30" d="M282.73 177.86h-2.61l-38.4-63.08 26.7 3.31 14.31 59.77z"/><path class="cls-31" d="M263.52 299.45l-21.8-165.54v165.67l21.8-.13z"/><path class="cls-32" d="M241.71 274.55h38.41v.44h-38.41zm0 12.1h38.41v.44h-38.41zm0-36.16h38.41v.44h-38.41zm0 11.59h38.41v.44h-38.41zm0-21.43h38.41v.44h-38.41zm0-11.89h38.41v.44h-38.41zm0-11.88h38.41v.44h-38.41zm0-11.89h38.41v.44h-38.41zm0-11.89h38.41v.44h-38.41zm0-11.88h38.41v.44h-38.41zm0-11.89h33.35v.44h-33.35zm0-11.88h26.11v.44h-26.11zm0-11.89h18.74v.44h-18.74zm0-11.88h11.71v.44h-11.71zm0-11.89h4.54v.44h-4.54z"/><path class="cls-31" d="M265.67 117.75l-2.15-2.11-16.42-1.77-1.49 1.4 20.06 2.48z"/><path class="cls-33" d="M269.04 246.21h10.4v1.06h-10.4z"/><path class="cls-34" d="M271.92 246.21h7.52v1.06h-7.52z"/><path class="cls-35" d="M275.68 246.21h3.76v1.06h-3.76z"/><path class="cls-33" d="M243.54 291.36h10.4v1.06h-10.4z"/><path class="cls-34" d="M246.41 291.36h7.52v1.06h-7.52z"/><path class="cls-35" d="M250.17 291.36h3.76v1.06h-3.76z"/><path class="cls-33" d="M243.54 182.39h10.4v1.06h-10.4z"/><path class="cls-34" d="M246.41 182.39h7.52v1.06h-7.52z"/><path class="cls-35" d="M250.17 182.39h3.76v1.06h-3.76z"/><path class="cls-33" d="M271.01 192.92h1.01v1.58h-1.01zm-13.26-8.38h1.01v1.58h-1.01zm17.11 90.2h1.01v1.58h-1.01z"/><path class="cls-35" d="M249.53 218.52h1.01v1.58h-1.01z"/><path class="cls-33" d="M248.23 218.52h1.01v1.58h-1.01z"/><path class="cls-35" d="M271.51 210.98h1.01v1.58h-1.01zm-23.78 66.36h1.01v1.58h-1.01z"/><path class="cls-33" d="M258.75 155.75h1.01v1.58h-1.01zm1.87 0h1.01v1.58h-1.01z"/><path class="cls-36" d="M322.15 230.35c-3 0-18.8 8.41-18.8 18.79h37.59c0-10.38-16.25-18.79-18.79-18.79z"/><path class="cls-37" d="M322.15 230.35c-2.62 0-16.12 8.41-16.12 18.79h32.24c0-10.38-13.94-18.79-16.12-18.79z"/><path class="cls-36" d="M322.15 230.35c-2.47 0-15.18 8.41-15.18 18.79h30.36c0-10.38-13.13-18.79-15.18-18.79z"/><path class="cls-37" d="M322.15 230.35c-1.7 0-10.44 8.41-10.44 18.79h20.88c0-10.38-9.03-18.79-10.44-18.79z"/><path class="cls-36" d="M322.15 230.35c-1.56 0-9.6 8.41-9.6 18.79h19.19c0-10.38-8.3-18.79-9.59-18.79z"/><path class="cls-37" d="M322.15 230.35c-.6 0-3.7 8.41-3.7 18.79h7.4c0-10.38-3.2-18.79-3.7-18.79z"/><path class="cls-36" d="M322.15 230.35c-.47 0-2.87 8.41-2.87 18.79H325c0-10.38-2.47-18.79-2.85-18.79z"/><path class="cls-38" d="M274.19 230.35c-3.05 0-18.8 8.41-18.8 18.79H293c0-10.38-16.27-18.79-18.81-18.79z"/><path class="cls-37" d="M274.19 230.35c-2.62 0-16.12 8.41-16.12 18.79h32.24c0-10.38-13.94-18.79-16.12-18.79z"/><path class="cls-38" d="M274.19 230.35c-2.47 0-15.18 8.41-15.18 18.79h30.36c0-10.38-13.13-18.79-15.18-18.79z"/><path class="cls-37" d="M274.19 230.35c-1.7 0-10.44 8.41-10.44 18.79h20.88c0-10.38-9.03-18.79-10.44-18.79z"/><path class="cls-38" d="M274.19 230.35c-1.56 0-9.6 8.41-9.6 18.79h19.19c0-10.38-8.3-18.79-9.59-18.79z"/><path class="cls-37" d="M274.19 230.35c-.6 0-3.7 8.41-3.7 18.79h7.4c0-10.38-3.2-18.79-3.7-18.79z"/><path class="cls-38" d="M274.19 230.35c-.47 0-2.87 8.41-2.87 18.79h5.73c0-10.38-2.47-18.79-2.86-18.79z"/><path class="cls-39" d="M249.94 253.08h87.82v19.32h-87.82z"/><path fill="url(#_ÂÁ_Ï_ÌÌ_È_ËÂÌÚ_7)" d="M272.01 236.73h52.08v24.53h-52.08z"/><path class="cls-41" d="M264.3 248.04h77.63v21.25H264.3z"/><path class="cls-39" d="M253.17 248.04h79.35v21.25h-79.35z"/><path fill="url(#_ÂÁ_Ï_ÌÌ_È_ËÂÌÚ_7-2)" d="M258.38 248.04h79.35v21.25h-79.35z"/><path class="cls-41" d="M263.2 253.08h83.51v19.32H263.2z"/><path class="cls-41" d="M263 263.58h85.63v36.01H263z"/><path fill="url(#_ÂÁ_Ï_ÌÌ_È_ËÂÌÚ_37)" d="M256.33 253.08h83.51v19.32h-83.51z"/><path class="cls-39" d="M246.81 263.58h94.08v36.01h-94.08z"/><path fill="url(#_ÂÁ_Ï_ÌÌ_È_ËÂÌÚ_7-3)" d="M255.27 263.58h85.63v36.01h-85.63z"/><path class="cls-45" d="M297.73 214c-3.78 0-23.27 10.41-23.27 23.26H321c0-12.89-20.13-23.26-23.27-23.26z"/><path class="cls-46" d="M297.73 214c-3.24 0-20 10.41-20 23.26h39.91c.04-12.89-17.22-23.26-19.91-23.26z"/><path class="cls-45" d="M297.73 214c-3.05 0-18.79 10.41-18.79 23.26h37.58c0-12.89-16.25-23.26-18.79-23.26z"/><path class="cls-46" d="M297.73 214c-2.1 0-12.93 10.41-12.93 23.26h25.85c0-12.89-11.18-23.26-12.92-23.26z"/><path class="cls-45" d="M297.73 214c-1.93 0-11.88 10.41-11.88 23.26h23.75c0-12.89-10.27-23.26-11.87-23.26z"/><path class="cls-46" d="M297.73 214c-.75 0-4.58 10.41-4.58 23.26h9.16c0-12.89-3.96-23.26-4.58-23.26z"/><path class="cls-45" d="M297.73 214c-.58 0-3.55 10.41-3.55 23.26h7.09c0-12.89-3.06-23.26-3.54-23.26z"/><path class="cls-47" d="M294.51 205.24h6.43v9.9h-6.43z"/><path class="cls-47" d="M296.43 199.29h2.59v7.55h-2.59z"/><path class="cls-39" d="M295 252.39a13.73 13.73 0 00-13.73 13.73v33.46h27.46v-33.46A13.73 13.73 0 00295 252.39z"/><path fill="#4f106a" d="M292.84 214.14h9.46v1.64h-9.46z"/><path d="M298.05 252.39a13.73 13.73 0 00-13.73 13.73v33.46h27.46v-33.46a13.73 13.73 0 00-13.73-13.73z" fill="url(#_ÂÁ_Ï_ÌÌ_È_ËÂÌÚ_28)"/><path class="cls-50" d="M298.05 257.27a9.52 9.52 0 00-9.52 9.52v16.13h19.05v-16.13a9.53 9.53 0 00-9.53-9.52z"/><path d="M298.05 260.17a7.08 7.08 0 00-7.08 7.08v32.33h14.17v-32.33a7.08 7.08 0 00-7.09-7.08z" fill="url(#_ÂÁ_Ï_ÌÌ_È_ËÂÌÚ_31)"/><path class="cls-39" d="M245.17 281.58h31.15v2.67h-31.15z"/><path class="cls-52" d="M253.17 281.58h28.14v2.67h-28.14z"/><path class="cls-41" d="M319.72 281.58h30.97v2.67h-30.97z"/><path class="cls-52" d="M311.78 281.58h30.97v2.67h-30.97z"/><path class="cls-53" d="M298.78 284.25h5.12v15.33h-5.12zm6.23 0h5.12v15.33h-5.12zm-12.44-13.65h2.56v10.98h-2.56zm4.01 0h2.56v10.98h-2.56zm4.24 0h2.56v10.98h-2.56zm-8.39 13.65h5.12v15.33h-5.12zm-6.46 0h5.12v15.33h-5.12z"/><path class="cls-54" d="M280.47 236.18h1.41v11.86h-1.41z"/><path class="cls-55" d="M258.07 263.81h17.36v1.9h-17.36z"/><path class="cls-54" d="M288.53 236.18h1.41v11.86h-1.41zm8.48 0h1.41v11.86h-1.41zm8.27 0h1.41v11.86h-1.41zm8.28 0h1.41v11.86h-1.41z"/><path class="cls-41" d="M298.14 261.46a5 5 0 00-5 5h10a5 5 0 00-5-5z"/><path class="cls-37" d="M266.75 256.31a7.44 7.44 0 00-7.44 7.44h14.88a7.44 7.44 0 00-7.44-7.44z"/><path class="cls-16" d="M327.16 256.31a7.44 7.44 0 00-7.44 7.44h14.88a7.44 7.44 0 00-7.44-7.44z"/><path class="cls-39" d="M266.75 258.38a5.26 5.26 0 00-5.26 5.27v16.9H272v-16.9a5.26 5.26 0 00-5.25-5.27zm0 26.9a5.26 5.26 0 00-5.26 5.27v9H272v-9a5.26 5.26 0 00-5.25-5.27zm60.41 0a5.26 5.26 0 00-5.26 5.27v9h10.52v-9a5.27 5.27 0 00-5.26-5.27zM285 239.35a2 2 0 00-2 2v6.55h4v-6.55a2 2 0 00-2-2zm8.39 0a2 2 0 00-2 2v6.55h4.08v-6.55a2 2 0 00-2.08-2zm8.39 0a2 2 0 00-2 2v6.55h4.08v-6.55a2 2 0 00-2.08-2zm8.39 0a2 2 0 00-2 2v6.55h4.08v-6.55a2 2 0 00-2.08-2zm8.39 0a2 2 0 00-2 2v6.55h4.07v-6.55a2 2 0 00-2.07-2zm-41.95 0a2 2 0 00-2 2v6.55h4.08v-6.55a2 2 0 00-2.08-2zm7.71 44.9h27.46v3.23h-27.46z"/><path class="cls-56" d="M281.25 281.58h33.21v2.67h-33.21z"/><path class="cls-57" d="M298.05 257.27a9.52 9.52 0 00-9.52 9.52v6.29a9.53 9.53 0 0119.05 0v-6.29a9.53 9.53 0 00-9.53-9.52z"/><path class="cls-56" d="M283.13 265.11h6.81v1.9h-6.81z"/><path class="cls-16" d="M284.32 267.01h4.21v1.9h-4.21z"/><path class="cls-56" d="M306.35 265.11h6.81v1.9h-6.81z"/><path class="cls-58" d="M318.49 263.81h17.36v1.9h-17.36z"/><path class="cls-16" d="M307.54 267.01h4.21v1.9h-4.21zm-23.14 0h1.74v14.57h-1.74z"/><path class="cls-56" d="M283.84 267.01h1.74v14.57h-1.74z"/><path class="cls-16" d="M310.27 267.01h1.74v14.57h-1.74z"/><path class="cls-56" d="M310.88 267.01h1.74v14.57h-1.74z"/><path class="cls-39" d="M327.16 258.38a5.26 5.26 0 00-5.26 5.27v16.9h10.52v-16.9a5.27 5.27 0 00-5.26-5.27z"/><path class="cls-59" d="M327.27 260.68a3.78 3.78 0 00-3.78 3.78v16.09H331v-16.09a3.77 3.77 0 00-3.73-3.78z"/><path class="cls-60" d="M266.75 260.68a3.78 3.78 0 00-3.78 3.78v16.09h7.56v-16.09a3.78 3.78 0 00-3.78-3.78z"/><path class="cls-61" d="M258.68 265.71h2.81v15.87h-2.81zm13.33 0h2.81v15.87h-2.81z"/><path class="cls-62" d="M319.2 265.71h2.81v15.87h-2.81zm13.33 0h2.81v15.87h-2.81z"/><path class="cls-47" d="M296.43 199.29l-3.28-5A28.52 28.52 0 01297 196c.4.4.56 3.3.56 3.3zm2.44 0l3.28-5a28.52 28.52 0 00-3.86 1.69c-.4.4-.56 3.3-.56 3.3z"/><ellipse cx="291.1" cy="277.47" rx="45.23" ry="43.57" style="mix-blend-mode:color-dodge" fill="url(#_ÂÁ_Ï_ÌÌ_È_ËÂÌÚ_92)"/><ellipse cx="291.44" cy="293.1" rx="37.64" ry="36.26" style="mix-blend-mode:color-dodge" fill="url(#_ÂÁ_Ï_ÌÌ_È_ËÂÌÚ_92-2)"/><path fill="url(#_ÂÁ_Ï_ÌÌ_È_ËÂÌÚ_97)" d="M423.63 291.4v-8.08h-6.04v-7.77h-5.82v-7.94h-47.98v7.94h-5.82v7.77h-6.04v8.08h-6.04v8.07h83.78v-8.07h-6.04z"/><path class="cls-66" d="M363.79 267.61h47.97v.56h-47.97zm-5.82 7.94h59.61v.7h-59.61zm-6.04 7.72h71.7v.7h-71.7zm-6.04 8.13h83.79v.7h-83.79z"/><path class="cls-67" d="M400.58 299.47H377.3l4.7-31.86h11.64l6.94 31.86z"/><path class="cls-66" d="M398.64 299.47h-19.4l3.92-31.86h9.7l5.78 31.86z"/><path class="cls-67" d="M394.32 275.68h-12.15l.09-.76h11.92l.14.76zm0-2.33h-12.15l.09-.77h11.92l.14.77zm0-2.3h-12.15l.09-.77h11.92l.14.77zm-.71-2.11h-11.44l.08-.76h11.23l.13.76zm1.6 9.24h-13.93l.11-.77h13.66l.16.77zm.63 2.49h-15.2l.12-.76h14.91l.17.76zm0 2.5h-15.2l.12-.77h14.91l.17.77zm.6 2.49h-15.8l.13-.76h15.49l.18.76zm.44 2.5h-16.94l.13-.77h16.62l.19.77zm.54 2.49h-18.36l.15-.77h18l.21.77zm.45 2.5h-18.81l.15-.77h18.45l.21.77zm.54 2.49h-19.8l.15-.76h19.43l.22.76zm.23 2.5h-20.79l.16-.77h20.39l.24.77z"/><path class="cls-68" d="M382 267.61l-10.68 31.86h5.98l4.7-31.86z"/><path class="cls-69" d="M402.33 292.76h24.45v5.37h-24.45zm4.81-7.48h10.44v4.91h-10.44zm-7.49-8.17h6.15v4.91h-6.15zm-52.41 15.7h20.25v4.91h-20.25zm49.33-23.45h6.15v4.91h-6.15zm-42.36 16.3h18.46v4.52h-18.46z"/><path style="mix-blend-mode:color-dodge" fill="url(#_ÂÁ_Ï_ÌÌ_È_ËÂÌÚ_88)" opacity=".5" d="M340.28 244.53h89.39v54.55h-89.39z"/><path style="mix-blend-mode:screen" fill="url(#_ÂÁ_Ï_ÌÌ_È_ËÂÌÚ_69-3)" opacity=".5" d="M340.28 168.87h68.24v130.21h-68.24z"/><path style="mix-blend-mode:color-dodge" fill="url(#_ÂÁ_Ï_ÌÌ_È_ËÂÌÚ_69-4)" opacity=".5" d="M340.28 168.87h78.55v130.21h-78.55z"/><path style="mix-blend-mode:screen" fill="url(#_ÂÁ_Ï_ÌÌ_È_ËÂÌÚ_69-5)" opacity=".5" d="M388.68 168.87h12.6v130.21h-12.6z"/><path style="mix-blend-mode:screen" fill="url(#_ÂÁ_Ï_ÌÌ_È_ËÂÌÚ_69-6)" opacity=".5" d="M347.91 168.87h12.6v130.21h-12.6z"/><path style="mix-blend-mode:screen" fill="url(#_ÂÁ_Ï_ÌÌ_È_ËÂÌÚ_69-7)" opacity=".5" d="M372.45 168.87h4.29v130.21h-4.29z"/><path fill="url(#_ÂÁ_Ï_ÌÌ_È_ËÂÌÚ_99-4)" d="M144.44 152.19h46.18v143.79h-46.18z"/><path class="cls-31" d="M158.18 227.91h24.85v71.61h-24.85z"/><path transform="rotate(180 420.945 235.67)" fill="url(#_ÂÁ_Ï_ÌÌ_È_ËÂÌÚ_123)" d="M416.81 199.01h8.26v73.31h-8.26z"/><path fill="url(#_ÂÁ_Ï_ÌÌ_È_ËÂÌÚ_7-4)" d="M425.07 255h-8.26l-.4-.61h9.07l-.41.61z"/><path fill="url(#_ÂÁ_Ï_ÌÌ_È_ËÂÌÚ_7-5)" d="M425.07 234.92h-8.26l-.4-.62h9.07l-.41.62z"/><path fill="url(#_ÂÁ_Ï_ÌÌ_È_ËÂÌÚ_7-6)" d="M425.07 216.36h-8.26l-.4-.61h9.07l-.41.61z"/><path class="cls-81" d="M416.41 252.19h9.08v2.2h-9.08zm0-19.29h9.08v1.4h-9.08zm0-18.56h9.08v1.4h-9.08z"/><path class="cls-31" d="M428.92 273.36l1.16-4.46-.91-1.14.39-4.22-3.71-.8 1.24 5.22-.59 1.53 1.05 3.6 1.37.27z"/><path class="cls-31" d="M427.65 262.57c.07.72.45 1.28.85 1.24s.66-.65.59-1.38-.45-1.28-.85-1.24-.66.65-.59 1.38z"/><path class="cls-82" d="M413.39 273.38l-1.27-4.44.88-1.16-.48-4.21 3.7-.88-1.13 5.25.63 1.51-.97 3.62-1.36.31z"/><path class="cls-82" d="M414.41 262.56c-.05.73-.42 1.29-.82 1.26s-.67-.64-.62-1.37.42-1.29.82-1.26.68.64.62 1.37z"/><path class="cls-31" d="M407.76 281.43h26.37v18.1h-26.37z"/><path class="cls-31" d="M406.81 297.11h28.27v2.41h-28.27z"/><path class="cls-83" d="M406.81 297.12l.95-.63h26.37l.95.63h-28.27z"/><path class="cls-31" transform="rotate(180 420.945 280.115)" d="M406.81 278.91h28.27v2.41h-28.27z"/><path class="cls-31" transform="rotate(180 420.945 276.805)" d="M410.61 274.05h20.67v5.52h-20.67z"/><path class="cls-83" d="M435.08 281.32l-.95.63h-26.37l-.95-.63h28.27z"/><path class="cls-81" d="M420.79 276.66c-4.46 0-8.07 2.44-8.07 5.45v17.5h16.13v-17.5c0-3.01-3.61-5.45-8.06-5.45z"/><path class="cls-6" d="M420.79 278.17c-3.66 0-6.62 2.15-6.62 4.79v15.38h13.24V283c0-2.68-2.96-4.83-6.62-4.83z"/><path fill="url(#_ÂÁ_Ï_ÌÌ_È_ËÂÌÚ_7-7)" d="M410.61 274.05l6.9-2.08h6.87l6.9 2.08h-20.67z"/><path class="cls-85" d="M416.81 198.89l-3.03-4.89h14.18l-2.89 4.89h-8.26z"/><path class="cls-86" d="M413.78 185.67h14.17v8.32h-14.17z"/><path class="cls-86" d="M416.85 177.92h8.03v8.32h-8.03zm-3.07 5.65h1.84v2.11h-1.84zm12.34 0h1.84v2.11h-1.84z"/><path class="cls-85" d="M420.94 179.5a1.49 1.49 0 00-1.46 1.51v4.85h2.93V181a1.49 1.49 0 00-1.47-1.5z"/><path class="cls-86" d="M419.77 178.05l-1.64-3.88-.42-1.22 2.06-4.13v-1.21l-1.03-2.07 5.08-1.03-1.15 3.19v1.03l1.15 3.93-2.48 5.39h-1.57z"/><path class="cls-86" d="M421.84 163.76c0 1-.48 1.87-1.08 1.87s-1.07-.83-1.07-1.87.48-1.86 1.07-1.86 1.08.83 1.08 1.86zm-2.65 1.87s-1.81-1.69-3.39-3.28-4.14-6.34-4.14-6.34l.34 7.75 2.59 6.24 5.93-1.15zm4.14-.52s2-4.31 1.61-6.55-1.12-4.65-1.12-4.65l4.22 8-1.76 5.74-3.61.06z"/><path fill="url(#_ÂÁ_Ï_ÌÌ_È_ËÂÌÚ_52)" d="M172.59 112.1h58.55v187.16h-58.55z"/><path class="cls-28" d="M220.98 125.52h4.99v173.74h-4.99z"/><path class="cls-32" d="M175.21 125.52h.45v173.74h-.45zm7.59 0h.45v173.74h-.45zm7.59 0h.45v173.74h-.45zm7.59 0h.45v173.74h-.45zm7.6 0h.45v173.74h-.45zm7.59 0h.45v173.74h-.45zm7.59 0h.45v173.74h-.45zm7.59 0h.45v173.74h-.45z"/><path class="cls-30" d="M201.63 141.45a29.51 29.51 0 0029.5-29.51h-59a29.51 29.51 0 0029.5 29.51z"/><path class="cls-33" d="M209.18 237.9h10.4v1.06h-10.4z"/><path class="cls-34" d="M212.06 237.9h7.52v1.06h-7.52z"/><path class="cls-35" d="M215.82 237.9h3.76v1.06h-3.76z"/><path class="cls-33" d="M183.68 283.05h10.4v1.06h-10.4z"/><path class="cls-34" d="M186.55 283.05h7.52v1.06h-7.52z"/><path class="cls-35" d="M190.31 283.05h3.76v1.06h-3.76z"/><path class="cls-33" d="M183.68 174.08h10.4v1.06h-10.4z"/><path class="cls-34" d="M186.55 174.08h7.52v1.06h-7.52z"/><path class="cls-35" d="M190.31 174.08h3.76v1.06h-3.76z"/><path class="cls-33" d="M211.15 184.62h1.01v1.58h-1.01zm11.82-2.73h1.01v1.58h-1.01zm-25.08-5.66h1.01v1.58h-1.01zm26.98 14.1h1.01v1.58h-1.01zm-1.39 76.78h1.01v1.58h-1.01zm-8.48-.67h1.01v1.58H215z"/><path class="cls-35" d="M189.67 210.21h1.01v1.58h-1.01z"/><path class="cls-33" d="M188.37 210.21h1.01v1.58h-1.01z"/><path class="cls-35" d="M215.5 159.34h1.01v1.58h-1.01zm6.97 9.89h1.01v1.58h-1.01zm-34.6 99.8h1.01v1.58h-1.01z"/><path class="cls-33" d="M198.89 147.44h1.01v1.58h-1.01zm1.87 0h1.01v1.58h-1.01z"/><path d="M192.5 236.5c-2.11 0-13 5.82-13 13h26c.01-7.18-11.24-13-13-13z" fill="url(#_ÂÁ_Ï_ÌÌ_È_ËÂÌÚ_141)"/><path d="M190.13 236.5c-2.11 0-13 5.82-13 13h26c.01-7.18-11.24-13-13-13z" fill="url(#_ÂÁ_Ï_ÌÌ_È_ËÂÌÚ_141-2)"/><path class="cls-35" d="M189.12 270.32a12.33 12.33 0 00-10.63 12.2v17h-3.38v-17a12.31 12.31 0 0112.32-12.31 11.89 11.89 0 011.69.11z"/><path fill="url(#_ÂÁ_Ï_ÌÌ_È_ËÂÌÚ_141-3)" d="M173.37 249.51h34.94v14.09h-34.94z"/><path class="cls-31" d="M173.37 249.51h32.51v14.09h-32.51z"/><path class="cls-91" d="M175.55 249.51h25.35v14.09h-25.35z"/><path class="cls-92" d="M177.09 249.51h23.81v14.09h-23.81z"/><path class="cls-93" d="M191.59 270.32a12.33 12.33 0 00-10.59 12.2v17h-3.39v-17a12.32 12.32 0 0112.32-12.31 11.7 11.7 0 011.66.11z"/><path fill="url(#_ÂÁ_Ï_ÌÌ_È_ËÂÌÚ_141-4)" d="M180.19 256.15h30.09v9.87h-30.09z"/><path class="cls-31" d="M204.37 256.15h2.27v9.87h-2.27z"/><path class="cls-47" d="M175.11 256.15h29.26v9.87h-29.26z"/><path d="M212.05 264.58v34.94h-8.92v-17a12.31 12.31 0 00-12.32-12.31 11.8 11.8 0 00-1.69.11 11.89 11.89 0 00-1.69-.11 12.31 12.31 0 00-12.32 12.31v17h-2.76v-34.94z" fill="url(#_ÂÁ_Ï_ÌÌ_È_ËÂÌÚ_18)"/><path class="cls-96" d="M205.89 264.58v34.94h-6.14v-17a12.33 12.33 0 00-10.63-12.2 11.89 11.89 0 00-1.69-.11 12.31 12.31 0 00-12.32 12.31v17H169v-34.94z"/><path class="cls-96" d="M172.26 256.15h30.09v9.87h-30.09z"/><path class="cls-31" d="M182.33 250.47a1.4 1.4 0 00-1.32 1.47v4.71h2.65v-4.71a1.4 1.4 0 00-1.33-1.47zm4.42 0a1.4 1.4 0 00-1.32 1.47v4.71h2.65v-4.71a1.4 1.4 0 00-1.33-1.47zm4.42 0a1.41 1.41 0 00-1.33 1.47v4.71h2.66v-4.71a1.41 1.41 0 00-1.33-1.47zm4.42 0a1.4 1.4 0 00-1.33 1.47v4.71h2.66v-4.71a1.41 1.41 0 00-1.33-1.47z"/><path fill="url(#_ÂÁ_Ï_ÌÌ_È_ËÂÌÚ_141-5)" d="M188.08 237.18h8.22v1.08h-8.22z"/><path class="cls-92" d="M186.04 237.18h8.22v1.08h-8.22z"/><path fill="url(#_ÂÁ_Ï_ÌÌ_È_ËÂÌÚ_141-6)" d="M189.44 233.98h6.13v3.2h-6.13z"/><path class="cls-92" d="M187.3 233.98h6.13v3.2h-6.13zm-9.72 12.87h27.44v.12h-27.44zm1.06-2.14h25.29v.12h-25.29zm1.55-2.01h22.39v.12h-22.39zm2.55-2.38h17.02v.12h-17.02z"/><ellipse cx="177.58" cy="292.43" rx="35.18" ry="33.88" style="mix-blend-mode:color-dodge" fill="url(#_ÂÁ_Ï_ÌÌ_È_ËÂÌÚ_125)"/><path class="cls-31" d="M463.81 102.49H494v17.04h-30.19z"/><path class="cls-29" d="M451.48 102.49h30.19v17.04h-30.19z"/><path class="cls-31" d="M461.84 110.6h36.87v171.28h-36.87z"/><path class="cls-29" d="M446.78 110.6h36.87v171.28h-36.87z"/><path class="cls-31" d="M460.21 128.38h42.38v171.28h-42.38z"/><path class="cls-29" d="M442.9 128.38h42.38v171.28H442.9z"/><path class="cls-31" d="M455.5 110.6h15.15v17.78H455.5z"/><path class="cls-31" d="M459.51 119.49h9.5V300.3h-9.5z"/><path class="cls-100" d="M457.07 119.49h9.5V300.3h-9.5z"/><path class="cls-101" d="M481.67 128.38h3.6v171.28h-3.6z"/><path class="cls-102" d="M500.32 128.38h2.26v171.28h-2.26z"/><path class="cls-100" d="M442.9 128.38h1.94v171.53h-1.94z"/><path fill="url(#_ÂÁ_Ï_ÌÌ_È_ËÂÌÚ_100)" d="M95.07 132.4h63.73v167.07H95.07z"/><path class="cls-104" d="M108.15 141.22h50.36v.45h-50.36zm0 11.45h50.36v.45h-50.36zm0 11.45h50.36v.45h-50.36zm0 11.44h50.36v.45h-50.36zm0 11.45h50.36v.45h-50.36zm0 11.45h50.36v.45h-50.36zm0 11.44h50.36v.45h-50.36zm0 11.45h50.36v.45h-50.36zm0 11.45h50.36v.45h-50.36zm0 11.45h50.36v.45h-50.36zm0 11.44h50.36v.45h-50.36zm0 11.45h50.36v.45h-50.36zm0 11.45h50.36v.45h-50.36zm0 11.44h50.36v.45h-50.36z"/><path class="cls-31" d="M67.93 132.4h63.73v167.07H67.93z"/><path class="cls-31" d="M114.37 130.74h30.07v169.07h-30.07z"/><path class="cls-105" d="M118.29 130.74h30.07v169.07h-30.07z"/><path class="cls-106" d="M122.23 110.1h18.85v189.7h-18.85z"/><path class="cls-100" d="M124.69 110.1h18.85v189.7h-18.85z"/><path class="cls-106" d="M134.17 110.1h2.89v189.7h-2.89z"/><path fill="url(#_ÂÁ_Ï_ÌÌ_È_ËÂÌÚ_68)" d="M67.93 141.22h50.36v.45H67.93z"/><path fill="url(#_ÂÁ_Ï_ÌÌ_È_ËÂÌÚ_68-2)" d="M67.93 152.67h50.36v.45H67.93z"/><path fill="url(#_ÂÁ_Ï_ÌÌ_È_ËÂÌÚ_68-3)" d="M67.93 164.12h50.36v.45H67.93z"/><path fill="url(#_ÂÁ_Ï_ÌÌ_È_ËÂÌÚ_68-4)" d="M67.93 175.56h50.36v.45H67.93z"/><path fill="url(#_ÂÁ_Ï_ÌÌ_È_ËÂÌÚ_68-5)" d="M67.93 187.01h50.36v.45H67.93z"/><path fill="url(#_ÂÁ_Ï_ÌÌ_È_ËÂÌÚ_68-6)" d="M67.93 198.46h50.36v.45H67.93z"/><path fill="url(#_ÂÁ_Ï_ÌÌ_È_ËÂÌÚ_68-7)" d="M67.93 209.9h50.36v.45H67.93z"/><path fill="url(#_ÂÁ_Ï_ÌÌ_È_ËÂÌÚ_68-8)" d="M67.93 221.35h50.36v.45H67.93z"/><path fill="url(#_ÂÁ_Ï_ÌÌ_È_ËÂÌÚ_68-9)" d="M67.93 232.8h50.36v.45H67.93z"/><path fill="url(#_ÂÁ_Ï_ÌÌ_È_ËÂÌÚ_68-10)" d="M67.93 244.25h50.36v.45H67.93z"/><path fill="url(#_ÂÁ_Ï_ÌÌ_È_ËÂÌÚ_68-11)" d="M67.93 255.69h50.36v.45H67.93z"/><path fill="url(#_ÂÁ_Ï_ÌÌ_È_ËÂÌÚ_68-12)" d="M67.93 267.14h50.36v.45H67.93z"/><path fill="url(#_ÂÁ_Ï_ÌÌ_È_ËÂÌÚ_68-13)" d="M67.93 278.59h50.36v.45H67.93z"/><path fill="url(#_ÂÁ_Ï_ÌÌ_È_ËÂÌÚ_68-14)" d="M67.93 290.03h50.36v.45H67.93z"/><path class="cls-121" d="M119.3 263.95h24.73v35.13H119.3z"/><path class="cls-6" d="M112.33 263.95h24.73v35.13h-24.73z"/><path class="cls-33" d="M77.75 182.15h26.23v1.07H77.75z"/><path class="cls-34" d="M85.01 182.15h18.98v1.07H85.01z"/><path class="cls-35" d="M94.49 182.15h9.49v1.07h-9.49z"/><path class="cls-33" d="M103.7 193.21h1.01v1.58h-1.01z"/><path class="cls-122" d="M129.17 192.53h1.01v1.58h-1.01zm-3.24 38.91h1.01v1.58h-1.01zm.5-73.77h1.01v1.58h-1.01zm10.12-26.06h1.01v1.58h-1.01z"/><path class="cls-33" d="M104.21 147.04h1.01v1.58h-1.01z"/><path class="cls-35" d="M103.7 261.51h1.01v1.58h-1.01zm10.76 10.1h1.01v1.58h-1.01zm14.21 9.12h1.01v1.58h-1.01zm22.67-110.71h1.01v1.58h-1.01zm2.28-32.85h1.01v1.58h-1.01zm-1.01 56.04h1.01v1.58h-1.01zm-.77 46.39h1.01v1.58h-1.01zm-72.65-76.05h1.01v1.58h-1.01z"/><path class="cls-33" d="M72.84 226.7h26.23v1.06H72.84z"/><path class="cls-34" d="M80.09 226.7h18.98v1.06H80.09z"/><path class="cls-35" d="M89.58 226.7h9.49v1.06h-9.49z"/><path class="cls-33" d="M98.79 237.76h1.01v1.58h-1.01zm2.12 0h1.01v1.58h-1.01zm24.51 47.89h1.01v1.58h-1.01zm24.57-115.63H151v1.58h-1.01zm.51 82.75h1.01v1.58h-1.01zm-73.75 7.7h1.01v1.58h-1.01zm63.33 19.29h1.01v1.58h-1.01zM471 238.29h10.4v1.06H471z"/><path class="cls-34" d="M473.88 238.29h7.52v1.06h-7.52z"/><path class="cls-35" d="M477.64 238.29h3.76v1.06h-3.76z"/><path class="cls-33" d="M445.49 283.44h10.4v1.07h-10.4z"/><path class="cls-34" d="M448.37 283.44h7.52v1.07h-7.52z"/><path class="cls-35" d="M452.13 283.44h3.76v1.07h-3.76z"/><path class="cls-33" d="M445.49 174.47h10.4v1.07h-10.4z"/><path class="cls-34" d="M448.37 174.47h7.52v1.07h-7.52z"/><path class="cls-35" d="M452.13 174.47h3.76v1.07h-3.76z"/><path class="cls-33" d="M472.97 185h1.01v1.58h-1.01zm-13.27-8.38h1.01v1.58h-1.01zm17.11 90.2h1.01v1.58h-1.01z"/><path class="cls-35" d="M451.48 210.59h1.01v1.58h-1.01z"/><path class="cls-33" d="M450.19 210.59h1.01v1.58h-1.01z"/><path class="cls-35" d="M477.32 159.72h1.01v1.58h-1.01zm-27.64 109.7h1.01V271h-1.01z"/><path class="cls-33" d="M460.71 147.83h1.01v1.58h-1.01zm1.86 0h1.01v1.58h-1.01z"/><path class="cls-35" d="M451.48 102.49h30.19v8.11h-30.19z"/><path class="cls-33" d="M457.07 102.49h24.6v8.11h-24.6zM44.28 295.44a3.64 3.64 0 00-3.64 3.64h7.28a3.64 3.64 0 00-3.64-3.64zm39.45 0a3.64 3.64 0 00-3.64 3.64h7.29a3.65 3.65 0 00-3.65-3.64zm486.41 0a3.65 3.65 0 00-3.65 3.64h7.29a3.64 3.64 0 00-3.64-3.64zm-69.04 0a3.64 3.64 0 00-3.64 3.64h7.28a3.64 3.64 0 00-3.64-3.64z"/><path fill="url(#_ÂÁ_Ï_ÌÌ_È_ËÂÌÚ_168)" d="M0 299.08h600V400H0z"/><path class="cls-124" d="M217.81 295.64a5.76 5.76 0 11-5.76-5.75 5.76 5.76 0 015.76 5.75z"/><path class="cls-125" d="M264.17 297.54a3.48 3.48 0 11-3.48-3.47 3.47 3.47 0 013.48 3.47zm-95.24 0a3.47 3.47 0 11-3.47-3.47 3.47 3.47 0 013.47 3.47z"/><circle class="cls-124" cx="199.47" cy="298.71" r="1.74"/><path class="cls-126" d="M209.17 297a2.67 2.67 0 11-2.66-2.66 2.66 2.66 0 012.66 2.66z"/><path class="cls-124" d="M164.51 295.26a5.76 5.76 0 11-5.75-5.76 5.74 5.74 0 015.75 5.76zm-29.02 2.88a2.17 2.17 0 11-2.16-2.17 2.16 2.16 0 012.16 2.17zm12.42.19a1.74 1.74 0 11-1.73-1.74 1.74 1.74 0 011.73 1.74z"/><circle class="cls-126" cx="153.21" cy="296.59" r="2.66"/><path class="cls-126" d="M259.88 297a2.66 2.66 0 11-2.66-2.66 2.66 2.66 0 012.66 2.66z"/><path class="cls-124" d="M402.31 295.64a5.76 5.76 0 11-5.76-5.75 5.76 5.76 0 015.76 5.75z"/><path class="cls-125" d="M448.67 297.54a3.48 3.48 0 11-3.48-3.47 3.47 3.47 0 013.48 3.47zm-95.24 0a3.47 3.47 0 11-3.47-3.47 3.47 3.47 0 013.47 3.47z"/><circle class="cls-124" cx="383.97" cy="298.71" r="1.74"/><path class="cls-126" d="M393.67 297a2.67 2.67 0 11-2.66-2.66 2.66 2.66 0 012.66 2.66z"/><path class="cls-124" d="M349 295.26a5.76 5.76 0 11-5.75-5.76 5.74 5.74 0 015.75 5.76zm-29 2.88a2.17 2.17 0 11-2.16-2.17 2.16 2.16 0 012.16 2.17zm12.41.19a1.74 1.74 0 11-1.73-1.74 1.73 1.73 0 011.73 1.74z"/><circle class="cls-126" cx="337.71" cy="296.59" r="2.66"/><path class="cls-126" d="M444.38 297a2.66 2.66 0 11-2.66-2.66 2.66 2.66 0 012.66 2.66z"/><path class="cls-124" d="M542.84 295.64a5.76 5.76 0 11-5.75-5.75 5.75 5.75 0 015.75 5.75z"/><path class="cls-125" d="M589.2 297.54a3.48 3.48 0 11-3.47-3.47 3.47 3.47 0 013.47 3.47zm-95.2 0a3.48 3.48 0 11-3.47-3.47 3.47 3.47 0 013.47 3.47z"/><circle class="cls-124" cx="524.51" cy="298.71" r="1.74"/><path class="cls-126" d="M534.2 297a2.66 2.66 0 11-2.66-2.66 2.66 2.66 0 012.66 2.66z"/><path class="cls-124" d="M489.55 295.26a5.76 5.76 0 11-5.76-5.76 5.75 5.75 0 015.76 5.76zm-29.02 2.88a2.17 2.17 0 11-2.17-2.17 2.17 2.17 0 012.17 2.17zm12.47.19a1.74 1.74 0 11-1.74-1.74 1.74 1.74 0 011.74 1.74z"/><circle class="cls-126" cx="478.25" cy="296.59" r="2.66"/><path class="cls-126" d="M584.92 297a2.67 2.67 0 11-2.67-2.66 2.67 2.67 0 012.67 2.66z"/><path class="cls-124" d="M134.51 295.64a5.76 5.76 0 11-5.76-5.75 5.76 5.76 0 015.76 5.75z"/><path class="cls-125" d="M180.87 297.54a3.48 3.48 0 11-3.48-3.47 3.47 3.47 0 013.48 3.47zm-95.23 0a3.48 3.48 0 11-3.48-3.47 3.47 3.47 0 013.48 3.47z"/><path class="cls-124" d="M117.91 298.71a1.74 1.74 0 11-1.74-1.74 1.74 1.74 0 011.74 1.74z"/><path class="cls-126" d="M125.87 297a2.66 2.66 0 11-2.66-2.66 2.66 2.66 0 012.66 2.66z"/><path class="cls-124" d="M81.21 295.26a5.76 5.76 0 11-5.75-5.76 5.74 5.74 0 015.75 5.76z"/><circle class="cls-124" cx="50.03" cy="298.14" r="2.17"/><path class="cls-124" d="M64.61 298.33a1.74 1.74 0 11-1.73-1.74 1.73 1.73 0 011.73 1.74z"/><circle class="cls-126" cx="69.91" cy="296.59" r="2.66"/><path class="cls-126" d="M176.58 297a2.66 2.66 0 11-2.66-2.66 2.66 2.66 0 012.66 2.66z"/><g opacity=".2"><path class="cls-5" d="M310.16 374.4c0-.34.19-.61.42-.61s.41.27.41.61-.19.62-.41.62-.42-.28-.42-.62z"/><ellipse class="cls-5" cx="273.21" cy="345.13" rx=".41" ry=".61"/><path class="cls-5" d="M324.8 375.85c0-.34.19-.61.41-.61s.42.27.42.61-.19.62-.42.62-.41-.28-.41-.62z"/><path fill="url(#_ÂÁ_Ï_ÌÌ_È_ËÂÌÚ_103-2)" d="M600 349.76h-23.35v68.38h-208.3v169.58H335.8V445.53h-45.49v165.76l-30.23 18.94-13.27-17.94v-96.42H54.92V399.75H0V299.31h600v50.45z"/><path class="cls-8" transform="rotate(180 50.44 448.815)" d="M36.9 300.72h27.08v296.2H36.9z"/><path class="cls-9" transform="rotate(180 58.215 448.815)" d="M44.68 300.72h27.08v296.2H44.68z"/><path class="cls-9" d="M33.49 299.31h24.73v47.1H33.49z"/><path class="cls-8" d="M26.52 299.31h24.73v47.1H26.52zm506.89-2.35h36.72v160.81h-36.72z"/><path class="cls-9" d="M526.27 296.96h36.72v160.81h-36.72z"/><path class="cls-8" d="M413.96 300.72h29.67v296.2h-29.67z"/><path class="cls-9" d="M405.44 300.72h29.67v296.2h-29.67z"/><path class="cls-10" d="M431.95 377.8h1.01v2.34h-1.01zm-27.13-3.85h1.01v2.34h-1.01zm144.73 5.33h1.01v2.34h-1.01zm-13.26 12.45h1.01v2.34h-1.01zm16.61-76.8h1.01v2.34h-1.01zm-16.61 48.62h1.01v2.34h-1.01zm0-19.04h1.01v2.34h-1.01zm2.37-37.56h1.01v2.34h-1.01zM57.71 364.56h1.01v2.34h-1.01zm-2.79 30.25h1.01v2.34h-1.01z"/><path fill="url(#_ÂÁ_Ï_ÌÌ_È_ËÂÌÚ_99-5)" d="M229.99 298.24h30.1v174.54h-30.1z"/><path fill="url(#_ÂÁ_Ï_ÌÌ_È_ËÂÌÚ_81-2)" d="M522.7 300.67h-40.23V518.8l40.23 20.23V300.67z"/><path fill="url(#_ÂÁ_Ï_ÌÌ_È_ËÂÌÚ_87-2)" d="M482.47 298.74h40.23v200.89h-40.23z"/><path class="cls-14" d="M517.2 336.83h1.01v2.34h-1.01zm-27.13-3.85h1.01v2.34h-1.01z"/><path class="cls-17" d="M346.05 332.31h-17.68v123.01h2.8l-.01 13.16 2.56-.03.01 11.53 2.03.1.04 10.52 2.51-.07v13.45h1.82l5.92-171.67z"/><path fill="url(#_ÂÁ_Ï_ÌÌ_È_ËÂÌÚ_99-6)" d="M347.87 332.31H330.2v123.01h2.79l-.01 13.16 2.56-.03.01 11.53 2.03.1.04 10.52 2.51-.07v13.45l7.74-9.61V332.31z"/><path class="cls-17" d="M294.82 332.31h17.68v123.01h-2.8l.02 13.16-2.56-.03-.02 11.53-2.03.1-.04 10.52-2.5-.07v13.45h-1.55l-6.2-171.67z"/><path fill="url(#_ÂÁ_Ï_ÌÌ_È_ËÂÌÚ_99-7)" d="M293.27 332.31h17.68v123.01h-2.8l.02 13.16-2.56-.03-.02 11.53-2.03.1-.04 10.52-2.5-.07v13.45l-7.75-9.61V332.31z"/><path class="cls-16" d="M312.5 332.31h15.87v123.01H312.5z"/><path class="cls-134" d="M285.38 330.37h70.44v181.36h-70.44z"/><path class="cls-134" d="M285.38 330.37h70.44v181.36h-70.44z"/><path fill="url(#_ÂÁ_Ï_ÌÌ_È_ËÂÌÚ_91-5)" d="M368.79 298.53v246.06l41.14-93.39V299.31l-41.14-.78z"/><path class="cls-22" d="M368.79 544.59h-4.69l1.38-246.02 3.31-.04v246.06z"/><path fill="url(#_ÂÁ_Ï_ÌÌ_È_ËÂÌÚ_91-6)" d="M364.1 544.59l-9.92-88.24V298.57h11.3l-1.38 246.02z"/><path fill="url(#_ÂÁ_Ï_ÌÌ_È_ËÂÌÚ_91-7)" d="M414.73 397.58l-40.51-32.03v-67.02l38.47.21 2.04 98.84z"/><path class="cls-25" d="M374.22 365.55l7.5-2.14 33.01 34.17-4.8 3.79-35.71-35.82z"/><path class="cls-26" d="M374.22 298.53h7.5v64.88l-7.5 2.14v-67.02zm-12.55-.29v66.5l-4.98-2.73V298.5l4.98-.26z"/><path class="cls-25" d="M361.67 364.74l-7.49 27.97-4.91-1.51 7.42-29.19 4.98 2.73z"/><path fill="url(#_ÂÁ_Ï_ÌÌ_È_ËÂÌÚ_91-8)" d="M356.69 298.5h-7.42v92.7l7.42-29.19V298.5z"/><path class="cls-14" d="M394.98 311.59h1.01v2.34h-1.01zm-25.34 83.49h1.01v2.34h-1.01zm23.47-38.95h1.01v2.34h-1.01zm-24.76 38.95h1.01v2.34h-1.01zm-13.38-49.04h1.01v2.34h-1.01zm12.88-38.3h1.01v2.34h-1.01z"/><path class="cls-28" d="M244.32 298.57h38.41v180.74l-38.41 74.32V298.57z"/><path class="cls-29" d="M241.72 298.57h38.4v183.81l-38.4 90.58V298.57z"/><path class="cls-31" d="M263.52 298.77l-21.8 245.79V298.57l21.8.2z"/><path class="cls-32" d="M241.71 335.14h38.41v.53h-38.41zm0-17.96h38.41v.53h-38.41zm0 53.7h38.41v.53h-38.41zm0-17.22h38.41v.53h-38.41zm0 31.83h38.41v.53h-38.41z"/><path class="cls-33" d="M269.04 376.24h10.4v1.58h-10.4z"/><path class="cls-34" d="M271.92 376.24h7.52v1.58h-7.52z"/><path class="cls-35" d="M275.68 376.24h3.76v1.58h-3.76z"/><path class="cls-33" d="M243.54 309.2h10.4v1.58h-10.4z"/><path class="cls-34" d="M246.41 309.2h7.52v1.58h-7.52z"/><path class="cls-35" d="M250.17 309.2h3.76v1.58h-3.76z"/><path class="cls-33" d="M274.86 333.11h1.01v2.34h-1.01z"/><path class="cls-35" d="M247.73 329.26h1.01v2.34h-1.01z"/><path class="cls-139" d="M322.15 401.37c-3 0-18.8-12.49-18.8-27.91h37.59c0 15.42-16.25 27.91-18.79 27.91z"/><path class="cls-37" d="M322.15 401.37c-2.62 0-16.12-12.49-16.12-27.91h32.24c0 15.42-13.94 27.91-16.12 27.91z"/><path class="cls-139" d="M322.15 401.37c-2.47 0-15.18-12.49-15.18-27.91h30.36c0 15.42-13.13 27.91-15.18 27.91z"/><path class="cls-37" d="M322.15 401.37c-1.7 0-10.44-12.49-10.44-27.91h20.88c0 15.42-9.03 27.91-10.44 27.91z"/><path class="cls-139" d="M322.15 401.37c-1.56 0-9.6-12.49-9.6-27.91h19.19c0 15.42-8.3 27.91-9.59 27.91z"/><path class="cls-37" d="M322.15 401.37c-.6 0-3.7-12.49-3.7-27.91h7.4c0 15.42-3.2 27.91-3.7 27.91z"/><path class="cls-139" d="M322.15 401.37c-.47 0-2.87-12.49-2.87-27.91H325c0 15.42-2.47 27.91-2.85 27.91z"/><path class="cls-140" d="M274.19 401.37c-3.05 0-18.8-12.49-18.8-27.91H293c0 15.42-16.27 27.91-18.81 27.91z"/><path class="cls-37" d="M274.19 401.37c-2.62 0-16.12-12.49-16.12-27.91h32.24c0 15.42-13.94 27.91-16.12 27.91z"/><path class="cls-140" d="M274.19 401.37c-2.47 0-15.18-12.49-15.18-27.91h30.36c0 15.42-13.13 27.91-15.18 27.91z"/><path class="cls-37" d="M274.19 401.37c-1.7 0-10.44-12.49-10.44-27.91h20.88c0 15.42-9.03 27.91-10.44 27.91z"/><path class="cls-140" d="M274.19 401.37c-1.56 0-9.6-12.49-9.6-27.91h19.19c0 15.42-8.3 27.91-9.59 27.91z"/><path class="cls-37" d="M274.19 401.37c-.6 0-3.7-12.49-3.7-27.91h7.4c0 15.42-3.2 27.91-3.7 27.91z"/><path class="cls-140" d="M274.19 401.37c-.47 0-2.87-12.49-2.87-27.91h5.73c0 15.42-2.47 27.91-2.86 27.91z"/><path class="cls-39" d="M249.94 338.93h87.82v28.69h-87.82z"/><path fill="url(#_ÂÁ_Ï_ÌÌ_È_ËÂÌÚ_7-8)" d="M272.01 355.48h52.08v36.42h-52.08z"/><path class="cls-41" d="M264.3 343.55h77.63v31.56H264.3z"/><path class="cls-39" d="M253.17 343.55h79.35v31.56h-79.35z"/><path fill="url(#_ÂÁ_Ï_ÌÌ_È_ËÂÌÚ_7-9)" d="M258.38 343.55h79.35v31.56h-79.35z"/><path class="cls-41" d="M263.2 338.93h83.51v28.69H263.2z"/><path class="cls-41" d="M263 298.57h85.63v53.46H263z"/><path fill="url(#_ÂÁ_Ï_ÌÌ_È_ËÂÌÚ_37-2)" d="M256.33 338.93h83.51v28.69h-83.51z"/><path class="cls-39" d="M246.81 298.57h94.08v53.46h-94.08z"/><path fill="url(#_ÂÁ_Ï_ÌÌ_È_ËÂÌÚ_7-10)" d="M255.27 298.57h85.63v53.46h-85.63z"/><path class="cls-145" d="M297.73 425.71c-3.78 0-23.27-15.47-23.27-34.54H321c0 19.07-20.13 34.54-23.27 34.54z"/><path class="cls-46" d="M297.73 425.71c-3.24 0-20-15.47-20-34.54h39.91c.04 19.07-17.22 34.54-19.91 34.54z"/><path class="cls-145" d="M297.73 425.71c-3.05 0-18.79-15.47-18.79-34.54h37.58c0 19.07-16.25 34.54-18.79 34.54z"/><path class="cls-46" d="M297.73 425.71c-2.1 0-12.93-15.47-12.93-34.54h25.85c0 19.07-11.18 34.54-12.92 34.54z"/><path class="cls-145" d="M297.73 425.71c-1.93 0-11.88-15.47-11.88-34.54h23.75c0 19.07-10.27 34.54-11.87 34.54z"/><path class="cls-46" d="M297.73 425.71c-.75 0-4.58-15.47-4.58-34.54h9.16c0 19.07-3.96 34.54-4.58 34.54z"/><path class="cls-145" d="M297.73 425.71c-.58 0-3.55-15.47-3.55-34.54h7.09c0 19.07-3.06 34.54-3.54 34.54z"/><path class="cls-39" d="M295 368.64c-7.58 0-13.73-9.13-13.73-20.39v-49.68h27.46v49.68c.04 11.26-6.1 20.39-13.73 20.39z"/><path d="M298.05 368.64c-7.58 0-13.73-9.13-13.73-20.39v-49.68h27.46v49.68c0 11.26-6.14 20.39-13.73 20.39z" fill="url(#_ÂÁ_Ï_ÌÌ_È_ËÂÌÚ_28-2)"/><path class="cls-50" d="M298.05 361.39c-5.26 0-9.52-6.33-9.52-14.14v-23.94h19.05v23.94c0 7.81-4.27 14.14-9.53 14.14z"/><path d="M298.05 357.09c-3.91 0-7.08-4.71-7.08-10.52v-48h14.17v48c0 5.81-3.14 10.52-7.09 10.52z" fill="url(#_ÂÁ_Ï_ÌÌ_È_ËÂÌÚ_31-2)"/><path class="cls-39" d="M245.17 321.33h31.15v3.97h-31.15z"/><path class="cls-52" d="M253.17 321.33h28.14v3.97h-28.14z"/><path class="cls-41" d="M319.72 321.33h30.97v3.97h-30.97z"/><path class="cls-52" d="M311.78 321.33h30.97v3.97h-30.97z"/><path class="cls-53" d="M298.78 298.57h5.12v22.76h-5.12zm6.23 0h5.12v22.76h-5.12zm-12.44 26.73h2.56v16.3h-2.56zm4.01 0h2.56v16.3h-2.56zm4.24 0h2.56v16.3h-2.56zm-8.39-26.73h5.12v22.76h-5.12zm-6.46 0h5.12v22.76h-5.12z"/><path class="cls-54" d="M280.47 375.11h1.41v17.6h-1.41z"/><path class="cls-55" d="M258.07 348.86h17.36v2.83h-17.36z"/><path class="cls-54" d="M288.53 375.11h1.41v17.6h-1.41zm8.48 0h1.41v17.6h-1.41zm8.27 0h1.41v17.6h-1.41zm8.28 0h1.41v17.6h-1.41z"/><path class="cls-41" d="M298.14 355.17c-2.75 0-5-3.31-5-7.39h10c-.01 4.08-2.24 7.39-5 7.39z"/><path class="cls-37" d="M266.75 362.82c-4.11 0-7.44-4.94-7.44-11h14.88c0 6.06-3.33 11-7.44 11z"/><path class="cls-16" d="M327.16 362.82c-4.11 0-7.44-4.94-7.44-11h14.88c0 6.06-3.33 11-7.44 11z"/><path class="cls-39" d="M266.75 359.74c-2.91 0-5.26-3.5-5.26-7.81v-25.1H272v25.1c0 4.31-2.34 7.81-5.25 7.81zm0-39.94c-2.91 0-5.26-3.5-5.26-7.82v-13.41H272V312c0 4.3-2.34 7.8-5.25 7.8zm60.41 0c-2.91 0-5.26-3.5-5.26-7.82v-13.41h10.52V312c0 4.3-2.36 7.8-5.26 7.8zM285 388c-1.13 0-2-1.35-2-3v-9.73h4V385c0 1.65-.87 3-2 3zm8.39 0c-1.13 0-2-1.35-2-3v-9.73h4.08V385c-.04 1.65-.95 3-2.08 3zm8.39 0c-1.13 0-2-1.35-2-3v-9.73h4.08V385c-.04 1.65-.96 3-2.08 3zm8.39 0c-1.13 0-2-1.35-2-3v-9.73h4.08V385c-.04 1.65-.96 3-2.08 3zm8.39 0c-1.13 0-2-1.35-2-3v-9.73h4.07V385c-.04 1.65-.95 3-2.07 3zm-41.95 0c-1.13 0-2-1.35-2-3v-9.73h4.08V385c-.04 1.65-.95 3-2.08 3zm7.71-71.47h27.46v4.8h-27.46z"/><path class="cls-56" d="M281.25 321.33h33.21v3.97h-33.21z"/><path class="cls-57" d="M298.05 361.39c-5.26 0-9.52-6.33-9.52-14.14v-9.34c0 7.81 4.26 14.14 9.52 14.14s9.53-6.33 9.53-14.14v9.34c0 7.81-4.27 14.14-9.53 14.14z"/><path class="cls-56" d="M283.13 346.93h6.81v2.83h-6.81z"/><path class="cls-16" d="M284.32 344.11h4.21v2.83h-4.21z"/><path class="cls-56" d="M306.35 346.93h6.81v2.83h-6.81z"/><path class="cls-58" d="M318.49 348.86h17.36v2.83h-17.36z"/><path class="cls-16" d="M307.54 344.11h4.21v2.83h-4.21zM284.4 325.3h1.74v21.64h-1.74z"/><path class="cls-56" d="M283.84 325.3h1.74v21.64h-1.74z"/><path class="cls-16" d="M310.27 325.3h1.74v21.64h-1.74z"/><path class="cls-56" d="M310.88 325.3h1.74v21.64h-1.74z"/><path class="cls-39" d="M327.16 359.74c-2.91 0-5.26-3.5-5.26-7.81v-25.1h10.52v25.1c0 4.31-2.36 7.81-5.26 7.81z"/><path class="cls-59" d="M327.27 356.33c-2.09 0-3.78-2.51-3.78-5.61v-23.89H331v23.89c0 3.1-1.65 5.61-3.73 5.61z"/><path class="cls-60" d="M266.75 356.33c-2.09 0-3.78-2.51-3.78-5.61v-23.89h7.56v23.89c0 3.1-1.69 5.61-3.78 5.61z"/><path class="cls-61" d="M258.68 325.3h2.81v23.56h-2.81zm13.33 0h2.81v23.56h-2.81z"/><path class="cls-62" d="M319.2 325.3h2.81v23.56h-2.81zm13.33 0h2.81v23.56h-2.81z"/><ellipse cx="291.1" cy="331.41" rx="45.23" ry="64.69" style="mix-blend-mode:color-dodge" fill="url(#_ÂÁ_Ï_ÌÌ_È_ËÂÌÚ_92-3)"/><ellipse cx="291.44" cy="308.2" rx="37.64" ry="53.83" style="mix-blend-mode:color-dodge" fill="url(#_ÂÁ_Ï_ÌÌ_È_ËÂÌÚ_92-4)"/><path fill="url(#_ÂÁ_Ï_ÌÌ_È_ËÂÌÚ_97-2)" d="M423.63 310.72v11.99h-6.04v11.54h-5.82v11.79h-47.98v-11.79h-5.82v-11.54h-6.04v-11.99h-6.04v-11.98h83.78v11.98h-6.04z"/><path class="cls-66" d="M363.79 345.2h47.97v.84h-47.97zm-5.82-11.98h59.61v1.04h-59.61zm-6.04-11.47h71.7v1.04h-71.7zm-6.04-12.06h83.79v1.04h-83.79z"/><path class="cls-67" d="M400.58 298.74H377.3l4.7 47.3h11.64l6.94-47.3z"/><path class="cls-66" d="M398.64 298.74h-19.4l3.92 47.3h9.7l5.78-47.3z"/><path class="cls-67" d="M394.32 334.05h-12.15l.09 1.14h11.92l.14-1.14zm0 3.47h-12.15l.09 1.14h11.92l.14-1.14zm0 3.41h-12.15l.09 1.14h11.92l.14-1.14zm-.71 3.13h-11.44l.08 1.14h11.23l.13-1.14zm1.6-13.71h-13.93l.11 1.14h13.66l.16-1.14zm.63-3.7h-15.2l.12 1.13h14.91l.17-1.13zm0-3.71h-15.2l.12 1.14h14.91l.17-1.14zm.6-3.7h-15.8l.13 1.14h15.49l.18-1.14zm.44-3.71h-16.94l.13 1.14h16.62l.19-1.14zm.54-3.7h-18.36l.15 1.14h18l.21-1.14zm.45-3.71h-18.81l.15 1.14h18.45l.21-1.14zm.54-3.7h-19.8l.15 1.14h19.43l.22-1.14zm.23-3.7h-20.79l.16 1.13h20.39l.24-1.13z"/><path class="cls-68" d="M382 346.04l-10.68-47.3h5.98l4.7 47.3z"/><path class="cls-69" d="M402.33 300.72h24.45v7.98h-24.45zm4.81 11.8h10.44v7.28h-10.44zm-7.49 12.13h6.15v7.28h-6.15zm-52.41-23.3h20.25v7.28h-20.25zm49.33 34.82h6.15v7.28h-6.15zm-42.36-23.65h18.46v6.72h-18.46z"/><path style="mix-blend-mode:color-dodge" fill="url(#_ÂÁ_Ï_ÌÌ_È_ËÂÌÚ_88-2)" opacity=".5" d="M340.28 299.31h89.39v81h-89.39z"/><path style="mix-blend-mode:screen" fill="url(#_ÂÁ_Ï_ÌÌ_È_ËÂÌÚ_69-10)" opacity=".5" d="M340.28 299.31h68.24v193.34h-68.24z"/><path style="mix-blend-mode:color-dodge" fill="url(#_ÂÁ_Ï_ÌÌ_È_ËÂÌÚ_69-11)" opacity=".5" d="M340.28 299.31h78.55v193.34h-78.55z"/><path style="mix-blend-mode:screen" fill="url(#_ÂÁ_Ï_ÌÌ_È_ËÂÌÚ_69-12)" opacity=".5" d="M388.68 299.31h12.6v193.34h-12.6z"/><path style="mix-blend-mode:screen" fill="url(#_ÂÁ_Ï_ÌÌ_È_ËÂÌÚ_69-13)" opacity=".5" d="M347.91 299.31h12.6v193.34h-12.6z"/><path style="mix-blend-mode:screen" fill="url(#_ÂÁ_Ï_ÌÌ_È_ËÂÌÚ_69-14)" opacity=".5" d="M372.45 299.31h4.29v193.34h-4.29z"/><path fill="url(#_ÂÁ_Ï_ÌÌ_È_ËÂÌÚ_99-8)" d="M144.44 303.91h46.18v213.51h-46.18z"/><path class="cls-31" d="M158.18 298.66h24.85v106.33h-24.85z"/><path transform="rotate(180 420.945 393.47)" fill="url(#_ÂÁ_Ï_ÌÌ_È_ËÂÌÚ_123-2)" d="M416.81 339.04h8.26V447.9h-8.26z"/><path fill="url(#_ÂÁ_Ï_ÌÌ_È_ËÂÌÚ_7-11)" d="M425.07 364.76h-8.26l-.4.91h9.07l-.41-.91z"/><path fill="url(#_ÂÁ_Ï_ÌÌ_È_ËÂÌÚ_7-12)" d="M425.07 394.59h-8.26l-.4.91h9.07l-.41-.91z"/><path class="cls-81" d="M416.41 365.67h9.08v3.26h-9.08zm0 29.83h9.08v2.08h-9.08z"/><path class="cls-31" d="M428.92 337.51l1.16 6.62-.91 1.69.39 6.27-3.71 1.18 1.24-7.75-.59-2.27 1.05-5.34 1.37-.4z"/><path class="cls-31" d="M427.65 353.53c.07-1.08.45-1.91.85-1.85s.66 1 .59 2.05-.45 1.91-.85 1.85-.66-.98-.59-2.05z"/><path class="cls-82" d="M413.39 337.48l-1.27 6.58.88 1.73-.48 6.25 3.7 1.3-1.13-7.78.63-2.25-.97-5.38-1.36-.45z"/><path class="cls-82" d="M414.41 353.54c-.05-1.08-.42-1.92-.82-1.87s-.67.95-.62 2 .42 1.92.82 1.88.68-.93.62-2.01z"/><path class="cls-31" d="M407.76 298.66h26.37v26.87h-26.37z"/><path class="cls-31" d="M406.81 298.66h28.27v3.58h-28.27z"/><path class="cls-83" d="M406.81 302.23l.95.94h26.37l.95-.94h-28.27z"/><path class="cls-31" transform="rotate(180 420.945 327.48)" d="M406.81 325.69h28.27v3.58h-28.27z"/><path class="cls-31" transform="rotate(180 420.945 332.385)" d="M410.61 328.29h20.67v8.2h-20.67z"/><path class="cls-83" d="M435.08 325.69l-.95-.93h-26.37l-.95.93h28.27z"/><path class="cls-81" d="M420.79 332.6a8.08 8.08 0 01-8.07-8.09v-26h16.13v26a8.07 8.07 0 01-8.06 8.09z"/><path class="cls-6" d="M420.79 330.36a6.87 6.87 0 01-6.62-7.11v-22.84h13.24v22.84a6.87 6.87 0 01-6.62 7.11z"/><path fill="url(#_ÂÁ_Ï_ÌÌ_È_ËÂÌÚ_7-13)" d="M410.61 336.49l6.9 3.08h6.87l6.9-3.08h-20.67z"/><path fill="url(#_ÂÁ_Ï_ÌÌ_È_ËÂÌÚ_52-2)" d="M172.59 299.05h58.55v277.9h-58.55z"/><path class="cls-28" d="M220.98 299.05h4.99v257.97h-4.99z"/><path class="cls-32" d="M175.16 299.05h.55v257.97h-.55zm7.59 0h.55v257.97h-.55zm7.59 0h.55v257.97h-.55zm7.6 0h.55v257.97h-.55zm7.59 0h.55v257.97h-.55zm7.59 0h.55v257.97h-.55zm7.59 0h.55v257.97h-.55zm7.59 0h.55v257.97h-.55z"/><path class="cls-33" d="M209.18 388.58h10.4v1.58h-10.4z"/><path class="cls-34" d="M212.06 388.58h7.52v1.58h-7.52z"/><path class="cls-35" d="M215.82 388.58h3.76v1.58h-3.76z"/><path class="cls-33" d="M183.68 321.53h10.4v1.58h-10.4z"/><path class="cls-34" d="M186.55 321.53h7.52v1.58h-7.52z"/><path class="cls-35" d="M190.31 321.53h3.76v1.58h-3.76z"/><path class="cls-33" d="M223.48 344.45h1.01v2.34h-1.01zm-8.48.99h1.01v2.34H215z"/><path class="cls-35" d="M187.87 341.59h1.01v2.34h-1.01z"/><path d="M192.5 392.24c-2.11 0-13-8.65-13-19.32h26c.01 10.67-11.24 19.32-13 19.32z" fill="url(#_ÂÁ_Ï_ÌÌ_È_ËÂÌÚ_141-7)"/><path d="M190.13 392.24c-2.11 0-13-8.65-13-19.32h26c.01 10.67-11.24 19.32-13 19.32z" fill="url(#_ÂÁ_Ï_ÌÌ_È_ËÂÌÚ_141-8)"/><path class="cls-35" d="M189.12 342c-6-1.22-10.63-8.86-10.63-18.11v-25.23h-3.38v25.24c0 10.1 5.51 18.29 12.32 18.29a8 8 0 001.69-.19z"/><path fill="url(#_ÂÁ_Ï_ÌÌ_È_ËÂÌÚ_141-9)" d="M173.37 352h34.94v20.91h-34.94z"/><path class="cls-31" d="M173.37 352h32.51v20.91h-32.51z"/><path class="cls-91" d="M175.55 352h25.35v20.91h-25.35z"/><path class="cls-92" d="M177.09 352h23.81v20.91h-23.81z"/><path class="cls-93" d="M191.59 342c-6-1.22-10.62-8.86-10.62-18.11v-25.23h-3.39v25.24c0 10.1 5.52 18.29 12.32 18.29a7.88 7.88 0 001.69-.19z"/><path fill="url(#_ÂÁ_Ï_ÌÌ_È_ËÂÌÚ_141-10)" d="M180.19 348.41h30.09v14.65h-30.09z"/><path class="cls-31" d="M204.37 348.41h2.27v14.65h-2.27z"/><path class="cls-47" d="M175.11 348.41h29.26v14.65h-29.26z"/><path d="M212.05 350.54v-51.88h-8.92v25.24c0 10.1-5.51 18.29-12.32 18.29a8 8 0 01-1.69-.18 8 8 0 01-1.69.18c-6.81 0-12.32-8.19-12.32-18.29v-25.24h-2.76v51.88z" fill="url(#_ÂÁ_Ï_ÌÌ_È_ËÂÌÚ_18-2)"/><path class="cls-96" d="M205.89 350.54v-51.88h-6.14v25.24c0 9.25-4.63 16.9-10.63 18.11a8 8 0 01-1.69.18c-6.81 0-12.32-8.19-12.32-18.29v-25.24H169v51.88z"/><path class="cls-96" d="M172.26 348.41h30.09v14.65h-30.09z"/><path class="cls-31" d="M182.33 371.49c-.73 0-1.32-1-1.32-2.18v-7h2.65v7c0 1.2-.59 2.18-1.33 2.18zm4.42 0c-.73 0-1.32-1-1.32-2.18v-7h2.65v7c0 1.2-.59 2.18-1.33 2.18zm4.42 0c-.73 0-1.33-1-1.33-2.18v-7h2.66v7c0 1.2-.6 2.18-1.33 2.18zm4.42 0c-.74 0-1.33-1-1.33-2.18v-7h2.66v7c0 1.2-.6 2.18-1.33 2.18z"/><path fill="url(#_ÂÁ_Ï_ÌÌ_È_ËÂÌÚ_141-11)" d="M188.08 389.62h8.22v1.61h-8.22z"/><path class="cls-92" d="M186.04 389.62h8.22v1.61h-8.22z"/><path fill="url(#_ÂÁ_Ï_ÌÌ_È_ËÂÌÚ_141-12)" d="M189.44 391.23h6.13v4.75h-6.13z"/><path class="cls-92" d="M187.3 391.23h6.13v4.75h-6.13zm-9.72-14.52h27.44v.15h-27.44zm1.06 3.17h25.29v.15h-25.29zm1.55 2.99h22.39v.15h-22.39zm2.55 3.52h17.02v.15h-17.02z"/><ellipse cx="177.58" cy="309.18" rx="35.18" ry="50.31" style="mix-blend-mode:color-dodge" fill="url(#_ÂÁ_Ï_ÌÌ_È_ËÂÌÚ_125-2)"/><path class="cls-31" d="M461.84 324.85h36.87v254.32h-36.87z"/><path class="cls-29" d="M446.78 324.85h36.87v254.32h-36.87z"/><path class="cls-31" d="M460.21 298.45h42.38v254.32h-42.38z"/><path class="cls-29" d="M442.9 298.45h42.38v254.32H442.9z"/><path class="cls-31" d="M459.51 297.49h9.5v268.48h-9.5z"/><path class="cls-100" d="M457.07 297.49h9.5v268.48h-9.5z"/><path class="cls-101" d="M481.67 298.45h3.6v254.32h-3.6z"/><path class="cls-102" d="M500.32 298.45h2.26v254.32h-2.26z"/><path class="cls-100" d="M442.9 298.08h1.94v254.69h-1.94z"/><path fill="url(#_ÂÁ_Ï_ÌÌ_È_ËÂÌÚ_100-2)" d="M95.07 298.74h63.73v248.08H95.07z"/><path class="cls-104" d="M108.15 397.13h50.36v.55h-50.36zm0-17h50.36v.54h-50.36zm0-17h50.36v.54h-50.36zm0-16.99h50.36v.54h-50.36zm0-17h50.36v.55h-50.36zm0-17h50.36v.54h-50.36z"/><path class="cls-31" d="M67.93 298.74h63.73v248.08H67.93z"/><path class="cls-31" d="M114.37 298.24h30.07v251.04h-30.07z"/><path class="cls-105" d="M118.29 298.24h30.07v251.04h-30.07z"/><path class="cls-106" d="M122.23 298.24h18.85v281.68h-18.85z"/><path class="cls-100" d="M124.69 298.24h18.85v281.68h-18.85z"/><path class="cls-106" d="M134.17 298.24h2.89v281.68h-2.89z"/><path fill="url(#_ÂÁ_Ï_ÌÌ_È_ËÂÌÚ_68-15)" d="M67.93 397.13h50.36v.55H67.93z"/><path fill="url(#_ÂÁ_Ï_ÌÌ_È_ËÂÌÚ_68-16)" d="M67.93 380.13h50.36v.54H67.93z"/><path fill="url(#_ÂÁ_Ï_ÌÌ_È_ËÂÌÚ_68-17)" d="M67.93 363.13h50.36v.54H67.93z"/><path fill="url(#_ÂÁ_Ï_ÌÌ_È_ËÂÌÚ_68-18)" d="M67.93 346.14h50.36v.54H67.93z"/><path fill="url(#_ÂÁ_Ï_ÌÌ_È_ËÂÌÚ_68-19)" d="M67.93 329.14h50.36v.55H67.93z"/><path fill="url(#_ÂÁ_Ï_ÌÌ_È_ËÂÌÚ_68-20)" d="M67.93 312.14h50.36v.54H67.93z"/><path class="cls-121" d="M119.3 299.31h24.73v52.17H119.3z"/><path class="cls-6" d="M112.33 299.31h24.73v52.17h-24.73z"/><path class="cls-122" d="M125.93 397.4h1.01v2.34h-1.01z"/><path class="cls-35" d="M103.7 352.76h1.01v2.34h-1.01zm10.76-15h1.01v2.34h-1.01zm14.21-13.54h1.01v2.34h-1.01zm23.17 61.07h1.01v2.34h-1.01z"/><path class="cls-33" d="M98.79 388.02h1.01v2.34h-1.01zm2.12 0h1.01v2.34h-1.01zm24.51-71.1h1.01v2.34h-1.01zm25.08 48.81h1.01v2.34h-1.01zm-73.75-11.42h1.01v2.34h-1.01zm63.33-28.65h1.01V328h-1.01zM471 388h10.4v1.58H471z"/><path class="cls-34" d="M473.88 388h7.52v1.58h-7.52z"/><path class="cls-35" d="M477.64 388h3.76v1.58h-3.76z"/><path class="cls-33" d="M445.49 320.96h10.4v1.58h-10.4z"/><path class="cls-34" d="M448.37 320.96h7.52v1.58h-7.52z"/><path class="cls-35" d="M452.13 320.96h3.76v1.58h-3.76z"/><path class="cls-33" d="M476.81 344.87h1.01v2.34h-1.01z"/><path class="cls-35" d="M449.68 341.02h1.01v2.34h-1.01z"/></g><path style="mix-blend-mode:color-dodge" fill="url(#_ÂÁ_Ï_ÌÌ_È_ËÂÌÚ_92-5)" d="M-.8 299.08H600v2.02H-.8z"/><path fill="#2a1f57" d="M0 358.47h600V400H0z"/><path fill="#120936" d="M600 358.47v-11.62L0 348.86v9.61h600z"/><path class="cls-29" d="M600 346.85v-3.3l-600 .2v5.11l600-2.01z"/><path d="M481.39 400l-58.87-13.36h-8.73L437.5 400h43.89zm-352.22.54l51.02-16.63 9.62 2.73-33.5 14.73-27.14-.83zm83.95.61l34.2-21.87 21.32 2.05 3.37 10.57 20.2-2.53 17.93-5.53 12.01 17.53-109.03-.22z" style="mix-blend-mode:multiply" opacity=".6" fill="#110f2b"/><path class="cls-182" d="M268.64 381.33a6.31 6.31 0 01-2.94 1.84c-3 .81-7.44 1.12-7.82-.4s.1-5.18-.5-8.68-2.78-6.06-2.78-7.53 3.89-5 3.89-6.88-4.19-14.83-4.19-18.59a29 29 0 011.76-7.33c1.15-3.39 2.43-6.47 2.43-6.47a12.91 12.91 0 018.44 3.35s-.48 3.26-1.1 7.64c-1.18 8.17-2.87 20.27-2.87 22.21.04 2.98 5.68 20.84 5.68 20.84z"/><path class="cls-183" d="M254.64 366.91s4.9-.17 7 1.43 4.5 14.69 4.5 14.69-5.22 1.7-7.87.27z"/><path class="cls-184" d="M254.64 366.91a12.33 12.33 0 014.46-.35 3.71 3.71 0 012.79 2.05l-2 15.46-2.09.12z"/><path class="cls-185" d="M266.54 333.34s-4.65 26.86-4.65 27.48 6.75 20.51 6.75 20.51-5.72-20.39-5.72-21.25 3.62-26.74 3.62-26.74z"/><path class="cls-186" d="M286.28 244c0 .54 0 1.1-.09 1.67a32.64 32.64 0 01-5.38 15.64c-12.38 2.12-28 1.86-28 1.86 3-4.37 3.67-15.78 4.78-20.95.05-.23.11-.46.17-.69a22.34 22.34 0 011.5-3.87c2.16-4.44 5.79-9.05 9-10 4.37-1.32 12.49-1.62 14.11 0 1.35 1.35 3.6 6.44 3.92 13.46.01.88.02 1.88-.01 2.88z"/><path class="cls-187" d="M286.28 244c0 .54 0 1.1-.09 1.67a32.64 32.64 0 01-5.38 15.64c-12.39 2.12-28 1.86-28 1.86 3-4.37 3.68-15.78 4.79-20.95.05-.23.1-.45.17-.69v7.63s6.21-7.38 9.17-13.16c-.31.84-5.24 14.3-7.49 19.15 0 0 6.39-4.26 13.9-13.7l-2.79 6.39s11.64.16 15.72-3.84z"/><path class="cls-188" d="M266.93 330.64s-.48 3.26-1.1 7.64l-9.77-4.52c1.15-3.39 2.43-6.47 2.43-6.47a12.91 12.91 0 018.44 3.35z"/><path d="M282.25 335.38c-1 1.56-5.44 6.42-10.06 11.39-5.63 6-11.59 12.26-12.37 13-1.43 1.42-7 17.53-7 18.83a54.93 54.93 0 001.22 6.34 11.77 11.77 0 01-5.61-.6c-2.58-1.09-5.28-4.44-5.28-4.44 0-1.52 2.09-4.7 3-8.15s-1.09-9.34.54-11 8.87-3.54 10.43-5.09c1.13-1.13 3.49-9.31 6-15.33a25.27 25.27 0 012.81-5.32c3.41-4.36 13.41-6 13.41-6 3.11.07 5.22 2.88 2.91 6.37z" fill="#1c142f"/><path class="cls-183" d="M246.75 360.82a6.81 6.81 0 013.91 4.57c.77 3.39-2.49 14.76-2.76 16.21a5.91 5.91 0 00.06 2.55s-3.71-2.11-4.8-4.21a46.68 46.68 0 012.81-8.15c1.24-2.73.41-9.1.41-9.1s.15-1.75.37-1.87z"/><path class="cls-184" d="M246.75 360.82s2.81 1.1 3.57 2.83a6.49 6.49 0 010 4L241 378.07l-1.32-.71z"/><path class="cls-190" d="M251.22 271l-2.49 32.7 4.33-.79a.09.09 0 00.14 0l7.22-32.91z"/><path class="cls-190" d="M281.23 285.8s-5.28 8-5.28 9.24 1.83 7.07 4.17 13 3.14 17.76 3.14 17.76-38.64.61-40.26-1c-.95-.94-1.56-3.51-1.91-5.82a31 31 0 01-.36-3.92 5.07 5.07 0 01.24-1.34 23.91 23.91 0 015.95-9.29c4.16-4.16 13.47-9 13.77-10.31.52-2.28-.89-6.18-2.32-9.8-.77-1.95-1.54-3.83-2-5.32-1.36-4.26-3.54-12.25-3.54-12.25s28.07-4.41 32.48 0 2 16.25 2 16.25c-1.97 1.84-6.08 2.8-6.08 2.8z"/><path class="cls-190" d="M290.18 299.9c0 3.05-2.24 7.62-4.16 7.62s-4.17-.37-5.64-1.82c-1.46-1.47-.75-21.82-.75-21.82s-2.14-20.82-.17-21.56 8.75 3.33 9.61 4.19c.4.41.68 7.29.86 14.72.17 8.19.25 17.07.25 18.67zm38.31-43.9s6.89 3.66 8.92 5.7c0 0 7.94 24.09 6 37.35 0 0-4.49 16.79-18.83 26.74h-5.18l10-42.57z"/><path class="cls-187" d="M283.26 325.77s-38.64.61-40.26-1-2.27-8.05-2.27-9.74a5.07 5.07 0 01.24-1.34s15.38 5.4 28.56 1.44C277.64 312.67 276 295 276 295c0 1.26 1.83 7.07 4.17 13s3.09 17.77 3.09 17.77zm6.56-47.92l-10.68.69-21.66 4.91-6.26 2.83v-15.29l3.52-3.19 31.56-1.73 3.27 5.08.25 6.7z"/><path class="cls-191" d="M300.93 222.32A17.86 17.86 0 00299.1 234c.81 3.86.2 7.38.2 9.28a13.29 13.29 0 004.06 8.79c3.19 3.19 15.94 2.44 20.26-.3 0 0-1.53-5.45-1.53-7 0 0 7.8-9.53 5.44-18.2-2-7.45-5.76-9.88-11.58-10.63s-12.86 2.62-15.02 6.38z"/><path class="cls-186" d="M328 232.37a28.62 28.62 0 01-5.82 13.15c-4.86 2.69-11 .29-11 .29-1.63-.75-3.67-5.06-4.66-9.76s-3.24-4.7-4.24-3 .52 6 .52 6l-.36.4c-2.19-4.06-3.66-11.31-3.66-11.31a29.53 29.53 0 01.72-5.38l-1.42.2c8.93-7.72 15.36-8.73 20.77-7.21 3.88 1.09 7.51 5 8.8 10.08a16 16 0 01.35 6.54z"/><path class="cls-190" d="M304.58 249s9.82-4.47 20.58-1l.54 5.49s-7.37-2.49-21.12-4.49z"/><path class="cls-191" d="M242 271.37a63.77 63.77 0 00-2.38 7.68c-.69 3.29.83 9.37 1 9.52a1.2 1.2 0 001.23-.2c.34-.33.17-7.24.17-7.24s1 6.71 1.63 7.4a1.22 1.22 0 001.51.13s.24.49.52.49a1.18 1.18 0 00.93-.32c.32-.31.65-3.66.82-5.26a25.33 25.33 0 00.18-2.55s.32 2.53.32 4.22a5.73 5.73 0 00.54 3 1 1 0 001.19-.17c.31-.31.44-7.79.44-7.79a14.78 14.78 0 00.58 3.35c.37.65 1.74.15 2-.06s.15-7.51.15-8.31a13.72 13.72 0 00-1.45-3.35s-7.38-1.57-9.38-.54z"/><path d="M329.45 307.5c-2.14 4.92-7.08 13.32-9.13 16.75l-.92 1.52h-54.48c.62-.62 1.25-1.22 1.87-1.8a97.78 97.78 0 0116.44-12.23c4.83-2.89 8.3-4.49 8.67-4.85.75-.77 4.25-11.78 4.25-13.81S293.39 273 293.39 273c-.71-.4-1.42-.78-2.13-1.1a32.74 32.74 0 00-16-3.08 56.25 56.25 0 00-8.28.72c-.81.19-2.47.54-4.35.92-4.06.83-9.16 1.82-9.16 1.82l-.3 1.41c-4.87 1.22-12.48-.81-12.48-.81a18.59 18.59 0 014.47-6.8c3.39-3.4 22.93-10 22.93-10 8.74-2.65 22.34-5.94 23.25-5.94s7.41-3.3 7.41-3.3c11.37 2 26.91 6.7 26.91 6.7l6.09 5s4.17 12.2 4.47 17c.51 7.65-4.02 25.66-6.77 31.96z" fill="#1c1536"/><path class="cls-187" d="M329.45 307.5c-2.14 4.92-7.08 13.32-9.13 16.75l-53.53-.25h-3.6l1.14-2.54 18.9-9.67s16 .12 17.29-1.2 7.11-10.46 7.11-12.9-6.7-25.27-6.7-25.27l-9.67-.48a32.74 32.74 0 00-16-3.08 56.25 56.25 0 00-8.28.72c-.81.19-2.47.54-4.35.92l-14.53-.72s2.23-2.23 8.21-5 39.91-11.23 39.91-11.23l4.67 2.49v-4.52c0-2-2.14-4.67-2.14-4.67 11.37 2 26.91 6.7 26.91 6.7l6.09 5s4.17 12.2 4.47 17c.51 7.64-4.02 25.65-6.77 31.95z"/><path class="cls-190" d="M319.4 251.8s5.49 18 5.49 21.38-1.63 26.09-3.66 32.79-3.86 9.14-3.86 9.14a44 44 0 004.54-8.56c1.62-4.4 4.53-31.41 4.53-33s-5.37-21.37-5.37-21.37zm-10.62 72.39s3.25-1.26 7.71-6.54l-3.85 6.54z"/><path class="cls-188" d="M282.25 335.38c-1 1.56-5.44 6.42-10.06 11.39l-9-6.37a25.27 25.27 0 012.81-5.32c3.41-4.36 13.41-6 13.41-6 3.04 0 5.15 2.81 2.84 6.3z"/><path class="cls-183" d="M310.3 375.31a27 27 0 011.12 11.91s-4.67 1.36-7.51 0-2.64-10.12-2.64-10.12l3.58-2.26z"/><path class="cls-193" d="M312.4 360.29c-1 3.65 0 15.63 0 15.63a24.78 24.78 0 01-10.52.29c-.86-.15-1.36-.29-1.36-.29l.46-3.09 1.1-7.51.26-1.77.93-32.71 13.09-4.26s2.23 11.88 2.23 14.32-5.17 15.73-6.19 19.39z"/><path class="cls-187" d="M312.4 360.29c-1 3.65 0 15.63 0 15.63a24.78 24.78 0 01-10.52.29l-.9-3.38-1.17-4.42 2.27-3.09 3.31-4.5s2.59-14.75 2.59-17.7-4.71-12.28-4.71-12.28l13.09-4.26s2.23 11.88 2.23 14.32-5.17 15.73-6.19 19.39z"/><path d="M306.92 366.61l-3.3-3.63s-7.18-.54-8.33.61-3.25 10.6-2.89 13a64.72 64.72 0 010 8.68 16.11 16.11 0 00-4.29 5.18 6.29 6.29 0 005.28 2.08c3.7-.1 4.74-4.42 4.74-4.42l4.67-18z" fill="#120d1d"/><path class="cls-183" d="M306.92 366.61c-2.71-.6-7.62 4.17-8.9 7.89s-2.17 15.57-4.67 18.07c0 0 4.8.61 11.5-2.23 0 0-.47-10 .54-12.46s4.23-10.66 1.53-11.27z"/><path class="cls-182" d="M305.39 362.37l-.71 1.32s-3.94-1-8.49 2.22c-1.94 1.37-3.79 10.73-3.79 10.73s-6.59-16.25-13.6-25.69c-2.88-3.89-5.61-8.08-7.82-11.66-3.17-5.15-5.28-9.05-5.28-9.05 3.46-1.43 14.52-2 14.52-2s5.28 2.54 6.9 4.16c1.12 1.12 4.19 10.41 6.23 16.28a33.18 33.18 0 001.84 4.78c.81.73 10.2 8.91 10.2 8.91z"/><path class="cls-188" d="M293.35 348.65l-12.12-13.44-10.23 4.08c-3.17-5.15-5.28-9.05-5.28-9.05 3.46-1.43 14.52-2 14.52-2s5.28 2.54 6.9 4.16c1.1 1.09 4.17 10.38 6.21 16.25z"/><path class="cls-185" d="M327.66 225.9s-3.58-6.07-4.89-6.83-8.51-2.32-10.51-2.19c-4.15.26-12.75 6-12.75 6l-1.42.2c8.93-7.72 15.36-8.73 20.77-7.21 3.88 1.04 7.51 4.98 8.8 10.03zM286.25 241c-.13-.61-2.1-10.43-5.37-12s-12 .88-12 .88l-4.57 4.87 2.6-4.67s-5.65 3.68-7.7 7.49c2.16-4.44 5.79-9.05 9-10 4.37-1.32 12.49-1.62 14.11 0 1.36 1.34 3.61 6.43 3.93 13.43zm12.56-9.29s1.47 6.09 1.47 7.3.14 6.53.81 8.22l-1-.2a7.47 7.47 0 01-.76-4.41 16.53 16.53 0 00.05-6.09 26.62 26.62 0 01-.57-4.82zm7.52 16.65l-7.54-1.57-6.89 2.76-12.43 3.34 13.86-1.88 6.62-3.04 6.38.39zm19.37 5.13l2.79 2.49s5.6 2.78 7.8 5c0 0 8.76 19.36 7.16 38.07 0 0 1.92-11.27-.65-21.35-1.92-7.56-5.44-18-5.44-18l-9.19-4.59zm-84.97 19.38s3.37-4.07 5.38-6.09 9.65-6.13 9.65-6.13-9 3.15-10.69 4.77-4.34 7.45-4.34 7.45zm53.62 6.51s3.74 13.29 3.74 14.51v7l-1.56-2.33s-2.26 8-2.69 8.42-8.42 3.48-8.42 3.48 6.57-3.59 7-4.62 3.27-10.13 3.27-12.36-1.34-14.1-1.34-14.1z"/><path class="cls-185" d="M290.18 299.9c0 3.05-2.24 7.62-4.16 7.62s-4.17-.37-5.64-1.82c.19.08 3.57 1.64 4.62 1.28s3.25-3.75 4-6.14.94-19.66.94-19.66c.16 8.24.24 17.12.24 18.72zm13.05 32.29l1.2 3.83-.6 24.99-1.38-1.2.78-27.62z"/><path class="cls-185" d="M293 347.53l1 6.42 9 8 2.38.43s-9.93-8.69-10.2-9.5-2.18-5.35-2.18-5.35zm-38.76 9.81s-5.53 2.57-7.27 4.82-6.56 13.56-6.56 13.56 5.53-14.26 6.17-14.9a37.19 37.19 0 017.66-3.48zm1.82-23.58a63.59 63.59 0 00-.79 8.59 61.63 61.63 0 001.23 9.12s-2.5-7.41-2.5-10.59 2.06-7.12 2.06-7.12zm5.44-39.41c-1.32 2.66-8.25 6-14.25 11s-6.15 13.55-6.15 13.55a31 31 0 01-.36-3.92 5.07 5.07 0 01.24-1.34 23.91 23.91 0 015.95-9.29c4.16-4.16 13.47-9 13.77-10.31.52-2.28-.89-6.18-2.32-9.8.22.41 4.39 7.52 3.12 10.11z"/><path class="cls-193" d="M171.4 390.6V265.26h-6.46l-3.66 125.34h10.12z"/><path class="cls-29" d="M171.4 265.26l2.88.75-.82 123.82-2.06.77V265.26z"/><path class="cls-193" d="M172.72 270.82h258.81v10.36l-258.81-1.9v-8.46z"/><path class="cls-29" d="M172.72 270.82l1.69-1.8 255.4 1.5 1.72.3H172.72z"/><path class="cls-193" d="M172.72 326.25h258.76v7.81H172.72z"/><path class="cls-29" d="M172.72 326.25l1.67-1.8 255.39 1.49 1.7.31H172.72zm241.81 5.94l-.74 54.45h5.22l1.98-54.45h-6.46z"/><path class="cls-193" d="M416.06 332.19h6.46v54.45h-6.46z"/><path class="cls-29" d="M189.07 332.19l.74 54.45h-5.22l-1.98-54.45h6.46z"/><path class="cls-193" d="M181.08 332.19h6.46v54.45h-6.46z"/><path class="cls-193" d="M173.6 367.4l12.61-.95v17.42l-12.74 3.95.13-20.42z"/><path class="cls-29" d="M186.21 366.45l-5.13-.45-7.47.23-.01 1.17 12.61-.95z"/><path class="cls-193" d="M431.9 367.13l-12.61-.95v17.41l12.74 3.96-.13-20.42z"/><path class="cls-29" d="M419.29 366.18l5.13-.46 7.47.23.01 1.18-12.61-.95z"/><path class="cls-193" d="M432.62 391.15V265.82h6.46l2.17 125.33h-8.63z"/><path class="cls-29" d="M432.62 265.82l-2.88.74.82 123.82 2.06.77V265.82z"/><path class="cls-193" d="M187.54 279.38h6.5v47.2h-6.5z"/><path class="cls-29" d="M194.04 326.58l1.49-1.23v-45.9l-1.49-.07v47.2z"/><path class="cls-193" d="M215.02 279.38l.44 47.2h6.49v-47.2h-6.93z"/><path class="cls-29" d="M221.95 326.58l1.49-1.23v-45.9l-1.49-.07v47.2z"/><path class="cls-193" d="M242.8 279.38l-.28 47.2h6.5l.43-47.2h-6.65z"/><path class="cls-29" d="M249.02 326.58l1.49-1.23.81-45.86-1.88.32-.42 46.77z"/><path class="cls-193" d="M270.5 279.38l-.29 47.2h6.5l.44-47.2h-6.65z"/><path class="cls-29" d="M276.71 326.58l1.49-1.23.82-45.86-1.89.32-.42 46.77z"/><path class="cls-193" d="M410.58 279.38h6.5v47.2h-6.5z"/><path class="cls-29" d="M410.58 326.58l-1.49-1.23v-45.9l1.49-.07v47.2z"/><path class="cls-193" d="M389.6 279.38l-.44 47.2h-6.49v-47.2h6.93z"/><path class="cls-29" d="M382.67 326.58l-1.49-1.23v-45.9l1.49-.07v47.2z"/><path class="cls-193" d="M361.82 279.38l.28 47.2h-6.5l-.43-47.2h6.65z"/><path class="cls-29" d="M355.6 326.58l-1.49-1.23-.81-45.86 1.88.32.42 46.77z"/><path class="cls-193" d="M305.49 279.38l.28 47.2h-6.49l-.43-47.2h6.64zm28.63 0l.28 47.2h-6.49l-.43-47.2h6.64z"/><path class="cls-29" d="M327.91 326.58l-1.49-1.23-.82-45.86 1.89.32.42 46.77z"/></g></g></svg>