<svg version="1.1" id="publicdomainvectors.org" xmlns="http://www.w3.org/2000/svg" x="0" y="0" viewBox="0 0 660 660" xml:space="preserve"><style>.st0{fill:#ddedf8}.st0,.st2,.st5,.st6,.st7{fill-rule:evenodd;clip-rule:evenodd}.st2{fill:#fff}.st5{fill:#4b8ec8}.st6{fill:#276bb0}.st7{fill:#0f59a0}</style><path class="st0" d="M0 1.08h659.42V660.5H0z"/><path d="M42.51 330.19l102.62-102.2c55.13-54.9 138.61-64.64 203.85-27.52 27.02 15.37 58.36 14.14 84.09-3.31 34.83-23.62 80.76-20.73 112.52 7.79l16.43 14.75c27.32 24.52 67.42 25.9 96.36 3.32l1.05-.82v287.1L124.35 507 42.51 330.19z" fill-rule="evenodd" clip-rule="evenodd" fill="#bedcf2"/><path class="st2" d="M105.69 260.99l.63 16.46 2.09 54.65h-8.36l2.09-54.65.63-16.46z"/><path class="st2" d="M105.03 258.52c1.36.44 2.11 1.9 1.67 3.26a2.578 2.578 0 01-3.26 1.66 2.6 2.6 0 01-1.67-3.26c.44-1.35 1.9-2.1 3.26-1.66z"/><path class="st2" d="M104.23 260.99l12.09-37.33 1.21-.18-7.88 32.52zm0 0l-38.37 8.19-.77-.96 32.1-9.43zm0 0l26.28 29.13-.45 1.14-24.22-23.08zm91.68.04l.63 16.46 2.09 54.66h-8.37l2.09-54.66.63-16.46z"/><path class="st2" d="M194.45 263.62a2.59 2.59 0 10-2.59-2.59c0 1.42 1.16 2.59 2.59 2.59z"/><path class="st2" d="M194.45 261.03l-18.77-34.46.7-1 18.17 28.09zm0 0l-20.46 33.48-1.22-.1 15.24-29.79zm0 0l39.22.98.52 1.11-33.42 1.69zM270.48 286l.63 16.46 2.09 54.66h-8.36l2.09-54.66.63-16.46z"/><path class="st2" d="M269.02 288.59a2.59 2.59 0 10-2.59-2.59c0 1.42 1.17 2.59 2.59 2.59z"/><path class="st2" d="M269.02 286v-39.24l1.1-.54 2.52 33.36zm0 0l-33.98 19.62-1.02-.68 27.63-18.87zm0 0L303 305.62l-.07 1.22-30.16-14.49z"/><path d="M659.42 340.39l-39.1-22.58c-42.53-24.55-92.68-23.57-132.88.64-29.35 17.68-60.49 23.11-94.1 16.42-46.21-9.2-92.99 2.53-131.04 33.84l-39.54 32.53 198.38 164.78h238.28V340.39z" fill-rule="evenodd" clip-rule="evenodd" fill="#a1cdec"/><path d="M98.26 317.46h67.03c54.89 0 103.56 15.91 145.49 47.51 43.52 32.8 90.31 48.51 144.81 48.62 20.96.04 39.51 5.36 56.43 16.21 15.72 10.09 32.12 14.24 50.74 12.85 33.46-2.5 62.21-18.39 82.71-45.89l13.96-18.73V602.9l-488.28-49.26-72.89-236.18z" fill-rule="evenodd" clip-rule="evenodd" fill="#6ea9d9"/><path class="st2" d="M197.91 438.17h461.51v9.22H197.91zm461.51 12.34H239.39v156.66h24.58v-120.5c0-33.97 51.36-33.97 51.36 0v120.5h15.89v-120.5c0-33.97 51.36-33.97 51.36 0v120.5h15.89v-120.5c0-33.97 51.36-33.97 51.36 0v120.5h15.89v-120.5c0-33.97 51.36-33.97 51.36 0v120.5h15.89v-120.5c0-33.97 51.36-33.97 51.36 0v120.5h15.89v-120.5c0-33.97 51.36-33.97 51.36 0v120.5h7.81V450.51z"/><path class="st0" d="M197.91 447h461.51v3.51H197.91z"/><path class="st5" d="M0 327.49l1.32-1.32c20.36-20.36 45.18-30.59 73.97-30.49 28.8.1 53.54 10.49 73.77 30.99l89.73 90.95c16.37 16.59 36.86 24.55 60.13 23.36 18.53-.95 36.71 5.48 51.27 18.7 40.48 36.77 91.7 50.34 145.07 38.43 51.19-11.41 104.9.48 148.53 34.87l15.63 12.31V660.5H0V327.49z"/><path class="st6" d="M542.52 660.5l-123.07-81.12c-27.66-18.23-60.35-22.46-90.04-13.14-39.46 12.4-79.64 2.9-109.37-25.85l-10-9.67c-21.34-20.64-50.23-28.86-77.58-24.7-42.8 6.5-82.71-8.63-110.43-41.87L0 437.74V660.5h542.52z"/><path class="st2" d="M488.88 63.42c2.3-2.76 5.06-4.37 8.03-4.37 1.48 0 2.92.4 4.26 1.15 3.46 1.92 7.43 1.76 10.74-.42 2.44-1.61 5.07-2.48 7.81-2.48 2.59 0 5.08.78 7.41 2.23 4.18 2.6 9.45 1.96 12.89-1.56 2.6-2.66 5.61-4.18 8.82-4.18 3.67 0 7.09 2 9.93 5.42 3.03 3.65 7.95 4.78 12.28 2.82 1.74-.79 3.57-1.21 5.45-1.21 3.85 0 7.48 1.77 10.64 4.87 6.19 6.09 13.3 9.51 21.92 10.56l6.71.81H461.74l2.7-.33c9.91-1.21 18.04-5.63 24.44-13.31zM103.3 113.48c1.61 0 3.18.22 4.66.63 5.72 1.59 11.33.5 16.03-3.13a25.64 25.64 0 0115.71-5.34c7.6 0 14.43 3.29 19.14 8.53 3.5 3.89 7.96 5.93 13.2 6.04.16 0 .31.01.47.02 5.38.23 10.1-1.65 13.85-5.5 4.78-4.91 11.46-7.96 18.85-7.96 9.06 0 17.05 4.58 21.78 11.55 2.4 3.54 5.52 5.86 9.6 7.15 4.47 1.41 8.13 4.65 10.12 8.83 2.63 5.54 7.37 9.13 13.41 10.17l13.7 2.34H67.72l3.13-.54c8.39-1.44 14.52-8.2 15.13-16.69.65-9 8.15-16.1 17.32-16.1zm163.15-64.73c-1.05-1.25-2.3-1.98-3.65-1.98-.67 0-1.32.18-1.94.52-1.57.87-3.38.8-4.88-.19-1.11-.73-2.3-1.13-3.55-1.13-1.18 0-2.31.36-3.37 1.01-1.9 1.18-4.29.89-5.86-.71-1.18-1.21-2.55-1.9-4.01-1.9-1.67 0-3.22.91-4.52 2.46-1.38 1.66-3.61 2.17-5.58 1.28-.79-.36-1.62-.55-2.48-.55-1.75 0-3.4.8-4.83 2.21-2.82 2.77-6.04 4.32-9.96 4.8l-3.05.37h70l-1.23-.15c-4.48-.54-8.18-2.55-11.09-6.04zm117.14 69.54c2.06 0 4.06.28 5.95.81 7.31 2.03 14.47.63 20.48-4a32.751 32.751 0 0120.07-6.83c9.71 0 18.44 4.21 24.46 10.89 4.47 4.97 10.18 7.58 16.86 7.71.2 0 .4.01.6.02 6.87.29 12.9-2.1 17.7-7.03 6.11-6.27 14.64-10.16 24.09-10.16 11.58 0 21.78 5.85 27.83 14.75 3.07 4.52 7.06 7.49 12.27 9.13 5.71 1.8 10.39 5.93 12.93 11.28 3.36 7.08 9.41 11.67 17.14 12.99l17.5 3H338.14l4-.68c10.72-1.83 18.55-10.47 19.33-21.32.82-11.49 10.41-20.56 22.12-20.56z"/><path class="st7" d="M659.42 619.26v41.24H0v-27.23c34.71-1.97 69.9 18.02 119.82-9.99 55.46-31.12 63.14 35.57 157.01 6.87 60.69-18.55 59.33 29.87 172.16-4.62 50.85-15.54 84.02 23.05 133.3.53 27.34-12.49 53.39-13.58 77.13-6.8z"/><path class="st5" d="M405.02 426.46h224.3v9h-224.3z"/><path class="st2" d="M364 430.29l2.37-1.5c5.62-3.56 11.33-5.21 17.98-5.21h51.44a6.65 6.65 0 016.64 6.64v.33a6.65 6.65 0 01-6.64 6.64H366c-1.69 0-3.12-1.08-3.59-2.7-.47-1.62.17-3.3 1.59-4.2z"/><path class="st5" d="M364 430.29l2.37-1.5c2.51-1.59 5.04-2.8 7.66-3.65h66.03a6.617 6.617 0 012.37 5.08v.33c0 .27-.02.54-.05.8H362.9c.29-.42.65-.78 1.1-1.06z"/><path class="st2" d="M379.04 426.46c.72 0 1.32.59 1.32 1.32v.99c0 .73-.59 1.32-1.32 1.32-.73 0-1.32-.59-1.32-1.32v-.99c.01-.73.6-1.32 1.32-1.32zm58.44 0c.72 0 1.32.59 1.32 1.32v.99c0 .73-.59 1.32-1.32 1.32-.72 0-1.32-.59-1.32-1.32v-.99c.01-.73.6-1.32 1.32-1.32zm-6.49 0c.72 0 1.32.59 1.32 1.32v.99c0 .73-.59 1.32-1.32 1.32-.73 0-1.32-.59-1.32-1.32v-.99c0-.73.6-1.32 1.32-1.32zm-6.49 0c.72 0 1.32.59 1.32 1.32v.99c0 .73-.59 1.32-1.32 1.32-.72 0-1.32-.59-1.32-1.32v-.99c0-.73.59-1.32 1.32-1.32zm-6.5 0c.72 0 1.32.59 1.32 1.32v.99c0 .73-.59 1.32-1.32 1.32-.73 0-1.32-.59-1.32-1.32v-.99c.01-.73.6-1.32 1.32-1.32zm-6.49 0c.72 0 1.32.59 1.32 1.32v.99c0 .73-.59 1.32-1.32 1.32-.73 0-1.32-.59-1.32-1.32v-.99c0-.73.6-1.32 1.32-1.32zm-6.49 0c.72 0 1.32.59 1.32 1.32v.99c0 .73-.59 1.32-1.32 1.32-.72 0-1.32-.59-1.32-1.32v-.99c0-.73.59-1.32 1.32-1.32zm-6.5 0c.72 0 1.32.59 1.32 1.32v.99c0 .73-.59 1.32-1.32 1.32-.73 0-1.32-.59-1.32-1.32v-.99c.01-.73.6-1.32 1.32-1.32zm-6.49 0c.72 0 1.32.59 1.32 1.32v.99c0 .73-.59 1.32-1.32 1.32-.73 0-1.32-.59-1.32-1.32v-.99c0-.73.59-1.32 1.32-1.32zm-6.49 0c.72 0 1.32.59 1.32 1.32v.99c0 .73-.59 1.32-1.32 1.32-.73 0-1.32-.59-1.32-1.32v-.99c0-.73.59-1.32 1.32-1.32zm66.49-2.88h65.41c3.74 0 6.81 3.06 6.81 6.8 0 3.74-3.06 6.8-6.81 6.8h-65.41c-3.74 0-6.81-3.06-6.81-6.8 0-3.74 3.07-6.8 6.81-6.8z"/><path class="st5" d="M521.77 425.14a6.804 6.804 0 012.48 5.24c0 .33-.03.65-.07.96H445.3c-.05-.31-.07-.63-.07-.96 0-2.1.97-3.99 2.48-5.24h74.06z"/><path class="st2" d="M450.69 426.46c.72 0 1.32.59 1.32 1.32v.99c0 .73-.59 1.32-1.32 1.32-.72 0-1.32-.59-1.32-1.32v-.99c.01-.73.6-1.32 1.32-1.32zm69 0c.72 0 1.32.59 1.32 1.32v.99c0 .73-.59 1.32-1.32 1.32-.73 0-1.32-.59-1.32-1.32v-.99c0-.73.59-1.32 1.32-1.32zm-6.28 0c.73 0 1.32.59 1.32 1.32v.99c0 .73-.59 1.32-1.32 1.32-.72 0-1.32-.59-1.32-1.32v-.99c0-.73.6-1.32 1.32-1.32zm-6.27 0c.72 0 1.31.59 1.31 1.32v.99c0 .73-.59 1.32-1.31 1.32-.73 0-1.32-.59-1.32-1.32v-.99c0-.73.6-1.32 1.32-1.32zm-6.27 0c.73 0 1.32.59 1.32 1.32v.99c0 .73-.59 1.32-1.32 1.32-.73 0-1.32-.59-1.32-1.32v-.99c0-.73.59-1.32 1.32-1.32zm-6.28 0c.73 0 1.32.59 1.32 1.32v.99c0 .73-.59 1.32-1.32 1.32-.72 0-1.31-.59-1.31-1.32v-.99c0-.73.59-1.32 1.31-1.32zm-6.27 0c.72 0 1.32.59 1.32 1.32v.99c0 .73-.59 1.32-1.32 1.32-.73 0-1.32-.59-1.32-1.32v-.99c.01-.73.6-1.32 1.32-1.32zm-6.27 0c.73 0 1.32.59 1.32 1.32v.99c0 .73-.59 1.32-1.32 1.32-.72 0-1.32-.59-1.32-1.32v-.99c.01-.73.6-1.32 1.32-1.32zm-6.27 0c.72 0 1.32.59 1.32 1.32v.99c0 .73-.59 1.32-1.32 1.32-.72 0-1.32-.59-1.32-1.32v-.99c0-.73.6-1.32 1.32-1.32zm-6.27 0c.72 0 1.32.59 1.32 1.32v.99c0 .73-.59 1.32-1.32 1.32-.72 0-1.32-.59-1.32-1.32v-.99c0-.73.59-1.32 1.32-1.32zm-6.27 0c.72 0 1.32.59 1.32 1.32v.99c0 .73-.59 1.32-1.32 1.32-.72 0-1.32-.59-1.32-1.32v-.99c0-.73.59-1.32 1.32-1.32zm-6.28 0c.72 0 1.32.59 1.32 1.32v.99c0 .73-.59 1.32-1.32 1.32-.72 0-1.32-.59-1.32-1.32v-.99c.01-.73.6-1.32 1.32-1.32zm-1.36 9h12.29v4.83H455.6v-4.83zm45.98 0h12.29v4.83h-12.29v-4.83zm-128.29 0h12.29v4.83h-12.29v-4.83zm45.98 0h12.29v4.83h-12.29v-4.83zM535 423.58h65.41c3.74 0 6.8 3.06 6.8 6.8 0 3.74-3.06 6.8-6.8 6.8H535c-3.74 0-6.8-3.06-6.8-6.8-.01-3.74 3.05-6.8 6.8-6.8z"/><path class="st5" d="M604.73 425.14a6.804 6.804 0 012.48 5.24c0 .33-.02.65-.07.96h-78.88c-.04-.31-.07-.63-.07-.96 0-2.1.97-3.99 2.48-5.24h74.06z"/><path class="st2" d="M533.66 426.46c.73 0 1.32.59 1.32 1.32v.99c0 .73-.59 1.32-1.32 1.32-.73 0-1.32-.59-1.32-1.32v-.99c0-.73.59-1.32 1.32-1.32zm68.99 0c.73 0 1.32.59 1.32 1.32v.99c0 .73-.59 1.32-1.32 1.32-.72 0-1.32-.59-1.32-1.32v-.99c.01-.73.6-1.32 1.32-1.32zm-6.27 0c.72 0 1.32.59 1.32 1.32v.99c0 .73-.59 1.32-1.32 1.32-.73 0-1.32-.59-1.32-1.32v-.99c0-.73.6-1.32 1.32-1.32zm-6.27 0c.73 0 1.32.59 1.32 1.32v.99c0 .73-.59 1.32-1.32 1.32-.73 0-1.32-.59-1.32-1.32v-.99c0-.73.59-1.32 1.32-1.32zm-6.27 0c.73 0 1.32.59 1.32 1.32v.99c0 .73-.59 1.32-1.32 1.32-.72 0-1.32-.59-1.32-1.32v-.99c0-.73.59-1.32 1.32-1.32zm-6.27 0c.72 0 1.32.59 1.32 1.32v.99c0 .73-.59 1.32-1.32 1.32-.73 0-1.32-.59-1.32-1.32v-.99c0-.73.59-1.32 1.32-1.32zm-6.28 0c.73 0 1.32.59 1.32 1.32v.99c0 .73-.59 1.32-1.32 1.32-.72 0-1.31-.59-1.31-1.32v-.99c0-.73.59-1.32 1.31-1.32zm-6.27 0c.72 0 1.32.59 1.32 1.32v.99c0 .73-.59 1.32-1.32 1.32-.73 0-1.32-.59-1.32-1.32v-.99c0-.73.6-1.32 1.32-1.32zm-6.27 0c.73 0 1.32.59 1.32 1.32v.99c0 .73-.59 1.32-1.32 1.32-.72 0-1.32-.59-1.32-1.32v-.99c0-.73.6-1.32 1.32-1.32zm-6.27 0c.72 0 1.32.59 1.32 1.32v.99c0 .73-.59 1.32-1.32 1.32-.73 0-1.32-.59-1.32-1.32v-.99c0-.73.59-1.32 1.32-1.32zm-6.28 0c.73 0 1.32.59 1.32 1.32v.99c0 .73-.59 1.32-1.32 1.32-.72 0-1.32-.59-1.32-1.32v-.99c.01-.73.6-1.32 1.32-1.32zm-6.27 0c.72 0 1.32.59 1.32 1.32v.99c0 .73-.59 1.32-1.32 1.32-.73 0-1.32-.59-1.32-1.32v-.99c.01-.73.6-1.32 1.32-1.32zm-1.36 9h12.29v4.83h-12.29v-4.83zm45.98 0h12.29v4.83h-12.29v-4.83zm32.46-11.88h42.41v13.61h-42.41c-3.74 0-6.81-3.06-6.81-6.8 0-3.75 3.06-6.81 6.81-6.81z"/><path class="st5" d="M659.42 431.34h-49.15c-.05-.31-.07-.63-.07-.96 0-2.1.97-3.99 2.48-5.24h46.74v6.2z"/><path class="st2" d="M615.67 426.46c.72 0 1.32.59 1.32 1.32v.99c0 .73-.59 1.32-1.32 1.32-.73 0-1.32-.59-1.32-1.32v-.99c0-.73.59-1.32 1.32-1.32zm43.75 3.61c-.65-.08-1.16-.64-1.16-1.31v-.99c0-.67.51-1.23 1.16-1.31v3.61zm-6.12-3.61c.73 0 1.32.59 1.32 1.32v.99c0 .73-.59 1.32-1.32 1.32-.73 0-1.32-.59-1.32-1.32v-.99c0-.73.59-1.32 1.32-1.32zm-6.27 0c.72 0 1.32.59 1.32 1.32v.99c0 .73-.59 1.32-1.32 1.32-.73 0-1.32-.59-1.32-1.32v-.99c0-.73.59-1.32 1.32-1.32zm-6.28 0c.73 0 1.32.59 1.32 1.32v.99c0 .73-.59 1.32-1.32 1.32-.73 0-1.32-.59-1.32-1.32v-.99c.01-.73.6-1.32 1.32-1.32zm-6.27 0c.73 0 1.32.59 1.32 1.32v.99c0 .73-.59 1.32-1.32 1.32-.72 0-1.32-.59-1.32-1.32v-.99c.01-.73.6-1.32 1.32-1.32zm-6.27 0c.72 0 1.32.59 1.32 1.32v.99c0 .73-.59 1.32-1.32 1.32-.73 0-1.32-.59-1.32-1.32v-.99c0-.73.6-1.32 1.32-1.32zm-6.27 0c.73 0 1.32.59 1.32 1.32v.99c0 .73-.59 1.32-1.32 1.32-.72 0-1.31-.59-1.31-1.32v-.99c-.01-.73.58-1.32 1.31-1.32zm-1.37 9h12.29v4.83h-12.29z"/><path class="st6" d="M69.28 448.54l2.57 34.73L74.42 518H64.15l2.57-34.73zm30.07 19.31l3.05 27.33 3.04 27.32H93.27l3.04-27.32zm40.39 6.59l3.42 26.99 3.42 27H132.9l3.42-27zm21.73-22.83l4.66 29.96 4.66 29.96h-18.63l4.65-29.96z"/><path class="st6" d="M127.89 484.53l3.99 20.58 3.99 20.58H119.9l4-20.58zm79.89 8.34l5.14 28.65 5.13 28.64h-20.53l5.13-28.64z"/><path class="st6" d="M221.83 495.51l3.99 31.77 3.99 31.77h-15.96l3.99-31.77zm62.78 27.21l4.56 30.95 4.56 30.95h-18.25l4.56-30.95zm70.89-11.41l6.94 37.04 6.94 37.04h-27.75l6.94-37.04zm45.22 33.36l4.09 18.44 4.08 18.44h-16.35l4.09-18.44zm30.95 9.22l4.37 24.53 4.37 24.53h-17.49l4.38-24.53z"/><path class="st6" d="M341.28 522.72l4.35 31.94 4.36 31.94h-17.41l4.35-31.94zm48.03-1.31l5.98 31.27 5.99 31.28h-23.95l5.99-31.28zm-119.63 8.34l6.09 27.32 6.08 27.33h-24.33l6.08-27.33zm-97.93-54.63l2.87 18.51 2.86 18.51h-11.47l2.87-18.51z"/><path class="st5" d="M173.26 335.2l2.62 17.2 2.63 17.2h-10.5l2.62-17.2zm10.15 1.85l2.34 17.1 2.34 17.1h-9.36l2.34-17.1zm12.38 13.44l2.92 15.22 2.91 15.22h-11.65l2.91-15.22zm19.38 23.19l2.85 17.1 2.85 17.1h-11.41l2.85-17.1zm17.92 14.24l2.63 15.91 2.62 15.91h-10.5l2.63-15.91zm19.51 16.87l2.39 16.5 2.4 16.51h-9.59l2.4-16.51z"/><path class="st5" d="M227.42 387.65l2.12 14.04 2.11 14.03h-8.45l2.11-14.03zm-74.32-73.01l1.54 12.16 1.54 12.16h-6.17l1.54-12.16zm47.97 43.49l2.45 15.32 2.45 15.32h-9.81l2.45-15.32zm350.44 116.74l3.42 16.8 3.42 16.79h-13.68l3.42-16.79zm-59.7 3.52l2.85 13.33 2.85 13.33h-11.4l2.85-13.33zm124.01 19.75l2.57 13.83 2.57 13.83h-10.27l2.57-13.83z"/><path class="st5" d="M607.48 486.68l3.14 17.46 3.14 17.47h-12.55l3.14-17.47zm-49.06-17.51l2.81 18.68 2.8 18.69h-11.21l2.8-18.69zm-71.99 14.05l2.99 11.44 3 11.44h-11.98l3-11.44zm25.57-.88l2.85 12.34 2.86 12.35H506.3l2.85-12.35zm-70.57.22l2.33 12.26 2.33 12.26h-9.31l2.32-12.26zm-27.87-2.2l2.8 12.43 2.81 12.43h-11.22l2.8-12.43z"/><path class="st5" d="M421.02 476.41l2.33 14.16 2.33 14.15h-9.32l2.33-14.15z"/><path class="st5" d="M426.31 483.49l2.79 12.49 2.8 12.49h-11.18l2.8-12.49z"/><path class="st7" d="M594.99 518.38l7.45 39.88-6.41.88 6.7.71 4.16 22.26-9.81 1.28 10.39 1.82.28 1.53 6.33 33.91-12.61 1.21 13.29 2.41 5.75 30.82h-51.05l4.1-21.93 14.74-1.27-14.18-1.74 6.01-32.2 10.26-2.02-9.54-1.82 1.37-7.37 3.19-17.08 5.61-2.16-5.07-.71zm-52.76-9.66l7.44 39.88-6.4.88 6.7.71 4.16 22.26-9.81 1.28 10.39 1.82.28 1.53 6.33 33.91-12.61 1.21 13.29 2.41 5.75 30.83H516.7l4.1-21.94 14.74-1.27-14.18-1.74 6.01-32.2 10.26-2.01-9.54-1.83 1.37-7.37 3.19-17.08 5.61-2.15-5.07-.72z"/><path class="st7" d="M501.32 530.41l5.62 30.05-4.83.67 5.05.53 3.13 16.78-7.39.96 7.83 1.38.21 1.14 4.77 25.56-9.5.91 10.01 1.83 4.34 23.22h-38.48l3.09-16.53 11.11-.96-10.69-1.31 4.53-24.26 7.74-1.52-7.19-1.38 1.03-5.56 2.41-12.87 4.22-1.62-3.82-.54zm-82.75 12.95l5.61 30.05-4.82.67 5.05.53 3.13 16.78-7.39.96 7.83 1.37.21 1.15 4.77 25.56-9.5.91 10.01 1.82 4.34 23.23h-38.48l3.09-16.53 11.11-.95-10.68-1.32 4.53-24.26 7.73-1.52-7.19-1.38 1.03-5.56 2.41-12.87 4.22-1.62-3.82-.54zm-278.56-42.64l7.44 39.88-6.4.88 6.7.71 4.16 22.26-9.81 1.28 10.39 1.82.28 1.53 6.33 33.91-12.61 1.21 13.29 2.41 5.75 30.82h-51.05l4.1-21.93 14.74-1.27-14.18-1.74 6.01-32.2 10.26-2.01-9.54-1.83 1.37-7.37 3.19-17.08 5.61-2.15-5.07-.72zm48.86 35.79l6.09 32.63-5.24.73 5.48.57 3.4 18.22-8.02 1.05 8.5 1.49.23 1.25 5.18 27.75-10.32.99 10.88 1.97 4.71 25.23h-41.78l3.35-17.95 12.06-1.04-11.6-1.43 4.92-26.35 8.39-1.64-7.8-1.5 1.12-6.03 2.61-13.98 4.59-1.76-4.15-.59z"/><path class="st7" d="M224.34 514.6l6.96 37.3-5.99.82 6.27.66 3.88 20.83-9.17 1.19 9.72 1.71.26 1.42 5.93 31.72-11.8 1.13 12.43 2.26 5.38 28.82h-47.75l3.83-20.51 13.79-1.19-13.26-1.63 5.62-30.11 9.6-1.89-8.93-1.7 1.29-6.9 2.98-15.97 5.24-2.02-4.74-.66zm-193.2-5.1l7.45 39.88-6.41.88 6.7.71 4.16 22.26-9.81 1.28 10.39 1.82.28 1.53 6.33 33.91-12.61 1.21 13.29 2.41 5.76 30.82H5.61l4.1-21.93 14.74-1.27-14.18-1.74 6.01-32.2 10.26-2.01-9.54-1.83 1.38-7.37 3.18-17.08 5.61-2.15-5.07-.72z"/></svg>