<svg xmlns="http://www.w3.org/2000/svg" xmlns:xlink="http://www.w3.org/1999/xlink" viewBox="0 0 750 500"><style>.st2{clip-path:url(#SVGID_3_)}.st4{opacity:.15;fill:#272763}.st14,.st6{opacity:.32}.st6{fill:#fff}.st14{fill:#eee8c1}</style><g id="BACKGROUND"><linearGradient id="SVGID_1_" gradientUnits="userSpaceOnUse" x1="375" y1="212.593" x2="375" y2="-27.4"><stop offset="0" stop-color="#c3cfbb"/><stop offset=".175" stop-color="#bfc6bf"/><stop offset=".462" stop-color="#b4aecb"/><stop offset=".821" stop-color="#a286dd"/><stop offset="1" stop-color="#9870e8"/></linearGradient><path fill="url(#SVGID_1_)" d="M0 0h750v500H0z"/></g><g id="OBJECTS"><defs><path id="SVGID_2_" d="M0 0h750v500H0z"/></defs><clipPath id="SVGID_3_"><use xlink:href="#SVGID_2_" overflow="visible"/></clipPath><linearGradient id="SVGID_4_" gradientUnits="userSpaceOnUse" x1="289.167" y1="329.442" x2="289.167" y2="183.697"><stop offset="0" stop-color="#c3cfbb"/><stop offset=".175" stop-color="#bfc6bf"/><stop offset=".462" stop-color="#b4aecb"/><stop offset=".821" stop-color="#a286dd"/><stop offset="1" stop-color="#9870e8"/></linearGradient><path d="M-6.47 239L31 230h32l48.5-14 89 31 36 3s73-38.33 80-40.17c7-1.83 43-4.33 43-4.33L422 216l169.33 81.75v40.02H-13L-6.47 239z" clip-path="url(#SVGID_3_)" fill="url(#SVGID_4_)"/><g class="st2"><linearGradient id="SVGID_5_" gradientUnits="userSpaceOnUse" x1="434.667" y1="344.333" x2="434.667" y2="198.742"><stop offset=".034" stop-color="#d4bfe0"/><stop offset=".316" stop-color="#baa2e2"/><stop offset=".922" stop-color="#7859e7"/><stop offset="1" stop-color="#6f4fe8"/></linearGradient><path fill="url(#SVGID_5_)" d="M278 282.92l65.51-46.59L390.5 216l46.34-51.67 9.28-9.33h15.21L482 167.67l14-.67 8 10.67 51.33 41.29 36 112.03H278z"/><path class="st4" d="M343.51 236.33L398 265.5l82 65.49h16l-61.33-72.66L425.5 239l-18.5-5-16.5-18zM461.33 155L481 189.5l29.12 10.83 46.38 39.17 16.36 33.99-17.53-54.53L504 177.67 496 167l-14 .67z"/></g><g class="st2"><linearGradient id="SVGID_6_" gradientUnits="userSpaceOnUse" x1="365.333" y1="423" x2="365.333" y2="281.93"><stop offset="0" stop-color="#aa94d0"/><stop offset=".184" stop-color="#957ec8"/><stop offset=".533" stop-color="#725abb"/><stop offset=".818" stop-color="#5c44b3"/><stop offset="1" stop-color="#543cb0"/></linearGradient><path fill="url(#SVGID_6_)" d="M756 209.83l-31.33-9.5-15.34 4.75L670 217l-74 52.67-106 16-66.94-6-30.83-7.34-17.23 3.34-63.07-17.34L290 247l-30 .67-14 10.66-19.33.67L158 277.67l-84.67 12.66-98.66 19.48v85.36H756z"/><path class="st6" d="M290 247l-26.67 5.33-11.66 14.34-29.34-1.67L158 277.67 226.67 259l19.33-.67 14-10.66z"/><path class="st4" d="M349.67 303.67L313.33 326 242 334l-53.59 61.17h336.65l-32.9-109.83-2.16.33-66.94-6-30.83-7.34-17.23 3.34-63.07-17.34 37.74 32z"/></g><g class="st2"><linearGradient id="SVGID_7_" gradientUnits="userSpaceOnUse" x1="366.5" y1="472" x2="366.5" y2="238.999"><stop offset=".006" stop-color="#846dc2"/><stop offset=".094" stop-color="#7760b9"/><stop offset=".322" stop-color="#5b44a4"/><stop offset=".551" stop-color="#463096"/><stop offset=".777" stop-color="#3a248d"/><stop offset="1" stop-color="#36208a"/></linearGradient><path d="M-34 338s43-69 61-72 39 0 39 0 74.2 65 96.1 72 114.9 8 114.9 8l67.93-14L396 315l13.82-19 16.79-5.67h8.35S451 263 455 250s13-22 13-22 1-16 7-17.5 16.5 0 16.5 0L502 212l29-35s11.5-17 17-19.5 14.5-17.5 14.5-17.5H586l39 15s15.5 31.5 27 37.5 24 18 24 18 17 36.5 25 43 22 17.5 22 17.5l44 47v194H-34V338z" fill="url(#SVGID_7_)"/><path d="M524.5 296.5l24.07 36.76L558 356l47-12s-33.5-50.5-45.5-60.75-32-19.75-32-19.75L502 212l-10.5-1.5s-10.5-1.5-16.5 0c0 0 20 29 23.5 46.5s26 39.5 26 39.5zm132-71.5l21 61 4.5-16.5 37.5 36 47.5 25.49V318l-44-47s-14-11-22-17.5-25-43-25-43-12.5-12-24-18-27-37.5-27-37.5l17 46 14.5 24z" opacity=".33" fill="#272763"/><path class="st6" d="M-34 374.85l27.53-31.35 22.97-33.69 23.57-45.05c-4.31.15-8.77.53-13.07 1.24-18 3-61 72-61 72v36.85z"/></g><radialGradient id="SVGID_8_" cx="696" cy="337.772" r="320.753" gradientUnits="userSpaceOnUse"><stop offset=".05" stop-color="#aeeebf"/><stop offset="1" stop-color="#aeeebf" stop-opacity="0"/></radialGradient><circle cx="696" cy="337.77" r="320.75" opacity=".9" clip-path="url(#SVGID_3_)" fill="url(#SVGID_8_)"/><radialGradient id="SVGID_9_" cx="18" cy="0" r="533.293" gradientUnits="userSpaceOnUse"><stop offset=".05" stop-color="#aeeebf"/><stop offset="1" stop-color="#aeeebf" stop-opacity="0"/></radialGradient><circle cx="18" r="533.29" opacity=".47" clip-path="url(#SVGID_3_)" fill="url(#SVGID_9_)"/><g class="st2"><linearGradient id="SVGID_10_" gradientUnits="userSpaceOnUse" x1="298.667" y1="428" x2="298.667" y2="306"><stop offset="0" stop-color="#5741a2"/><stop offset=".618" stop-color="#38267a"/><stop offset="1" stop-color="#281866"/></linearGradient><path d="M614.67 464.35s-96.83-33.01-110.42-37.85-57.91-33.5-67.41-37.5-35.74-4-35.74-4l-11.35-9.33-21.74-5.33-8.56-3.33-21.81-20.67s-21.22-1.33-33.76-4-34.54-6.67-34.54-6.67L224 315l-54.67-20.67-38.67-4L115.33 305s-10.67 32.67-20 38c-9.33 5.33-32 17-32 17l-24.67 17.34H18l-35.33 33.56V500h632v-35.65z" fill="url(#SVGID_10_)"/><path d="M74 360l36-15.67 28.67-34.53 30.67-15.47-38.67-4L115.33 305s-10.67 32.67-20 38c-9.33 5.33-32 17-32 17l-24.67 17.34 11.34.33L74 360z" opacity=".1" fill="#fff"/></g><linearGradient id="SVGID_11_" gradientUnits="userSpaceOnUse" x1="382.433" y1="496.003" x2="382.433" y2="307.294"><stop offset=".201" stop-color="#3f2d7f"/><stop offset=".4" stop-color="#352470"/><stop offset=".765" stop-color="#26185a"/><stop offset="1" stop-color="#201352"/></linearGradient><path d="M-6.47 480.67s165.13-48.33 166.13-49c1-.67 10 .33 13 0s27.33-12 28.67-12.67c1.33-.67 9 .33 15 5s8.33-2 9.33-1 10.33 11.33 11 10c.67-1.33 5.33.67 7.33 0s16.33-9.33 23.67-13c7.33-3.67 13.33-2.33 26.67-4 13.33-1.67 33-8.33 36.33-9.33 3.33-1 15.33 4.67 25.46 6.33 10.13 1.67 13.87-3 18.87-2.67 11 .73 25-4 28.85-5.33 3.85-1.33 42.28-11.33 42.28-11.33l108.54-64 22.67-19.86s21.33 5.19 31.33 1.19 24.67 3.33 24.67 3.33 29.33 7.33 42 11.33c12.67 4 33.33 21.33 33.33 21.33l26.67 13h36v152H-6.47v-31.32z" clip-path="url(#SVGID_3_)" fill="url(#SVGID_11_)"/><g class="st2"><path class="st14" d="M584.67-10.33S554 8.34 540 11s-8 3.33-20 4.67c-12 1.33-12.67-2.67-26.67 0-14 2.67-24 2-27.33 8.67C462.67 31 487.33 27 486 33c-1.33 6-19.33 4-24.67 7.33C456 43.67 480 43.67 444 47.67s-28.67-8-51.33 6.67C370 69 370.67 66.33 348 69.67 325.33 73 306 74.33 319.33 83c13.33 8.67 71.33 7.33 75.33 12s-33.33 6.67-58 6c-24.67-.67-39.33-8.42-70 .12s-33.33 14.54-64 14.54-38-1.33-90 4-46.32-.67-80.67 0c-34.33.67-38.46-.66-38.46-.66V-7l591.14-3.33z"/><path class="st14" d="M-22 79s44.63-4 62.07-3C57.5 77 77 83 98.5 85s66.67 2.5 70.83 9S180 105 196 107s15 10.29 31.5 14.9 45 10.6 45 10.6-34 2-54 0-24-3.5-40-1.5-21-6.5-36-6-15 3.28-26.5 8.39S107.5 146 79 140s-33.5-1.5-54.5 0-37 2-39.5 0-7-61-7-61zm317 58.5s15 3.94 39.5 4.72c24.5.78 50.5-1.78 70.5 0s46-3.72 63.5-4.72 43.5-1 46.5 0 21-.75 21-.75-16.5-5.25-32.5-5.75-29 .5-39-3.5-24.17-.5-29.83 0c-5.67.5-22.17 6-38.67 4s-37-1.5-37-1.5l-64 7.5zM547 119s17.5-8.21 41.5-7.1 36 6.19 47.5-.1 16-8.29 30-9.29 17 4.5 32.5 5 51.5-3 51.5-3V155s-23-5-39.5-6-21.5-1.5-36-8-12.5-3.5-34-6-14 1.38-35-6.31C584.5 121 556 115.5 547 119zm60.5-56.5S634 55 643 50.5s16 0 26.5 2.5 19.5 5.58 30.5 2.54 19.5.96 26.5 2.46 29.5 1 29.5 1v13s-43-2-54-3.5-12 4.5-29.5-1.5-15-10.42-31-6.71-34 2.21-34 2.21z"/></g><path d="M485.88 123.79s-3.98-1.79-5.91 0c0 0 3.71-.55 5.91 2.2 2.2-2.75 5.91-2.2 5.91-2.2-1.92-1.79-5.91 0-5.91 0zm-147.02 56.95s-5.01-2.25-7.43 0c0 0 4.66-.69 7.43 2.76 2.76-3.46 7.43-2.76 7.43-2.76-2.42-2.24-7.43 0-7.43 0zm211-83.16s-6.65-2.98-9.86 0c0 0 6.19-.92 9.86 3.67 3.67-4.59 9.86-3.67 9.86-3.67-3.2-2.99-9.86 0-9.86 0zm-44.87 20.53s-2.34-1.05-3.47 0c0 0 2.18-.32 3.47 1.29 1.29-1.61 3.47-1.29 3.47-1.29-1.13-1.05-3.47 0-3.47 0zm157.75 56.18s-2.19-.98-3.24 0c0 0 2.04-.3 3.24 1.21 1.21-1.51 3.24-1.21 3.24-1.21-1.06-.98-3.24 0-3.24 0zm-306 12.71s-2.19-.98-3.24 0c0 0 2.04-.3 3.24 1.21 1.21-1.51 3.24-1.21 3.24-1.21-1.06-.98-3.24 0-3.24 0zm-54.6 12.92s-2.34-1.05-3.47 0c0 0 2.18-.32 3.47 1.29 1.29-1.61 3.47-1.29 3.47-1.29-1.13-1.05-3.47 0-3.47 0z" fill="#53307d"/><linearGradient id="SVGID_12_" gradientUnits="userSpaceOnUse" x1="162.1" y1="583" x2="162.1" y2="471.121"><stop offset=".34" stop-color="#3f2d7f"/><stop offset=".504" stop-color="#352470"/><stop offset=".806" stop-color="#26185a"/><stop offset="1" stop-color="#201352"/></linearGradient><path d="M330.67 517s-7.37-21-11.85-27.33c-4.48-6.33-13.48-11.35-13.48-11.35s-11.67 1.31-15.33 0c-3.67-1.31-3.67-9.38-6-10.85-2.33-1.47-4.33-17.47-9.67-18.47-.67 5.33 4.33 12.06-2 15.7-6.33 3.64-9.33 8.05-9.33 10.84s-3 7.46-3 7.46-1.58-4.62-4.98-5.59c-3.4-.97-4.85.75-4.85.75l-.97-2.87s-4.69 2.28-6.47.18c-1.78-2.1-3.4-3.8-3.4-3.8s-3.72 2.68-4.85.09c-1.13-2.6-1.94-8.26-3.4-9.23-1.46-.97 0-13.52 0-13.52s-4.05 7.21-4.37 12.06c-.32 4.85-2.75 7.13-4.85 10.69-2.1 3.55-.81 7.13-2.27 11.25s-5.34 6.06-5.99 3.15c-.65-2.91 1.13-4.85-2.59-4.21-3.72.65-5.99 1.94-5.99 1.94s1.46-3.35-1.62-5.72-2.59 1.48-5.34-2.87-7.44.62-10.19-2.19c-2.75-2.81-4.21-7.58-4.21-7.58s0-5.1-1.13-7.69c-1.13-2.59-4.21-1.94-4.21-1.94s-.32-5.5-3.56-9.39c-3.24-3.88-1.78-5.66-2.75-7.93-.97-2.27-3.72-3.85-4.21-2.57s-.65 7.43-3.56 10.5c-2.91 3.07-5.66-2.43-8.09 1.62-2.43 4.05-4.53 6.8-4.53 6.8s-6.47-2.59-7.61-4.37c-1.13-1.78-.97-4.37-2.43-5.18-1.46-.81-2.43-13.92-4.21-14.56-1.78-.65 0 4.08-.97 5.19s-7.77-.66-7.61 6.62c.16 7.28-4.53-4.05-4.53-4.05l-2.75-5.99s-1.94-14.24-3.24-12.14c-1.29 2.1-1.78 10.84-1.78 10.84s-3.4 1.94-4.05 6.63c-.65 4.69-1.13 8.09-1.62 8.74-.49.65-2.43-3.07-3.56-3.56-1.13-.49-1.46-19.9-2.43-19.9-.97 0-2.91 5.99-2.91 7.28s-.49 8.58-2.59 8.74-4.53-.65-5.66.49-4.05-12.46-6.15-8.74c-2.1 3.72-2.59 5.34-2.59 5.34l-3.24-5.34s-2.1-19.74-4.37-18.61c-2.27 1.13-1.94 7.61-1.94 8.25 0 .65 1.13 2.59-1.29 5.5-2.43 2.91-2.91 6.15-3.07 7.28-.16 1.13-1.78 3.4-1.78 3.4l-3.72-8.25s-2.75-11.65-3.07-12.3c-.32-.65-2.59-.49-1.94 5.5.65 5.99.16 8.74-1.29 9.71-1.46.97-6.63-4.85-6.63-4.85l-3.4-6.15s-2.43.16-2.1 5.99c.32 5.83-.81 9.22-1.13 10.19-.32.97-4.53-11.97-4.53-12.46 0-.49-4.05-5.66-4.37-6.47-.32-.81 2.43-16.18-.81-14.24-3.24 1.94-3.24 8.41-2.91 9.87s1.46 9.55-1.13 10.84c-2.59 1.29-3.88 4.05-4.05 5.34s-3.24-8.58-3.24-8.58-5.18 0-6.47-2.27-2.91-9.71-2.91-9.71-1.13-8.09-2.75-3.56.16 8.25-1.13 10.36c-1.29 2.1-4.53 1.94-4.53 1.94l-4.05-5.5-9.55-9.71V517h337.13z" clip-path="url(#SVGID_3_)" fill="url(#SVGID_12_)"/><linearGradient id="SVGID_13_" gradientUnits="userSpaceOnUse" x1="510.125" y1="575" x2="510.125" y2="453.736"><stop offset=".048" stop-color="#3f2d7f"/><stop offset=".436" stop-color="#2b1d5e"/><stop offset=".78" stop-color="#1e1348"/><stop offset="1" stop-color="#190f40"/></linearGradient><path d="M760.25 446.25s-12.75-8-14-12.25.75-8.25 0-12.75-.42-10.5-.42-10.5l-2.58-13s-.25 4.5-2.25 9.75-4.25 11.25-3.25 14.5-1.25 8-1.25 8 1 10-1.25 8-3.75-7.25-3.75-7.25 1.75 7.75-1.5 6-5-7-5-7-2.75 5-4 4-6 0-7.5-3.25-4-12.25-7-14.75-4-9-5.75-9-2.25 11-3.5 13.25-3 7.75-3 7.75-2-6.75-3.25-10.5-2-5.25-3-9.75-2.75-6.5-2.75-6.5-1.5 4-1.75 7 0 11.5 0 11.5l-.11 5.5s-7.89-6-8.14-12.5-3-7.5-3-7.5-2.75-4-4.25-5.75-.75-16.25-2.25-18.25-3.5-11.5-3.5-11.5-2 10.5-2.5 16.5-2 14-2 14L654 412.75l-4 4.25s-.25-3.25-2.25-12.25S645 393 645 392.25s-2.25-20-4-22.75c0 0-.75 1-2 4.25s-3.25 7.75-3.25 9S634.5 393 634.5 393l-2 8s-3-4.5-3.5-8-2.25-10-2.5-10.75-2-22.25-2-22.25-5.25 8.75-6.75 18.75-2 6.25-2.75 13.75-1.25 18.25-1.25 18.25-4-10.5-4.75-11.75 0-13.25 0-13.25.83-16.5-.33-18.75c-1.17-2.25-2.17 4-2.17 4s-.75 10.5-4.5 15.25-3 14.25-3 14.25l-2.75 10.5v6.5s-1.5-11-3.5-15.5-2-15.75-2-15.75-2.25 2.5-2.75 7 0 12 0 12-4 5.75-4 7.75c0 0-.75-9-2-9.88s-1 3.62-2.25 3.62-6-14.5-6-14.5l-1.25-5s.5.5 0 7.25 0 12.75 0 12.75l-4-2.75s-.75-10.75-2-11.5-1.25 6.75-1.75 8-3.5 2.25-3.75 10.5-1.75 12-1.75 12-4.5-4-5.25 2.5-7 3.5-7 3.5-2.75 6.25-5 3.75-7.5 5.75-9.25 2.75.5-5.5 0-9.5-1.5-6.25-2-9 0-12.5 0-12.5-3.5-1.75-3.5 4 .25 9.75-2 14.25l-3.75 7.5s-.25-4.25 0-9 1.28-10.25-.11-10.25c-1.39 0-1.39 1-2.14 5.75s-3.75 14.25-3.75 14.25-1-4.75-1.5-9 0-6.75 0-6.75-3.75.25-3.75 3.25-2.25 11.26-2.25 11.26l-1.5 5.5s-3-5.5-2.25-9.25-.12-14.25-.12-14.25-3.13 2-3.13 6 .75 8.5 0 10-3 3.75-3 5.25v5.5s-7.75 3.75-7.75 4.5-1.75 4.75-1.75 4.75-6.75-.75-8-3.5-4.75-11.75-4.75-11.75-.25 2.75-1.25 5.5-.5 5.5-1.75 9.75-2 5-3 3.75-4-4.25-3-8.5-.25-1.75-1.25-8.75S464 423 464 423s-3.25 3.75-4.25 10 2.25 8 0 11.75-4.25 5.59-4.25 7.8c0 2.2-1 4.95-1.5 3.7s-1-7.75-3.25-10-1 4.5-1.75 5.25-4 3.75-4 3.75 1-4.75 0-8 .25-10 0-11.25-2.39-5.75-2.39-5.75-2.66 5.75-3.51 8.5-3.64 0-3.5 4.75c.15 4.75-1.35 12-2.35 11.75s-2.08-6-2.04-7.25c.04-1.25 1.71-2.75 0-8.5s-3.79-9.25-3.75-10.25c.04-1-.04 3 0 3.75s-.47 10-.84 10.75-1.12.5-2.37 8.75-3 8.8-3.5 8.78c-.5-.03-1.24-13.53-1.24-13.53L416.5 441s-1.61 13.5-4.18 13.5-5.62-5.25-5.72-6.25c-.1-1-6.1-7.25-6.6-12s-1.25-7-1.25-7-4.92 8.5-4.46 13.5-2.06 13.75-2.06 13.75-6.24-4.75-8.23-11.5c-1.99-6.75-5.21-15.25-5.21-15.25s-4.81 14.75-3.54 17.25c1.26 2.5-8.22 7-7.23 10s-8.56 4.28-8.56 4.28l-5.45-6.53-4.25-12s-3.39 10.5-4.82 13.75-4.36 9.22-4.36 9.22l-7.07-9.97-4.31-8.25s-3.23 10.25-2.71 12.5-2.48 4.68-2.48 5.47-3.5-1.12-3.5-1.12v-10.1l-3.25-9.25s-2.25 8.5-1.88 9.25c.38.75-1.37 7.03-1.37 7.03l-6.81 3.07-4.69 6.16s-.75-5.76-1.75-10.51 0-10.5 0-10.5-4.5 4.62-3.25 13.44.5 13.44-1.25 15.38c-1.75 1.94-4.75-.81-5.75 5.19s-5.75 9.75-6.75 10.5S271 501.25 271 502s-11 10-11 10h497.33l2.92-65.75z" clip-path="url(#SVGID_3_)" fill="url(#SVGID_13_)"/></g></svg>