<svg version="1.1" id="publicdomainvectors.org" xmlns="http://www.w3.org/2000/svg" x="0" y="0" viewBox="0 0 660 660" xml:space="preserve"><style>.st1{fill:#25add8}.st1,.st2,.st4,.st5,.st7{fill-rule:evenodd;clip-rule:evenodd}.st2{fill:#6dcdf0}.st4{fill:#0091bc}.st5{fill:#0088b4}.st7{fill:#007297}</style><path fill-rule="evenodd" clip-rule="evenodd" fill="#46c3eb" d="M0 .32h658.38V658.7H0V153.22z"/><path class="st1" d="M462.17 243.51l55.66-42.45 10.84 3.77 42.45-33.95 11.32 4.71 10.37-2.36 50.47 31.6 15.1-9.14v133.82z"/><path class="st2" d="M462.81 243.02l55.02-41.96 10.84 3.77 42.45-33.95-5.66 18.86 11.32 10.38-18.87 25.46 5.19 11.79-22.17 40.66-78.23-34.29z"/><path class="st1" d="M0 256.7l35.36-21.21 25.47-1.89 47.16-27.35 33.01 13.2 46.22-1.88 120.74 47.16L0 369.43z"/><path class="st2" d="M0 256.7l35.36-21.21 25.47-1.89 47.16-27.35-11.79 19.81 9.9 4.71-9.43 15.09-14.15 6.61-13.68 20.75-.94 11.79-.47 1.41-24.52 8.49-5.19 13.21-10.9 10.21L0 334.81z"/><path fill-rule="evenodd" clip-rule="evenodd" fill="#009cc7" d="M0 325.21l80.4-20.63 61.31-40.56 55.65-1.89 72.63-99.98 93.38-75.46 83.01 92.44 75.46 39.61 59.42 51.88 43.39 7.55 33.73 23.61V503.6L0 491.34z"/><path class="st4" d="M578.24 329.94c.14 5.88-.91 10.21-3.08 13.09 1.14-.12 2.16-.44 3.08-.94-.73 6.8-3.16 10.8-5.72 14.58 1.77.15 3.28-.14 4.59-.75-.22 9.59-3.45 16.47-7.27 22.81 2.43-.7 4.58-1.92 6.54-3.55-2.66 8.58-7.74 14.05-13.3 18.89h44.13c-7.32-4.29-12.89-10.86-17.37-18.89 2.2 1.76 4.65 2.91 7.3 3.55-5.3-6.89-9.46-14.43-12.18-22.81 1.44.53 3.01.83 4.76.75-3.99-3.7-6.76-8.77-8.86-14.58 1.02.45 2.11.76 3.28.94-2.73-2.78-4.49-7.58-5.9-13.09z"/><path class="st5" d="M591.18 331.91c.14 5.88-.91 10.21-3.08 13.09 1.14-.12 2.17-.44 3.08-.93-.73 6.8-3.16 10.8-5.72 14.59 1.77.14 3.28-.14 4.6-.75-.22 9.59-3.45 16.47-7.27 22.81 2.43-.7 4.58-1.92 6.53-3.55-2.66 8.58-7.73 14.05-13.3 18.89h44.14c-7.32-4.29-12.89-10.86-17.37-18.89 2.21 1.77 4.66 2.91 7.3 3.55-5.3-6.89-9.46-14.43-12.18-22.81 1.44.54 3 .84 4.75.75-3.99-3.7-6.76-8.77-8.86-14.59 1.01.45 2.11.76 3.28.93-2.73-2.77-4.49-7.58-5.9-13.09z"/><path class="st4" d="M536.06 330.55c.14 5.88-.91 10.21-3.08 13.09 1.14-.12 2.16-.44 3.08-.93-.73 6.8-3.16 10.8-5.72 14.59 1.77.14 3.28-.14 4.59-.75-.22 9.59-3.45 16.47-7.27 22.81 2.43-.69 4.58-1.92 6.54-3.55-2.66 8.58-7.74 14.05-13.3 18.89h44.13c-7.31-4.28-12.89-10.86-17.37-18.89 2.2 1.77 4.65 2.91 7.3 3.55-5.3-6.88-9.46-14.43-12.18-22.81 1.44.54 3.01.83 4.76.75-4-3.7-6.76-8.77-8.86-14.59 1.02.45 2.11.76 3.28.93-2.74-2.77-4.49-7.58-5.9-13.09z"/><path fill-rule="evenodd" clip-rule="evenodd" fill="#72cff2" d="M363.37 86.69l-14.62 31.6 8.02.47-18.87 35.84-14.14 5.19-11.79 34.43 18.86-.47-16.03 37.73 9.9 6.13-7.07 16.03 11.79 24.06-26.41 35.84-13.21 10.85-.47 20.75-23.11 40.56-6.6 52.82-109.89-5.66 36.78-33.48-16.5-25 9.43-17.45-26.88-19.81 37.73-39.14-3.78-11.32-17.92-9.91 28.77-14.62 72.63-99.98z"/><path class="st5" d="M464.37 326.77c.14 5.88-.91 10.21-3.08 13.09 1.14-.12 2.17-.44 3.08-.93-.73 6.8-3.16 10.8-5.72 14.59 1.77.14 3.28-.14 4.59-.75-.22 9.59-3.45 16.47-7.27 22.81 2.43-.7 4.58-1.92 6.54-3.55-2.66 8.58-7.74 14.05-13.3 18.89h44.13c-7.32-4.29-12.89-10.86-17.37-18.89 2.21 1.76 4.65 2.91 7.3 3.55-5.3-6.89-9.46-14.43-12.18-22.81 1.44.54 3 .83 4.76.75-4-3.7-6.76-8.77-8.86-14.59 1.02.45 2.11.76 3.28.93-2.73-2.77-4.49-7.57-5.9-13.09z"/><path class="st5" d="M493.24 321.22c.14 5.88-.91 10.21-3.08 13.09 1.14-.12 2.17-.44 3.08-.93-.73 6.8-3.16 10.8-5.72 14.59 1.77.14 3.28-.14 4.59-.75-.22 9.59-3.44 16.47-7.27 22.81 2.43-.7 4.58-1.92 6.54-3.55-2.66 8.59-7.74 14.05-13.3 18.89h44.13c-7.32-4.29-12.89-10.86-17.37-18.89 2.21 1.77 4.65 2.91 7.3 3.55-5.3-6.89-9.46-14.43-12.18-22.81 1.44.54 3 .83 4.76.75-3.99-3.7-6.76-8.77-8.86-14.59 1.01.45 2.11.76 3.28.93-2.73-2.77-4.49-7.58-5.9-13.09z"/><path class="st5" d="M517.78 325.58c.15 5.88-.91 10.21-3.08 13.09 1.14-.12 2.16-.44 3.08-.93-.73 6.8-3.16 10.8-5.72 14.59 1.77.14 3.28-.14 4.59-.75-.22 9.59-3.45 16.47-7.27 22.81 2.43-.7 4.58-1.92 6.54-3.55-2.66 8.58-7.74 14.05-13.3 18.89h44.14c-7.32-4.28-12.89-10.86-17.37-18.89 2.2 1.76 4.65 2.91 7.3 3.55-5.3-6.88-9.46-14.43-12.18-22.81 1.44.54 3 .84 4.76.75-4-3.7-6.76-8.77-8.86-14.59 1.01.45 2.11.76 3.28.93-2.75-2.78-4.5-7.58-5.91-13.09zm-171.27 10.09c.14 5.88-.91 10.21-3.08 13.09 1.14-.12 2.16-.44 3.08-.93-.73 6.8-3.16 10.8-5.72 14.59 1.77.14 3.28-.14 4.59-.75-.22 9.59-3.44 16.47-7.27 22.81 2.43-.7 4.58-1.92 6.54-3.55-2.66 8.58-7.74 14.05-13.3 18.89h44.13c-7.32-4.28-12.89-10.86-17.37-18.89 2.21 1.77 4.66 2.91 7.3 3.55-5.3-6.88-9.46-14.43-12.18-22.81 1.44.54 3 .84 4.76.75-3.99-3.7-6.76-8.77-8.86-14.59 1.02.45 2.11.76 3.28.93-2.74-2.77-4.49-7.58-5.9-13.09z"/><path class="st5" d="M369.14 338.96c.15 5.88-.91 10.21-3.08 13.09 1.14-.12 2.17-.44 3.08-.94-.73 6.8-3.16 10.8-5.72 14.59 1.77.14 3.28-.14 4.59-.75-.22 9.59-3.45 16.47-7.27 22.81 2.43-.7 4.58-1.92 6.54-3.55-2.66 8.58-7.74 14.05-13.3 18.89h44.13c-7.32-4.29-12.89-10.86-17.37-18.89 2.21 1.76 4.65 2.91 7.3 3.55-5.3-6.89-9.46-14.43-12.18-22.81 1.44.54 3 .83 4.75.75-4-3.7-6.76-8.77-8.86-14.59 1.01.45 2.11.76 3.28.94-2.73-2.77-4.48-7.58-5.89-13.09z"/><path class="st5" d="M400.08 338.05c.14 5.88-.91 10.21-3.08 13.09 1.14-.12 2.17-.44 3.08-.93-.73 6.8-3.16 10.8-5.72 14.59 1.77.14 3.28-.14 4.59-.75-.22 9.59-3.45 16.47-7.27 22.81 2.43-.7 4.58-1.92 6.54-3.55-2.66 8.58-7.74 14.05-13.3 18.89h44.13c-7.32-4.28-12.89-10.86-17.37-18.89 2.21 1.76 4.66 2.91 7.3 3.55-5.3-6.89-9.46-14.43-12.18-22.81 1.44.54 3 .84 4.75.75-4-3.7-6.76-8.77-8.86-14.59 1.01.45 2.11.76 3.28.93-2.73-2.76-4.48-7.57-5.89-13.09zm-166.91 19.41c-.15 5.87.91 10.21 3.08 13.09a8.275 8.275 0 01-3.08-.93c.73 6.8 3.16 10.8 5.72 14.59-1.77.14-3.28-.14-4.59-.75.22 9.59 3.45 16.47 7.27 22.81-2.43-.69-4.58-1.92-6.54-3.55 2.66 8.58 7.74 14.05 13.3 18.89H204.2c7.32-4.28 12.89-10.86 17.37-18.89-2.21 1.77-4.65 2.91-7.3 3.55 5.3-6.88 9.46-14.43 12.18-22.81-1.44.54-3 .83-4.76.75 3.99-3.7 6.76-8.77 8.86-14.59-1.01.45-2.11.76-3.28.93 2.74-2.77 4.49-7.57 5.9-13.09z"/><path class="st5" d="M251.14 354.59c-.15 5.88.91 10.21 3.08 13.09a8.159 8.159 0 01-3.08-.94c.73 6.8 3.16 10.8 5.72 14.59-1.77.14-3.28-.14-4.59-.75.22 9.59 3.45 16.47 7.27 22.81-2.43-.69-4.58-1.92-6.54-3.55 2.66 8.58 7.74 14.05 13.3 18.89h-44.13c7.32-4.28 12.89-10.86 17.37-18.89-2.21 1.76-4.66 2.91-7.3 3.55 5.3-6.88 9.46-14.43 12.18-22.81-1.44.54-3 .84-4.75.75 3.99-3.7 6.76-8.77 8.86-14.59-1.01.45-2.11.76-3.28.94 2.73-2.77 4.48-7.57 5.89-13.09zm-55.51 9.84c-.14 5.88.91 10.21 3.08 13.09a8.332 8.332 0 01-3.08-.93c.73 6.8 3.16 10.8 5.72 14.58-1.77.15-3.28-.14-4.59-.75.22 9.59 3.45 16.47 7.27 22.81-2.43-.7-4.58-1.92-6.54-3.55 2.66 8.58 7.74 14.05 13.3 18.89h-44.13c7.32-4.29 12.89-10.86 17.37-18.89-2.21 1.76-4.66 2.91-7.3 3.55 5.3-6.89 9.46-14.43 12.18-22.81-1.44.53-3 .83-4.76.75 3.99-3.7 6.76-8.77 8.86-14.58-1.01.45-2.11.76-3.28.93 2.74-2.77 4.49-7.57 5.9-13.09z"/><path class="st5" d="M167.71 357.69c-.15 5.88.91 10.21 3.08 13.09a8.332 8.332 0 01-3.08-.93c.73 6.8 3.16 10.8 5.72 14.59-1.77.14-3.28-.14-4.59-.75.22 9.59 3.45 16.47 7.27 22.81-2.43-.7-4.58-1.92-6.54-3.55 2.66 8.58 7.74 14.05 13.3 18.89h-44.13c7.32-4.28 12.89-10.86 17.37-18.89-2.21 1.76-4.66 2.91-7.3 3.55 5.3-6.88 9.46-14.43 12.18-22.81-1.44.54-3 .83-4.76.75 3.99-3.7 6.76-8.77 8.86-14.59-1.01.45-2.11.76-3.28.93 2.74-2.77 4.5-7.57 5.9-13.09z"/><path class="st5" d="M133.67 365.02c-.15 5.88.91 10.21 3.08 13.09a8.332 8.332 0 01-3.08-.93c.73 6.8 3.16 10.8 5.72 14.58-1.77.14-3.28-.14-4.59-.75.22 9.59 3.45 16.47 7.27 22.82-2.43-.7-4.58-1.92-6.54-3.55 2.66 8.58 7.74 14.05 13.3 18.89H104.7c7.32-4.29 12.89-10.86 17.37-18.89-2.21 1.76-4.66 2.91-7.3 3.55 5.3-6.89 9.46-14.43 12.18-22.82-1.44.54-3 .84-4.76.75 3.99-3.7 6.76-8.77 8.86-14.58-1.01.45-2.11.76-3.28.93 2.74-2.77 4.49-7.57 5.9-13.09zm-57.75-11.78c-.14 5.88.91 10.21 3.08 13.09a8.275 8.275 0 01-3.08-.93c.73 6.8 3.16 10.8 5.72 14.59-1.77.14-3.28-.14-4.59-.75.22 9.59 3.45 16.47 7.27 22.81-2.43-.7-4.58-1.92-6.54-3.55 2.66 8.58 7.74 14.05 13.3 18.89H46.95c7.32-4.29 12.89-10.86 17.37-18.89-2.21 1.77-4.66 2.91-7.3 3.55 5.3-6.89 9.46-14.43 12.18-22.81-1.44.54-3 .83-4.76.75 3.99-3.7 6.76-8.77 8.86-14.59-1.01.45-2.11.76-3.28.93 2.74-2.77 4.49-7.58 5.9-13.09z"/><path class="st5" d="M66.51 355.66c-.15 5.88.91 10.21 3.08 13.09-1.14-.12-2.17-.44-3.08-.94.73 6.8 3.16 10.8 5.72 14.59-1.77.15-3.28-.14-4.59-.75.22 9.59 3.45 16.47 7.27 22.81-2.43-.69-4.58-1.92-6.54-3.55 2.66 8.58 7.74 14.05 13.3 18.89H37.54c7.32-4.28 12.89-10.86 17.37-18.89-2.21 1.77-4.66 2.91-7.3 3.55 5.3-6.89 9.46-14.43 12.18-22.81-1.44.54-3 .83-4.76.75 3.99-3.7 6.76-8.77 8.86-14.59-1.01.45-2.11.76-3.28.94 2.74-2.77 4.49-7.57 5.9-13.09z"/><path class="st5" d="M49.26 350.19c-.15 5.88.91 10.21 3.08 13.09a8.275 8.275 0 01-3.08-.93c.73 6.8 3.16 10.8 5.72 14.58-1.77.14-3.28-.14-4.59-.75.22 9.59 3.45 16.47 7.27 22.82-2.43-.7-4.58-1.92-6.54-3.55 2.66 8.58 7.74 14.05 13.3 18.89H20.29c7.32-4.29 12.89-10.86 17.37-18.89-2.21 1.76-4.66 2.91-7.3 3.55 5.3-6.89 9.46-14.43 12.18-22.82-1.44.54-3 .84-4.76.75 3.99-3.7 6.76-8.77 8.86-14.58-1.01.45-2.11.76-3.28.93 2.74-2.77 4.49-7.57 5.9-13.09z"/><path class="st5" d="M22.38 342.88c-.14 5.88.91 10.21 3.08 13.09a8.275 8.275 0 01-3.08-.93c.73 6.8 3.16 10.8 5.72 14.59-1.77.14-3.28-.14-4.59-.75.22 9.59 3.45 16.47 7.27 22.82-2.43-.7-4.58-1.92-6.54-3.55 2.66 8.58 7.74 14.05 13.3 18.89H0v-4.87c4.22-3.84 7.75-8.6 10.77-14.02-2.21 1.77-4.66 2.91-7.3 3.55 5.3-6.89 9.46-14.43 12.18-22.82-1.44.54-3 .84-4.76.75 3.99-3.7 6.76-8.77 8.86-14.59-1.01.45-2.11.76-3.28.93 2.74-2.77 4.5-7.57 5.91-13.09z"/><path class="st7" d="M588.05 342.45c.14 5.88-.91 10.21-3.08 13.09 1.14-.12 2.16-.44 3.08-.93-.73 6.8-3.16 10.8-5.72 14.59 1.77.14 3.28-.14 4.59-.75-.22 9.59-3.45 16.47-7.27 22.81 2.43-.69 4.58-1.92 6.54-3.55-2.66 8.58-7.74 14.05-13.3 18.89h44.13c-7.32-4.28-12.89-10.86-17.37-18.89 2.21 1.77 4.66 2.91 7.3 3.55-5.3-6.88-9.46-14.43-12.18-22.81 1.44.54 3.01.83 4.76.75-4-3.7-6.76-8.77-8.87-14.59 1.02.45 2.11.76 3.28.93-2.72-2.77-4.48-7.57-5.89-13.09z"/><path class="st7" d="M606.56 339.15c.14 5.88-.91 10.21-3.08 13.09 1.14-.12 2.17-.44 3.08-.93-.73 6.8-3.16 10.8-5.72 14.59 1.77.15 3.28-.14 4.59-.75-.22 9.59-3.44 16.47-7.27 22.81 2.43-.69 4.58-1.92 6.54-3.55-2.66 8.59-7.73 14.05-13.3 18.89h44.13c-7.31-4.28-12.89-10.86-17.37-18.89 2.21 1.77 4.66 2.91 7.3 3.55-5.3-6.88-9.46-14.43-12.18-22.81 1.45.54 3.01.83 4.76.75-3.99-3.7-6.76-8.77-8.86-14.59 1.02.45 2.11.76 3.28.93-2.73-2.77-4.49-7.57-5.9-13.09z"/><path class="st7" d="M617.77 350.37c.14 5.88-.91 10.21-3.08 13.09 1.14-.12 2.16-.44 3.08-.94-.73 6.8-3.16 10.8-5.72 14.59 1.77.14 3.28-.14 4.59-.75-.22 9.59-3.44 16.47-7.27 22.81 2.43-.7 4.58-1.92 6.54-3.55-2.66 8.58-7.74 14.05-13.3 18.89h44.13c-7.31-4.29-12.89-10.86-17.37-18.89 2.21 1.76 4.66 2.91 7.3 3.55-5.3-6.89-9.46-14.43-12.18-22.81 1.44.54 3.01.83 4.76.75-3.99-3.7-6.76-8.77-8.86-14.59 1.02.45 2.11.76 3.28.94-2.74-2.77-4.49-7.57-5.9-13.09z"/><path class="st7" d="M633.18 355.56c.14 5.88-.91 10.21-3.08 13.09 1.14-.12 2.17-.44 3.08-.94-.73 6.8-3.16 10.8-5.72 14.59 1.77.14 3.28-.14 4.6-.75-.22 9.59-3.45 16.47-7.27 22.81 2.43-.69 4.58-1.92 6.53-3.55-2.66 8.58-7.73 14.05-13.3 18.89h40.36v-2.52c-5.51-4.17-9.92-9.78-13.6-16.37 2.2 1.77 4.65 2.91 7.3 3.55-5.3-6.89-9.46-14.43-12.18-22.81 1.44.54 3 .83 4.75.75-4-3.7-6.76-8.77-8.86-14.59 1.01.45 2.11.76 3.28.94-2.73-2.77-4.48-7.57-5.89-13.09z"/><path class="st7" d="M639.39 349.67c.14 5.88-.91 10.21-3.08 13.09 1.14-.12 2.16-.44 3.08-.93-.73 6.8-3.16 10.8-5.72 14.59 1.77.15 3.28-.14 4.59-.75-.22 9.59-3.45 16.47-7.27 22.81 2.43-.69 4.58-1.92 6.54-3.55-2.66 8.59-7.74 14.05-13.3 18.89h34.16v-8.29c-2.77-3.12-5.21-6.69-7.39-10.59 2.2 1.77 4.65 2.91 7.3 3.55-5.3-6.89-9.46-14.43-12.18-22.81 1.44.54 3.01.83 4.76.75-3.99-3.7-6.76-8.77-8.86-14.59 1.02.45 2.11.76 3.28.93-2.75-2.79-4.51-7.59-5.91-13.1zm-68.48-3.07c.14 5.88-.91 10.21-3.08 13.09 1.14-.12 2.17-.44 3.08-.94-.73 6.8-3.16 10.8-5.72 14.59 1.77.14 3.28-.14 4.6-.75-.22 9.59-3.45 16.47-7.27 22.81 2.43-.7 4.59-1.92 6.54-3.55-2.66 8.58-7.73 14.05-13.3 18.89h44.14c-7.32-4.29-12.89-10.86-17.37-18.89 2.21 1.76 4.66 2.91 7.3 3.55-5.3-6.89-9.46-14.43-12.18-22.81 1.45.54 3.01.83 4.76.75-4-3.7-6.76-8.77-8.86-14.59 1.01.45 2.11.76 3.28.94-2.76-2.77-4.51-7.57-5.92-13.09z"/><path class="st7" d="M549.94 340.23c.14 5.88-.91 10.21-3.08 13.09 1.14-.12 2.17-.44 3.08-.93-.73 6.8-3.16 10.8-5.72 14.58 1.77.15 3.28-.14 4.59-.75-.22 9.59-3.44 16.47-7.27 22.81 2.43-.7 4.58-1.92 6.54-3.55-2.66 8.58-7.73 14.05-13.3 18.89h44.13c-7.31-4.28-12.89-10.86-17.37-18.89 2.21 1.76 4.66 2.91 7.3 3.55-5.3-6.89-9.46-14.43-12.18-22.81 1.45.54 3.01.84 4.76.75-3.99-3.7-6.76-8.77-8.86-14.58 1.02.45 2.11.76 3.28.93-2.74-2.77-4.49-7.57-5.9-13.09z"/><path class="st7" d="M536.9 352.73c.15 5.88-.91 10.21-3.08 13.09 1.14-.12 2.17-.44 3.08-.94-.73 6.8-3.16 10.8-5.72 14.59 1.77.14 3.28-.14 4.59-.75-.22 9.59-3.44 16.47-7.27 22.81 2.43-.69 4.58-1.92 6.54-3.55-2.66 8.58-7.74 14.05-13.3 18.89h44.13c-7.32-4.28-12.89-10.86-17.37-18.89 2.21 1.77 4.66 2.91 7.3 3.55-5.3-6.88-9.46-14.43-12.18-22.81 1.44.54 3 .83 4.76.75-3.99-3.7-6.76-8.77-8.86-14.59 1.01.45 2.11.76 3.28.94-2.74-2.77-4.49-7.57-5.9-13.09z"/><path class="st7" d="M561.22 336.35c.14 5.88-.91 10.21-3.08 13.09 1.14-.12 2.16-.44 3.08-.93-.73 6.8-3.16 10.8-5.72 14.59 1.77.14 3.28-.14 4.6-.75-.22 9.59-3.45 16.47-7.27 22.81 2.43-.69 4.58-1.92 6.53-3.55-2.66 8.58-7.73 14.05-13.3 18.89h44.13c-7.32-4.28-12.89-10.86-17.37-18.89 2.21 1.77 4.66 2.91 7.3 3.55-5.3-6.88-9.46-14.43-12.18-22.81 1.44.54 3 .83 4.75.75-3.99-3.7-6.76-8.77-8.86-14.59 1.01.45 2.11.76 3.28.93-2.72-2.77-4.48-7.58-5.89-13.09z"/><path class="st7" d="M532.58 353.07c.14 5.88-.91 10.21-3.08 13.09 1.14-.12 2.16-.44 3.08-.93-.73 6.8-3.16 10.8-5.72 14.59 1.77.14 3.28-.14 4.59-.75-.22 9.59-3.44 16.47-7.27 22.81 2.43-.7 4.58-1.92 6.54-3.55-2.66 8.58-7.74 14.05-13.3 18.89h44.13c-7.32-4.29-12.89-10.86-17.37-18.89 2.21 1.77 4.66 2.91 7.3 3.55-5.3-6.88-9.46-14.43-12.18-22.81 1.44.54 3 .84 4.75.75-3.99-3.7-6.76-8.77-8.86-14.59 1.02.45 2.11.76 3.28.93-2.73-2.77-4.49-7.58-5.89-13.09z"/><path class="st7" d="M496.02 346.94c.14 5.88-.91 10.21-3.08 13.09 1.14-.12 2.17-.44 3.08-.93-.73 6.8-3.16 10.8-5.72 14.59 1.77.14 3.28-.14 4.59-.75-.22 9.59-3.45 16.47-7.27 22.81 2.43-.7 4.58-1.92 6.54-3.55-2.66 8.58-7.74 14.05-13.3 18.89h44.13c-7.32-4.28-12.89-10.86-17.37-18.89 2.21 1.76 4.65 2.91 7.3 3.55-5.3-6.88-9.46-14.43-12.18-22.81 1.44.54 3 .83 4.75.75-3.99-3.7-6.76-8.77-8.86-14.59 1.01.45 2.11.76 3.28.93-2.72-2.78-4.48-7.58-5.89-13.09z"/><path class="st7" d="M514.65 356.6c.14 5.88-.91 10.21-3.08 13.09 1.14-.12 2.17-.44 3.08-.93-.73 6.8-3.16 10.8-5.72 14.59 1.77.14 3.28-.14 4.59-.75-.22 9.59-3.44 16.47-7.27 22.81 2.43-.7 4.58-1.92 6.54-3.55-2.66 8.58-7.74 14.05-13.3 18.89h44.13c-7.32-4.29-12.89-10.86-17.37-18.89 2.2 1.77 4.65 2.91 7.3 3.55-5.3-6.88-9.46-14.43-12.18-22.81 1.44.54 3 .84 4.76.75-4-3.7-6.76-8.77-8.87-14.59 1.02.45 2.11.76 3.28.93-2.72-2.77-4.48-7.57-5.89-13.09z"/><path class="st7" d="M517.05 344.84c.14 5.88-.91 10.21-3.08 13.09 1.14-.12 2.17-.44 3.08-.93-.73 6.8-3.16 10.8-5.72 14.59 1.77.14 3.28-.14 4.6-.75-.22 9.59-3.45 16.47-7.27 22.81 2.43-.7 4.58-1.92 6.54-3.55-2.66 8.58-7.74 14.05-13.3 18.89h44.13c-7.32-4.28-12.89-10.86-17.37-18.89 2.21 1.77 4.66 2.91 7.3 3.55-5.3-6.88-9.46-14.43-12.18-22.81 1.44.53 3 .83 4.75.75-3.99-3.7-6.76-8.77-8.86-14.59 1.01.45 2.11.76 3.28.93-2.74-2.77-4.49-7.58-5.9-13.09z"/><path class="st7" d="M505.89 349.92c.14 5.88-.91 10.21-3.08 13.09 1.14-.12 2.17-.44 3.08-.94-.73 6.8-3.16 10.8-5.72 14.59 1.77.14 3.28-.14 4.6-.75-.22 9.59-3.45 16.47-7.27 22.82 2.43-.7 4.58-1.92 6.54-3.55-2.66 8.58-7.74 14.05-13.3 18.89h44.13c-7.31-4.29-12.89-10.86-17.37-18.89 2.21 1.77 4.65 2.91 7.3 3.55-5.3-6.89-9.46-14.43-12.18-22.82 1.44.54 3 .84 4.75.75-4-3.7-6.76-8.77-8.86-14.59 1.01.45 2.11.76 3.28.94-2.74-2.76-4.49-7.57-5.9-13.09z"/><path class="st7" d="M480.42 341.67c.14 5.88-.91 10.21-3.08 13.09 1.14-.12 2.17-.44 3.08-.93-.73 6.8-3.16 10.8-5.72 14.59 1.77.14 3.28-.14 4.59-.75-.22 9.59-3.44 16.47-7.27 22.81 2.43-.7 4.58-1.92 6.54-3.55-2.66 8.58-7.74 14.05-13.3 18.89h44.13c-7.31-4.28-12.89-10.86-17.37-18.89 2.21 1.77 4.66 2.91 7.3 3.55-5.3-6.88-9.46-14.43-12.18-22.81 1.44.54 3 .84 4.75.75-3.99-3.7-6.76-8.77-8.86-14.59 1.01.45 2.11.76 3.28.93-2.72-2.77-4.48-7.57-5.89-13.09z"/><path class="st7" d="M470.95 352.82c.14 5.88-.91 10.21-3.08 13.09 1.14-.12 2.17-.44 3.08-.94-.73 6.8-3.16 10.8-5.72 14.58 1.77.15 3.28-.14 4.59-.75-.22 9.59-3.45 16.47-7.27 22.81 2.43-.7 4.58-1.92 6.54-3.55-2.66 8.58-7.74 14.05-13.3 18.89h44.13c-7.32-4.28-12.89-10.86-17.37-18.89 2.21 1.76 4.66 2.91 7.3 3.55-5.3-6.89-9.46-14.43-12.18-22.81 1.44.53 3 .83 4.75.75-3.99-3.7-6.76-8.77-8.86-14.58 1.01.45 2.11.76 3.28.94-2.73-2.78-4.48-7.58-5.89-13.09z"/><path class="st7" d="M457.98 344.33c.14 5.88-.91 10.21-3.08 13.09 1.14-.12 2.17-.44 3.08-.93-.73 6.8-3.16 10.8-5.72 14.59 1.77.15 3.28-.14 4.59-.75-.22 9.59-3.45 16.47-7.27 22.81 2.43-.69 4.58-1.92 6.54-3.55-2.66 8.58-7.74 14.05-13.3 18.89h44.13c-7.32-4.28-12.89-10.86-17.37-18.89 2.21 1.77 4.65 2.91 7.3 3.55-5.3-6.88-9.46-14.43-12.18-22.81 1.44.54 3 .83 4.75.75-3.99-3.7-6.76-8.77-8.86-14.59 1.02.45 2.11.76 3.28.93-2.73-2.77-4.48-7.58-5.89-13.09zM71.04 372.5c-.15 5.88.91 10.21 3.08 13.09a8.275 8.275 0 01-3.08-.93c.73 6.8 3.16 10.8 5.72 14.59-1.77.14-3.28-.14-4.6-.75.22 9.59 3.45 16.47 7.27 22.81-2.43-.7-4.58-1.92-6.54-3.55 2.66 8.59 7.74 14.05 13.3 18.89H42.06c7.32-4.28 12.89-10.86 17.37-18.89-2.21 1.77-4.66 2.91-7.3 3.55 5.3-6.88 9.46-14.43 12.18-22.81-1.44.54-3 .84-4.76.75 3.99-3.7 6.76-8.77 8.86-14.59-1.01.45-2.11.76-3.28.93 2.75-2.77 4.5-7.58 5.91-13.09z"/><path class="st7" d="M88.19 376.64c-.14 5.88.91 10.21 3.08 13.09a8.275 8.275 0 01-3.08-.93c.73 6.8 3.16 10.8 5.72 14.58-1.77.15-3.28-.14-4.59-.75.22 9.59 3.45 16.47 7.27 22.81-2.43-.7-4.58-1.92-6.54-3.55 2.66 8.58 7.74 14.05 13.3 18.89H59.22c7.32-4.28 12.89-10.86 17.37-18.89-2.21 1.76-4.65 2.91-7.3 3.55 5.3-6.89 9.46-14.43 12.18-22.81-1.44.53-3 .83-4.76.75 3.99-3.7 6.76-8.77 8.86-14.58-1.01.45-2.11.76-3.28.93 2.74-2.77 4.49-7.57 5.9-13.09z"/><path class="st7" d="M109.15 370.28c-.14 5.88.91 10.21 3.08 13.09-1.14-.12-2.17-.44-3.08-.94.73 6.8 3.16 10.8 5.72 14.59-1.77.15-3.28-.14-4.59-.75.22 9.59 3.45 16.47 7.27 22.81-2.43-.69-4.58-1.92-6.54-3.55 2.66 8.59 7.74 14.05 13.3 18.89H80.18c7.32-4.28 12.89-10.86 17.37-18.89-2.21 1.77-4.66 2.91-7.3 3.55 5.3-6.89 9.46-14.43 12.18-22.81-1.44.54-3 .83-4.76.75 4-3.7 6.76-8.77 8.86-14.59-1.02.45-2.11.76-3.28.94 2.74-2.77 4.5-7.58 5.9-13.09z"/><path class="st7" d="M122.19 382.78c-.14 5.88.91 10.21 3.08 13.09-1.14-.12-2.17-.44-3.08-.94.73 6.8 3.16 10.8 5.72 14.59-1.77.14-3.28-.14-4.59-.75.22 9.59 3.45 16.47 7.27 22.81-2.43-.7-4.58-1.92-6.54-3.55 2.66 8.58 7.74 14.05 13.3 18.89H93.22c7.31-4.29 12.89-10.86 17.37-18.89-2.21 1.76-4.65 2.91-7.3 3.55 5.3-6.89 9.46-14.43 12.18-22.81-1.44.54-3 .83-4.76.75 3.99-3.7 6.76-8.77 8.86-14.59-1.01.45-2.11.76-3.28.94 2.74-2.77 4.49-7.58 5.9-13.09z"/><path class="st7" d="M97.87 366.39c-.14 5.88.91 10.21 3.08 13.09-1.14-.12-2.17-.44-3.08-.94.73 6.8 3.16 10.8 5.72 14.59-1.77.14-3.28-.14-4.59-.75.22 9.59 3.45 16.47 7.27 22.81-2.43-.7-4.58-1.92-6.54-3.55 2.66 8.58 7.74 14.05 13.3 18.89H68.9c7.32-4.29 12.89-10.86 17.37-18.89-2.21 1.76-4.66 2.91-7.3 3.55 5.3-6.89 9.46-14.43 12.18-22.81-1.44.54-3 .83-4.75.75 3.99-3.7 6.76-8.77 8.86-14.59-1.02.45-2.11.76-3.28.94 2.73-2.77 4.48-7.57 5.89-13.09z"/><path class="st7" d="M126.52 383.11c-.14 5.88.91 10.21 3.08 13.09a8.332 8.332 0 01-3.08-.93c.73 6.8 3.16 10.79 5.72 14.58-1.77.14-3.28-.14-4.59-.75.22 9.59 3.45 16.47 7.27 22.81-2.43-.7-4.58-1.92-6.54-3.55 2.66 8.58 7.74 14.05 13.3 18.89H97.55c7.32-4.29 12.89-10.86 17.37-18.89-2.21 1.77-4.65 2.91-7.3 3.55 5.3-6.89 9.46-14.43 12.18-22.81-1.44.54-3 .84-4.76.75 3.99-3.7 6.76-8.77 8.86-14.58-1.02.45-2.11.76-3.28.93 2.74-2.77 4.49-7.57 5.9-13.09z"/><path class="st7" d="M144.44 386.65c-.14 5.88.91 10.21 3.08 13.09a8.275 8.275 0 01-3.08-.93c.73 6.8 3.16 10.79 5.72 14.58-1.77.14-3.28-.14-4.6-.75.22 9.59 3.45 16.47 7.27 22.81-2.43-.7-4.58-1.92-6.54-3.55 2.66 8.58 7.74 14.05 13.3 18.89h-44.13c7.32-4.29 12.89-10.86 17.37-18.89-2.21 1.77-4.65 2.91-7.3 3.55 5.3-6.89 9.46-14.43 12.18-22.81-1.44.54-3 .83-4.76.75 3.99-3.7 6.76-8.77 8.86-14.58-1.02.45-2.11.76-3.28.93 2.75-2.77 4.5-7.57 5.91-13.09z"/><path class="st7" d="M142.05 374.88c-.14 5.88.91 10.21 3.08 13.09-1.14-.12-2.17-.44-3.08-.94.73 6.8 3.16 10.8 5.72 14.59-1.77.15-3.28-.14-4.59-.75.22 9.59 3.45 16.47 7.27 22.81-2.43-.69-4.58-1.92-6.54-3.55 2.66 8.58 7.74 14.05 13.3 18.89h-44.13c7.32-4.28 12.89-10.86 17.37-18.89-2.21 1.77-4.66 2.91-7.3 3.55 5.3-6.88 9.46-14.43 12.18-22.81-1.44.54-3 .84-4.75.75 3.99-3.7 6.76-8.77 8.86-14.59-1.02.45-2.11.76-3.28.94 2.72-2.77 4.48-7.57 5.89-13.09z"/><path class="st7" d="M153.2 379.97c-.14 5.88.91 10.21 3.08 13.09a8.275 8.275 0 01-3.08-.93c.73 6.8 3.16 10.8 5.72 14.58-1.77.14-3.28-.14-4.6-.75.22 9.59 3.45 16.47 7.27 22.82-2.43-.7-4.58-1.92-6.54-3.55 2.66 8.58 7.74 14.05 13.3 18.89h-44.13c7.32-4.29 12.89-10.86 17.37-18.89-2.21 1.77-4.65 2.91-7.3 3.55 5.3-6.89 9.46-14.43 12.18-22.82-1.44.54-3 .84-4.75.75 3.99-3.7 6.76-8.77 8.86-14.58-1.02.45-2.11.76-3.28.93 2.74-2.77 4.49-7.57 5.9-13.09zM18.44 364.19c-.14 5.88.91 10.21 3.08 13.09a8.332 8.332 0 01-3.08-.93c.73 6.8 3.16 10.8 5.72 14.59-1.77.14-3.28-.14-4.59-.75.22 9.59 3.45 16.47 7.27 22.81-2.43-.7-4.58-1.92-6.54-3.55 2.66 8.58 7.74 14.05 13.3 18.89H0v-8.93c2.55-2.97 4.81-6.31 6.84-9.96-2.08 1.66-4.37 2.77-6.84 3.43v-.49c5.08-6.72 9.08-14.07 11.72-22.21-1.44.54-3 .84-4.76.75 3.99-3.7 6.76-8.77 8.86-14.59-1.01.45-2.11.76-3.28.93 2.74-2.76 4.49-7.57 5.9-13.08z"/><path class="st7" d="M8.58 367.18c-.14 5.88.91 10.21 3.08 13.09-1.14-.12-2.17-.44-3.08-.94.73 6.8 3.16 10.8 5.72 14.59-1.77.14-3.28-.14-4.59-.75.22 9.59 3.45 16.47 7.27 22.82-2.43-.7-4.58-1.92-6.54-3.55 2.66 8.58 7.74 14.05 13.3 18.89H0v-33.1c.68-1.65 1.29-3.33 1.85-5.05-.59.22-1.21.4-1.85.53v-2.97c2.5-3.23 4.41-7.11 5.96-11.4-1.01.45-2.11.76-3.28.94 2.73-2.78 4.49-7.59 5.9-13.1z"/><path class="st7" d="M34.04 358.93c-.15 5.87.91 10.21 3.08 13.09a8.332 8.332 0 01-3.08-.93c.73 6.8 3.16 10.8 5.72 14.59-1.77.14-3.28-.14-4.59-.75.22 9.59 3.45 16.47 7.27 22.81-2.43-.7-4.58-1.92-6.54-3.55 2.66 8.58 7.74 14.05 13.3 18.89H5.07c7.32-4.29 12.89-10.86 17.37-18.89-2.21 1.77-4.65 2.91-7.3 3.55 5.3-6.88 9.46-14.43 12.18-22.81-1.44.54-3 .84-4.76.75 3.99-3.7 6.76-8.77 8.86-14.59-1.01.45-2.11.76-3.28.93 2.74-2.78 4.49-7.58 5.9-13.09z"/><path class="st7" d="M43.52 370.07c-.15 5.88.91 10.21 3.08 13.09a8.159 8.159 0 01-3.08-.94c.73 6.8 3.16 10.8 5.72 14.58-1.77.15-3.28-.14-4.59-.75.22 9.59 3.45 16.47 7.27 22.81-2.43-.7-4.58-1.92-6.54-3.55 2.66 8.58 7.74 14.05 13.3 18.89H14.55c7.32-4.28 12.89-10.86 17.37-18.89-2.21 1.77-4.65 2.91-7.3 3.55 5.3-6.89 9.46-14.43 12.18-22.81-1.44.53-3 .83-4.76.75 3.99-3.7 6.76-8.77 8.86-14.58-1.02.45-2.11.76-3.28.94 2.74-2.77 4.49-7.57 5.9-13.09z"/><path class="st7" d="M56.49 361.58c-.14 5.88.91 10.21 3.08 13.09a8.275 8.275 0 01-3.08-.93c.73 6.8 3.16 10.8 5.72 14.59-1.77.15-3.28-.14-4.59-.75.22 9.59 3.45 16.47 7.27 22.81-2.43-.69-4.58-1.92-6.54-3.55 2.66 8.58 7.74 14.05 13.3 18.89H27.52c7.32-4.28 12.89-10.86 17.37-18.89-2.21 1.77-4.66 2.91-7.3 3.55 5.3-6.88 9.46-14.43 12.18-22.81-1.44.54-3 .84-4.75.75 3.99-3.7 6.76-8.77 8.86-14.59-1.02.45-2.11.76-3.28.93 2.73-2.77 4.48-7.57 5.89-13.09zm110.63 16.03c-.14 5.88.91 10.21 3.08 13.09a8.275 8.275 0 01-3.08-.93c.73 6.8 3.16 10.8 5.72 14.59-1.77.14-3.28-.14-4.59-.75.22 9.59 3.45 16.47 7.27 22.81-2.43-.7-4.58-1.92-6.54-3.55 2.66 8.58 7.74 14.05 13.3 18.89h-44.13c7.32-4.29 12.89-10.86 17.37-18.89-2.21 1.76-4.65 2.91-7.3 3.55 5.3-6.88 9.46-14.43 12.18-22.81-1.44.54-3 .83-4.76.75 3.99-3.7 6.76-8.77 8.86-14.59-1.01.45-2.11.76-3.28.93 2.73-2.77 4.49-7.57 5.9-13.09z"/><path class="st7" d="M180.09 368.18c-.14 5.88.91 10.21 3.08 13.09-1.14-.12-2.17-.44-3.08-.94.73 6.8 3.16 10.8 5.72 14.59-1.77.14-3.28-.14-4.59-.75.22 9.59 3.45 16.47 7.27 22.81-2.43-.7-4.58-1.92-6.54-3.55 2.66 8.58 7.74 14.05 13.3 18.89h-44.13c7.32-4.29 12.89-10.86 17.37-18.89-2.21 1.76-4.66 2.91-7.3 3.55 5.3-6.89 9.46-14.43 12.18-22.81-1.44.54-3 .83-4.75.75 3.99-3.7 6.76-8.77 8.86-14.59-1.02.45-2.11.76-3.28.94 2.72-2.77 4.48-7.57 5.89-13.09z"/><path class="st7" d="M190.93 377.61c-.14 5.88.91 10.21 3.08 13.09a8.275 8.275 0 01-3.08-.93c.73 6.8 3.16 10.8 5.72 14.59-1.77.14-3.28-.14-4.59-.75.22 9.59 3.45 16.47 7.27 22.81-2.43-.7-4.58-1.92-6.54-3.55 2.66 8.58 7.74 14.05 13.3 18.89h-44.13c7.32-4.28 12.89-10.86 17.37-18.89-2.21 1.77-4.65 2.91-7.3 3.55 5.3-6.88 9.46-14.43 12.18-22.81-1.44.54-3 .84-4.76.75 3.99-3.7 6.76-8.77 8.86-14.59-1.01.45-2.11.76-3.28.93 2.74-2.77 4.49-7.57 5.9-13.09z"/><path class="st7" d="M208.38 371.01c-.14 5.88.91 10.21 3.08 13.09-1.14-.12-2.17-.44-3.08-.94.73 6.8 3.16 10.8 5.72 14.59-1.77.15-3.28-.14-4.59-.75.22 9.59 3.45 16.47 7.27 22.81-2.43-.69-4.58-1.92-6.54-3.55 2.66 8.59 7.74 14.05 13.3 18.89h-44.13c7.31-4.28 12.89-10.86 17.37-18.89-2.21 1.77-4.65 2.91-7.3 3.55 5.3-6.89 9.46-14.43 12.18-22.81-1.44.54-3 .83-4.76.75 3.99-3.7 6.76-8.77 8.86-14.59-1.01.45-2.11.76-3.28.94 2.74-2.77 4.49-7.57 5.9-13.09z"/><path class="st7" d="M222.06 370.07c-.14 5.88.91 10.21 3.08 13.09-1.14-.12-2.17-.44-3.08-.94.73 6.8 3.16 10.8 5.72 14.58-1.77.15-3.28-.14-4.59-.75.22 9.59 3.45 16.47 7.27 22.81-2.43-.7-4.58-1.92-6.54-3.55 2.66 8.58 7.74 14.05 13.3 18.89h-44.13c7.32-4.28 12.89-10.86 17.37-18.89-2.21 1.77-4.65 2.91-7.3 3.55 5.3-6.89 9.46-14.43 12.18-22.81-1.44.53-3 .83-4.76.75 3.99-3.7 6.76-8.77 8.86-14.58-1.01.45-2.11.76-3.28.94 2.74-2.78 4.49-7.58 5.9-13.09z"/><path class="st7" d="M239.13 377.54c-.14 5.88.91 10.21 3.08 13.09a8.275 8.275 0 01-3.08-.93c.73 6.8 3.16 10.8 5.72 14.59-1.77.15-3.28-.14-4.6-.75.22 9.59 3.45 16.47 7.27 22.81-2.43-.69-4.58-1.92-6.54-3.55 2.66 8.59 7.74 14.05 13.3 18.89h-44.13c7.32-4.28 12.89-10.86 17.37-18.89-2.2 1.77-4.65 2.91-7.3 3.55 5.3-6.88 9.46-14.43 12.18-22.81-1.44.54-3 .83-4.76.75 3.99-3.7 6.76-8.77 8.86-14.59-1.01.45-2.11.76-3.28.93 2.75-2.77 4.5-7.58 5.91-13.09z"/><path class="st7" d="M251.14 380.01c-.14 5.88.91 10.21 3.08 13.09a8.275 8.275 0 01-3.08-.93c.73 6.8 3.16 10.8 5.72 14.59-1.77.15-3.28-.14-4.59-.75.22 9.59 3.45 16.47 7.27 22.81-2.43-.7-4.58-1.92-6.54-3.55 2.66 8.58 7.74 14.05 13.3 18.89h-44.13c7.32-4.28 12.89-10.86 17.37-18.89-2.21 1.76-4.66 2.91-7.3 3.55 5.3-6.89 9.46-14.43 12.18-22.81-1.44.53-3 .83-4.76.75 3.99-3.7 6.76-8.77 8.86-14.59-1.02.45-2.11.76-3.28.93 2.74-2.77 4.49-7.57 5.9-13.09z"/><path class="st7" d="M265.77 365.86c-.14 5.88.91 10.21 3.08 13.09a8.275 8.275 0 01-3.08-.93c.73 6.8 3.16 10.8 5.72 14.58-1.77.15-3.28-.14-4.59-.75.22 9.59 3.45 16.47 7.27 22.81-2.43-.7-4.58-1.92-6.54-3.55 2.66 8.58 7.74 14.05 13.3 18.89H236.8c7.32-4.28 12.89-10.86 17.37-18.89-2.21 1.76-4.65 2.91-7.3 3.55 5.3-6.89 9.46-14.43 12.18-22.81-1.44.53-3.01.83-4.76.75 3.99-3.7 6.76-8.77 8.86-14.58-1.02.45-2.11.76-3.28.93 2.74-2.77 4.49-7.57 5.9-13.09z"/><path class="st7" d="M230.77 363.59c-.14 5.88.91 10.21 3.08 13.09-1.14-.12-2.17-.44-3.08-.94.73 6.8 3.16 10.8 5.72 14.58-1.77.15-3.28-.14-4.59-.75.22 9.59 3.45 16.47 7.27 22.81-2.43-.7-4.58-1.92-6.54-3.55 2.66 8.59 7.74 14.05 13.3 18.89H201.8c7.32-4.28 12.89-10.86 17.37-18.89-2.21 1.77-4.65 2.91-7.3 3.55 5.3-6.89 9.46-14.43 12.18-22.81-1.44.53-3 .83-4.76.75 3.99-3.69 6.76-8.77 8.86-14.58-1.01.45-2.11.76-3.28.94 2.74-2.77 4.5-7.58 5.9-13.09zm57.97-7.09c-.14 5.88.91 10.21 3.08 13.09a8.332 8.332 0 01-3.08-.93c.73 6.8 3.16 10.8 5.72 14.59-1.77.14-3.28-.14-4.59-.75.22 9.59 3.45 16.47 7.27 22.81-2.43-.7-4.58-1.92-6.54-3.55 2.66 8.59 7.74 14.05 13.3 18.89h-44.13c7.32-4.29 12.89-10.86 17.37-18.89-2.21 1.77-4.66 2.91-7.3 3.55 5.3-6.88 9.46-14.43 12.18-22.81-1.44.54-3 .84-4.76.75 3.99-3.7 6.76-8.77 8.86-14.59-1.02.45-2.11.76-3.28.93 2.74-2.77 4.5-7.58 5.9-13.09z"/><path class="st7" d="M301.49 365.51c-.14 5.88.91 10.21 3.08 13.09a8.275 8.275 0 01-3.08-.93c.73 6.8 3.16 10.8 5.72 14.59-1.77.14-3.28-.14-4.6-.75.22 9.59 3.45 16.47 7.27 22.81-2.43-.7-4.58-1.92-6.54-3.55 2.66 8.58 7.74 14.05 13.3 18.89h-44.13c7.32-4.29 12.89-10.86 17.37-18.89-2.21 1.77-4.65 2.91-7.3 3.55 5.3-6.88 9.46-14.43 12.18-22.81-1.44.54-3 .84-4.75.75 3.99-3.7 6.76-8.77 8.86-14.59-1.01.45-2.11.76-3.28.93 2.73-2.77 4.49-7.58 5.9-13.09zm130.55-22.6c.14 5.88-.91 10.21-3.08 13.09 1.14-.12 2.17-.44 3.08-.94-.73 6.8-3.16 10.8-5.72 14.59 1.77.14 3.28-.14 4.59-.75-.22 9.59-3.44 16.47-7.27 22.81 2.43-.69 4.58-1.92 6.54-3.55-2.66 8.58-7.74 14.05-13.3 18.89h44.13c-7.32-4.28-12.89-10.86-17.37-18.89 2.21 1.77 4.65 2.91 7.3 3.55-5.3-6.88-9.46-14.43-12.18-22.81 1.44.54 3 .84 4.76.75-3.99-3.7-6.76-8.77-8.86-14.59 1.02.45 2.11.76 3.28.94-2.74-2.77-4.49-7.57-5.9-13.09z"/><path class="st7" d="M441.69 347.56c.14 5.88-.91 10.21-3.08 13.09 1.14-.12 2.17-.44 3.08-.94-.73 6.8-3.16 10.8-5.72 14.59 1.77.14 3.28-.14 4.59-.75-.22 9.59-3.45 16.47-7.27 22.81 2.43-.69 4.58-1.92 6.54-3.55-2.66 8.58-7.74 14.05-13.3 18.89h44.13c-7.32-4.29-12.89-10.86-17.37-18.89 2.21 1.76 4.65 2.91 7.3 3.55-5.3-6.88-9.46-14.43-12.18-22.81 1.44.54 3 .84 4.76.75-4-3.7-6.76-8.77-8.86-14.59 1.01.45 2.11.76 3.28.94-2.74-2.77-4.49-7.57-5.9-13.09z"/><path class="st7" d="M417.64 339.31c.14 5.88-.91 10.21-3.08 13.09 1.14-.12 2.17-.44 3.08-.93-.73 6.8-3.16 10.8-5.72 14.59 1.77.14 3.28-.14 4.59-.75-.22 9.59-3.44 16.47-7.27 22.81 2.43-.69 4.58-1.92 6.54-3.55-2.66 8.58-7.74 14.05-13.3 18.89h44.13c-7.32-4.28-12.89-10.86-17.37-18.89 2.21 1.77 4.65 2.91 7.3 3.55-5.3-6.88-9.46-14.43-12.18-22.81 1.44.54 3 .83 4.76.75-3.99-3.7-6.76-8.77-8.86-14.59 1.02.45 2.11.76 3.28.93-2.74-2.77-4.49-7.58-5.9-13.09z"/><path class="st7" d="M409.74 348.03c.14 5.88-.91 10.21-3.08 13.09 1.14-.12 2.17-.44 3.08-.93-.73 6.8-3.16 10.8-5.72 14.58 1.77.15 3.28-.14 4.59-.75-.22 9.59-3.45 16.47-7.27 22.81 2.43-.7 4.58-1.92 6.54-3.55-2.66 8.58-7.74 14.05-13.3 18.89h44.13c-7.32-4.28-12.89-10.86-17.37-18.89 2.21 1.76 4.66 2.91 7.3 3.55-5.3-6.89-9.46-14.43-12.18-22.81 1.44.53 3 .83 4.75.75-3.99-3.7-6.76-8.77-8.86-14.58 1.01.45 2.11.76 3.28.93-2.73-2.77-4.48-7.57-5.89-13.09z"/><path class="st7" d="M395.71 352.28c.14 5.87-.91 10.21-3.08 13.09 1.14-.12 2.17-.44 3.08-.94-.73 6.8-3.16 10.8-5.72 14.59 1.77.14 3.28-.14 4.59-.75-.22 9.59-3.44 16.47-7.27 22.81 2.43-.69 4.58-1.92 6.54-3.55-2.66 8.58-7.74 14.05-13.3 18.89h44.13c-7.32-4.28-12.89-10.86-17.37-18.89 2.21 1.77 4.66 2.91 7.3 3.55-5.3-6.88-9.46-14.43-12.18-22.81 1.44.54 3 .83 4.76.75-3.99-3.7-6.76-8.77-8.86-14.59 1.02.45 2.11.76 3.28.94-2.74-2.77-4.49-7.58-5.9-13.09zm-85.62 4.62c-.14 5.87.91 10.21 3.08 13.09a8.275 8.275 0 01-3.08-.93c.73 6.8 3.16 10.8 5.72 14.59-1.77.14-3.28-.14-4.6-.75.22 9.59 3.45 16.47 7.27 22.81-2.43-.69-4.58-1.92-6.54-3.55 2.66 8.59 7.74 14.05 13.3 18.89h-44.13c7.32-4.29 12.89-10.86 17.37-18.89-2.21 1.77-4.65 2.91-7.3 3.55 5.3-6.88 9.46-14.43 12.18-22.81-1.44.54-3.01.83-4.76.75 3.99-3.7 6.76-8.77 8.86-14.59-1.02.45-2.11.76-3.28.93 2.75-2.77 4.5-7.57 5.91-13.09z"/><path class="st7" d="M329.19 359.26c-.14 5.87.91 10.21 3.08 13.09-1.14-.12-2.17-.44-3.08-.94.73 6.8 3.16 10.8 5.72 14.59-1.77.14-3.28-.14-4.59-.75.22 9.59 3.45 16.47 7.27 22.81-2.43-.69-4.58-1.92-6.54-3.55 2.66 8.59 7.73 14.05 13.3 18.89h-44.13c7.32-4.28 12.89-10.86 17.37-18.89-2.21 1.77-4.66 2.91-7.3 3.55 5.3-6.88 9.46-14.43 12.18-22.81-1.44.54-3 .83-4.75.75 3.99-3.7 6.76-8.77 8.86-14.59-1.01.45-2.11.76-3.28.94 2.73-2.77 4.48-7.58 5.89-13.09z"/><path class="st7" d="M340.16 350.42c-.14 5.88.91 10.21 3.08 13.09-1.14-.12-2.17-.44-3.08-.94.73 6.8 3.16 10.8 5.72 14.59-1.77.15-3.28-.14-4.59-.75.22 9.59 3.45 16.47 7.27 22.81-2.43-.69-4.58-1.92-6.54-3.55 2.66 8.59 7.74 14.05 13.3 18.89h-44.13c7.31-4.28 12.89-10.86 17.37-18.89-2.21 1.76-4.65 2.91-7.3 3.55 5.3-6.88 9.46-14.43 12.18-22.81-1.44.54-3.01.84-4.76.75 4-3.7 6.76-8.77 8.86-14.59-1.01.45-2.11.76-3.28.94 2.74-2.77 4.49-7.58 5.9-13.09z"/><path class="st7" d="M353.72 354.31c-.14 5.88.91 10.21 3.08 13.09a8.275 8.275 0 01-3.08-.93c.73 6.8 3.16 10.8 5.72 14.59-1.77.14-3.28-.14-4.59-.75.22 9.59 3.45 16.47 7.27 22.81-2.43-.7-4.58-1.92-6.54-3.55 2.66 8.58 7.74 14.05 13.3 18.89h-44.13c7.31-4.28 12.89-10.86 17.37-18.89-2.21 1.77-4.66 2.91-7.3 3.55 5.3-6.88 9.46-14.43 12.18-22.81-1.44.54-3.01.84-4.76.75 3.99-3.7 6.76-8.77 8.86-14.59-1.01.45-2.11.76-3.28.93 2.73-2.77 4.49-7.58 5.9-13.09z"/><path class="st7" d="M372.58 350.65c-.14 5.88.91 10.21 3.08 13.09a8.275 8.275 0 01-3.08-.93c.73 6.8 3.16 10.8 5.72 14.59-1.77.14-3.28-.14-4.59-.75.22 9.59 3.45 16.47 7.27 22.81-2.43-.7-4.58-1.92-6.54-3.55 2.66 8.58 7.74 14.05 13.3 18.89h-44.13c7.32-4.28 12.89-10.86 17.37-18.89-2.21 1.77-4.65 2.91-7.3 3.55 5.3-6.88 9.46-14.43 12.18-22.81-1.44.54-3.01.84-4.76.75 4-3.7 6.76-8.77 8.86-14.59-1.01.45-2.11.76-3.28.93 2.74-2.77 4.49-7.57 5.9-13.09z"/><path class="st7" d="M387.32 346.17c-.14 5.88.91 10.21 3.08 13.09a8.332 8.332 0 01-3.08-.93c.73 6.8 3.16 10.8 5.72 14.58-1.77.15-3.28-.14-4.6-.75.22 9.59 3.45 16.47 7.27 22.81-2.43-.7-4.58-1.92-6.54-3.55 2.66 8.58 7.74 14.05 13.3 18.89h-44.13c7.31-4.29 12.89-10.86 17.37-18.89-2.21 1.76-4.65 2.91-7.3 3.55 5.3-6.89 9.46-14.43 12.18-22.81-1.44.53-3.01.83-4.76.75 4-3.7 6.76-8.77 8.86-14.58-1.02.45-2.11.76-3.28.93 2.75-2.77 4.5-7.57 5.91-13.09z"/><path d="M0 412.52c240.21 46.22 449.3-49.99 658.38 0V658.7H0V412.52z" fill-rule="evenodd" clip-rule="evenodd" fill="#87d4ee"/><path d="M658.38 471.28c-240.21 35.19-449.3-38.06-658.38 0V658.7h658.38V471.28z" fill-rule="evenodd" clip-rule="evenodd" fill="#b3e3f4"/><path d="M29.83 35.78c2.34 0 4.24-1.91 4.24-4.24 0-2.34-1.91-4.25-4.24-4.25a4.25 4.25 0 00-4.24 4.25c-.01 2.34 1.9 4.24 4.24 4.24zm83.94 54.71c1.82 0 3.3-1.48 3.3-3.3 0-1.82-1.48-3.3-3.3-3.3-1.82 0-3.3 1.48-3.3 3.3 0 1.82 1.49 3.3 3.3 3.3zm69.33-34.9c1.56 0 2.83-1.27 2.83-2.83s-1.27-2.83-2.83-2.83-2.83 1.27-2.83 2.83 1.27 2.83 2.83 2.83zm70.27 2.83c2.86 0 5.19-2.33 5.19-5.19 0-2.86-2.33-5.19-5.19-5.19-2.86 0-5.19 2.33-5.19 5.19.01 2.86 2.34 5.19 5.19 5.19zm138.19 11.32c1.04 0 1.89-.85 1.89-1.89s-.85-1.89-1.89-1.89-1.89.85-1.89 1.89.85 1.89 1.89 1.89zm97.62 7.55c1.82 0 3.3-1.48 3.3-3.3 0-1.82-1.48-3.3-3.3-3.3-1.82 0-3.3 1.48-3.3 3.3 0 1.81 1.48 3.3 3.3 3.3zm76.88-18.87c2.08 0 3.77-1.69 3.77-3.77s-1.69-3.77-3.77-3.77-3.77 1.69-3.77 3.77c-.01 2.08 1.69 3.77 3.77 3.77zM422.21 173.5c2.34 0 4.25-1.91 4.25-4.24 0-2.34-1.91-4.25-4.25-4.25s-4.25 1.91-4.25 4.25c.01 2.33 1.92 4.24 4.25 4.24zm-64.61 29.24c1.04 0 1.88-.85 1.88-1.89s-.85-1.89-1.88-1.89c-1.04 0-1.89.85-1.89 1.89s.85 1.89 1.89 1.89zm-133.47-25.47c.78 0 1.41-.64 1.41-1.41 0-.78-.64-1.41-1.41-1.41-.78 0-1.41.63-1.41 1.41 0 .77.63 1.41 1.41 1.41zm-59.42-39.62c2.34 0 4.25-1.91 4.25-4.24a4.26 4.26 0 00-4.25-4.25 4.25 4.25 0 00-4.24 4.25c-.01 2.34 1.9 4.24 4.24 4.24zm-72.16 53.77c1.56 0 2.83-1.27 2.83-2.83s-1.27-2.83-2.83-2.83-2.83 1.27-2.83 2.83 1.27 2.83 2.83 2.83zm-22.64-48.11c2.6 0 4.72-2.12 4.72-4.72 0-2.6-2.12-4.72-4.72-4.72-2.6 0-4.72 2.12-4.72 4.72.01 2.6 2.13 4.72 4.72 4.72zm137.72 65.09c1.56 0 2.83-1.27 2.83-2.83s-1.27-2.83-2.83-2.83-2.83 1.27-2.83 2.83a2.84 2.84 0 002.83 2.83zm48.94 40.06c1.3 0 2.36-1.06 2.36-2.37 0-1.3-1.06-2.37-2.36-2.37-1.3 0-2.37 1.06-2.37 2.37a2.381 2.381 0 002.37 2.37zm205.5 78.31c4.55 0 8.25-3.71 8.25-8.25 0-4.55-3.71-8.25-8.25-8.25-4.55 0-8.25 3.71-8.25 8.25-.01 4.55 3.7 8.25 8.25 8.25zm53.83 75.93c4.78 0 8.67-3.9 8.67-8.67 0-4.78-3.9-8.67-8.67-8.67-4.78 0-8.67 3.9-8.67 8.67-.01 4.78 3.89 8.67 8.67 8.67zm-101.04 86.78a6.09 6.09 0 006.08-6.08c0-3.35-2.73-6.08-6.08-6.08s-6.08 2.73-6.08 6.08a6.09 6.09 0 006.08 6.08zm-81.34 16.65c2.38 0 4.33-1.94 4.33-4.33s-1.95-4.33-4.33-4.33c-2.39 0-4.33 1.95-4.33 4.33 0 2.39 1.95 4.33 4.33 4.33zm-72.6 36.17c2.34 0 4.24-1.91 4.24-4.24 0-2.34-1.91-4.24-4.24-4.24-2.34 0-4.25 1.91-4.25 4.24a4.25 4.25 0 004.25 4.24zm-105.63-70.01c3.37 0 6.12-2.75 6.12-6.12s-2.75-6.12-6.12-6.12-6.12 2.75-6.12 6.12 2.75 6.12 6.12 6.12zm-33.79-37.87c1.45 0 2.63-1.18 2.63-2.63s-1.18-2.63-2.63-2.63-2.63 1.18-2.63 2.63c.01 1.45 1.19 2.63 2.63 2.63zm144.14-103.4c2.86 0 5.19-2.33 5.19-5.19 0-2.86-2.33-5.19-5.19-5.19-2.86 0-5.19 2.33-5.19 5.19 0 2.86 2.33 5.19 5.19 5.19zm94.32-25.47c1.3 0 2.36-1.06 2.36-2.36s-1.06-2.36-2.36-2.36c-1.3 0-2.36 1.06-2.36 2.36s1.06 2.36 2.36 2.36zm123.58-66.97c2.27 0 4.12-1.85 4.12-4.12s-1.85-4.12-4.12-4.12-4.12 1.85-4.12 4.12c.01 2.27 1.86 4.12 4.12 4.12zm38.19-63.2c1.56 0 2.83-1.27 2.83-2.83s-1.27-2.83-2.83-2.83-2.83 1.27-2.83 2.83c-.01 1.56 1.27 2.83 2.83 2.83zm60.83 56.6c1.3 0 2.36-1.06 2.36-2.36 0-1.3-1.06-2.36-2.36-2.36-1.3 0-2.36 1.06-2.36 2.36.01 1.3 1.07 2.36 2.36 2.36zM592 138.6c1.3 0 2.36-1.06 2.36-2.36 0-1.3-1.06-2.36-2.36-2.36-1.3 0-2.36 1.06-2.36 2.36 0 1.3 1.06 2.36 2.36 2.36zm20.75-41.51c1.82 0 3.3-1.48 3.3-3.3 0-1.82-1.49-3.3-3.3-3.3-1.82 0-3.3 1.48-3.3 3.3 0 1.82 1.48 3.3 3.3 3.3zM605.2 33.9c1.82 0 3.3-1.48 3.3-3.3 0-1.82-1.48-3.3-3.3-3.3-1.82 0-3.3 1.48-3.3 3.3 0 1.81 1.48 3.3 3.3 3.3zm-116.96 6.6c1.3 0 2.36-1.06 2.36-2.36 0-1.3-1.06-2.36-2.36-2.36-1.3 0-2.36 1.06-2.36 2.36 0 1.3 1.06 2.36 2.36 2.36zm0 97.15c1.3 0 2.36-1.06 2.36-2.36s-1.06-2.36-2.36-2.36c-1.3 0-2.36 1.06-2.36 2.36s1.06 2.36 2.36 2.36zm28.3 173.56c.78 0 1.41-.64 1.41-1.41 0-.78-.64-1.42-1.41-1.42-.78 0-1.41.64-1.41 1.42-.01.77.63 1.41 1.41 1.41zm4.24 220.72c2.08 0 3.77-1.7 3.77-3.77 0-2.08-1.7-3.77-3.77-3.77a3.78 3.78 0 00-3.77 3.77 3.78 3.78 0 003.77 3.77zm79.23-93.38c2.08 0 3.77-1.69 3.77-3.77s-1.69-3.77-3.77-3.77-3.77 1.7-3.77 3.77a3.78 3.78 0 003.77 3.77zm-26.88 79.23c.78 0 1.42-.64 1.42-1.41 0-.78-.64-1.41-1.42-1.41-.78 0-1.41.63-1.41 1.41 0 .77.63 1.41 1.41 1.41z" fill="#fff" fill-rule="evenodd" clip-rule="evenodd"/></svg>