<svg version="1.1" id="publicdomainvectors.org" xmlns="http://www.w3.org/2000/svg" x="0" y="0" viewBox="0 0 660 660" xml:space="preserve"><style>.st2{fill:#fd9644}.st2,.st3,.st4{fill-rule:evenodd;clip-rule:evenodd}.st3{fill:#e27330}.st4{fill:#773d20}</style><path fill-rule="evenodd" clip-rule="evenodd" fill="#c0d2d5" d="M0 0h660.54v660.54H0V46.07z"/><path d="M0 209.8h660.54V228H0v-18.2zM0 0h660.54v79.11H0V0zm0 149.48h660.54v38.78H0v-38.78z" fill-rule="evenodd" clip-rule="evenodd" fill="#d4e5e7"/><path class="st2" d="M387.83 406.35l152.02-152.02 120.69 120.69v31.33z"/><path class="st3" d="M539.85 254.33l49.66 152.02h71.03v-31.33z"/><path class="st2" d="M0 370.92h660.54v289.62H0z"/><path class="st3" d="M660.54 435.51v225.02H0V430.96c27.69 4.9 56.71 4.01 85.3-2.73 64.62-15.23 129.86-15.96 195.61-2.18l42.76 8.96c62.01 12.99 122.11 13.64 185.63 2.01 49.78-9.12 101.32-9.63 151.24-1.51z"/><path class="st2" d="M116.72 370.92l191.99-191.99 191.98 191.99z"/><path class="st3" d="M308.71 178.93l62.71 191.99h129.27z"/><path class="st2" d="M54.54 370.92l91.69-91.69 91.69 91.69z"/><path class="st3" d="M146.23 279.23l29.95 91.69h61.74z"/><path class="st2" d="M0 316.3l37.07-37.07 91.69 91.69H0z"/><path class="st3" d="M37.07 279.23l29.95 91.69h61.74z"/><path class="st4" d="M660.54 537.1v123.44H0V517.65c27.69 9.12 56.71 8.05 85.3-3.33 64.62-25.74 129.86-25.9 195.61-.48l42.76 16.53c62.01 23.98 122.11 26.16 185.63 6.76 49.78-15.21 101.32-15.22 151.24-.03z"/><path class="st4" d="M600.74 563.61c15.64-248.34 15.82-459.39-55.54-497.91 10.85-3.51 21.7-7.02 32.56-10.53 53.77 41.86 74.29 152.44 82.77 287.9v211.01l-59.79 9.53z"/><path class="st4" d="M566.27 67.62c-44.05-82.51-212.09-5.11-186.72 91.44l33.46-16.39-9.93-29.11L423 137.79l49.78-24.38-9.37-24.73 16.9 21.05 34.98-17.13-7.35-23.07 15.56 19.05 42.77-20.96z"/><path class="st4" d="M552.62 61.63c20.15-40.42 66.26-50.81 107.92-40.62v79.15l-14.43-5.15 9.37-25.98-16.9 23.29-34.98-12.49 7.35-24.04-15.56 21.11-42.77-15.27z"/><path class="st4" d="M591.66 72.09c-70.36-69.26-211.4 37.42-154.95 123.68l27.76-22.16-19.27-25.55L472.76 167l41.31-32.98-17.3-21.52 23.54 16.54 29.03-23.17-14.76-20.35 21.58 14.91 35.5-28.34z"/><path class="st4" d="M551.5 19.74c27.06 0 49 10.46 49 23.37s-21.94 23.37-49 23.37-49-10.46-49-23.37 21.94-23.37 49-23.37zm27.45 54.62c22.69-22.34 54.66-21.6 81.59-8.25v73.38l-20.06-16.01 13.72-17.07-18.67 13.12-23.02-18.38L624.21 85 607.1 96.83l-28.15-22.47zm-.73 573.68c13.59-215.77 13.75-399.14-48.25-432.6l28.29-9.15c69.42 54.04 75.05 239.89 77.37 432.6-19.14 3.05-38.28 6.1-57.41 9.15z"/><path class="st4" d="M548.27 217.1C510 145.42 364 212.66 386.04 296.55l29.07-14.24-8.63-25.29 17.3 21.04 43.25-21.18-8.14-21.49 14.68 18.29 30.39-14.88-6.39-20.04 13.52 16.55 37.18-18.21z"/><path class="st4" d="M536.4 211.9c22.68-45.49 83.18-47.21 124.13-23.01v67.32l-42.9-15.31 8.14-22.57-14.68 20.24-30.39-10.85 6.39-20.89-13.52 18.34-37.17-13.27z"/><path class="st4" d="M570.32 220.99C509.2 160.81 386.66 253.5 435.7 328.45l24.12-19.25-16.75-22.2 23.94 16.46 35.89-28.65-15.03-18.7 20.46 14.37 25.22-20.13-12.83-17.68 18.75 12.96 30.85-24.64z"/><path class="st4" d="M535.44 175.5c23.51 0 42.57 9.09 42.57 20.3s-19.06 20.3-42.57 20.3-42.57-9.09-42.57-20.3c-.01-11.21 19.05-20.3 42.57-20.3zm23.84 47.46c29.62-29.16 77.41-13.06 101.25 17.43v63.39l-13.61-10.87 13.28-17.61-18.99 13.05-28.47-22.73 11.92-14.83-16.22 11.4-20-15.97 10.17-14.02-14.87 10.28-24.46-19.52zM32.29 586.46C18.7 370.7 18.54 187.33 80.54 153.86c-9.43-3.05-18.86-6.1-28.28-9.15C27.8 163.75 11.27 199.16 0 245.45v335.87l32.29 5.14z"/><path class="st4" d="M62.24 155.53c38.27-71.68 184.27-4.44 162.23 79.45l-29.07-14.24 8.63-25.29-17.3 21.04-43.25-21.18 8.14-21.49-14.68 18.29-30.39-14.88 6.39-20.04-13.54 16.54-37.16-18.2z"/><path class="st4" d="M74.1 150.33c-14.37-28.84-43.94-40.08-74.1-38.3v64.74l29.8-10.64-6.39-20.89 13.52 18.34 37.17-13.25z"/><path class="st4" d="M40.18 159.41c61.13-60.17 183.67 32.51 134.62 107.46l-24.12-19.26 16.74-22.2-23.94 16.45-35.89-28.65 15.03-18.7-20.46 14.37-25.22-20.13 12.83-17.68-18.75 12.96-30.84-24.62z"/><path class="st4" d="M75.07 113.93c-23.51 0-42.57 9.09-42.57 20.3s19.06 20.3 42.57 20.3 42.57-9.09 42.57-20.3-19.06-20.3-42.57-20.3zm-23.85 47.45C36.83 147.21 18.14 143.73 0 147.39v51.78l2.06 1.45 20-15.97-10.17-14.03 14.87 10.28 24.46-19.52z"/></svg>