<svg xmlns="http://www.w3.org/2000/svg" viewBox="0 0 469.333 469.333"><path fill="#FFF" d="M468.523 6.592A10.667 10.667 0 00458.667 0C44.694 0 0 171.563 0 245.333c0 26.539 5.888 51.328 17.515 73.664a10.65 10.65 0 009.216 5.739c3.669-.107 7.531-1.941 9.472-5.333 27.947-48.299 107.093-167.51 237.803-230.848 5.355-2.56 11.755-.363 14.293 4.907 2.56 5.312.341 11.712-4.949 14.272-9.856 4.779-19.328 9.984-28.608 15.381-3.541 2.069-6.976 4.267-10.453 6.421-5.227 3.243-10.389 6.549-15.424 9.963a485.624 485.624 0 00-14.827 10.368c-1.515 1.109-2.965 2.24-4.459 3.371C79.488 250.176 0 404.821 0 458.667c0 5.888 4.779 10.667 10.667 10.667s10.667-4.779 10.667-10.667c0-17.195 11.712-52.053 33.877-93.632 32.171 26.304 75.456 40.299 126.123 40.299 136.981 0 165.675-130.347 181.077-200.384 20.736-94.251 66.368-149.312 103.787-186.752a10.616 10.616 0 002.325-11.606z"/></svg>