<svg xmlns="http://www.w3.org/2000/svg" viewBox="0 0 512 512"><path d="M124.629 256h242.517c50.453 0 91.52-39.872 91.52-88.896 0-48.939-40.96-88.789-91.328-88.875C346.837 31.104 299.072 0 245.888 0c-69.291 0-126.272 52.096-131.52 118.059-34.475 4.843-61.035 33.771-61.035 68.608 0 38.229 32 69.333 71.296 69.333zm334.038 149.333H53.333C23.872 405.333 0 429.205 0 458.667S23.872 512 53.333 512h405.333C488.128 512 512 488.128 512 458.667s-23.872-53.334-53.333-53.334zm-383.36 85.334c-5.888 0-10.773-4.779-10.773-10.667s4.672-10.667 10.56-10.667h.213c5.888 0 10.667 4.779 10.667 10.667-.001 5.888-4.779 10.667-10.667 10.667zm42.666 0c-5.888 0-10.773-4.779-10.773-10.667s4.672-10.667 10.56-10.667h.213c5.888 0 10.667 4.779 10.667 10.667s-4.779 10.667-10.667 10.667zm330.027 0c-11.755 0-21.333-9.579-21.333-21.333 0-11.755 9.579-21.333 21.333-21.333 11.755 0 21.333 9.579 21.333 21.333 0 11.754-9.578 21.333-21.333 21.333zM53.333 384h405.333C488.128 384 512 360.128 512 330.667s-23.872-53.333-53.333-53.333H53.333C23.872 277.333 0 301.205 0 330.667S23.872 384 53.333 384zM448 320c11.755 0 21.333 9.579 21.333 21.333 0 11.755-9.579 21.333-21.333 21.333-11.755 0-21.333-9.579-21.333-21.333 0-11.754 9.578-21.333 21.333-21.333zm-330.24 21.333h.213c5.888 0 10.667 4.779 10.667 10.667s-4.779 10.667-10.667 10.667S107.2 357.888 107.2 352s4.672-10.667 10.56-10.667zm-42.667 0h.213c5.888 0 10.667 4.779 10.667 10.667s-4.779 10.667-10.667 10.667S64.533 357.888 64.533 352s4.672-10.667 10.56-10.667z" fill="#FFF"/></svg>