<svg xmlns="http://www.w3.org/2000/svg" width="123.769" height="123.769"><path d="M76.05 1.568l-10.101 9.3c-2.3 2.1-5.8 2.1-8.1 0l-10.2-9.2c-3.1-2.8-8-1.7-9.6 2.1l-8.3 20h64.2l-8.3-20.1c-1.599-3.799-6.5-4.899-9.599-2.1zm-65.301 40.5c-2.9 1.4-1.8 5.7 1.3 5.7h99.501c3.199 0 4.199-4.3 1.399-5.7l-12.2-6.3h-77.8l-12.2 6.3zm-10.2 48.1l5.3 28.801c.5 2.899 3 4.8 5.9 4.8H112.05c2.899 0 5.399-2 5.899-4.8l5.3-28.801c.5-2.8-1-5.6-3.699-6.699-12.801-5-26.2-7.7-36.801-9.301-2.699-.399-5.3 1.101-6.3 3.5l-10.1 22.9c-1.8 4-7.5 4-9.201-.1l-9.8-22.7c-1.1-2.5-3.7-4-6.4-3.601-10.6 1.5-24 4.301-36.7 9.301a5.844 5.844 0 00-3.699 6.7z" fill="#FFF"/></svg>