<svg xmlns="http://www.w3.org/2000/svg" viewBox="0 0 530.97 551.99"><path d="M265.49 34.02c-137 0-248.1 111.07-248.1 248.1 0 109.62 71.09 202.62 169.67 235.42 12.4 2.3 16.95-5.38 16.95-11.94 0-5.91-.23-25.46-.34-46.19-69.02 15.01-83.59-29.27-83.59-29.27-11.29-28.68-27.55-36.3-27.55-36.3-22.51-15.4 1.7-15.08 1.7-15.08 24.91 1.75 38.03 25.57 38.03 25.57 22.13 37.93 58.04 26.96 72.2 20.62 2.23-16.03 8.65-26.98 15.75-33.18-55.11-6.27-113.04-27.55-113.04-122.61 0-27.09 9.69-49.22 25.57-66.59-2.58-6.25-11.07-31.48 2.4-65.66 0 0 20.83-6.66 68.24 25.44 19.79-5.5 41.02-8.25 62.1-8.35 21.08.1 42.32 2.85 62.15 8.35 47.36-32.1 68.16-25.44 68.16-25.44 13.5 34.18 5.01 59.41 2.44 65.66 15.91 17.37 25.53 39.51 25.53 66.59 0 95.29-58.04 116.27-113.29 122.42 8.9 7.7 16.83 22.8 16.83 45.94 0 33.2-.28 59.91-.28 68.09 0 6.6 4.47 14.34 17.04 11.9 98.53-32.84 169.53-125.81 169.53-235.39 0-137.03-111.08-248.1-248.1-248.1z" fill-rule="evenodd" clip-rule="evenodd" fill="#fff"/><path d="M111.35 390.24c-.55 1.24-2.49 1.6-4.25.76-1.8-.81-2.81-2.49-2.23-3.73.53-1.27 2.48-1.62 4.27-.77 1.81.8 2.84 2.5 2.21 3.74zm10.05 11.21c-1.18 1.1-3.5.59-5.07-1.15-1.62-1.73-1.93-4.04-.73-5.16 1.22-1.1 3.46-.58 5.09 1.15 1.63 1.75 1.95 4.04.71 5.16zm9.79 14.28c-1.52 1.06-4.01.07-5.54-2.14-1.52-2.21-1.52-4.85.04-5.91 1.54-1.06 3.99-.1 5.55 2.08 1.5 2.25 1.5 4.89-.05 5.97zm13.4 13.81c-1.36 1.5-4.26 1.1-6.38-.95-2.17-2-2.77-4.84-1.41-6.34 1.38-1.5 4.29-1.08 6.43.95 2.15 2 2.81 4.85 1.36 6.34zm18.49 8.01c-.6 1.94-3.39 2.82-6.2 2-2.81-.85-4.64-3.13-4.08-5.09.58-1.96 3.39-2.88 6.21-1.99 2.81.85 4.65 3.11 4.07 5.08zm20.3 1.49c.07 2.05-2.32 3.74-5.26 3.78-2.97.07-5.37-1.59-5.4-3.6 0-2.07 2.33-3.74 5.3-3.8 2.94-.06 5.36 1.59 5.36 3.62zm18.89-3.21c.35 1.99-1.7 4.04-4.63 4.59-2.88.53-5.54-.71-5.91-2.68-.36-2.05 1.73-4.1 4.61-4.63 2.93-.51 5.56.69 5.93 2.72zm0 0" fill="#fff"/></svg>