<svg xmlns="http://www.w3.org/2000/svg" viewBox="0 0 189 195"><path d="M155.6 94.4L97.7 36.5c-.2-.2-.4-.4-.7-.5-.1 0-.1-.1-.2-.1l-.6-.3c-.1 0-.2-.1-.3-.1-.2-.1-.4-.1-.6-.2-.1 0-.1 0-.2-.1-.2 0-.5-.1-.8-.1l-28.6-.6c-1.3-.1-2.5.5-3.5 1.4l-29 29c-.1.1-.3.3-.4.5 0 .1-.1.1-.1.2l-.3.6c0 .1-.1.2-.1.2-.1.2-.1.4-.2.6 0 .1-.1.2-.1.3 0 .2-.1.4-.1.6v1.2c0 .2.1.3.1.5 0 .1.1.3.1.4 0 .1.1.2.2.3.1.2.2.3.3.5.1.1.1.2.2.2.1.2.3.3.4.5L59 97.2l-25.6 25.6c-.2.2-.3.3-.4.5 0 .1-.1.1-.1.1l-.3.6c0 .1-.1.2-.1.2-.1.2-.1.4-.2.6 0 .1-.1.2-.1.3 0 .2-.1.4-.1.6v1.2c0 .2.1.3.1.5 0 .1.1.3.1.4 0 .1.1.2.2.3.1.2.2.3.3.5.1.1.1.2.2.2.1.2.3.3.4.5l29 29c.9.9 2 1.4 3.3 1.4l28.6.6h.1c.3 0 .6 0 .8-.1.1 0 .2 0 .2-.1.2 0 .4-.1.6-.2.1 0 .1-.1.2-.1.3-.1.5-.2.7-.4.2-.2.4-.3.6-.5 0 0 .1 0 .1-.1l57.9-57.9c.9-.9 1.4-2.1 1.4-3.4s-.4-2.2-1.3-3.1zM67.7 44.1l15.3.3L63.4 64 48 63.7l19.7-19.6zm1.4 49.8L48.5 73.3l14.8.3 24.2 24.2L63.4 122l-15.4-.3 21.1-21.1c1.9-1.9 1.9-4.9 0-6.7zm-1.3 56.5l-19.2-19.2 14.8.3 19.2 19.2-14.8-.3zm26.5-1.4l-22.2-22.2 25.6-25.6c1.9-1.9 1.9-4.9 0-6.7L72.1 68.8l22.2-22.2 51.2 51.2L94.3 149z" fill="#fff"/></svg>