<svg version="1.1" id="Layer_1" xmlns="http://www.w3.org/2000/svg" x="0" y="0" viewBox="0 0 300 303.51" xml:space="preserve"><style>.st0{fill:#008fd5}.st1{fill:#002a78}</style><path class="st0" d="M198.81 218.51h-21.53c-1.47 0-2.72 1.07-2.95 2.52l-8.7 55.2c-.17 1.09.67 2.07 1.77 2.07h11.04c1.03 0 1.91-.75 2.07-1.77l2.47-15.65a2.988 2.988 0 012.95-2.52h6.81c14.18 0 22.36-6.86 24.5-20.46.96-5.95.04-10.62-2.75-13.89-3.05-3.6-8.48-5.5-15.68-5.5zm2.48 20.16c-1.18 7.73-7.08 7.73-12.79 7.73h-3.25l2.28-14.43c.14-.87.89-1.51 1.77-1.51h1.49c3.89 0 7.56 0 9.45 2.21 1.14 1.33 1.48 3.29 1.05 6z"/><path class="st1" d="M45.27 218.51H23.74c-1.47 0-2.72 1.07-2.95 2.52l-8.7 55.2c-.17 1.09.67 2.07 1.77 2.07h10.28c1.47 0 2.72-1.07 2.95-2.52l2.35-14.89a2.988 2.988 0 012.95-2.52h6.81c14.18 0 22.36-6.86 24.5-20.46.96-5.95.04-10.62-2.75-13.89-3.05-3.61-8.48-5.51-15.68-5.51zm2.49 20.16c-1.18 7.73-7.08 7.73-12.79 7.73h-3.25L34 231.97c.14-.87.89-1.51 1.77-1.51h1.49c3.89 0 7.56 0 9.45 2.21 1.13 1.33 1.47 3.29 1.05 6zm61.85-.25h-10.3c-.88 0-1.64.64-1.77 1.51l-.45 2.88-.72-1.04c-2.23-3.24-7.21-4.32-12.18-4.32-11.39 0-21.12 8.63-23.01 20.73-.99 6.04.41 11.81 3.84 15.84 3.15 3.7 7.63 5.24 12.98 5.24 9.18 0 14.27-5.9 14.27-5.9l-.46 2.87a1.8 1.8 0 001.77 2.08h9.28c1.47 0 2.72-1.07 2.95-2.52l5.57-35.29c.18-1.09-.66-2.08-1.77-2.08zm-14.36 20.07c-1 5.89-5.67 9.84-11.63 9.84-2.99 0-5.38-.96-6.92-2.78-1.52-1.81-2.1-4.38-1.62-7.24.93-5.84 5.68-9.92 11.55-9.92 2.93 0 5.3.97 6.87 2.81 1.58 1.85 2.2 4.44 1.75 7.29z"/><path class="st0" d="M263.15 238.42h-10.31c-.88 0-1.64.64-1.77 1.51l-.45 2.88-.72-1.04c-2.23-3.24-7.21-4.32-12.18-4.32-11.39 0-21.12 8.63-23.01 20.73-.99 6.04.41 11.81 3.84 15.84 3.15 3.7 7.63 5.24 12.98 5.24 9.18 0 14.27-5.9 14.27-5.9l-.46 2.87a1.8 1.8 0 001.77 2.08h9.28c1.47 0 2.72-1.07 2.95-2.52l5.57-35.29c.18-1.09-.66-2.08-1.76-2.08zm-14.37 20.07c-1 5.89-5.67 9.84-11.63 9.84-2.99 0-5.38-.96-6.92-2.78-1.52-1.81-2.1-4.38-1.62-7.24.93-5.84 5.68-9.92 11.55-9.92 2.93 0 5.3.97 6.87 2.81 1.59 1.85 2.21 4.44 1.75 7.29z"/><path class="st1" d="M164.51 238.42h-10.36c-.99 0-1.92.49-2.47 1.31l-14.29 21.05-6.06-20.23a2.982 2.982 0 00-2.87-2.13h-10.18c-1.23 0-2.1 1.21-1.7 2.37l11.41 33.49-10.73 15.14c-.84 1.19.01 2.83 1.46 2.83h10.35c.98 0 1.9-.48 2.46-1.29l34.46-49.73c.82-1.18-.03-2.81-1.48-2.81z"/><path class="st0" d="M275.3 220.03l-8.84 56.21c-.17 1.09.67 2.07 1.77 2.07h8.89c1.47 0 2.72-1.07 2.95-2.52l8.71-55.2c.17-1.09-.67-2.07-1.77-2.07h-9.94c-.88-.01-1.63.64-1.77 1.51zM217.56 63.71c2.18-13.89-.02-23.35-7.53-31.91-8.27-9.43-23.22-13.47-42.35-13.47h-55.51c-3.91 0-7.24 2.84-7.85 6.7L81.21 171.62c-.46 2.89 1.78 5.51 4.71 5.51h34.27l-2.37 15a4.172 4.172 0 004.12 4.82h28.89c3.42 0 6.33-2.49 6.86-5.87l.28-1.47 5.44-34.51.35-1.91a6.944 6.944 0 016.86-5.87h4.32c27.98 0 49.9-11.37 56.3-44.25 2.68-13.74 1.29-25.21-5.78-33.27-2.14-2.43-4.8-4.44-7.9-6.09"/><path d="M217.56 63.71c2.18-13.89-.02-23.35-7.53-31.91-8.27-9.43-23.22-13.47-42.35-13.47h-55.51c-3.91 0-7.24 2.84-7.85 6.7L81.21 171.62c-.46 2.89 1.78 5.51 4.71 5.51h34.27l8.61-54.59-.27 1.71c.61-3.86 3.91-6.7 7.82-6.7h16.29c31.99 0 57.04-13 64.36-50.58.2-1.12.39-2.2.56-3.26" fill="#001f5b"/><path class="st1" d="M138.04 63.9a6.993 6.993 0 013.86-5.19c.91-.44 1.93-.68 3-.68h43.51c5.16 0 9.96.34 14.36 1.05 1.26.2 2.48.43 3.66.7s2.34.56 3.45.88c.56.16 1.11.33 1.65.51 2.16.72 4.17 1.56 6.02 2.54 2.18-13.89-.02-23.35-7.53-31.91-8.27-9.43-23.22-13.47-42.35-13.47h-55.51c-3.91 0-7.24 2.84-7.85 6.7l-23.1 146.59c-.46 2.89 1.78 5.51 4.71 5.51h34.27l8.61-54.59 9.24-58.64z"/></svg>