<svg xmlns="http://www.w3.org/2000/svg" xmlns:xlink="http://www.w3.org/1999/xlink" viewBox="0 0 500 500"><defs><style>.cls-1{fill:none;}.cls-2{isolation:isolate;}.cls-3{clip-path:url(#clip-path);}.cls-4{fill:url(#linear-gradient);}.cls-11,.cls-12,.cls-15,.cls-18,.cls-20,.cls-21,.cls-23,.cls-24,.cls-27,.cls-28,.cls-29,.cls-30,.cls-32,.cls-33,.cls-34,.cls-35,.cls-37,.cls-38,.cls-40,.cls-41,.cls-42,.cls-44,.cls-45,.cls-48,.cls-49,.cls-5,.cls-51,.cls-53,.cls-54,.cls-55,.cls-56,.cls-57,.cls-7{mix-blend-mode:overlay;}.cls-5{fill:url(#linear-gradient-2);}.cls-6{fill:url(#radial-gradient);}.cls-8{fill:#eefbdc;}.cls-9{fill:url(#linear-gradient-3);}.cls-10{fill:url(#linear-gradient-4);}.cls-11{fill:url(#linear-gradient-5);}.cls-12{fill:url(#linear-gradient-6);}.cls-13{fill:#ffd8c1;}.cls-14{fill:url(#linear-gradient-7);}.cls-15{fill:url(#linear-gradient-8);}.cls-16{fill:#32024f;opacity:0.2;}.cls-16,.cls-25{mix-blend-mode:multiply;}.cls-17{fill:#e702ff;}.cls-18{fill:url(#linear-gradient-9);}.cls-19{fill:url(#linear-gradient-10);}.cls-20{fill:url(#linear-gradient-11);}.cls-21{fill:url(#linear-gradient-12);}.cls-22{fill:url(#linear-gradient-13);}.cls-23{fill:url(#linear-gradient-14);}.cls-24{fill:url(#linear-gradient-15);}.cls-25{fill:#320778;opacity:0.4;}.cls-26{fill:url(#linear-gradient-16);}.cls-27{fill:url(#linear-gradient-17);}.cls-28{fill:url(#linear-gradient-18);}.cls-29{fill:url(#linear-gradient-19);}.cls-30{fill:url(#linear-gradient-20);}.cls-31{fill:url(#linear-gradient-21);}.cls-32{fill:url(#linear-gradient-22);}.cls-33{fill:url(#linear-gradient-23);}.cls-34{fill:url(#linear-gradient-24);}.cls-35{fill:url(#linear-gradient-25);}.cls-36{fill:url(#linear-gradient-26);}.cls-37{fill:url(#linear-gradient-27);}.cls-38{fill:url(#linear-gradient-28);}.cls-39{fill:url(#linear-gradient-29);}.cls-40{fill:url(#linear-gradient-30);}.cls-41{fill:url(#linear-gradient-31);}.cls-42{fill:url(#linear-gradient-32);}.cls-43{fill:url(#linear-gradient-33);}.cls-44{fill:url(#linear-gradient-34);}.cls-45{fill:url(#linear-gradient-35);}.cls-46{fill:#ffe9e1;}.cls-47{fill:url(#linear-gradient-36);}.cls-48{fill:url(#linear-gradient-37);}.cls-49{fill:url(#linear-gradient-38);}.cls-50{fill:url(#linear-gradient-39);}.cls-51{fill:url(#linear-gradient-40);}.cls-52{fill:#f3df68;}.cls-53{fill:url(#linear-gradient-41);}.cls-54{fill:url(#linear-gradient-42);}.cls-55{fill:url(#linear-gradient-43);}.cls-56{fill:url(#linear-gradient-44);}.cls-57{fill:url(#linear-gradient-45);}.cls-58{fill:url(#linear-gradient-46);}.cls-59{fill:url(#linear-gradient-47);}.cls-60{fill:url(#linear-gradient-48);}</style><clipPath id="clip-path"><rect class="cls-1" width="500" height="500"/></clipPath><linearGradient id="linear-gradient" x1="250" y1="424.61" x2="250" y2="-54.92" gradientTransform="translate(500 492.84) rotate(-180)" gradientUnits="userSpaceOnUse"><stop offset="0" stop-color="#ffc572"/><stop offset="0.19" stop-color="#ff6559"/><stop offset="0.29" stop-color="#df4971"/><stop offset="0.43" stop-color="#bb2a8c"/><stop offset="0.55" stop-color="#a1139f"/><stop offset="0.66" stop-color="#9205ab"/><stop offset="0.75" stop-color="#8c00af"/><stop offset="0.79" stop-color="#8500ac"/><stop offset="0.85" stop-color="#7300a5"/><stop offset="0.92" stop-color="#540099"/><stop offset="1" stop-color="#2a0088"/><stop offset="1" stop-color="#280087"/></linearGradient><linearGradient id="linear-gradient-2" x1="194.11" y1="453.67" x2="194.11" y2="400.66" gradientUnits="userSpaceOnUse"><stop offset="0" stop-color="#f2ffff"/><stop offset="1" stop-color="#93fffd" stop-opacity="0"/></linearGradient><radialGradient id="radial-gradient" cx="245.25" cy="284.45" r="300.3" gradientTransform="translate(211.68 -119.43) rotate(45)" gradientUnits="userSpaceOnUse"><stop offset="0.46" stop-color="#fff" stop-opacity="0"/><stop offset="0.54" stop-color="#fff" stop-opacity="0.01"/><stop offset="0.61" stop-color="#fff" stop-opacity="0.06"/><stop offset="0.68" stop-color="#fff" stop-opacity="0.13"/><stop offset="0.74" stop-color="#fff" stop-opacity="0.23"/><stop offset="0.8" stop-color="#fff" stop-opacity="0.36"/><stop offset="0.86" stop-color="#fff" stop-opacity="0.51"/><stop offset="0.92" stop-color="#fff" stop-opacity="0.7"/><stop offset="0.98" stop-color="#fff" stop-opacity="0.91"/><stop offset="1" stop-color="#fff"/></radialGradient><linearGradient id="linear-gradient-3" x1="262.1" y1="178.58" x2="262.1" y2="443.49" gradientUnits="userSpaceOnUse"><stop offset="0" stop-color="#751178"/><stop offset="0.06" stop-color="#6f1075"/><stop offset="0.69" stop-color="#3d0457"/><stop offset="1" stop-color="#29004c"/></linearGradient><linearGradient id="linear-gradient-4" x1="-17.39" y1="493.79" x2="-17.39" y2="272.46" gradientUnits="userSpaceOnUse"><stop offset="0" stop-color="#931c47"/><stop offset="0.3" stop-color="#6f1349"/><stop offset="0.77" stop-color="#3d054b"/><stop offset="1" stop-color="#29004c"/></linearGradient><linearGradient id="linear-gradient-5" x1="19.85" y1="239.77" x2="19.85" y2="461.05" gradientUnits="userSpaceOnUse"><stop offset="0.27" stop-color="#f2ffff"/><stop offset="1" stop-color="#93fffd" stop-opacity="0"/></linearGradient><linearGradient id="linear-gradient-6" x1="-17.39" y1="243.25" x2="-17.39" y2="465.88" xlink:href="#linear-gradient-2"/><linearGradient id="linear-gradient-7" x1="115.34" y1="513.24" x2="115.34" y2="187.86" gradientUnits="userSpaceOnUse"><stop offset="0.19" stop-color="#e43e8d"/><stop offset="0.32" stop-color="#c23381"/><stop offset="0.65" stop-color="#701865"/><stop offset="0.89" stop-color="#3d0753"/><stop offset="1" stop-color="#29004c"/></linearGradient><linearGradient id="linear-gradient-8" x1="155" y1="166.79" x2="155" y2="464.43" xlink:href="#linear-gradient-5"/><linearGradient id="linear-gradient-9" x1="89.73" y1="459.75" x2="89.73" y2="273.19" xlink:href="#linear-gradient-2"/><linearGradient id="linear-gradient-10" x1="240.9" y1="501.03" x2="240.9" y2="196.51" gradientUnits="userSpaceOnUse"><stop offset="0" stop-color="#e43e8d"/><stop offset="0.17" stop-color="#c23381"/><stop offset="0.57" stop-color="#701865"/><stop offset="0.86" stop-color="#3d0753"/><stop offset="1" stop-color="#29004c"/></linearGradient><linearGradient id="linear-gradient-11" x1="240.81" y1="144.35" x2="240.81" y2="436.43" xlink:href="#linear-gradient-2"/><linearGradient id="linear-gradient-12" x1="259.87" y1="463.04" x2="259.87" y2="204.18" xlink:href="#linear-gradient-2"/><linearGradient id="linear-gradient-13" x1="441.95" y1="502.52" x2="441.95" y2="233.16" xlink:href="#linear-gradient-4"/><linearGradient id="linear-gradient-14" x1="420.71" y1="186.4" x2="420.71" y2="463.52" xlink:href="#linear-gradient-5"/><linearGradient id="linear-gradient-15" x1="458.74" y1="460.38" x2="458.74" y2="260" xlink:href="#linear-gradient-2"/><linearGradient id="linear-gradient-16" x1="351.92" y1="481.7" x2="351.92" y2="247.74" xlink:href="#linear-gradient-4"/><linearGradient id="linear-gradient-17" x1="315.34" y1="217.63" x2="315.34" y2="462.08" xlink:href="#linear-gradient-5"/><linearGradient id="linear-gradient-18" x1="303.81" y1="334.92" x2="409.7" y2="334.92" xlink:href="#linear-gradient-2"/><linearGradient id="linear-gradient-19" x1="373.25" y1="459.56" x2="373.25" y2="277.13" xlink:href="#linear-gradient-2"/><linearGradient id="linear-gradient-20" x1="324.75" y1="325.33" x2="324.75" y2="251.04" xlink:href="#linear-gradient-2"/><linearGradient id="linear-gradient-21" x1="154.07" y1="511.82" x2="154.07" y2="259.57" gradientTransform="translate(308.15 719.98) rotate(-180)" xlink:href="#linear-gradient-4"/><linearGradient id="linear-gradient-22" x1="3695.32" y1="267.53" x2="3695.32" y2="459.77" gradientTransform="matrix(1, 0, 0, -1, -3513.85, 719.98)" xlink:href="#linear-gradient-5"/><linearGradient id="linear-gradient-23" x1="3684.89" y1="359.77" x2="3768.16" y2="359.77" gradientTransform="matrix(-1, 0, 0, 1, 3876.79, 0)" xlink:href="#linear-gradient-2"/><linearGradient id="linear-gradient-24" x1="3739.49" y1="457.79" x2="3739.49" y2="314.32" gradientTransform="matrix(1, 0, 0, -1, -3602.19, 760.93)" xlink:href="#linear-gradient-2"/><linearGradient id="linear-gradient-25" x1="47.18" y1="311.81" x2="47.18" y2="284.64" xlink:href="#linear-gradient-2"/><linearGradient id="linear-gradient-26" x1="47.18" y1="157.96" x2="47.18" y2="437.6" gradientTransform="translate(94.36 754.53) rotate(-180)" gradientUnits="userSpaceOnUse"><stop offset="0" stop-color="#ff543e"/><stop offset="1" stop-color="#82009f"/></linearGradient><linearGradient id="linear-gradient-27" x1="3511.16" y1="302.31" x2="3511.16" y2="458.15" gradientTransform="matrix(1, 0, 0, -1, -3419.29, 754.53)" xlink:href="#linear-gradient-5"/><linearGradient id="linear-gradient-28" x1="3583.81" y1="456.55" x2="3583.81" y2="340.24" gradientTransform="matrix(1, 0, 0, -1, -3564.59, 787.73)" xlink:href="#linear-gradient-2"/><linearGradient id="linear-gradient-29" x1="470.08" y1="99.87" x2="470.08" y2="496.23" gradientTransform="matrix(1, 0, 0, 1, 0, 0)" xlink:href="#linear-gradient-26"/><linearGradient id="linear-gradient-30" x1="447.84" y1="286.06" x2="447.84" y2="455.14" xlink:href="#linear-gradient-2"/><linearGradient id="linear-gradient-31" x1="473.16" y1="295.52" x2="473.16" y2="443.73" xlink:href="#linear-gradient-2"/><linearGradient id="linear-gradient-32" x1="484.34" y1="457.24" x2="484.34" y2="325.88" xlink:href="#linear-gradient-2"/><linearGradient id="linear-gradient-33" x1="319.34" y1="481.56" x2="319.34" y2="351.57" xlink:href="#linear-gradient-4"/><linearGradient id="linear-gradient-34" x1="290.35" y1="318.83" x2="290.35" y2="457.39" xlink:href="#linear-gradient-5"/><linearGradient id="linear-gradient-35" x1="-1104.18" y1="384.59" x2="-1019.47" y2="384.59" gradientTransform="matrix(-1, 0, 0, 1, -746.36, 0)" xlink:href="#linear-gradient-2"/><linearGradient id="linear-gradient-36" x1="3746.31" y1="472.38" x2="3746.31" y2="381.74" gradientTransform="matrix(1, 0, 0, -1, -3569.59, 810.76)" xlink:href="#linear-gradient-4"/><linearGradient id="linear-gradient-37" x1="3729.49" y1="358.91" x2="3729.49" y2="455.53" gradientTransform="matrix(1, 0, 0, -1, -3535.95, 810.76)" xlink:href="#linear-gradient-5"/><linearGradient id="linear-gradient-38" x1="-4515" y1="404.77" x2="-4465.84" y2="404.77" gradientTransform="translate(4669.38)" xlink:href="#linear-gradient-2"/><linearGradient id="linear-gradient-39" x1="294.51" y1="460" x2="294.51" y2="373.91" gradientTransform="matrix(1, 0, 0, 1, 0, 0)" xlink:href="#linear-gradient-26"/><linearGradient id="linear-gradient-40" x1="4412.81" y1="376.44" x2="4412.81" y2="505.56" gradientTransform="matrix(-1, 0, 0, 1, 4674.46, 0)" xlink:href="#linear-gradient-5"/><linearGradient id="linear-gradient-41" x1="308.5" y1="477.84" x2="308.5" y2="409.21" xlink:href="#linear-gradient-2"/><linearGradient id="linear-gradient-42" x1="319.34" y1="323.94" x2="319.34" y2="298.33" xlink:href="#linear-gradient-2"/><linearGradient id="linear-gradient-43" x1="393.47" y1="434.63" x2="393.47" y2="292.72" xlink:href="#linear-gradient-2"/><linearGradient id="linear-gradient-44" x1="527.85" y1="438.57" x2="527.85" y2="330.28" xlink:href="#linear-gradient-2"/><linearGradient id="linear-gradient-45" x1="33.67" y1="438.57" x2="33.67" y2="330.28" xlink:href="#linear-gradient-2"/><linearGradient id="linear-gradient-46" x1="-0.73" y1="457.51" x2="-0.73" y2="343.97" gradientUnits="userSpaceOnUse"><stop offset="0" stop-color="#2b102b"/><stop offset="0.37" stop-color="#2a0a38"/><stop offset="1" stop-color="#29004c"/></linearGradient><linearGradient id="linear-gradient-47" x1="4130.53" y1="457.51" x2="4130.53" y2="343.97" gradientTransform="matrix(-1, 0, 0, 1, 4631.27, 0)" xlink:href="#linear-gradient-46"/><linearGradient id="linear-gradient-48" x1="250" y1="435.73" x2="250" y2="511.52" xlink:href="#linear-gradient-46"/></defs><title>Mesa de trabajo 1 copy</title><g class="cls-2"><g id="BACKGROUND_1" data-name="BACKGROUND 1"><g class="cls-3"><rect class="cls-4" x="-143.8" y="-16.11" width="787.6" height="525.06" transform="translate(500 492.84) rotate(180)"/><rect class="cls-5" x="185.27" y="398.94" width="17.69" height="52.31"/><circle class="cls-6" cx="250" cy="195.8" r="146.93" transform="translate(-65.23 234.13) rotate(-45)"/><g class="cls-7"><path class="cls-8" d="M69.7,50.34a2,2,0,1,0-2.63,1A2,2,0,0,0,69.7,50.34Z"/><path class="cls-8" d="M114.82,38.87a1.05,1.05,0,1,0-1.38.55A1.06,1.06,0,0,0,114.82,38.87Z"/><path class="cls-8" d="M215.3,21.85a.92.92,0,1,0-1.21.48A.93.93,0,0,0,215.3,21.85Z"/><path class="cls-8" d="M132.32,61.34a.91.91,0,1,0-1.2.48A.92.92,0,0,0,132.32,61.34Z"/><path class="cls-8" d="M281.73,7.41a.93.93,0,1,0-1.21.48A.92.92,0,0,0,281.73,7.41Z"/><path class="cls-8" d="M357.5,57.48a.91.91,0,1,0-1.2.48A.93.93,0,0,0,357.5,57.48Z"/><path class="cls-8" d="M377.45,12.48a1.51,1.51,0,0,0-.8-2,1.52,1.52,0,1,0,.8,2Z"/><path class="cls-8" d="M371.44,37.76a2,2,0,1,0-2.67,1.07A2,2,0,0,0,371.44,37.76Z"/><path class="cls-8" d="M457.56,8.81a1.38,1.38,0,1,0-1.82.72A1.38,1.38,0,0,0,457.56,8.81Z"/><path class="cls-8" d="M48.93,11A2.2,2.2,0,1,0,46,12.19,2.21,2.21,0,0,0,48.93,11Z"/><path class="cls-8" d="M176,50.42A1.79,1.79,0,0,0,172.72,49,1.79,1.79,0,0,0,176,50.42Z"/><path class="cls-8" d="M275.1,32.21a1.87,1.87,0,1,0-2.46,1A1.87,1.87,0,0,0,275.1,32.21Z"/><path class="cls-8" d="M30.39,64.63a1.42,1.42,0,1,0-1.86.74A1.41,1.41,0,0,0,30.39,64.63Z"/><path class="cls-8" d="M429.7,8a1.32,1.32,0,1,0-1.74.7A1.32,1.32,0,0,0,429.7,8Z"/><path class="cls-8" d="M67.75,21.33a1.28,1.28,0,0,0-.67-1.69,1.29,1.29,0,1,0,.67,1.69Z"/><path class="cls-8" d="M136.27,65.38a.41.41,0,1,0-.54.22A.41.41,0,0,0,136.27,65.38Z"/><path class="cls-8" d="M141.24,61.74a.41.41,0,0,0-.21-.54.42.42,0,0,0-.54.22.41.41,0,0,0,.22.54A.4.4,0,0,0,141.24,61.74Z"/><path class="cls-8" d="M106,50.93a1,1,0,0,0-1.82-.78,1,1,0,0,0,1.82.78Z"/><path class="cls-8" d="M91.73,69.53a.65.65,0,0,0-.34-.86.66.66,0,0,0-.87.34.67.67,0,0,0,.35.87A.65.65,0,0,0,91.73,69.53Z"/><path class="cls-8" d="M84.17,37.63A.9.9,0,1,0,83,38.1.9.9,0,0,0,84.17,37.63Z"/><path class="cls-8" d="M70.52,8a.47.47,0,1,0-.61.25A.47.47,0,0,0,70.52,8Z"/><path class="cls-8" d="M79.67,19.14a.41.41,0,0,0-.76-.32.41.41,0,0,0,.21.54A.42.42,0,0,0,79.67,19.14Z"/><path class="cls-8" d="M84.64,15.5a.4.4,0,0,0-.21-.53.41.41,0,0,0-.54.21.41.41,0,1,0,.75.32Z"/><path class="cls-8" d="M26.67,11.91a.66.66,0,0,0-1.22-.52.66.66,0,0,0,1.22.52Z"/><path class="cls-8" d="M105.16,6.44a.8.8,0,1,0-1.06.42A.81.81,0,0,0,105.16,6.44Z"/><path class="cls-8" d="M102.4,22.65a.84.84,0,1,0-1.54-.66.84.84,0,0,0,1.54.66Z"/><path class="cls-8" d="M6.62,40.12a.47.47,0,0,0-.91.22.47.47,0,0,0,.57.35A.47.47,0,0,0,6.62,40.12Z"/><path class="cls-8" d="M20.64,43.56a.41.41,0,0,0-.5-.3.41.41,0,0,0,.19.8A.42.42,0,0,0,20.64,43.56Z"/><path class="cls-8" d="M22.43,37.66a.41.41,0,1,0-.3.5A.41.41,0,0,0,22.43,37.66Z"/><path class="cls-8" d="M29.07,20.16a.8.8,0,1,0-.59,1A.81.81,0,0,0,29.07,20.16Z"/><path class="cls-8" d="M40.92,32.71a.84.84,0,0,0-1-.62.84.84,0,1,0,1,.62Z"/><path class="cls-8" d="M10.1,22.18A.82.82,0,1,0,9,22.46.83.83,0,0,0,10.1,22.18Z"/><path class="cls-8" d="M135.29,18.51a.48.48,0,0,0-.22-.63.47.47,0,0,0-.63.22.47.47,0,0,0,.22.63A.48.48,0,0,0,135.29,18.51Z"/><path class="cls-8" d="M143.9,30.09a.42.42,0,0,0-.19-.56.42.42,0,0,0-.36.75A.42.42,0,0,0,143.9,30.09Z"/><path class="cls-8" d="M149,26.68a.42.42,0,0,0-.19-.55.41.41,0,1,0-.36.74A.41.41,0,0,0,149,26.68Z"/><path class="cls-8" d="M252.78,24.43a.66.66,0,1,0-.88.31A.67.67,0,0,0,252.78,24.43Z"/><path class="cls-8" d="M165.3,17.41a.8.8,0,1,0-1.44-.7.81.81,0,0,0,.37,1.08A.8.8,0,0,0,165.3,17.41Z"/><path class="cls-8" d="M166.45,34.64a.84.84,0,1,0-1.51-.73.84.84,0,1,0,1.51.73Z"/><path class="cls-8" d="M202.7,43.61a.83.83,0,1,0-1.1.38A.82.82,0,0,0,202.7,43.61Z"/><path class="cls-8" d="M313.74,60.84a.41.41,0,1,0-.8.18.43.43,0,0,0,.5.31A.4.4,0,0,0,313.74,60.84Z"/><path class="cls-8" d="M183.27,9.68a1,1,0,0,0-1.19-.75,1,1,0,0,0-.74,1.19,1,1,0,0,0,1.93-.44Z"/><path class="cls-8" d="M182.7,33.13a.66.66,0,1,0-.49.79A.66.66,0,0,0,182.7,33.13Z"/><path class="cls-8" d="M264.45,10a.84.84,0,0,0-1-.63.84.84,0,0,0,.38,1.64A.84.84,0,0,0,264.45,10Z"/><path class="cls-8" d="M477.69,56a1,1,0,1,0-.74,1.19A1,1,0,0,0,477.69,56Z"/><path class="cls-8" d="M370.1,17.66a.41.41,0,0,0-.7.44.41.41,0,1,0,.7-.44Z"/><path class="cls-8" d="M369.92,11.5a.41.41,0,0,0-.7.44.41.41,0,0,0,.7-.44Z"/><path class="cls-8" d="M272.54,7.13a.66.66,0,0,0-1.12.7.66.66,0,0,0,1.12-.7Z"/><path class="cls-8" d="M401.57,19.29a.67.67,0,0,0-.91-.2.66.66,0,0,0-.21.91.65.65,0,0,0,.91.2A.66.66,0,0,0,401.57,19.29Z"/><path class="cls-8" d="M308.6,33.8a.41.41,0,1,0-.75.31.41.41,0,1,0,.75-.31Z"/><path class="cls-8" d="M312.52,15.49a.81.81,0,0,0-1-.43.8.8,0,1,0,1,.43Z"/><path class="cls-8" d="M326.14,26.11a.85.85,0,0,0-1.1-.46.84.84,0,0,0,.64,1.56A.85.85,0,0,0,326.14,26.11Z"/><path class="cls-8" d="M340.72,26.52a.9.9,0,1,0-.49,1.18A.91.91,0,0,0,340.72,26.52Z"/><path class="cls-8" d="M327,37.8a1,1,0,1,0-.54,1.29A1,1,0,0,0,327,37.8Z"/><path class="cls-8" d="M304,6.37a.66.66,0,1,0-.36.86A.65.65,0,0,0,304,6.37Z"/><path class="cls-8" d="M333.06,16.37a.83.83,0,1,0-1.53.63.83.83,0,1,0,1.53-.63Z"/><path class="cls-8" d="M334,29.41a.58.58,0,1,0-.31.76A.59.59,0,0,0,334,29.41Z"/><path class="cls-8" d="M325.39,46.55a.41.41,0,0,0,0,.59.4.4,0,0,0,.58,0,.41.41,0,0,0-.58-.58Z"/><path class="cls-8" d="M319.42,48.12a.41.41,0,0,0,.59.58.42.42,0,0,0,0-.58A.41.41,0,0,0,319.42,48.12Z"/><path class="cls-8" d="M305.51,35a.84.84,0,0,0,0,1.19.85.85,0,0,0,1.19,0,.84.84,0,0,0,0-1.19A.83.83,0,0,0,305.51,35Z"/><path class="cls-8" d="M467.14,27.76a.9.9,0,1,0,1.27,0A.9.9,0,0,0,467.14,27.76Z"/><path class="cls-8" d="M409.09,39.54a.47.47,0,0,0,0,.66.48.48,0,0,0,.67,0,.47.47,0,0,0,0-.67A.46.46,0,0,0,409.09,39.54Z"/><path class="cls-8" d="M404.66,25.8a.41.41,0,1,0,.59,0A.42.42,0,0,0,404.66,25.8Z"/><path class="cls-8" d="M398.7,27.37a.41.41,0,0,0,0,.58.41.41,0,0,0,.58-.58A.41.41,0,0,0,398.7,27.37Z"/><path class="cls-8" d="M488.26,19a1,1,0,1,0,1.4,0A1,1,0,0,0,488.26,19Z"/><path class="cls-8" d="M380.32,30.91A.8.8,0,0,0,381.46,32a.8.8,0,1,0-1.14-1.12Z"/><path class="cls-8" d="M384.78,14.22a.85.85,0,0,0,0,1.19.84.84,0,1,0,0-1.19Z"/><path class="cls-8" d="M392,46a.83.83,0,1,0,.83.82A.84.84,0,0,0,392,46Z"/><path class="cls-8" d="M433.63,39.19a.82.82,0,0,0,0,1.17.83.83,0,1,0,0-1.17Z"/><path class="cls-8" d="M445.3,33.28a.57.57,0,0,0,0,.82.58.58,0,0,0,.82,0,.57.57,0,0,0,0-.81A.56.56,0,0,0,445.3,33.28Z"/></g><path class="cls-9" d="M-132.32,284v25.08h4.56V267.55h30.42v29.37h5.52v12.19h9.14V226.72h29.9V206.63h40.71v63.48H-2V191.45H9.9v-3.06h7.42v3.06h11v34.14H59.84v52.94h8.48V264.69H78.69v-4.88h2.42v-8.37H83v8.37h2.84v-8.37h1.87v8.37h1.61v4.88h3.62V270h46.26V213.7h13.1v-4.07h9V196.82h14.18l3.05,2.9v2.52H185v7.39h5.13v111.2h4V309.19h1.49v-38h4.27v-4.29h11.72v4.29H235V131.9h12.68v-3.09h25.16v3.09h18.91V314.63h4.2v-7.1h4.75v7.1h4.06V277.24h3.91v-3.36h10.82v3.36h33v71.27h4.13V170.13H372.4v-6.44h26.46v6.44h28.46V297h19.56V281.89h2.52V278.6h4V276h.78v2.61h1.49V276h.79v2.61h1.88v3.29h4.5V255.1h13.18V216.35h4.62v-5.7h10l2.15,2v1.59h6.36v2.07h5.19v15.39h21.74v-8.28h27.12v8.28h20.44v78.71H592V281.72h5.57v-4.55h6v-8.64h2.17v8.64h3.85v4.55h3.4V236.23h21.11v-6.44h4.72v-4.58l2.16-2h10v6.62h4.72v6.44h19.73v215H-151.27V284Z"/><rect class="cls-10" x="-61.98" y="241.14" width="89.18" height="210.11"/><rect class="cls-11" x="12.49" y="241.14" width="14.71" height="210.11"/><path class="cls-12" d="M27.2,245.3H-62v-.42H27.2Zm0,3.9H-62v.42H27.2Zm0,4.32H-62v.42H27.2Zm0,4.32H-62v.42H27.2Zm0,4.33H-62v.41H27.2Zm0,4.32H-62v.41H27.2Zm0,4.32H-62v.42H27.2Zm0,4.32H-62v.42H27.2Zm0,4.32H-62v.42H27.2Zm0,4.33H-62v.41H27.2Zm0,4.32H-62v.41H27.2Zm0,4.32H-62v.41H27.2Zm0,4.32H-62v.42H27.2Zm0,4.32H-62v.42H27.2Zm0,4.32H-62v.42H27.2Zm0,4.32H-62v.42H27.2Zm0,4.33H-62v.41H27.2Zm0,4.32H-62v.41H27.2Zm0,4.32H-62v.42H27.2Zm0,4.32H-62v.42H27.2Zm0,4.32H-62v.42H27.2Zm0,4.33H-62v.41H27.2Zm0,4.32H-62v.41H27.2Zm0,4.32H-62v.42H27.2Zm0,4.32H-62V349H27.2Zm0,4.32H-62v.42H27.2Zm0,4.33H-62v.41H27.2Zm0,4.32H-62V362H27.2Zm0,4.32H-62v.42H27.2Zm0,4.32H-62v.42H27.2Zm0,4.32H-62V375H27.2Zm0,4.32H-62v.42H27.2Zm0,4.33H-62v.41H27.2Zm0,4.32H-62v.41H27.2Zm0,4.32H-62v.42H27.2Zm0,4.32H-62v.42H27.2Zm0,4.32H-62v.42H27.2Zm0,4.33H-62v.41H27.2Zm0,4.32H-62v.41H27.2Zm0,4.32H-62v.42H27.2Zm0,4.32H-62v.42H27.2Zm0,4.32H-62v.42H27.2Zm0,4.33H-62v.41H27.2Zm0,4.32H-62v.41H27.2Zm0,4.32H-62v.42H27.2Zm0,4.32H-62v.42H27.2Zm0,4.32H-62v.42H27.2Zm0,4.33H-62v.41H27.2Z"/><rect class="cls-13" x="4.77" y="246.62" width="3.27" height="1"/><rect class="cls-13" x="22.23" y="255.38" width="3.49" height="1"/><rect class="cls-13" x="16.21" y="307.34" width="4.57" height="1"/><rect class="cls-13" x="2.71" y="316" width="3.49" height="1"/><rect class="cls-13" x="23.8" y="328.78" width="1.16" height="1"/><rect class="cls-13" x="-1.06" y="277.06" width="8.65" height="1"/><rect class="cls-13" x="17.95" y="268.35" width="1.08" height="1"/><rect class="cls-13" x="20.66" y="281.33" width="1.55" height="1"/><rect class="cls-13" x="23.8" y="281.33" width="1.54" height="1"/><rect class="cls-13" x="0.46" y="246.62" width="2.01" height="1"/><rect class="cls-13" x="4.45" y="341.67" width="3.49" height="1"/><rect class="cls-13" x="17.95" y="333.17" width="3.49" height="1"/><rect class="cls-13" x="-0.39" y="341.67" width="1.08" height="1"/><rect class="cls-13" x="23.73" y="389.42" width="1.08" height="1"/><rect class="cls-13" x="17.95" y="389.42" width="4.57" height="1"/><rect class="cls-13" x="17.95" y="415.05" width="4.57" height="1"/><rect class="cls-13" x="2.71" y="402.29" width="3.49" height="1"/><rect class="cls-13" x="21.51" y="350.39" width="4.57" height="1"/><rect class="cls-13" x="15.94" y="372" width="2.01" height="1"/><rect class="cls-14" x="73.63" y="168.64" width="83.4" height="282.62"/><rect class="cls-15" x="152.95" y="168.64" width="4.08" height="282.62"/><path class="cls-16" d="M153,181.14v-.82h-7.34V168.63h-.82v11.69h-4.51V168.63h-.83v11.69H131V168.63h-.82v11.69h-4.51V168.63h-.83v11.69h-8.46V168.63h-.82v11.69H111V168.63h-.83v11.69h-8.46V168.63h-.82v11.69H96.42V168.63h-.83v11.69H87.13V168.63h-.82v11.69H81.8V168.63H81v11.69H73.63v.82H81v12.57H73.63v.83H81v12.57H73.63v.82H81V220.5H73.63v.83H81V233.9H73.63v.82H81V247.3H73.63v.82H81v12.57H73.63v.83H81v12.57H73.63v.82H81v12.58H73.63v.82H81v12.57H73.63v.82H81v12.58H73.63v.82H81v12.57H73.63v.83H81v12.57H73.63v.82H81v12.58H73.63v.82H81v12.57H73.63v.83H81v12.57H73.63v.82H81v12.57H73.63v.83H81v12.57H73.63v.82H81v12.58H73.63v.82H81v12.57H73.63v.83H81v15.58h.83V435.67h4.51v15.58h.82V435.67h8.46v15.58h.83V435.67h4.51v15.58h.82V435.67h8.46v15.58H111V435.67h4.51v15.58h.82V435.67h8.46v15.58h.83V435.67h4.51v15.58H131V435.67h8.46v15.58h.83V435.67h4.51v15.58h.82V435.67H153v-.83h-7.34V422.27H153v-.82h-7.34V408.87H153v-.82h-7.34V395.48H153v-.83h-7.34V382.08H153v-.82h-7.34V368.69H153v-.83h-7.34V355.29H153v-.82h-7.34V341.89H153v-.82h-7.34V328.5H153v-.83h-7.34V315.1H153v-.82h-7.34V301.7H153v-.82h-7.34V288.31H153v-.82h-7.34V274.91H153v-.82h-7.34V261.52H153v-.83h-7.34V248.12H153v-.82h-7.34V234.72H153v-.82h-7.34V221.33H153v-.83h-7.34V207.93H153v-.82h-7.34V194.54H153v-.83h-7.34V181.14Zm-13.5,0v12.57H131V181.14ZM111,367.86V355.29h4.51v12.57Zm4.51.83v12.57H111V368.69ZM111,354.47V341.89h4.51v12.58Zm0-13.4V328.5h4.51v12.57Zm0-13.4V315.1h4.51v12.57Zm0-13.39V301.7h4.51v12.58Zm0-13.4V288.31h4.51v12.57Zm0-13.39V274.91h4.51v12.58Zm0-13.4V261.52h4.51v12.57Zm0-13.4V248.12h4.51v12.57Zm0-13.39V234.72h4.51V247.3Zm0-13.4V221.33h4.51V233.9Zm-.83,0h-8.46V221.33h8.46Zm0,.82V247.3h-8.46V234.72Zm0,13.4v12.57h-8.46V248.12Zm0,13.4v12.57h-8.46V261.52Zm0,13.39v12.58h-8.46V274.91Zm0,13.4v12.57h-8.46V288.31Zm0,13.39v12.58h-8.46V301.7Zm0,13.4v12.57h-8.46V315.1Zm0,13.4v12.57h-8.46V328.5Zm0,13.39v12.58h-8.46V341.89Zm0,13.4v12.57h-8.46V355.29Zm0,13.4v12.57h-8.46V368.69Zm0,13.39v12.57h-8.46V382.08Zm.83,0h4.51v12.57H111Zm5.33,0h8.46v12.57h-8.46Zm0-.82V368.69h8.46v12.57Zm0-13.4V355.29h8.46v12.57Zm0-13.39V341.89h8.46v12.58Zm0-13.4V328.5h8.46v12.57Zm0-13.4V315.1h8.46v12.57Zm0-13.39V301.7h8.46v12.58Zm0-13.4V288.31h8.46v12.57Zm0-13.39V274.91h8.46v12.58Zm0-13.4V261.52h8.46v12.57Zm0-13.4V248.12h8.46v12.57Zm0-13.39V234.72h8.46V247.3Zm0-13.4V221.33h8.46V233.9Zm0-13.4V207.93h8.46V220.5Zm-.82,0H111V207.93h4.51Zm-5.34,0h-8.46V207.93h8.46Zm-9.28,0H96.42V207.93h4.51Zm0,.83V233.9H96.42V221.33Zm0,13.39V247.3H96.42V234.72Zm0,13.4v12.57H96.42V248.12Zm0,13.4v12.57H96.42V261.52Zm0,13.39v12.58H96.42V274.91Zm0,13.4v12.57H96.42V288.31Zm0,13.39v12.58H96.42V301.7Zm0,13.4v12.57H96.42V315.1Zm0,13.4v12.57H96.42V328.5Zm0,13.39v12.58H96.42V341.89Zm0,13.4v12.57H96.42V355.29Zm0,13.4v12.57H96.42V368.69Zm0,13.39v12.57H96.42V382.08Zm0,13.4v12.57H96.42V395.48Zm.82,0h8.46v12.57h-8.46Zm9.29,0h4.51v12.57H111Zm5.33,0h8.46v12.57h-8.46Zm9.29,0h4.51v12.57h-4.51Zm0-.83V382.08h4.51v12.57Zm0-13.39V368.69h4.51v12.57Zm0-13.4V355.29h4.51v12.57Zm0-13.39V341.89h4.51v12.58Zm0-13.4V328.5h4.51v12.57Zm0-13.4V315.1h4.51v12.57Zm0-13.39V301.7h4.51v12.58Zm0-13.4V288.31h4.51v12.57Zm0-13.39V274.91h4.51v12.58Zm0-13.4V261.52h4.51v12.57Zm0-13.4V248.12h4.51v12.57Zm0-13.39V234.72h4.51V247.3Zm0-13.4V221.33h4.51V233.9Zm0-13.4V207.93h4.51V220.5Zm0-13.39V194.54h4.51v12.57Zm-.83,0h-8.46V194.54h8.46Zm-9.28,0H111V194.54h4.51Zm-5.34,0h-8.46V194.54h8.46Zm-9.28,0H96.42V194.54h4.51Zm-5.34,0H87.13V194.54h8.46Zm0,.82V220.5H87.13V207.93Zm0,13.4V233.9H87.13V221.33Zm0,13.39V247.3H87.13V234.72Zm0,13.4v12.57H87.13V248.12Zm0,13.4v12.57H87.13V261.52Zm0,13.39v12.58H87.13V274.91Zm0,13.4v12.57H87.13V288.31Zm0,13.39v12.58H87.13V301.7Zm0,13.4v12.57H87.13V315.1Zm0,13.4v12.57H87.13V328.5Zm0,13.39v12.58H87.13V341.89Zm0,13.4v12.57H87.13V355.29Zm0,13.4v12.57H87.13V368.69Zm0,13.39v12.57H87.13V382.08Zm0,13.4v12.57H87.13V395.48Zm0,13.39v12.58H87.13V408.87Zm.83,0h4.51v12.58H96.42Zm5.33,0h8.46v12.58h-8.46Zm9.29,0h4.51v12.58H111Zm5.33,0h8.46v12.58h-8.46Zm9.29,0h4.51v12.58h-4.51Zm5.33,0h8.46v12.58H131Zm0-.82V395.48h8.46v12.57Zm0-13.4V382.08h8.46v12.57Zm0-13.39V368.69h8.46v12.57Zm0-13.4V355.29h8.46v12.57Zm0-13.39V341.89h8.46v12.58Zm0-13.4V328.5h8.46v12.57Zm0-13.4V315.1h8.46v12.57Zm0-13.39V301.7h8.46v12.58Zm0-13.4V288.31h8.46v12.57Zm0-13.39V274.91h8.46v12.58Zm0-13.4V261.52h8.46v12.57Zm0-13.4V248.12h8.46v12.57Zm0-13.39V234.72h8.46V247.3Zm0-13.4V221.33h8.46V233.9Zm0-13.4V207.93h8.46V220.5Zm0-13.39V194.54h8.46v12.57Zm-.82-26v12.57h-4.51V181.14Zm-5.34,0v12.57h-8.46V181.14Zm-9.28,0v12.57H111V181.14Zm-5.34,0v12.57h-8.46V181.14Zm-9.28,0v12.57H96.42V181.14Zm-5.34,0v12.57H87.13V181.14Zm-13.79,0h4.51v12.57H81.8Zm0,13.4h4.51v12.57H81.8Zm0,13.39h4.51V220.5H81.8Zm0,13.4h4.51V233.9H81.8Zm0,13.39h4.51V247.3H81.8Zm0,13.4h4.51v12.57H81.8Zm0,13.4h4.51v12.57H81.8Zm0,13.39h4.51v12.58H81.8Zm0,13.4h4.51v12.57H81.8Zm0,13.39h4.51v12.58H81.8Zm0,13.4h4.51v12.57H81.8Zm0,13.4h4.51v12.57H81.8Zm0,13.39h4.51v12.58H81.8Zm0,13.4h4.51v12.57H81.8Zm0,13.4h4.51v12.57H81.8Zm0,13.39h4.51v12.57H81.8Zm0,13.4h4.51v12.57H81.8Zm0,13.39h4.51v12.58H81.8Zm0,26V422.27h4.51v12.57Zm5.33,0V422.27h8.46v12.57Zm9.29,0V422.27h4.51v12.57Zm5.33,0V422.27h8.46v12.57Zm9.29,0V422.27h4.51v12.57Zm5.33,0V422.27h8.46v12.57Zm9.29,0V422.27h4.51v12.57Zm5.33,0V422.27h8.46v12.57Zm13.8,0h-4.51V422.27h4.51Zm0-13.39h-4.51V408.87h4.51Zm0-13.4h-4.51V395.48h4.51Zm0-13.4h-4.51V382.08h4.51Zm0-13.39h-4.51V368.69h4.51Zm0-13.4h-4.51V355.29h4.51Zm0-13.39h-4.51V341.89h4.51Zm0-13.4h-4.51V328.5h4.51Zm0-13.4h-4.51V315.1h4.51Zm0-13.39h-4.51V301.7h4.51Zm0-13.4h-4.51V288.31h4.51Zm0-13.39h-4.51V274.91h4.51Zm0-13.4h-4.51V261.52h4.51Zm0-13.4h-4.51V248.12h4.51Zm0-13.39h-4.51V234.72h4.51Zm0-13.4h-4.51V221.33h4.51Zm0-13.4h-4.51V207.93h4.51Zm0-13.39h-4.51V194.54h4.51Zm0-13.4h-4.51V181.14h4.51Z"/><rect class="cls-17" x="104.32" y="182.81" width="3.63" height="1"/><rect class="cls-17" x="89.55" y="196.12" width="3.63" height="1"/><rect class="cls-17" x="118.93" y="182.81" width="1.67" height="1"/><rect class="cls-17" x="132.67" y="182.81" width="1.99" height="1"/><rect class="cls-17" x="132.67" y="196.12" width="1.99" height="1"/><rect class="cls-17" x="136.39" y="182.81" width="0.86" height="1"/><rect class="cls-17" x="103.71" y="223.09" width="4.24" height="1"/><rect class="cls-17" x="119.76" y="223.09" width="1.58" height="1"/><rect class="cls-17" x="127.22" y="223.09" width="0.95" height="1"/><rect class="cls-17" x="104.32" y="357.06" width="3.63" height="1"/><rect class="cls-17" x="89.55" y="370.37" width="3.63" height="1"/><rect class="cls-17" x="118.93" y="357.06" width="1.67" height="1"/><rect class="cls-17" x="132.67" y="357.06" width="1.99" height="1"/><rect class="cls-17" x="132.67" y="370.37" width="1.99" height="1"/><rect class="cls-17" x="136.39" y="357.06" width="0.86" height="1"/><rect class="cls-17" x="133.1" y="397.34" width="4.23" height="1"/><rect class="cls-17" x="89.24" y="424.33" width="4.23" height="1"/><rect class="cls-17" x="84.05" y="410.56" width="1.58" height="1"/><rect class="cls-17" x="127.22" y="397.34" width="0.95" height="1"/><rect class="cls-17" x="89.11" y="249.53" width="4.07" height="1"/><rect class="cls-17" x="118.75" y="263.45" width="4.67" height="1"/><rect class="cls-17" x="132.76" y="289.64" width="4.84" height="1"/><rect class="cls-17" x="141.31" y="289.64" width="1.99" height="1"/><rect class="cls-17" x="91.96" y="289.64" width="1.73" height="1"/><rect class="cls-17" x="89.11" y="289.64" width="1.21" height="1"/><rect class="cls-17" x="83.4" y="316.69" width="1.64" height="1"/><rect class="cls-17" x="88.5" y="316.69" width="5.19" height="1"/><rect class="cls-17" x="106.39" y="316.69" width="1.73" height="1"/><rect class="cls-17" x="134.57" y="316.69" width="1.81" height="1"/><rect class="cls-17" x="147.71" y="316.69" width="1.64" height="1"/><rect class="cls-17" x="103.54" y="330.17" width="4.93" height="1"/><rect class="cls-18" x="73.63" y="267.15" width="32.2" height="184.1"/><rect class="cls-19" x="202.96" y="139.32" width="75.89" height="311.94"/><path class="cls-20" d="M271.49,146.23H244.77v-1.88h26.72Zm0,3.63H244.77v1.88h26.72Zm0,5.51H244.77v1.88h26.72Zm0,5.51H244.77v1.87h26.72Zm0,5.51H244.77v1.87h26.72Zm0,5.5H244.77v1.88h26.72Zm0,5.51H244.77v1.88h26.72Zm0,5.51H244.77v1.88h26.72Zm0,5.51H244.77v1.88h26.72Zm0,5.51H244.77v1.87h26.72Zm0,5.51H244.77v1.87h26.72Zm0,5.5H244.77v1.88h26.72Zm0,5.51H244.77v1.88h26.72Zm0,5.51H244.77v1.88h26.72Zm0,5.51H244.77v1.88h26.72Zm0,5.51H244.77v1.87h26.72Zm0,5.51H244.77v1.87h26.72Zm0,5.5H244.77v1.88h26.72Zm0,5.51H244.77v1.88h26.72Zm0,5.51H244.77v1.88h26.72Zm0,5.51H244.77v1.88h26.72Zm0,5.51H244.77v1.87h26.72Zm0,5.51H244.77v1.87h26.72Zm0,5.5H244.77v1.88h26.72Zm0,5.51H244.77v1.88h26.72Zm0,5.51H244.77v1.88h26.72Zm0,5.51H244.77v1.88h26.72Zm0,5.51H244.77V295h26.72Zm0,5.51H244.77v1.87h26.72Zm0,5.51H244.77V306h26.72Zm0,5.5H244.77v1.88h26.72Zm0,5.51H244.77V317h26.72Zm0,5.51H244.77v1.88h26.72Zm0,5.51H244.77V328h26.72Zm0,5.51H244.77v1.87h26.72Zm0,5.51H244.77V339h26.72Zm0,5.5H244.77v1.88h26.72Zm0,5.51H244.77V350h26.72Zm0,5.51H244.77v1.88h26.72Zm0,5.51H244.77v1.88h26.72Zm0,5.51H244.77v1.87h26.72Zm0,5.51H244.77v1.87h26.72Zm0,5.5H244.77v1.88h26.72Zm0,5.51H244.77v1.88h26.72Zm0,5.51H244.77v1.88h26.72Zm0,5.51H244.77v1.88h26.72Zm0,5.51H244.77v1.87h26.72Zm0,5.51H244.77v1.87h26.72Zm0,5.5H244.77v1.88h26.72Zm0,5.51H244.77v1.88h26.72Zm0,5.51H244.77v1.88h26.72Zm0,5.51H244.77v1.88h26.72Zm0,5.51H244.77v1.87h26.72Zm0,5.51H244.77v1.87h26.72Zm0,5.5H244.77v1.88h26.72ZM236.84,144.35H210.13v1.88h26.71Zm0,5.51H210.13v1.88h26.71Zm0,5.51H210.13v1.88h26.71Zm0,5.51H210.13v1.87h26.71Zm0,5.51H210.13v1.87h26.71Zm0,5.5H210.13v1.88h26.71Zm0,5.51H210.13v1.88h26.71Zm0,5.51H210.13v1.88h26.71Zm0,5.51H210.13v1.88h26.71Zm0,5.51H210.13v1.87h26.71Zm0,5.51H210.13v1.87h26.71Zm0,5.5H210.13v1.88h26.71Zm0,5.51H210.13v1.88h26.71Zm0,5.51H210.13v1.88h26.71Zm0,5.51H210.13v1.88h26.71Zm0,5.51H210.13v1.87h26.71Zm0,5.51H210.13v1.87h26.71Zm0,5.5H210.13v1.88h26.71Zm0,5.51H210.13v1.88h26.71Zm0,5.51H210.13v1.88h26.71Zm0,5.51H210.13v1.88h26.71Zm0,5.51H210.13v1.87h26.71Zm0,5.51H210.13v1.87h26.71Zm0,5.5H210.13v1.88h26.71Zm0,5.51H210.13v1.88h26.71Zm0,5.51H210.13v1.88h26.71Zm0,5.51H210.13v1.88h26.71Zm0,5.51H210.13V295h26.71Zm0,5.51H210.13v1.87h26.71Zm0,5.51H210.13V306h26.71Zm0,5.5H210.13v1.88h26.71Zm0,5.51H210.13V317h26.71Zm0,5.51H210.13v1.88h26.71Zm0,5.51H210.13V328h26.71Zm0,5.51H210.13v1.87h26.71Zm0,5.51H210.13V339h26.71Zm0,5.5H210.13v1.88h26.71Zm0,5.51H210.13V350h26.71Zm0,5.51H210.13v1.88h26.71Zm0,5.51H210.13v1.88h26.71Zm0,5.51H210.13v1.87h26.71Zm0,5.51H210.13v1.87h26.71Zm0,5.5H210.13v1.88h26.71Zm0,5.51H210.13v1.88h26.71Zm0,5.51H210.13v1.88h26.71Zm0,5.51H210.13v1.88h26.71Zm0,5.51H210.13v1.87h26.71Zm0,5.51H210.13v1.87h26.71Zm0,5.5H210.13v1.88h26.71Zm0,5.51H210.13v1.88h26.71Zm0,5.51H210.13v1.88h26.71Zm0,5.51H210.13v1.88h26.71Zm0,5.51H210.13v1.87h26.71Zm0,5.51H210.13v1.87h26.71Zm0,5.5H210.13v1.88h26.71Z"/><rect class="cls-13" x="247.06" y="210.89" width="7.37" height="1"/><rect class="cls-13" x="261.57" y="210.89" width="2.32" height="1"/><rect class="cls-13" x="214.82" y="144.79" width="2.32" height="1"/><rect class="cls-13" x="266.45" y="210.89" width="1.32" height="1"/><rect class="cls-13" x="218.39" y="144.79" width="1.32" height="1"/><rect class="cls-13" x="218.6" y="332.08" width="2.32" height="1"/><rect class="cls-13" x="222.16" y="332.08" width="1.32" height="1"/><rect class="cls-13" x="252.16" y="321.06" width="7.17" height="1"/><rect class="cls-13" x="225.25" y="221.91" width="7.17" height="1"/><rect class="cls-13" x="243.78" y="144.79" width="2.15" height="1"/><rect class="cls-13" x="260.62" y="155.81" width="1.48" height="1"/><rect class="cls-13" x="252.1" y="155.81" width="5.32" height="1"/><rect class="cls-13" x="221.7" y="155.81" width="2.45" height="1"/><rect class="cls-13" x="228.55" y="194.37" width="5.69" height="1"/><rect class="cls-13" x="214.32" y="271.48" width="8.14" height="1"/><rect class="cls-13" x="226.61" y="166.82" width="2.33" height="1"/><rect class="cls-13" x="265.29" y="183.35" width="1.32" height="1"/><rect class="cls-13" x="265.29" y="238.43" width="2.33" height="1"/><rect class="cls-13" x="257.89" y="265.97" width="2.33" height="1"/><rect class="cls-13" x="228.24" y="260.47" width="2.32" height="1"/><rect class="cls-13" x="225.19" y="260.47" width="1.32" height="1"/><rect class="cls-13" x="264.63" y="254.96" width="1.32" height="1"/><rect class="cls-13" x="225.24" y="194.37" width="2.32" height="1"/><rect class="cls-13" x="257.48" y="227.42" width="2.33" height="1"/><rect class="cls-13" x="234.22" y="293.52" width="2.33" height="1"/><rect class="cls-13" x="254.43" y="227.42" width="1.32" height="1"/><rect class="cls-13" x="230.17" y="166.82" width="1.32" height="1"/><rect class="cls-13" x="254.43" y="196.2" width="1.32" height="1"/><rect class="cls-13" x="214.39" y="183.35" width="7.17" height="1"/><rect class="cls-13" x="247.06" y="265.97" width="7.17" height="1"/><rect class="cls-13" x="261.1" y="170.25" width="2.15" height="1"/><rect class="cls-13" x="217.68" y="376.14" width="7.37" height="1"/><rect class="cls-13" x="232.19" y="376.14" width="2.32" height="1"/><rect class="cls-13" x="237.08" y="376.14" width="1.32" height="1"/><rect class="cls-13" x="252.16" y="442.24" width="7.17" height="1"/><rect class="cls-13" x="214.4" y="310.04" width="2.15" height="1"/><rect class="cls-13" x="231.24" y="321.06" width="1.48" height="1"/><rect class="cls-13" x="222.72" y="321.06" width="5.31" height="1"/><rect class="cls-13" x="235.91" y="403.68" width="2.32" height="1"/><rect class="cls-13" x="228.51" y="431.23" width="2.33" height="1"/><rect class="cls-13" x="235.25" y="420.21" width="1.32" height="1"/><rect class="cls-13" x="228.1" y="392.67" width="2.33" height="1"/><rect class="cls-13" x="225.05" y="392.67" width="1.32" height="1"/><rect class="cls-13" x="225.05" y="361.45" width="1.32" height="1"/><rect class="cls-13" x="217.68" y="431.23" width="7.17" height="1"/><rect class="cls-13" x="231.72" y="335.51" width="2.15" height="1"/><rect class="cls-13" x="226.4" y="238.43" width="1.48" height="1"/><rect class="cls-13" x="217.88" y="238.43" width="5.32" height="1"/><rect class="cls-13" x="214.16" y="205.38" width="5.31" height="1"/><rect class="cls-13" x="226.75" y="293.52" width="5.31" height="1"/><rect class="cls-13" x="230.17" y="238.43" width="2.45" height="1"/><rect class="cls-13" x="252.73" y="332.08" width="2.33" height="1"/><rect class="cls-13" x="256.29" y="332.08" width="1.32" height="1"/><rect class="cls-13" x="263.16" y="409.19" width="7.17" height="1"/><rect class="cls-13" x="259.61" y="343.09" width="2.45" height="1"/><rect class="cls-13" x="262.3" y="381.65" width="5.69" height="1"/><rect class="cls-13" x="256.7" y="359.62" width="2.32" height="1"/><rect class="cls-13" x="253.65" y="359.62" width="1.32" height="1"/><rect class="cls-13" x="258.99" y="381.65" width="2.32" height="1"/><rect class="cls-13" x="260.27" y="359.62" width="1.32" height="1"/><rect class="cls-13" x="252.3" y="370.63" width="7.17" height="1"/><rect class="cls-13" x="264.31" y="425.72" width="1.48" height="1"/><rect class="cls-13" x="255.79" y="425.72" width="5.31" height="1"/><rect class="cls-13" x="252.07" y="392.67" width="5.31" height="1"/><rect class="cls-13" x="213.84" y="409.19" width="2.45" height="1"/><rect class="cls-21" x="240.9" y="195.8" width="37.95" height="255.45"/><rect class="cls-22" x="414.45" y="188.12" width="54.99" height="263.14"/><rect class="cls-23" x="414.45" y="188.12" width="12.51" height="263.14"/><rect class="cls-24" x="448.03" y="253.52" width="21.41" height="197.73"/><path class="cls-25" d="M469.38,331.76H427v-3.15h42.42Zm0,7.11H427v-3.15h42.42Zm0,7.11H427v-3.14h42.42Zm0,7.12H427V350h42.42Zm0,7.11H427v-3.15h42.42Zm0,7.11H427v-3.15h42.42Zm0,7.11H427v-3.15h42.42Zm0,7.11H427V378.4h42.42Zm0,7.12H427v-3.15h42.42Zm0,7.11H427v-3.15h42.42Zm0,7.11H427v-3.15h42.42Zm0,7.11H427v-3.15h42.42Zm0,7.11H427V414h42.42Zm0,7.11H427v-3.14h42.42Zm0,7.12H427v-3.15h42.42Zm0,7.11H427v-3.15h42.42Zm0,7.11H427V442.4h42.42Zm0-124H427v3.15h42.42Zm0-7.11H427v3.15h42.42Zm0-7.11H427v3.15h42.42Zm0-7.11H427v3.14h42.42Zm0-7.12H427v3.15h42.42Zm0-7.11H427v3.15h42.42Zm0-7.11H427V282h42.42Zm0-7.11H427v3.15h42.42Zm0-7.11H427v3.15h42.42Zm0-7.11H427v3.14h42.42Zm0-7.12H427v3.15h42.42Zm0-7.11H427v3.15h42.42Zm0-7.11H427v3.15h42.42Zm0-7.11H427v3.15h42.42Zm0-7.11H427v3.14h42.42Zm0-7.12H427V218h42.42Zm0-7.11H427v3.15h42.42Zm0-7.11H427v3.15h42.42Zm0-7.11H427v3.15h42.42Z"/><rect class="cls-17" x="461.87" y="308.35" width="4.3" height="1"/><rect class="cls-17" x="454.69" y="194.55" width="4.09" height="1"/><rect class="cls-17" x="436.14" y="194.55" width="4.71" height="1"/><rect class="cls-17" x="452.04" y="194.55" width="0.9" height="1"/><rect class="cls-17" x="434.39" y="194.55" width="0.9" height="1"/><rect class="cls-17" x="459.27" y="287.02" width="1.59" height="1"/><rect class="cls-17" x="457.52" y="287.02" width="0.9" height="1"/><rect class="cls-17" x="458.08" y="329.69" width="4.89" height="1"/><rect class="cls-17" x="461.87" y="287.02" width="4.89" height="1"/><rect class="cls-17" x="452.65" y="329.69" width="1.47" height="1"/><rect class="cls-17" x="433.72" y="329.69" width="1.01" height="1"/><rect class="cls-17" x="436.91" y="329.69" width="3.63" height="1"/><rect class="cls-17" x="430.49" y="329.69" width="1.67" height="1"/><rect class="cls-17" x="461.37" y="244.35" width="3.88" height="1"/><rect class="cls-17" x="439.14" y="279.91" width="1.59" height="1"/><rect class="cls-17" x="446.86" y="272.79" width="1.59" height="1"/><rect class="cls-17" x="430.72" y="279.91" width="4.59" height="1"/><rect class="cls-17" x="436.49" y="279.91" width="0.9" height="1"/><rect class="cls-17" x="435.78" y="272.79" width="3.43" height="1"/><rect class="cls-17" x="445.27" y="244.35" width="1.59" height="1"/><rect class="cls-17" x="439.85" y="244.35" width="1.59" height="1"/><rect class="cls-17" x="433.6" y="215.9" width="1.59" height="1"/><rect class="cls-17" x="442.62" y="244.35" width="0.9" height="1"/><rect class="cls-17" x="461.39" y="208.79" width="1.59" height="1"/><rect class="cls-17" x="454.69" y="208.79" width="4.95" height="1"/><rect class="cls-17" x="445.96" y="301.24" width="6.7" height="1"/><rect class="cls-17" x="431.63" y="251.46" width="4.89" height="1"/><rect class="cls-17" x="450.94" y="272.79" width="4.89" height="1"/><rect class="cls-17" x="440.84" y="315.6" width="1.47" height="1"/><rect class="cls-17" x="461.18" y="258.57" width="1.01" height="1"/><rect class="cls-17" x="464.37" y="258.57" width="3.63" height="1"/><rect class="cls-17" x="428.91" y="294.13" width="3.63" height="1"/><rect class="cls-17" x="455.15" y="230.12" width="3.63" height="1"/><rect class="cls-17" x="457.94" y="258.57" width="1.67" height="1"/><rect class="cls-17" x="433.11" y="379.47" width="3.71" height="1"/><rect class="cls-17" x="456.6" y="343.91" width="1.52" height="1"/><rect class="cls-17" x="449.21" y="351.02" width="1.52" height="1"/><rect class="cls-17" x="461.78" y="343.91" width="4.39" height="1"/><rect class="cls-17" x="459.79" y="343.91" width="0.86" height="1"/><rect class="cls-17" x="458.04" y="351.02" width="3.29" height="1"/><rect class="cls-17" x="450.73" y="379.47" width="1.52" height="1"/><rect class="cls-17" x="455.91" y="379.47" width="1.52" height="1"/><rect class="cls-17" x="453.92" y="379.47" width="0.86" height="1"/><rect class="cls-17" x="460.62" y="372.36" width="4.68" height="1"/><rect class="cls-17" x="437.46" y="351.02" width="4.68" height="1"/><rect class="cls-17" x="436.05" y="365.25" width="0.96" height="1"/><rect class="cls-17" x="430.49" y="365.25" width="3.47" height="1"/><rect class="cls-17" x="438.51" y="365.25" width="1.6" height="1"/><rect class="cls-17" x="443.52" y="208.79" width="1.67" height="1"/><rect class="cls-26" x="313.07" y="219.15" width="77.7" height="232.11"/><rect class="cls-27" x="313.07" y="219.15" width="4.54" height="232.11"/><path class="cls-28" d="M313.07,225.74h77.7v.67h-77.7Zm0,10.89h77.7v.67h-77.7Zm0,10.88h77.7v.67h-77.7Zm0,10.89h77.7v.67h-77.7Zm0,10.88h77.7V270h-77.7Zm0,10.89h77.7v.66h-77.7Zm0,10.88h77.7v.67h-77.7Zm0,10.88h77.7v.67h-77.7Zm0,10.89h77.7v.67h-77.7Zm0,10.88h77.7v.67h-77.7Zm0,10.89h77.7v.67h-77.7Zm0,10.88h77.7v.67h-77.7Zm0,10.89h77.7V357h-77.7Zm0,10.88h77.7v.67h-77.7Zm0,10.88h77.7v.67h-77.7Zm0,10.89h77.7v.67h-77.7Zm0,10.88h77.7v.67h-77.7Zm0,10.89h77.7v.67h-77.7Zm0,10.88h77.7v.67h-77.7Zm0,10.89h77.7v.66h-77.7Zm0,10.88h77.7v.67h-77.7Z"/><rect class="cls-29" x="355.73" y="271.23" width="35.04" height="180.03"/><rect class="cls-30" x="317.61" y="236.63" width="14.27" height="55.01"/><rect class="cls-17" x="361.08" y="250.39" width="10.59" height="1"/><rect class="cls-17" x="356" y="360.56" width="2.16" height="1"/><rect class="cls-17" x="374.06" y="349.54" width="2.16" height="1"/><rect class="cls-17" x="377.83" y="349.54" width="1.23" height="1"/><rect class="cls-17" x="367.77" y="349.54" width="5.13" height="1"/><rect class="cls-17" x="362.25" y="271.99" width="2.16" height="1"/><rect class="cls-17" x="359.86" y="271.99" width="1.23" height="1"/><rect class="cls-17" x="369.14" y="228.2" width="6.68" height="1"/><rect class="cls-17" x="365.8" y="271.99" width="6.68" height="1"/><rect class="cls-17" x="353.22" y="228.2" width="2" height="1"/><rect class="cls-17" x="331.38" y="228.2" width="1.37" height="1"/><rect class="cls-17" x="335.74" y="228.2" width="4.95" height="1"/><rect class="cls-17" x="326.97" y="228.2" width="2.28" height="1"/><rect class="cls-17" x="365.13" y="309.78" width="5.29" height="1"/><rect class="cls-17" x="334.69" y="276.95" width="2.16" height="1"/><rect class="cls-17" x="349.31" y="283.92" width="2.16" height="1"/><rect class="cls-17" x="327.29" y="276.95" width="2.16" height="1"/><rect class="cls-17" x="331.07" y="276.95" width="1.23" height="1"/><rect class="cls-17" x="325.74" y="283.92" width="1.23" height="1"/><rect class="cls-17" x="347.15" y="309.78" width="2.16" height="1"/><rect class="cls-17" x="339.75" y="309.78" width="2.16" height="1"/><rect class="cls-17" x="331.22" y="339.64" width="2.16" height="1"/><rect class="cls-17" x="343.53" y="309.78" width="1.23" height="1"/><rect class="cls-17" x="348.08" y="255.06" width="1.23" height="1"/><rect class="cls-17" x="328.54" y="304.82" width="6.68" height="1"/><rect class="cls-17" x="350.88" y="283.92" width="6.68" height="1"/><rect class="cls-17" x="341.1" y="242" width="2" height="1"/><rect class="cls-17" x="364.86" y="297.85" width="1.37" height="1"/><rect class="cls-17" x="369.22" y="297.85" width="4.95" height="1"/><rect class="cls-17" x="324.82" y="263.02" width="4.95" height="1"/><rect class="cls-17" x="356.63" y="325.71" width="4.95" height="1"/><rect class="cls-17" x="360.44" y="297.85" width="2.28" height="1"/><rect class="cls-17" x="357.16" y="436.36" width="2.16" height="1"/><rect class="cls-17" x="346.1" y="427.36" width="3.95" height="1"/><rect class="cls-17" x="360.72" y="436.36" width="6.68" height="1"/><rect class="cls-17" x="379.07" y="263.02" width="5.29" height="1"/><rect class="cls-17" x="333.63" y="381.09" width="2.16" height="1"/><rect class="cls-17" x="329.57" y="405.92" width="1.23" height="1"/><rect class="cls-17" x="339.2" y="381.09" width="6.68" height="1"/><rect class="cls-17" x="365.13" y="405.69" width="5.29" height="1"/><rect class="cls-17" x="347.15" y="405.69" width="2.16" height="1"/><rect class="cls-17" x="339.75" y="405.69" width="2.16" height="1"/><rect class="cls-17" x="343.53" y="405.69" width="1.23" height="1"/><rect class="cls-17" x="377.3" y="424.78" width="6.68" height="1"/><rect class="cls-17" x="364.86" y="393.76" width="1.37" height="1"/><rect class="cls-17" x="369.22" y="393.76" width="4.95" height="1"/><rect class="cls-17" x="360.44" y="393.76" width="2.28" height="1"/><rect class="cls-31" x="123.52" y="268.73" width="61.1" height="182.53" transform="translate(308.15 719.98) rotate(180)"/><rect class="cls-32" x="178.31" y="268.73" width="6.31" height="182.53" transform="translate(362.94 719.98) rotate(180)"/><path class="cls-33" d="M184.63,274.44H123.52v-.53h61.11Zm0,8.56H123.52v-.53h61.11Zm0,8.56H123.52V291h61.11Zm0,8.56H123.52v-.53h61.11Zm0,8.56H123.52v-.53h61.11Zm0,8.56H123.52v-.53h61.11Zm0,8.56H123.52v-.53h61.11Zm0,8.56H123.52v-.53h61.11Zm0,8.56H123.52v-.53h61.11Zm0,8.55H123.52V351h61.11Zm0,8.56H123.52v-.52h61.11Zm0,8.56H123.52v-.52h61.11Zm0,8.56H123.52v-.52h61.11Zm0,8.56H123.52v-.52h61.11Zm0,8.56H123.52v-.52h61.11Zm0,8.56H123.52v-.53h61.11Zm0,8.56H123.52v-.53h61.11Zm0,8.56H123.52v-.53h61.11Zm0,8.56H123.52V428h61.11Zm0,8.56H123.52v-.53h61.11Zm0,8.56H123.52v-.53h61.11Z"/><rect class="cls-34" x="123.52" y="309.68" width="27.55" height="141.57" transform="translate(274.6 760.93) rotate(180)"/><rect class="cls-13" x="137.99" y="293.19" width="7.87" height="1"/><rect class="cls-13" x="148.02" y="379.82" width="1.61" height="1"/><rect class="cls-13" x="134.61" y="371.16" width="1.61" height="1"/><rect class="cls-13" x="132.49" y="371.16" width="0.91" height="1"/><rect class="cls-13" x="137.07" y="371.16" width="3.81" height="1"/><rect class="cls-13" x="143.38" y="310.17" width="1.61" height="1"/><rect class="cls-13" x="145.85" y="310.17" width="0.91" height="1"/><rect class="cls-13" x="134.91" y="275.74" width="4.96" height="1"/><rect class="cls-13" x="137.39" y="310.17" width="4.96" height="1"/><rect class="cls-13" x="150.21" y="275.74" width="1.49" height="1"/><rect class="cls-13" x="166.9" y="275.74" width="1.02" height="1"/><rect class="cls-13" x="161" y="275.74" width="3.68" height="1"/><rect class="cls-13" x="169.51" y="275.74" width="1.69" height="1"/><rect class="cls-13" x="138.92" y="339.89" width="3.93" height="1"/><rect class="cls-13" x="163.86" y="314.08" width="1.61" height="1"/><rect class="cls-13" x="152.99" y="319.56" width="1.61" height="1"/><rect class="cls-13" x="169.35" y="314.08" width="1.61" height="1"/><rect class="cls-13" x="167.24" y="314.08" width="0.91" height="1"/><rect class="cls-13" x="171.2" y="319.56" width="0.92" height="1"/><rect class="cls-13" x="154.6" y="339.89" width="1.61" height="1"/><rect class="cls-13" x="160.09" y="339.89" width="1.61" height="1"/><rect class="cls-13" x="166.43" y="363.38" width="1.61" height="1"/><rect class="cls-13" x="157.98" y="339.89" width="0.91" height="1"/><rect class="cls-13" x="154.6" y="296.86" width="0.92" height="1"/><rect class="cls-13" x="165.08" y="335.99" width="4.96" height="1"/><rect class="cls-13" x="148.47" y="319.56" width="4.96" height="1"/><rect class="cls-13" x="159.22" y="286.59" width="1.49" height="1"/><rect class="cls-13" x="142.03" y="330.51" width="1.02" height="1"/><rect class="cls-13" x="136.14" y="330.51" width="3.68" height="1"/><rect class="cls-13" x="169.12" y="303.12" width="3.68" height="1"/><rect class="cls-13" x="145.48" y="352.42" width="3.68" height="1"/><rect class="cls-13" x="144.64" y="330.51" width="1.69" height="1"/><rect class="cls-13" x="147.16" y="439.44" width="1.61" height="1"/><rect class="cls-13" x="154.05" y="432.36" width="2.94" height="1"/><rect class="cls-13" x="141.17" y="439.44" width="4.96" height="1"/><rect class="cls-13" x="128.56" y="303.12" width="3.93" height="1"/><rect class="cls-13" x="164.64" y="395.97" width="1.61" height="1"/><rect class="cls-13" x="168.35" y="415.5" width="0.91" height="1"/><rect class="cls-13" x="157.15" y="395.97" width="4.96" height="1"/><rect class="cls-13" x="138.92" y="415.32" width="3.93" height="1"/><rect class="cls-13" x="154.6" y="415.32" width="1.61" height="1"/><rect class="cls-13" x="160.09" y="415.32" width="1.61" height="1"/><rect class="cls-13" x="157.98" y="415.32" width="0.91" height="1"/><rect class="cls-13" x="128.85" y="430.33" width="4.96" height="1"/><rect class="cls-13" x="142.03" y="405.94" width="1.02" height="1"/><rect class="cls-13" x="136.14" y="405.94" width="3.68" height="1"/><rect class="cls-13" x="144.64" y="405.94" width="1.69" height="1"/><rect class="cls-35" x="-3.75" y="272.92" width="101.85" height="30.36"/><rect class="cls-36" x="-3.75" y="303.28" width="101.85" height="147.97" transform="translate(94.36 754.53) rotate(180)"/><rect class="cls-37" x="85.63" y="303.28" width="12.48" height="147.97" transform="translate(183.74 754.53) rotate(180)"/><path class="cls-16" d="M98.11,307.91H-3.75v-.42H98.11Zm0,6.94H-3.75v-.43H98.11Zm0,6.94H-3.75v-.43H98.11Zm0,6.94H-3.75v-.43H98.11Zm0,6.94H-3.75v-.43H98.11Zm0,6.94H-3.75v-.43H98.11Zm0,6.94H-3.75v-.43H98.11Zm0,6.94H-3.75v-.43H98.11Zm0,6.93H-3.75V363H98.11Zm0,6.94H-3.75v-.42H98.11Zm0,6.94H-3.75v-.42H98.11Zm0,6.94H-3.75v-.43H98.11Zm0,6.94H-3.75v-.43H98.11Zm0,6.94H-3.75v-.43H98.11Zm0,6.94H-3.75v-.43H98.11Zm0,6.94H-3.75v-.43H98.11Zm0,6.94H-3.75v-.43H98.11Zm0,6.94H-3.75v-.43H98.11Zm0,6.93H-3.75v-.42H98.11Zm0,6.94H-3.75v-.42H98.11Zm0,6.94H-3.75v-.42H98.11Z"/><rect class="cls-38" x="-3.75" y="336.48" width="45.93" height="114.77" transform="translate(38.44 787.73) rotate(180)"/><rect class="cls-13" x="50.33" y="323.02" width="13.59" height="1"/><rect class="cls-13" x="43.8" y="393.25" width="2.78" height="1"/><rect class="cls-13" x="66.98" y="386.23" width="2.78" height="1"/><rect class="cls-13" x="71.83" y="386.23" width="1.58" height="1"/><rect class="cls-13" x="58.91" y="386.23" width="6.59" height="1"/><rect class="cls-13" x="51.82" y="336.79" width="2.78" height="1"/><rect class="cls-13" x="48.76" y="336.79" width="1.58" height="1"/><rect class="cls-13" x="60.67" y="308.87" width="8.57" height="1"/><rect class="cls-13" x="56.38" y="336.79" width="8.57" height="1"/><rect class="cls-13" x="40.24" y="308.87" width="2.57" height="1"/><rect class="cls-13" x="12.21" y="308.87" width="1.76" height="1"/><rect class="cls-13" x="17.8" y="308.87" width="6.35" height="1"/><rect class="cls-13" x="6.54" y="308.87" width="2.92" height="1"/><rect class="cls-13" x="55.52" y="360.88" width="6.79" height="1"/><rect class="cls-13" x="16.45" y="339.95" width="2.78" height="1"/><rect class="cls-13" x="35.22" y="344.39" width="2.78" height="1"/><rect class="cls-13" x="6.96" y="339.95" width="2.78" height="1"/><rect class="cls-13" x="11.81" y="339.95" width="1.58" height="1"/><rect class="cls-13" x="4.96" y="344.39" width="1.58" height="1"/><rect class="cls-13" x="32.44" y="360.88" width="2.78" height="1"/><rect class="cls-13" x="22.95" y="360.88" width="2.78" height="1"/><rect class="cls-13" x="12" y="379.92" width="2.78" height="1"/><rect class="cls-13" x="27.8" y="360.88" width="1.58" height="1"/><rect class="cls-13" x="33.64" y="325.99" width="1.58" height="1"/><rect class="cls-13" x="8.55" y="357.71" width="8.57" height="1"/><rect class="cls-13" x="37.24" y="344.39" width="8.57" height="1"/><rect class="cls-13" x="24.67" y="317.67" width="2.57" height="1"/><rect class="cls-13" x="55.17" y="353.27" width="1.76" height="1"/><rect class="cls-13" x="60.77" y="353.27" width="6.35" height="1"/><rect class="cls-13" x="3.78" y="331.07" width="6.35" height="1"/><rect class="cls-13" x="44.62" y="371.04" width="6.35" height="1"/><rect class="cls-13" x="49.51" y="353.27" width="2.92" height="1"/><rect class="cls-13" x="45.29" y="441.58" width="2.78" height="1"/><rect class="cls-13" x="31.1" y="435.84" width="5.07" height="1"/><rect class="cls-13" x="49.86" y="441.58" width="8.57" height="1"/><rect class="cls-13" x="73.41" y="331.07" width="6.79" height="1"/><rect class="cls-13" x="15.09" y="406.34" width="2.78" height="1"/><rect class="cls-13" x="9.88" y="422.17" width="1.58" height="1"/><rect class="cls-13" x="22.24" y="406.34" width="8.57" height="1"/><rect class="cls-13" x="55.52" y="422.03" width="6.79" height="1"/><rect class="cls-13" x="32.44" y="422.03" width="2.78" height="1"/><rect class="cls-13" x="22.95" y="422.03" width="2.78" height="1"/><rect class="cls-13" x="27.8" y="422.03" width="1.58" height="1"/><rect class="cls-13" x="71.14" y="434.19" width="8.57" height="1"/><rect class="cls-13" x="55.17" y="414.42" width="1.76" height="1"/><rect class="cls-13" x="60.77" y="414.42" width="6.35" height="1"/><rect class="cls-13" x="49.51" y="414.42" width="2.92" height="1"/><rect class="cls-39" x="444.7" y="292.96" width="50.77" height="158.29"/><rect class="cls-40" x="444.7" y="292.96" width="6.27" height="158.29"/><path class="cls-41" d="M491.15,296.47H475.49v-1h15.66Zm0,1.84H475.49v1h15.66Zm0,2.8H475.49v.95h15.66Zm0,2.79H475.49v1h15.66Zm0,2.8H475.49v.95h15.66Zm0,2.8H475.49v.95h15.66Zm0,2.79H475.49v.95h15.66Zm0,2.8H475.49v1h15.66Zm0,2.79H475.49v.95h15.66Zm0,2.8H475.49v.95h15.66Zm0,2.79H475.49v.95h15.66Zm0,2.8H475.49v1h15.66Zm0,2.79H475.49V330h15.66Zm0,2.8H475.49v.95h15.66Zm0,2.79H475.49v1h15.66Zm0,2.8H475.49v.95h15.66Zm0,2.79H475.49v.95h15.66Zm0,2.8H475.49V344h15.66Zm0,2.79H475.49v.95h15.66Zm0,2.8H475.49v.95h15.66Zm0,2.79H475.49v1h15.66Zm0,2.8H475.49v.95h15.66Zm0,2.79H475.49v1h15.66Zm0,2.8H475.49v.95h15.66Zm0,2.79H475.49v1h15.66Zm0,2.8H475.49v1h15.66Zm0,2.79H475.49v1h15.66Zm0,2.8H475.49v.95h15.66Zm0,2.79H475.49v1h15.66Zm0,2.8H475.49v.95h15.66Zm0,2.79H475.49v1h15.66Zm0,2.8H475.49v.95h15.66Zm0,2.79H475.49v1h15.66Zm0,2.8H475.49v.95h15.66Zm0,2.8H475.49v.95h15.66Zm0,2.79H475.49v.95h15.66Zm0,2.8H475.49v1h15.66Zm0,2.79H475.49v.95h15.66Zm0,2.8H475.49v.95h15.66Zm0,2.79H475.49v1h15.66Zm0,2.8H475.49v.95h15.66Zm0,2.79H475.49v.95h15.66Zm0,2.8H475.49v.95h15.66Zm0,2.79H475.49v1h15.66Zm0,2.8H475.49v.95h15.66Zm0,2.79H475.49v.95h15.66Zm0,2.8H475.49v.95h15.66Zm0,2.79H475.49v.95h15.66Zm0,2.8H475.49v.95h15.66Zm0,2.79H475.49v1h15.66Zm0,2.8H475.49v1h15.66Zm0,2.79H475.49v1h15.66Zm0,2.8H475.49v.95h15.66Zm0,2.79H475.49v1h15.66Zm0,2.8H475.49v1h15.66ZM470.84,295.52H455.18v1h15.66Zm0,2.79H455.18v1h15.66Zm0,2.8H455.18v.95h15.66Zm0,2.79H455.18v1h15.66Zm0,2.8H455.18v.95h15.66Zm0,2.8H455.18v.95h15.66Zm0,2.79H455.18v.95h15.66Zm0,2.8H455.18v1h15.66Zm0,2.79H455.18v.95h15.66Zm0,2.8H455.18v.95h15.66Zm0,2.79H455.18v.95h15.66Zm0,2.8H455.18v1h15.66Zm0,2.79H455.18V330h15.66Zm0,2.8H455.18v.95h15.66Zm0,2.79H455.18v1h15.66Zm0,2.8H455.18v.95h15.66Zm0,2.79H455.18v.95h15.66Zm0,2.8H455.18V344h15.66Zm0,2.79H455.18v.95h15.66Zm0,2.8H455.18v.95h15.66Zm0,2.79H455.18v1h15.66Zm0,2.8H455.18v.95h15.66Zm0,2.79H455.18v1h15.66Zm0,2.8H455.18v.95h15.66Zm0,2.79H455.18v1h15.66Zm0,2.8H455.18v1h15.66Zm0,2.79H455.18v1h15.66Zm0,2.8H455.18v.95h15.66Zm0,2.79H455.18v1h15.66Zm0,2.8H455.18v.95h15.66Zm0,2.79H455.18v1h15.66Zm0,2.8H455.18v.95h15.66Zm0,2.79H455.18v1h15.66Zm0,2.8H455.18v.95h15.66Zm0,2.8H455.18v.95h15.66Zm0,2.79H455.18v.95h15.66Zm0,2.8H455.18v1h15.66Zm0,2.79H455.18v.95h15.66Zm0,2.8H455.18v.95h15.66Zm0,2.79H455.18v1h15.66Zm0,2.8H455.18v.95h15.66Zm0,2.79H455.18v.95h15.66Zm0,2.8H455.18v.95h15.66Zm0,2.79H455.18v1h15.66Zm0,2.8H455.18v.95h15.66Zm0,2.79H455.18v.95h15.66Zm0,2.8H455.18v.95h15.66Zm0,2.79H455.18v.95h15.66Zm0,2.8H455.18v.95h15.66Zm0,2.79H455.18v1h15.66Zm0,2.8H455.18v1h15.66Zm0,2.79H455.18v1h15.66Zm0,2.8H455.18v.95h15.66Zm0,2.79H455.18v1h15.66Zm0,2.8H455.18v1h15.66Z"/><rect class="cls-13" x="476.83" y="329.04" width="4.32" height="1"/><rect class="cls-13" x="485.34" y="329.04" width="1.36" height="1"/><rect class="cls-13" x="457.93" y="295.5" width="1.36" height="1"/><rect class="cls-13" x="488.2" y="329.04" width="0.78" height="1"/><rect class="cls-13" x="460.02" y="295.5" width="0.78" height="1"/><rect class="cls-13" x="460.14" y="390.53" width="1.36" height="1"/><rect class="cls-13" x="462.23" y="390.53" width="0.78" height="1"/><rect class="cls-13" x="479.82" y="384.94" width="4.21" height="1"/><rect class="cls-13" x="464.04" y="334.63" width="4.21" height="1"/><rect class="cls-13" x="474.91" y="295.5" width="1.26" height="1"/><rect class="cls-13" x="484.78" y="301.09" width="0.87" height="1"/><rect class="cls-13" x="479.79" y="301.09" width="3.12" height="1"/><rect class="cls-13" x="461.96" y="301.09" width="1.43" height="1"/><rect class="cls-13" x="465.98" y="320.65" width="3.33" height="1"/><rect class="cls-13" x="457.63" y="359.78" width="4.77" height="1"/><rect class="cls-13" x="464.84" y="306.68" width="1.36" height="1"/><rect class="cls-13" x="487.52" y="315.06" width="0.78" height="1"/><rect class="cls-13" x="487.52" y="343.01" width="1.36" height="1"/><rect class="cls-13" x="483.18" y="356.99" width="1.36" height="1"/><rect class="cls-13" x="465.8" y="354.19" width="1.36" height="1"/><rect class="cls-13" x="464.01" y="354.19" width="0.78" height="1"/><rect class="cls-13" x="487.13" y="351.4" width="0.78" height="1"/><rect class="cls-13" x="464.04" y="320.65" width="1.36" height="1"/><rect class="cls-13" x="482.94" y="337.42" width="1.36" height="1"/><rect class="cls-13" x="469.3" y="370.96" width="1.36" height="1"/><rect class="cls-13" x="481.15" y="337.42" width="0.78" height="1"/><rect class="cls-13" x="466.93" y="306.68" width="0.78" height="1"/><rect class="cls-13" x="481.15" y="321.58" width="0.78" height="1"/><rect class="cls-13" x="457.68" y="315.06" width="4.21" height="1"/><rect class="cls-13" x="476.83" y="356.99" width="4.21" height="1"/><rect class="cls-13" x="485.07" y="308.42" width="1.26" height="1"/><rect class="cls-13" x="459.6" y="412.89" width="4.32" height="1"/><rect class="cls-13" x="468.11" y="412.89" width="1.36" height="1"/><rect class="cls-13" x="470.98" y="412.89" width="0.78" height="1"/><rect class="cls-13" x="479.82" y="446.43" width="4.21" height="1"/><rect class="cls-13" x="457.68" y="379.35" width="1.26" height="1"/><rect class="cls-13" x="467.56" y="384.94" width="0.87" height="1"/><rect class="cls-13" x="462.56" y="384.94" width="3.12" height="1"/><rect class="cls-13" x="470.29" y="426.87" width="1.36" height="1"/><rect class="cls-13" x="465.96" y="440.84" width="1.36" height="1"/><rect class="cls-13" x="469.91" y="435.25" width="0.78" height="1"/><rect class="cls-13" x="465.72" y="421.28" width="1.36" height="1"/><rect class="cls-13" x="463.93" y="421.28" width="0.78" height="1"/><rect class="cls-13" x="463.93" y="405.44" width="0.78" height="1"/><rect class="cls-13" x="459.6" y="440.84" width="4.21" height="1"/><rect class="cls-13" x="467.84" y="392.27" width="1.26" height="1"/><rect class="cls-13" x="464.72" y="343.01" width="0.87" height="1"/><rect class="cls-13" x="459.72" y="343.01" width="3.12" height="1"/><rect class="cls-13" x="457.54" y="326.24" width="3.12" height="1"/><rect class="cls-13" x="464.92" y="370.96" width="3.12" height="1"/><rect class="cls-13" x="466.93" y="343.01" width="1.44" height="1"/><rect class="cls-13" x="480.15" y="390.53" width="1.36" height="1"/><rect class="cls-13" x="482.25" y="390.53" width="0.78" height="1"/><rect class="cls-13" x="486.27" y="429.66" width="4.21" height="1"/><rect class="cls-13" x="484.19" y="396.12" width="1.44" height="1"/><rect class="cls-13" x="485.77" y="415.69" width="3.33" height="1"/><rect class="cls-13" x="482.48" y="404.51" width="1.36" height="1"/><rect class="cls-13" x="480.69" y="404.51" width="0.78" height="1"/><rect class="cls-13" x="483.83" y="415.69" width="1.36" height="1"/><rect class="cls-13" x="484.57" y="404.51" width="0.78" height="1"/><rect class="cls-13" x="479.9" y="410.1" width="4.21" height="1"/><rect class="cls-13" x="486.94" y="438.05" width="0.87" height="1"/><rect class="cls-13" x="481.95" y="438.05" width="3.12" height="1"/><rect class="cls-13" x="479.77" y="421.28" width="3.12" height="1"/><rect class="cls-13" x="457.35" y="429.66" width="1.44" height="1"/><rect class="cls-42" x="473.22" y="321.63" width="22.25" height="129.63"/><rect class="cls-43" x="288.26" y="319.69" width="62.16" height="131.57"/><rect class="cls-44" x="288.26" y="319.69" width="4.19" height="131.57"/><path class="cls-45" d="M288.26,322.34h62.16v1H288.26Zm0,4.75h62.16v-1H288.26Zm0,3.74h62.16v-1H288.26Zm0,3.74h62.16v-1H288.26Zm0,3.74h62.16v-1H288.26Zm0,3.75h62.16v-1H288.26Zm0,3.74h62.16v-1H288.26Zm0,3.74h62.16v-1H288.26Zm0,3.74h62.16v-1H288.26Zm0,3.75h62.16v-1H288.26Zm0,3.74h62.16v-1H288.26Zm0,3.74h62.16v-1H288.26Zm0,3.74h62.16v-1H288.26Zm0,3.75h62.16v-1H288.26Zm0,3.74h62.16v-1H288.26Zm0,3.74h62.16v-1H288.26Zm0,3.74h62.16v-1H288.26Zm0,3.75h62.16v-1H288.26Zm0,3.74h62.16v-1H288.26Zm0,3.74h62.16v-1H288.26Zm0,3.74h62.16v-1H288.26Zm0,3.75h62.16v-1H288.26Zm0,3.74h62.16v-1H288.26Zm0,3.74h62.16v-1H288.26Zm0,3.74h62.16v-1H288.26Zm0,3.75h62.16v-1H288.26Zm0,3.74h62.16v-1H288.26Zm0,3.74h62.16v-1H288.26Zm0,3.74h62.16v-1H288.26Zm0,3.75h62.16v-1H288.26Zm0,3.74h62.16v-1H288.26Zm0,3.74h62.16v-1H288.26Zm0,3.74h62.16v-1H288.26Zm0,3.75h62.16v-1H288.26Z"/><rect class="cls-46" x="300.68" y="417.77" width="7.82" height="1"/><rect class="cls-46" x="310.66" y="417.77" width="1.6" height="1"/><rect class="cls-46" x="311.37" y="387.88" width="1.6" height="1"/><rect class="cls-46" x="314.02" y="417.77" width="0.91" height="1"/><rect class="cls-46" x="313.83" y="387.88" width="0.91" height="1"/><rect class="cls-46" x="313.03" y="346.68" width="1.6" height="1"/><rect class="cls-46" x="315.48" y="346.68" width="0.91" height="1"/><rect class="cls-46" x="307.07" y="346.68" width="4.93" height="1"/><rect class="cls-46" x="341.4" y="346.68" width="1.02" height="1"/><rect class="cls-46" x="335.31" y="324.11" width="3.65" height="1"/><rect class="cls-46" x="343.99" y="346.68" width="1.68" height="1"/><rect class="cls-46" x="335.2" y="380.17" width="3.91" height="1"/><rect class="cls-46" x="313.93" y="402.7" width="5.6" height="1"/><rect class="cls-46" x="299.18" y="324.11" width="3.25" height="1"/><rect class="cls-46" x="337.48" y="413.78" width="0.91" height="1"/><rect class="cls-46" x="297.18" y="440.11" width="3.52" height="1"/><rect class="cls-46" x="325.53" y="358.08" width="1.6" height="1"/><rect class="cls-46" x="316.92" y="440.11" width="2.89" height="1"/><rect class="cls-46" x="314.82" y="440.11" width="0.91" height="1"/><rect class="cls-46" x="343.63" y="358.08" width="0.91" height="1"/><rect class="cls-46" x="331.31" y="428.98" width="1.6" height="1"/><rect class="cls-46" x="336.77" y="428.98" width="1.6" height="1"/><rect class="cls-46" x="342.39" y="399.14" width="1.6" height="1"/><rect class="cls-46" x="334.67" y="428.98" width="0.91" height="1"/><rect class="cls-46" x="303.29" y="324.11" width="0.91" height="1"/><rect class="cls-46" x="327.13" y="335.28" width="0.91" height="1"/><rect class="cls-46" x="312.95" y="331.74" width="4.93" height="1"/><rect class="cls-46" x="318.09" y="358.08" width="4.93" height="1"/><rect class="cls-46" x="331.29" y="324.11" width="1.48" height="1"/><rect class="cls-46" x="317.99" y="372.97" width="3.65" height="1"/><rect class="cls-46" x="301.56" y="365.36" width="6.28" height="1"/><rect class="cls-47" x="158.68" y="359.51" width="36.07" height="91.75" transform="translate(353.43 810.76) rotate(180)"/><rect class="cls-48" x="192.32" y="359.51" width="2.43" height="91.75" transform="translate(387.07 810.76) rotate(180)"/><path class="cls-49" d="M194.75,362.06H158.68v-.7h36.07Zm0,1.91H158.68v.7h36.07Zm0,2.61H158.68v.7h36.07Zm0,2.61H158.68v.7h36.07Zm0,2.61H158.68v.7h36.07Zm0,2.61H158.68v.7h36.07Zm0,2.61H158.68v.7h36.07Zm0,2.61H158.68v.7h36.07Zm0,2.61H158.68v.7h36.07Zm0,2.61H158.68v.7h36.07Zm0,2.61H158.68v.7h36.07Zm0,2.61H158.68v.7h36.07Zm0,2.61H158.68v.7h36.07Zm0,2.61H158.68v.7h36.07Zm0,2.61H158.68v.69h36.07Zm0,2.6H158.68v.7h36.07Zm0,2.61H158.68v.7h36.07Zm0,2.61H158.68v.7h36.07Zm0,2.61H158.68v.7h36.07Zm0,2.61H158.68v.7h36.07Zm0,2.61H158.68v.7h36.07Zm0,2.61H158.68v.7h36.07Zm0,2.61H158.68v.7h36.07Zm0,2.61H158.68v.7h36.07Zm0,2.61H158.68v.7h36.07Zm0,2.61H158.68v.7h36.07Zm0,2.61H158.68v.7h36.07Zm0,2.61H158.68v.7h36.07Zm0,2.61H158.68v.7h36.07Zm0,2.61H158.68v.7h36.07Zm0,2.61H158.68v.7h36.07Zm0,2.61H158.68v.7h36.07Zm0,2.61H158.68v.7h36.07Zm0,2.61H158.68v.7h36.07Z"/><rect class="cls-46" x="183" y="427.75" width="4.54" height="1"/><rect class="cls-46" x="180.82" y="427.75" width="0.93" height="1"/><rect class="cls-46" x="180.41" y="406.91" width="0.93" height="1"/><rect class="cls-46" x="179.27" y="427.75" width="0.53" height="1"/><rect class="cls-46" x="179.38" y="406.91" width="0.53" height="1"/><rect class="cls-46" x="179.45" y="378.18" width="0.93" height="1"/><rect class="cls-46" x="178.43" y="378.18" width="0.53" height="1"/><rect class="cls-46" x="180.97" y="378.18" width="2.86" height="1"/><rect class="cls-46" x="163.32" y="378.18" width="0.59" height="1"/><rect class="cls-46" x="165.32" y="362.44" width="2.12" height="1"/><rect class="cls-46" x="161.43" y="378.18" width="0.98" height="1"/><rect class="cls-46" x="165.24" y="401.53" width="2.27" height="1"/><rect class="cls-46" x="176.61" y="417.25" width="3.25" height="1"/><rect class="cls-46" x="186.52" y="362.44" width="1.89" height="1"/><rect class="cls-46" x="165.66" y="424.97" width="0.53" height="1"/><rect class="cls-46" x="187.53" y="443.33" width="2.04" height="1"/><rect class="cls-46" x="172.19" y="386.13" width="0.93" height="1"/><rect class="cls-46" x="176.44" y="443.33" width="1.68" height="1"/><rect class="cls-46" x="178.81" y="443.33" width="0.53" height="1"/><rect class="cls-46" x="162.09" y="386.13" width="0.53" height="1"/><rect class="cls-46" x="168.84" y="435.57" width="0.93" height="1"/><rect class="cls-46" x="165.67" y="435.57" width="0.93" height="1"/><rect class="cls-46" x="162.41" y="414.76" width="0.93" height="1"/><rect class="cls-46" x="167.29" y="435.57" width="0.53" height="1"/><rect class="cls-46" x="185.5" y="362.44" width="0.53" height="1"/><rect class="cls-46" x="171.66" y="370.23" width="0.53" height="1"/><rect class="cls-46" x="177.56" y="367.76" width="2.86" height="1"/><rect class="cls-46" x="174.58" y="386.13" width="2.86" height="1"/><rect class="cls-46" x="168.92" y="362.44" width="0.86" height="1"/><rect class="cls-46" x="175.38" y="396.52" width="2.12" height="1"/><rect class="cls-46" x="183.39" y="391.21" width="3.64" height="1"/><rect class="cls-50" x="257.99" y="377.24" width="73.03" height="74.01"/><rect class="cls-51" x="257.99" y="377.24" width="7.32" height="74.01"/><path class="cls-16" d="M262.44,451.25h.49v-4.66h2.67v4.66h.48v-4.66h5v4.66h.49v-4.66h2.67v4.66h.49v-4.66h5v4.66h.48v-4.66h2.67v4.66h.49v-4.66h5v4.66h.5v-4.66h2.66v4.66h.5v-4.66h5v4.66h.5v-4.66h2.66v4.66h.5v-4.66h5v4.66h.49v-4.66h2.67v4.66h.48v-4.66h5v4.66h.49v-4.66h2.67v4.66H318v-4.66h5v4.66h.49v-4.66h2.67v4.66h.48v-4.66H331v-.36h-4.35v-5.45H331v-.36h-4.35V435H331v-.36h-4.35v-5.45H331v-.36h-4.35v-5.45H331V423h-4.35v-5.46H331v-.35h-4.35v-5.46H331v-.35h-4.35v-5.46H331v-.35h-4.35V400.1H331v-.36h-4.35v-5.45H331v-.36h-4.35v-5.45H331v-.36h-4.35v-5.45H331v-.36h-4.35v-5.07h-.48v5.07h-2.67v-5.07H323v5.07h-5v-5.07h-.49v5.07h-2.67v-5.07h-.49v5.07h-5v-5.07h-.48v5.07h-2.67v-5.07h-.49v5.07h-5v-5.07h-.5v5.07h-2.66v-5.07h-.5v5.07h-5v-5.07h-.5v5.07H288.9v-5.07h-.5v5.07h-5v-5.07h-.49v5.07h-2.67v-5.07h-.48v5.07h-5v-5.07h-.49v5.07h-2.67v-5.07h-.49v5.07h-5v-5.07h-.48v5.07h-2.67v-5.07h-.49v5.07h-4.35v.36h4.35v5.45h-4.35v.36h4.35v5.45h-4.35v.36h4.35v5.45h-4.35v.36h4.35v5.46h-4.35v.35h4.35v5.46h-4.35v.35h4.35v5.46h-4.35v.35h4.35V423h-4.35v.36h4.35v5.45h-4.35v.36h4.35v5.45h-4.35V435h4.35v5.45h-4.35v.36h4.35v5.45h-4.35v.36h4.35Zm61.08-68.58h2.67v5.45h-2.67Zm0,5.81h2.67v5.45h-2.67Zm0,5.81h2.67v5.45h-2.67Zm0,5.81h2.67v5.46h-2.67Zm0,5.81h2.67v5.46h-2.67Zm0,5.81h2.67v5.46h-2.67Zm0,5.81h2.67V423h-2.67Zm0,5.82h2.67v5.45h-2.67Zm0,5.81h2.67v5.45h-2.67Zm0,5.81h2.67v5.45h-2.67Zm0,5.81h2.67v5.45h-2.67ZM318,382.67h5v5.45h-5Zm0,5.81h5v5.45h-5Zm0,5.81h5v5.45h-5Zm0,5.81h5v5.46h-5Zm0,5.81h5v5.46h-5Zm0,5.81h5v5.46h-5Zm0,5.81h5V423h-5Zm0,5.82h5v5.45h-5Zm0,5.81h5v5.45h-5Zm0,5.81h5v5.45h-5Zm0,5.81h5v5.45h-5Zm-3.16-58.11h2.67v5.45h-2.67Zm0,5.81h2.67v5.45h-2.67Zm0,5.81h2.67v5.45h-2.67Zm0,5.81h2.67v5.46h-2.67Zm0,5.81h2.67v5.46h-2.67Zm0,5.81h2.67v5.46h-2.67Zm0,5.81h2.67V423h-2.67Zm0,5.82h2.67v5.45h-2.67Zm0,5.81h2.67v5.45h-2.67Zm0,5.81h2.67v5.45h-2.67Zm0,5.81h2.67v5.45h-2.67Zm-5.5-58.11h5v5.45h-5Zm0,5.81h5v5.45h-5Zm0,5.81h5v5.45h-5Zm0,5.81h5v5.46h-5Zm0,5.81h5v5.46h-5Zm0,5.81h5v5.46h-5Zm0,5.81h5V423h-5Zm0,5.82h5v5.45h-5Zm0,5.81h5v5.45h-5Zm0,5.81h5v5.45h-5Zm0,5.81h5v5.45h-5Zm-3.15-58.11h2.67v5.45h-2.67Zm0,5.81h2.67v5.45h-2.67Zm0,5.81h2.67v5.45h-2.67Zm0,5.81h2.67v5.46h-2.67Zm0,5.81h2.67v5.46h-2.67Zm0,5.81h2.67v5.46h-2.67Zm0,5.81h2.67V423h-2.67Zm0,5.82h2.67v5.45h-2.67Zm0,5.81h2.67v5.45h-2.67Zm0,5.81h2.67v5.45h-2.67Zm0,5.81h2.67v5.45h-2.67Zm-5.5-58.11h5v5.45h-5Zm0,5.81h5v5.45h-5Zm0,5.81h5v5.45h-5Zm0,5.81h5v5.46h-5Zm0,5.81h5v5.46h-5Zm0,5.81h5v5.46h-5Zm0,5.81h5V423h-5Zm0,5.82h5v5.45h-5Zm0,5.81h5v5.45h-5Zm0,5.81h5v5.45h-5Zm0,5.81h5v5.45h-5Zm-3.16-58.11h2.66v5.45h-2.66Zm0,5.81h2.66v5.45h-2.66Zm0,5.81h2.66v5.45h-2.66Zm0,5.81h2.66v5.46h-2.66Zm0,5.81h2.66v5.46h-2.66Zm0,5.81h2.66v5.46h-2.66Zm0,5.81h2.66V423h-2.66Zm0,5.82h2.66v5.45h-2.66Zm0,5.81h2.66v5.45h-2.66Zm0,5.81h2.66v5.45h-2.66Zm0,5.81h2.66v5.45h-2.66Zm-5.49-58.11h5v5.45h-5Zm0,5.81h5v5.45h-5Zm0,5.81h5v5.45h-5Zm0,5.81h5v5.46h-5Zm0,5.81h5v5.46h-5Zm0,5.81h5v5.46h-5Zm0,5.81h5V423h-5Zm0,5.82h5v5.45h-5Zm0,5.81h5v5.45h-5Zm0,5.81h5v5.45h-5Zm0,5.81h5v5.45h-5Zm-3.16-58.11h2.66v5.45H288.9Zm0,5.81h2.66v5.45H288.9Zm0,5.81h2.66v5.45H288.9Zm0,5.81h2.66v5.46H288.9Zm0,5.81h2.66v5.46H288.9Zm0,5.81h2.66v5.46H288.9Zm0,5.81h2.66V423H288.9Zm0,5.82h2.66v5.45H288.9Zm0,5.81h2.66v5.45H288.9Zm0,5.81h2.66v5.45H288.9Zm0,5.81h2.66v5.45H288.9Zm-5.51-58.11h5v5.45h-5Zm0,5.81h5v5.45h-5Zm0,5.81h5v5.45h-5Zm0,5.81h5v5.46h-5Zm0,5.81h5v5.46h-5Zm0,5.81h5v5.46h-5Zm0,5.81h5V423h-5Zm0,5.82h5v5.45h-5Zm0,5.81h5v5.45h-5Zm0,5.81h5v5.45h-5Zm0,5.81h5v5.45h-5Zm-3.16-58.11h2.67v5.45h-2.67Zm0,5.81h2.67v5.45h-2.67Zm0,5.81h2.67v5.45h-2.67Zm0,5.81h2.67v5.46h-2.67Zm0,5.81h2.67v5.46h-2.67Zm0,5.81h2.67v5.46h-2.67Zm0,5.81h2.67V423h-2.67Zm0,5.82h2.67v5.45h-2.67Zm0,5.81h2.67v5.45h-2.67Zm0,5.81h2.67v5.45h-2.67Zm0,5.81h2.67v5.45h-2.67Zm-5.49-58.11h5v5.45h-5Zm0,5.81h5v5.45h-5Zm0,5.81h5v5.45h-5Zm0,5.81h5v5.46h-5Zm0,5.81h5v5.46h-5Zm0,5.81h5v5.46h-5Zm0,5.81h5V423h-5Zm0,5.82h5v5.45h-5Zm0,5.81h5v5.45h-5Zm0,5.81h5v5.45h-5Zm0,5.81h5v5.45h-5Zm-3.16-58.11h2.67v5.45h-2.67Zm0,5.81h2.67v5.45h-2.67Zm0,5.81h2.67v5.45h-2.67Zm0,5.81h2.67v5.46h-2.67Zm0,5.81h2.67v5.46h-2.67Zm0,5.81h2.67v5.46h-2.67Zm0,5.81h2.67V423h-2.67Zm0,5.82h2.67v5.45h-2.67Zm0,5.81h2.67v5.45h-2.67Zm0,5.81h2.67v5.45h-2.67Zm0,5.81h2.67v5.45h-2.67Zm-5.5-58.11h5v5.45h-5Zm0,5.81h5v5.45h-5Zm0,5.81h5v5.45h-5Zm0,5.81h5v5.46h-5Zm0,5.81h5v5.46h-5Zm0,5.81h5v5.46h-5Zm0,5.81h5V423h-5Zm0,5.82h5v5.45h-5Zm0,5.81h5v5.45h-5Zm0,5.81h5v5.45h-5Zm0,5.81h5v5.45h-5Zm-3.15-58.11h2.67v5.45h-2.67Zm0,5.81h2.67v5.45h-2.67Zm0,5.81h2.67v5.45h-2.67Zm0,5.81h2.67v5.46h-2.67Zm0,5.81h2.67v5.46h-2.67Zm0,5.81h2.67v5.46h-2.67Zm0,5.81h2.67V423h-2.67Zm0,5.82h2.67v5.45h-2.67Zm0,5.81h2.67v5.45h-2.67Zm0,5.81h2.67v5.45h-2.67Zm0,5.81h2.67v5.45h-2.67Z"/><rect class="cls-52" x="284.73" y="383.11" width="2.15" height="1"/><rect class="cls-52" x="293.48" y="388.88" width="2.15" height="1"/><rect class="cls-52" x="277.24" y="383.11" width="0.99" height="1"/><rect class="cls-52" x="268.92" y="383.11" width="1.18" height="1"/><rect class="cls-52" x="268.92" y="388.88" width="1.18" height="1"/><rect class="cls-52" x="267.39" y="383.11" width="0.51" height="1"/><rect class="cls-52" x="284.73" y="400.58" width="2.51" height="1"/><rect class="cls-52" x="276.8" y="400.58" width="0.94" height="1"/><rect class="cls-52" x="272.76" y="400.58" width="0.56" height="1"/><rect class="cls-52" x="293.48" y="412.05" width="2.41" height="1"/><rect class="cls-52" x="275.57" y="418.09" width="2.76" height="1"/><rect class="cls-52" x="267.18" y="429.45" width="2.86" height="1"/><rect class="cls-52" x="293.17" y="429.45" width="1.02" height="1"/><rect class="cls-52" x="295.17" y="429.45" width="0.72" height="1"/><rect class="cls-52" x="298.29" y="441.18" width="0.97" height="1"/><rect class="cls-52" x="293.17" y="441.18" width="3.07" height="1"/><rect class="cls-52" x="284.63" y="441.18" width="1.02" height="1"/><rect class="cls-52" x="267.9" y="441.18" width="1.07" height="1"/><rect class="cls-52" x="284.42" y="447.03" width="2.92" height="1"/><rect class="cls-52" x="318.7" y="383.11" width="2.15" height="1"/><rect class="cls-52" x="311.21" y="383.11" width="0.99" height="1"/><rect class="cls-52" x="302.89" y="383.11" width="1.18" height="1"/><rect class="cls-52" x="302.89" y="388.88" width="1.18" height="1"/><rect class="cls-52" x="301.36" y="383.11" width="0.51" height="1"/><rect class="cls-52" x="318.7" y="400.58" width="2.51" height="1"/><rect class="cls-52" x="310.77" y="400.58" width="0.94" height="1"/><rect class="cls-52" x="306.73" y="400.58" width="0.56" height="1"/><rect class="cls-52" x="309.54" y="418.09" width="2.76" height="1"/><rect class="cls-52" x="301.15" y="429.45" width="2.87" height="1"/><rect class="cls-52" x="297.78" y="429.45" width="1.18" height="1"/><rect class="cls-52" x="318.68" y="429.45" width="1.02" height="1"/><rect class="cls-52" x="320.67" y="429.45" width="0.72" height="1"/><rect class="cls-52" x="318.6" y="441.18" width="1.02" height="1"/><rect class="cls-52" x="301.87" y="441.18" width="1.07" height="1"/><rect class="cls-52" x="294.19" y="441.18" width="0.97" height="1"/><rect class="cls-52" x="318.39" y="447.03" width="2.92" height="1"/><rect class="cls-53" x="285.98" y="397.02" width="45.04" height="54.24"/><rect class="cls-54" x="288.26" y="296.95" width="62.16" height="22.74"/><rect class="cls-55" x="350.88" y="284.42" width="85.17" height="166.83"/><rect class="cls-56" x="476.2" y="323.95" width="103.3" height="127.31"/><rect class="cls-57" x="-17.98" y="323.95" width="103.3" height="127.31"/><polygon class="cls-58" points="122.13 427.98 122.13 420.07 114.25 420.07 114.25 425.37 111.74 425.37 105.54 425.37 105.54 408.1 93.86 408.1 93.86 407.61 93.86 407.46 93.86 405.11 93.86 404.95 93.86 402.6 93.86 402.44 93.86 400.09 93.86 399.94 93.86 397.58 93.86 397.43 93.1 397.43 93.1 397.01 91.55 397.01 91.55 396.49 87.61 396.49 87.61 397.01 86.42 397.01 86.42 396.49 84.98 396.49 84.98 397.01 78.28 397.01 78.28 397.43 77.52 397.43 77.52 397.58 77.52 399.94 77.52 400.09 77.52 402.44 77.52 402.6 77.52 404.95 77.52 405.11 77.52 405.77 68.69 405.77 68.69 400.76 67.29 400.76 67.29 405.77 65.31 405.77 65.31 400.76 63.91 400.76 63.91 405.77 60.88 405.77 60.88 407.02 60.88 407.13 60.88 408.16 60.88 408.27 60.88 409.3 60.88 409.41 60.88 410.28 55.88 410.28 55.88 424.82 51.41 424.82 51.41 424.64 51.41 422.77 51.41 422.31 51.41 421.32 51.41 419.44 51.41 417.99 51.41 416.12 51.41 414.66 51.41 412.91 48.14 412.91 48.14 412.76 48.14 412.01 48.14 411.62 48.14 410.87 48.14 410.48 48.14 409.73 48.14 409.35 48.14 408.6 48.14 408.21 48.14 407.46 48.14 407.07 48.14 406.32 48.14 405.93 48.14 405.18 48.14 404.8 48.14 404.05 48.14 403.66 48.14 402.91 48.14 402.52 48.14 401.77 48.14 401.38 48.14 400.63 48.14 400.25 48.14 399.5 48.14 399.11 48.14 398.36 48.14 397.97 48.14 397.22 48.14 396.83 48.14 396.08 48.14 395.69 48.14 394.94 48.14 394.56 48.14 393.81 48.14 393.42 48.14 392.67 48.14 392.28 48.14 391.53 48.14 391.14 48.14 390.39 48.14 390.01 48.14 389.26 48.14 388.87 48.14 388.12 48.14 387.73 48.14 386.98 48.14 386.59 48.14 385.84 48.14 385.45 48.14 384.46 45.68 384.46 45.68 382.96 42.05 382.96 42.05 383.72 39.76 383.72 39.76 382.75 38.73 382.75 38.73 380.11 38.32 380.11 38.32 382.75 37.75 382.75 37.75 380.11 37.34 380.11 37.34 382.75 34.95 382.75 34.95 383.98 33.89 383.98 33.89 384.46 32.97 384.46 30.5 384.46 30.5 385.45 30.5 385.84 30.5 386.59 30.5 386.98 30.5 387.73 30.5 388.12 30.5 388.87 30.5 389.26 30.5 390.01 30.5 390.39 30.5 391.14 30.5 391.53 30.5 392.28 30.5 392.67 30.5 393.42 30.5 393.81 30.5 394.56 30.5 394.94 30.5 395.69 30.5 396.08 30.5 396.83 30.5 397.22 30.5 397.97 30.5 398.36 30.5 399.11 30.5 399.5 30.5 400.25 30.5 400.63 30.5 401.38 30.5 401.77 30.5 402.52 30.5 402.91 30.5 403.66 30.5 404.05 30.5 404.8 30.5 405.18 30.5 405.93 30.5 406.32 30.5 407.07 30.5 407.46 30.5 408.21 30.5 408.6 30.5 409.35 30.5 409.73 30.5 410.48 30.5 410.87 30.5 411.62 30.5 412.01 30.5 412.76 30.5 412.91 24.28 412.91 24.28 396.06 22.18 396.06 22.18 392.12 14.23 392.12 14.23 393.86 12.39 393.86 12.39 396.06 11.75 396.06 10.25 396.06 10.25 408.47 7.42 408.47 7.42 403.57 -1.25 403.57 -1.25 412.91 -3.08 412.91 -7.13 412.91 -7.13 399.57 -13.62 399.57 -13.62 385.09 -24.58 385.09 -24.58 379.59 -40.2 379.59 -40.2 375.85 -41.12 375.85 -41.12 379.59 -42.4 379.59 -42.4 375.85 -43.31 375.85 -43.31 379.59 -49.46 379.59 -49.46 384.53 -51.07 384.53 -51.07 385.09 -53.83 385.09 -53.83 386.95 -53.83 386.95 -53.83 387.11 -53.83 387.11 -53.83 388.63 -53.83 388.63 -53.83 388.8 -53.83 388.8 -53.83 390.32 -53.83 390.32 -53.83 390.48 -53.83 390.48 -53.83 392.01 -53.83 392.01 -53.83 392.17 -53.83 392.17 -53.83 393.69 -53.83 393.69 -53.83 393.86 -53.83 393.86 -53.83 395.38 -53.83 395.38 -53.83 395.54 -53.83 395.54 -53.83 397.07 -53.83 397.07 -53.83 397.23 -53.83 397.23 -53.83 398.76 -53.83 398.76 -53.83 398.92 -53.83 398.92 -53.83 400.44 -53.83 400.44 -53.83 400.61 -53.83 400.61 -53.83 402.13 -53.83 402.13 -53.83 402.29 -53.83 402.29 -53.83 403.82 -53.83 403.82 -53.83 403.98 -53.83 403.98 -53.83 405.5 -53.83 405.5 -53.83 405.67 -53.83 405.67 -53.83 407.19 -53.83 407.19 -53.83 407.35 -53.83 407.35 -53.83 408.88 -53.83 408.88 -53.83 409.04 -53.83 409.04 -53.83 410.57 -53.83 410.57 -53.83 410.73 -53.83 410.73 -53.83 412.25 -53.83 412.25 -53.83 412.42 -53.83 412.42 -53.83 413.94 -53.83 413.94 -53.83 414.1 -53.83 414.1 -53.83 415.63 -53.83 415.63 -53.83 415.79 -53.83 415.79 -53.83 416.73 -54.44 416.73 -54.44 414.3 -55.05 414.3 -55.05 413.19 -55.45 413.19 -55.45 414.3 -57.55 414.3 -57.55 415.6 -58.49 415.6 -58.49 416.73 -60.76 416.73 -60.76 415.7 -60.76 415.13 -60.76 413.58 -60.76 413.01 -60.76 411.46 -60.76 410.89 -60.76 409.34 -60.76 408.77 -60.76 407.22 -60.76 406.65 -60.76 405.11 -60.76 404.54 -60.76 402.99 -60.76 402.42 -60.76 400.87 -60.76 400.3 -60.76 398.75 -60.76 398.18 -60.76 396.63 -60.76 396.06 -60.76 394.51 -60.76 393.95 -60.76 392.4 -60.76 391.83 -60.76 390.28 -60.76 389.71 -60.76 388.16 -60.76 387.59 -60.76 386.04 -60.76 385.47 -60.76 383.92 -60.76 383.36 -60.76 382.36 -60.76 381.81 -60.76 381.24 -60.76 379.69 -60.76 379.12 -60.76 377.57 -60.76 377 -60.76 374.99 -68.88 374.99 -68.88 365.58 -74.58 365.58 -74.58 355.92 -75.01 355.92 -75.01 365.58 -76.66 365.58 -76.66 358.92 -77.8 358.92 -77.8 355.92 -78.27 355.92 -78.27 358.92 -82.81 358.92 -82.81 364.23 -83.94 364.23 -83.94 365.58 -88.79 365.58 -88.79 374.99 -92.58 374.99 -96.92 374.99 -96.92 387.62 -101.26 387.62 -101.26 384.02 -101.26 383.7 -101.26 378.8 -101.26 378.47 -101.26 373.57 -101.26 373.25 -101.26 368.34 -101.26 368.01 -101.26 363.11 -101.26 362.79 -101.26 357.88 -101.26 357.56 -101.26 352.65 -101.26 352.32 -101.26 347.42 -101.26 347.1 -101.26 342.19 -101.26 341.87 -102.84 341.87 -102.84 340.98 -116.83 340.98 -116.83 339.91 -119.83 339.91 -119.83 340.98 -122.32 340.98 -122.32 339.91 -130.53 339.91 -130.53 340.98 -133.76 340.98 -133.76 341.87 -135.34 341.87 -135.34 342.19 -135.34 347.1 -135.34 347.42 -135.34 352.32 -135.34 352.65 -135.34 357.56 -135.34 357.88 -135.34 362.79 -135.34 363.11 -135.34 368.01 -135.34 368.34 -135.34 373.25 -135.34 373.57 -135.34 378.47 -135.34 378.8 -135.34 383.7 -135.34 384.02 -135.34 388.93 -135.34 389.25 -135.34 394.16 -135.34 394.49 -135.34 399.39 -135.34 399.71 -135.34 404.62 -135.34 404.94 -135.34 409.85 -135.34 410.18 -135.34 415.08 -135.34 415.4 -135.34 420.31 -135.34 420.63 -135.34 425.54 -135.34 425.86 -135.34 430.77 -135.34 431.09 -135.34 436 -135.34 436.32 -135.34 441.23 -135.34 441.55 -135.34 446.46 -135.34 446.78 -135.34 451.25 114.25 451.25 117.01 451.25 133.88 451.25 133.88 427.98 122.13 427.98"/><polygon class="cls-59" points="377.87 427.98 377.87 420.07 385.75 420.07 385.75 425.37 388.26 425.37 394.46 425.37 394.46 408.1 406.14 408.1 406.14 407.61 406.14 407.46 406.14 405.11 406.14 404.95 406.14 402.6 406.14 402.44 406.14 400.09 406.14 399.94 406.14 397.58 406.14 397.43 406.9 397.43 406.9 397.01 408.45 397.01 408.45 396.49 412.39 396.49 412.39 397.01 413.58 397.01 413.58 396.49 415.01 396.49 415.01 397.01 421.72 397.01 421.72 397.43 422.48 397.43 422.48 397.58 422.48 399.94 422.48 400.09 422.48 402.44 422.48 402.6 422.48 404.95 422.48 405.11 422.48 405.77 431.31 405.77 431.31 400.76 432.71 400.76 432.71 405.77 434.69 405.77 434.69 400.76 436.09 400.76 436.09 405.77 439.12 405.77 439.12 407.02 439.12 407.13 439.12 408.16 439.12 408.27 439.12 409.3 439.12 409.41 439.12 410.28 444.12 410.28 444.12 424.82 448.59 424.82 448.59 424.64 448.59 422.77 448.59 422.31 448.59 421.32 448.59 419.44 448.59 417.99 448.59 416.12 448.59 414.66 448.59 412.91 451.86 412.91 451.86 412.76 451.86 412.01 451.86 411.62 451.86 410.87 451.86 410.48 451.86 409.73 451.86 409.35 451.86 408.6 451.86 408.21 451.86 407.46 451.86 407.07 451.86 406.32 451.86 405.93 451.86 405.18 451.86 404.8 451.86 404.05 451.86 403.66 451.86 402.91 451.86 402.52 451.86 401.77 451.86 401.38 451.86 400.63 451.86 400.25 451.86 399.5 451.86 399.11 451.86 398.36 451.86 397.97 451.86 397.22 451.86 396.83 451.86 396.08 451.86 395.69 451.86 394.94 451.86 394.56 451.86 393.81 451.86 393.42 451.86 392.67 451.86 392.28 451.86 391.53 451.86 391.14 451.86 390.39 451.86 390.01 451.86 389.26 451.86 388.87 451.86 388.12 451.86 387.73 451.86 386.98 451.86 386.59 451.86 385.84 451.86 385.45 451.86 384.46 454.32 384.46 454.32 382.96 457.94 382.96 457.94 383.72 460.24 383.72 460.24 382.75 461.27 382.75 461.27 380.11 461.68 380.11 461.68 382.75 462.25 382.75 462.25 380.11 462.65 380.11 462.65 382.75 465.05 382.75 465.05 383.98 466.11 383.98 466.11 384.46 467.03 384.46 469.5 384.46 469.5 385.45 469.5 385.84 469.5 386.59 469.5 386.98 469.5 387.73 469.5 388.12 469.5 388.87 469.5 389.26 469.5 390.01 469.5 390.39 469.5 391.14 469.5 391.53 469.5 392.28 469.5 392.67 469.5 393.42 469.5 393.81 469.5 394.56 469.5 394.94 469.5 395.69 469.5 396.08 469.5 396.83 469.5 397.22 469.5 397.97 469.5 398.36 469.5 399.11 469.5 399.5 469.5 400.25 469.5 400.63 469.5 401.38 469.5 401.77 469.5 402.52 469.5 402.91 469.5 403.66 469.5 404.05 469.5 404.8 469.5 405.18 469.5 405.93 469.5 406.32 469.5 407.07 469.5 407.46 469.5 408.21 469.5 408.6 469.5 409.35 469.5 409.73 469.5 410.48 469.5 410.87 469.5 411.62 469.5 412.01 469.5 412.76 469.5 412.91 475.72 412.91 475.72 396.06 477.82 396.06 477.82 392.12 485.77 392.12 485.77 393.86 487.61 393.86 487.61 396.06 488.25 396.06 489.75 396.06 489.75 408.47 492.58 408.47 492.58 403.57 501.25 403.57 501.25 412.91 503.08 412.91 507.13 412.91 507.13 399.57 513.62 399.57 513.62 385.09 524.58 385.09 524.58 379.59 540.2 379.59 540.2 375.85 541.12 375.85 541.12 379.59 542.4 379.59 542.4 375.85 543.31 375.85 543.31 379.59 549.46 379.59 549.46 384.53 551.07 384.53 551.07 385.09 553.83 385.09 553.83 386.95 553.83 386.95 553.83 387.11 553.83 387.11 553.83 388.63 553.83 388.63 553.83 388.8 553.83 388.8 553.83 390.32 553.83 390.32 553.83 390.48 553.83 390.48 553.83 392.01 553.83 392.01 553.83 392.17 553.83 392.17 553.83 393.69 553.83 393.69 553.83 393.86 553.83 393.86 553.83 395.38 553.83 395.38 553.83 395.54 553.83 395.54 553.83 397.07 553.83 397.07 553.83 397.23 553.83 397.23 553.83 398.76 553.83 398.76 553.83 398.92 553.83 398.92 553.83 400.44 553.83 400.44 553.83 400.61 553.83 400.61 553.83 402.13 553.83 402.13 553.83 402.29 553.83 402.29 553.83 403.82 553.83 403.82 553.83 403.98 553.83 403.98 553.83 405.5 553.83 405.5 553.83 405.67 553.83 405.67 553.83 407.19 553.83 407.19 553.83 407.35 553.83 407.35 553.83 408.88 553.83 408.88 553.83 409.04 553.83 409.04 553.83 410.57 553.83 410.57 553.83 410.73 553.83 410.73 553.83 412.25 553.83 412.25 553.83 412.42 553.83 412.42 553.83 413.94 553.83 413.94 553.83 414.1 553.83 414.1 553.83 415.63 553.83 415.63 553.83 415.79 553.83 415.79 553.83 416.73 554.44 416.73 554.44 414.3 555.05 414.3 555.05 413.19 555.45 413.19 555.45 414.3 557.55 414.3 557.55 415.6 558.49 415.6 558.49 416.73 560.76 416.73 560.76 415.7 560.76 415.13 560.76 413.58 560.76 413.01 560.76 411.46 560.76 410.89 560.76 409.34 560.76 408.77 560.76 407.22 560.76 406.65 560.76 405.11 560.76 404.54 560.76 402.99 560.76 402.42 560.76 400.87 560.76 400.3 560.76 398.75 560.76 398.18 560.76 396.63 560.76 396.06 560.76 394.51 560.76 393.95 560.76 392.4 560.76 391.83 560.76 390.28 560.76 389.71 560.76 388.16 560.76 387.59 560.76 386.04 560.76 385.47 560.76 383.92 560.76 383.36 560.76 382.36 560.76 381.81 560.76 381.24 560.76 379.69 560.76 379.12 560.76 377.57 560.76 377 560.76 374.99 568.88 374.99 568.88 365.58 574.58 365.58 574.58 355.92 575.01 355.92 575.01 365.58 576.66 365.58 576.66 358.92 577.8 358.92 577.8 355.92 578.27 355.92 578.27 358.92 582.81 358.92 582.81 364.23 583.94 364.23 583.94 365.58 588.79 365.58 588.79 374.99 592.58 374.99 596.92 374.99 596.92 387.62 601.26 387.62 601.26 384.02 601.26 383.7 601.26 378.8 601.26 378.47 601.26 373.57 601.26 373.25 601.26 368.34 601.26 368.01 601.26 363.11 601.26 362.79 601.26 357.88 601.26 357.56 601.26 352.65 601.26 352.32 601.26 347.42 601.26 347.1 601.26 342.19 601.26 341.87 602.84 341.87 602.84 340.98 616.83 340.98 616.83 339.91 619.83 339.91 619.83 340.98 622.32 340.98 622.32 339.91 630.53 339.91 630.53 340.98 633.76 340.98 633.76 341.87 635.34 341.87 635.34 342.19 635.34 347.1 635.34 347.42 635.34 352.32 635.34 352.65 635.34 357.56 635.34 357.88 635.34 362.79 635.34 363.11 635.34 368.01 635.34 368.34 635.34 373.25 635.34 373.57 635.34 378.47 635.34 378.8 635.34 383.7 635.34 384.02 635.34 388.93 635.34 389.25 635.34 394.16 635.34 394.49 635.34 399.39 635.34 399.71 635.34 404.62 635.34 404.94 635.34 409.85 635.34 410.18 635.34 415.08 635.34 415.4 635.34 420.31 635.34 420.63 635.34 425.54 635.34 425.86 635.34 430.77 635.34 431.09 635.34 436 635.34 436.32 635.34 441.23 635.34 441.55 635.34 446.46 635.34 446.78 635.34 451.25 385.75 451.25 382.99 451.25 366.12 451.25 366.12 427.98 377.87 427.98"/><rect class="cls-60" x="-143.8" y="445.5" width="787.6" height="64.03"/></g></g></g></svg>