<svg xmlns="http://www.w3.org/2000/svg" xmlns:xlink="http://www.w3.org/1999/xlink" viewBox="0 0 335.99 235.19"><defs><radialGradient id="Névtelen_színátmenet_26" cx="274.87" cy="33.9" r=".97" gradientUnits="userSpaceOnUse"><stop offset=".74" stop-color="#fff" stop-opacity=".8"/><stop offset=".95" stop-color="#fff" stop-opacity="0"/></radialGradient><radialGradient id="Névtelen_színátmenet_26-2" cx="251.95" cy="17.23" r=".97" xlink:href="#Névtelen_színátmenet_26"/><radialGradient id="Névtelen_színátmenet_26-3" cx="143.17" cy="29.94" r=".97" xlink:href="#Névtelen_színátmenet_26"/><radialGradient id="Névtelen_színátmenet_26-4" cx="317.94" cy="63.61" r=".97" xlink:href="#Névtelen_színátmenet_26"/><radialGradient id="Névtelen_színátmenet_26-5" cx="202.9" cy="46.19" r=".97" xlink:href="#Névtelen_színátmenet_26"/><radialGradient id="Névtelen_színátmenet_26-6" cx="61.15" cy="46.19" r=".97" xlink:href="#Névtelen_színátmenet_26"/><radialGradient id="Névtelen_színátmenet_26-7" cx="227.83" cy="28.95" r=".61" xlink:href="#Névtelen_színátmenet_26"/><radialGradient id="Névtelen_színátmenet_26-8" cx="107.52" cy="12.12" r=".61" xlink:href="#Névtelen_színátmenet_26"/><radialGradient id="Névtelen_színátmenet_26-9" cx="8.01" cy="45.78" r=".61" xlink:href="#Névtelen_színátmenet_26"/><radialGradient id="Névtelen_színátmenet_26-10" cx="330.32" cy="22.51" r=".61" xlink:href="#Névtelen_színátmenet_26"/><radialGradient id="Névtelen_színátmenet_26-11" cx="249.62" cy="69.05" r=".61" xlink:href="#Névtelen_színátmenet_26"/><radialGradient id="Névtelen_színátmenet_26-12" cx="281.3" cy="98.26" r=".61" xlink:href="#Névtelen_színátmenet_26"/><radialGradient id="Névtelen_színátmenet_26-13" cx="40.06" cy="51.7" r=".61" xlink:href="#Névtelen_színátmenet_26"/><radialGradient id="Névtelen_színátmenet_26-14" cx="250.97" cy="51.7" r=".61" xlink:href="#Névtelen_színátmenet_26"/><radialGradient id="Névtelen_színátmenet_26-15" cx="168.07" cy="11.72" r=".61" xlink:href="#Névtelen_színátmenet_26"/><radialGradient id="Névtelen_színátmenet_26-16" cx="317.8" cy="11.72" r=".61" xlink:href="#Névtelen_színátmenet_26"/><radialGradient id="Névtelen_színátmenet_26-17" cx="40.68" cy="20.53" r=".61" xlink:href="#Névtelen_színátmenet_26"/><radialGradient id="Névtelen_színátmenet_26-18" cx="179.31" cy="18.55" r=".61" xlink:href="#Névtelen_színátmenet_26"/><radialGradient id="Névtelen_színátmenet_451" cx="174.13" cy="-62.34" r="63.63" gradientTransform="rotate(-3.66 2901.635 123.726)" gradientUnits="userSpaceOnUse"><stop offset=".76" stop-color="#fff" stop-opacity=".96"/><stop offset=".95" stop-color="#fff" stop-opacity="0"/></radialGradient><radialGradient id="Névtelen_színátmenet_457" cx="167.5" cy="112.16" r="52.16" gradientUnits="userSpaceOnUse"><stop offset=".91" stop-color="#fff"/><stop offset="1" stop-color="#fff" stop-opacity="0"/></radialGradient><radialGradient id="Névtelen_színátmenet_26-19" cx="231.11" cy="-67.67" r="20.87" gradientTransform="matrix(1 -.06 .06 1.01 -.06 191.53)" xlink:href="#Névtelen_színátmenet_26"/><radialGradient id="Névtelen_színátmenet_26-20" cx="120.4" cy="-63.72" r="32.84" gradientTransform="matrix(1 -.06 .06 1.01 -.06 191.53)" xlink:href="#Névtelen_színátmenet_26"/><radialGradient id="Névtelen_színátmenet_31" cx="69.64" cy="-30.83" r="27.66" gradientTransform="matrix(1 -.06 .06 1.01 -.06 191.53)" gradientUnits="userSpaceOnUse"><stop offset=".85" stop-color="#fff" stop-opacity=".6"/><stop offset=".95" stop-color="#fff" stop-opacity="0"/></radialGradient><radialGradient id="Névtelen_színátmenet_26-21" cx="102.58" cy="-84.18" r="14.9" gradientTransform="matrix(1 -.06 .06 1.01 -.06 191.53)" xlink:href="#Névtelen_színátmenet_26"/><radialGradient id="Névtelen_színátmenet_31-2" cx="56.4" cy="-98.74" r="20.87" xlink:href="#Névtelen_színátmenet_31"/><radialGradient id="Névtelen_színátmenet_26-22" cx="239.19" cy="-7.19" r="28.38" gradientTransform="matrix(1 -.06 .06 1.01 -.06 191.53)" xlink:href="#Névtelen_színátmenet_26"/><radialGradient id="Névtelen_színátmenet_26-23" cx="136.94" cy="17.5" r="20.87" gradientTransform="matrix(1 -.06 .06 1.01 -.06 191.53)" xlink:href="#Névtelen_színátmenet_26"/><radialGradient id="Névtelen_színátmenet_26-24" cx="118.62" cy="-111.2" r="20.87" gradientTransform="matrix(1 -.06 .06 1.01 -.06 191.53)" xlink:href="#Névtelen_színátmenet_26"/><radialGradient id="Névtelen_színátmenet_26-25" cx="76.63" cy="-139.58" r="29.48" gradientTransform="matrix(1 -.06 .06 1.01 -.06 191.53)" xlink:href="#Névtelen_színátmenet_26"/><radialGradient id="Névtelen_színátmenet_26-26" cx="54.52" cy="-.23" r="20.87" gradientTransform="matrix(1 -.06 .06 1.01 -.06 191.53)" xlink:href="#Névtelen_színátmenet_26"/><radialGradient id="Névtelen_színátmenet_26-27" cx="144.86" cy="-106.53" r="20.87" gradientTransform="matrix(1 -.06 .06 1.01 -.06 191.53)" xlink:href="#Névtelen_színátmenet_26"/><radialGradient id="Névtelen_színátmenet_26-28" cx="262.34" cy="-92.14" r="20.87" gradientTransform="matrix(1 -.06 .06 1.01 -.06 191.53)" xlink:href="#Névtelen_színátmenet_26"/><radialGradient id="Névtelen_színátmenet_31-3" cx="291.14" cy="-125.27" r="27.02" xlink:href="#Névtelen_színátmenet_31"/><radialGradient id="Névtelen_színátmenet_26-29" cx="278.79" cy="-53.04" r="29.02" gradientTransform="matrix(1 -.06 .06 1.01 -.06 191.53)" xlink:href="#Névtelen_színátmenet_26"/><radialGradient id="Névtelen_színátmenet_26-30" cx="284.24" cy="20.5" r="20.87" gradientTransform="matrix(1 -.06 .06 1.01 -.06 191.53)" xlink:href="#Névtelen_színátmenet_26"/><radialGradient id="Névtelen_színátmenet_26-31" cx="35.97" cy="-37.31" r="20.87" gradientTransform="matrix(1 -.06 .06 1.01 -.06 191.53)" xlink:href="#Névtelen_színátmenet_26"/><linearGradient id="Névtelen_színátmenet_398" x1="168.04" y1="233.65" x2="168.04" y2="121.35" gradientTransform="matrix(1 0 0 -1 0 236.49)" gradientUnits="userSpaceOnUse"><stop offset="0" stop-color="#3383a4"/><stop offset=".51" stop-color="#a9cbdb"/><stop offset="1" stop-color="#f1f8f3"/></linearGradient><linearGradient id="Névtelen_színátmenet_397" x1="168.06" y1=".52" x2="168.06" y2="119.46" gradientTransform="matrix(1 0 0 -1 0 236.49)" gradientUnits="userSpaceOnUse"><stop offset="0" stop-color="#004d65"/><stop offset=".63" stop-color="#aacfe2"/><stop offset="1" stop-color="#c8d5c0"/></linearGradient><linearGradient id="Névtelen_színátmenet_411" x1="79.09" y1="235.23" x2="79.09" y2="182.84" gradientUnits="userSpaceOnUse"><stop offset=".56" stop-color="#141f29" stop-opacity="0"/><stop offset="1" stop-color="#141f29" stop-opacity=".2"/></linearGradient><linearGradient id="Névtelen_színátmenet_543" x1="865.16" y1="301.01" x2="1110.98" y2="212.06" gradientTransform="translate(-790.77 -117.16)" gradientUnits="userSpaceOnUse"><stop offset="0" stop-color="#fff" stop-opacity="0"/><stop offset="1" stop-color="#fff"/></linearGradient><linearGradient id="Névtelen_színátmenet_543-2" x1="928.77" y1="361.52" x2="1115.64" y2="293.9" xlink:href="#Névtelen_színátmenet_543"/><linearGradient id="Névtelen_színátmenet_543-3" x1="-598.86" y1="318.13" x2="-412.03" y2="250.53" gradientTransform="matrix(-1 0 0 1 -400.77 -117.16)" xlink:href="#Névtelen_színátmenet_543"/><linearGradient id="Névtelen_színátmenet_543-4" x1="947.54" y1="319.09" x2="1116.23" y2="258.05" xlink:href="#Névtelen_színátmenet_543"/><linearGradient id="Névtelen_színátmenet_543-5" x1="947.9" y1="323.42" x2="1116.69" y2="262.35" xlink:href="#Névtelen_színátmenet_543"/><linearGradient id="Névtelen_színátmenet_543-6" x1="810.31" y1="373.57" x2="1107.42" y2="266.06" xlink:href="#Névtelen_színátmenet_543"/><linearGradient id="Névtelen_színátmenet_358" x1="290.64" y1="163.81" x2="311.21" y2="128.17" gradientUnits="userSpaceOnUse"><stop offset=".2" stop-color="#141f29" stop-opacity="0"/><stop offset="1" stop-color="#141f29" stop-opacity=".6"/></linearGradient><linearGradient id="Névtelen_színátmenet_358-2" x1="123.41" y1="132.14" x2="123.41" y2="127.7" xlink:href="#Névtelen_színátmenet_358"/><linearGradient id="Névtelen_színátmenet_362" x1="216.66" y1="152.86" x2="216.66" y2="142.74" gradientUnits="userSpaceOnUse"><stop offset=".2" stop-color="#141f29" stop-opacity="0"/><stop offset="1" stop-color="#141f29" stop-opacity=".3"/></linearGradient><linearGradient id="Névtelen_színátmenet_359" x1="193.53" y1="158.91" x2="193.53" y2="126.72" gradientUnits="userSpaceOnUse"><stop offset=".2" stop-color="#141f29" stop-opacity="0"/><stop offset=".86" stop-color="#141f29" stop-opacity=".48"/><stop offset="1" stop-color="#141f29" stop-opacity=".6"/></linearGradient><linearGradient id="Névtelen_színátmenet_358-3" x1="123.61" y1="134.07" x2="123.61" y2="133.95" xlink:href="#Névtelen_színátmenet_358"/><linearGradient id="Névtelen_színátmenet_364" x1="37.07" y1="113.22" x2="69.22" y2="168.9" gradientUnits="userSpaceOnUse"><stop offset="0" stop-color="#141f29" stop-opacity=".6"/><stop offset="1" stop-color="#141f29" stop-opacity="0"/></linearGradient><linearGradient id="Névtelen_színátmenet_359-2" x1="290.04" y1="134.32" x2="290.04" y2="126.38" xlink:href="#Névtelen_színátmenet_359"/><linearGradient id="Névtelen_színátmenet_2" x1="89.64" y1="150.39" x2="31.84" y2="215.79" gradientUnits="userSpaceOnUse"><stop offset="0" stop-color="#335079"/><stop offset="1" stop-color="#004469"/></linearGradient><style>.cls-38,.cls-73{fill:#07293c}.cls-39,.cls-71{fill:#00507e}.cls-40{fill:#004168}.cls-41{fill:#0a3455}.cls-43{fill:#0d2c47}.cls-67{fill:#fff}.cls-68{fill:#b6cfd4}.cls-69{fill:#9f7464}.cls-71,.cls-73,.cls-74,.cls-76{fill-rule:evenodd}.cls-74{fill:#08203e}.cls-75{fill:#054e7b}.cls-76{fill:#0d3057}</style></defs><g style="isolation:isolate"><g id="Layer"><path fill="url(#Névtelen_színátmenet_398)" d="M.11-.03h335.86v117.45H.11z"/><path d="M274.87 32.91a1 1 0 000 2 1 1 0 000-2z" fill="url(#Névtelen_színátmenet_26)"/><path d="M252 16.25a1 1 0 000 2 1 1 0 000-2z" fill="url(#Névtelen_színátmenet_26-2)"/><path d="M143.17 29a1 1 0 000 2 1 1 0 000-2z" fill="url(#Névtelen_színátmenet_26-3)"/><path d="M317.94 62.62a1 1 0 000 2 1 1 0 000-2z" fill="url(#Névtelen_színátmenet_26-4)"/><path d="M202.9 45.2a1 1 0 000 2 1 1 0 000-2z" fill="url(#Névtelen_színátmenet_26-5)"/><path d="M61.15 45.2a1 1 0 000 2 1 1 0 000-2z" fill="url(#Névtelen_színátmenet_26-6)"/><path d="M227.83 28.33a.62.62 0 000 1.24.62.62 0 000-1.24z" fill="url(#Névtelen_színátmenet_26-7)"/><path d="M107.52 11.5a.62.62 0 000 1.23.62.62 0 000-1.23z" fill="url(#Névtelen_színátmenet_26-8)"/><path d="M8 45.16a.62.62 0 000 1.24.62.62 0 000-1.24z" fill="url(#Névtelen_színátmenet_26-9)"/><path d="M330.32 21.89a.62.62 0 000 1.24.62.62 0 000-1.24z" fill="url(#Névtelen_színátmenet_26-10)"/><path d="M249.62 68.43a.62.62 0 000 1.24.62.62 0 000-1.24z" fill="url(#Névtelen_színátmenet_26-11)"/><path d="M281.3 97.64a.62.62 0 000 1.24.62.62 0 000-1.24z" fill="url(#Névtelen_színátmenet_26-12)"/><path d="M40.06 51.09a.62.62 0 000 1.23.62.62 0 000-1.23z" fill="url(#Névtelen_színátmenet_26-13)"/><path d="M251 51.09a.62.62 0 000 1.23.62.62 0 000-1.23z" fill="url(#Névtelen_színátmenet_26-14)"/><path d="M168.07 11.1a.62.62 0 000 1.24.62.62 0 000-1.24z" fill="url(#Névtelen_színátmenet_26-15)"/><path d="M317.8 11.1a.62.62 0 000 1.24.62.62 0 000-1.24z" fill="url(#Névtelen_színátmenet_26-16)"/><path d="M40.68 19.91a.62.62 0 000 1.24.62.62 0 000-1.24z" fill="url(#Névtelen_színátmenet_26-17)"/><path d="M179.31 17.93a.62.62 0 000 1.24.62.62 0 000-1.24z" fill="url(#Névtelen_színátmenet_26-18)"/><path d="M326.08 65.69a10 10 0 00-1.68 9.59 5.4 5.4 0 00-2.9.93 5.86 5.86 0 00-1-1 4.27 4.27 0 00.24-1.18 4.15 4.15 0 00-6.35-3.7 4.15 4.15 0 00-2.59-1.24 6.17 6.17 0 00-.64-2.74 4.69 4.69 0 00-7.89-4.28 6.44 6.44 0 00-6.77-2.84 8.08 8.08 0 00-1.8-1.07 8.25 8.25 0 00-9.46 13 3 3 0 00-.67-.06 4.18 4.18 0 00-2.81 1.18 8 8 0 00-1.33-1.21 2.83 2.83 0 000-.41 4.68 4.68 0 00-8.34-2.85 4.65 4.65 0 00-7.51-4.29 4.68 4.68 0 00-1.73 3.57 4.64 4.64 0 00-4.28 4.14.53.53 0 00-.13 0 5.59 5.59 0 00-5.44 5.68 5.47 5.47 0 00.48 2.1 4.18 4.18 0 00-1.07-.14 4.27 4.27 0 00-3.71 2.33 6.47 6.47 0 00-8.84 6.13 6.44 6.44 0 001.46 4h-.43a6.9 6.9 0 00-6.9 6.9 6.53 6.53 0 00.26 1.83 6.92 6.92 0 00-5.28.11 6.83 6.83 0 00-1.39-3.33 6.91 6.91 0 00-9.7-1.22 6.8 6.8 0 00-.63.56 6.91 6.91 0 00-12.25 4.19l.45.63a4.75 4.75 0 00-3.15 1.34 6.46 6.46 0 00-6.76-2.84 8.12 8.12 0 00-1.81-1.06 8.24 8.24 0 00-9.45 13 3 3 0 00-.68-.06 4.16 4.16 0 00-2.81 1.18 7.66 7.66 0 00-1.33-1.21v-.41a4.7 4.7 0 00-4.78-4.61 4.65 4.65 0 00-3.57 1.76 4.58 4.58 0 00-1-3.56 4.64 4.64 0 00-8.27 2.84 4.64 4.64 0 00-4.28 4.13h-.14c-3.08.06-5.54 1.92-5.48 5v.1l183.85.25V65.46c-2.41-2.9-8.05-1.83-9.71.23zM130.68 107a6.63 6.63 0 00.3-2c0-4.21-4-7.63-8.86-7.63a10.23 10.23 0 00-1.77.15 7.14 7.14 0 00.27-1.86 6.7 6.7 0 00-6.49-6.9 6.28 6.28 0 00-4.72 2.2 12.33 12.33 0 00-21 .65 7.63 7.63 0 00-7.29-5.15 7.86 7.86 0 00-2.92.56 5.71 5.71 0 00.2-1.5 7 7 0 00-5-6.42 6.26 6.26 0 00.39-2.19 5.48 5.48 0 00-5.18-5.73 4.61 4.61 0 00-1.39.24v-.51c0-4.37-3-7.91-6.68-7.91a5.63 5.63 0 00-2.3.5 9.64 9.64 0 00-18.33-.73 8.1 8.1 0 00-6.13-2.63 9 9 0 00-3 .52 2.61 2.61 0 00.1-.69c0-1.75-1.71-3.17-3.81-3.17a4.6 4.6 0 00-1.13.16 2.85 2.85 0 00.11-.72 2.8 2.8 0 00-2.83-2.76h-.12a3.26 3.26 0 00-4.65-2.87 5.35 5.35 0 00-4.51-2.35 5.2 5.2 0 00-5 3.28 6.53 6.53 0 00-6.19 5 5.21 5.21 0 00-1.33-.19 5.05 5.05 0 00-1.89.37v59.47H126c8.66-2.77 7.57-7.3 4.68-9.19z" fill="#fafafb" opacity=".4"/><path d="M226.16 137.55a63.62 63.62 0 11-32.94-83.73 63.63 63.63 0 0132.94 83.73z" fill="url(#Névtelen_színátmenet_451)" opacity=".6"/><circle cx="167.5" cy="112.16" r="52.16" fill="url(#Névtelen_színátmenet_457)"/><path fill="url(#Névtelen_színátmenet_397)" d="M-.05 117.3h336.22v117.89H-.05z"/><path d="M65.91 188.7h14.47l-1.07 6.41c-3.46-.24-7.27-.2-12.34-.1 0 0 7.38 26.05 11.42 40.23h5.9c4-14.18 11.42-40.23 11.42-40.23-4.76-.09-8.8-.14-12.22.06l-1.59-6.37H99l.73-1.78h2.6l-1.54-4.08h-32l-1.75.11a23.61 23.61 0 00-5.16.88 12.8 12.8 0 00-1.3.49c-.86.36-4.74 2.7-4.74 2.7s3 0 7.24-.05z" style="isolation:isolate" fill="url(#Névtelen_színátmenet_411)" opacity=".5"/><g opacity=".78"><path fill="url(#Névtelen_színátmenet_543)" d="M335.99 140.5l-278.01-2.02h278.01v2.02z" opacity=".53"/><path fill="url(#Névtelen_színátmenet_543-2)" d="M335.99 211.72l-210.47-1.85 210.47-2.43v4.28z"/><path fill="url(#Névtelen_színátmenet_543-3)" d="M-.28 166.97l210.46.6L-.28 165.3v1.67z" opacity=".32"/><path fill="url(#Névtelen_színátmenet_543-4)" d="M335.99 171.5H145.76l190.23-1.53v1.53z" opacity=".13"/><path fill="url(#Névtelen_színátmenet_543-5)" d="M335.99 177.09l-190.23-2.26 190.23-1.85v4.11z"/><path fill="url(#Névtelen_színátmenet_543-6)" d="M335.99 203.84L.21 202.99v-1.53l335.78.85v1.53z" opacity=".3"/></g><path class="cls-38" d="M0 134.65s123.05.07 123.7-.72-24.76-23.4-26.46-23.66-19.11.48-20.15-.44S33.92 70.4 33.53 70.14a1.79 1.79 0 00-1.75 0c-.39.31-23.27 22.58-24.71 21.14S0 80.88 0 80.88z"/><path class="cls-39" d="M77 109.83c1 .92 18.45.17 20.15.44 1.15.17 13 10.47 20.48 17.43h11.49c-3.31-3.7-38.82-34.89-39.28-34.89-.2 0-2.72 2.15-2.83 2.15s-2.69-2.77-2.93-2.77-6.69 5.43-13.81 11.47c3.87 3.53 6.51 5.95 6.73 6.17z"/><path class="cls-40" d="M30.32 71.48c-4.45-4.16-7.42-6.82-7.68-6.82-.61 0-1.42 1.12-2.27 1.12-1.11 0-6.67-5.6-7.84-5.6C11 60.18 0 71.33 0 71.33v9.55s5.68 8.91 7.12 10.35c1.18 1.23 18.07-14.86 23.2-19.75z"/><path class="cls-41" d="M255.89 126.79a2.76 2.76 0 00-1.11-1.11c-.29-.19-48.6-29.24-50.15-29.24-.75 0-2.43 2-2.88 1.78s-6.8-3.57-7.66-3.58h-4.71c-.57 0-2.52 1.61-3.51 2.17a1.52 1.52 0 01-.73.18h-1.77c-.42 0-5.46 5-6.36 5h-7.08a2.8 2.8 0 00-1.74.62c-2.95 2.37-13.45 10.79-13.81 11a44.85 44.85 0 01-5.58.28c-.69 0-11.49 8.34-17.63 12.9z"/><path class="cls-38" d="M335.94 114c-7.81 5.48-19.77 14.72-21.33 14.72-3.09 0-15.3.12-16.76.12s-39.8 12.08-44.2 13.5h82.29z"/><path d="M335.94 170.78c-7.81-5.47-19.77-14.71-21.33-14.71-3.09 0-15.3-.13-16.76-.13s-39.8-12.07-44.2-13.49h82.29z" style="isolation:isolate" fill="url(#Névtelen_színátmenet_358)" opacity=".5"/><path class="cls-43" d="M335.94 88.46c-5.47 4-37.75 28.86-39.17 28.86-3.53 0-6.87-.06-9.79-.06-.57 0-25.6 8.91-26 9.35-.2.22 36.34-.09 75-.49z"/><path style="isolation:isolate" fill="url(#Névtelen_színátmenet_358-2)" opacity=".5" d="M122.47 132.13l6.69-4.43h-11.49l4.8 4.43z"/><path class="cls-38" d="M191 142.64s8.39-4.28 10-4.41 2.5.11 4.32-.82c2.4-1.22 8.08-4.89 9.32-4.89 1.57 0 7.31 4.21 9.23 4.08 1 0 3.57-.13 3.82-.13 1.57 0 2.55 1.24 3.62 1.24 2.19 0 11 4.93 11 4.93z"/><path d="M242.32 142.74s-8.84 4.93-11 4.93c-1.07 0-2 1.24-3.62 1.24-.25 0-2.8-.13-3.82-.13-1.92-.13-7.66 4.08-9.23 4.08-1.24 0-6.92-3.67-9.32-4.89-1.82-.93-2.73-.69-4.32-.82s-10-4.41-10-4.41z" style="isolation:isolate" fill="url(#Névtelen_színátmenet_362)" opacity=".5"/><path d="M131.17 126.72c6.14 4.56 16.94 12.91 17.63 12.91a44.85 44.85 0 015.58.28c.36.16 10.86 8.58 13.81 10.94a2.74 2.74 0 001.74.62h7.08c.9 0 5.94 5 6.36 5h1.77a1.42 1.42 0 01.73.19c1 .56 2.94 2.17 3.51 2.17h4.71c.86 0 7.21-3.37 7.66-3.58s2.13 1.79 2.88 1.79c.39 0 3.8-1.87 8.66-4.67-2.19-1-6.1-3.48-8-4.44s-2.73-.69-4.32-.82-10-4.41-10-4.41h38.82c12.43-7.36 24.82-14.81 25-14.9a2.74 2.74 0 001.11-1.12z" style="isolation:isolate" fill="url(#Névtelen_színátmenet_359)" opacity=".5"/><path d="M123.56 134s.06.09.07.12 0-.08 0-.1z" style="isolation:isolate" fill="url(#Névtelen_színátmenet_358-3)" opacity=".5"/><path d="M0 134.65v43.16s11.05 7.86 12.58 7.86c1.17 0 6.73-3.94 7.84-3.94.85 0 1.66.79 2.27.79a86.83 86.83 0 007.68-4.81c.86.58 1.4.95 1.46 1a2.46 2.46 0 001.75 0c.39-.18 42.46-27.33 43.51-28s22.42-.12 24.12-.3 22.49-16.44 22.3-16.39c-5.22.69-123.51.63-123.51.63z" style="isolation:isolate" fill="url(#Névtelen_színátmenet_364)" opacity=".5"/><path opacity=".7" fill="url(#Névtelen_színátmenet_359-2)" d="M260.96 126.61l18.77 7.71 18.12-5.5 17.37-.19 3.9-2.25-58.16.23z"/><g opacity=".2"><path d="M246.27 116.77a20.89 20.89 0 01-27.56 10.92 21.17 21.17 0 01-10.85-27.77A20.9 20.9 0 01235.43 89a21.16 21.16 0 0110.84 27.77z" fill="url(#Névtelen_színátmenet_26-19)" opacity=".6"/><path d="M146.66 132.72a32.86 32.86 0 01-43.36 17.18 33.28 33.28 0 01-17.06-43.68A32.86 32.86 0 01129.6 89a33.3 33.3 0 0117.06 43.72z" fill="url(#Névtelen_színátmenet_26-20)" opacity=".3"/><path d="M93.16 167.09a27.67 27.67 0 01-36.52 14.47 28 28 0 01-14.36-36.79 27.66 27.66 0 0136.51-14.47 28 28 0 0114.37 36.79z" fill="url(#Névtelen_színátmenet_31)" opacity=".6"/><path d="M111 106a14.92 14.92 0 01-19.69 7.8A15.12 15.12 0 0183.57 94a14.91 14.91 0 0119.68-7.8A15.11 15.11 0 01111 106z" fill="url(#Névtelen_színátmenet_26-21)" opacity=".6"/><path d="M69.31 96.69a20.89 20.89 0 01-27.56 10.92 21.15 21.15 0 01-10.84-27.77 20.88 20.88 0 0127.56-10.92 21.16 21.16 0 0110.84 27.77z" fill="url(#Névtelen_színátmenet_31-2)" opacity=".6"/><path d="M265.14 180.3a28.4 28.4 0 01-37.47 14.85 28.76 28.76 0 01-14.74-37.75 28.38 28.38 0 0137.47-14.85 28.76 28.76 0 0114.74 37.75z" opacity=".8" fill="url(#Névtelen_színátmenet_26-22)"/><path d="M157.41 208.78a20.89 20.89 0 01-27.57 10.92A21.16 21.16 0 01119 191.93 20.89 20.89 0 01146.56 181a21.17 21.17 0 0110.85 27.78z" fill="url(#Névtelen_színátmenet_26-23)" opacity=".3"/><path d="M130.83 80.1A20.88 20.88 0 01103.27 91a21.16 21.16 0 01-10.84-27.74A20.89 20.89 0 01120 52.33a21.17 21.17 0 0110.83 27.77z" fill="url(#Névtelen_színátmenet_26-24)" opacity=".3"/><path d="M94.87 57.65A29.49 29.49 0 0156 73.07a29.87 29.87 0 01-15.36-39.21 29.5 29.5 0 0138.92-15.43 29.89 29.89 0 0115.31 39.22z" fill="url(#Névtelen_színátmenet_26-25)" opacity=".2"/><path d="M73.73 196.2a20.87 20.87 0 01-27.56 10.92 21.15 21.15 0 01-10.84-27.76 20.88 20.88 0 0127.56-10.93 21.16 21.16 0 0110.84 27.77z" fill="url(#Névtelen_színátmenet_26-26)" opacity=".6"/><path d="M157.41 83.12A20.89 20.89 0 01129.84 94 21.15 21.15 0 01119 66.28a20.88 20.88 0 0127.56-10.93 21.17 21.17 0 0110.85 27.77z" fill="url(#Névtelen_színátmenet_26-27)" opacity=".2"/><path d="M276 90.06A20.88 20.88 0 01248.42 101a21.16 21.16 0 01-10.84-27.77 20.89 20.89 0 0127.56-10.92A21.15 21.15 0 01276 90.06z" fill="url(#Névtelen_színátmenet_26-28)" opacity=".2"/><path d="M308.36 57.26a27 27 0 01-35.68 14.14 27.4 27.4 0 01-14-35.95 27 27 0 0135.68-14.14 27.39 27.39 0 0114 35.95z" fill="url(#Névtelen_színátmenet_31-3)" opacity=".6"/><path d="M302.46 131.74a29 29 0 01-38.33 15.18 29.42 29.42 0 01-15.07-38.61 29 29 0 0138.32-15.18 29.42 29.42 0 0115.08 38.61z" fill="url(#Névtelen_színátmenet_26-29)" opacity=".3"/><path d="M305.12 202.31a20.89 20.89 0 01-27.56 10.92 21.15 21.15 0 01-10.84-27.77 20.88 20.88 0 0127.56-10.92 21.16 21.16 0 0110.84 27.77z" fill="url(#Névtelen_színátmenet_26-30)" opacity=".2"/><path d="M52.78 160a20.87 20.87 0 01-27.56 10.9 21.15 21.15 0 01-10.84-27.76 20.88 20.88 0 0127.56-10.93A21.16 21.16 0 0152.78 160z" fill="url(#Névtelen_színátmenet_26-31)" opacity=".6"/></g><path class="cls-41" d="M65.87 212.81s-3 5.53-3.62 19.26c-1.06-7.85-3.54-18.48-9.29-23.66a75.93 75.93 0 014.69 26.49h7.91c-1.28-6-2.45-15.2.31-22.09zm22.76 0s1.19 13.31-.4 22.09h3.21c.56-6.58.76-16.63-2.81-22.09zm-3.57 22.09h2.47c-.52-3.5-.87-8.2.15-11.66a36.45 36.45 0 00-2.62 11.66zm-15.51-18.62a39.9 39.9 0 015.65 18.62H85c-.72-11.63-1.14-30.76 2.87-40.2 0 0-6.83 9.6-7.91 37.92-1.57-5.51-4.71-13.15-10.41-16.34z"/><path class="cls-39" d="M112 234.9c.2-14.46 4.81-21 4.81-21-4.74 5.1-6.67 13.09-7.25 21zm-17.1-26.61c2.08 4.88 3 12.22 3.37 19.88a30.07 30.07 0 00-6.71-8.35c3.19 3.49 5.22 9.2 6.53 15.08h4.14c-2.33-19.6-7.33-26.61-7.33-26.61z"/><path class="cls-43" d="M249.16 212.81s3 5.53 3.61 19.26c1.07-7.85 3.54-18.48 9.29-23.66a75.93 75.93 0 00-4.69 26.49h-7.9c1.28-6 2.44-15.2-.31-22.09zm-22.76 0s-1.2 13.31.39 22.09h-3.2c-.59-6.58-.77-16.63 2.81-22.09zm3.6 22.09h-2.48c.52-3.5.88-8.2-.14-11.66A36.77 36.77 0 01230 234.9z"/><path class="cls-43" d="M245.48 216.28a40 40 0 00-5.66 18.62H230c.72-11.63 1.15-30.76-2.87-40.2 0 0 6.83 9.6 7.91 37.92 1.59-5.51 4.73-13.15 10.44-16.34z"/><g id="grass"><path class="cls-40" d="M182.31 225.56c.78-4.64 3.8-11.75 3.8-11.75s-3.4 5.9-6 11a23.43 23.43 0 00-2.5 10h3.94a62.16 62.16 0 01.76-9.25z"/><path class="cls-38" d="M222.79 234.83h2.52a48.43 48.43 0 01-.12-6.3c.18-3 2.59-7.56 2.59-7.56a55.83 55.83 0 00-5 7.23c0-3.92-.09-9.31-.25-15.47a225.66 225.66 0 00-2.11-24.46s.63 12.65.2 25.07a131 131 0 01-2.44 21.49h4.61zm35.34-8.22a45.71 45.71 0 00-10.8 5.86A64.48 64.48 0 01252.1 222s-4.56 5.9-8 11a19 19 0 00-1.1 1.84h4.48c.11-.22.21-.44.33-.66 2.27-4.32 10.32-7.57 10.32-7.57zm-71.42 6.85c1-4.64 5.1-11.75 5.1-11.75s-4.57 5.89-8.06 11c-.47.71-.88 1.41-1.24 2.09h3.91c.09-.43.18-.88.29-1.34zm6.13 1.02c2.3-4.31 10.35-7.56 10.35-7.56a45.23 45.23 0 00-12.94 7.56l-.41.35h2.81z"/><path class="cls-40" d="M175.51 234.83s-1.17-3.71-.39-14.41 6.74-21.12 6.74-21.12-6.9 7.37-9 16.48a58.49 58.49 0 00-1.33 11.92c-1.2-4.59-2.62-9-2.62-9s1 7.34.21 12a42 42 0 01-1 4.14h7.36z"/><path class="cls-38" d="M162.67 234.83a69.93 69.93 0 00-2.85-12c-2.1-6.24-9.06-13.31-9.06-13.31a41.47 41.47 0 016.24 12.9 24.63 24.63 0 011.07 5.59 30.33 30.33 0 00-9.1-7.73s6.63 3.94 7.22 8.38a16.53 16.53 0 01-.34 6.17h6.83zm49.53-.38a139.06 139.06 0 00-3.51-24.45s.69 8.39.56 18.22c-1.59-4.8-3.5-9.56-3.5-9.56s1.49 7.38.79 12a37.7 37.7 0 01-.89 4.14h6.57c-.01-.1-.02-.22-.02-.35z"/><path class="cls-40" d="M233.53 234.83a26.8 26.8 0 011.26-7.56c1.32-4.3 5.93-7.56 5.93-7.56a26.9 26.9 0 00-7.42 7.56 22.45 22.45 0 00-2 3.55 12.53 12.53 0 00-2-5.89 9.91 9.91 0 01.62 8.17c-.24.6-.5 1.18-.76 1.73h4.38zm-118.4 0s1.18-3.71.39-14.41-6.73-21.12-6.73-21.12 6.89 7.37 9 16.48a57.84 57.84 0 011.34 11.92c1.2-4.59 2.61-9 2.61-9s-1 7.34-.21 12c.26 1.44.61 2.86 1 4.14h-7.37z"/><path class="cls-38" d="M284.43 234.83h-2.52a48.43 48.43 0 00.12-6.3c-.18-3-2.59-7.56-2.59-7.56a55.83 55.83 0 015 7.23c0-3.92.09-9.31.25-15.47a225.66 225.66 0 012.11-24.46s-.63 12.65-.2 25.07a131.76 131.76 0 002.4 21.49h-4.6zm-214.34 0s-1.18-3.71-.4-14.41 6.74-21.12 6.74-21.12-6.89 7.37-9 16.48a58.49 58.49 0 00-1.33 11.92c-1.2-4.59-2.61-9-2.61-9s1 7.34.21 12c-.26 1.44-.61 2.86-1 4.14h7.37zm62.91 0a26.37 26.37 0 011.26-7.56c1.32-4.3 5.93-7.56 5.93-7.56a26.9 26.9 0 00-7.42 7.56 22.45 22.45 0 00-2 3.55 12.53 12.53 0 00-2-5.89 9.91 9.91 0 01.62 8.17c-.25.6-.5 1.18-.76 1.73H133zm-80.56-21.49c-.43-12.42.2-25.07.2-25.07a225.66 225.66 0 00-2.11 24.46c0 .92 0 1.81-.06 2.69v19.41h4.4a131.76 131.76 0 01-2.43-21.49z"/></g><path class="cls-67" d="M166.47 113.43l.14 16.9a42.76 42.76 0 008.18-.2c-1.72-4.72-6.03-12.24-8.32-16.7z"/><path class="cls-68" d="M159.78 134.57h11.52a8.62 8.62 0 001.77-.3l.44-.17c.3-.13 1.62-.92 1.62-.92h-15.88z"/><path class="cls-69" d="M160.14 133.17l12.52-.02-.96-.59h-11.31l-.25.61z"/><path class="cls-69" d="M166.4 132.56l-.15-20.34s.06-.06.15-.06.14 0 .14.06l.15 20.34z"/><path d="M166.68 130.33l-.13-16.75c0 .08 4.79 16.83 4.79 16.83a41.83 41.83 0 01-4.66-.08z" style="mix-blend-mode:multiply" fill="#c1cac7" opacity=".2"/><path class="cls-68" d="M100.77 183h-32l-1.75-.1a23.61 23.61 0 01-5.12-.9c-.44-.14-.87-.31-1.3-.49-.86-.36-4.74-2.7-4.74-2.7.36.08 46 .12 46.45.1z"/><path class="cls-69" d="M99.7 178.91l-36.61-.04 2.82-1.74 33.07.01.72 1.77z"/><path class="cls-69" d="M81.4 177.14l.44-59.5c0-.1-.19-.18-.43-.18s-.42.08-.42.18l-.45 59.5z"/><path class="cls-67" d="M80.59 170.62l.37-49c-.12.23-14 49.19-14 49.19a122.59 122.59 0 0013.63-.19zm.93 0l.2-49c.12.23 14 49.19 14 49.19a133.48 133.48 0 01-14.2-.19z"/><path class="cls-71" d="M295.1 34.58a11.68 11.68 0 01-2-.51 3.19 3.19 0 00-1.94.39.55.55 0 00-.42-.23.49.49 0 00-.41.21 3.32 3.32 0 00-2-.44 12.94 12.94 0 01-2 .47h-.19.19a4.85 4.85 0 00.95.06 9.64 9.64 0 011.08-.06 2.34 2.34 0 011 .28 7.88 7.88 0 011 .59 1.18 1.18 0 001 0 8.9 8.9 0 01.88-.53 2.38 2.38 0 011-.25 9.81 9.81 0 011.09.07 4.27 4.27 0 001 0h.18zm-191.62 6.61a6.67 6.67 0 01-1.13-.28 1.85 1.85 0 00-1.09.21.29.29 0 00-.26-.12.31.31 0 00-.23.12 1.89 1.89 0 00-1.11-.25 6.82 6.82 0 01-1.14.27h-.1.1a2.29 2.29 0 00.53 0h.6a1.33 1.33 0 01.55.16 5.34 5.34 0 01.53.33.69.69 0 00.55 0 4.53 4.53 0 01.49-.29 1.35 1.35 0 01.55-.15 5.82 5.82 0 01.6.05 2.29 2.29 0 00.53 0h.11z"/><path d="M57.84 35.87a15.81 15.81 0 01-2.42-.61 3.85 3.85 0 00-2.31.46.6.6 0 00-1 0 4 4 0 00-2.37-.53 13.92 13.92 0 01-2.42.56h-.22.22a5.22 5.22 0 001.13.06 10.94 10.94 0 011.29-.06 2.73 2.73 0 011.15.32 10.72 10.72 0 011.14.71 1.43 1.43 0 001.18 0 11 11 0 011-.62 2.86 2.86 0 011.16-.3c.44 0 .86.06 1.29.08a5.27 5.27 0 001.13 0h.22zm180.29 28.5c-1.69-.12-2.48-.69-3.88-1a6.1 6.1 0 00-3.71.74 1.05 1.05 0 00-.8-.45 1 1 0 00-.78.41 6.35 6.35 0 00-3.8-.84c-1.4.25-2.21.81-3.89.89h-.35l.35.08a8.9 8.9 0 001.81.11 20.2 20.2 0 012.07-.11 4.5 4.5 0 011.85.52 19.26 19.26 0 011.83 1.14 2.3 2.3 0 001.88 0 16.21 16.21 0 011.68-1 4.65 4.65 0 011.86-.49c.71 0 1.38.11 2.06.15a9 9 0 001.82-.08l.35-.07z" fill-rule="evenodd" fill="#fff"/><path class="cls-71" d="M90.76 51.24a9.7 9.7 0 01-1.65-.41 2.59 2.59 0 00-1.59.32.4.4 0 00-.34-.19.38.38 0 00-.33.17 2.73 2.73 0 00-1.62-.36 10.17 10.17 0 01-1.66.38h-.15.15a3.26 3.26 0 00.77 0 8.7 8.7 0 01.89 0 2 2 0 01.79.22 7.41 7.41 0 01.78.49 1 1 0 00.8 0 6.66 6.66 0 01.71-.42 2 2 0 01.79-.21 8.29 8.29 0 01.88.06 4 4 0 00.78 0h.15z"/><path class="cls-73" d="M60.8 235.19a78.31 78.31 0 00-22.8-5.14c-11.81-.78-25.9 2.54-33.12 5.14z"/><path class="cls-74" d="M3.52 235.08l.59-.85c8.84-12.66 46.06-59.45 46.06-59.45a164.35 164.35 0 00-49.08 36.3c-.37.4-.73.8-1.09 1.21v22.79z"/><path class="cls-75" d="M48.4 176.22l1-.61a4.51 4.51 0 00-1 .61zM0 224.93v2.36q2.07-2.83 4-5.55c15.17-21.64 39.3-41.81 44.36-45.52C43.76 179.27 23 193.74 0 224.93z"/><path class="cls-76" d="M0 198.78v30.58c.83-2.28 1.58-4.3 2.19-5.91 4.29-11.32 23.64-54 23.64-54A127.54 127.54 0 000 198.78z"/><path class="cls-75" d="M0 213.31c7.45-19.13 21.63-38.65 24.74-42.43-2.7 2.94-14 15.91-24.74 39.93zm24.74-42.43l.62-.66a3.62 3.62 0 00-.62.66z"/><path class="cls-73" d="M15.87 235.08c14.06-7.13 50.07-23.75 50.07-23.75a128.91 128.91 0 00-47.17 8.11A116.91 116.91 0 000 228.74v6.34z"/><path class="cls-75" d="M1.56 235.08h2c4.6-2.58 9.27-4.92 13.55-7.13 18.25-9.81 42.26-15.42 47.11-16.23-4.95.56-29.73 4.12-62.66 23.36z"/><path d="M14.26 235.08c4.5-3.85 8.51-7.27 11.37-9.64 11.89-9.84 60.24-45 60.24-45a164.48 164.48 0 00-57 21.9C18.65 208.68 8.67 217.29 0 226v9.05z" fill="url(#Névtelen_színátmenet_2)" fill-rule="evenodd"/><path class="cls-75" d="M1.63 235.08h2l2.78-2.74c7.19-7 15.36-13.24 22.52-19 20.39-16.82 49-29.81 54.89-32-6.57 2.11-41.58 14.46-82.19 53.74z"/><path class="cls-76" d="M276 235.19a77.6 77.6 0 0122.59-5.09c11.69-.77 25.63 2.52 32.77 5.09z"/><path class="cls-74" d="M332.63 235.08l-.59-.84c-8.74-12.52-45.57-58.81-45.57-58.81A162.71 162.71 0 01335 211.34l1.08 1.19v22.55z"/><path class="cls-75" d="M288.22 176.85l-.94-.61a4.54 4.54 0 01.94.61zM336.11 225v2.33c-1.37-1.87-2.71-3.7-4-5.48-15-21.42-38.88-41.36-43.89-45 4.59 3.02 25.18 17.33 47.89 48.15z"/><path class="cls-76" d="M336.11 199.17v30.26c-.83-2.26-1.56-4.27-2.17-5.86-4.25-11.19-23.38-53.43-23.38-53.43a126.27 126.27 0 0125.55 29.03z"/><path class="cls-75" d="M336.11 213.55c-7.38-18.93-21.4-38.25-24.48-42 2.67 2.91 13.85 15.74 24.48 39.51zm-24.48-41.98c-.36-.38-.58-.61-.61-.66a3.81 3.81 0 01.61.66z"/><path class="cls-76" d="M320.41 235.08c-13.91-7.06-49.54-23.49-49.54-23.49a127.52 127.52 0 0146.67 8 115.67 115.67 0 0118.57 9.2v6.27z"/><path class="cls-75" d="M334.57 235.08h-2c-4.55-2.55-9.16-4.86-13.4-7.05-18.06-9.71-41.81-15.25-46.61-16.06 4.91.56 29.44 4.08 62.01 23.11z"/><path class="cls-73" d="M322 235.08c-4.45-3.81-8.42-7.19-11.25-9.54-11.75-9.73-59.6-44.54-59.6-44.54a162.59 162.59 0 0156.38 21.66c10.12 6.29 20 14.8 28.58 23.45v9z"/><path class="cls-75" d="M334.49 235.08h-1.93l-2.75-2.71c-7.11-6.92-15.2-13.09-22.28-18.75-20.18-16.62-48.53-29.49-54.31-31.7 6.47 2.08 41.1 14.3 81.27 53.16z"/></g></g></svg>