<svg xmlns="http://www.w3.org/2000/svg" xmlns:xlink="http://www.w3.org/1999/xlink" viewBox="0 0 750 500"><defs><path id="a" d="M0 0h750v500H0z"/></defs><clipPath id="b"><use xlink:href="#a" overflow="visible"/></clipPath><linearGradient id="c" gradientUnits="userSpaceOnUse" x1="375" y1="500" x2="375" y2="-77.235"><stop offset=".23" stop-color="#ffc080"/><stop offset="1" stop-color="#f0854f"/></linearGradient><path clip-path="url(#b)" fill="url(#c)" d="M0 0h750v500H0z"/><circle transform="rotate(-45.001 251.22 307.278)" clip-path="url(#b)" fill="#FFFA6F" cx="251.223" cy="307.274" r="116.229"/><linearGradient id="d" gradientUnits="userSpaceOnUse" x1="251.223" y1="423.503" x2="251.223" y2="191.045"><stop offset="0" stop-color="#ffd13d" stop-opacity="0"/><stop offset=".289" stop-color="#ffd03a" stop-opacity=".289"/><stop offset=".527" stop-color="#ffcd30" stop-opacity=".527"/><stop offset=".747" stop-color="#ffc81e" stop-opacity=".747"/><stop offset=".954" stop-color="#ffc206" stop-opacity=".954"/><stop offset="1" stop-color="#ffc000"/></linearGradient><circle opacity=".2" clip-path="url(#b)" fill="url(#d)" cx="251.223" cy="307.274" r="116.229"/><radialGradient id="e" cx="251.223" cy="307.274" r="224.703" gradientUnits="userSpaceOnUse"><stop offset=".157" stop-color="#fff"/><stop offset=".264" stop-color="#fffefa" stop-opacity=".873"/><stop offset=".386" stop-color="#fffbed" stop-opacity=".729"/><stop offset=".514" stop-color="#fff5d6" stop-opacity=".577"/><stop offset=".647" stop-color="#ffeeb6" stop-opacity=".418"/><stop offset=".784" stop-color="#ffe48d" stop-opacity=".256"/><stop offset=".922" stop-color="#ffd85c" stop-opacity=".092"/><stop offset="1" stop-color="#ffd13d" stop-opacity="0"/></radialGradient><circle opacity=".8" clip-path="url(#b)" fill="url(#e)" cx="251.223" cy="307.274" r="224.703"/><linearGradient id="f" gradientUnits="userSpaceOnUse" x1="419.459" y1="280.232" x2="419.459" y2="222.668"><stop offset="0" stop-color="#fff" stop-opacity="0"/><stop offset="1" stop-color="#fff"/></linearGradient><path clip-path="url(#b)" fill="url(#f)" d="M502.78 259.234c-5.461 0-10.418 2.102-14.153 5.519-5.83-12.456-18.469-21.087-33.13-21.087-2.09 0-4.135.185-6.13.521.004-.175.026-.346.026-.521 0-11.597-9.401-20.998-20.998-20.998-6.723 0-12.694 3.172-16.537 8.088a53.122 53.122 0 00-19.79-3.812c-22.373 0-41.513 13.794-49.412 33.336a20.95 20.95 0 00-6.52-1.045c-11.597 0-20.997 9.401-20.997 20.998h208.638c.001-11.598-9.4-20.999-20.997-20.999z"/><linearGradient id="g" gradientUnits="userSpaceOnUse" x1="154.573" y1="224.893" x2="154.573" y2="183.58"><stop offset="0" stop-color="#fff" stop-opacity="0"/><stop offset="1" stop-color="#fff"/></linearGradient><path clip-path="url(#b)" fill="url(#g)" d="M199.618 205.056c-3.73-12.422-15.247-21.476-28.884-21.476-14.621 0-26.809 10.405-29.571 24.214a16.873 16.873 0 00-9.352-2.818c-6.752 0-12.564 3.955-15.293 9.666a13.477 13.477 0 00-8.835-3.293c-7.48 0-13.543 6.064-13.543 13.543h120.866c0-8.834-3.87-18.095-15.388-19.836z"/><linearGradient id="h" gradientUnits="userSpaceOnUse" x1="-414.623" y1="184.916" x2="-414.623" y2="123.212" gradientTransform="matrix(-1 0 0 1 282.51 0)"><stop offset="0" stop-color="#fff" stop-opacity="0"/><stop offset="1" stop-color="#fff"/></linearGradient><path clip-path="url(#b)" fill="url(#h)" d="M607.82 162.408c5.853 0 11.167 2.253 15.171 5.916 6.249-13.351 19.797-22.604 35.512-22.604 2.24 0 4.433.198 6.57.559-.005-.188-.028-.37-.028-.559 0-12.431 10.077-22.508 22.508-22.508 7.207 0 13.607 3.4 17.726 8.67a56.926 56.926 0 0121.213-4.086c23.982 0 44.498 14.786 52.965 35.733a22.465 22.465 0 016.989-1.12c12.431 0 22.508 10.077 22.508 22.508H585.312c0-12.432 10.077-22.509 22.508-22.509z"/><linearGradient id="i" gradientUnits="userSpaceOnUse" x1="131.239" y1="87.832" x2="977.577" y2="87.832"><stop offset="0" stop-color="#fff" stop-opacity="0"/><stop offset="1" stop-color="#fff"/></linearGradient><path opacity=".4" clip-path="url(#b)" fill="url(#i)" d="M977.577 87.832c0 2.365-189.459 4.282-423.169 4.282s-423.169-1.917-423.169-4.282 189.459-4.282 423.169-4.282 423.169 1.917 423.169 4.282z"/><linearGradient id="j" gradientUnits="userSpaceOnUse" x1="-1021.286" y1="44.846" x2="708.591" y2="44.846" gradientTransform="matrix(-.5197 0 0 1 306.767 0)"><stop offset="0" stop-color="#fff" stop-opacity="0"/><stop offset="1" stop-color="#fff"/></linearGradient><path opacity=".4" clip-path="url(#b)" fill="url(#j)" d="M-61.488 44.846c0 2.365 201.252 4.282 449.509 4.282s449.509-1.917 449.509-4.282-201.252-4.282-449.509-4.282-449.509 1.917-449.509 4.282z"/><linearGradient id="k" gradientUnits="userSpaceOnUse" x1="-640.771" y1="146.499" x2="800.319" y2="146.499" gradientTransform="matrix(-.3617 0 0 1 125.11 0)"><stop offset="0" stop-color="#fff" stop-opacity="0"/><stop offset="1" stop-color="#fff"/></linearGradient><path opacity=".4" clip-path="url(#b)" fill="url(#k)" d="M-164.366 146.499c0 .926 116.684 1.676 260.621 1.676s260.621-.751 260.621-1.676c0-.926-116.684-1.676-260.621-1.676s-260.621.75-260.621 1.676z"/><linearGradient id="l" gradientUnits="userSpaceOnUse" x1="-1467.579" y1="97.843" x2="-26.489" y2="97.843" gradientTransform="matrix(-.3617 0 0 1 125.11 0)"><stop offset="0" stop-color="#fff" stop-opacity="0"/><stop offset="1" stop-color="#fff"/></linearGradient><ellipse opacity=".6" clip-path="url(#b)" fill="url(#l)" cx="395.312" cy="97.843" rx="260.621" ry="1.201"/><linearGradient id="m" gradientUnits="userSpaceOnUse" x1="-1450.542" y1="31.882" x2="1497.085" y2="31.882" gradientTransform="matrix(.2691 0 0 1 413.196 0)"><stop offset="0" stop-color="#fff" stop-opacity="0"/><stop offset="1" stop-color="#fff"/></linearGradient><ellipse opacity=".6" clip-path="url(#b)" fill="url(#m)" cx="419.459" cy="31.882" rx="396.603" ry="1.201"/><linearGradient id="n" gradientUnits="userSpaceOnUse" x1="-1522.064" y1="189.845" x2="283.484" y2="189.845" gradientTransform="matrix(.2691 0 0 1 413.196 0)"><stop offset="0" stop-color="#fff" stop-opacity="0"/><stop offset="1" stop-color="#fff"/></linearGradient><ellipse opacity=".2" clip-path="url(#b)" fill="url(#n)" cx="246.545" cy="189.845" rx="242.937" ry="1.201"/><linearGradient id="o" gradientUnits="userSpaceOnUse" x1="-886.895" y1="174.691" x2="420.545" y2="174.691" gradientTransform="matrix(.2691 0 0 1 413.196 0)"><stop offset="0" stop-color="#fff" stop-opacity="0"/><stop offset="1" stop-color="#fff"/></linearGradient><ellipse opacity=".2" clip-path="url(#b)" fill="url(#o)" cx="350.449" cy="174.691" rx="175.916" ry="1.351"/><linearGradient id="p" gradientUnits="userSpaceOnUse" x1="-934.277" y1="68.611" x2="7118.696" y2="68.611" gradientTransform="matrix(-.0553 0 0 1 903.204 0)"><stop offset="0" stop-color="#fff" stop-opacity="0"/><stop offset="1" stop-color="#fff"/></linearGradient><ellipse opacity=".4" clip-path="url(#b)" fill="url(#p)" cx="732.204" cy="68.611" rx="222.665" ry="1.201"/><linearGradient id="q" gradientUnits="userSpaceOnUse" x1="5285.43" y1="15.057" x2="17649.631" y2="15.057" gradientTransform="matrix(-.0553 0 0 1 903.204 0)"><stop offset="0" stop-color="#fff" stop-opacity="0"/><stop offset="1" stop-color="#fff"/></linearGradient><path opacity=".4" clip-path="url(#b)" fill="url(#q)" d="M-72.821 15.057c0 .663 153.06 1.201 341.87 1.201s341.87-.538 341.87-1.201-153.06-1.2-341.87-1.2-341.87.537-341.87 1.2z"/><linearGradient id="r" gradientUnits="userSpaceOnUse" x1="-367.575" y1="155.696" x2="468.49" y2="155.696" gradientTransform="matrix(.4181 0 0 1 165.324 0)"><stop offset="0" stop-color="#fff" stop-opacity="0"/><stop offset="1" stop-color="#fff"/></linearGradient><ellipse opacity=".6" clip-path="url(#b)" fill="url(#r)" cx="186.42" cy="155.696" rx="174.779" ry="1.276"/><path clip-path="url(#b)" fill="#D4722B" d="M775.747 283.497s-47.01 10.976-50.822 14.439c-3.812 3.463-21.808 15.388-27.508 17.298-5.7 1.91-22.044 7.002-32.208 9.279-10.164 2.277-36.846 10.357-41.928 10.357-5.082 0-43.199 18.467-58.445 19.622-15.247 1.154-29.223-10.388-35.575-9.234-1.777.323-6.24 1.911-11.994 4.055-.376-.996-.62-2.163-1.076-2.683-.667-.76-2.479-4.127-3.05-4.779-.572-.652-8.388-5.213-8.388-5.213s-4.194-.217-4.766-1.955c-.572-1.738-2.478-15.639-2.478-16.943 0-1.303-.953-3.475-1.525-4.127-.572-.652-1.144-24.609-1.144-24.609s-1.334-1.955-1.716-2.389c-.381-.435-6.101-2.172-6.101-2.172v20.264c0 .869-1.525 3.546-1.525 3.546s-.381 2.971 0 3.84c.381.869-1.144 9.123-1.144 9.775s-.953 1.738-1.906 1.738-1.967-3.475-1.651-4.562c.316-1.086.697-9.123.507-9.992s-1.335-15.143-1.335-15.143-5.147 1.244-5.719.592c-.572-.652-6.915-4.379-7.392-3.836-.477.543-2.521 1.444-4.047 1.226-1.525-.217-5.719.652-5.529 1.52.191.869 1.144 6.299 1.335 7.385.191 1.086-2.288 8.037-2.288 8.037l-2.288 4.996.381 21.669s-2.288 4.779-2.86.217c-.572-4.561-.191-15.146-.381-15.798-.191-.652-2.288-.135-2.288-.135l-2.097.415s-1.525 5.638-1.716 6.289c-.191.652.572 4.779.763 5.43.191.652-2.288 1.896-2.288 2.982 0 1.086-3.241 12.164-3.432 14.119-.191 1.955 0 14.77 0 14.77s-37.918-2.373-55.706-5.836c-17.788-3.463-47.01-10.388-55.904-10.388s-37.152 7.831-57.963 16.612c-20.811 8.781-60.198 24.94-80.527 18.015-20.329-6.925-49.551-6.925-49.551-6.925l-19.058 34.626v45.014h693.718l-39.385-171.408z"/><linearGradient id="s" gradientUnits="userSpaceOnUse" x1="468.275" y1="454.908" x2="468.275" y2="283.497"><stop offset="0" stop-color="#ffc080"/><stop offset="1" stop-color="#f0854f" stop-opacity="0"/></linearGradient><path opacity=".4" clip-path="url(#b)" fill="url(#s)" d="M775.747 283.497s-47.01 10.976-50.822 14.439c-3.812 3.463-21.808 15.388-27.508 17.298-5.7 1.91-22.044 7.002-32.208 9.279-10.164 2.277-36.846 10.357-41.928 10.357-5.082 0-43.199 18.467-58.445 19.622-15.247 1.154-29.223-10.388-35.575-9.234-1.777.323-6.24 1.911-11.994 4.055-.376-.996-.62-2.163-1.076-2.683-.667-.76-2.479-4.127-3.05-4.779-.572-.652-8.388-5.213-8.388-5.213s-4.194-.217-4.766-1.955c-.572-1.738-2.478-15.639-2.478-16.943 0-1.303-.953-3.475-1.525-4.127-.572-.652-1.144-24.609-1.144-24.609s-1.334-1.955-1.716-2.389c-.381-.435-6.101-2.172-6.101-2.172v20.264c0 .869-1.525 3.546-1.525 3.546s-.381 2.971 0 3.84c.381.869-1.144 9.123-1.144 9.775s-.953 1.738-1.906 1.738-1.967-3.475-1.651-4.562c.316-1.086.697-9.123.507-9.992s-1.335-15.143-1.335-15.143-5.147 1.244-5.719.592c-.572-.652-6.915-4.379-7.392-3.836-.477.543-2.521 1.444-4.047 1.226-1.525-.217-5.719.652-5.529 1.52.191.869 1.144 6.299 1.335 7.385.191 1.086-2.288 8.037-2.288 8.037l-2.288 4.996.381 21.669s-2.288 4.779-2.86.217c-.572-4.561-.191-15.146-.381-15.798-.191-.652-2.288-.135-2.288-.135l-2.097.415s-1.525 5.638-1.716 6.289c-.191.652.572 4.779.763 5.43.191.652-2.288 1.896-2.288 2.982 0 1.086-3.241 12.164-3.432 14.119-.191 1.955 0 14.77 0 14.77s-37.918-2.373-55.706-5.836c-17.788-3.463-47.01-10.388-55.904-10.388s-37.152 7.831-57.963 16.612c-20.811 8.781-60.198 24.94-80.527 18.015-20.329-6.925-49.551-6.925-49.551-6.925l-19.058 34.626v45.014h693.718l-39.385-171.408z"/><g clip-path="url(#b)"><path fill="#D4722B" d="M604.132 357.565c0-1.718 2.281-14.083 2.281-16.488 0-2.404 1.037-25.762 1.037-25.762s.622-2.061 1.659-2.748c1.037-.687 4.148-9.961 4.355-12.709.207-2.748 0-8.587 1.245-12.023 1.244-3.435 5.185-3.435 5.185-3.435s1.867 8.467 1.244 10.546c-.622 2.08.622 8.83 1.244 11.234s5.628-1.328 6.071-2.063c.443-.734 2.64-14.046 2.64-14.046s2.696-12.709 2.696-14.427c0-1.717-1.037-46.615-1.037-47.646 0-1.03 7.259-6.685 7.259-6.685s2.904-1.72 3.526.685 1.685 44.371 1.685 44.371l5.159 5.889s2.696-2.405 3.319-3.435c.622-1.031.415-1.542.415-4.977 0-3.435 3.111-21.27 3.111-24.127 0-2.858-.207-5.588.83-5.588s12.237-2.002 13.896-.972c1.659 1.031 4.252 24.795 5.393 26.684 1.141 1.889 7.985-5.843 8.918-7.389.933-1.546 2.074-13.74 2.074-18.205 0-4.465.622-10.305.622-10.305h5.185c1.659 0 4.77-32.288 4.77-35.38 0-3.091 0-8.931.415-11.679.415-2.748 7.259-3.435 7.259-5.496 0-2.061.415-10.992.415-13.74 0-2.748-.415-8.244 1.037-10.648 1.452-2.405 4.77-6.183 6.637-6.183s9.333 4.465 9.333 4.465 1.659 19.236 2.074 20.953c.415 1.717 3.526 8.931 3.733 10.648.207 1.717.415 21.984.83 23.701s0 7.277 0 8.994 1.254 3.108 2.302 1.374c1.047-1.734 3.298-3.155 3.298-4.529s-2.489-17.518-2.489-19.236 1.867-10.305 1.867-10.305 11.2 3.092 12.237 7.213c1.037 4.122 4.563 8.587 4.563 8.587s1.037 10.648 1.037 12.022c0 1.374 3.526 1.717 4.356 1.717s2.253 10.305 2.253 10.305v19.283c0 1.421 2.904 4.809 3.497 5.792.594.983 3.168 5.152 3.168 5.152l4.563 118.506H602.68c0 .006 1.452-6.177 1.452-7.895z"/><linearGradient id="t" gradientUnits="userSpaceOnUse" x1="686.99" y1="365.466" x2="686.99" y2="140.82"><stop offset="0" stop-color="#ffc080"/><stop offset="1" stop-color="#f0854f" stop-opacity="0"/></linearGradient><path opacity=".4" fill="url(#t)" d="M604.132 357.565c0-1.718 2.281-14.083 2.281-16.488 0-2.404 1.037-25.762 1.037-25.762s.622-2.061 1.659-2.748c1.037-.687 4.148-9.961 4.355-12.709.207-2.748 0-8.587 1.245-12.023 1.244-3.435 5.185-3.435 5.185-3.435s1.867 8.467 1.244 10.546c-.622 2.08.622 8.83 1.244 11.234s5.628-1.328 6.071-2.063c.443-.734 2.64-14.046 2.64-14.046s2.696-12.709 2.696-14.427c0-1.717-1.037-46.615-1.037-47.646 0-1.03 7.259-6.685 7.259-6.685s2.904-1.72 3.526.685 1.685 44.371 1.685 44.371l5.159 5.889s2.696-2.405 3.319-3.435c.622-1.031.415-1.542.415-4.977 0-3.435 3.111-21.27 3.111-24.127 0-2.858-.207-5.588.83-5.588s12.237-2.002 13.896-.972c1.659 1.031 4.252 24.795 5.393 26.684 1.141 1.889 7.985-5.843 8.918-7.389.933-1.546 2.074-13.74 2.074-18.205 0-4.465.622-10.305.622-10.305h5.185c1.659 0 4.77-32.288 4.77-35.38 0-3.091 0-8.931.415-11.679.415-2.748 7.259-3.435 7.259-5.496 0-2.061.415-10.992.415-13.74 0-2.748-.415-8.244 1.037-10.648 1.452-2.405 4.77-6.183 6.637-6.183s9.333 4.465 9.333 4.465 1.659 19.236 2.074 20.953c.415 1.717 3.526 8.931 3.733 10.648.207 1.717.415 21.984.83 23.701s0 7.277 0 8.994 1.254 3.108 2.302 1.374c1.047-1.734 3.298-3.155 3.298-4.529s-2.489-17.518-2.489-19.236 1.867-10.305 1.867-10.305 11.2 3.092 12.237 7.213c1.037 4.122 4.563 8.587 4.563 8.587s1.037 10.648 1.037 12.022c0 1.374 3.526 1.717 4.356 1.717s2.253 10.305 2.253 10.305v19.283c0 1.421 2.904 4.809 3.497 5.792.594.983 3.168 5.152 3.168 5.152l4.563 118.506H602.68c0 .006 1.452-6.177 1.452-7.895z"/></g><g clip-path="url(#b)"><path fill="#D4722B" d="M32.882 325.963c2.123-.22 6.066-16.751 6.066-23.2v-15.048c0-1.075 14.861-5.568 14.861-5.568s-.607-6.387 2.123-7.475c2.729-1.089 5.762-7.314 5.762-9.733 0-2.418-1.82-17.01-1.82-17.01s15.81-2.442 18.197-1.882c2.387.559 13.648 8.8 15.467 9.418 1.82.618 19.538-11.617 19.538-12.424 0-.806 9.274-.522 9.274-.522s5.156 13.463 6.976 13.275c1.82-.188 3.336-8.407 3.336-9.482 0-1.075 7.947 3.226 7.947 3.226s4.549 3.829 4.549 4.635c0 .806-.061 11.813-.061 13.694 0 1.881 5.67 1.687 5.8 4.086.13 2.399.519 17.182.519 18.331 0 1.149 3.89 5.802 5.058 7.75 1.167 1.948 7.003 38.112 7.003 39.261 0 1.149 1.815 2.915 1.815 2.915l1.686-5.856s.648-4.319 1.167-5.636c.519-1.317 3.891-1.781 3.891-1.781l.389-3.028s3.242-2.748 3.113-3.539c-.13-.791 1.037-16.538 1.037-16.538s1.686-.864 2.204-.917c.519-.054 6.743 1.141 6.743 1.141l.519 15.476s.778-.195 1.297-.249c.519-.054.964-7.746 1.612-7.928.648-.182 3.782 3.637 3.782 3.637l1.089 14.174s4.798 4.904 5.706 5.615c.908.71.843 1.803.843 2.549 0 .747 6.095 7.568 6.549 7.924.454.355.389 8.536.389 9.226 0 .69 1.038 3.914 1.556 3.861.519-.054 2.205-2.296 2.075-2.742-.13-.446.778-2.953 1.297-3.121.519-.169.778-6.63.648-7.536-.13-.906.13-29.447.908-30.216.778-.77 8.331-5.222 8.331-5.222s2.007 32.87 2.007 34.316c0 1.446 6.119 5.512 6.119 5.512s2.04 4.488 2.04 7.38c0 2.891 1.224 14.332 2.856 15.609 1.632 1.277 3.264 31.832 3.264 31.832L35.308 425.157v-66.393c0-5.912-3.943-19.209-5.459-22.814-1.516-3.605.91-9.768 3.033-9.987z"/><linearGradient id="u" gradientUnits="userSpaceOnUse" x1="133.893" y1="421.392" x2="133.893" y2="244.669" gradientTransform="matrix(1 -.1135 0 1 0 9.816)"><stop offset="0" stop-color="#ffc080"/><stop offset="1" stop-color="#f0854f" stop-opacity="0"/></linearGradient><path opacity=".4" fill="url(#u)" d="M32.882 325.963c2.123-.22 6.066-16.751 6.066-23.2v-15.048c0-1.075 14.861-5.568 14.861-5.568s-.607-6.387 2.123-7.475c2.729-1.089 5.762-7.314 5.762-9.733 0-2.418-1.82-17.01-1.82-17.01s15.81-2.442 18.197-1.882c2.387.559 13.648 8.8 15.467 9.418 1.82.618 19.538-11.617 19.538-12.424 0-.806 9.274-.522 9.274-.522s5.156 13.463 6.976 13.275c1.82-.188 3.336-8.407 3.336-9.482 0-1.075 7.947 3.226 7.947 3.226s4.549 3.829 4.549 4.635c0 .806-.061 11.813-.061 13.694 0 1.881 5.67 1.687 5.8 4.086.13 2.399.519 17.182.519 18.331 0 1.149 3.89 5.802 5.058 7.75 1.167 1.948 7.003 38.112 7.003 39.261 0 1.149 1.815 2.915 1.815 2.915l1.686-5.856s.648-4.319 1.167-5.636c.519-1.317 3.891-1.781 3.891-1.781l.389-3.028s3.242-2.748 3.113-3.539c-.13-.791 1.037-16.538 1.037-16.538s1.686-.864 2.204-.917c.519-.054 6.743 1.141 6.743 1.141l.519 15.476s.778-.195 1.297-.249c.519-.054.964-7.746 1.612-7.928.648-.182 3.782 3.637 3.782 3.637l1.089 14.174s4.798 4.904 5.706 5.615c.908.71.843 1.803.843 2.549 0 .747 6.095 7.568 6.549 7.924.454.355.389 8.536.389 9.226 0 .69 1.038 3.914 1.556 3.861.519-.054 2.205-2.296 2.075-2.742-.13-.446.778-2.953 1.297-3.121.519-.169.778-6.63.648-7.536-.13-.906.13-29.447.908-30.216.778-.77 8.331-5.222 8.331-5.222s2.007 32.87 2.007 34.316c0 1.446 6.119 5.512 6.119 5.512s2.04 4.488 2.04 7.38c0 2.891 1.224 14.332 2.856 15.609 1.632 1.277 3.264 31.832 3.264 31.832L35.308 425.157v-66.393c0-5.912-3.943-19.209-5.459-22.814-1.516-3.605.91-9.768 3.033-9.987z"/></g><path clip-path="url(#b)" fill="#A64F12" d="M779.63 273.239c-4.222-1.572-21.028-2.358-25.329-2.358-4.301 0-40.527-1.572-42.215 0-1.689 1.572-21.192 12.435-27.018 15.06-8.443 3.806-46.437 32.891-54.036 32.891-7.599 0-41.793 13.757-46.437 18.08-4.644 4.323-19.419 22.01-19.419 22.01s-5.066 3.93-10.976 3.93c-5.91 0-26.174 2.358-32.928 2.358-6.755 0-30.395-3.144-33.772-3.144s-37.15-14.15-44.749-15.722c-7.599-1.572-24.063 9.04-27.862 12.577-3.799 3.537-37.15 17.294-48.97 15.722l-29.551-3.93c-5.91-.786-54.88-16.508-63.323-16.508h-27.862c-5.91 0-21.108 5.503-28.707 8.647s-40.527 23.582-48.126 25.155c-7.599 1.572-27.942 5.71-54.115-.579-26.174-6.289-37.914-19.073-47.202-25.362-9.287-6.289-14.353-16.508-22.374-18.473-8.021-1.965-22.374-6.682-28.284-6.682s-39.682 1.572-39.682 1.572V524h808.848l16.042-244.472c-.001 0-17.731-4.717-21.953-6.289z"/><linearGradient id="v" gradientUnits="userSpaceOnUse" x1="389.137" y1="507.947" x2="389.137" y2="368.695"><stop offset=".573" stop-color="#ffc080"/><stop offset="1" stop-color="#f0854f" stop-opacity="0"/></linearGradient><path opacity=".4" clip-path="url(#b)" fill="url(#v)" d="M779.63 273.239c-4.222-1.572-21.028-2.358-25.329-2.358-4.301 0-40.527-1.572-42.215 0-1.689 1.572-21.192 12.435-27.018 15.06-8.443 3.806-46.437 32.891-54.036 32.891-7.599 0-41.793 13.757-46.437 18.08-4.644 4.323-19.419 22.01-19.419 22.01s-5.066 3.93-10.976 3.93c-5.91 0-26.174 2.358-32.928 2.358-6.755 0-30.395-3.144-33.772-3.144s-37.15-14.15-44.749-15.722c-7.599-1.572-24.063 9.04-27.862 12.577-3.799 3.537-37.15 17.294-48.97 15.722l-29.551-3.93c-5.91-.786-54.88-16.508-63.323-16.508h-27.862c-5.91 0-21.108 5.503-28.707 8.647s-40.527 23.582-48.126 25.155c-7.599 1.572-27.942 5.71-54.115-.579-26.174-6.289-37.914-19.073-47.202-25.362-9.287-6.289-14.353-16.508-22.374-18.473-8.021-1.965-22.374-6.682-28.284-6.682s-39.682 1.572-39.682 1.572V524h808.848l16.042-244.472c-.001 0-17.731-4.717-21.953-6.289z"/><path clip-path="url(#b)" fill="#8C3300" d="M754.901 293.825c-1.192 0-7.152 2.012-11.523 2.012-4.371 0-17.483 8.451-20.265 10.06-2.781 1.61-10.331 12.475-14.702 15.694-4.371 3.219-15.496 10.865-16.291 14.889-.795 4.024-12.318 17.706-14.702 21.328-2.384 3.622-5.166.805-7.947.805-2.781 0-5.563 10.865-9.139 16.902-3.576 6.036-27.02 16.902-30.993 18.511-3.974 1.61-12.318-3.219-15.894-3.219s-17.881 7.244-21.854 7.244c-3.974 0-11.126-5.232-14.304-8.451-3.179-3.219-13.113-5.634-14.304-5.634-1.192 0-17.881 1.61-19.073 1.61-1.192 0-9.536 0-11.92.805-2.384.805-9.934 2.817-11.92 2.817-1.987 0-19.271-2.213-20.662-3.622-1.391-1.409-10.728 0-12.318 0-1.589 0-18.278 15.292-18.278 15.292s-26.622 10.865-28.609 12.877c-1.987 2.012-12.318 8.853-12.318 8.853l-22.649 1.61-16.291 1.207s13.588 2.574-1.412 2.574c-5 0-31-3.038-36-3.038s-50-16.415-63-16.415-57-7.891-60-10.929-21-5.064-25-5.064-12 6.077-16.928 6.077c-4.928 0-12.072-1.013-20.072-1.013s-14.5 5.57-19 10.128c-4.5 4.557-54.5-11.647-62.824-15.192-8.325-3.545-43.176-48.613-50.176-58.741s-13-20.255-25-23.294-57-17.217-57-17.217l-6.667 213.694h830.667v-213.16h-21.632z"/><g clip-path="url(#b)" fill="#8C3300"><path d="M525.409 389.754l.631-.211c-1.048-1.734-3.122-2.863-3.122-2.863 1.148.984 2.491 3.074 2.491 3.074z"/><path d="M524.965 383.52s.176 2.102.994 4.572c-1.497-2.541-3.361-4.333-3.361-4.333 1.467 1.937 3.402 5.798 3.402 5.798l.447-.15.184-.061.277-.093s-1.464-3.659-1.943-5.733zm3.8 5.112s.632-2.489 1.447-3.989c0 0-1.696 2.203-2.154 4.225l.707-.236z"/><path d="M527.703 387.905c-.064-1.234-.134-3.276 0-4.642 0 0-.315 1.291-.449 3.027-.229-1.601-.464-3.59-.466-5.028 0 0-.313 2.056-.19 4.71-.305-1.693-.627-3.723-.721-5.2 0 0-.286 4.214.711 8.588l.392-.131.239-.08.034-.011.261-.087.172-.058.082-.027.451-.151s.62-4.251 1.429-6.698c-.002-.001-1.335 2.742-1.945 5.788z"/></g><g clip-path="url(#b)" fill="#8C3300"><path d="M528.714 388.613l.665-.034c-.544-1.951-2.237-3.597-2.237-3.597.84 1.256 1.572 3.631 1.572 3.631z"/><path d="M529.962 382.488s-.396 2.072-.271 4.671c-.759-2.85-2.073-5.077-2.073-5.077.892 2.26 1.719 6.499 1.719 6.499l.471-.024.194-.01.291-.015s-.428-3.918-.331-6.044zm2.285 5.945s1.278-2.228 2.466-3.453c0 0-2.225 1.666-3.21 3.491l.744-.038z"/><path d="M531.42 387.448c.27-1.206.751-3.192 1.247-4.471 0 0-.651 1.159-1.246 2.795.21-1.604.518-3.583.902-4.968 0 0-.854 1.896-1.448 4.486.161-1.712.397-3.755.703-5.202 0 0-1.408 3.982-1.624 8.463l.412-.021.252-.013.036-.002.274-.014.182-.009.087-.005.475-.024s1.739-3.928 3.176-6.068c0-.001-2.022 2.283-3.428 5.053z"/></g><g clip-path="url(#b)" fill="#8C3300"><path d="M246.136 403.564l.847.08c-.327-2.57-2.166-4.966-2.166-4.966.833 1.745 1.319 4.886 1.319 4.886z"/><path d="M248.849 396.043s-.884 2.549-1.207 5.861c-.433-3.747-1.684-6.809-1.684-6.809.711 3.025.973 8.544.973 8.544l.6.057.247.023.372.035s.184-5.038.699-7.711zm1.793 7.947s2.029-2.583 3.76-3.914c0 0-3.125 1.697-4.709 3.824l.949.09z"/><path d="M249.777 402.59c.565-1.476 1.542-3.901 2.406-5.428 0 0-1.038 1.346-2.094 3.306.562-1.991 1.319-4.439 2.061-6.121 0 0-1.432 2.242-2.663 5.409.521-2.137 1.197-4.679 1.852-6.454 0 0-2.519 4.78-3.621 10.41l.526.05.321.03.046.004.35.033.232.022.111.01.606.057s2.928-4.649 5.143-7.092c-.002.002-2.983 2.518-5.276 5.764z"/></g><g clip-path="url(#b)" fill="#8C3300"><path d="M257.185 405.38l1.519.144c-.774-2.613-4.236-5.162-4.236-5.162 1.615 1.819 2.717 5.018 2.717 5.018z"/><path d="M261.469 398.008s-1.389 2.501-1.72 5.813c-1.051-3.806-3.512-6.982-3.512-6.982 1.494 3.099 2.371 8.676 2.371 8.676l1.076.102.442.042.666.063c.001-.001-.044-5.06.677-7.714zm3.791 8.136s3.43-2.451 6.422-3.662c0 0-5.453 1.477-8.122 3.501l1.7.161z"/><path d="M263.612 404.67c.9-1.444 2.462-3.814 3.891-5.287 0 0-1.753 1.279-3.493 3.174.856-1.963 2.025-4.372 3.225-6.011 0 0-2.389 2.151-4.353 5.25.771-2.114 1.79-4.623 2.827-6.362 0 0-4.141 4.626-5.691 10.214l.943.089.576.054.081.008.627.059.415.039.198.019 1.087.103s4.882-4.464 8.654-6.76c0 .001-5.135 2.313-8.987 5.411z"/></g><g clip-path="url(#b)" fill="#8C3300"><path d="M466.406 402.243l1.116-.537c-2.236-2.741-6.239-4.155-6.239-4.155 2.282 1.407 5.123 4.692 5.123 4.692z"/><path d="M464.451 391.493s.707 3.617 2.658 7.703c-3.205-4.029-6.946-6.653-6.946-6.653 3.04 2.983 7.29 9.196 7.29 9.196l.791-.381.325-.156.49-.236s-3.352-5.986-4.608-9.473zm7.891 7.893s.7-4.509 1.918-7.341c0 0-2.7 4.295-3.168 7.943l1.25-.602z"/><path d="M470.265 398.404c-.343-2.134-.846-5.676-.852-8.091 0 0-.34 2.335-.268 5.397-.712-2.73-1.507-6.135-1.775-8.639 0 0-.196 3.668.516 8.262-.868-2.869-1.83-6.323-2.273-8.871 0 0 .25 7.423 2.874 14.78l.693-.333.423-.204.06-.029.461-.222.305-.147.146-.07.799-.384s.355-7.576 1.387-12.06c.001-.001-1.937 5.137-2.496 10.611z"/></g><path clip-path="url(#b)" fill="#521200" d="M-49.562 388.692s40.533-1.746 46-2.795 28.366-6.86 37.367-6.86 33.036 23.165 47.036 23.165 58.692 20.494 62.692 20.494 25 4.196 35 0 35.072 1.253 49.036 1.253c13.964 0 57.964 5.041 57.964 5.041 12 2.098 64 10.491 74 6.294s47 5.076 58-1.219 40-.88 44-5.076 27.387-11.641 33.387-14.788c6-3.147 20.614 3.248 30.614 1.15 10-2.098 34-14.707 44-14.707s52 9.115 58 9.115 27-19.17 40-21.268c13-2.098 43 28.959 52 26.861 9-2.098 34-12.589 38-12.589s26-18.883 26-18.883v133.233h-821l-12.096-128.421z"/><path clip-path="url(#b)" fill="#521200" d="M163.428 356.621c-.977 0-1.541.436-1.541 3.449 0 3.088.409 26.659.409 29.014 0 2.355.152 3.74-1.062 3.74-1.213 0-1.517-.762-1.517-2.216v-17.261c0-1.614-.215-2.217-1.042-2.217-.827 0-1.511.16-1.511 1.598s.277 7.977.277 9.224c0 1.247.076 1.801-.91 1.801s-1.365-.415-1.365-1.731v-41.567c0-.868-.459-1.736-1.564-1.736s-1.193.686-1.193 1.897c0 1.211-.15 36.535-.15 41.059 0 4.525.326 5.849 3.431 6.45v8.578s.007 2.493-1.964 2.286c-1.972-.208-3.64-.485-3.64-5.748s.253-33.5.253-35.163c0-1.662-.099-2.446-1.223-2.446s-1.864.774-1.864 3.08v38.753c0 3.001 1.663 6.556 8.087 7.11v26.971h8.087v-27.802s7.841-.138 7.841-4.617v-29.849c0-1.563-.459-2.056-1.449-2.056-.991 0-1.801.576-1.801 2.139v24.721c0 1.234-.225 1.974-.901 1.974-.675 0-1.621.288-1.621-2.18v-35.011c0-1.316-.859-2.244-2.067-2.244zm295.023 75.073l7.845-7.983-9.025 6.607s3.795-5.349 5.948-7.59l-6.561 6.31s1.28-5.091 2.459-9.063c0 0-2.615 4.601-3.436 7.944l-.256-8.495-.974 9.124s-2.154-9.714-2.308-9.714c-.154 0 1.128 9.163 1.179 9.95l-2.769-7.118 1.487 7.118s-2.923-5.349-4.513-8.927c0 0 2.615 8.455 3.384 9.832l-4.307-4.798s2.974 4.837 3.538 5.27l-8.307-4.995 7.282 5.585s-8.563-2.124-8.563-2.006c0 .118 9.691 3.972 9.691 3.972h8.204s5.743-2.792 9.281-4.09c.002-.001-7.536 2.516-9.279 3.067zm116.978-30.208l9.154-12.146-10.53 10.052s4.427-8.137 6.94-11.548l-7.656 9.6s1.493-7.745 2.869-13.788c0 0-3.052 7-4.009 12.086l-.299-12.924-1.137 13.881s-2.513-14.779-2.693-14.779 1.316 13.941 1.376 15.138l-3.231-10.83 1.735 10.83s-3.41-8.137-5.265-13.582c0 0 3.052 12.864 3.949 14.958l-5.026-7.299s3.47 7.359 4.128 8.017l-9.693-7.599 8.496 8.496s-9.992-3.231-9.992-3.052 11.308 6.043 11.308 6.043h9.573s6.701-4.248 10.83-6.223c.002.002-8.793 3.831-10.827 4.669zm70.987-24.716c-.989 0-1.648 1.154-1.401 3.791.247 2.637.495 7.17.495 8.736 0 1.566-.659 2.39-1.731 2.39s-1.483-.495-1.483-1.978-.33-26.707-.33-30.416c0-3.709-2.308-3.214-3.214-3.214-.907 0-1.154 2.39-1.154 3.956 0 1.566.082 26.213.082 27.943 0 1.731-.742 2.225-1.813 2.225s-2.63-1.071-2.63-2.802-.172-32.693-.007-38.38c.165-5.687-2.72-5.357-4.368-5.192-1.648.165-2.72 1.401-2.72 5.604s.495 37.885.659 41.512c.191 4.2-6.099 1.896-6.428 0-.33-1.896-.605-18.327-.742-21.625-.206-4.986-2.06-5.44-3.874-4.945-1.813.495-3.049 2.637-2.967 5.11.082 2.472.907 23.52 1.236 25.416s1.236 4.038 4.368 4.368c3.132.33 9.478.082 9.478.082l.577 15.989h6.511l-.989-16.236s1.072-.659 4.863-.906c3.791-.247 8.736-.412 9.23-2.06.495-1.648.742-10.549.742-14.753 0-4.203-1.401-4.615-2.39-4.615z"/><g clip-path="url(#b)" fill="#521200"><path d="M123.889 422.561h1.871c-1.247-6.757-5.769-12.67-5.769-12.67 2.183 4.434 3.898 12.67 3.898 12.67z"/><path d="M128.268 401.866s-1.407 7.005-1.428 15.901c-1.723-9.863-5.095-17.696-5.095-17.696 2.183 7.872 3.898 22.49 3.898 22.49h2.691s-.64-13.452-.066-20.695zm5.569 20.695s3.905-7.385 7.418-11.362c0 0-6.487 5.302-9.512 11.362h2.094z"/><path d="M131.654 419.053c.931-4.07 2.566-10.768 4.14-15.049 0 0-1.993 3.844-3.899 9.325.818-5.439 1.967-12.143 3.242-16.806 0 0-2.669 6.326-4.708 15.066.698-5.819 1.651-12.751 2.717-17.641 0 0-4.521 13.353-5.769 28.614h4.838s5.444-13.108 9.786-20.167c.001-.001-6.002 7.444-10.347 16.658z"/></g><g clip-path="url(#b)" fill="#521200"><path d="M161.564 425.839h1.105c-.737-3.992-3.407-7.484-3.407-7.484 1.289 2.619 2.302 7.484 2.302 7.484z"/><path d="M164.15 413.614s-.831 4.138-.844 9.392c-1.018-5.826-3.009-10.453-3.009-10.453 1.289 4.65 2.302 13.285 2.302 13.285h1.59c0 .001-.378-7.945-.039-12.224zm3.29 12.225s2.307-4.362 4.382-6.711c0 0-3.832 3.132-5.619 6.711h1.237z"/><path d="M166.15 423.767c.55-2.404 1.515-6.361 2.446-8.89 0 0-1.177 2.271-2.303 5.508.483-3.213 1.162-7.173 1.915-9.927 0 0-1.576 3.737-2.781 8.899.412-3.437.975-7.532 1.605-10.421 0 0-2.671 7.888-3.407 16.902h2.857s3.216-7.743 5.78-11.913c.001.001-3.545 4.399-6.112 9.842z"/></g><g clip-path="url(#b)" fill="#521200"><path d="M152.018 426.878l1.075-.255c-1.638-3.714-5.042-6.496-5.042-6.496 1.859 2.252 3.967 6.751 3.967 6.751z"/><path d="M151.714 414.387s.146 4.218 1.346 9.334c-2.335-5.434-5.34-9.476-5.34-9.476 2.327 4.227 5.305 12.395 5.305 12.395l.762-.181.313-.074.471-.112c.002-.001-2.2-7.645-2.857-11.886zm6.021 11.135s1.238-4.777 2.715-7.541c0 0-3.006 3.932-3.919 7.827l1.204-.286z"/><path d="M156.003 423.804c-.019-2.466.007-6.539.328-9.214 0 0-.621 2.481-.97 5.891-.271-3.238-.525-7.248-.427-10.101 0 0-.672 4-.653 9.301-.392-3.439-.789-7.554-.843-10.51 0 0-.779 8.291.585 17.232l.667-.158.408-.097.058-.014.444-.105.294-.07.141-.033.769-.182s1.342-8.276 2.876-12.925c0 0-2.436 5.097-3.677 10.985z"/></g><path clip-path="url(#b)" fill="#330900" d="M765.085 379.039c-.667.635-34 4.762-39 6.667-5 1.905-8 15.557-11 16.827s-9.333-1.905-19-3.456-38 9.488-43.667 13.298c-5.667 3.81-43 23.177-46.333 25.399-3.333 2.222-14 7.302-16 8.255-2 .952-7.333-2.223-10-2.223s-15 5.08-20.333 7.937c-5.333 2.857-21 3.81-24.333 3.81-7 0-17-13.017-20-14.922-3-1.905-29 1.587-34 1.587s-25.667-8.572-28-12.065c-2.333-3.492-23.724-14.693-26.474-14.88-2.75-.187-8.448 2.433-9.037 2.994-.589.561-6.091 0-7.466 0s-16.307-4.117-18.861-4.491c-2.554-.374-31.042-7.298-31.926-7.766-.884-.468-6.68-6.362-7.171-6.83-.491-.468-10.02.749-10.806 1.497-.786.749-5.501-.374-6.483-.374-.982 0-26.72 2.058-28.291 2.433-1.572.374-47.545 9.918-52.85 13.286-5.305 3.368-19.45 7.859-21.022 8.795-1.572.936-1.965.749-3.929 1.684-1.965.936-4.715.749-8.448 2.058-3.733 1.31-10.609 2.058-10.609 2.058l-6.876 1.31-5.108 1.123s-4.715.936-5.108 1.31c-.393.374-1.965 1.123-3.143 1.667-1.179.544-4.912.017-6.68-.544-1.768-.561-13.163 4.865-15.717 5.988-2.554 1.123-21.022 6.549-22.594 7.111-1.572.561-9.038 2.433-10.806 2.807-1.768.374-27.259 1.306-35.259 1.306h-49c-6 0-34-7.62-39-7.62s-14-12.382-21-16.192c-7-3.81-33-9.525-33-9.525l2 87.626h806.333c-.003.001.664-128.58-.003-127.945z"/><path clip-path="url(#b)" fill="#330900" d="M421.264 294.658c-1.825 0-2.879.814-2.879 6.444 0 5.77.764 49.808.764 54.207 0 4.399.283 6.987-1.983 6.987-2.267 0-2.833-1.423-2.833-4.141v-32.25c0-3.016-.401-4.142-1.946-4.142s-2.823.299-2.823 2.985.518 14.904.518 17.233.142 3.364-1.7 3.364c-1.842 0-2.55-.776-2.55-3.235v-77.661c0-1.621-.857-3.242-2.922-3.242s-2.229 1.282-2.229 3.544-.28 68.258-.28 76.712c0 8.454.609 10.928 6.409 12.051v16.027s.013 4.658-3.67 4.27c-3.684-.388-6.801-.906-6.801-10.74s.472-62.59.472-65.695-.184-4.57-2.284-4.57c-2.101 0-3.482 1.445-3.482 5.755v72.404c0 5.607 3.107 12.249 15.11 13.284v50.391h15.11v-51.944s14.65-.259 14.65-8.626v-55.767c0-2.92-.857-3.842-2.708-3.842-1.851 0-3.365 1.076-3.365 3.996v46.187c0 2.305-.421 3.688-1.683 3.688s-3.029.538-3.029-4.072v-65.412c0-2.458-1.609-4.19-3.866-4.19zm-73.016 108.018l10.835-14.376-12.464 11.898s5.241-9.632 8.215-13.668l-9.062 11.363s1.768-9.167 3.396-16.32c0 0-3.612 8.286-4.745 14.306l-.354-15.297-1.346 16.43s-2.974-17.493-3.187-17.493c-.212 0 1.558 16.501 1.629 17.918l-3.824-12.819 2.054 12.819s-4.037-9.632-6.232-16.076c0 0 3.612 15.226 4.674 17.705l-5.949-8.64s4.108 8.711 4.886 9.49l-11.473-8.994 10.056 10.056s-11.827-3.824-11.827-3.612c0 .212 13.385 7.153 13.385 7.153l5.187 1.72 6.144-1.72s7.932-5.028 12.818-7.365c.003-.002-10.408 4.531-12.816 5.522zm-50.806 5.223l3.901-11.568-4.945 9.797s1.623-7.621 2.685-10.865l-3.328 9.175s-.036-7.048.059-12.563c0 0-.956 6.499-.919 11.126l-1.681-11.55.958 12.516s-3.183-13.043-3.287-13.03c-.104.013 2.39 12.384 2.564 13.451l-3.139-9.453 2.271 9.566s-2.93-7.029-4.642-11.764c0 0 3.272 11.288 4.038 13.096l-3.771-6.156s2.874 6.327 3.333 6.867l-6.516-6.071 5.926 6.965s-6.181-2.137-6.16-1.977c.021.161 7.273 4.556 7.273 4.556l2.715.97 2.846-1.694s3.397-4.311 5.565-6.391c0-.001-4.662 4.093-5.746 4.997zm396.146-8.312l9.12-15.675-11.045 13.39s4.091-10.26 6.583-14.653l-7.706 12.448s.672-9.38 1.447-16.73c0 0-2.622 8.72-3.036 14.876l-2.182-15.258.618 16.595s-5.066-17.141-5.278-17.116c-.213.025 3.531 16.318 3.771 17.727l-5.357-12.364 3.586 12.576s-5.189-9.151-8.155-15.335c0 0 5.433 14.798 6.791 17.15l-6.983-7.931s5.15 8.222 6.022 8.908l-12.55-7.625 11.261 8.857s-12.287-2.411-12.261-2.199c.025.213 14.243 5.555 14.243 5.555l5.393 1.1 5.94-2.455s7.333-5.977 11.941-8.899c-.002.001-9.873 5.778-12.163 7.058z"/><path clip-path="url(#b)" fill="#330900" d="M428.199 417.146l9.991-11.217-10.31 8.707s5.515-7.847 8.281-11.008l-8.188 8.783s3.37-7.999 6.145-14.199c0 0-4.221 6.898-6.418 12.156l3.694-13.892-4.975 14.636s2.724-16.308 2.6-16.343c-.124-.035-3.299 15.178-3.618 16.471l1.036-12.221-2.07 11.93s.1-9.374.462-15.564c0 0-1.775 14.364-1.786 16.78l-1.269-8.793s.176 8.553.432 9.386l-4.404-10.022 3.306 10.749s-5.929-5.405-5.983-5.213c-.054.192 5.78 13.118 5.78 13.118l2.799-2.038 4.025-.544s5.912-3.241 9.361-4.55c.001.003-7.232 2.388-8.891 2.888zm-115.917-35.727c-.575-1.917-3.066-4.216-4.121-2.971-1.054 1.246-.383 6.708-.767 7.379s-4.216 1.437-4.504.288c-.288-1.15.096-23.19.096-23.19s4.164.479 4.669-2.779c.505-3.258.41-9.391-1.028-9.966-1.437-.575-2.971.479-2.779 2.204.192 1.725.383 5.366-1.246 5.366 0 0 .479-12.457-4.791-13.991-5.27-1.533-8.049 1.15-7.474 7.474.575 6.325 1.629 22.96 1.629 25.375 0 2.415-3.066 3.086-4.6 3.086-1.533 0-4.312-1.342-4.408-3.354-.096-2.012 1.629-11.787.767-14.086-.862-2.3-5.654-3.546-8.049-.862-2.396 2.683-.192 13.224.479 15.62.671 2.396 2.124 5.478 5.894 6.272 2.001.421 9.325.893 10.913 3.075 1.587 2.183 1.291 17.173.596 23.522h10.292s-1.315-11.882-1.124-17.249h5.532c1.342 0 3.45-.958 3.737-3.546.287-2.589.862-5.751.287-7.667zm-201.129 22.085c-1.275 0-2.125 1.488-1.806 4.888.319 3.4.638 9.245.638 11.264s-.85 3.082-2.232 3.082c-1.382 0-1.913-.638-1.913-2.55s-.425-34.435-.425-39.217c0-4.782-2.975-4.144-4.144-4.144s-1.488 3.082-1.488 5.101.106 33.797.106 36.029c0 2.232-.956 2.869-2.338 2.869s-3.392-1.381-3.392-3.613c0-2.231-.221-42.153-.009-49.485.213-7.332-3.507-6.907-5.632-6.695-2.125.212-3.507 1.806-3.507 7.226 0 5.419.638 48.848.85 53.523.246 5.415-7.863 2.444-8.289 0-.425-2.444-.781-23.63-.956-27.882-.266-6.429-2.657-7.013-4.994-6.376-2.338.638-3.932 3.4-3.826 6.588.106 3.188 1.169 30.326 1.594 32.77.425 2.444 1.594 5.207 5.632 5.632 4.038.425 12.22.106 12.22.106l.744 20.615h8.395l-1.275-20.934s1.382-.85 6.27-1.169c4.888-.319 11.264-.531 11.901-2.657.638-2.125.957-13.602.957-19.021.001-5.419-1.805-5.95-3.081-5.95z"/><g clip-path="url(#b)" fill="#330900"><path d="M92.719 455.618h1.488c-.992-5.375-4.589-10.079-4.589-10.079 1.737 3.528 3.101 10.079 3.101 10.079z"/><path d="M96.203 439.156s-1.119 5.573-1.136 12.648c-1.371-7.846-4.053-14.076-4.053-14.076 1.736 6.262 3.1 17.89 3.1 17.89h2.142c-.001 0-.51-10.7-.053-16.462zm4.43 16.462s3.106-5.875 5.901-9.038c0 0-5.16 4.218-7.567 9.038h1.666z"/><path d="M98.896 452.827c.741-3.238 2.041-8.566 3.294-11.971 0 0-1.585 3.058-3.101 7.418.651-4.327 1.565-9.66 2.579-13.369 0 0-2.123 5.032-3.745 11.984.555-4.629 1.313-10.143 2.161-14.033 0 0-3.597 10.622-4.589 22.761h3.85s4.331-10.427 7.784-16.042c-.001.001-4.777 5.923-8.233 13.252z"/></g><g clip-path="url(#b)" fill="#330900"><path d="M213.4 434.641l2.455-.41c-3.117-8.595-10.346-15.365-10.346-15.365 3.836 5.342 7.891 15.775 7.891 15.775z"/><path d="M214.613 406.521s-.312 9.502 1.609 21.181c-4.422-12.568-10.563-22.108-10.563-22.108 4.589 9.853 10.042 28.662 10.042 28.662l1.74-.29.715-.119 1.077-.18s-3.787-17.514-4.62-27.146zm11.842 25.94s3.508-10.548 7.246-16.536c0 0-7.352 8.38-9.995 16.995l2.749-.459z"/><path d="M222.822 428.336c.331-5.546 1.008-14.695 2.137-20.658 0 0-1.773 5.482-3.074 13.093-.117-7.318-.079-16.368.574-22.767 0 0-2.117 8.888-2.879 20.804-.359-7.789-.626-17.097-.299-23.748 0 0-3.009 18.515-1.302 38.817l1.524-.254.931-.155.132-.022 1.014-.169.671-.112.321-.054 1.757-.293s4.274-18.397 8.425-28.611c0-.002-6.248 11.085-9.932 24.129z"/></g><g clip-path="url(#b)" fill="#330900"><path d="M3.338 449.081h2.917C4.31 438.543-2.74 429.323-2.74 429.323c3.403 6.915 6.078 19.758 6.078 19.758z"/><path d="M10.166 416.81s-2.194 10.924-2.227 24.795c-2.686-15.381-7.944-27.594-7.944-27.594 3.404 12.275 6.078 35.07 6.078 35.07h4.196s-.999-20.976-.103-32.271zm8.684 32.271s6.09-11.516 11.567-17.717c0 0-10.115 8.268-14.833 17.717h3.266z"/><path d="M15.445 443.61c1.452-6.347 4.001-16.792 6.456-23.467 0 0-3.107 5.994-6.079 14.541 1.276-8.482 3.067-18.936 5.056-26.207 0 0-4.161 9.865-7.342 23.492 1.088-9.073 2.575-19.884 4.236-27.509 0 0-7.051 20.822-8.995 44.619h7.545s8.49-20.441 15.259-31.447c.001.001-9.36 11.611-16.136 25.978z"/></g><g clip-path="url(#b)" fill="#330900"><path d="M90.443 455.618h-1.488c.992-5.375 4.589-10.079 4.589-10.079-1.737 3.528-3.101 10.079-3.101 10.079z"/><path d="M86.96 439.156s1.119 5.573 1.136 12.648c1.37-7.846 4.053-14.076 4.053-14.076-1.736 6.262-3.101 17.89-3.101 17.89h-2.141s.509-10.7.053-16.462zm-4.43 16.462s-3.107-5.875-5.901-9.038c0 0 5.16 4.218 7.567 9.038H82.53z"/><path d="M84.266 452.827c-.741-3.238-2.041-8.566-3.294-11.971 0 0 1.585 3.058 3.101 7.418-.651-4.327-1.565-9.66-2.579-13.369 0 0 2.123 5.032 3.745 11.984-.555-4.629-1.313-10.143-2.161-14.033 0 0 3.597 10.622 4.589 22.761h-3.85s-4.331-10.427-7.784-16.042c.002.001 4.777 5.923 8.233 13.252z"/></g><path opacity=".2" clip-path="url(#b)" fill="#F55636" d="M0 0h750v500H0z"/><linearGradient id="w" gradientUnits="userSpaceOnUse" x1="375" y1="500" x2="375" y2="-45.005"><stop offset=".244" stop-color="#ffd13d" stop-opacity="0"/><stop offset=".583" stop-color="#ff9149" stop-opacity=".448"/><stop offset="1" stop-color="#ff3e58"/></linearGradient><path clip-path="url(#b)" fill="url(#w)" d="M0 0h750v500H0z"/><linearGradient id="x" gradientUnits="userSpaceOnUse" x1="103.978" y1="204.237" x2="103.978" y2="176.559"><stop offset="0" stop-color="#fff" stop-opacity="0"/><stop offset="1" stop-color="#fff"/></linearGradient><path opacity=".28" clip-path="url(#b)" fill="url(#x)" d="M134.157 190.946c-2.499-8.322-10.215-14.388-19.351-14.388-9.796 0-17.961 6.971-19.811 16.222a11.302 11.302 0 00-6.266-1.888c-4.523 0-8.417 2.65-10.245 6.476a9.032 9.032 0 00-5.919-2.206 9.074 9.074 0 00-9.074 9.074h80.975c0-5.919-2.593-12.123-10.309-13.29z"/><linearGradient id="y" gradientUnits="userSpaceOnUse" x1="538.774" y1="141.019" x2="538.774" y2="116.653" gradientTransform="matrix(-1 0 0 1 1034.067 0)"><stop offset="0" stop-color="#fff" stop-opacity="0"/><stop offset="1" stop-color="#fff"/></linearGradient><path opacity=".2" clip-path="url(#b)" fill="url(#y)" d="M458.966 135.79c1.063 0 2.05.319 2.876.864a7.89 7.89 0 0111.112-2.1c2.234-3.847 6.389-6.44 11.158-6.44.993 0 1.956.123 2.884.335 3.141-6.953 10.131-11.795 18.256-11.795 7.047 0 13.239 3.643 16.809 9.145a8.413 8.413 0 011.438-.132 8.345 8.345 0 018.345 8.344c0 .213-.016.422-.032.631 2.888.689 5.039 3.28 5.039 6.379h-83.112a5.226 5.226 0 015.227-5.231z"/><linearGradient id="z" gradientUnits="userSpaceOnUse" x1="-171.013" y1="72.66" x2="-171.013" y2="40.564" gradientTransform="matrix(-1.1809 0 0 1 99.257 0)"><stop offset="0" stop-color="#fff" stop-opacity="0"/><stop offset="1" stop-color="#fff"/></linearGradient><path opacity=".4" clip-path="url(#b)" fill="url(#z)" d="M250.406 65.772c1.486 0 2.867.42 4.021 1.138 1.979-2.805 5.361-4.655 9.204-4.655 2.359 0 4.54.702 6.335 1.889 3.124-5.067 8.934-8.484 15.603-8.484 1.388 0 2.734.162 4.033.441 4.392-9.159 14.167-15.536 25.529-15.536 9.854 0 18.514 4.798 23.505 12.046a12.439 12.439 0 012.011-.174c6.445 0 11.669 4.921 11.669 10.992 0 .281-.022.556-.044.831 4.039.907 7.046 4.32 7.046 8.402H243.094c0-3.806 3.274-6.89 7.312-6.89z"/><linearGradient id="A" gradientUnits="userSpaceOnUse" x1="-384.409" y1="204.237" x2="-384.409" y2="172.141" gradientTransform="matrix(1.1809 0 0 1 1025.822 0)"><stop offset="0" stop-color="#fff" stop-opacity="0"/><stop offset="1" stop-color="#fff"/></linearGradient><path opacity=".4" clip-path="url(#b)" fill="url(#A)" d="M622.672 197.348c-1.486 0-2.867.42-4.021 1.138-1.979-2.805-5.361-4.655-9.204-4.655-2.359 0-4.54.702-6.335 1.889-3.124-5.067-8.934-8.484-15.603-8.484-1.389 0-2.735.162-4.033.441-4.392-9.159-14.167-15.537-25.529-15.537-9.854 0-18.514 4.798-23.505 12.045a12.439 12.439 0 00-2.011-.174c-6.445 0-11.669 4.921-11.669 10.992 0 .281.023.556.044.831-4.039.907-7.046 4.32-7.046 8.402h116.225c0-3.804-3.274-6.888-7.313-6.888z"/><linearGradient id="B" gradientUnits="userSpaceOnUse" x1="-150.594" y1="158.842" x2="-150.594" y2="128.836" gradientTransform="matrix(-1 0 0 1 282.51 0)"><stop offset="0" stop-color="#fff" stop-opacity="0"/><stop offset="1" stop-color="#fff"/></linearGradient><path opacity=".48" clip-path="url(#b)" fill="url(#B)" d="M389.672 147.897a10.89 10.89 0 017.377 2.877c3.039-6.492 9.627-10.992 17.269-10.992 1.089 0 2.156.096 3.195.272-.002-.091-.014-.18-.014-.272 0-6.045 4.9-10.945 10.945-10.945 3.505 0 6.617 1.654 8.62 4.216a27.692 27.692 0 0110.316-1.987c11.662 0 21.639 7.19 25.756 17.376a10.915 10.915 0 013.399-.545c6.045 0 10.945 4.9 10.945 10.945H378.727c0-6.045 4.9-10.945 10.945-10.945z"/><linearGradient id="C" gradientUnits="userSpaceOnUse" x1="243.958" y1="120.656" x2="243.958" y2="69.51" gradientTransform="matrix(-1 0 0 1 282.51 0)"><stop offset="0" stop-color="#fff" stop-opacity="0"/><stop offset="1" stop-color="#fff"/></linearGradient><path opacity=".4" clip-path="url(#b)" fill="url(#C)" d="M-35.478 101.999c4.852 0 9.257 1.868 12.575 4.903 5.18-11.067 16.409-18.736 29.435-18.736 1.857 0 3.674.164 5.446.463-.004-.155-.024-.307-.024-.463 0-10.304 8.353-18.656 18.656-18.656 5.974 0 11.278 2.818 14.693 7.186a47.199 47.199 0 0117.583-3.387c19.878 0 36.884 12.256 43.902 29.618a18.62 18.62 0 015.793-.929c10.304 0 18.656 8.353 18.656 18.656H-54.134c0-10.302 8.353-18.655 18.656-18.655z"/></svg>