<svg xmlns="http://www.w3.org/2000/svg" xmlns:xlink="http://www.w3.org/1999/xlink" viewBox="0 0 750 500"><linearGradient id="a" gradientUnits="userSpaceOnUse" x1="375" y1="219.49" x2="375" y2="515.93" gradientTransform="matrix(1 0 0 -1 0 502)"><stop offset="0" stop-color="#e6dfcc"/><stop offset=".53" stop-color="#e5d9c3"/><stop offset="1" stop-color="#ccbda6"/></linearGradient><path fill="url(#a)" d="M0 0h750v500H0z"/><defs><path id="b" d="M0 0h750v500H0z"/></defs><clipPath id="c"><use xlink:href="#b" overflow="visible"/></clipPath><g clip-path="url(#c)" opacity=".5"><linearGradient id="d" gradientUnits="userSpaceOnUse" x1="503.11" y1="248.35" x2="503.11" y2="342.3" gradientTransform="matrix(1 0 0 -1 0 502)"><stop offset="0" stop-color="#e6dfcc"/><stop offset=".53" stop-color="#e5d9c3"/><stop offset="1" stop-color="#ccbda6"/></linearGradient><path d="M506.6 210.4l3.3-.9-4-2.8c3.5.1 5.8.1 8.2.1.6 0 1.2-.1 1.7-.2-.2-.3-.5-.5-.8-.6-.4-.1-.8-.1-1.3-.1l-16.2-1.5-.5-1.4-4.7.8c-.1-1.6 7.4-4.2 15.3-5.1l-2.2 1.7 5.7-.4 12.1 5.7c1-1.3 2-2.7 2.8-4.1.2-.4-.7-1.2-1.7-1.3-6.5-.9-6.5-.9-2-3.3l2.5 1.2c3.3-1.1 5.2-4 3.5-5-3.6-2.2-4.7-2.4-11.7-1.5l2.6 1.1c-2.6.4-2.6.4-6.2-1.2 2-.7 4.1-1.3 6.2-1.8 2.4-.5 5.2-.6 7.8-1 3.5-.5 7.1-1 10.5-1.6 2.7-.5 5-1.2 7.6-1.8.6-.1 1.2-.2 1.8-.2 5 1.9 9.8-.7 14.7-.6 1.8 0 3.8-.2 5.6-.1.7.1 1.3.5 1.7 1 .2.2-.5.6-.2.7.9.2 1.8.3 2.7.4 1.1-1.3 7.1 1.2 6.4-1.7l6.1 1.8 2.8-1.6 2.1 2.2 4.2-.3c-1.6 2.1-2.3 2.2-6.4 1-1.9-.5-4.1.2-4.8 1.3 1.2.3 2.1.6 3.2.8 1.2.2 2.4.3 3.6.3 2.7 0 5.4-.1 8 0s4.3.1 5.4-1.1c1.4-1.5 6-1.8 9.5-1.9 2.1.1 4.2.5 6.2 1.2.7.2.3.8-.6 1.4l5.5 2.1c-.1-.8-.4-1.1-.1-1.4.7-.9 1.4-2.1 5-1.9 6.7.5 13.4.2 20-1 1.3-2.6.5-3-5.8-3.9-.6-1.1-1.3-2.1-2.1-3-1.7-1.6-1.5-1.7 3.6-2 1.4-.2 2.8-.4 4.1-.7-.6-.5-1.2-.9-1.8-1.4-.4-.1-.7-.2-1.1-.3l-3.9-.9c7.8-2.1 15.2-4.3 23.3-6.1 3.5-.8 8.4-.4 12.7-.7 2-.1 3.9-.3 5.9-.4.4 0 1-.4 1.3-.3 5.1.6 10.3 1.1 15 1.9.9.2-.2 1.5-.2 1.9l10.7 2.6c2.7-2.2 8.4-3.3 14.7-4.4 5.8-1 9.8-4.8 9-7.7 3.5-.8 7.1-1.6 10.7-2.4 4.2-1 8.4-.2 9 .6 1.8 2 6.7 2.2 10.7 3 3.6.7 6.8 1.6 10.3 2.5L761 168c2.3 1.2 4.7 2.2 7.2 3 1.8.5 4.9.6 7.3.9 4.9.6 5.1 2.5 6.8 4 2.4 2 7 2.5 13.2 1.5 1.1 1 3.4.9 6.7.9 4.3-.1 8.2.6 12.1 1.1.1 0-.5.5-.7.8 7.9-1.3 13.9-.8 18.7.9l-12 17.5c-6.4-1.1-14.3-.4-21.4.2-6.2.5-12.4 2.1-18.3 3.1l3 .2c-2.1 2.3-1.4 2.5 7.1 2.5-.9.5-1.5 1.2-2.4 1.3-3.6.5-7.3.8-11.1 1.1 1 1.6-.7 2.8-6 3.4-4.7.6-7 1.5-7.3 2.9-5 .6-6 .9-4.4 1.5 3.4 1.3 2.8 1.7-2.7 2.5-1.2.1-2.3.5-3.4 1-2.8 2.5-9.5 3.7-15.3 4.3-5.2.6-6.5 1.8-9.4 2.8-1.7.5-3.3 1.3-4.9 2.2-2.2 1.4-4.9.5-7.3.7-.7.1-1.5.1-2.2.2-.2 1.5-.8 1.5-4.8 2.1-2.1.4-4.2.9-6.2 1.7-1 .4-2 .8-2.9 1.3l-1.9-1.1c-1 .6-2.1 1.2-3.2 1.7-4.7 1.8-4 2.9 2.3 3.2-.2.4-.8.8-.5 1.1 1.5 1.5 11 2 15.5.8 3.3-1.1 6.9-1.1 10.2 0l-7 .4c.8.3 1.5.5 2.3.6 2.7.2 5.5.2 8.2.4.7.1 1.5.3 2.2.6-.8.3-1.6.5-2.4.6-4.6.5-9.3 1.1-13.9 1.4-2.3.1-4.6 0-6.9-.2l.3-.3-16.9 3.1v.6l17.7.9c-.4 1.6 2.8 2.5 6.5 3.3 2.9.6 5.9 1.2 4.5 2.8h-76.9c1-1.4 4.4-1.6 6.3-1.7l9.8-3.1c-2.7 0-5.5-.1-8.4 0s-6 .4-8.9.6c-1 .6-2.2 1-3.4 1.1-1.6.2-3.3.2-4.9 0-2.3-.3-4.1-1.1-6.5-1.3-7.4-.5-14.9-.4-22.3.3-2.7.3-5.2.8-7.7 1.2-.2.4-.4.8-.5.9h-8c-5.9.1-5.9.1-6.8 2h-25.1c1.3-.5 2.6-.8 4-1 6.5-.1 13 0 19.9 0-.4-.2-.8-.7-1.5-.7-5.2-.2-10.5-.5-15.7-.3-2 .2-4 0-5.9-.7 3.3-.4 6.6-.6 9.9-.6 7.2.1 14.3.3 21.4.5.1 0 .3-.1.5-.2-4.5-1.2-4.7-2.6-.6-4 5-1.8 5.3-3.2.9-4.9-.6-.2-1.4-.4-2.2-.7l4.3-2c-1.4-.1-2.8-.2-4.2-.2-2.7.2-5.4.6-8.1.9l-.6-.4-1.6.9c-3.6-1-12.4-.8-15.6.5-3.7 1.4-8.1 1.8-12.9 1.8-2.1-.1-4.3-.4-6.4-.9l3.1-1.7c.1-.1.1-.2.1-.2-4.3.3-8.7.8-13 1-6.6.3-13.2.4-19.5 1.4-1.5.2-3.1.2-4.6 0-5.2-.6-9.9-1.8-16.2-1.3-.4 0-.8 0-1.1-.1-1.7-.9-5.9-1.2-3.9-2.8.8-.7-.2-1.6-.5-2.4l-1.1.5-10.7-1.1c-1.4-.3-2.9-.4-4.4-.5-4.1.5-8 1.3-12 1.9l-17.7 2.7c-.9.1-1.9.2-2.7.4-3.7.7-7.6.8-11.3.2-1.1-.2-2.3-.2-3.4 0-.9.3-1.8.9-2.4 1.7 1 .3 2 .4 3 .6.6.1 1.3.1 2.2.2 1.1-1.4 3.8-1.2 6.8-.7 2 .3 4 .6 5.9 1.1 4.2 1.3 9 1.1 13.7.4 3.7-.5 4.6 0 5.3.9.3.3.6.6 1 .9 5.5-1.4 5.5-1.4 7.7.8.7.5 1.5.7 2.4.8 5-.6 4.1.7 4.9 1.5.5.4 1.1.7 1.7 1 .6-.3 1.3-.6 1.8-1 .1-.1.3-.2.4-.3l11.1-.7c1.4-.1 2.8-.1 4.2-.2 5.5-.3 11.3-.3 16.4-.9 2.3-.4 4.6-.3 6.9.2 2.8.7 5.7 1.1 8.7 1.3 10 .1 16.9 2.1 25.5 3.1.2 0 .1.2.2.5h-5.3c-4.2.1-8.6-.6-12.6 1-1.3.5-5.4.4-8.2.4s-5.6-.1-8.5-.2c-1.8.1-3.6 0-5.5-.1-3.9-.5-7.8-.5-11.6.3-3.1.5-5.5.9-8.7.2-1.3-.1-2.7 0-4 .1l.4 1.2H194c-1.5-1.2-2.5-2.5-4.7-3.5s-5.6-1.7-8.5-2.5c-.9-.2-2.2-.3-3.2-.6-1.1-.3-2.1-.7-3.1-1 1-.3 2.1-.5 3.1-.8.8-.2 1.7-.5 2.5-.8 1.3-.7 2.8-.7 4.1-.1 2 .7 4.2 1.3 5.9 1.8 5.7-2.1 11.8-2.9 19.9-2-.1-.5-.2-.9-.3-1.3l4.7-.1c-.7-2-2.9-4.2 4.6-4.7l11.2.5c1.1-.8 1.1-.8-4.5-1.7-2.7-.4-5.6-.7-9.9-1.3 3.2-.4 5.3-.8 7.6-.9s5 0 7.5-.1c5.4-.1 5.7-.3 3.4-1.9 8.5-.6 12.1.1 12.1 2.2 3.1-.5 6-1.2 9 .4 1.7.9 9.1-.2 9.6-1.3.1-.2.6-.3.9-.5 4.3 1.4 5.5 1.5 7.1.6-1.1-1.2-2.3-2-2.6-2.9-.2-.6 5.7-1.6 8-1.5 3 .2 4.9 1.1 4.6 2.1l1.1.3c.9-.4 1.8-.8 2.6-1.4 1.7-1.6 8-2.3 12.4-1.4 3.4.7 7.2 1.1 11.3 1.7.7 1 6 2.2 12 2.4l-4.7-1.9c-2.9-1.2-5.9-2.4-8.7-3.6-.6-.2-1.1-.8-.7-1 2.5-1.6-.8-2.5-3.5-3.5-.4-.1-.8-.3-1.3-.6l7.9-3-2.6-3.8c4.5-1.2 3.8 1.6 6.5 1.2.1 1.4.2 2.8.3 3.8l7.9 1.3c.8.1 1.6.3 2.4.4 5.7 1.1 8.5.6 10.1-1.5.2-.4.4-.7.5-1.1-2.3-.3-4.4-.6-6.4-1-.7-.1-1.3-.4-1.7-1-.2-1-.3-2.1-.3-3.1 1.5-.1 4.4-.2 7-.5 1.4-.3 2.9-.7 4.2-1.2l-9.2-.5c.4-1.4-1.1-2.2-5.4-2.2-1-.2-2-.5-3-.9-5.5.6-5.6 1.1.1 4.5l-5.8 1.4c-.2 0-.3 0-.5-.1 1.9-2.3-2.9-4.2-4.1-6.3-.2-.4 0-.9-.1-1.3-.3-.8-.6-1.6-1-2.3.6-.1 1.3-.2 1.9-.3 1.1-.3 3-.8 2.8-1-1-.7-2.2-1.2-3.5-1.3-3.2-.2-6.5.1-9.7-.1-1.9-.1-3.7-.4-6.4-.8-2.8.8-6.6 1.2-12.2 1.1s-9.5-1-14.3-1.5c-2.9-.3-6.4.3-9.5.6-5.4.5-10.8 1-16.3 1.6-.9-1.7 1.6-3 6-3.3 8.4-.6 9.4-1.6 5.2-4.4-.5-.3-.8-.8-.7-1.1.4-1 .3-2.3 2-3 2.6-.8 5.3-1.2 8.1-1.1 4.3.1 8.2.4 9.8-1.5 1.1-.1 2.1-.1 3.2 0 6.6 1.2 10.9 1 16.1-.7.8-.3 1.6-.5 2.5-.5 5 .3 10 .8 15.8 1.2l-5.2.6c6.8 1.5 15.1 2.2 13.9 5.6 3.4.7 5.7-2.4 9.3-.1l-7.2 1.3c5.2.9 8.7 3.1 8.2 5l-6.5-.1-.9.5c1.9.7 3.6 1.5 5.7 2.1 5.7 1.9 11.8 2.4 17.7 1.4.6-.1 1.1-.2 1.7-.2 1.3.1 2.5.2 3.8.4-.8.3-1.7.5-2.5.8-.3.1-.6.3-.9.4 3.5 1.2 9.4 1.1 11.4 3.1 2.4 2.4-3.9 2.8-6.8 4.4 2.1-.1 4.2-.1 4.9-.4 1.4-.5 2.9-.5 4.3 0 1.5 1.6 4.6 1 7.1.7 1.7.4 3.7 1.2 4.5 1 2.5-.4 5.8-1 6.3-1.7.6-1-1.1-2.1-1.9-3.4 5.7.2 5.9 1.8 7.3 3.2l2.2-.8c6.5.9 5.3 3.3 9 4.9 1.8-1.5 7-2.5 2.7-4.1l4.9-2.6h-.1l1.6 1.9-2.3 1 4.1-.2 1.6 3.3c2.3.3 4.2.6 6.3.8 1.4.2 2.8.3 4.2.2 1.3-.8 3-.4 4.4-.3 6.1.2 6.7.1 9.9-2l21.8 4.3-8 .8c.3.8.7 1.6 1.3 2.3 1.1.2 2.3.2 3.4 0 2.5-.9 4.1-2.4 8.8-1.9 2.2.3 4.4.8 6.5 1.3 2.6-.4 5.6-.9 8.6-1.4 1.1-.1 2.2-.4 3.3-.8 2.7-1.5 5.6-1 8.6-.4.9.2 2 .3 4.1.7l-10.8-4.9c1.9-.4 3.8-.7 5.8-.8 1.3 0 3.5.5 3.8.9 1.4 1.9 3.5 2.7 9.3 2.6 1.7 0 3.5-.2 5.1-.7 4-1.3 8.2-1.8 12.4-1.4l-2.5-2.7h4.5l.1-.4 2.7.7 1.3-1.1 2.5.5c1.8-.2 3.8-.7 4.6-.5 2 .5 3.9 1 5.9 1.7-1.4.5-2.8.9-4.3 1.1-1.5.2-3.3-.1-4.9 0-.7.1-1.5.3-2.2.6.7.2 1.4.3 2.1.3 3.9-.8 5.4.5 7.9.8 2.8.3 4.5 1.4 7.3 1.7 3.3.3 7.2.1 10.8.1 2.5 0 5-.1 7.3 0 3.9.2 5.3-.5 6-1.8 7.8 0 15.2.1 19.4 2.7l2.6-1c.8 1 2.9 2.2 1.8 2.9-2.7 1.5-.8 2.8-1.3 4.1-.3.9-.4 1.6 3.6 1.2 1.1.1 2.2.2 3.3.4 2.7.2 5.3.5 8.1.6 3.3.1 5.9-.3 5.8-1.8 0-1.1 3.6-1.5 7.6-1.1 3.8-.8 7-1.6 10.2-2.3 1.3-.3 2.4-.8 3.6-1.1l-.5-.6 10.6.2c2.2-2.2-4.8-2.9-5.3-4.7l-1.4-.4 4-2 2.6.9c-1.2-.7-2.4-1.3-3.6-1.8-2.9-1.1-6.1-1.2-9.1-.2-1.8.5-4.8.4-7.3.6-2 .2-3.9.4-6.4.6l-2.2-1c-.8.4-1.6.7-2.5.9-1 .3-2 .5-3 .6-4.8-1.8-9.9-.9-15.2.3-2.1.5-4.2.9-6.3 1.1-1 0-2-.1-2.9-.4-2.8-1.1-5.7-1.5-8.7-1.1-3.2.2-7-.5-10.2-1-4.3-.7-8.4-1.6-13.3-2.1l2.3.7c-4.6 1.4-16.1.7-20.7-1.1l5.5-2.3-12.9-3.2-1 .4 2.7 1.1v.1c-1.6 1.8-4.6 2.6-9.8 1.8-.7-.1-2 .4-3.1.5-2.3.1-4.7.2-7 .3l-.3-.1zm-106 13.7c1.1 1.6 4.5 3.1-.9 4.3-1.7.2-3.4.4-5.1.3-.5-1.5-.8-2.6-1.2-3.8-4-.8-4.2-.8-7.9.3-.8.2-1.6.3-2.4.4-6.4.1-12.7 0-19.1.1-3.5.1-7.1.2-10.6.5-.7.1-1.4.4-2.1.7l8.2 1.8c2.4.5 4.7 1 7 1.5 4.2.9 7.6 0 11-.7 2.9-.6 6.5-.2 9.4-1.1 1-.3 5.5.7 8.1 1l7.9 1.3c-.3-2 4.7-3.5 11.3-3.8 0 .5 0 1 .2 1.5.2.4.7.8 1.1 1.1 1.2-.2 2.5-.4 3.7-.6.9-.3 1.8-.5 2.8-.6 2.3.4 3.2.2 4.5-.6 1.8-.9 3.7-1.7 5.6-2.4.2-.1.1-.2.2-.4l-1.9.1c-1.6-.9-3.2-1.7-4.9-2.4-.8-.2-3 0-5.5.1l3 .8-3.4 1 3.5 1.6-5.6.4c0-.5.1-.8 0-.7l-9.7-1.6-2.4 1.4c-1.1-.8.8-2.3-4.8-1.5zm-185.6 27c3.2 1.1 6.2 1.9 9.3.2 1.7-.8 3.5-1.4 5.3-1.8 2.6-.6 3.8-1.3 2.5-2.3s-5.5-1.7-8.6-1.5l2.9 1.6-1.1.3c-2.4-1.3-10.1 0-9.5-2.6-4.1.3-4.1.3-5.7 1.4-.5.3-1.1.5-1.6.6-5.3 1.3-5.3 1.3-2.9 3.4.2.2.4.5.6.7.9 1 4.5 1.4 6.7.8.8-.2 1.4-.5 2.1-.8zm463.6-37.5c.3-.2.6-.4 1-.6 1.7-.5 3.6-1.1 1.5-1.7-1.7-.5-3.1-1.6-6.6-.4-.5.2-1.8.1-2.7.2-1.8.3-3.6.7-5.2 1.2-.9.2-1.7.6-2.4 1.2-.5.4-1.1 1.1-.6 1.3 1.2.6 2.5.9 3.8 1.1 1.2.2 2.4.1 3.5-.1 2.9-1.4 6.2-.8 9.5-.8.5-.5 1-.9 1.6-1.4h-3.4zm82.4-29l20.5 1.8-.6.5 10.6-2.1-1.5-2-29 1.8zm-57.6-4.9c1.5-.2 3.1-.5 4.5-1 1.3-.8 2.5-1.6 3.6-2.6l-5.7-.6-2 2.2h1.1l-5.9 1.2 4.4.8zm-52.6 32.4l-5.3 1.4c1.9.7 3.8 1.3 5.8 1.7.3.1 4.1-1.1 3.9-1.3-.6-.6-2.4-1-4.4-1.8zm-449.4 39.6l1.4-.6-4.1-1.2c-.5.3-1.5.8-1.3.8 1.3.4 2.7.7 4 1z" fill="url(#d)"/><linearGradient id="e" gradientUnits="userSpaceOnUse" x1="42.339" y1="248.35" x2="42.339" y2="298.65" gradientTransform="matrix(1 0 0 -1 0 502)"><stop offset="0" stop-color="#e6dfcc"/><stop offset=".53" stop-color="#e5d9c3"/><stop offset="1" stop-color="#ccbda6"/></linearGradient><path d="M-42.8 253.6c.4-.8-.3-1.5-3.5-1.7-3-.2-3.4-1-3.9-1.7L-64.1 230c-5.5-8-11.2-16.1-17-24.5l-1.5-2.2 10.7 1.7-.3.3c1.4-.3 2.7-.4 4.1-.4 1.5.5 3.1 1.3 3.2 1.9.3 1.5 2.1 2.2 5.6 2.1.9.5 1.8.9 2.8 1.2 1 .1 1.9 0 2.8-.4.3-.3-.4-.8-.8-1.3-.6-.8-1.2-1.6-1.8-2.3l6 .7 5.6.8-1.8-2c5.6.6 10.6.9 15.9 1 6 .1 13.2 1.3 17.2 3.7.2.1.2.3.3.3 5.8.7 5.9 2.7 9 4 .7.3 1.6.5 2.5.8l6.9 2c2-1.1 6.2-1.3 11.4-.8.9.1 1.9 0 2.7-.3 3-1.2 7.1-1.4 13-.5l-3-3.7-1.4-.1 2.8-.8 2.1 1c1.8 0 3.3-.1 4.6 0 5.5.6 7.7.3 8.8-1.5.7-.7 1.4-1.4 2.2-1.9 3.9.9 7.1 1.3 10 .5 1-.2 2-.3 3-.1 3.4.6 6.8 1.1 10.2 1.3 5.2.6 10 1.8 15.1 2.8l-4.1 4.7c8.2 1 14.7 1.5 21.5.5 2.9-.4 3.5-.7 2.8-1.6-.6-.7-1.3-1.4-2.1-2.2l4-.4v-.4l-7.9-.6c1.9-1.3 5.7-1.7 9.5-2.1 2.4-.2 5.2-.2 7.2-.6 2.9-.6 6.1-.1 8.9-.2 4.4-.2 9.5 1.6 13.5-.1l3.1 2.3c4.8.3 10.5.6 16.1 1.1 1.7.3 3.3.6 4.9 1.1-1 .3-2 .6-3.1.8-2.9.6-6.8.7-6.4 2.4.1.2-4.7.5-7.3.5-2.2 0-4.5-.4-6.8-.4-1 0-2.7.3-2.8.6s.7.9 1.2 1.4c.7.4 1.4.9 2 1.4 1 1.3 1.7 2.4 7 2.2 1.5-.1 3.8.8 5.5 1.3 1.1.3 1.9.7 3.1 1 .6.7-2.2 1.7 2.3 2.3.4.1.3 1.1-.1 1.6-1.6 1.8.2 3.4 5.3 4.5.3.1.6.1.8.2 1.6.5 3.1 4 2.1 4.6-.4.2-1.1.5-1.1.7.1 1.6.1 1.6-3.9 2.2l.7.8c-1.8.1-3.7.2-5.2.4-.6.1-.2.7-.2 1.1 1 0 2 .2 2.9.1 2.5-.1 4.8.9 4.2 2l2.2-.1c.1.3.5.6.2.7-2.5 1.2-3.2 2.5-1.5 4.1.5.5-1.9 1.2-3.4 2.1-2.9-.4-5.9-.9-8.8-1.4-4-.7-7.1-.1-8.3 1.6H143c-1-.4-2.1-.7-3.1-.8-6.1-.2-12.4.1-18.3-.4-7.7-.7-14.5-.2-21.7-.1-3.4 0-7.1-.2-10.6-.5-3.3-.3-5.3-.1-6.4.8l-1.3 1.1H-42.8zm101.5-29.5l-2.3-.3-2.2 2.5c-2.7-.2-5.4-.5-8.1-1-2.5-.6-4.1-1.8-6.7-2.9l-2.7.2 1.4.9c-4.7.1-6.7-1-8.2-2.1-1.3-1-3.1-1.2-4.6-.6-2.8 1.6-8.5.9-12.6 1.4-3 .4-7.9-.6-11.9-.7-2.1.1-4.2.4-6.2.9 2 .7 4.7 2.1 5.8 2.1 5.9-.4 9.1 1.3 13.3 2.3l2.3-.7c3.1 1.1 4.5 2.8 9.8 3-.6 1.2-2 2.4.6 3.4-.1.8-.3 1.6-.5 2.3-.2.6-.5 1.1-.9 1.6-.3.5-1.5 1.1-.9 1.3 1.5.5 3 .8 4.6.9 1.8.1 3.7 0 5.5-.1l1.2.3-2.8.6c2 .5 3.6 1 5.4 1.2 6.2.9 12.5 1.6 18 2.4l9.8-4.8c-2.5-1.9-3.7-2-9.2-2.4-4.4-.3-9.8 0-12.9-2-.5-.3-3-.4-4.6-.5-.9-.1-1.9 0-2.8.1l-1-.4 10-3.2c.3-.1.5-.1.8 0 4.8.8 6.8-.2 9.4-1 3.2-1 6.3-2 5.9-3.8 0-.1.3-.1.4-.2 6.9.7 9.6-1.4 15.9-1.6-3.7-.2-6.7-.2-8.7-.6-6-1.4-7.8-1.4-9.6.6-.3.2-.5.6-.7.9zm21.5 25.7l16.6-1.2-.3-.4c-5.9-.4-11.9-1-17.7-.5-.6 0-1 .5-1 1v.3c.2.3 1.6.6 2.4.8z" fill="url(#e)"/><linearGradient id="f" gradientUnits="userSpaceOnUse" x1="783.11" y1="353.72" x2="783.11" y2="450.371" gradientTransform="matrix(1 0 0 -1 0 502)"><stop offset="0" stop-color="#e6dfcc"/><stop offset=".53" stop-color="#e5d9c3"/><stop offset="1" stop-color="#ccbda6"/></linearGradient><path d="M784.2 141.6c1.2 2.3-4.2 5.2-12.6 6.7-.9-1.4-2.1-2.8-7.8-1.9-.7.1-1.5 0-2.2-.2-2.4-1.1-4.7-2.3-6.8-3.4-4.3-.1-8.7-.2-13.1-.3-3.6-.2-7.3-.2-10.9.1-8 .8-13.2-.9-19.8-1.4-3.7-.3-5.1-.8-4.4-2.2-7.3.3-7.3.3-7.7-2-3.7-.2-7.4-.2-10.8-.5-1-.1-1.6-1.1-1.3-1.6.8-1.6 1.5-3-2.9-3.7-.7-.1-1.2-.5-1.4-1.2-.1-.8-.1-1.7.1-2.5l-7.9 1.4c2.2-1.6 1.5-2.2-2-2.8-2.8-.6-5.6-1.7-8.1-3.2-2.7-1.2-5.2-2.7-7.6-4.4-1.7-1.4.8-2.5 4.8-3.3 3.3-.7 6.2-1.9 10-3.2-4.4-.4-8.7.9-10.1-.9-.8.2-1.6.3-2.5.3-2.7-.2-6.9-.1-7.6-.8-1.4-1.4 2.3-3 6.5-3.5-.4-.8-.9-1.5-1.5-2.1-1.5-1.5-2.5-2.7 4-2.9 1.3-.2 2.6-.7 3.6-1.5 2.3-2.2 6.6-3.4 11.5-4.5 1-.2 2-.3 3-.3 4.8.9 7.7-.4 10.7-1.9 1.9-.9 4.4-1.7 6.4-2.6s3.9-2.1 6.2-3.3l7.6 2c2.6-1.5 4.2-2.9 6.9-3.8 3.7-1.1 7.5-2 11.4-2.5 3.2-.5 5.4-.4 5.2-2.3-.2-1.5 3-3.3.8-4.9-.6-.4 2.5-1.9 4.1-3.1l-3.3-.9c1.3-.9 2.1-1.9 3.8-2.5 3.4-1.2 9.1-1.8 10.7-3.2 2.8-2.4 6.4-2.6 10.9-2.8.5 0 1.1 0 1.6-.1 2-.4 4.4-1.4 5.9-1.3 4.4.3 8.5 1.1 13.4 1.7-5.5 1.8-4.2 2.6-1.2 3.3 1.2.4 2.3.9 3.3 1.6l-1.3.5h-8l-1.3 1L784 74c3.3-.7 6.5-1.5 9.7-2.5 3-1.3 6.3-1.6 9.6-1.1 1.4.2 4.8-.8 6.8-1.5 1.2-.5 2.3-1.3 3.2-2.2l-11.2-1.4c-1.4-.1-2.8-.3-4.2-.6-3.3-1.2-4.8-2.8-5-4.8-.2-1.5-1.3-2.8 2.9-4.4 2.7-1 2.1-2.3-1.7-2.6 3.3-1.6 7.7-1.8 10-.5s4.6 2.5 6.9 3.7c6.7-3.5 16.8-4 22.6-1.5 4.2 1.8 7 3.6 2.7 6.8-.4.3 1.4 1.5 2.4 1.4 3.2-.1 6.5-.5 9.6-1.3 4.9-1.5 10.1-1.7 15-.6 10.7 2 23.1 1.4 35.5 0l10.3 3.2 5.5-3.7-47.4 68.8c-4.2.3-8.4.5-12.7.8-1.1 0-2.2.3-3.2.7-2.6 1.9-7.3 2.5-11.3 2.9-7 .6-14 .8-20.9 1.2-1.6.1-3.2.3-4.7.3-3.5.1-7.9.5-6.7-1.7-4.6.7-8.4 3.7-7.2 6.1l-16.3 2.1 10.6-4.8c-1.7-.5-2.9-1.2-4.2-1.1-1.9.1-5.2.8-5.5 1.3-.8 1.6-.6 3.1-.9 4.6z" fill="url(#f)"/><linearGradient id="g" gradientUnits="userSpaceOnUse" x1="755.68" y1="248.35" x2="755.68" y2="258.6" gradientTransform="matrix(1 0 0 -1 0 502)"><stop offset="0" stop-color="#e6dfcc"/><stop offset=".53" stop-color="#e5d9c3"/><stop offset="1" stop-color="#ccbda6"/></linearGradient><path d="M725.5 253.6l-1.7-2.2-1.2.1c2-1.6 7.3-1.9 11-2.8 3.5-.9 7.1-1.7 11.2-2.6l-4.5.2-.2-.2c1.2-.3 2.5-.4 3.8-.5 4 .1 7.9.4 11.8.6 2.2.2 4.4 0 6.5-.5 6.2-1.5 12.6-2.3 19-2.2l7.5-.1-7.1 10.2h-56.1z" fill="url(#g)"/><linearGradient id="h" gradientUnits="userSpaceOnUse" x1="296.43" y1="395.934" x2="296.43" y2="503.32" gradientTransform="matrix(1 0 0 -1 0 502)"><stop offset="0" stop-color="#e6dfcc"/><stop offset=".53" stop-color="#e5d9c3"/><stop offset="1" stop-color="#ccbda6"/></linearGradient><path d="M33.3 9.1c4.3-.3 1.9-1.6-.3-2.8-1.2-.7-3.1-1.4-3.3-2-.8-2.3-2.2-4.2-8-5.6h668.5l-14 6.7c4.3 1 4.4 2.3 1.5 4s-5.3 1.5-8.5.8-13.2 1.6-15.2 3.5l-4.9-.2c0 .8-.1 1.4-.1 2-2.8.1-5.4.2-8 .4-.9.1-1.8.2-2.8.4l-.3.7c2.6.1 5.3.6 7.8.4 4-.4 7.9-1.4 11.9-1.9 2.2-.2 4.5.2 8 .5l1.8-1c.4.1 1.2.2 1.2.4.2 1.6-2.1 2.6-5.7 3.7-2.2.7-3.2 2.2-5.6 3.8l-9.3-2c-1.2 1.1-2.4 2.4-3.4 3.8-.9 1.5-1.1 2.9-1.6 4.6l-8-1.1c-4.5-.6-7.4-.1-10.2 2.1-1.6 1.2-5.6 2-8.9 3l-3.2-1-6.4 2.6c-4-1.6-3.7-4.9-10.4-4.3-3.6.3-7 1.7-11.4 2.9-2.3-.5.8-4.4-7.5-2.7.4-1.6.7-2.8 1-4.1-2.9-.3-5.8-.5-8.5-.9s-5.3-.9-8.7-1.4c-4.4 1.6-9.8 3.2-13.7 5.3-2.7 1.4-3 3.7-5.2 5.4-3.3 2.6-3.6 5-1.9 7.5.2.3-1.2 1.1-2.2 1.4-3.4 1-6.1 2.1-6.1 4 0 .7-.5 1.5.3 1.9s2.8 0 5.1-.1c.5 1.2 2.1 2.7 1.4 4S535 56.9 533 57c-3.8.2-8.4 1.4-12.1-.4-1.6-.8-14.3 1.9-15.1 3.1-1.4 2.3-4.7 2.8-9.9 3.2-8.4.6-15-.8-22.3-1.6-2.8-.3-5.7-.5-8.5-.4-11.6.5-23.8-.6-34.4 2.6-1.9.6-2.7 1.8-3.8 2.6-1.6.2-3.3.5-5.1.7-.7.2-1.4.2-2.1.2-7.8-1.6-10.1 1.3-13.8 3.1-4.1 1.9-8 3.8-12.5 5.5-1.5.6-4.8.3-7.2.4-3.6.1-8.7-1.6-9.7 1.6-.1.2-2.8.6-3.9.5-5-.6-7.4 1-9.7 2.2-2.6 1.4-5.7 1.5-8.4.2-1.9-.9-3.5-2-5.3-3l-.6.6c-3.6-.5-7.1-1.1-10.8-1.4-2.3-.3-4.6-.3-6.9-.2-3.6.4-7 1.2-10.5 1.8-5 .8-8.2 2.9-8.3 5.1 0 .5-1.4 1.4-2.4 1.4-4.2.2-5.1 1.2-4.4 2.6-6.7 1-7.3 2.1-1.9 4 4 1.4-2.5 2.2-.4 3.4-5.5 1.5-2.8 3.2-.7 5.2l-6-1-1.5 1.5c-3-1.7-5.1-3.8-8.9-4.9-3.5-1-8.8-.8-14.1-1.2 1.6 2.1 2.8 3.6 4 5.2l-8.8-.8-.5.6 5 1.6-12.5 1.8.1.8 6.6 2.1c-5.1.7-9.9.7-13-.1-1.7-2.4-1.9-4.5-4.4-5.9s-7.4-2.6-11.8-3.3c-4.1-.7-8.8-.7-14.2-1-5.3 1.5-6.6 1.4-14.4-.6-2-.5-5.2-.2-7.9-.3-1.6-.1-3.2-.3-4.9-.5.4-.5.3-1.3 1.2-1.5 1.7-.4 3.4-.6 5.1-.4 7.8 2.2 14.8 1.4 22 .2l-5.5-5.8-3.9.7-8.6-4.5c-3 .6-5.8.5-8.2-1.4-1.1-.8-5.5-2-6.5-1.8-3.3.8-7.1 2-8.3 3.4-1.2 1.6-3 2.1-6.6 2.4-2.1.3-4.1 1.2-5.8 2.5 8.2-.9 9.9 1.2 11.7 3.9l-13.3-.8c-1.7-3.9-.1-5.7 5.5-7.4l-16 1c.3-.6 1.2-1.3.9-1.9-.6-1-1.5-1.8-2.6-2.2-1.3-.3-2.6-.3-3.9 0-1.2.5-2.7 1.4-2.2 1.9 1.8 1.8-1.8 1.9-3.6 2-6.8.4-14.3-.1-20.4.8-5.2.8-10.8.7-15.8 1.5-2.4.5-5 .2-7.2-.9-4.2-2-9.9-1.1-14.7-.9-4.2.1-6.4.6-8.3-2-1-1.4-2.8-4.2-9.5-4.8.5 1.4 1.5 2.6 1.2 3.8-.1.6-2.5 1.6-3.4 1.4-3.8-.5-7.2-1.6-11-2.2-6.7-1.1-9.8-3.3-10.7-5.8-.5-1.4.5-3.3 2.5-4.2 3.5-1.6 4.6.2 5.6 1.7 2.4 0 4.8.1 7.1 0 1.4-.1 3.2-.5 3.4-1S64.1 70.5 63 70c-2-1-4.7-1.8-6-2.9-2-1.5-3.2-2.8-7.6-1.7-1.5.2-3.1 0-4.6-.4-4-1.9-7.7-3.9-11.9-6.2l4.1-1.2c-.2-.3-.4-.7-.6-1-6.2 1.2-9.6-1-14.1-2.1-2.7-.7-6.3-.3-9.5-.6-2.4-.2-4.8-.8-7.2-1.2-1.7-.3-3.8-1.1-4.9-1-1.8.2-4.5 1-4.2 1.6 1.7 4.5-6.5 5.2-12.9 6.5l-13.8 2.9-11.6-3.7c-4.4 0-8.8-1.1-12.7-3.2-5.1-2.7-10-5.7-18.8-6.5-1.4-.3-2.8-.7-4.2-1.2-3.8-.9-7.6-1.9-11.5-2.7-3.3-.6-6.7-1-5.6-2.9.1-.2.1-.4-.1-.5-1.4-.9-4.9-2.1-.3-2.4.8 0 3.2 1.7 4.8 2.7l.9.5c.5 0 .9-.1 1.4-.2 2.7-1.5 7.5-2.8 12.4-3.1 1.3-.2 2.6-.2 3.9 0 4.7 1.2 8.2.6 10.5-.5 3.3-1.7 7.6-1.4 12.5-.9 8.5.9 16.9 2.8 25.4 2.2 5.2-.3 10.6-.4 16.1-.3 3.1.1 6.2.5 9.2 1.2 8.3 1.9 13.5.8 13.3-3-.1-1.9.6-3.3 6.4-3.3 2.7 0 5-1.5 6.8-2.6 1.3-.8 1.5-2 2.2-3.1 3.9 1 6.1.6 5.7-1.2-1-4.4-2.5-8.8-3.4-13.2-.5-1.8.1-3.7.2-5.7zm467.3 46.8l5.9-2.8-.9-.7c-2.5.2-7.1.4-7.2.6 0 1.9.2 3.7.7 5.5 4.2.2 7.3.2 6.9-1.9l-5.4-.7zm38.3-47.3l-2-.3c-5.6 2-5.6 2-2.1 4.5l4.1-4.2z" fill="url(#h)"/><linearGradient id="i" gradientUnits="userSpaceOnUse" x1="1.536" y1="306.979" x2="1.536" y2="433.08" gradientTransform="matrix(1 0 0 -1 0 502)"><stop offset="0" stop-color="#e6dfcc"/><stop offset=".53" stop-color="#e5d9c3"/><stop offset="1" stop-color="#ccbda6"/></linearGradient><path d="M48.4 136.1c-1.1-1-2.8-1.4-5.8-.5-3.4 1.1-6.2-.3-9.5-1-5.5-1.4-11-2.4-16.5-3.2-5.9-.7-8.4.8-6.3 3.2.3.3.8.7.7.9-1 3.4 1.4 4.9 11.2 6.5l-1.3 1.6c7.4 0 8.2.4 6.2 3l7.1 2.7c-2.2.4-5.8.8-5.6 1.1 1 1.7 2.5 3.1 4.4 3.8 2.8 1.1 3.2 1.9 2.5 3.1-.4.7-.2 1.5.4 2 2.5 2.4-1 4-3 5.7-.8.7-5.1.6-7.8.8-1 .1-2.2 0-3.3 0 2 3.8 5.2 5 12.2 4.3l5.2 6.3-3.6.7 3.8 2.1-5.9.7c1.6.4 3.2.8 4.7 1.5 2 1.2.8 2-2.1 2.6-3.7.6-7.3 1.3-12.1.4-.6-.1-1.2-.1-1.8 0-2.3 0-4.7.2-7 .1-3.4-.2-4.5.6-2.7 1.3 4.1 1.7-.1 2.5.4 3.8h-1.2l-2.7-5-2-.3 1.2-.9-16.4-1.4-.6-.6-3.8 2.3c4 .9 5.9.9 5.7 0 3.1.2 5.9.4 8.7.7 1.6.2 3.1.6 4.6.9l-.4.6c-4.2.3-9.2.3-12.2 1.1-2.8.8-3.5 2.4-4.6 3.2-3.4.3-5.7.5-8 .7-.6.1-1 .2-1.6.2-1.9.1-4.6-.1-5.6.3s-.3 1.3-.4 2.1c-5.4-1.8-11.1-1.9-16.5-.2-2.3.6-5.4 1-8.2 1.4-.6.1-1.2.1-1.7.1-4.5-1.1-8.3-.8-12.7-.6-7.2.2-14.9-.2-23.1-.3l-78.3-113.8 6.9 1.1c-1.1 3.1-.3 6.2 8 9.3l-5.5.3c4.1 3.8 10.4 5 18.7 4.8 1.1 0 2.7.6 4.7 1.1-6.2.7-6.2 1.8-1.4 3.5 3.7 1.3 7 2.8 11 4.4l-3.3.2c.8 1.2 4.9 2.6 1.8 3.9l-4.5-2.8-12.1 2.9c6.5 3 13.8 3.1 21 3.3 6.6.2 13.1 1 19.6 2.6 2.1.5 4.2.9 6.3 1 2.2 0 5-.2 5.8-.8s-.3-1.8-.7-3l6.3.7c-1.2-1.2-2.3-2.5-3.3-3.8-.6-.9-1.2-2.6-.5-2.7 3-.2 6-.1 9 .3 1.4.2 2.4 1.4 3.6 2.2l1.2.8c2.8-2 6.5-1.5 11.2 0 1.5.5 4.3.4 6.5.6l-1.6-.7 6-6.7-8.9-1.1c-.1-2.8-5.6-3.1-9.2-3.5-4.4-2.5-7.6-5-12.1-6.9-5.1-2.2-11.5-2.4-17.8-2.1-5.3-2.1-6.7-3.8-4.1-6 1-.8 2.3-1.2 3.6-1.2 5.7.5 8-.3 9.5-2.2 1.7-2.2 7.9-1.7 12.8-1.7 5.6-.1 7.7-1.2 5.3-3.3 1.6-.5 2.9-1.4 4.6-1.3 4.7.2 9.5.6 14.2 1.2 1.1.1 1.9 1.3 3 2 2.5 1.4 5.9 2.6 7.5 4.1 2.4 2.2 6.5 2.7 11.4 3.4l-1.4-2.7c3.1.6 5.7 1 8.1 1.6 4.2 1 8.4.8 10.5-.6.7-.4 2.6-.6 3.9-.8 5.8-1.2 5.8-2.8-.9-6.6 1.6 4.3-6.5 3-11.4 3.6-1.1-.3-2.2-.7-3.2-1.2l-9.6 1-1.5-1.9c-4.7.1-6.9-.8-7.9-2.9-.8-1.7-3.4-3.3-4.7-4.6 3.2.4 6.5.7 9.7 1.1 4 .5 8.2 1.4 12.1 1.6 3.5 0 6.9-.3 10.3-.8 6.3-.8 6.8-.6 6.8 2.4l4.8.3c1.5 0 2.9.3 4.3.9l5 2.3c1.3.6 2.7 1.2 3.8 1.8 3.2 1.8 6.8 2 9.1.5l5.2 1.5c0 .1 0 .3-.1.3-1.9.6-3.8 1.1-5.5 1.8.6.6 1.4 1 2.2 1.2 3.1.4 6.3.5 9.4.4 2.4-.2 4.2-1.1 6.1-1.7l1.2.3c-2.4 2.8 6.5 4.3 6.8 6.8.4 1.3.9 2.6 1.6 3.8-3.5-.4-7.2-.6-10.5-1.3-5.5-1.1-10.5-.4-14.6.1-3.8.5.4 2.5 2.4 3.5 2.3 1.2 5.7 2.1 8.4 3.2 1.2.5 2.5 1.2 2.5 1.8-.1 2.2 3.1 2.4 7.6 2.4l-1.3-3 1.3.3 4.9-4.3 1-.1c.3.7 1.2 1.5.7 1.9-2.3 2.2 2.2 3.3 5.7 4.6 2.6 1.1 5.6.9 8.1-.5l11 1.9-7.9 1.2c7 2.3 7.3 2.3 14.6.2-.2-.2-.3-.6-.8-.8-6.4-1.9-1.4-2.9.5-4.2.6-.2 1.2-.4 1.8-.3 4.1 1.7 7.5-.2 11.4.3 1.8.1 3.5-.1 5.2-.6 5.4-1.9 11.3-1.6 16.3 1 2.6 1.2 5.9 2.2 8.8 3.4.8.3 1.5.7 2.1 1.3 1.4 1.2 2.8 2.5 4.1 3.9 1.5 1.7 4.1 2.1 8.2 2.3 2.1.1 4.2.7 6.2 1.7 3.4 2 6.5 4.3 9.4 6.8.9.9.3 2.3-1 3-1.8 1-1.7 1.8.1 2.8 2.7 1.5 5.6 2.9 8 4.5.7.4.1 1.1.5 1.6s.9.9 1.6 1c2.7 0 5.4-.1 8.7-.1.3.3.6.6 1 .9 2.6 1.9 2 2.5-3.2 3-4 .4-5.3 2.3-2.3 3.6 4.9 2.2 4.9 2.1-1.3 2.6-1.3.1-2.4.3-3.6.5l-1-.4 5.2-1.9c-.1.4.1.3-.1.2-1.6-.9-3.3-1.8-4.9-2.6-2.9 1.1-6.6 2-8.5 3.3-1.6 1.1-2.1 2.3-6.5 2.2-.8 0-2.1 1-1.7 1.4 1.2 1.4-.3 1.7-3.5 1.7-4.1 0-8.4.5-12.1 0-5.7-.8-11-2.2-16.6-3.4-1.5-.3-3.6-.9-4.5-.7-4.9.8-7.8-.6-10.7-1.8-3.2-1.5-6.8-1.8-10.1-.8-2.8.8-6.3.1-7.4-1.3-1.3-1.6-3.7-2.6-8.2-2.9-1.9-.1-3.7-.5-5.6-.7-2.3-.2-5-1.1-6.4.3-.5.1-3.9-.1-6.9 0zm-100.3-25.5c3.2 2.4 7.7 3.9 11.1 3.4-4.2-.9-3.3-4.2-11.1-3.4zm9.4 4.5c1 2.9 5.2 2.2 8.9 2.1l-8.9-2.1z" fill="url(#i)"/><linearGradient id="j" gradientUnits="userSpaceOnUse" x1="474.395" y1="293.012" x2="474.395" y2="304.242" gradientTransform="matrix(1 0 0 -1 0 502)"><stop offset="0" stop-color="#e6dfcc"/><stop offset=".53" stop-color="#e5d9c3"/><stop offset="1" stop-color="#ccbda6"/></linearGradient><path d="M483.9 199.8c-2.6 1-2.6 1.6.5 2.5 5.6 1.6 3.5 4.5-3.5 5.4-4 .5-8 1-12.1 1.2-3.7.2-5.7-1-5.6-1.8.1-1.5-3.2-2.6-1.5-4.4 2.1-2.1 6.8-4.5 12.9-5 .6 0 1.3.1 1.9.2 2.4.7 4.8 1.3 7.4 1.9z" fill="url(#j)"/><linearGradient id="k" gradientUnits="userSpaceOnUse" x1="39.95" y1="300.45" x2="39.95" y2="309.49" gradientTransform="matrix(1 0 0 -1 0 502)"><stop offset="0" stop-color="#e6dfcc"/><stop offset=".53" stop-color="#e5d9c3"/><stop offset="1" stop-color="#ccbda6"/></linearGradient><path d="M30.5 200.7l-1.8-1.7-12-.9-.5-.6 17.4-1.3-1.9-.4-2.9-3.3c7.5 1.9 13.7 2.6 18.4.4l6.5 2.1c-.2.3-.6.8-.8 1.1l10.7 2.7-4.2 2.2-8.5.5-5.5-3.2-14.9 2.4z" fill="url(#k)"/><linearGradient id="l" gradientUnits="userSpaceOnUse" x1="459.17" y1="342.77" x2="459.17" y2="351.161" gradientTransform="matrix(1 0 0 -1 0 502)"><stop offset="0" stop-color="#e6dfcc"/><stop offset=".53" stop-color="#e5d9c3"/><stop offset="1" stop-color="#ccbda6"/></linearGradient><path d="M450.1 154.6c3.3 1.9 3.3 1.9-3 3.4-4.5-.6-8.7-1-12.6-1.6-2.3-.4-4.5-.9-6.7-1.6-.6-.2-.6-1 0-1.4 1.3-.9 2.8-1.5 4.3-1.8 3.9-.5 8.1-.6 12.2-.8.8-.1 1.5 0 2.3.2 2.2 2.6 7.1 1.4 10.7 1.1 2.8.5 5.2.9 7.5 1.3 2.7.5 5.3 1.1 8.1 1.3 1.3.1 3.2-.5 5.4-.8l1.6 1.1c7.8-2 5.1 2.7 11 1.7-1.7.9-2.6 1.4-3.6 1.9-.5.3-1 .5-1.6.6-2.1-.2-4.1-.5-6.1-.9-3.3-.9-6.1-2-9.5-2.9-1.6-.2-3.1-.1-4.7.3-3.2.9-5.7.8-7.3-.4-1.8-1.5-4.7-1-8-.7z" fill="url(#l)"/><linearGradient id="m" gradientUnits="userSpaceOnUse" x1="416.252" y1="287.96" x2="416.252" y2="295.436" gradientTransform="matrix(1 0 0 -1 0 502)"><stop offset="0" stop-color="#e6dfcc"/><stop offset=".53" stop-color="#e5d9c3"/><stop offset="1" stop-color="#ccbda6"/></linearGradient><path d="M404 211.7l-2.6-.4-3-.5c2.5-.5 2.1-1.6 6.3-1.5 2.9 0 5.8-.7 8.4-1.9 2-1.2 3.3-.8 5.4-.4 3.2.6 5.9 1.7 10.2.9 1.6-.3 3.2-.6 5-.9.1.7.9 1.6.1 2.3-.6.6-3 1-5.1 1.5l-7.2-.8c3 2.2-1.4 2.4-4.9 2.8-2.4.3-4.7.8-6.5 1.1l-6.3-2.4.2.2z" fill="url(#m)"/><linearGradient id="n" gradientUnits="userSpaceOnUse" x1="387.62" y1="399.11" x2="387.62" y2="408.28" gradientTransform="matrix(1 0 0 -1 0 502)"><stop offset="0" stop-color="#e6dfcc"/><stop offset=".53" stop-color="#e5d9c3"/><stop offset="1" stop-color="#ccbda6"/></linearGradient><path d="M406.1 97.8L402 100l-2.6-1 2.4 1.1-13.7 2.6 1.6.2-9.3-.3c-.7-2.5-5.9-3.7-11.4-2.6l3.3-3.2 3.8 1.3c1.1-.7 2.8-1.3 3.2-2.1 1.3-2.2 3.5-2.7 8.4-2 1.6.2 3.2.2 4.7 0 8.2-.6 9.7-.2 11.5 2.9.4.4 1.5.7 2.2.9z" fill="url(#n)"/><linearGradient id="o" gradientUnits="userSpaceOnUse" x1="202.48" y1="280.18" x2="202.48" y2="285.941" gradientTransform="matrix(1 0 0 -1 0 502)"><stop offset="0" stop-color="#e6dfcc"/><stop offset=".53" stop-color="#e5d9c3"/><stop offset="1" stop-color="#ccbda6"/></linearGradient><path d="M221.4 220.4c-7.7-1.8-15.3-1.2-22.9-1l1.2.4-3.9 2-1.5-.3c.1-.3.1-.6.2-1.1-2.4.1-4.6.1-6.6.3-3.4.4-5.2-.1-4.9-1.2.4-1.2 1-2.3 1.8-3.4 4.7 0 8-.1 11.3 0 5.1.1 10.1.3 15.2.6.9.1 1.9.4 2.6.9.9.8 2 1.2 4.7 1.2 1.2.2 2.4.5 3.5 1l-.7.6z" fill="url(#o)"/><linearGradient id="p" gradientUnits="userSpaceOnUse" x1="373.393" y1="326.35" x2="373.393" y2="335.61" gradientTransform="matrix(1 0 0 -1 0 502)"><stop offset="0" stop-color="#e6dfcc"/><stop offset=".53" stop-color="#e5d9c3"/><stop offset="1" stop-color="#ccbda6"/></linearGradient><path d="M362.2 167.3l-1 1.5-1.4-.1c.4-.7.2-1.6 1.4-2 1.7-.4 3.5-.5 5.3-.4 2 .2 4 .5 5.9.9l3.9 2.2 6.2-.1c-.2 1.2 5.8.9 4 2.9s-2.2 2.9-8 1.9c-.4-.1-1.4.5-2.2.6-2 .3-4 .5-6.1.8l-1.4-1.7-6.2.4 4.8-2.9h-4v-4.1l-1.2.1z" fill="url(#p)"/><linearGradient id="q" gradientUnits="userSpaceOnUse" x1="13.693" y1="423.93" x2="13.693" y2="435.39" gradientTransform="matrix(1 0 0 -1 0 502)"><stop offset="0" stop-color="#e6dfcc"/><stop offset=".53" stop-color="#e5d9c3"/><stop offset="1" stop-color="#ccbda6"/></linearGradient><path d="M7.1 74.2c1.2.6 2.7 1.3 3.8 2 .7.5.9 1 1.2 1.5-1.1-.1-2.3-.3-3.4-.6-3.2-1.4-6.1-2.9-9.2-4.3-.9-.2-1.7-.3-2.6-.3-4.5-.9-7.5-4.7-4.2-5.7 1.4-.2 2.8-.1 4.1.3 5.8 1.7 11.6 3.4 17.1 5.2 1.6.5 2.8 1.3 4.4 1.9 1.3.4 2.6.7 3.9.9 3.8.5 7.7.8 11.5 1.4.9.1 1.5.9 2.3 1.4-1.2.1-2.4.2-3.5.2-1.4-.1-2.8-.4-4.2-.5-2.5-.3-4.9-.5-7.4-.9-1.4-.2-2.8-.6-4.2-.9-2.8-.5-5.7-.9-9.6-1.6z" fill="url(#q)"/><linearGradient id="r" gradientUnits="userSpaceOnUse" x1="615.777" y1="280.704" x2="615.777" y2="285.714" gradientTransform="matrix(1 0 0 -1 0 502)"><stop offset="0" stop-color="#e6dfcc"/><stop offset=".53" stop-color="#e5d9c3"/><stop offset="1" stop-color="#ccbda6"/></linearGradient><path d="M605.8 216.6c4.7-.1 9.4-.3 13.9-.2 2.4.1 4.7.5 6.9 1.1.7.2.3 1.1-.3 1.5-1.1 1.1-2.5 1.8-4 2.2-1.1.3-3.9-.2-5.8-.5-2.4-.3-4.7-.7-7-1.3-1.7-.6-3.4-1.4-5-2.3l1.3-.5z" fill="url(#r)"/><linearGradient id="s" gradientUnits="userSpaceOnUse" x1="567.87" y1="342.46" x2="567.87" y2="349.52" gradientTransform="matrix(1 0 0 -1 0 502)"><stop offset="0" stop-color="#e6dfcc"/><stop offset=".53" stop-color="#e5d9c3"/><stop offset="1" stop-color="#ccbda6"/></linearGradient><path d="M570.3 159.5h-10.6l2.3-2.4-5.7-.5 13.2-4.2 6.9 3.3 3 1.4c-1.8.3-3.5.7-5.3.9-.8.1-1.6.1-2.4 0l-1.4 1.5z" fill="url(#s)"/><linearGradient id="t" gradientUnits="userSpaceOnUse" x1="554.286" y1="332.065" x2="554.286" y2="338.69" gradientTransform="matrix(1 0 0 -1 0 502)"><stop offset="0" stop-color="#e6dfcc"/><stop offset=".53" stop-color="#e5d9c3"/><stop offset="1" stop-color="#ccbda6"/></linearGradient><path d="M544.3 165.8c6.5-.8 14.1.7 18.6-2.5l2.1 2.7c-2.9 1.4-5.9 2.5-8.9 3.4-3.6.9-7.3.2-10.7-.6-3.5-.8-.7-1.9-1.1-3z" fill="url(#t)"/><linearGradient id="u" gradientUnits="userSpaceOnUse" x1="345.84" y1="334.03" x2="345.84" y2="338.23" gradientTransform="matrix(1 0 0 -1 0 502)"><stop offset="0" stop-color="#e6dfcc"/><stop offset=".53" stop-color="#e5d9c3"/><stop offset="1" stop-color="#ccbda6"/></linearGradient><path d="M359 166c-.7.5-1.5.8-2.4 1.1-2.1.6-4.2.9-6.4.9-5.8-.3-11.4-1-17-1.5-1.8-2.2.5-2.7 5.8-2.3 1.7.1 4-.6 5.5-.4 5.2.6 10 1.5 14.5 2.2z" fill="url(#u)"/><linearGradient id="v" gradientUnits="userSpaceOnUse" x1="554.135" y1="368.125" x2="554.135" y2="375.21" gradientTransform="matrix(1 0 0 -1 0 502)"><stop offset="0" stop-color="#e6dfcc"/><stop offset=".53" stop-color="#e5d9c3"/><stop offset="1" stop-color="#ccbda6"/></linearGradient><path d="M565.2 127.5l-4.6 2.8 5 .1c-2 .7-4.1 1.6-6.6 2.3-2 .6-4.2 2.1-6.7.3-.4-.3-2.8 0-4.3-.1-1.8-.1-3.5-.2-5.5-.3l5.3-2.8c.4-.3.9-.5 1.4-.6 5 0 9.9-.9 14.6-2.4l1.4.7z" fill="url(#v)"/><linearGradient id="w" gradientUnits="userSpaceOnUse" x1="616.95" y1="324.56" x2="616.95" y2="331.934" gradientTransform="matrix(1 0 0 -1 0 502)"><stop offset="0" stop-color="#e6dfcc"/><stop offset=".53" stop-color="#e5d9c3"/><stop offset="1" stop-color="#ccbda6"/></linearGradient><path d="M625.2 170.7l-4.9.5c-.2 1-1.3 2.1-.6 2.9 1.4 1.5-.6 2.5-3.6 3.4l-5.8-2 6.4-.2.9-.6c-7.1.7-6-1.6-8.8-2.5.7-.5 1.4-.9 2.1-1.3l4.3 1.6c.6-.3 1.1-.4 1.2-.6 1-2.1 1.4-2.2 8.8-1.2z" fill="url(#w)"/><linearGradient id="x" gradientUnits="userSpaceOnUse" x1="665.716" y1="346.47" x2="665.716" y2="352" gradientTransform="matrix(1 0 0 -1 0 502)"><stop offset="0" stop-color="#e6dfcc"/><stop offset=".53" stop-color="#e5d9c3"/><stop offset="1" stop-color="#ccbda6"/></linearGradient><path d="M670 153.8l.5 1.8-14.1-2.5c4.8-1.1 8.5-2.1 12.5-2.8 3.6-.6 6 .3 5.9 1.5 0 .6-2.2 1.4-3.4 2.1l-1.4-.1z" fill="url(#x)"/><linearGradient id="y" gradientUnits="userSpaceOnUse" x1="595.281" y1="404.81" x2="595.281" y2="412.25" gradientTransform="matrix(1 0 0 -1 0 502)"><stop offset="0" stop-color="#e6dfcc"/><stop offset=".53" stop-color="#e5d9c3"/><stop offset="1" stop-color="#ccbda6"/></linearGradient><path d="M601.1 92c-1.2 1.1-2.5 2.1-3.9 3-1.8.8-3.6 1.6-5.5 2.2-8.4-1.9-1.3-4.6-1.8-7.4l12.9 1.7-1.7.5z" fill="url(#y)"/><linearGradient id="z" gradientUnits="userSpaceOnUse" x1="349.26" y1="318.79" x2="349.26" y2="323.26" gradientTransform="matrix(1 0 0 -1 0 502)"><stop offset="0" stop-color="#e6dfcc"/><stop offset=".53" stop-color="#e5d9c3"/><stop offset="1" stop-color="#ccbda6"/></linearGradient><path d="M352.9 178.7l6.4 1.8c-2.3.7-4.6 1.9-7.8 2.4-4.1.6-8.4-.1-12.2-1.8l2.9-.9 2.2 1.6 8.5-3.1z" fill="url(#z)"/><linearGradient id="A" gradientUnits="userSpaceOnUse" x1="500.525" y1="291.06" x2="500.525" y2="293.98" gradientTransform="matrix(1 0 0 -1 0 502)"><stop offset="0" stop-color="#e6dfcc"/><stop offset=".53" stop-color="#e5d9c3"/><stop offset="1" stop-color="#ccbda6"/></linearGradient><path d="M506.8 210.4c-6.9.9-7.9.8-11.7-1-.6-.3-.5-.8-.8-1.1 1.1-.1 2.1-.1 3.2-.1 6-.6 7.3 1 9.2 2.3l.1-.1z" fill="url(#A)"/><linearGradient id="B" gradientUnits="userSpaceOnUse" x1="300.808" y1="291.251" x2="300.808" y2="294.75" gradientTransform="matrix(1 0 0 -1 0 502)"><stop offset="0" stop-color="#e6dfcc"/><stop offset=".53" stop-color="#e5d9c3"/><stop offset="1" stop-color="#ccbda6"/></linearGradient><path d="M305.9 207.2c.2.7.3 1.5.1 2.3-.4 1.3-3.3 1.3-6.7 1.2.1-.9.1-1.6.2-2.4l-3.9-.2-.1-.4 10.4-.5z" fill="url(#B)"/><linearGradient id="C" gradientUnits="userSpaceOnUse" x1="184.066" y1="263.49" x2="184.066" y2="265.92" gradientTransform="matrix(1 0 0 -1 0 502)"><stop offset="0" stop-color="#e6dfcc"/><stop offset=".53" stop-color="#e5d9c3"/><stop offset="1" stop-color="#ccbda6"/></linearGradient><path d="M177.8 237.3c4.4.4 7.3.4 8.1-1 1.1-.1 2.2-.2 3.3-.2.4.7 1.6 1.6.9 2.2s-9.9 0-12.3-1z" fill="url(#C)"/><linearGradient id="D" gradientUnits="userSpaceOnUse" x1="550.085" y1="318.09" x2="550.085" y2="321.58" gradientTransform="matrix(1 0 0 -1 0 502)"><stop offset="0" stop-color="#e6dfcc"/><stop offset=".53" stop-color="#e5d9c3"/><stop offset="1" stop-color="#ccbda6"/></linearGradient><path d="M554.5 180.4l1.5 1.5-11.9 2c.6-2 4.2-3.3 10.4-3.5z" fill="url(#D)"/><linearGradient id="E" gradientUnits="userSpaceOnUse" x1="227.742" y1="271.29" x2="227.742" y2="272.889" gradientTransform="matrix(1 0 0 -1 0 502)"><stop offset="0" stop-color="#e6dfcc"/><stop offset=".53" stop-color="#e5d9c3"/><stop offset="1" stop-color="#ccbda6"/></linearGradient><path d="M230.6 229.4l-1.9.1 3.6.8-.3.4c-2.6-.1-5.7.1-7.6-.4-2.6-.6-1.1-1.3 2.5-1.2l3.6.1.1.2z" fill="url(#E)"/><linearGradient id="F" gradientUnits="userSpaceOnUse" x1="484.55" y1="290.35" x2="484.55" y2="292.878" gradientTransform="matrix(1 0 0 -1 0 502)"><stop offset="0" stop-color="#e6dfcc"/><stop offset=".53" stop-color="#e5d9c3"/><stop offset="1" stop-color="#ccbda6"/></linearGradient><path d="M483.9 211.6c-1.9-.8-3.4-1.5-.4-2.4 1.1-.2 2.2-.2 3.3.1 1.3 1 0 1.7-2.9 2.3z" fill="url(#F)"/><linearGradient id="G" gradientUnits="userSpaceOnUse" x1="646.704" y1="402.69" x2="646.704" y2="405.68" gradientTransform="matrix(1 0 0 -1 0 502)"><stop offset="0" stop-color="#e6dfcc"/><stop offset=".53" stop-color="#e5d9c3"/><stop offset="1" stop-color="#ccbda6"/></linearGradient><path d="M650.5 98.2l-7.7 1.2c-2.5-2 1.8-2.4 4.2-3 .9-.2 2.9.6 4.3 1l-.8.8z" fill="url(#G)"/><linearGradient id="H" gradientUnits="userSpaceOnUse" x1="309.665" y1="333.02" x2="309.665" y2="335.6" gradientTransform="matrix(1 0 0 -1 0 502)"><stop offset="0" stop-color="#e6dfcc"/><stop offset=".53" stop-color="#e5d9c3"/><stop offset="1" stop-color="#ccbda6"/></linearGradient><path d="M305 166.4l9.3 2.3c-5.3.7-8.1.1-9.3-2.3z" fill="url(#H)"/><linearGradient id="I" gradientUnits="userSpaceOnUse" x1="456.615" y1="285.66" x2="456.615" y2="287.77" gradientTransform="matrix(1 0 0 -1 0 502)"><stop offset="0" stop-color="#e6dfcc"/><stop offset=".53" stop-color="#e5d9c3"/><stop offset="1" stop-color="#ccbda6"/></linearGradient><path d="M461.2 214.8c-1 .1-2 .3-3 .3-.8 0-1.6-.1-2.4-.2l.8 1.4-4.5-1 .3-.6 8.5-.5.3.6z" fill="url(#I)"/><linearGradient id="J" gradientUnits="userSpaceOnUse" x1="166.931" y1="291.81" x2="166.931" y2="294.29" gradientTransform="matrix(1 0 0 -1 0 502)"><stop offset="0" stop-color="#e6dfcc"/><stop offset=".53" stop-color="#e5d9c3"/><stop offset="1" stop-color="#ccbda6"/></linearGradient><path d="M165.8 207.7c1.8.8 3.1 1.2 3.4 1.6.2.2-1.2.6-1.9.9-.9-.2-1.9-.5-2.7-.9-.2-.4.6-.8 1.2-1.6z" fill="url(#J)"/><linearGradient id="K" gradientUnits="userSpaceOnUse" x1="587.29" y1="352.41" x2="587.29" y2="354.26" gradientTransform="matrix(1 0 0 -1 0 502)"><stop offset="0" stop-color="#e6dfcc"/><stop offset=".53" stop-color="#e5d9c3"/><stop offset="1" stop-color="#ccbda6"/></linearGradient><path d="M584.3 147.7l7.3.6c-1.7.6-3.2 1.3-3.7 1.2-1.7-.3-3.4-.7-5-1.2l1.4-.6z" fill="url(#K)"/><linearGradient id="L" gradientUnits="userSpaceOnUse" x1="367.031" y1="321.86" x2="367.031" y2="323.26" gradientTransform="matrix(1 0 0 -1 0 502)"><stop offset="0" stop-color="#e6dfcc"/><stop offset=".53" stop-color="#e5d9c3"/><stop offset="1" stop-color="#ccbda6"/></linearGradient><path d="M369.4 180.1c-1.8-.1-3.5-.2-5.2-.4-.2 0 .3-1 .4-.9 1.8 0 3.6.1 5.4.2-.2.4-.4.8-.6 1.1z" fill="url(#L)"/><linearGradient id="M" gradientUnits="userSpaceOnUse" x1="607.05" y1="329.99" x2="607.05" y2="332.66" gradientTransform="matrix(1 0 0 -1 0 502)"><stop offset="0" stop-color="#e6dfcc"/><stop offset=".53" stop-color="#e5d9c3"/><stop offset="1" stop-color="#ccbda6"/></linearGradient><path d="M604.4 171.7c.2-.5.6-.9 1-1.3.8-.4 1.6-.8 2.5-1 .6 0 1.2 0 1.8.2-.3.4-.7.8-1.2 1-.9.5-2 1-3 1.4l-1.1-.3z" fill="url(#M)"/><linearGradient id="N" gradientUnits="userSpaceOnUse" x1="601.88" y1="351.24" x2="601.88" y2="353.7" gradientTransform="matrix(1 0 0 -1 0 502)"><stop offset="0" stop-color="#e6dfcc"/><stop offset=".53" stop-color="#e5d9c3"/><stop offset="1" stop-color="#ccbda6"/></linearGradient><path d="M597.8 149.7l2.4-1.4 5.8 2c-3.9 1.3-4.8-.8-8.2-.6z" fill="url(#N)"/><linearGradient id="O" gradientUnits="userSpaceOnUse" x1="462.275" y1="283.52" x2="462.275" y2="286.022" gradientTransform="matrix(1 0 0 -1 0 502)"><stop offset="0" stop-color="#e6dfcc"/><stop offset=".53" stop-color="#e5d9c3"/><stop offset="1" stop-color="#ccbda6"/></linearGradient><path d="M462.4 218.5l-1.8-2.4c1.8-.3 1.8-.3 3.5 2.1l-1.7.3z" fill="url(#O)"/><linearGradient id="P" gradientUnits="userSpaceOnUse" x1="616.755" y1="249" x2="616.755" y2="251.21" gradientTransform="matrix(1 0 0 -1 0 502)"><stop offset="0" stop-color="#e6dfcc"/><stop offset=".53" stop-color="#e5d9c3"/><stop offset="1" stop-color="#ccbda6"/></linearGradient><path d="M594.9 252c0-1.5 3.1-1.3 5.7-1.1 4.4.3 8.6.8 13.1.9 4.8.2 9.8.1 14.7.1.4 0 .9-.1 1.3 0 3 .2 5.9.6 8.8 1.1l-43.6-1z" fill="url(#P)"/></g><defs><path id="Q" d="M0 0h750v500H0z"/></defs><clipPath id="R"><use xlink:href="#Q" overflow="visible"/></clipPath><g clip-path="url(#R)"><linearGradient id="S" gradientUnits="userSpaceOnUse" x1="334.45" y1="271.22" x2="334.45" y2="211.78" gradientTransform="matrix(1 0 0 -1 0 502)"><stop offset="0" stop-color="#d8ba93"/><stop offset=".51" stop-color="#e0b889"/><stop offset="1" stop-color="#d4a972"/></linearGradient><path d="M-53.6 312.2v-78.5s26.1-10.1 45.2-14.3S64.7 236 124.1 236s84.4-5.9 95.1-7.1 10.7 4.8 35.1 10.7 47.5 11.9 70.1 13.1 43.4-7.7 61.8-10.1 36.3 3 36.3 3 26.1-6.5 38.6-4.8 30.9 14.9 45.2 14.9c14.3 0 91.5-23.2 108.2-22s7.7 5.4 38.6 8.3 48.7 7.1 69.5 17.8v52.3l-776.2.1z" fill="url(#S)"/><linearGradient id="T" gradientUnits="userSpaceOnUse" x1="139.98" y1="244.572" x2="49.31" y2="165.912" gradientTransform="matrix(1 0 0 -1 0 502)"><stop offset="0" stop-color="#ccbda6"/><stop offset="1" stop-color="#e6dfcc" stop-opacity="0"/></linearGradient><path d="M-61 289.1s82.7-34 146.7-27.3 149.3 56 149.3 56H-60.3l-.7-28.7z" opacity=".4" fill="url(#T)"/><linearGradient id="U" gradientUnits="userSpaceOnUse" x1="498.619" y1="232.994" x2="463.289" y2="238.664" gradientTransform="matrix(1 0 0 -1 0 502)"><stop offset="0" stop-color="#d4a972"/><stop offset="1" stop-color="#e0b88a" stop-opacity="0"/></linearGradient><path d="M508.7 257.1l-86 17.7 59-26.3c0-.1 19 7.9 27 8.6z" opacity=".5" fill="url(#U)"/><linearGradient id="V" gradientUnits="userSpaceOnUse" x1="695.759" y1="190.394" x2="609.089" y2="204.294" gradientTransform="matrix(1 0 0 -1 0 502)"><stop offset="0" stop-color="#d4a972"/><stop offset="1" stop-color="#e0b88a" stop-opacity="0"/></linearGradient><path d="M715.7 295.1s-19.7-18-70-20-134 37-134 37h204v-17z" fill="url(#V)"/><linearGradient id="W" gradientUnits="userSpaceOnUse" x1="373.82" y1="240.02" x2="373.82" y2="168.43" gradientTransform="matrix(1 0 0 -1 0 502)"><stop offset="0" stop-color="#f3c58a"/><stop offset=".51" stop-color="#ffb15b"/><stop offset="1" stop-color="#efb366"/></linearGradient><path d="M-65.2 300.3s87.4 16 188.1 3.6 132.8-33 153.3-32.1 76.7 13.4 144.4 8 77.6-10.7 97.2-10.7 76.7-10.7 113.2-12.5 58.8 4.5 102.5 2.7c27.1-1.2 53.9-5.1 80.2-11.6V360H-66.1s0-59.7.9-59.7z" fill="url(#W)"/><linearGradient id="X" gradientUnits="userSpaceOnUse" x1="33.328" y1="166.22" x2="33.328" y2="135.49" gradientTransform="matrix(1 0 0 -1 0 502)"><stop offset="0" stop-color="#c0702b"/><stop offset="1" stop-color="#eba955" stop-opacity="0"/></linearGradient><path d="M-28.7 361.8S66.7 328 88.1 329.7s-11.6 48.1-11.6 48.1-105.2-13.3-105.2-16z" opacity=".5" fill="url(#X)"/><linearGradient id="Y" gradientUnits="userSpaceOnUse" x1="388.81" y1="182.08" x2="388.81" y2="144.98" gradientTransform="matrix(1 0 0 -1 0 502)"><stop offset="0" stop-color="#c0702b"/><stop offset="1" stop-color="#eba955" stop-opacity="0"/></linearGradient><path d="M297.6 370.7s-33.9-33.9-18.7-54.4 223.8 48.1 223.8 48.1l-205.1 6.3z" opacity=".5" fill="url(#Y)"/><linearGradient id="Z" gradientUnits="userSpaceOnUse" x1="784.796" y1="220.85" x2="784.796" y2="174.32" gradientTransform="matrix(1 0 0 -1 0 502)"><stop offset="0" stop-color="#c0702b"/><stop offset="1" stop-color="#eba955" stop-opacity="0"/></linearGradient><path d="M841.4 272.7s-124.8-5.4-113.2 11.6 113.2 60.6 113.2 60.6 1.8-74 0-72.2z" opacity=".5" fill="url(#Z)"/><linearGradient id="aa" gradientUnits="userSpaceOnUse" x1="663.1" y1="173.76" x2="663.1" y2="140.13" gradientTransform="matrix(1 0 0 -1 0 502)"><stop offset="0" stop-color="#c0702b"/><stop offset="1" stop-color="#eba955" stop-opacity="0"/></linearGradient><path d="M532.1 374.3s35.7-56.2 102.5-52.6 159.6 51.7 159.6 51.7l-262.1.9z" opacity=".5" fill="url(#aa)"/><linearGradient id="ab" gradientUnits="userSpaceOnUse" x1="477.37" y1="217.728" x2="556.34" y2="217.728" gradientTransform="matrix(1 0 0 -1 0 502)"><stop offset="0" stop-color="#eba955" stop-opacity="0"/><stop offset="1" stop-color="#c0702b"/></linearGradient><path d="M461.6 294.1s28.5 8 60.6 4.5 63.3-29.4 63.3-29.4l-123.9 24.9z" opacity=".4" fill="url(#ab)"/><linearGradient id="ac" gradientUnits="userSpaceOnUse" x1="366.67" y1="211.465" x2="428.37" y2="211.465" gradientTransform="matrix(1 0 0 -1 0 502)"><stop offset="0" stop-color="#c0702b"/><stop offset="1" stop-color="#eba955" stop-opacity="0"/></linearGradient><path d="M354.4 281.1s44.9 21.4 67.8 18.7 30.6-8.9 28.8-14.6-49.1 9.2-96.6-4.1z" fill="url(#ac)"/><linearGradient id="ad" gradientUnits="userSpaceOnUse" x1="702.215" y1="226.93" x2="702.215" y2="234.21" gradientTransform="matrix(1 0 0 -1 0 502)"><stop offset="0" stop-color="#c0702b"/><stop offset="1" stop-color="#eba955" stop-opacity="0"/></linearGradient><path d="M677.1 268c7.2 6 16.5 9 25.9 8.5 9.3-.4 18-4.5 24.3-11.4l-50.2 2.9z" opacity=".6" fill="url(#ad)"/><linearGradient id="ae" gradientUnits="userSpaceOnUse" x1="366.365" y1="51.88" x2="366.365" y2="219" gradientTransform="matrix(1 0 0 -1 0 502)"><stop offset="0" stop-color="#c0702b"/><stop offset=".52" stop-color="#eba955"/><stop offset="1" stop-color="#f0c083"/></linearGradient><path d="M-78.9 332.5s100.3 20.1 135 18.7 89.6-26.7 141.7-26.7 111-5.4 149.8-12S427.9 283 476 283s38.8 32.1 104.3 30.8 215.9-20.8 231.3-5.4v141.7H-78.9s4-117.6 0-117.6z" fill="url(#ae)"/><linearGradient id="af" gradientUnits="userSpaceOnUse" x1="491.085" y1="213.482" x2="515.445" y2="157.032" gradientTransform="matrix(1 0 0 -1 0 502)"><stop offset=".22" stop-color="#c0702b"/><stop offset="1" stop-color="#c0702b" stop-opacity="0"/></linearGradient><path d="M453.9 350.2s11.9-52.9 42.2-55.9c30.3-3 29.7 24.4 71.3 23.2 0 0-37.4 54.7-113.5 32.7z" opacity=".4" fill="url(#af)"/><linearGradient id="ag" gradientUnits="userSpaceOnUse" x1="316.65" y1="58.17" x2="316.65" y2="153.551" gradientTransform="matrix(1 0 0 -1 0 502)"><stop offset="0" stop-color="#eba955" stop-opacity="0"/><stop offset="1" stop-color="#c0702b"/></linearGradient><path d="M469.6 443.8s-12.2-90.9-80.3-95.2-225.7 92.8-225.7 92.8l306 2.4z" opacity=".2" fill="url(#ag)"/><linearGradient id="ah" gradientUnits="userSpaceOnUse" x1="373.045" y1="-4.28" x2="373.045" y2="154.82" gradientTransform="matrix(1 0 0 -1 0 502)"><stop offset="0" stop-color="#eba955"/><stop offset=".2" stop-color="#eba955"/><stop offset=".77" stop-color="#eda656"/></linearGradient><path d="M-66.9 402S0 373.9 66.8 369.9s135 26.7 196.5 18.7 50.8 0 97.6-8 93.6 2.7 181.8 2.7 240.7-36.1 270.1-36.1v159.1H-66.9s2.7-104.3 0-104.3z" fill="url(#ah)"/><linearGradient id="ai" gradientUnits="userSpaceOnUse" x1="240.695" y1="-77.82" x2="240.695" y2="78.625" gradientTransform="matrix(1 0 0 -1 0 502)"><stop offset="0" stop-color="#eba955" stop-opacity="0"/><stop offset="1" stop-color="#c0702b"/></linearGradient><path d="M579 523.7s-16-97.9-122.2-100.3-484.5 90.7-554.4 90.7v65.7H579v-56.1z" opacity=".5" fill="url(#ai)"/><linearGradient id="aj" gradientUnits="userSpaceOnUse" x1="739.425" y1="5.08" x2="739.425" y2="162.86" gradientTransform="matrix(1 0 0 -1 0 502)"><stop offset=".16" stop-color="#c0702b"/><stop offset="1" stop-color="#eba955" stop-opacity="0"/></linearGradient><path d="M821 518.3s-163.2-70.9-163.2-101.6S813 360.5 813 360.5l8 157.8z" opacity=".4" fill="url(#aj)"/><linearGradient id="ak" gradientUnits="userSpaceOnUse" x1="528.49" y1="165.59" x2="528.49" y2="170.04" gradientTransform="matrix(1 0 0 -1 0 502)"><stop offset="0" stop-color="#eba955"/><stop offset=".2" stop-color="#eba955"/><stop offset=".77" stop-color="#eda656"/></linearGradient><path d="M528.5 336.4c2.9 0 2.9-4.5 0-4.5s-2.9 4.5 0 4.5z" fill="url(#ak)"/><linearGradient id="al" gradientUnits="userSpaceOnUse" x1="50.381" y1="59.67" x2="50.381" y2="115.352" gradientTransform="matrix(1 0 0 -1 0 502)"><stop offset="0" stop-color="#eba955" stop-opacity="0"/><stop offset="1" stop-color="#c0702b"/></linearGradient><path d="M-66.1 437s29.1 10.7 99.2 1.8 132.5-24.4 133.7-35.7-88.6-18.4-117.1-16-115.3 24.3-115.3 24.3l-.5 25.6z" opacity=".5" fill="url(#al)"/></g></svg>