<svg xmlns="http://www.w3.org/2000/svg" xmlns:xlink="http://www.w3.org/1999/xlink" viewBox="0 0 750 500"><defs><radialGradient id="Degradado_sin_nombre_281" cx="384.86" cy="383.3" r="259.45" gradientTransform="matrix(1 0 0 1.25 0 -79.24)" gradientUnits="userSpaceOnUse"><stop offset="0" stop-color="#f8debe"/><stop offset=".08" stop-color="#f8debe" stop-opacity=".91"/><stop offset=".54" stop-color="#f8debe" stop-opacity=".43"/><stop offset=".86" stop-color="#f8debe" stop-opacity=".12"/><stop offset="1" stop-color="#f8debe" stop-opacity="0"/></radialGradient><radialGradient id="radial-gradient" cx="327.36" cy="365.31" r="413.63" gradientUnits="userSpaceOnUse"><stop offset=".1"/><stop offset=".15" stop-color="#191605"/><stop offset=".21" stop-color="#2f2909"/><stop offset=".27" stop-color="#40370c"/><stop offset=".36" stop-color="#4b410e"/><stop offset=".47" stop-color="#524710"/><stop offset=".8" stop-color="#544910"/><stop offset="1"/></radialGradient><radialGradient id="radial-gradient-2" cx="588.72" cy="120.14" r="13.79" gradientUnits="userSpaceOnUse"><stop offset="0" stop-color="#d6e098"/><stop offset=".06" stop-color="#b2ba7e"/><stop offset=".14" stop-color="#888f61"/><stop offset=".22" stop-color="#646847"/><stop offset=".31" stop-color="#454831"/><stop offset=".4" stop-color="#2b2e1f"/><stop offset=".5" stop-color="#181911"/><stop offset=".62" stop-color="#0a0b07"/><stop offset=".76" stop-color="#020302"/><stop offset="1"/></radialGradient><radialGradient id="radial-gradient-3" cx="629.86" cy="81.56" r="13.79" xlink:href="#radial-gradient-2"/><radialGradient id="radial-gradient-4" cx="617.76" cy="92.91" r="103.41" gradientTransform="rotate(45 617.758 92.904)" gradientUnits="userSpaceOnUse"><stop offset=".05"/><stop offset=".1" stop-color="#070b04"/><stop offset=".3" stop-color="#243513"/><stop offset=".48" stop-color="#3a541f"/><stop offset=".64" stop-color="#466726"/><stop offset=".75" stop-color="#4b6e28"/><stop offset=".76" stop-color="#506f26"/><stop offset=".82" stop-color="#727215"/><stop offset=".86" stop-color="#7f740e"/><stop offset=".89" stop-color="#7b710e"/><stop offset=".91" stop-color="#71670c"/><stop offset=".94" stop-color="#5e560a"/><stop offset=".96" stop-color="#453f08"/><stop offset=".98" stop-color="#242104"/><stop offset="1"/></radialGradient><radialGradient id="radial-gradient-5" cx="387.86" cy="308.56" r="275.75" gradientUnits="userSpaceOnUse"><stop offset="0"/><stop offset=".73" stop-color="#834a29"/><stop offset="1"/></radialGradient><radialGradient id="radial-gradient-6" cx="387.86" cy="308.56" r="137.88" gradientTransform="rotate(45 387.853 308.554)" gradientUnits="userSpaceOnUse"><stop offset=".15" stop-color="#fff"/><stop offset=".21" stop-color="#e2d7d7"/><stop offset=".29" stop-color="#bba1a0"/><stop offset=".36" stop-color="#9e7978"/><stop offset=".42" stop-color="#8c6160"/><stop offset=".45" stop-color="#865857"/><stop offset=".46" stop-color="#7f5453"/><stop offset=".59" stop-color="#49302f"/><stop offset=".71" stop-color="#211616"/><stop offset=".8" stop-color="#090606"/><stop offset=".85"/><stop offset=".86" stop-color="#040201"/><stop offset=".86" stop-color="#110804"/><stop offset=".87" stop-color="#251309"/><stop offset=".88" stop-color="#422211"/><stop offset=".89" stop-color="#68351a"/><stop offset=".89" stop-color="#954b26"/><stop offset=".9" stop-color="#ba5e2f"/><stop offset=".9" stop-color="#a6542a"/><stop offset=".92" stop-color="#7b3e1f"/><stop offset=".93" stop-color="#552b15"/><stop offset=".94" stop-color="#361b0e"/><stop offset=".95" stop-color="#1e0f08"/><stop offset=".97" stop-color="#0d0703"/><stop offset=".98" stop-color="#030201"/><stop offset="1"/></radialGradient><radialGradient id="radial-gradient-7" cx="387.86" cy="308.56" r="114.9" gradientUnits="userSpaceOnUse"><stop offset=".15" stop-color="#fff"/><stop offset=".28" stop-color="#c2c2c2"/><stop offset=".43" stop-color="#888"/><stop offset=".56" stop-color="#575757"/><stop offset=".69" stop-color="#313131"/><stop offset=".81" stop-color="#161616"/><stop offset=".92" stop-color="#060606"/><stop offset="1"/></radialGradient><radialGradient id="radial-gradient-8" cx="629.86" cy="81.56" r="206.82" gradientTransform="rotate(45 629.858 81.556)" gradientUnits="userSpaceOnUse"><stop offset=".64"/><stop offset=".72" stop-color="#010200"/><stop offset=".74" stop-color="#050902"/><stop offset=".76" stop-color="#0c1405"/><stop offset=".78" stop-color="#162508"/><stop offset=".79" stop-color="#233b0d"/><stop offset=".8" stop-color="#2b4810"/><stop offset=".8" stop-color="#2b4710"/><stop offset=".82" stop-color="#2c2809"/><stop offset=".83" stop-color="#2d1204"/><stop offset=".85" stop-color="#2e0501"/><stop offset=".86" stop-color="#2e0000"/><stop offset=".87" stop-color="#250000"/><stop offset=".88" stop-color="#140000"/><stop offset=".9" stop-color="#090000"/><stop offset=".93" stop-color="#020000"/><stop offset="1"/></radialGradient><radialGradient id="radial-gradient-9" cx="370.71" cy="324.64" r="61.86" gradientTransform="rotate(12.93 370.77 324.717)" gradientUnits="userSpaceOnUse"><stop offset=".1" stop-color="#115851"/><stop offset=".25" stop-color="#0c3d38"/><stop offset=".43" stop-color="#07221f"/><stop offset=".61" stop-color="#030f0e"/><stop offset=".8" stop-color="#010403"/><stop offset="1"/></radialGradient><radialGradient id="radial-gradient-10" cx="506.53" cy="197.24" r="60.25" gradientTransform="rotate(45 506.53 197.242)" gradientUnits="userSpaceOnUse"><stop offset=".1"/><stop offset=".23" stop-color="#0c040d"/><stop offset=".48" stop-color="#1f0a20"/><stop offset=".73" stop-color="#290e2b"/><stop offset="1" stop-color="#2d0f2f"/></radialGradient><radialGradient id="radial-gradient-11" cx="613.45" cy="96.94" r="66.51" gradientTransform="rotate(9.78 613.54 96.98)" gradientUnits="userSpaceOnUse"><stop offset=".1" stop-color="#28564d"/><stop offset=".24" stop-color="#1c3d36"/><stop offset=".42" stop-color="#10221e"/><stop offset=".61" stop-color="#070f0d"/><stop offset=".8" stop-color="#020403"/><stop offset="1"/></radialGradient><radialGradient id="radial-gradient-12" cx="607.76" cy="102.29" r="1.73" gradientUnits="userSpaceOnUse"><stop offset=".1" stop-color="#939baa"/><stop offset=".19" stop-color="#767d89"/><stop offset=".32" stop-color="#52575f"/><stop offset=".45" stop-color="#35373d"/><stop offset=".58" stop-color="#1d1f22"/><stop offset=".71" stop-color="#0d0e0f"/><stop offset=".85" stop-color="#030304"/><stop offset="1"/></radialGradient><radialGradient id="radial-gradient-13" cx="508.45" cy="195.44" r="46.85" gradientTransform="rotate(66.81 508.43 195.409)" gradientUnits="userSpaceOnUse"><stop offset=".1"/><stop offset=".15" stop-color="#130d04"/><stop offset=".29" stop-color="#3d290c"/><stop offset=".42" stop-color="#5f4113"/><stop offset=".56" stop-color="#7a5318"/><stop offset=".7" stop-color="#8d601c"/><stop offset=".85" stop-color="#98671e"/><stop offset="1" stop-color="#9c6a1f"/></radialGradient><linearGradient id="Degradado_sin_nombre_283" x1="375" y1="127.14" x2="375" y2="351.26" gradientTransform="matrix(1 0 0 -1 0 644.11)" gradientUnits="userSpaceOnUse"><stop offset="0" stop-color="#0367a6"/><stop offset=".22" stop-color="#04b2d9"/><stop offset=".59" stop-color="#f2a488"/><stop offset="1" stop-color="#f2c288"/></linearGradient><linearGradient id="Degradado_sin_nombre_282" x1="375" y1="-30.33" x2="375" y2="371.61" gradientUnits="userSpaceOnUse"><stop offset="0" stop-color="#04b2d9"/><stop offset=".09" stop-color="#34a9c9"/><stop offset=".31" stop-color="#ad919f"/><stop offset=".42" stop-color="#f28488"/><stop offset=".69" stop-color="#f2a488"/><stop offset=".84" stop-color="#f2c288"/><stop offset=".91" stop-color="#f7d392"/><stop offset="1" stop-color="#fff0a4"/></linearGradient><linearGradient id="Degradado_sin_nombre_268" x1="78.88" y1="469.06" x2="78.88" y2="19.05" gradientUnits="userSpaceOnUse"><stop offset="0" stop-color="#24000e"/><stop offset=".76" stop-color="#6d2a2f"/><stop offset="1" stop-color="#53003f"/></linearGradient><linearGradient id="Degradado_sin_nombre_268-2" x1="659.39" y1="446.05" x2="659.39" y2="-14.95" xlink:href="#Degradado_sin_nombre_268"/><linearGradient id="Degradado_sin_nombre_269" x1="377.96" y1="523.13" x2="377.96" y2="398.98" gradientUnits="userSpaceOnUse"><stop offset="0" stop-color="#311a0e"/><stop offset=".56" stop-color="#542a1e"/><stop offset="1" stop-color="#744554"/></linearGradient><linearGradient id="Degradado_sin_nombre_268-3" x1="241.47" y1="179.11" x2="307.93" y2="179.11" xlink:href="#Degradado_sin_nombre_268"/><linearGradient id="Degradado_sin_nombre_268-4" x1="275.99" y1="131.63" x2="318.45" y2="131.63" xlink:href="#Degradado_sin_nombre_268"/><linearGradient id="Degradado_sin_nombre_268-5" x1="295.85" y1="222.49" x2="338.31" y2="222.49" xlink:href="#Degradado_sin_nombre_268"/><clipPath id="clip-path"><path class="cls-1" d="M0 0h750v500H0z"/></clipPath><style>.cls-1{fill:none}.cls-3{clip-path:url(#clip-path)}.cls-6,.cls-8{fill:#f8debe;mix-blend-mode:screen}.cls-8{opacity:.2}</style></defs><g style="isolation:isolate"><g class="cls-3" id="BACKGROUND"><path fill="url(#Degradado_sin_nombre_283)" d="M0 321.04h750v179.02H0z"/><path fill="url(#Degradado_sin_nombre_282)" d="M0 0h750v321.06H0z"/><path class="cls-6" d="M447.33 321.06a55 55 0 00-109.94 0z"/><path class="cls-6" d="M447.33 321.06a55 55 0 00-109.94 0z"/><path d="M465.66 321.06a73.31 73.31 0 00-146.6 0z" style="mix-blend-mode:screen" opacity=".5" fill="#f8debe"/><path class="cls-8" d="M500.27 321.06a107.93 107.93 0 00-215.82 0z"/><path class="cls-8" d="M521.65 321.06a129.31 129.31 0 00-258.58 0z"/><path d="M444.75 320.56a13.88 13.88 0 01-9.33 2.85l-.78 3.6-20.64 2.6 19.88 3.46a61.13 61.13 0 01-27.59 2.93 46.18 46.18 0 0123 8.28 350.12 350.12 0 01-54.48-1.52 32.34 32.34 0 0016.44-3.89l-49.21-.46 13.65-2.74-49-2.26 16.48-5.62a61.81 61.81 0 01-31.46-6l24.57-.69zm-164.27 15.22a383.65 383.65 0 0059.71 3.14c-5.59-4.45-16.17-2.8-23.58-2.86l-18.26-.14c-5.67-.04-12.3.62-17.87-.14zm36.19 15.54c-.3 1.59 1.32 3.11 3.29 3.78a20.44 20.44 0 006.39.69l79.28.2c-10-2.28-21.42-6.35-32.09-5.95-11.47.44-22.83 1.37-34.35 1.47-1.92.01-22.4-.51-22.52-.19zm91.91-1.59c7.17 1.8 14.94 1.58 22.51 1.34.79 0 1.85-.25 1.8-.84s-.75-.67-1.33-.8a46.31 46.31 0 00-11-1.15 58.9 58.9 0 00-6.08.39c-1.21.15-4.87 1.33-5.9 1.06zm-95.86-7.24c3.49 3.19 9.89 3.31 15.44 3.16 6.77-.18 13.55-.37 20.32-.68 1.81-.09 7.2.35 8.23-1 1.6-2.06-2.3-1.53-3.94-1.53h-30.54c-1.23.04-8.82.68-9.51.05zm34.85 17.68c7.08 2.29 15 2.74 22.71 2.69s15.29-.33 23-.21c-5.27-2.62-12.3-2.53-18.36-2.39-4.6.11-9.2.13-13.8.1-3.57-.03-10.35.85-13.55-.19zm52.22-13c-.6 0-1.36.07-1.55.5s.71 1 1.47 1.09a70.39 70.39 0 009.87 1c4.55.18 9.15.05 13.71-.09a3.58 3.58 0 001.59-.29c.44-.26.59-.82.14-1.07-2.35-1.28-8.68-1.17-11.64-1.23-4.52-.08-9.07.07-13.59.07zm-.58 13.72a5.31 5.31 0 002.27.27 167.79 167.79 0 0020.22-1.48 25.54 25.54 0 00-11-1.33c-1.65.09-14.98.93-11.49 2.52zm-88.84-.89c1.36-.41 6.77 1.22 8.49 1.37a63.73 63.73 0 009.77.15c3.62-.23 9.75-.44 12.51-2.37-2.45-1.36-7.91-.75-10.87-.73-6.49.05-13.8-.26-19.9 1.58zm-3.26-12.74a18.72 18.72 0 00-6.17 1.74 111.35 111.35 0 0014.15.18 14.81 14.81 0 00-7.95-1.78m49.33 17.67c-3.78-.37-7.82-.21-11.66-.27a33.83 33.83 0 00-6.52.33c-.45.08-5.17 1.72-4.9 1.83 2.87 1.16 8.29.74 11.62.84q7.2.22 14.39.12c9.45-.14 19.35-2 28.68-1.75-10.69-.25-20.99-.08-31.61-1.1zM134 341.48c.37 2.4 3.91 4.26 7.1 3.71L73.43 347l94.73 3.33c-.51-2.11-2.52-4-5.18-4.83 10.71.39 21.48.48 32.19.07 8.73-.33 10.8-4.18 1.69-5.39-5.38-.74-62.68 2.5-62.86 1.3zm35.32-8.18c2.61 2.21 7.09 2.37 11.06 2.37h53.36a5.89 5.89 0 002.27-.29c5.92-2.55-5.63-4.92-7.55-5.06-5.09-.38-10.52 0-15.63.09a409.6 409.6 0 00-43.51 2.89zm-39.19 1.83l-34.8.1a205.91 205.91 0 0048.24.79 132.41 132.41 0 00-24.87-.77m92.8 9.22a8.82 8.82 0 00-4 .83c-1.08.64-1.46 2-.37 2.68l43.48.54a3.61 3.61 0 002.18-.43c.74-.58.29-1.61-.62-2.06a7.31 7.31 0 00-3.13-.46c-12.79-.05-24.79-1.83-37.54-1.1zm41.29-7.47l-18.74 2a153.71 153.71 0 0034.64-.78 50.65 50.65 0 00-17.76-1M56 360a783.56 783.56 0 0086.29.15c-13.49-4.31-25.05-3.4-39.14-3.5-8-.06-16.1-.36-24.13-.08a112.15 112.15 0 00-12.45 1c-2.89.5-7.81 2.61-10.57 2.43zm-16.54-19.49q7.32.62 14.7.82c8.93.25 21.24 1.25 29.58-1.19-4.72-1.52-11-1.33-16.11-1.45-8.97-.2-19.71 2.53-28.17 1.82zm-16.1 10.38c2.13.39 4.28.73 6.44 1 5.75.71 13.19 1.72 18.77.54-6.94-3.24-17.51-2.43-25.21-1.54zm216.39 12.22c-1 .06-2.29.36-2.27 1.1s1.36 1 2.37 1c10.38.18 24.17 1.77 34.07-.33-8.79-4.52-24.33-2.4-34.17-1.77zM167 355.89c13.56-.3 27.47 2.56 41 .52-12.79-2.3-28-.81-41-.52zm279.75-11.05c13.21.38 28.86 1.73 41.77-.38-13.81-3.28-28.01.77-41.79.38zm-3 10.41a9.05 9.05 0 00-3.72.64c-1.06.54-1.62 1.74-.8 2.48a4.32 4.32 0 002.6.67c13.13.61 32.15 1.7 44.33-2.36-10.63-4.54-30.75-1.81-42.4-1.43zm1.64-20.18l36.71.14c1 0 2.31-.14 2.57-.87.35-1-1.6-1.5-3-1.5q-10.95 0-21.87-.24c-5.16-.09-10.01 2.49-14.4 2.47zM279.52 348a102.78 102.78 0 00-17.91 3.48l27.54.07c-2.33-2.73-7.32-4-11.44-3M500.88 340c12.14-.1 24.27 1.48 36.38 0-11.78-1.22-24.5-.13-36.38 0zm4.77 9.77a364.35 364.35 0 0053-1.13c-9.32-1.42-18.48-1.6-27.69-3.31a34.62 34.62 0 00-12.1-.15c-3.58.53-10.57 4.7-13.21 4.56zm54.1-10a10.23 10.23 0 00-3.86.49c-1.15.48-1.93 1.59-1.33 2.46h13.49c10 0 22.49 1.46 32.19-.31-11.42-3.67-28.24-2.65-40.49-2.65zm-63-8.05l38 .2a98 98 0 01-23.34-2.84c-2.82-.66-3.69-1.57-7.1-1.14-2.5.3-6.31 3.78-7.6 3.77zm49.61 2.78c10.46-1.5 29.69 4.31 38.35.18-9.3-5.81-27.88-1.68-38.39-.19zm59.6-.82l101.3.87a122 122 0 01-36.34 7.16 583.1 583.1 0 0075.48-1.06l-28.28-2 1.14-7.4c-19.63-.16-40 .83-59.49-1a163.08 163.08 0 00-24.33-.82c-9.69.5-20.25 4.24-29.52 4.24zm54.28 11.84c-10-.18-27.11-1.73-35.54 3.55 11.26 3.16 30.59.52 42.77.37q25.55-.3 51.07-1.27c-18.99.71-39.25-2.3-58.34-2.66zM498.46 361.3l120.62 1.33-24.94 4.49a357.74 357.74 0 0053.3-2c-4.86.55-14.77-3.57-19.55-4.72-6.34-1.53-12.66-3.12-19.22-4.06-9-1.3-17.3-.57-26.37-.42-28.44.47-55.85.88-83.84 5.38zm102.63-35.05a159.6 159.6 0 00-23.36 1.52L605 329l-8.9-2.06m-331.85-.73l-17.22-.1c-1.65 0-3.82.3-4 1.51-.19 1.39 2.39 1.9 4.27 1.89l26.31-.18-6.82-2.68m-130.53 3.45c3.61.34 7.24.59 10.87.74 6.54.28 16.43 1.42 22.4-.7-6.53-6.14-25.69-3.39-33.28-.01zm-18.76 37.66c27.69.41 55.39.9 83.09 1.21 2.87 0 12.86 1.29 13.24-1.55.48-3.61-8-3.76-10.57-3.85-13.57-.47-27.51.36-41 1-14.68.68-30.19 3.43-44.76 3.19zm604.87-10.94c-6.19-.48-12.44-.5-18.66-.73-9.1-.33-25.9-.85-33.38 3.15-1.27.68-2.08 2-1.39 3 24.69-1.24 50.15 2.71 73.89-2.47-4.03.92-15.78-2.59-20.46-2.95zm-251 12.2l-18.26.14c-7.41.06-18-1.59-23.58 2.86a383.65 383.65 0 0059.71-3.14c-5.57.76-12.24.12-17.87.12zm-40.84 15.59c-11.52-.1-22.88-1-34.35-1.47-10.67-.4-22.05 3.67-32.09 5.95l79.28-.2a20.15 20.15 0 006.39-.69c2-.67 3.59-2.19 3.29-3.78-.12-.36-20.6.2-22.52.19zm-75.32-2.84a58.9 58.9 0 00-6.08-.39 46.31 46.31 0 00-11 1.15c-.58.13-1.29.35-1.33.8s1 .82 1.8.84c7.57.24 15.34.46 22.51-1.34-1 .25-4.66-.91-5.9-1.06zm92.28-6.19H417c-1.64 0-5.54-.53-3.94 1.53 1 1.32 6.42.88 8.23 1 6.77.31 13.55.5 20.32.68 5.55.15 11.95 0 15.44-3.16-.74.59-8.28-.05-9.56-.05zm-38.84 17.88c-4.6 0-9.2 0-13.8-.1-6.06-.14-13.09-.23-18.36 2.39 7.66-.12 15.29.15 22.95.21s15.63-.4 22.71-2.69c-3.15 1.04-9.98.16-13.5.19zm-52.31-13.28c-3 .07-9.29-.05-11.64 1.23-.45.25-.3.81.14 1.07a3.58 3.58 0 001.59.29c4.56.14 9.16.27 13.71.09a70.39 70.39 0 009.87-1c.76-.14 1.72-.54 1.47-1.09s-1-.5-1.55-.5c-4.52-.02-9.07-.18-13.59-.09zm2.71 11.25a25.54 25.54 0 00-11 1.33 167.79 167.79 0 0020.22 1.48 5.31 5.31 0 002.27-.27c3.46-1.59-9.87-2.43-11.49-2.54zm80.4.09c-3 0-8.42-.63-10.87.73 2.76 1.93 8.89 2.14 12.51 2.37a63.71 63.71 0 009.77-.15c1.72-.15 7.13-1.78 8.49-1.37-6.1-1.84-13.41-1.53-19.9-1.58zm23.13-11a14.81 14.81 0 00-7.95 1.78 109.53 109.53 0 0014.15-.18 18.72 18.72 0 00-6.17-1.74m-81 18.91c9.33-.22 19.23 1.61 28.68 1.75q7.19.11 14.39-.12c3.33-.1 8.75.32 11.62-.84.27-.11-4.45-1.75-4.9-1.83a33.83 33.83 0 00-6.52-.33c-3.84.06-7.88-.1-11.66.27-10.59 1-20.89.81-31.58 1.08zm191.22-26c-9.11 1.21-7 5.06 1.69 5.39 10.71.41 21.48.32 32.19-.07-2.66.84-4.67 2.72-5.18 4.83l94.73-3.33-67.67-1.79c3.19.55 6.73-1.31 7.1-3.71-.15 1.17-57.45-2.07-62.83-1.35zm-16-9.76c-5.11-.07-10.54-.47-15.63-.09-1.92.14-13.47 2.51-7.55 5.06a5.89 5.89 0 002.27.29h53.36c4 0 8.45-.16 11.06-2.37a409.6 409.6 0 00-43.45-2.92zm94.17 4.82a132.41 132.41 0 00-24.87.77 205.91 205.91 0 0048.24-.79l-34.8-.1m-118.92 10.44a7.31 7.31 0 00-3.13.46c-.91.45-1.36 1.48-.62 2.06a3.61 3.61 0 002.18.43l43.48-.54c1.09-.65.71-2-.37-2.68a8.82 8.82 0 00-4-.83c-12.72-.73-24.72 1.05-37.54 1.1zm-1.86-8.38a50.89 50.89 0 00-17.76 1 153.71 153.71 0 0034.64.78l-18.74-2m186.18 20.63a112.15 112.15 0 00-12.45-1c-8-.28-16.1 0-24.13.08-14.09.1-25.65-.81-39.14 3.5a781.09 781.09 0 0086.29-.15c-2.68.15-7.68-1.96-10.57-2.41zm-1-18.93c-5.14.12-11.39-.07-16.11 1.45 8.34 2.44 20.65 1.44 29.58 1.19q7.38-.21 14.7-.82c-8.48.73-19.22-2-28.19-1.8zm19.06 13.74c5.58 1.19 13 .18 18.77-.54 2.16-.27 4.31-.61 6.44-1-7.72-.88-18.29-1.68-25.23 1.56zM495.8 398c9.9 2.1 23.69.51 34.07.33 1 0 2.34-.26 2.37-1s-1.27-1-2.27-1.1c-9.84-.65-25.38-2.77-34.17 1.77zm65.91-8.48c13.56 2 27.47-.82 41-.52-13-.3-28.2-1.79-41 .51zm-280.49-11.96c12.91 2.11 28.55.76 41.77.38-13.78.39-27.99-3.66-41.77-.38zm2.33 12.22c12.18 4.06 31.19 3 44.33 2.36a4.32 4.32 0 002.6-.67c.82-.74.26-1.94-.8-2.48a9.05 9.05 0 00-3.72-.64c-11.65-.35-31.77-3.11-42.41 1.43zm26.37-24.08q-10.92.21-21.87.24c-1.41 0-3.36.49-3 1.5.26.73 1.55.87 2.57.87l36.71-.14c-4.4.02-9.25-2.56-14.41-2.47zm182.09 16c-4.12-1.07-9.11.22-11.44 3l27.54-.07a102.78 102.78 0 00-17.91-3.48m-257.74-8c12.11 1.48 24.24-.1 36.38 0-11.84-.15-24.6-1.27-36.38-.08zm18.43 5.18a34.62 34.62 0 00-12.1.15c-9.21 1.71-18.37 1.89-27.69 3.31a364.35 364.35 0 0053 1.13c-2.67.08-9.66-4.11-13.21-4.67zm-81.41-2.77c9.7 1.77 22.15.3 32.19.31h13.49c.6-.87-.18-2-1.33-2.46a10.23 10.23 0 00-3.86-.49c-12.22-.06-29.07-1.08-40.49 2.56zm96-14.45c-3.41-.43-4.28.48-7.1 1.14A98 98 0 01235 365l38-.2c-1.27.02-5.09-3.46-7.53-3.8zm-80.42 6.74c8.66 4.13 27.89-1.68 38.35-.18-10.52-1.59-29.1-5.67-38.36.1zm-50.73-5.24a163.08 163.08 0 00-24.33.82c-19.48 1.84-39.86.85-59.49 1l1.14 7.4-28.28 2a583.1 583.1 0 0075.48 1.06 122 122 0 01-36.34-7.16l101.3-.87c-9.28-.09-19.81-3.86-29.49-4.33zm-83.1 18.73q25.52 1 51.07 1.27c12.18.15 31.51 2.79 42.77-.37-8.43-5.28-25.52-3.73-35.54-3.55-19.1.31-39.36 3.31-58.31 2.57zM187.42 389c-9.07-.15-17.33-.88-26.37.42-6.56.94-12.88 2.53-19.23 4.06-4.77 1.15-14.68 5.27-19.54 4.72a357.74 357.74 0 0053.3 2l-24.94-4.49 120.62-1.33c-27.99-4.48-55.4-4.89-83.84-5.38zm-13.78-28.95l-8.9 2.07 27.26-1.25a159.6 159.6 0 00-23.36-1.52m334.31.43l-6.82 2.68 26.31.18c1.88 0 4.46-.5 4.27-1.89-.17-1.21-2.34-1.52-4-1.51l-17.22.1m94.71 3.93c6 2.12 15.86 1 22.4.7 3.63-.15 7.26-.4 10.87-.74-7.59-3.38-26.72-6.18-33.27.04zm7.3 34.39c-13.53-.63-27.47-1.46-41-1-2.53.09-11.05.24-10.57 3.85.38 2.84 10.37 1.58 13.24 1.55 27.7-.31 55.4-.8 83.09-1.21-14.61.23-30.12-2.5-44.76-3.19zm114.87 3.26c-6.19-.48-12.44-.5-18.66-.73-9.1-.33-25.9-.85-33.38 3.15-1.27.68-2.08 2-1.39 3 24.69-1.24 50.15 2.71 73.89-2.47-4.03.92-15.78-2.59-20.46-2.95zm-441.89 5.36a383.65 383.65 0 0059.71 3.14c-5.59-4.45-16.17-2.8-23.58-2.86l-18.26-.14c-5.67-.04-12.3.58-17.87-.14zm36.19 15.54c-.3 1.59 1.32 3.11 3.29 3.78a20.44 20.44 0 006.39.69l79.28.2c-10-2.28-21.42-6.35-32.09-5.95-11.47.44-22.83 1.37-34.35 1.47-1.92-.01-22.4-.55-22.52-.19zm91.91-1.59c7.17 1.8 14.94 1.58 22.51 1.34.79 0 1.85-.25 1.8-.84s-.75-.67-1.33-.8a46.31 46.31 0 00-11-1.15 58.9 58.9 0 00-6.08.39c-1.21.15-4.87 1.31-5.9 1.06zM312.72 413c3.49 3.19 9.89 3.31 15.44 3.16 6.77-.18 13.55-.37 20.32-.68 1.81-.09 7.2.35 8.23-1 1.6-2.06-2.3-1.53-3.94-1.53h-30.54c-1.23.05-8.82.67-9.51.05zm34.85 17.68c7.08 2.29 15 2.74 22.71 2.69s15.29-.33 23-.21c-5.27-2.62-12.3-2.53-18.36-2.39-4.6.11-9.2.13-13.8.1-3.57-.04-10.35.84-13.55-.2zm52.22-13c-.6 0-1.36.07-1.55.5s.71 1 1.47 1.09a70.39 70.39 0 009.87 1c4.55.18 9.15.05 13.71-.09a3.58 3.58 0 001.59-.29c.44-.26.59-.82.14-1.07-2.35-1.28-8.68-1.17-11.64-1.23-4.52-.1-9.07.06-13.59.06zm-.58 13.72a5.31 5.31 0 002.27.27 167.79 167.79 0 0020.22-1.48 25.54 25.54 0 00-11-1.33c-1.65.08-14.98.92-11.49 2.51zm-88.84-.87c1.36-.41 6.77 1.22 8.49 1.37a63.73 63.73 0 009.77.15c3.62-.23 9.75-.44 12.51-2.37-2.45-1.36-7.91-.75-10.87-.73-6.49.05-13.8-.29-19.9 1.55zm-3.26-12.74a18.72 18.72 0 00-6.17 1.74 111.35 111.35 0 0014.15.18 14.81 14.81 0 00-7.95-1.78m49.33 17.67c-3.78-.37-7.82-.21-11.66-.27a33.83 33.83 0 00-6.52.33c-.45.08-5.17 1.72-4.9 1.83 2.87 1.16 8.29.74 11.62.84q7.2.22 14.39.12c9.45-.14 19.35-2 28.68-1.75-10.69-.28-20.99-.11-31.61-1.13zM134 412c.37 2.4 3.91 4.26 7.1 3.71l-67.67 1.79 94.73 3.33c-.51-2.11-2.52-4-5.18-4.83 10.71.39 21.48.48 32.19.07 8.73-.33 10.8-4.18 1.69-5.39-5.38-.74-62.68 2.5-62.86 1.32zm35.32-8.18c2.61 2.21 7.09 2.37 11.06 2.37h53.36a5.89 5.89 0 002.27-.29c5.92-2.55-5.63-4.92-7.55-5.06-5.09-.38-10.52 0-15.63.09a409.6 409.6 0 00-43.51 2.87zm-39.19 1.83l-34.8.1a205.91 205.91 0 0048.24.79 132.41 132.41 0 00-24.87-.77m92.8 9.23a8.82 8.82 0 00-4 .83c-1.08.64-1.46 2-.37 2.68l43.48.54a3.61 3.61 0 002.18-.43c.74-.58.29-1.61-.62-2.06a7.31 7.31 0 00-3.13-.46c-12.79-.1-24.79-1.86-37.54-1.1zm41.29-7.48l-18.74 2a153.71 153.71 0 0034.64-.78 50.65 50.65 0 00-17.76-1M56 430.52a783.56 783.56 0 0086.29.15c-13.49-4.31-25.05-3.4-39.14-3.5-8-.06-16.1-.36-24.13-.08a112.15 112.15 0 00-12.45 1c-2.89.48-7.81 2.59-10.57 2.43zM39.46 411q7.32.62 14.7.82c8.93.25 21.24 1.25 29.58-1.19-4.72-1.52-11-1.33-16.11-1.45-8.97-.18-19.71 2.54-28.17 1.82zm-16.1 10.38c2.13.39 4.28.73 6.44 1 5.75.71 13.19 1.72 18.77.54-6.94-3.23-17.51-2.43-25.21-1.53zm216.39 12.22c-1 .06-2.29.36-2.27 1.1s1.36 1 2.37 1c10.38.18 24.17 1.77 34.07-.33-8.79-4.51-24.33-2.37-34.17-1.76zM167 426.39c13.56-.3 27.47 2.56 41 .52-12.79-2.3-28-.81-41-.52zm279.75-11.05c13.21.38 28.86 1.73 41.77-.38-13.81-3.28-28.01.77-41.79.38zm-3 10.41a9.05 9.05 0 00-3.72.64c-1.06.54-1.62 1.74-.8 2.48a4.32 4.32 0 002.6.67c13.13.61 32.15 1.7 44.33-2.36-10.63-4.54-30.75-1.81-42.4-1.43zm1.64-20.18l36.71.14c1 0 2.31-.14 2.57-.87.35-1-1.6-1.5-3-1.5q-10.95 0-21.87-.24c-5.16-.1-10.01 2.49-14.4 2.47zm-165.87 12.94a102.78 102.78 0 00-17.91 3.49l27.54.07c-2.33-2.73-7.32-4-11.44-3m223.17-8.63c12.14-.1 24.27 1.48 36.38 0-11.78-1.16-24.5-.07-36.38.03zm4.77 9.77a364.35 364.35 0 0053-1.13c-9.32-1.42-18.48-1.6-27.69-3.31a34.62 34.62 0 00-12.1-.15c-3.58.59-10.57 4.76-13.21 4.62zm54.1-10a10.23 10.23 0 00-3.86.49c-1.15.48-1.93 1.59-1.33 2.46h13.49c10 0 22.49 1.46 32.19-.31-11.42-3.61-28.24-2.59-40.49-2.59zM546.32 405c10.46-1.5 29.69 4.31 38.35.18-9.26-5.81-27.84-1.7-38.35-.18zm59.6-.82l101.3.87a122 122 0 01-36.34 7.16 583.1 583.1 0 0075.48-1.06l-28.28-2 1.14-7.4c-19.63-.16-40 .83-59.49-1a163.08 163.08 0 00-24.33-.82c-9.65.5-20.21 4.24-29.48 4.24zM660.2 416c-10-.18-27.11-1.73-35.54 3.55 11.26 3.16 30.59.52 42.77.37q25.55-.3 51.07-1.27c-18.95.73-39.21-2.28-58.3-2.65zm-161.74 15.8l120.62 1.33-24.94 4.49a357.74 357.74 0 0053.3-2c-4.86.55-14.77-3.57-19.55-4.72-6.34-1.53-12.66-3.12-19.22-4.06-9-1.3-17.3-.57-26.37-.42-28.44.47-55.85.88-83.84 5.38zm-381 6.46c27.69.41 55.39.9 83.09 1.21 2.87 0 12.86 1.29 13.24-1.55.48-3.61-8-3.76-10.57-3.85-13.57-.47-27.51.36-41 1-14.64.68-30.15 3.41-44.72 3.19zm604.87-10.94c-6.19-.48-12.44-.5-18.66-.73-9.1-.33-25.9-.85-33.38 3.15-1.27.68-2.08 2-1.39 3 24.69-1.24 50.15 2.71 73.89-2.47-3.99.92-15.74-2.59-20.42-2.95zm-251 12.2l-18.26.14c-7.41.06-18-1.59-23.58 2.86a383.65 383.65 0 0059.71-3.14c-5.53.76-12.2.1-17.83.14zm-40.84 15.59c-11.52-.1-22.88-1-34.35-1.47-10.67-.4-22.05 3.67-32.09 5.95l79.28-.2a20.15 20.15 0 006.39-.69c2-.67 3.59-2.19 3.29-3.78-.08-.36-20.56.2-22.48.19zm-75.32-2.84a58.9 58.9 0 00-6.08-.39 46.31 46.31 0 00-11 1.15c-.58.13-1.29.35-1.33.8s1 .82 1.8.84c7.57.24 15.34.46 22.51-1.34-.96.25-4.62-.91-5.86-1.06zm92.28-6.19H417c-1.64 0-5.54-.53-3.94 1.53 1 1.32 6.42.88 8.23 1 6.77.31 13.55.5 20.32.68 5.55.15 11.95 0 15.44-3.16-.74.59-8.28-.05-9.56-.05zM408.65 464c-4.6 0-9.2 0-13.8-.1-6.06-.14-13.09-.23-18.36 2.39 7.66-.12 15.29.15 22.95.21s15.63-.4 22.71-2.69c-3.15 1-9.98.12-13.5.19zm-52.31-13.28c-3 .07-9.29-.05-11.64 1.23-.45.25-.3.81.14 1.07a3.58 3.58 0 001.59.29c4.56.14 9.16.27 13.71.09a70.39 70.39 0 009.87-1c.76-.14 1.72-.54 1.47-1.09s-1-.5-1.55-.5c-4.52-.06-9.07-.22-13.59-.13zm2.71 11.25a25.54 25.54 0 00-11 1.33 167.79 167.79 0 0020.22 1.48 5.31 5.31 0 002.27-.27c3.46-1.63-9.87-2.51-11.49-2.58zm80.4.09c-3 0-8.42-.63-10.87.73 2.76 1.93 8.89 2.14 12.51 2.37a63.71 63.71 0 009.77-.15c1.72-.15 7.13-1.78 8.49-1.37-6.1-1.88-13.41-1.57-19.9-1.64zm23.13-11a14.81 14.81 0 00-7.95 1.78 109.53 109.53 0 0014.15-.18 18.72 18.72 0 00-6.17-1.74m-81 18.91c9.33-.22 19.23 1.61 28.68 1.75q7.19.11 14.39-.12c3.33-.1 8.75.32 11.62-.84.27-.11-4.45-1.75-4.9-1.83a33.83 33.83 0 00-6.52-.33c-3.84.06-7.88-.1-11.66.27-10.59.96-20.89.79-31.58 1.04zm191.22-26c-9.11 1.21-7 5.06 1.69 5.39 10.71.41 21.48.32 32.19-.07-2.66.84-4.67 2.72-5.18 4.83l94.73-3.33-67.67-1.79c3.19.55 6.73-1.31 7.1-3.71-.15 1.13-57.45-2.15-62.83-1.39zm-16-9.76c-5.11-.07-10.54-.47-15.63-.09-1.92.14-13.47 2.51-7.55 5.06a5.89 5.89 0 002.27.29h53.36c4 0 8.45-.16 11.06-2.37a409.6 409.6 0 00-43.45-2.96zm94.17 4.78a132.41 132.41 0 00-24.87.77 205.91 205.91 0 0048.24-.79l-34.8-.1m-118.92 10.44a7.31 7.31 0 00-3.13.46c-.91.45-1.36 1.48-.62 2.06a3.61 3.61 0 002.18.43l43.48-.54c1.09-.65.71-2-.37-2.68a8.82 8.82 0 00-4-.83c-12.72-.73-24.72 1.05-37.54 1.1zm-1.86-8.38a50.89 50.89 0 00-17.76 1 153.71 153.71 0 0034.64.78l-18.74-2m186.18 20.63a112.15 112.15 0 00-12.45-1c-8-.28-16.1 0-24.13.08-14.09.1-25.65-.81-39.14 3.5a781.09 781.09 0 0086.29-.15c-2.68.15-7.68-1.96-10.57-2.41zm-1-18.93c-5.14.12-11.39-.07-16.11 1.45 8.34 2.44 20.65 1.44 29.58 1.19q7.38-.21 14.7-.82c-8.48.73-19.22-2-28.19-1.8zM721.15 456c5.58 1.19 13 .18 18.77-.54 2.16-.27 4.31-.61 6.44-1-7.7-.87-18.27-1.67-25.21 1.54zM495.8 468.49c9.9 2.1 23.69.51 34.07.33 1 0 2.34-.26 2.37-1s-1.27-1-2.27-1.1c-9.84-.64-25.38-2.72-34.17 1.77zm65.91-8.49c13.56 2 27.47-.82 41-.52-13-.28-28.2-1.77-41 .52zm-280.49-11.94c12.91 2.11 28.55.76 41.77.38-13.78.39-27.99-3.66-41.77-.38zm2.33 12.22c12.18 4.06 31.19 3 44.33 2.36a4.32 4.32 0 002.6-.67c.82-.74.26-1.94-.8-2.48a9.05 9.05 0 00-3.72-.64c-11.65-.38-31.77-3.11-42.41 1.43zm26.37-24.08q-10.92.21-21.87.24c-1.41 0-3.36.49-3 1.5.26.73 1.55.87 2.57.87l36.71-.14c-4.4.02-9.25-2.56-14.41-2.47zm182.09 16c-4.12-1.07-9.11.22-11.44 3l27.54-.07a102.78 102.78 0 00-17.91-3.48m-257.74-8c12.11 1.48 24.24-.1 36.38 0-11.84-.18-24.6-1.27-36.38-.08zm18.43 5.18a34.62 34.62 0 00-12.1.15c-9.21 1.71-18.37 1.89-27.69 3.31a364.35 364.35 0 0053 1.13c-2.67.06-9.66-4.11-13.21-4.67zM169.48 446c9.7 1.77 22.15.3 32.19.31h13.49c.6-.87-.18-2-1.33-2.46a10.23 10.23 0 00-3.86-.49c-12.22 0-29.07-1.02-40.49 2.64zm96-14.45c-3.41-.43-4.28.48-7.1 1.14a98 98 0 01-23.38 2.82l38-.2c-1.27.01-5.09-3.47-7.53-3.78zm-80.42 6.74c8.66 4.13 27.89-1.68 38.35-.18-10.52-1.53-29.1-5.64-38.36.16zM134.32 433a163.08 163.08 0 00-24.33.82c-19.48 1.84-39.86.85-59.49 1l1.14 7.4-28.28 2a583.1 583.1 0 0075.48 1.06 122 122 0 01-36.34-7.16l101.3-.87c-9.27.02-19.8-3.72-29.48-4.25zm-83.1 18.73q25.52 1 51.07 1.27c12.18.15 31.51 2.79 42.77-.37-8.43-5.28-25.52-3.73-35.54-3.55-19.09.39-39.35 3.4-58.3 2.68zm136.2 7.76c-9.07-.15-17.33-.88-26.37.42-6.56.94-12.88 2.53-19.23 4.06-4.77 1.15-14.68 5.27-19.54 4.72a357.74 357.74 0 0053.3 2l-24.94-4.49 120.62-1.33c-27.99-4.47-55.4-4.87-83.84-5.35zm-13.78-28.95l-8.9 2.07 27.26-1.24a159.6 159.6 0 00-23.36-1.52m334.31.43l-6.83 2.72 26.31.18c1.88 0 4.46-.5 4.27-1.89-.17-1.21-2.34-1.52-4-1.51l-17.22.1m94.71 3.93c6 2.12 15.86 1 22.4.7 3.63-.15 7.26-.4 10.87-.74-7.58-3.42-26.71-6.22-33.26 0zm7.3 34.39c-13.53-.63-27.47-1.46-41-1-2.53.09-11.05.24-10.57 3.85.38 2.84 10.37 1.58 13.24 1.55 27.7-.31 55.4-.8 83.09-1.21-14.6.19-30.11-2.54-44.75-3.23zm114.87 3.26c-6.19-.48-12.44-.5-18.66-.73-9.1-.33-25.9-.85-33.38 3.15-1.27.68-2.08 2-1.39 3 24.69-1.24 50.15 2.71 73.89-2.47-4.02.88-15.77-2.63-20.45-2.99z" style="mix-blend-mode:screen" opacity=".4" fill="url(#Degradado_sin_nombre_281)"/><path d="M194.58 68.7C133 64.51 69.6 61.26 8.77 67.24c-46.86 4.62-91.38 14.65-139.36 15.31 6.66-.09 14.1 3.29 21 3.69 7.94.46 17.45-.88 25.34-1.34q30.88-1.8 61.9-2.9h1.23c21 1 42 2.57 62.94 4 40.43 2.76 82 4.89 122 1 11.43-1.13 22.65-2.74 33.85-4.35 26.69 1 53.38 2 80.14 1.89 35.09-.15 70.68-2.32 102.61-8.74-62.14 2.2-124.25-2.9-185.84-7.1zm-21.86-29.89c35 1.14 70 2.93 105 2.78s70.68-2.32 102.61-8.74c-62.1 2.32-124.21-2.8-185.8-7S69.6 18.41 8.77 24.39C-38.09 29-82.61 39-130.59 39.7c6.66-.09 14.1 3.29 21 3.69 7.94.46 17.45-.88 25.34-1.34q30.86-1.8 61.88-2.91 62-2.23 124.37-1.76 35.41.29 70.72 1.43zM622 41.72c-60.83-6-124.22-2.73-185.81 1.46s-123.7 9.32-185.8 7c31.93 6.42 67.52 8.59 102.61 8.74 32.71.14 65.31-1.41 97.93-2.54-34.09 4.45-68.39 9.24-103.41 10 19.3 2.63 40.29 2.66 60.78 1.52s40.71-3.41 61-5.3q20.48-1.9 41.11-3.31 36.27-2.45 72.76-3.32 18.21-.43 36.41-.47c2.56 0 5.44.13 8.27.16q12.63.34 25.26.79 31 1.11 61.88 2.91c7.89.45 17.4 1.8 25.34 1.34 6.92-.4 14.36-3.78 21-3.69-48-.65-92.52-10.68-139.33-15.29z" style="mix-blend-mode:screen" fill="#a48d87" opacity=".15"/><g style="mix-blend-mode:screen" opacity=".5"><circle cx="327.36" cy="365.31" r="413.63" style="mix-blend-mode:screen" opacity=".25" fill="url(#radial-gradient)"/><circle cx="588.72" cy="120.14" r="13.79" style="mix-blend-mode:screen" fill="url(#radial-gradient-2)"/><circle cx="629.86" cy="81.56" r="13.79" style="mix-blend-mode:screen" fill="url(#radial-gradient-3)"/><circle cx="617.76" cy="92.91" r="103.41" transform="rotate(-45 617.754 92.908)" style="mix-blend-mode:screen" fill="url(#radial-gradient-4)" opacity=".2"/><path class="cls-1" d="M387.86 308.56l242-227"/><circle cx="387.86" cy="308.56" r="275.75" style="mix-blend-mode:screen" fill="url(#radial-gradient-5)" opacity=".15"/><circle cx="387.86" cy="308.56" r="137.88" transform="rotate(-45 387.857 308.554)" style="mix-blend-mode:screen" fill="url(#radial-gradient-6)" opacity=".5"/><circle cx="387.86" cy="308.56" r="114.9" style="mix-blend-mode:screen" fill="url(#radial-gradient-7)"/><path style="mix-blend-mode:screen" stroke="#fff" stroke-miterlimit="10" stroke-width="2" opacity=".03" fill="none" d="M387.86 308.56l15.69 37.17-15.69-37.17-15.69-37.18 15.69 37.18-37.18 15.68 37.18-15.68 37.18-15.69-37.18 15.69-73.8 302.76 73.8-302.76 73.8-302.77-73.8 302.77-302.77-73.8 302.77 73.8 302.76 73.79-302.76-73.79L600.64 830.8 387.86 308.56 175.08-213.69l212.78 522.25-522.25 212.77 522.25-212.77L910.11 95.78 387.86 308.56l248.47 423.52-248.47-423.52-248.47-423.53 248.47 423.53-423.52 248.46 423.52-248.46L811.38 60.09 387.86 308.56l306.64 391.1-306.64-391.1L81.22-82.55l306.64 391.11L-3.25 615.2l391.11-306.64L778.96 1.91l-391.1 306.65L588.71 895.5 387.86 308.56 187.01-278.39l200.85 586.95-586.94 200.84 586.94-200.84L974.8 107.71 387.86 308.56l-41.17 106.6 41.17-106.6 41.17-106.61-41.17 106.61-106.61-41.18 106.61 41.18 106.61 41.17-106.61-41.17-.47 63.07.47-63.07.47-63.08-.47 63.08-63.07-.47 63.07.47 63.07.46-63.07-.46-55.92 196.7 55.92-196.7 55.91-196.71-55.91 196.71-196.71-55.92 196.71 55.92 196.71 55.91-196.71-55.91 209.7 364-209.7-364-209.7-364.01 209.7 364.01-364 209.69 364-209.69 364-209.7-364 209.7 328.67 239.26-328.67-239.26L59.19 69.29l328.67 239.27-239.27 328.67 239.27-328.67L627.12-20.11 387.86 308.56l287.31 212.05-287.31-212.05L100.55 96.5l287.31 212.06L175.8 595.87l212.06-287.31L599.92 21.24 387.86 308.56 550 423.88 387.86 308.56 225.72 193.24l162.14 115.32-115.32 162.13 115.32-162.13 115.32-162.14-115.32 162.14 167.96 140.75-167.96-140.75L219.89 167.8l167.97 140.76-140.75 167.96 140.75-167.96 140.75-167.97-140.75 167.97 213.63 139.57-213.63-139.57-213.63-139.58 213.63 139.58-139.58 213.62 139.58-213.62L527.43 94.93"/><circle cx="629.86" cy="81.56" r="206.82" transform="rotate(-45 629.852 81.557)" style="mix-blend-mode:screen" fill="url(#radial-gradient-8)" opacity=".5"/><circle cx="370.71" cy="324.64" r="61.86" transform="rotate(-12.93 370.83 324.69)" style="mix-blend-mode:screen" fill="url(#radial-gradient-9)"/><circle cx="506.53" cy="197.24" r="60.25" transform="rotate(-45 506.529 197.239)" style="mix-blend-mode:screen" fill="url(#radial-gradient-10)"/><circle cx="613.45" cy="96.94" r="66.51" transform="rotate(-9.78 613.551 96.939)" style="mix-blend-mode:screen" fill="url(#radial-gradient-11)"/><circle cx="607.76" cy="102.29" r="1.73" style="mix-blend-mode:screen" fill="url(#radial-gradient-12)"/><circle cx="508.45" cy="195.44" r="46.85" transform="rotate(-66.81 508.417 195.443)" style="mix-blend-mode:screen" fill="url(#radial-gradient-13)"/></g></g><g class="cls-3" id="OBJECTS"><path d="M29 469.06l-2.66-1.66c3.95-1 7.75-2.43 11.66-2.93s7.88-.11 12-.22c-6-1.15-8.51-6.81-12.9-10.4 3.11 1.26 6.34 2.3 9.31 3.83s5.88 3.64 9.35 5.83c-4.67-7.44-6.68-15.23-8.16-23.7 3.23 4 6.9 7.27 8.92 11.37s2.35 8.95 3.66 13.42c-1.24-12.7-7-24.56-6.39-37l3.86 8.8.64-.14c.27-5.13.51-10.25.84-15.38 1.27-20.19-.3-40.36-.74-60.54-.65-30.31-1.67-60.62-2-90.94a273.82 273.82 0 019.1-72.92 7.6 7.6 0 00-.42-4c-.86-2.65-2-5.22-3-7.81a27.05 27.05 0 00-2.16-4.47l2.37 19.17-.73.22c-3.69-5.71-5.45-12.36-8.61-18.38 1.59 8 4.71 15.73 5.32 24-4.14-5.7-6.12-12.28-8.52-18.75a133 133 0 016.33 31.33c-2.63-2.16-3.14-5.28-3.9-8.25s-1.18-6.05-3.71-8.34c.79 2.81 1.71 5.6 2.34 8.44s.93 5.51 1.37 8.27l-1.23.3L46.43 205l-.62.15q1 8.21 2.06 16.42c-3.43-2.22-3.24-6.06-4.94-9.6.19 7.25 4.1 13.29 3.79 20.05l-.66.26-7.21-12.18c-.23 5.43 3.58 10.42 2.75 16.49L36.45 226c0 4.38 2.54 8.6.67 13.3l-1.93-4.94a33.3 33.3 0 01-3.83 17.5v-8.93c-1.23 4-2.51 8.21-3.8 12.4l-.59-.11v-5.6l-.61-.14c-1.08 3.07-2.17 6.14-3.33 9.43V239.4l-1.83 7.25c-1.61-6.3.61-12.32.72-18.57l-1.51 4.33c-1.05-9.4 3.24-17.39 7-26.24L24.17 209c.73-6.42 6.18-10 7.06-15.76L29 195.32a41.06 41.06 0 0110.23-19.74 122.35 122.35 0 0111.55-10.73c4.64-4 9.35-8 14.21-11.71 2.31-1.78 2.82-3.63 1.33-6.54l-2.5 6.58c-.33-1.51-.54-2.43-.75-3.35l-.78-.17-3.21 8.19-1-4.37-3 6.93h-.54v-4.85h-.4l-5.09 9.93-.71-.24c-.2-.94-.41-1.89-.66-3.08L46 166.84l-.62-.1v-17.37l-.77-.05-2.19 22h-.92c-.12-1-.24-2.07-.43-3.79-.61 1.86-1 3.11-1.42 4.36l-.36-.07-2-13c-1.1 5.82-2.16 11.46-3.33 17.69l-1.06-2.93c-.61 2.12-1.12 3.93-1.64 5.74l-.81-.13v-11h-.38q-1.48 9.29-3 18.58l-1-.08c-2.66-8.18-.6-16.81-2-25.12h-.63c0 5.94-.13 11.88.05 17.82.12 4.15-.16 6.19-2.18 8.26v-7.84c-2.65 4.46-.08 10-3.36 14.82-2-6.66-.86-12.92-1.56-19.11l-1.08 19.81h-1.28c-.24-3.31-.57-6.61-.69-9.93a91.64 91.64 0 00-.53-10.14 28.38 28.38 0 00-.56 4.27c.07 4.38.54 8.78.39 13.15-.11 3.2-.94 6.37-1.45 9.56h-.79l-1.1-2.13c-.46 1.52-.86 2.82-1.26 4.12l-.41-.06V187c-3.98 7-3.43 15.44-6.74 22.65l-.79-.13q.45-5.58.88-11.15l-.68-.16L-6 215.9c-1.33-6-.65-11.82-.26-17.83L-8 200.44l-.76-.31c2-5.69 4-11.38 5.93-16.74-.21-.71-.7-1.47-.49-1.86 1.08-2.12 2.32-4.15 3.55-6.19.49-.82 1.07-1.58 1.92-2.81l-2.4 1.23c.73-1.93 1-3.59 1.86-4.71 4-5 8.21-9.72 12.25-14.63a14.52 14.52 0 002.22-4c1.71-4.43 3.28-8.92 5.08-13.88l-14.1 23.12c-1.34-3.92 1.17-6.64 1.35-9.82l-4.65 9.76-.76-.28C3 153 7.57 148 8 141.69c-1.95 3.84-3.81 7.73-5.87 11.51s-4.23 7.35-6.36 11l-1.2-.6L.2 150.55c-3.84 5.24-6 11.14-11.55 14.61l11.5-27.73-.15-.09c-2.63 4.44-5 9.07-8 13.25s-4.82 9.29-9.46 12.91c1.55-10.24 9.33-17.21 11.05-26.77-3.57 10-10.45 18-16.3 26.62 1.94-10.63 9.35-18.49 13.48-28.06-1.37 1.78-2.76 3.54-4.1 5.33-4.57 6.13-9.45 12-12.4 19.24-.73 1.8-2.37 3.23-3.59 4.83l-1-.63 13.08-25.78c-4.87 7.12-9.28 14.64-17.07 19.5 1.57-2.7 3.08-5.43 4.73-8.08 1.38-2.22 3-4.31 4.38-6.52a4.11 4.11 0 00.39-2.69c-6.64 8.36-12.85 17.07-22.13 22.51-.61-2.12 0-4.12 2.52-7.32a61.14 61.14 0 005.1-6.65l-7.44 5c.7-2.9 2.29-4.85 7.88-9.17 3.12-2.42 6.52-4.48 9.74-7.24l-10.4 2.72c9-7 18.94-10.16 29.63-11.7h-11.88l-.12-.64c4.2-.9 8.37-2 12.61-2.64a9.2 9.2 0 005.5-2.47c2.31-2.34 4.67-4.62 6.88-7.1-3.61 1.85-6.06 5.47-10.36 6.34 3.07-5.3 7.49-9.47 11.64-14.76-1.79 1-3.12 1.65-4.32 2.47-5.65 3.9-11.24 7.87-16.89 11.75a8.41 8.41 0 01-3.6 1.3c2.28-5.32 6.55-8.92 10.35-13-3.84 2.58-7.52 5.46-11.56 7.68s-8.42 3.77-13.31 5.9c3.77-6.88 11.2-8.82 15.81-13.79l-.39-.47-21.09 10.47 10.9-10.36-.88-1.06c-5 2.87-9.87 6.22-16.18 6.32l12.86-8.84-18.39 2.26c4.69-4.67 10.61-4.72 16.32-5.93l-9.12-2.54.06-.9 18.34-1.44-7.07-3 .24-.91 16.49 2.78.16-.35-3-1.75.18-.75c2.93.35 5.9.51 8.78 1.12a9.47 9.47 0 006.18-.56 151.93 151.93 0 0131.27-10l-9-.52c5.84-3.28 12.27-3 18.47-2.71s12.58 1.61 19 2.3c-5.19-1.74-10.49-3.23-15.55-5.28a139.36 139.36 0 01-14.85-7.37l15.89 2.66-19.77-12.8a62.84 62.84 0 0123.84 9.26l.47-.91-25.59-14.5 2.44-.69-4.25-2.77c6.67.07 11.43 3.73 16.89 5.47L20 47.16l.3-.65 12.8 4.71.18-.19L9.6 36.51c.1-.23.2-.46.31-.69 3.55 1.45 7.22 2.66 10.64 4.38 15.14 7.61 27.52 18.67 38.56 31.35a106.67 106.67 0 017.13 9c1.48 2.13 2.9 3.77 6 2.67l-4.69-2.53.07-.48 6.88 1 .11-.39-8.36-4.06 1.91-1.14L63.38 72c.07-.23.15-.46.22-.69l8.66.61.13-.24-9-3.52c0-.21.1-.42.14-.62l2.08-.45-4.92-2.84c0-.25.07-.49.11-.73l9.19.89.16-.53-11.35-3.8v-.33h4.91v-.33l-11.14-4.26.11-.88 10 .65.08-.24-5.56-1.46c0-.2 0-.39.07-.59l8.75.74.14-.36-13-4.86v-.62c1.6.15 3.22.22 4.81.46a20.94 20.94 0 005.22.51l-14.04-3.44c.05-.35.1-.69.14-1 4-.45 8 .19 12 .6-2.86-.79-5.77-1.44-8.57-2.41a68.1 68.1 0 01-8.59-3.81l7.46.66.14-.36-3-2 .18-.55 4.89 1 .11-.25L42.26 31c5.2-.11 9.31 1.4 13.47 3L39.41 20.18a21.35 21.35 0 0110.68 3.34c3.08 2 5.85 4.51 9.09 6.58l-5.9-10.63.25-.41c2.57 2.34 5.49 4.42 7.61 7.12s3.55 6.13 5.66 9.09v-9.52c3.32 4.83 4.62 10.22 5.58 15.74l.57-.13-1.2-11.51a12.27 12.27 0 014.06 9c.12 3.41.26 6.82.4 10.23l.68.07c.36-2.08.73-4.15 1.1-6.23h.71v10.82h.93c1.28-5.09-1.19-10.56 1.32-16.1 4.25 6.24 1.94 12.72 2.46 18.95.44-1.9.83-3.82 1.32-5.71a36.51 36.51 0 012-5.8c1.52 9.24-2 18.18-1 27.42.77-3.67 1.54-7.33 2.4-11.46a6.09 6.09 0 011.52 5.89c-.68 3.59-1.56 7.15-2.39 10.72-.59 2.35-1.26 4.77-1.76 7.18a3.89 3.89 0 00.5 2.77l3-10.39 1 .19c0 4.06.31 8.16-.08 12.19-.43 4.51-1.55 9-2.24 13.43-.3 2-.22 4-.41 6-.26 2.92-.61 5.83-.92 8.74-.22 2.1-.42 4.19-.63 6.29l.72.09c1.55-9.55 3.11-19.1 4.69-28.84l2.08 1v-7l.43-.13c.54.79 1.07 1.59 1.77 2.63V78.62l.6-.13 1.65 6.45c.34-5.41-.92-10.83 1.77-16.5.3 4 .57 7.58.84 11.12l.81.12c-.69-7.79 1.07-15.1 4.21-22.18-.26 3-.53 6-.8 9l.28.1 1.23-3.04c.07 1.57.11 2.44.15 3.3l.31.09 3.36-12.61.87.11c-.46 4.44-.92 8.88-1.32 12.78l8-21.7.91.28c.37 5.4-3.84 9.72-4 15.19 1.82-4.36 3.57-8.59 5.33-12.81l.63.16-.69 6.1c3.44-5.23 2.39-12.44 7.94-16.92-.12 2.23-.25 4.46-.41 7.25L134.32 32l.87.36-1.58 6.54c3.52-3.07 5.46-8 11.42-8.68-4.64 4.76-8.77 9.21-12 14.68l8.92-5.46.67.84-12.86 12.58c3.92-.33 7-4.26 11.48-3.91-4.86 3.89-11.2 5.62-15.52 11.16l11.65-4.36c-2.38 3-4.31 5.68-8 6.67-2 .52-3.61 2.09-5.16 3.64l5 .26-9.28 8.4 6.2-.79c-3.09 4.32-7.34 4.49-11.23 5.39l.24.79 12.21-2.37.18.76c-3.83 3.83-9.55 3.3-13.9 5.82l8.62-.5c-.56.88-1.15 1.81-1.73 2.74l.33.32c3.13-3 6.17-6.17 9.42-9.06s5.47-7.06 10.8-8.16l-9.72 11.09.66.74a31.61 31.61 0 004.28-3.66 28 28 0 0111.14-8 46.69 46.69 0 015.92-1.58l-9.13 8.19c.13.2.25.4.37.61 6.8-2.79 12.89-7.77 20.85-7.13-4.57 1.7-9.18 3.3-12.71 7.06 9.88-3.43 20.1-3.64 30.81-3.66-2 2.81-5.07 2.15-7.84 3.63 12.2.76 23.62 2.74 34.39 7.62-7.87 1-15.39-1.3-23.18-2l8.9 4c-.1.32-.21.63-.31 1l-18.5-5.4c-.17.4-.33.79-.5 1.18L200.92 97c-1.82 1.42-1.94 1.39-8-.84-2.66-1-5.33-1.93-8.07-2.92l2 3.23c-7.63-2.08-13-8.46-21.23-10 5.3 3.78 11.65 5.33 14.63 11.35-10.37-4.82-19.97-11.43-31.61-13.36 2.22 1.36 4.47 2.68 6.67 4.09s4.61 2.88 6.75 4.53 4 3.52 5.95 5.3l-.36.5-1.44-.29c2.48 2.55 5.15 5.35 7.89 8.09a6.9 6.9 0 001.82 1l7.47 3.61-.19.63-9.39-1.92a156.73 156.73 0 0125.77 11.67l-.25.69-12.46-3.88-.12.24c3.88 2.53 8.07 4.69 11.56 7.68s6.13 6.69 8.86 10.36c-5.07-3.53-9.84-7.35-16-8.87 2.06 1.84 4.2 3.61 6.16 5.55a58 58 0 015.82 6.33 28 28 0 013.95 7.52l-8.42-6.76-.68.47a33.74 33.74 0 018.31 18.65L198.2 148c.42 7 4.23 13.36 3.12 20.47l-8.37-19c.57 3.72 1.25 7.46-.68 11.6-2.23-7.25-4.33-14.05-6.43-20.86l-.58.19c.43 6.88 2.37 13.74.55 20.65l-.71.21a23.22 23.22 0 01-1.82-4.18c-1.08-4.9-2-9.84-2.92-14.76a17.65 17.65 0 00-1.25-4.2v15.14l-.3.16-4.75-15.82-.62.05v13.72c-5.14-8.66-5.34-18.57-7.61-27.89l-1 .14v12c0 4 .95 7.93-1 11.63l-.78.15q-1.59-6.54-3.17-13.07l-.71.06-.93 7.86-.79.17q-2-8-4-16.09h-.62v13.07l-.81.1c-2.91-4.36-2.64-9.85-4.71-14.45-.44 3.36-.89 6.76-1.34 10.17l-1 .05-5-13.53-.49.19v8l-.52.16-7.27-13-.33.18 4.4 15.84-.88.36c-1.65-2.66-3.29-5.33-5-8l.72 6.72-.67.35c-3.56-2.93-3.49-9.08-8.9-10.45q2.05 4.94 4.12 9.89l-.47.19-13.28-9.65-.33.15c1.56 3 3.08 5.92 4.72 8.82a2.45 2.45 0 001.59.86c15.78 2.53 29.73 9.29 42.67 18.4a14.77 14.77 0 002.22 1.4c12.9 6.13 22.21 16.48 31.31 27 2.95 3.39 4.82 7.74 7.18 11.65l-.66.41-3.09-4c3 7.46 8.33 13.88 9.74 22.42l-5.59-8.42q2.28 10.66 4.56 21.39l-.88.24c-2.06-9.33-6.06-17.83-11-26l2.31 16.45h-.21q-4.69-13.14-9.41-26.27l-1 .31c1.53 5.87 3.12 11.72 4.55 17.61a49.57 49.57 0 011.27 7.74c.1 1.26-.51 2.58-.88 4.26l-7.74-25.53-1 .1-2.22 15.19c-3-9-2.09-18.07-4.73-26.55l-1.47 16.46-.48.11c-.65-3.23-1.31-6.46-2-9.7-.77 3.39-.46 6.94-2.92 10.11-3.64-7.66-4.08-15.86-6.41-23.69v13.72l-.83.06-3.36-12.08h-.71q-.53 6.15-1 12.28l-.72.15-4.53-16.17c-.21 3.8-.43 7.75-.64 11.71l-.63.12c-.6-1.84-1.24-3.66-1.78-5.52a51 51 0 00-1.77-5.74c-.07 1.1-.15 2.2-.23 3.31l-.78.16c-.68-3.33-1.34-6.66-2-10s-1.49-6.78-2.24-10.17l-1.1.15c.28 2.91.49 5.84.86 8.74.33 2.69.83 5.37.94 8.15-2-1-1.49-4.2-4.71-4.21.8 4 4.84 5.44 6.75 8.85-9-3.43-15.32-11.21-24.65-13.37 9 7.14 20.07 11.85 26.66 21.91l-13.62-7.65c3.74 4.65 9.69 6.94 12.73 13.05l-16.38-11.39-.45.63 15.43 15.77-.47.64-2-.3c.62 1.17 1.14 2.15 1.65 3.13l-.34.36-11.75-8.73-.48.57c5.07 5.12 9.34 10.71 10.72 18-4.27-5.87-8.62-11.61-14.87-15.72a8.56 8.56 0 00.7 1.5q4.13 5.58 8.29 11.13c2.6 3.47 4.86 7.11 5.65 11.47a15.37 15.37 0 01.21 1.66 8.65 8.65 0 01-.12 1.35l-3.5-5c.68 3 1.26 5.52 1.83 8l-.72.26q-2.94-6.66-5.9-13.33l-.76.23c.28 1.21.53 2.42.84 3.62.95 3.69 2.28 7.33 2.78 11.08.37 2.77-.3 5.68-.52 8.53l-.63-.08q-1.78-7.43-3.56-14.85c.59 9.45.63 18.59-5.7 27.08v-15.23c-.69 1.35-1.4 2.72-2.1 4.1l-.62-.18c.33-3.55.65-7.1 1-10.65l-.59-.15-5.93 13.32-.9-.34c-.89-5.42 3.48-9.86 3.19-15.88l-3.36 8.34-.72-.19c-1.48-4.7 1.8-8.81 1.83-13.43l-9.52 16.62-1.18-.43c.54-2.29.76-4.74 1.71-6.85 1.78-3.91 4.15-7.54 6-11.44 2-4.16 3.66-8.46 5.26-12.77a9.12 9.12 0 00.07-4.51c-5.69 6.62-6.75 15.92-13.54 22.4-.13-7.2 3.57-13.1 4.62-20.07-3.72 5.54-4.4 12.43-9.51 16.41.35-10 4.29-19 7.88-28.16l-.75-.24-7.14 11.9-.67-.31c-.4-7.64 4.84-13.92 5.57-21.78l-8.72 14.64h-.55c.48-3.32 1-6.65 1.43-9.87l-4.41 8.84-1.23-.41q1.19-5.22 2.36-10.42l-.48-.21-1.85 4.2-.65-.13a61 61 0 011-6.48c.94-3.62 2.35-7.12 3.19-10.76.68-3 .82-6.11 1.21-9.17l-.81-.19c-1.16 3.33-2.12 6.74-3.54 10s-3.36 6.41-5.07 9.61l-.86-.23c.61-2.87 1.13-5.76 1.85-8.59 1.26-4.94 2.69-9.83 3.94-14.76a9.42 9.42 0 000-4.16q-3.42 7.37-6.85 14.73l-.59-.24a10.26 10.26 0 00.43-2.29c-.09-1.94.91-3.78-.49-5.94-.74-1.15.47-3.63.94-5.48.76-3 1.64-5.92 2.46-8.88l-.92-.26c-.93 3.24-2 6.45-2.77 9.73-2 8.2-4 16.41-5.71 24.67-.52 2.55-.08 5.29-.08 8.58L76.24 181c-1.12 5.52-2.22 10.54-3.16 15.6-6 32.43-7.06 65.11-5.39 98 1.16 22.71 1.54 45.45 2.56 68.17.71 15.7 2 31.35 5.51 47.46L81.83 398c-2.32 7.82-1.28 15.7-.78 23.55.08 1.27.1 2.55.08 3.83a31.66 31.66 0 003.05 14.05q5.41-7.05 10.81-14C92.54 434 91.6 443 86.71 450.74l14-10.2L94 452l.46.55c3.54-5.07 9.43-6 14.74-8.44l-13.89 17 11.31-4.67.57.91-9.65 7.58c6.67-3.59 12.71 1.24 19.86 1.45l-7.94 2.74zM54.31 119c2.62 1.25 5.27 2.45 7.86 3.77 2 1 3.47-.06 5-.84v-.67l-7.47-1 2.81-3.26-8.28 2.06c1.29-1.39 2.58-2.79 3.88-4.18a18.1 18.1 0 00-3.88 1c-1.33.4-2.71.65-4.36 1l5.76-6.75c-.74 0-1.87-.19-2.6.23-2.73 1.58-5.34 3.38-8.34 5.32zm25.9 13.49l.14-.56a37.49 37.49 0 00-5.35-2.34c-3.84-1-7.75-1.83-11.65-2.58q-7.4-1.42-14.84-2.6a11.69 11.69 0 00-7.83 1.12zM3 123.42l-.49-.57c4.39-4.7 9.93-8.08 14.71-12.34-7.29 3.27-12.62 9.26-19.31 13.62h8.1a2.85 2.85 0 001.46-.61q3.06-2.23 6.08-4.55c1.54-1.18 3-2.42 4.54-3.64l-.61-.8zm169.5-16.92c-8.07-6.19-16.46-11.64-25.95-15.19a1.45 1.45 0 00.56.74q8.38 6 16.78 12.08a3.7 3.7 0 001.25.6c2.45.61 4.91 1.18 7.36 1.77zm-145.67 9.79c-.06-.17-.13-.34-.19-.5l-14.86 7.78a40.53 40.53 0 008.65.54 1.94 1.94 0 001.36-.67c1.72-2.35 3.37-4.76 5.04-7.15zm77.28-20.11c4.24-1.37 9.68-.69 11.51-6.55a18.59 18.59 0 00-11.51 6.55zm-37.92 66.76L66 163l2.56 19.15h.66c.37-2 1.37-4.17 1-6-1.04-4.5-2.67-8.82-4.03-13.21zm-4.72 5.45l-.52.18 5.88 23.16a13 13 0 00.23-4.58 53.75 53.75 0 00-1.67-6.15c-1.28-4.23-2.61-8.42-3.92-12.61zM29.6 96l-.48-.46-9.64 9.06c.07.26.15.51.23.76 1.11-.11 2.73.21 3.24-.4 2.39-2.84 4.46-5.96 6.65-8.96zM26 107.21c2 1 2 1 2.94-.2 1.56-1.9 3.18-3.75 4.74-5.65 1.06-1.3 2-2.64 3.08-4l-.79-.69zm111.94-4.69l-13.33-5.45c2.16 1.92 4.6 3.26 6.82 4.9 1.87 1.43 3.74 1.71 6.46.55zm-31.57 21.07l-.66.64c.73 1.48 1.52 2.93 2.19 4.44 1.39 3.11 2 3.43 5.67 2.82zm-67.46-10.47l4.09 1.71 4.8-5.83-.47-.68c-2.96.78-5.05 3.26-8.42 4.8zM87.78 134L99 131.72c-4.43-2.23-8.46-1.5-11.22 2.28zm55.8-31.48c-4.24-3.27-8.44-6.33-13.73-7 3.85 2.25 7.65 4.51 11.51 6.67a6.56 6.56 0 002.22.29zM105 104.91l-10.26 6.3c5.11-.21 8.84-1.93 10.26-6.3zM71 173c2.39-4.32.5-7.22-1.25-10.14l-.8.16c.61 3.12 1.25 6.25 2.05 9.98zm38.44-74.83l-.53-.58-8.67 7.52.56.66c2.8-2.6 7.11-3.41 8.61-7.61zm-105.16 1v.71c.7-.08 1.71.1 2.05-.3 2.69-3.09 5.24-6.29 7.84-9.46l-.17-.24zm121.12 56.22c-.26.37-.52.73-.77 1.1l7.69 4.85c-.11-3.15-.2-3.23-3.25-3.33-.2 0-.39-.28-.59-.42zm-103.09-13l-4.23 7.79c4.52-1.18 3.65-4.89 4.23-7.79zm79.92-14.58c1.15 4 1.15 4 5 3.27zm-69.12-17.34c2.66 1.38 3.77.68 4.88-3.17zM-2.51 96.55c2.88 1.15 2.9 1.14 5.15-3.76zM128 163.34l6.4 4.69c-.96-3.18-3.89-3.67-6.4-4.69zm-8.39-77.62c-.16-.35-.32-.71-.49-1.07l-5.35 2.57c.14.3.28.59.41.88zm17.6 80.16l1.05-.25c-.4-2-.79-4-1.19-5.94l-.83.18c.31 2 .63 4.01.95 6.01zm-99.89-40.94l1.18-3.07-4.42 2.33.17.44zm38-34.39l-3.94-3.3c.87 1.55 1.04 3.92 3.95 3.3zm55 62.57c-.17 1.52-1.68 3.47 1.3 4.26z" fill="url(#Degradado_sin_nombre_268)"/><path d="M480 176.22a64.81 64.81 0 008-13.35c-4.07 4.76-8.13 9.53-12.23 14.28-.89 1-1.92 1.95-2.89 2.91 3-8.33 6.56-16.33 12.95-22.74.09-.09-.07-.42-.32-1.77l-20.27 20-.74-.53 6.51-9.89-.55-.39-10.76 12.63c-.17-1.63-.24-2.31-.32-3l-10.25 7.43c-.27-.36-.53-.72-.8-1.07q7.58-8.46 15.13-16.93l-.82-1-12.42 8.64-.53-.73 4.66-4.45-.35-.26-16 8c-.32-.56-.64-1.13-1-1.7l23.53-14.3-4.33-.35c0-.47-.07-1-.1-1.42l25.1-5.71-10.66-1.52a13.82 13.82 0 015.62-1.21 45.44 45.44 0 015.8.52c1.77.22 3.53.55 5.3.83l.12-.94-8.38-3.66c7.69-1.54 13.52 1.56 19.46 4.17.11-.29.21-.59.32-.89l-9.08-5.33a8.18 8.18 0 014.73.61c3.45 1.49 6.82 3.16 10.25 4.71 3.74 1.68 3.76 1.66 7.34-1.69-1.76.09-3.31.28-4.85.21a44.18 44.18 0 01-4.39-.63v-1l9.1-1.49-8.61-.73-.09-1 2.53-1.57-7.38-3.82 2.46-2.11c-3.63-2.27-8.7.55-11.34-4.2h7.41c.06-.32.12-.65.19-1l-13.73-3.23c0-.33.1-.66.14-1l9.67.8-12.82-6.34c.14-.32.27-.64.4-1l5.66.75c.12-.2.23-.41.34-.62l-11.22-6.81c.1-.32.2-.65.31-1l9.05 3.2c-.47-1.14-.9-2.19-1.32-3.24l.52-.38 8.14 7c-.46-1.92-.79-3.28-1.11-4.64l1-.57 8.64 10.9c.1-2.1.19-4.06.3-6.52l10.19 11.07.4-.22-2.13-5.34.68-.35 4.93 7.07a3.17 3.17 0 00.61-2.82 22.71 22.71 0 00-.83-2.49l1-.41c2.71 4.73 5.41 9.46 8.3 14.52l-1.47-6.71.83-.27 4.22 10.33c.17-.74.34-1.52.71-3.12 1.29 3.09 1.69 6.08 3.4 7.68 3.42 3.23 6.58 6.48 8.57 10.79 1 2.1 2.14 4.09 3.22 6.13l1.12-.54-12.9-26.78 1.54-.88 5 6.92c-1.85-7.22-8.93-11.79-8.69-19.88l3.36 4.87.61-.31-8-17.7 1-.5c1.46 2 2.92 4.09 4.9 6.84-1.25-5.25-4.59-9.25-3.21-14l1.31-.35 4.24 11.64.84-.26c-.66-2.25-1.31-4.5-2.11-7.25l2.65 2.47c-.87-5.53-4.39-10.21-1.59-15.85.83 2.86 1.53 5.29 2.47 8.52V86.38l.85-.21c.81 1.91 1.61 3.82 2.67 6.33 1.73-5.45.9-11.45 6.09-15.16a43.12 43.12 0 00-.93 4.33 33.28 33.28 0 000 3.87c3.08-4.93 6.18-9.48 12.27-12l-8.35 14.49 7.62-4.7.44.65-4.06 4.48 1.09 3 4.41-1.52-7.81 7.06 5.15-1.44.3.65c-3.24 3.63-6.49 7.25-9.32 10.4l10.12-1.75-6.73 6.27 2.45.25-6.88 5.36.36.55 5.76-2.58.64.77-5.9 8.52 6.18-2.48c-1.83 3.9-3.23 6.86-4.64 9.85l2.39-.48c-.15.85-.26 1.47-.38 2.1l1 .35a41.28 41.28 0 001.84-4.15c5.24-16.09 12.67-31 24.16-43.57 2.35-2.57 5.08-4.8 7.64-7.19.21.24.43.47.64.7l-12.37 15.16c5.09-3.18 9.23-7.33 13.93-10.68s9.72-5.72 15.22-8.87l-8.1 1.47a5.15 5.15 0 01.53-1.24c4.52-5.27 10.18-7.3 17.06-6.16 2.64.44 5.34.56 8 .83l.11-1.77-16.47-.87c1.74-.67 3.1-1.27 4.51-1.71 14.79-4.62 29.86-5.15 45-2.69 6.49 1 12.86 2.74 19.28 4.14l17.62 5.41c-5.31-3.81-11.3-5.23-17.68-5.33.26-.69.52-1.38.75-2l-6.06-2.13c0-.35.09-.69.14-1 2.12-.22 4.26-.35 6.36-.68s4.13-.87 6.18-1.32c-.1-.53-.21-1.06-.31-1.6l-21 2.05-.18-1.08 4.94-3c-7.23 0-13.87 2.68-21.62 0l7.06-2.23c-4.58-1.25-9.51.39-13.8-3l30.23-4.47c-7.13-3.72-14.47 1.16-20.94-2.64l18.44-3.15c-9.46-3.24-18.22.49-27 .58-.08-.39-.17-.77-.26-1.16l10.84-4.27-18.13 1.39c-.06-.41-.11-.83-.17-1.25l7.49-3.16c-5.78-.56-10.71 1.21-15.7-2.54l9.11-2.58-16.67-3.17c.06-.49.12-1 .17-1.47h11.49l.09-.68-14.68-7.57a11.65 11.65 0 012.52 0c11 3.4 22.45 3.47 33.84 4.21 13.12.86 23.57 6.79 30 18.67 8.42 15.5 20.27 28.17 32.82 40.28 2.11 2.05 4.27 4 7 6.64-.39-5.85-3.52-9.3-6.64-12.45s-6.88-5.65-11.19-9.08l7.94.85-11.9-5.09.42-.91 3.29-.45-9.22-5.09 5.2.23-9.1-4.24.37-.88 6.47.91.17-.76-8.91-4.09.3-.84 6.41 1.4-14.52-10.21c.09-.18.19-.36.29-.54l12.89 1.84c.08-.39.17-.78.26-1.17L668.2 26c.15-.42.3-.85.46-1.27L679.59 26l.17-.51-16.36-7 .21-.62 7.62.59-16.54-6.43c.09-.39.18-.78.28-1.18a41.22 41.22 0 015.56.06 47.46 47.46 0 016.05 1.44c1.69.46 3.37 1 5 1.53l.5-1.17-23.36-15a50.5 50.5 0 0125 8.75L670.31.62l.83-.53 15.41 14.48c-.15-.76-.33-1.74-.52-2.72l1-.49c2.24 3.1 4.49 6.21 6.72 9.32.76 1 1.58 3.06 2.22 3 3.71-.35 4.07 2.81 5.2 4.8 2.31 4.05 4.17 8.35 6.65 13.43L706.13 34l3.45 1.63c-1.68-4.29-3.19-8.13-4.7-12l1-.54 4.49 4c-.85-6.33-1.73-12.8-2.6-19.27l1.23-.24c1 1.66 2.07 3.33 2.85 4.58l2.61-18.72 1.35.08c.22 3.56.45 7.12.67 10.68h.52l5.7-16.84.93.27-1.7 13 1.21.23c3.26-6.51 6-13.49 15.06-15.79l-7.9 13.77L745-3.72l.18.68-14.41 10.45.74 1.27 8.06-2a35.49 35.49 0 01-8.57 7.54c-5.09 3.11-6.87 4.86-7 7.93l14.29-7.21.81 1.4-15.85 15.07.6.4 13.45-6.44 1.05 1.46-8.25 9.47-1-.82 4.15-1.23.78.83-10.92 12.2.83.65 4.2-2.55-4.7 9.19a11.39 11.39 0 004.32-3.93c6.1-10 14.93-16.47 26.05-19.76 8.07-2.39 16.22-4.54 24.4-6.55a32.77 32.77 0 018.11-.64c14.26.19 26 6.61 36.55 15.47 10.18 8.57 19.88 17.72 29.77 26.65a14.09 14.09 0 011.67 2.26c-10.13-.72-16-8.8-24-12.89 1.91 3.49 5.44 6 4.76 11.13-11.61-5.54-18.55-15.89-27.65-23.54l12.61 19a.7.7 0 00.3.24c4.09 1.56 8.11 3.31 12.28 4.61 6.76 2.11 13.61 3.93 20.42 5.87 2.34.67 4.67 1.37 7 2q10.83 3 21.67 6l-.3 1.15c-9.22 2.08-18.11-.78-27.77-2.4l14 7.3-.63 1.69-27.87-7.59 18.27 12.84c-14-1.56-23.28-13.07-36.3-17 6.3 7.3 16.48 9.93 21.17 19a108.39 108.39 0 01-16.95-8.24C820 84 815.07 80.3 810 76.8a4.61 4.61 0 001.67 2.94c5.16 4.52 10.42 9 15.52 13.54a70.39 70.39 0 015 5.51c-.48.54-1 1.07-1.46 1.61l-37.29-24.72-1.3 1.57c1.52 1.14 3 2.29 4.56 3.42 4.89 3.64 9.89 7.13 14.61 11 2.3 1.87 4.06 4.39 6.06 6.62l-.92.71-12.06-7.31-.59.78q3.21 4.55 6.41 9.1l-.43.53-26.25-15.8c3.45 3.72 6 6.8 8.9 9.52 5.57 5.25 6.27 6 6.53 10.23L780.7 94c1.42 3.12 4.38 5.31 3.07 10.06l-10.33-8.83 2.58 6.44-1 .71-13-8.57-.47.32 7 9.11c-7.15-.92-11.41-6.15-17.1-8.88 3.68 4.58 7.37 9.16 11.74 14.61l-10.24-.86c7.12 4.26 13.39 7.8 19.43 11.68 9.09 5.84 14.34 10.59 15.84 13.65L767 123.14l-.67 1.26c2.29 1.42 4.6 2.8 6.87 4.25 5.8 3.68 11.72 7.2 17.31 11.18 2.57 1.83 4.48 4.59 6.69 6.92l-.65.5-13.85-8.57-.69 1c8.46 4.26 13.59 11.61 18.35 19.29l-13.3-9.42c-.21.28-.42.57-.62.86 8.3 7.16 17.31 13.72 22.12 25.08l-10.77-7.74-.76.87c11.24 8.11 15 21.31 21.86 32.5l-17.08-17.07c6.53 9.65 9.47 20.43 10.9 31.73l-1.19.5q-4.2-9.74-8.39-19.49l-1.34.42c3.11 9.61 6 19.24 4.45 29.62q-4.69-12.72-9.38-25.45l-1.37.16v15.56l-1.72.21c-5.23-9.63-5.07-21-9.35-31.87v14.9l-1.23.14-7.44-28.32-1.06.25 6 32.43-1.46.34c-6.85-13.83-10.51-28.8-14.23-44.18-1.67 8.25 1.87 16.12.08 23.86l-1.57.15-4.85-23.91q-.33 7.5-.66 14.66c-8.26-2.3-5.13-10.12-8.56-15.08-.36 2.26-.62 3.86-.87 5.46l-1.12.25-8.1-19.18-1 .13c.33 4.26.38 8.55 1 12.75 2.88 18.58 6.65 37.05 8.79 55.71a674 674 0 012.42 123.2c-2.28 33.21-7 66.05-19.34 97.32a.47.47 0 00.12.4l14-9.75.87 1.14-9.52 11.6h23.6c0 .36.05.73.08 1.1-5.78 3.79-12.24 5.24-19.11 5.24H638.45a5.92 5.92 0 01-3-.46c-3.61-2.33-7.11-4.83-10.65-7.28l.08-.51 11 4-3.34-3 2.25-.13.21-.67-12.28-6.71c7.72-.5 12.22 4.78 18.09 6.57-9.54-9.53-22.45-13.93-32.93-22 11.86 2.49 22.12 8.2 32.12 16.14-.09-9.2-8-12.05-11.46-18.23 3.47 2.51 7 5 10.7 7.76 0-6.61.95-12.94-4.16-18.35-3.18-3.36-5.53-7.5-8.24-11.29l1.2-1.18q4.46 5.63 8.9 11.27l1.65-1.37q-8.31-12.94-16.61-25.88l.61-.55 14.33 17.52c-.63-3-1-6-1.88-8.81-10.11-33.89-19.94-67.74-30.44-101.41-6.79-21.74-16.62-42.23-28.41-61.73-1.32-2.19-3.43-3.9-4.74-6.09-4.17-7-8.14-14-12.19-21.09l-.7.32c.69 2.84 1.39 5.67 2.38 9.7l-8.62-8.59-.6.46 11.77 17.93-1.06.75L550.18 200a40.57 40.57 0 002.39 5.41c2.12 3.26 4.75 6.22 6.59 9.62 1.57 2.91 2.33 6.25 3.41 9.41a9.53 9.53 0 01.18 1.82l-4.42-3.13c.56 1.76 1 3.09 1.63 5.09l-9.69-8-.58.56q4.93 6.66 9.85 13.34l-1 .91-8.16-6.6-.81.58c5.57 5.65 10.76 11.55 12.71 19.68l-9.57-8.94c-.08.1-.16.19-.23.29l8.16 12-1.37 1.05-15.1-14.17-1 .91c1.32 2 2.38 4.25 4 6 3.68 3.84 7.72 7.32 11.43 11.12 1.95 2 3.53 4.35 5.28 6.54l-1.1.93-11.52-9.85a26.55 26.55 0 002.77 4.8 49.72 49.72 0 012.19 4.6l-.77.45-3.6-3.42-.33.34q3 4.39 6 8.81l-1.08.82q-3.82-4-7.67-8.06l-.6.46c1.07 2.29 2.13 4.58 3.37 7.25l-2.56-.42c1.12 3.3 2.18 6.43 3.25 9.57-6.8-3.91-9-10.52-11.63-17 .3 3.34.6 6.67 1 11-4.75-6.28-4-12.75-4.27-19h-1c-.3 3.5-.61 7-.91 10.51l-.82-.05c-.18-1.22-.37-2.43-.59-3.9l-1.84 2.38c-2.35-9 3.61-16.23 4.35-24.28l-1-.37-6.35 15.33-1-.3c1.06-5 2.12-10 3.43-16.22l-6.33 9.79c-2.82-8 4-12.61 4.59-19.16l-8.39 11.7c-.29-.18-.58-.36-.88-.53q3.07-5.43 6.16-10.87c-.18-.1-.35-.21-.52-.32l-7.14 7.69-1.11-.8 14.54-21.94-.71-.57-13.1 16.14-.61-.48q1.42-3.53 2.83-7.07l-1.07-.43-2 4.32c-1-4.64-1.95-8.82-2.87-13l-1.22.27a93.38 93.38 0 011.5 10.39c.12 3.06-.56 6.15-.82 9.24-.1 1.17 0 2.35 0 3.53l-.78.06c-1-2.21-2-4.41-3.37-7.49.23 4.88.42 8.68.6 12.49l-.75.17q-2-4.11-4-8.23l-.63.28.5 9.17-.9.14c-1.06-2.3-2.11-4.6-3.18-6.94.5 5.73 1 11.38 1.49 17l-1.39.31-4.25-6.8c.5 3.19.83 5.26 1.16 7.33l-.58.15q-2.42-5-4.85-10l-.75.3q1.89 9.27 3.77 18.54l-.83.17-5.6-9.78v22.94c-4.56-7.91-1.93-16.27-5-23.56v20.45l-.56.08q-1.3-5.55-2.55-11.18l-.85.12q-.81 9.42-1.61 18.83h-.71c-.48-4.41-1-8.82-1.53-14-.79 2.34-1.36 4.05-1.84 5.48 0-6.32-.48-12.87.17-19.3.42-4.28 2.16-8.52 3.8-12.58 6.56-16.19 17.76-29.14 29.84-41.35a57.73 57.73 0 0112.83-10c4.82-2.65 5.87-6.28 5.63-11.5l-8.37 11.39c.23-3.58.4-6.17.57-8.76l-1.17-.28c-1 3.36-2 6.72-3.24 10.73l-2-4.49-1.52 5.74-.92-.2-.89-11.2h-.72c-.59 3.34-1.18 6.69-1.76 10l-.76.05q-1-2.43-2-4.88l-.75.13v10.53l-.91.25c-1.21-2-2.43-4-3.85-6.29.2 4.08.37 7.72.55 11.35l-1.18.25-3.27-7.39-.48.11c.33 3.59.67 7.17 1 10.76l-.84.14q-1.29-2.18-2.56-4.35l-.71.25.93 10-1.49.4q-3.19-8.86-6.37-17.72l-.66.15q1.18 11.46 2.38 22.93l-1.45.25q-1.62-4.58-3.25-9.14l-.43.15v13l-3.81-10.77-.31.14 2.1 18-1.95.38c-1.56-5.06-3.11-10.13-4.88-15.9v16.83l-.57.24-3-6.15c-.49 5-.95 9.58-1.4 14.17l-1 .12-2-14.5h-.6q-1.31 4.47-2.6 8.94l-1.24-.23 1.4-15.43-4.27 6.09-1.24-.6q3.66-9 7.31-18l-.41-.37-8.54 10.52c1-7.6 5.52-13 9.68-18.76l-7 5a6.64 6.64 0 012.63-4.09c5.89-3.6 7.57-10.64 12.48-15 .33-.29.33-1 .48-1.46 2.46-1.27 5.53-1.96 7.13-3.88zm153.64-81.28c1.6-6.89 3.41-13.73 4.51-20.76l-9.26 27.63-3-2.63-2.66 3.82c-.45-1.94-.8-3.47-1.3-5.67l-4.53 9.92-1.21-.3q1.26-6.83 2.53-13.65L618 93l-7.89 19.61-.54.15q.86-13.41 1.7-26.8l-1.84-.26c-2.72 9.88-1.5 20.76-7.09 30.84-.78-4.41-1.43-8.09-2.07-11.77l-.58-.07c-.78 5-1.55 10.08-2.33 15.16 3.95 1.18 6.62-.6 9.68-2.61 7.93-5.21 16.23-9.86 24.36-14.76a12.43 12.43 0 001.7-1.48c7.79-1.46 7.88-8.59 10.66-13.74l-1-.74q-4.77 7.27-9.55 14.55a40.26 40.26 0 01.43-6.14zm47.68 331c3.33 1.79 6.52 3.53 9.86 5.33l-7-12.33-5.61-13.21.51-.48c2.73 2.54 5.59 5 8.17 7.65a105.16 105.16 0 017.32 8.58c2.36 3.08 4.45 6.37 6.8 9.77 2.43-1.89 2.61-3.89 1.2-6.6-4.67-9-9.32-18-9.77-28.46a75.51 75.51 0 00-1-10.07c-.94-5.31-2.18-10.58-2.9-16.25 4 7.58 8.77 14.89 11.91 22.82 3.21 8.12 4.86 16.84 7.58 25.35v-8.46l.69-.18 2 3.41c.8-1.66 1.48-3 2.1-4.36 10.79-23.48 16.22-48.42 19.51-73.85 4.8-37.14 6.76-74.44 4.8-111.87a567.13 567.13 0 00-10.94-82.89 6.11 6.11 0 00-1.12-2.85c-4.47-4.83-9-9.57-13.57-14.33l-1.43 1 17.43 27.43-1.33 1q-9.6-10.09-19.13-20.25l-.39.29c3.36 4.54 6.77 9.06 10.08 13.65s7.86 8.66 8.95 15.44L710.57 147l17.21 30.11-.64.75a33.41 33.41 0 01-4-3.52c-3.84-4.56-7.55-9.24-11.3-13.88-2.36-2.92-4.7-5.86-7-8.78l-.94 1q8.73 14.07 17.47 28.14l-.26.27-16.2-15.92-1.19 1.07c3.9 5.86 10.22 10.2 11.92 17.83l-9.3-7.25-1.18.91c8 9 11.15 20.1 14.15 29.91l-16.5-18-1.24.79c.86 7.23 5.49 13.16 7.17 20.28L698.51 198l-.6.25c1.38 3.86 3 7.66 4.08 11.61 2.3 8.49 4.53 17 6.29 25.62.62 3.06-.22 6.42-.4 9.64l-1.61.14q-2.25-6.39-4.51-12.79c-1.48 8.83 3.43 17.5-.4 26.84-4.13-12-12.08-22.13-11.51-35l-6.28 12.76-1.56-.57q1.43-16.33 2.87-32.67l-.82-.35c-1.74 5.22-3.48 10.45-5.59 16.75-4-11.24-.08-21.39-.49-32a53.93 53.93 0 00-3.09 5.55A59.21 59.21 0 00673 200l-1-.08c0-4-.4-8 .11-11.83.53-4.08 2-8 2.94-12.07s1.83-7.92 2.75-11.88l-1.6-.54c-1.76 4.27-3.22 8.68-5.36 12.75s-5 7.93-7.44 11.66c-.94-9.31 4.22-17.57 7.06-26.64l-3.61 4-16.85-7.85-.46.42 6.51 4.84-1.55 1.9-15-9.4 14.26 14.58-.68.79-18.87-14.86-.78.85 15 14.06c-.31.39-.63.77-.94 1.15l-10-7.54c-.14.16-.27.32-.41.47l6.33 7.54c-.28.32-.55.64-.83 1l-14-10.45-.66.59 11 12.84-.44.64-8.48-5.56-.4.29 4.16 5-.82.92-14.18-12.74-.47.46 8 9.82-.75.68-3.16-2.17c.16 1 .3 1.84.59 3.63l-13.12-10.67c2.07 3.87 3.63 7.86 8.27 9.53a26 26 0 019.32 5.49c3.91 3.84 7 8.47 10.52 12.75a25.45 25.45 0 002.65 2.84c6.23 5.62 5.45 14.06 8.32 21.11l-9.06-10.84-.64.33q1.62 3.75 3.25 7.5l-.91.57L631.46 200l-.87.44c1.39 4 2.79 7.92 4.19 11.92-5 .22-5.65-3.79-7.48-7.19-.26 1-.44 1.68-.81 3.05-1.18-2.29-2.14-4.14-3.52-6.83.39 2.73.66 4.55.92 6.37l-1 .35q-2-4.06-3.92-8.13l-.4.07c.15 1.12.31 2.25.46 3.37-5.13-4.55-4.23-11.83-8.47-16.85q2.54 8.66 5.06 17.31l-1.29.6-5.49-9.67-.41.12c.25 1.42.5 2.84.74 4.27l-.59.38-7.58-8.32c-.28 1.3-.59 2.71-1.05 4.82l-5.14-2.68c-1.65 1.44-.38 2.15 1.43 3.3a177.51 177.51 0 0114.61 10.13c1.48 1.17 1.77 3.76 2.91 5.5a21.18 21.18 0 003.41 3.62c1.82 1.71 3.72 3.35 6.25 5.62h-2.67a7.44 7.44 0 00.56 1c3.12 4 6.54 7.73 9.25 11.95 1.33 2.08 1.11 5.09 2 7.51 1.11 3 2.67 5.74 4 8.59l-.84.44-3.08-4.18 5 13.72-.62.31-3.92-4.53.21 4-4.75-5.38c.2 1.52.32 2.46.44 3.39l-.89.42-6.59-11.44-1.25 3.06c-.87-3.86-1.53-6.74-2.31-10.2-.52 3-.94 5.33-1.35 7.7l-.73.06-1.26-11-.62.01-2.14 9.66h-1.18c-.42-4.15-.85-8.29-1.33-13l-1.26 4.8-.72.11q-1.39-5.92-2.8-11.87h-.85v9.87h-1.23L601 223.82h-.51v13.67l-1.33.13c-1.45-8.18-3.4-16.28-3-24.76l-1 15.27-1.51.07-1.44-18.69-.57-.05-1.16 14.75-1.07.15-3.56-15c-.56 7.6-1 13.52 3.28 19.67 15.86 22.87 24.77 49 33.16 75.21 9.43 29.53 18.44 59.19 28.07 88.65 3.68 11.27 8.59 22.13 13.17 33.75.67-1.69 1.17-2.93 2-4.93.26 1.81.41 2.9.7 5 2.72-9.69 4.34-18.9 11.68-26.81-2.09 10.22-4 19.4-6 29.09.47-.12 2.07 0 2.82-.8 1-1 1.23-2.61 1.92-4.23 3.46 1.24 4.68-3.34 7.55-4.9-.97 2.16-1.87 4.4-2.88 6.94zm-4.5-305h-1.46c-.86-2.69-1.73-5.39-2.84-8.85-1.26 5.88-2.34 10.93-3.43 16l-1.23-.06q-.66-9.9-1.34-19.81h-1.28q-.78 10.68-1.55 21.36h-1c-2.94-8.08-1.14-16.76-2.89-25.06v30l-1.21.15c-3.44-4.56-1.77-10.71-4-15.67l-1 .12q1.17 12.45 2.36 24.89l-1.64.45c-.85-2.09-1.85-4.14-2.49-6.29s-.93-4.42-1.53-7.41c-1.81 6.4.22 16 3.49 17.25l-4.13 1.43c5.59 2.4 10.27 4.41 14.94 6.43l-.42 1.21-6-1.44-.16.39 7.53 4.64q4.61-8.45 9.21-16.92l-.36-.67-11.08 8.29a35.06 35.06 0 019-16.13c2.86-2.87 5.24-6.2 7.83-9.33l-.79-.73-3.57 3.81-.34-.37c2-3.73 4.92-7.3 5.55-11.24.58-3.64-1.37-7.67-2.2-11.53h-.5zm-25.93-35.72c-2.24 4.63-2.85 9.32-8.49 10.07l.88 1c1.91-.59 3.81-1.24 5.74-1.76 9.23-2.46 18.42-5.1 27.73-7.19 2.69-.6 4.46-1.23 5.32-3.95.69-2.17 1.73-4.23 2-6.83l-10.33 10-.92-.75 3-7.68c-5.16 3.62-8.21 8.91-14.62 8.44.1-1.64.19-3 .31-4.77-4.44 2.24-4.82 9.14-11.17 9.33.18-1.86.31-3.35.55-5.91zM734 67.5l4.29 3.5-.16 1.09c-1.54 0-3.09.05-4.63 0a12.43 12.43 0 00-4.86.38l5.08 4c.13.35.25.69.38 1-6.32-1-8.88 2.24-9.55 7.86 7.87-3.17 12.4-9.83 17.7-16.47zm-19.8 19c-8.08-4.46-16-2-24.2-2.45.1-1.25.24-2.82.44-5.27-1.44 1.5-2.44 2.57-3.44 3.7s-2.08 2.52-3.29 4zm69.2-31.22c1.63 2.56 1.88 2.61 8.12 1.34l-15.25-14c-.18.19-.35.39-.53.59q3.87 6.04 7.7 12.05zm-226.8 118.3c.29.49.57 1 .86 1.46 8.16-4.51 16.31-9 24.39-13.66l-1.22-1.87zm88.85-27.64c-.09-6.48-2-10-5.59-9.88v10.72zm132-91.71c-.22.89-.4 1.61-.74 3l-13.38-13.38-.61.66c3.36 4.48 6.63 9 10.16 13.36.55.69 2.23.63 3.39.62a53.93 53.93 0 005.51-.77zM574.41 97.16l21.12-11.79c-.21-.32-.41-.64-.61-1-7.56 3.85-16.42 5.56-20.51 12.79zm165.51 27.42l-1.4.23 3.42 20.13 1.08-.19c-.41-6.82-.19-13.75-3.1-20.17zM595 120.35c.65-6.31 1.3-12.52 1.94-18.72h-.5c-1.63 6.22-3.25 12.44-5 19zm155.49-66c4.56 2.52 7.58 9.18 15.4 5.42zm-6.92 13.55l6.14-3.59-11.92-2.72zm-41.5 27.8l12.16-5.92-.39-1.11c-5.4-.59-8.84 2.66-11.77 7.03zm21.26 33.05c-.27-5.63-4.08-8.73-7.38-12.21l-1 .71zm79.29-81.11l-.28.21c2.7 4.12 5.27 8.33 8.2 12.29.64.86 2.55.78 4.62 1.33zm-93.87 34c-3.08-5.73-8.3-6.62-13.32-7.14zm32.6 10.87l-.88.83c1.61 4 4.37 7 9.17 8zM574.28 187l-2.73-3c0 3.69 1.64 4.82 9.15 6.47a4.29 4.29 0 00.31-1 9.63 9.63 0 00-.21-1.55l-1.34 1.79c-.68-.9-1.26-1.73-1.9-2.51s-1.2-1.29-2.13-2.29c-.5.95-.79 1.46-1.15 2.09zM762.79 52.37c3.83 7.41 4.39 7.83 9.19 6.5zm-183 99.74l-9.27-2c-.1.32-.19.65-.29 1l6.68 3.65zm-54.63.22l-8.81-1.78-.26 1.25c2.45 3.38 5.77 1.7 9.03.53zm54.47 60.75c-1.07-4.75-1.94-8.58-2.8-12.4-.29 4.05-1.83 8.32 2.76 12.4zm85.63 228.64c4.52-4.48 5.8-8.09 3.65-10.36-1.21 3.3-2.28 6.35-3.69 10.36zM800 58.38l-9.07-9.81c2.25 3.64 3.37 8.3 9.07 9.81zm-208.17 83.09l.78-1.41-10-5.42-.56 1zm-90.21 25.65c4.48.34 5-3.92 7.72-5.67l-.65-.73z" fill="url(#Degradado_sin_nombre_268-2)"/><path d="M-33.76 399s63.66 32.45 160.65 45.07c134.48 17.5 309-12.69 401.7-14.39s185.56-8.57 261.77 34.8v58.67H-33.76s-1.55-122.9 0-124.15z" fill="url(#Degradado_sin_nombre_269)"/><path d="M242.55 191.91a27 27 0 016-7.4 25.42 25.42 0 018.21-5 22.08 22.08 0 014.73-1.09 33.57 33.57 0 014.79-.29 36.15 36.15 0 019.45 1.22l-1.05.47a18.85 18.85 0 012.07-4.47 18.57 18.57 0 013.35-3.68 23 23 0 018.75-4.43 34.71 34.71 0 019.54-1.06 36 36 0 019.35 1.38l-.05.3c-3.11.1-6.18.29-9.19.66a52.85 52.85 0 00-8.79 1.78 26.5 26.5 0 00-7.88 3.6 18.49 18.49 0 00-5.62 6.52l-.4.78-.65-.31a18 18 0 00-8.85-1.8 19.15 19.15 0 00-2.26.3 20.3 20.3 0 00-2.19.62 29.84 29.84 0 00-4.14 1.78c-1.34.67-2.64 1.39-3.94 2.11s-2.55 1.59-3.79 2.46a80.36 80.36 0 00-7.19 5.77z" fill="url(#Degradado_sin_nombre_268-3)"/><path d="M276.68 139.81a17.24 17.24 0 013.83-4.72 16.81 16.81 0 015.24-3.22 18.31 18.31 0 016.08-.87h1.52c.52 0 1 .13 1.51.18a9.38 9.38 0 011.5.24l1.51.32-.67.3a11.68 11.68 0 011.32-2.85 11.16 11.16 0 012.15-2.35 14.62 14.62 0 015.58-2.83 21.81 21.81 0 016.1-.68 23.11 23.11 0 016 .88v.19c-2 0-4 .2-5.87.42a33.51 33.51 0 00-5.68 1.18 16.56 16.56 0 00-5 2.3 11.89 11.89 0 00-3.59 4.17l-.25.47-.42-.17a11.88 11.88 0 00-5.66-1.13 14.21 14.21 0 00-5.49 1.71 39.28 39.28 0 00-4.94 2.92 52.08 52.08 0 00-4.59 3.68z" fill="url(#Degradado_sin_nombre_268-4)"/><path d="M296.53 230.67a17.32 17.32 0 013.84-4.73 16.59 16.59 0 015.24-3.21 18.07 18.07 0 016.08-.88h1.52c.52 0 1 .13 1.51.18a9.38 9.38 0 011.5.24l1.51.33-.67.3a10.37 10.37 0 013.46-5.21 15 15 0 015.59-2.83 22.16 22.16 0 016.09-.68 23.62 23.62 0 016 .88v.19c-2 0-3.95.2-5.87.43a33.5 33.5 0 00-5.62 1.13 17 17 0 00-5 2.3 12 12 0 00-3.71 4.19l-.25.47-.42-.17a11.88 11.88 0 00-5.66-1.13 14.21 14.21 0 00-5.49 1.71 38.58 38.58 0 00-4.94 2.92 52.08 52.08 0 00-4.59 3.68z" fill="url(#Degradado_sin_nombre_268-5)"/></g></g></svg>