<svg xmlns="http://www.w3.org/2000/svg" xmlns:xlink="http://www.w3.org/1999/xlink" viewBox="0 0 657 459.9"><defs><linearGradient id="linear-gradient" x1="-459.29" y1="294.47" x2="-452.29" y2="492.98" gradientUnits="userSpaceOnUse"><stop offset="0" stop-color="#0072a6"/><stop offset=".07" stop-color="#107bac"/><stop offset=".4" stop-color="#559fc7"/><stop offset=".68" stop-color="#87b9da"/><stop offset=".88" stop-color="#a5cae6"/><stop offset="1" stop-color="#b1d0eb"/></linearGradient><linearGradient id="linear-gradient-2" x1="-459.29" y1="310.09" x2="-455.45" y2="418.91" gradientUnits="userSpaceOnUse"><stop offset="0" stop-color="#0072a6"/><stop offset=".16" stop-color="#2a88b6"/><stop offset=".36" stop-color="#5aa2c9"/><stop offset=".55" stop-color="#80b6d8"/><stop offset=".72" stop-color="#9bc4e2"/><stop offset=".88" stop-color="#abcde9"/><stop offset="1" stop-color="#b1d0eb"/></linearGradient><linearGradient id="linear-gradient-3" x1="-458.62" y1="338.77" x2="-454.78" y2="447.61" gradientTransform="rotate(.65 341.759 420.296)" xlink:href="#linear-gradient-2"/><linearGradient id="linear-gradient-4" x1="-460.96" y1="318.99" x2="-457.12" y2="427.82" gradientTransform="rotate(-.07 -16.45 130.952)" xlink:href="#linear-gradient-2"/><linearGradient id="linear-gradient-5" x1="328.5" y1="-32.38" x2="328.5" y2="340.07" gradientUnits="userSpaceOnUse"><stop offset="0" stop-color="#fa7a40"/><stop offset=".2" stop-color="#fb9858"/><stop offset=".57" stop-color="#fdca81"/><stop offset=".84" stop-color="#fee89a"/><stop offset="1" stop-color="#fef4a3"/></linearGradient><linearGradient id="linear-gradient-6" x1="537.53" y1="223.72" x2="556.56" y2="371" gradientTransform="rotate(-1.79 387.226 316.585)" gradientUnits="userSpaceOnUse"><stop offset="0" stop-color="#fff"/><stop offset=".12" stop-color="#fffcf6"/><stop offset=".31" stop-color="#fff2df"/><stop offset=".55" stop-color="#ffe3b9"/><stop offset=".82" stop-color="#ffce85"/><stop offset="1" stop-color="#ffbf5f"/></linearGradient><linearGradient id="linear-gradient-7" x1="550.37" y1="275.03" x2="556.62" y2="358.15" gradientTransform="rotate(-1.79 387.226 316.585)" gradientUnits="userSpaceOnUse"><stop offset="0" stop-color="#fff"/><stop offset=".16" stop-color="#fffdfb"/><stop offset=".32" stop-color="#fff9ef"/><stop offset=".48" stop-color="#fff1dc"/><stop offset=".63" stop-color="#ffe6c0"/><stop offset=".79" stop-color="#ffd79c"/><stop offset=".94" stop-color="#ffc671"/><stop offset="1" stop-color="#ffbf5f"/></linearGradient><linearGradient id="linear-gradient-8" x1="70.97" y1="159.82" x2="70.97" y2="200.73" gradientTransform="rotate(7.12 151.263 254.007)" xlink:href="#linear-gradient-6"/><linearGradient id="linear-gradient-9" x1="80.56" y1="248.15" x2="57.41" y2="369.28" xlink:href="#linear-gradient-6"/><linearGradient id="linear-gradient-10" x1="338.64" y1="295.48" x2="338.64" y2="444.47" gradientUnits="userSpaceOnUse"><stop offset="0" stop-color="#fa7a40"/><stop offset=".13" stop-color="#fb8e4b"/><stop offset=".36" stop-color="#fdad5b"/><stop offset=".59" stop-color="#fec367"/><stop offset=".8" stop-color="#ffd06e"/><stop offset="1" stop-color="#ffd570"/></linearGradient><linearGradient id="linear-gradient-11" x1="338.64" y1="259.38" x2="338.64" y2="408.36" xlink:href="#linear-gradient-10"/><linearGradient id="linear-gradient-12" x1="332.55" y1="330.88" x2="340.11" y2="482.26" gradientUnits="userSpaceOnUse"><stop offset="0" stop-color="#fa7a40"/><stop offset=".05" stop-color="#fb8646"/><stop offset=".2" stop-color="#fca255"/><stop offset=".36" stop-color="#fdb961"/><stop offset=".53" stop-color="#fec969"/><stop offset=".73" stop-color="#ffd26e"/><stop offset="1" stop-color="#ffd570"/></linearGradient><linearGradient id="linear-gradient-13" x1="367.69" y1="229.34" x2="333.21" y2="408.23" xlink:href="#linear-gradient-12"/><linearGradient id="linear-gradient-14" x1="307.47" y1="320.46" x2="282.17" y2="543.57" gradientUnits="userSpaceOnUse"><stop offset="0" stop-color="#ffdb71"/><stop offset=".09" stop-color="#f5cd6c"/><stop offset=".35" stop-color="#dda95f"/><stop offset=".6" stop-color="#cb8f55"/><stop offset=".82" stop-color="#c07f4f"/><stop offset="1" stop-color="#bc7a4d"/></linearGradient><linearGradient id="linear-gradient-15" x1="777.55" y1="370.48" x2="907.81" y2="370.48" gradientTransform="matrix(-1 0 0 1 845.83 0)" gradientUnits="userSpaceOnUse"><stop offset="0" stop-color="#b66b3c"/><stop offset="1" stop-color="#744624"/></linearGradient><linearGradient id="linear-gradient-16" x1="814.53" y1="412.83" x2="843.85" y2="416.69" xlink:href="#linear-gradient-15"/><linearGradient id="linear-gradient-17" x1="861.13" y1="202.77" x2="861.13" y2="618.91" xlink:href="#linear-gradient-15"/><linearGradient id="linear-gradient-18" x1="449.33" y1="454.53" x2="449.33" y2="287.19" gradientUnits="userSpaceOnUse"><stop offset="0" stop-color="#d89e58"/><stop offset="1" stop-color="#fff0bb"/></linearGradient><linearGradient id="linear-gradient-19" x1="449.33" y1="294.34" x2="449.33" y2="392.38" gradientUnits="userSpaceOnUse"><stop offset="0" stop-color="#b72a27"/><stop offset=".3" stop-color="#b02826"/><stop offset=".74" stop-color="#9b2422"/><stop offset="1" stop-color="#8c211f"/></linearGradient><linearGradient id="linear-gradient-20" x1="419.8" y1="294.34" x2="419.8" y2="392.38" xlink:href="#linear-gradient-19"/><linearGradient id="linear-gradient-21" x1="478.85" y1="294.34" x2="478.85" y2="392.38" xlink:href="#linear-gradient-19"/><linearGradient id="linear-gradient-22" x1="273.01" y1="454.53" x2="273.01" y2="287.19" xlink:href="#linear-gradient-18"/><linearGradient id="linear-gradient-23" x1="273.01" y1="294.34" x2="273.01" y2="392.38" xlink:href="#linear-gradient-19"/><linearGradient id="linear-gradient-24" x1="243.48" y1="294.34" x2="243.48" y2="392.38" xlink:href="#linear-gradient-19"/><linearGradient id="linear-gradient-25" x1="302.53" y1="294.34" x2="302.53" y2="392.38" xlink:href="#linear-gradient-19"/><linearGradient id="linear-gradient-26" x1="798.51" y1="300.94" x2="725.22" y2="189.65" gradientTransform="matrix(-1 0 0 1 845.83 0)" xlink:href="#linear-gradient-5"/><linearGradient id="linear-gradient-27" x1="266.15" y1="338.71" x2="187.22" y2="166.5" xlink:href="#linear-gradient-19"/><linearGradient id="linear-gradient-28" x1="214.82" y1="253.48" x2="295.7" y2="156.07" xlink:href="#linear-gradient-19"/><linearGradient id="linear-gradient-29" x1="54.16" y1="204.39" x2="159.93" y2="236.02" xlink:href="#linear-gradient-19"/><linearGradient id="linear-gradient-30" x1="348.03" y1="160.63" x2="76.87" y2="308.53" xlink:href="#linear-gradient-19"/><radialGradient id="radial-gradient" cx="700.5" cy="283.18" r="53.08" gradientTransform="matrix(2.62 0 0 1.95 -1195.73 -219.07)" gradientUnits="userSpaceOnUse"><stop offset="0" stop-color="#ffe2b0"/><stop offset="1" stop-color="#ffe2b0" stop-opacity="0"/></radialGradient><radialGradient id="radial-gradient-2" cx="633.5" cy="302.58" r="53.08" gradientTransform="matrix(3.75 0 0 2.3 -1745.67 -357.58)" xlink:href="#radial-gradient"/><radialGradient id="radial-gradient-3" cx="632.98" cy="308.95" r="28.02" gradientTransform="matrix(3.75 0 0 2.3 -1745.67 -357.58)" xlink:href="#radial-gradient"/><clipPath id="clip-path"><path class="cls-1" d="M-787.36.45h655.71v459h-655.71z"/></clipPath><clipPath id="clip-path-2"><path class="cls-1" d="M.64.45h655.71v459H.64z"/></clipPath><style>.cls-1{fill:none}.cls-26,.cls-27,.cls-28,.cls-29,.cls-30{fill-rule:evenodd}.cls-26{fill:#aa6742}.cls-27{fill:#85402d}.cls-28{fill:#a56e42}.cls-29{fill:#fbd9a6}.cls-30{fill:#eabd9a}.cls-45{fill:#fff}</style></defs><g style="isolation:isolate"><g id="Layer_1" data-name="Layer 1"><g clip-path="url(#clip-path)" fill-rule="evenodd"><path d="M-483.43 344.26c-276.52 0-472.56 23.81-472.56 65.66s224.25 75.8 500.77 75.8 500.77-33.94 500.77-75.8-252.46-65.66-528.98-65.66z" fill="url(#linear-gradient)"/><path d="M-483.43 359.88c-276.52 0-472.56 23.81-472.56 65.67s224.25 75.79 500.77 75.79S45.55 467.4 45.55 425.55s-252.46-65.67-528.98-65.67z" fill="url(#linear-gradient-2)"/><path d="M-482.62 365.65c-276.51-3.14-472.8 18.45-473.28 60.3s223.38 78.33 499.9 81.47 501.1-28.25 501.57-70.11-251.69-68.52-528.19-71.66z" fill="url(#linear-gradient-3)"/><path d="M-484.72 372c-276.51.32-472.52 24.36-472.48 66.21s224.34 75.54 500.86 75.22S44.38 479 44.33 437.1-208.2 371.72-484.72 372z" fill="url(#linear-gradient-4)"/></g><path fill="url(#linear-gradient-5)" d="M.64.45h655.71v459H.64z"/><g clip-path="url(#clip-path-2)"><ellipse cx="637.12" cy="333.54" rx="138.89" ry="103.59" style="mix-blend-mode:overlay" fill="url(#radial-gradient)"/><ellipse cx="626.97" cy="337.51" rx="198.81" ry="121.94" style="mix-blend-mode:overlay" fill="url(#radial-gradient-2)"/><ellipse cx="625.01" cy="352.14" rx="104.95" ry="64.37" style="mix-blend-mode:overlay" fill="url(#radial-gradient-3)"/><path d="M733 201.53c-8.19-27.25-36.91-44.69-45.33-18.05s3 51.25-21.1 36.21-17.57-24.05-30.9-18.63-3.89 27.07-24.58 31.63-27.13-21.81-48-8.77 5.69 34.14-27.24 36.87-34.75-12.46-47.09-6.45-13.33 43.81-29 23.36c-19.12-24.91-34.41-9.16-43.86 7.58s-25.56 14.55-48.63 9.73-28.19 21.48-4.44 19.18 49.3 10.59 102.25 10.42S568 314.18 632.62 307.94s94.86 5.79 97.92-19.4 2.46-87.01 2.46-87.01z" style="mix-blend-mode:multiply" fill="url(#linear-gradient-6)"/><path d="M756.08 297.36c-6.54-1.1-46.93-44.09-98.05-55.51s-68.56 55.51-94.89 45.92-28.51-21.89-47.14-10.24c-17.46 10.89-20.27 32.16-36.07 33-29.62 1.61-12.92-23-38.53-20.9-21.57 1.79-1.85 28-37.93 25.24s-52.78 4.25-55.18 10.84 117.64 12.43 194 3 187.78 11.06 207 0 6.79-31.35 6.79-31.35z" style="mix-blend-mode:multiply" fill="url(#linear-gradient-7)"/><path d="M237 180.19c-12.57-10.87-32.42-9.42-44.76-20.79-7.26 10.89-12.11 2.42-21-.6-17.49-6.17-33.71-2.3-51.14-4.47-6.66-1.82-12.65-5-18.64-8.23s-12-6.41-18.64-8.23c-23.48-1-44.54 10.18-69.95 9C9 146.36 2.2 153.38-2.4 158.71c-2.18 1.69-6 1.21-9.92.72-5.57-2.66-4.36-12.34-12.35-11.37-6 1.21-9 8.72-13.31 12.1-12.59 6.3-26.39-9.19-37.76 3.16 49.62 12.09 100 2.64 151.42 7.69q8.75.53 17.51 1c29.2 1.55 58.53 2.64 88 3.76 4.6.44 9.13 1.12 13.67 1.84 9.07 1.43 18.15 3 27.86 3.22 8.85.59 14.55.47 14.28-.64z" style="mix-blend-mode:multiply" fill="url(#linear-gradient-8)"/><path d="M-144.77 307.09c6.12.75 12.26 1.37 18.42 1.91s-6.39 34.29-.2 34.68q9.93-.23 19.84-.2a261.41 261.41 0 0137.23-.1c6.18.4 12.35 1 18.49 1.69q9.78 2.25 19.54 4.44c61.27 6.65 140.51-30.57 201.42-16.84 6.92.83 13.77 1.54 20.62 2.23s13.73 1.28 20.62 1.89c5.11-.17 10-.36 14.6-.61 13.84-.77 25.36-2.09 34-5 26.25-9 27.55-19.2 9.12-15.83-8.19 1.5-27.84 3.65-48.15 4.69-5.07.26-10.19.45-15.18.48a50.42 50.42 0 01-14.28-.92 62 62 0 01-13-4.42c-26.3-13.77-59.48-35.23-92.65-23.52-19.52 7.8-44.89-33.18-68-52.31a89.53 89.53 0 00-15-8.92 79.7 79.7 0 00-17.24-5.74 97 97 0 00-19-2.31c-25.37-.49-50.51 9.84-72.93 36.71a206.57 206.57 0 00-14.68 15.13A66.26 66.26 0 00-133 284.94a67.38 67.38 0 00-9.29 14.13 63.63 63.63 0 00-2.48 8.02z" style="mix-blend-mode:multiply" fill="url(#linear-gradient-9)"/><path d="M790.63 374q-9.46-2.72-20.52-5.3c-61-16.7-125.57-10.47-189.2-14.54-7.07-.45-14.13-1-21.17-1.78-26.77-.12-53.57-.19-80.36-.41-5.36-.05-10.72-.1-16-.17q-7.17.35-14.31.47c-49.17-2.13-99.91 3.73-149.63 4.26-6.82-.29-13.66-.76-20.59-1.19-50.69-3.25-87.25-3-138.91-.32-6 .36-35.08 5-41.07 5.37-23.96 1.32-38.87-6.39-62.5-7.69q-9.48-.27-19-.88c-44.23-2.8-88.5-10.23-132.76-11.46-19.51 0-50.74 23.42-46.83 46.84 3.9 21.47 31.22 25.37 48.23 32.39q5.76 1.95 12.16 3.86c12.78 3.81 27.42 7.48 43.71 11q9.78 2.1 20.34 4.12c31.68 9.15 64.86 9.15 95.79 14.54q6.64.8 13.44 1.57c77 8.76 168.32 14.68 266.24 16.47 276.47 5 501.3-24.83 502.06-66.67.25-11.2-17.59-21.43-49.12-30.48z" fill="url(#linear-gradient-10)" fill-rule="evenodd"/><path d="M790.63 385.69q-9.46-2.71-20.52-5.3c-61-16.7-125.57-10.47-189.2-14.54-7.07-.45-14.13-1-21.17-1.78-26.77-.12-53.57-.19-80.36-.41-5.36-.05-10.72-.1-16-.18-4.78.24-9.55.39-14.31.48-49.17-2.13-99.91 3.73-149.63 4.26-6.82-.29-13.66-.76-20.59-1.19-50.69-3.25-101.43-7.15-153.09-4.49-6 .36-12 .73-18 1.07-23.93 1.34-47.78 2.11-71.4.8q-9.48-.27-19-.88c-44.23-2.8-88.5-10.23-132.76-11.46-19.51 0-50.74 23.42-46.83 46.84 3.9 21.47 31.22 25.37 48.23 32.39q5.76 1.95 12.16 3.86c12.78 3.81 27.42 7.48 43.71 11q9.78 2.1 20.34 4.12c31.68 9.15 64.86 9.15 95.79 14.53q6.64.81 13.44 1.58c77 8.76 168.32 14.68 266.24 16.46 276.47 5 501.3-24.82 502.06-66.66.26-11.19-17.58-21.43-49.11-30.5z" fill="url(#linear-gradient-11)" fill-rule="evenodd"/><path d="M788.29 387c-6.34-1.69-13.23-3.32-20.62-4.89-61.31-15.46-125.76-7.92-189.46-10.69-7.08-.31-14.15-.75-21.2-1.36-26.77.43-53.56.9-80.35 1.22-5.36.07-10.72.13-16 .16-4.78.33-9.55.57-14.3.76-49.21-1.13-99.82 5.76-149.52 7.3-6.83-.15-13.67-.48-20.61-.77-50.74-2.22-101.55-5.09-153.15-1.38-6 .48-12 1-17.93 1.43-23.89 1.82-47.72 3.08-71.36 2.25q-9.48-.07-19-.5c-44.29-1.9-88.69-8.42-133-8.75-19.51.39-50.25 24.44-45.87 47.78 4.33 21.38 31.73 24.73 48.88 31.4q5.81 1.83 12.23 3.61c12.86 3.55 27.57 6.93 43.93 10.1q9.81 1.89 20.42 3.7c31.85 8.5 65 7.83 96.06 12.59q6.66.66 13.48 1.3c77.19 7.19 168.58 11.26 266.51 11.05 276.52-.58 500.69-35 500.61-76.85C838 405.29 820 395.44 788.29 387z" fill="url(#linear-gradient-12)" fill-rule="evenodd"/><path d="M784.75 395.84q-9.45-2.79-20.48-5.47c-60.85-17.18-125.49-11.46-189.08-16q-10.61-.76-21.16-1.95c-26.77-.33-53.56-.62-80.35-1.05-5.36-.09-10.71-.18-16-.3-4.79.19-9.56.3-14.32.36-49.15-2.52-99.94 2.93-149.66 3.06-6.82-.34-13.65-.86-20.58-1.35-50.66-3.65-101.36-8-153-5.71-6 .31-12 .63-18 .92-23.93 1.15-47.79 1.74-71.4.24-6.32-.23-12.63-.59-18.95-1-44.21-3.15-88.41-10.93-132.66-12.51-19.52-.15-50.93 23-47.21 46.46 3.73 21.5 31 25.62 48 32.78q5.74 2 12.13 3.95c12.75 3.92 27.36 7.71 43.62 11.33q9.77 2.19 20.31 4.28c31.6 9.4 64.78 9.67 95.67 15.3q6.64.86 13.43 1.68c77 9.38 168.2 16 266.1 18.59 276.42 7.24 501.48-20.82 502.58-62.66.26-11.26-17.54-21.63-48.99-30.95z" fill="url(#linear-gradient-13)" fill-rule="evenodd"/><path d="M321.64 388c-193 10.22-349.38-98.94-402.88-95.45-128.94 8.41 8.55 127.73 8.55 157.31 0 41.86 181.06 75.8 404.32 75.8S736 491.73 736 449.87 544.59 376.21 321.64 388z" fill="url(#linear-gradient-14)" fill-rule="evenodd"/><path d="M-47.2 456.84l-14.8-4.25s80.28-28.47 127.11-168.47l3.17.11S21.85 431.34-47.2 456.84z" fill="url(#linear-gradient-15)" fill-rule="evenodd"/><path d="M-19.61 424.2a251.69 251.69 0 0035.85-40.87c-3.38 10-7.1 19.84-11.18 29.25-13.39 17.84-28.56 32.88-45.14 41.15a299.1 299.1 0 0020.47-29.53z" fill="url(#linear-gradient-16)" fill-rule="evenodd"/><path d="M-52.1 486.88h-23.64S30.76 410.65 40.41 183.8l4.74-1.19S39.11 419.8-52.1 486.88z" fill="url(#linear-gradient-17)" fill-rule="evenodd"/><path d="M43.68 136.91s-7-44.15-42.95-47.77-55.5 34.26-55.5 34.26 34-35.47 75-1c0 0-43.43-18.1-61 10.61s.48 55.74.48 55.74-4.1-35.71 18.34-41.74a132.36 132.36 0 0140.53-4.59s-35 2.18-35.47 26.55 20.51 33.58 20.51 33.58-13.27-14.72-6.51-31.37 36.43-24.61 36.43-24.61-23.88 7-20.75 28.47S20 200.86 20 200.86s3.62-40.11 18.69-49.16L38 189.56l12.54-2.19v-41.21s7.59 1.08 14.83 18.69 1.69 27.85 1.69 27.85S79 178.47 74.29 164s-19.41-18.57-19.41-18.57 20.38-4.58 37.26 10.13 15.43 37.5 15.43 37.5 16.94-25.5 1.74-45.05-39.09-11.34-39.09-11.34 17.37-15.2 46.57-5.79 26.78 29.44 26.78 29.44S160 120 119 112.3s-63.5 19.06-63.5 19.06 3.86-28 31.37-31.12 35.71 1.2 35.71 1.2-18.1-15-46.09-10.61-31.85 30.4-31.85 30.4-4.1-17.61 6.76-31.61c0 0-18.36 1.56-14.72 18.34s7 28.95 7 28.95z" fill="#e9733f" fill-rule="evenodd"/><path class="cls-26" d="M534.18 525.96l-55.23-112.08-3.47-.79 8 18.53h-68.52l8.22-18.53-3.47.79-55.23 112.08h9.65l3.38-7.78-6.88 17.33 160.58-3.04-2.88-6.51h5.85zm-179.86-7.22l29.81-75.67 9.8-1.03-29.96 76.7h-9.65zm190.02 0l-29.82-75.67-9.79-1.03 29.96 76.7h9.65z"/><path class="cls-27" d="M449.33 292.56h-62.54l32.36 110.08h60.36l32.36-110.08zm-74.27-8.9l9 .31 1.2 3.92h128.11l1.2-3.92 9-.31L479 413.88h-2.8l2.66-9.05H419.8l2.66 9.05h-2.75z"/><path class="cls-28" d="M421 404.83l2.18 8.26-.72.79-2.66-9.05zm-29.62-112.27l28.71 108.82-.94 1.26-32.36-110.08zm-3-11.37l1.35 5.13-4.42 1.57-1.2-3.92z"/><path class="cls-29" d="M449.33 286.32h-59.62l-4.42 1.57h128.08l-4.43-1.57h-59.61z"/><path class="cls-27" d="M407.46 378.14l-23.33 64.93h5.94s16.6-44.37 20.54-55.74z"/><path class="cls-28" d="M504.64 432.37l-16.59-45.04-1.33 3.89 13.15 37.1 4.64 3.94.13.11z"/><path class="cls-27" d="M396.2 435.62h106.25l2.06-3.36H394.15l2.05 3.36z"/><path class="cls-28" d="M410.61 387.33l-16.59 45.04.13-.11 4.64-3.94 13.15-37.1-1.33-3.89z"/><path class="cls-28" d="M394.02 432.37l-3.95 10.7 3.86-1.03 2.27-6.42-2.05-3.36-.13.11z"/><path class="cls-30" d="M449.33 428.21h-50.41l-4.77 4.05h110.36l-4.77-4.05h-50.41zm0-26.84H420.1l-.95 1.27h60.36l-.95-1.27h-29.23z"/><path class="cls-29" d="M523.6 283.65l-4.36-2.46h-8.97l4.3 2.78 9.03-.32zm-148.54 0l4.36-2.46h8.97l-4.3 2.78-9.03-.32z"/><path class="cls-28" d="M477.65 404.83l-2.17 8.26.72.79 2.66-9.05zm29.62-112.27l-28.7 108.82.94 1.26 32.36-110.08zm3-11.37l-1.35 5.13 4.43 1.57 1.2-3.92z"/><path class="cls-27" d="M491.2 378.14l23.32 64.93h-5.94S492 398.7 488.05 387.33z"/><path class="cls-28" d="M504.64 432.37l3.94 10.7-3.85-1.03-2.28-6.42 2.06-3.36.13.11z"/><path d="M449.33 292.56h-52.14s.37 67.32 13.93 96.27c3.52 7.5 20 9.4 38.21 9.4s34.69-1.9 38.21-9.4c13.56-28.95 13.93-96.27 13.93-96.27z" fill="url(#linear-gradient-18)" fill-rule="evenodd"/><path d="M449.33 292.56h-9.17c0 33.17.36 84.2 3.17 105.59 2 .06 4 .08 6 .08s4 0 6-.08c2.81-21.39 3.17-72.42 3.17-105.59z" fill="url(#linear-gradient-19)" fill-rule="evenodd"/><path d="M420.89 292.56h-12.33c0 33.49 9.31 82.8 14.07 103.31a68.14 68.14 0 008.42 1.47c-3.3-27.91-10.16-69.34-10.16-104.78z" fill="url(#linear-gradient-20)" fill-rule="evenodd"/><path d="M477.77 292.56h12.33c0 33.49-9.31 82.8-14.07 103.31a68.14 68.14 0 01-8.42 1.47c3.3-27.91 10.16-69.34 10.16-104.78z" fill="url(#linear-gradient-21)" fill-rule="evenodd"/><path class="cls-26" d="M357.86 525.96l-55.23-112.08-3.48-.79 8.01 18.53h-68.52l8.22-18.53-3.47.79-55.23 112.08h9.65l3.38-7.78-6.88 17.33 160.58-3.04-2.88-6.51h5.85zM178 518.74l29.81-75.67 9.8-1.03-29.96 76.7H178zm190.02 0l-29.82-75.67-9.79-1.03 29.96 76.7h9.65z"/><path class="cls-27" d="M273 292.56h-62.53l32.36 110.08h60.36l32.36-110.08zm-74.27-8.9l9 .31 1.2 3.92h128.12l1.2-3.92 9-.31-44.62 130.22h-2.75l2.66-9.05h-59.06l2.66 9.05h-2.75z"/><path class="cls-28" d="M244.68 404.83l2.18 8.26-.72.79-2.66-9.05zm-29.62-112.27l28.71 108.82-.94 1.26-32.36-110.08zm-3-11.37l1.35 5.13-4.41 1.57-1.2-3.92z"/><path class="cls-29" d="M273.01 286.32h-59.62l-4.42 1.57h128.08l-4.43-1.57h-59.61z"/><path class="cls-27" d="M231.13 378.14l-23.32 64.93h5.94s16.6-44.37 20.54-55.74z"/><path class="cls-28" d="M328.32 432.37l-16.59-45.04-1.33 3.89 13.14 37.1 4.65 3.94.13.11z"/><path class="cls-27" d="M219.88 435.62h106.25l2.06-3.36H217.83l2.05 3.36z"/><path class="cls-28" d="M234.29 387.33l-16.59 45.04.13-.11 4.64-3.94 13.15-37.1-1.33-3.89zm-16.59 45.04l-3.95 10.7 3.86-1.03 2.27-6.42-2.05-3.36-.13.11z"/><path class="cls-30" d="M273.01 428.21h-50.42l-4.76 4.05h110.36l-4.77-4.05h-50.41zm0-26.84h-29.23l-.95 1.27h60.36l-.95-1.27h-29.23z"/><path class="cls-29" d="M347.28 283.65l-4.36-2.46h-8.97l4.3 2.78 9.03-.32zm-148.54 0l4.36-2.46h8.96l-4.29 2.78-9.03-.32z"/><path class="cls-28" d="M301.33 404.83l-2.18 8.26.73.79 2.66-9.05zM331 292.56l-28.76 108.82.95 1.26 32.36-110.08zm3-11.37l-1.35 5.13 4.43 1.57 1.2-3.92z"/><path class="cls-27" d="M314.88 378.14l23.32 64.93h-5.94s-16.59-44.37-20.53-55.74z"/><path class="cls-28" d="M328.32 432.37l3.94 10.7-3.85-1.03-2.28-6.42 2.06-3.36.13.11z"/><path d="M273 292.56h-52.13s.37 67.32 13.93 96.27c3.51 7.5 20 9.4 38.21 9.4s34.69-1.9 38.21-9.4c13.56-28.95 13.93-96.27 13.93-96.27z" fill="url(#linear-gradient-22)" fill-rule="evenodd"/><path d="M273 292.56h-9.18c0 33.17.37 84.2 3.18 105.59 2 .06 4 .08 6 .08s4 0 6-.08c2.81-21.39 3.17-72.42 3.17-105.59z" fill="url(#linear-gradient-23)" fill-rule="evenodd"/><path d="M244.57 292.56h-12.33c0 33.49 9.31 82.8 14.07 103.31a68.14 68.14 0 008.42 1.47c-3.3-27.91-10.16-69.34-10.16-104.78z" fill="url(#linear-gradient-24)" fill-rule="evenodd"/><path d="M301.45 292.56h12.33c0 33.49-9.31 82.8-14.07 103.31a68.47 68.47 0 01-8.42 1.47c3.3-27.91 10.16-69.34 10.16-104.78z" fill="url(#linear-gradient-25)" fill-rule="evenodd"/><path d="M75.59 255.42s3.57-28.85-18.25-37.58-40.83 11.43-40.83 11.43 27.63-16 47.06 12.89c0 0-23.89-19.12-40.06-4.35s-9.72 34.92-9.72 34.92 3.86-23.05 19-22.79a86 86 0 0126.15 4.43s-22.28-4.94-26.94 10.2 6.78 24.65 6.78 24.65-5.64-11.58 1.58-20.77 27.19-8.83 27.19-8.83-16.19.08-18.09 14.06-.12 17.43-.12 17.43 9.48-24.4 20.52-27.34l-7.26 23.52 8.23.89 7.41-25.75s4.55 2 5.9 14.34-4 17.71-4 17.71 10-6.75 9.68-16.63-8.79-15.09-8.79-15.09 13.56.8 21.46 13S105.4 302 105.4 302s15.18-12.89 9.19-27.83S92.21 260 92.21 260s13.59-6.37 30.14 4.76S133.79 288 133.79 288s17.5-22.23-6.74-34.43-43.08.5-43.08.5 7.45-16.8 25.2-13.81 22.09 7.18 22.09 7.18-8.61-12.6-26.88-14.92S79 245.79 79 245.79s.6-11.74 9.91-18.53c0 0-11.75-2.33-12.5 8.81s-.82 19.35-.82 19.35z" fill="url(#linear-gradient-26)" fill-rule="evenodd"/><path d="M293.45 480.09l6.06-2.01-88.56-291.57-7.54 2.88 90.04 290.7zm-97.98-322.32l-2.79-1.5-.26-2a3.68 3.68 0 016.72-2.51l1.09 1.63z" fill="#854023" fill-rule="evenodd"/><path d="M31.84 287.25l160.84-131 1.09-.41 6.46-2.46 193 2.84s-9.67 6.64-27.85 17l-.13.07-1.62.93-1.91 1.08-1.42.8-2 1.12-1.72 1-2 1.08-1.91 1-1.91 1-2.1 1.14-1.93 1-2.5 1.33-1.38.73-3.23 1.7-1.18.61-3.44 1.94-.85.44-3.79 1.92-1 .53q-6.82 3.45-14.32 7.07-2.74 1.32-5.58 2.66l-.49.24-4.47 2.1-1.36.63-3 1.37-2.84 1.3-.26.13-2.76 1.25-.35.16-2.7 1.21-.45.2-2.54 1.13-.73.33-2.34 1-1 .43-2.18 1-1.19.52-2 .86-1.39.6-1.88.81-1.6.68-1.73.73A1017.66 1017.66 0 0157.05 283l-1.27.23-2.57.45-2.45.43-1.54.27-3.41.58-.75.13-4 .65-.43.07-4.27.69h-.07z" fill="url(#linear-gradient-27)" fill-rule="evenodd"/><path d="M200.23 153.4l193 2.84s-9.67 6.64-27.85 17l-.13.07-1.62.93-1.91 1.08-1.42.8-2 1.12-1.72 1-2 1.08-1.91 1-1.91 1-2.1 1.14-1.93 1-2.5 1.33-1.38.73-3.23 1.7-1.18.61-3.44 1.92-.85.44-3.79 1.92-1 .53q-6.82 3.45-14.32 7.07-2.74 1.32-5.58 2.66l-.49.24-4.47 2.1-1.36.63-3 1.37-2.84 1.3-.26.13-2.76 1.25-.35.16-2.7 1.21-.45.2-2.54 1.13-.73.33-2.34 1-1 .43-2.18 1-1.19.52-2 .86-1.39.6h-.05z" fill="url(#linear-gradient-28)" fill-rule="evenodd"/><path d="M31.84 287.25l160.84-131L166.36 257a1016.82 1016.82 0 01-109.31 26l-1.27.23-2.57.45-2.45.43-1.54.27-3.41.58-.75.13-4 .65-.43.07-4.27.69h-.07z" fill="url(#linear-gradient-29)" fill-rule="evenodd"/><path d="M31.84 287.25c.66 9.51 3.75 16.05 12.18 15.47A358.92 358.92 0 0088.59 297c34.45-6.58 70.85-14.71 72.36-20.38s-2.11-12.26 5.06-14.58 7.36 10.65 13.3 10.47c17.45-.52 89.93-25.73 97.9-36.43 1.85-2.49-5.74-10.18 2.41-14.19s8.91 8.16 17.54 7.12c12.76-1.54 65.71-29.37 86.19-43.32s16.44-20.36 9.9-29.48c0 0-9.67 6.64-27.85 17l-.13.07-1.62.93-1.91 1.08-1.42.8-2 1.12-1.72 1-2 1.08-1.91 1-1.91 1-2.1 1.14-1.93 1-2.5 1.33-1.38.73-3.23 1.7-1.18.61-3.46 1.95-.85.44-3.79 1.92-1 .53q-6.82 3.45-14.32 7.07-2.74 1.32-5.58 2.66l-.49.24-4.47 2.1-1.36.63-3 1.37-2.84 1.3-.26.13-2.76 1.25-.35.16-2.7 1.21-.45.2-2.54 1.13-.73.33-2.34 1-1 .43-2.18 1-1.19.52-2 .86-1.39.6-1.88.81-1.6.68-1.73.73A1017.66 1017.66 0 0157.05 283l-1.27.23-2.57.45-2.45.43-1.54.27-3.41.58-.75.13-4 .65-.43.07-4.27.69h-.07z" fill="url(#linear-gradient-30)" fill-rule="evenodd"/><ellipse class="cls-45" cx="599.55" cy="370.62" rx="4.26" ry="1.3"/><ellipse class="cls-45" cx="367.04" cy="365.42" rx="3.28" ry=".89"/><path d="M372.62 369.16c0 .48-1.25.86-2.79.86s-2.79-.38-2.79-.86 1.25-.87 2.79-.87 2.79.39 2.79.87zm6.1-3.74c0 .48-1.25.87-2.79.87s-2.79-.39-2.79-.87 1.25-.86 2.79-.86 2.79.44 2.79.86zm6.63.04c0 .46-.85.83-1.89.83s-1.89-.37-1.89-.83.85-.83 1.89-.83 1.89.37 1.89.83zm267.44 21c0 .48-1.25.87-2.8.87s-2.79-.39-2.79-.87 1.25-.86 2.79-.86 2.8.4 2.8.86zm-259.92-9.19c0 .48-1.25.87-2.8.87s-2.79-.39-2.79-.87 1.25-.86 2.79-.86 2.8.38 2.8.86zM186 367.18c0 .48-1.25.86-2.79.86s-2.79-.38-2.79-.86 1.25-.87 2.79-.87 2.79.39 2.79.87zm4.5.82c0 .3-.9.54-2 .54s-2-.24-2-.54.89-.54 2-.54 2 .28 2 .54zm7.19-.5c0 .3-.89.54-2 .54s-2-.24-2-.54.9-.54 2-.54 2 .25 2 .54zm447.76 18.1c0 .48-1.25.86-2.79.86s-2.79-.38-2.79-.86 1.25-.87 2.79-.87 2.79.39 2.79.87zm-7.71 1.73c0 .46-.84.83-1.89.83s-1.89-.37-1.89-.83.85-.83 1.89-.83 1.89.37 1.89.83zm-47.25-16.47c0 .47-1.25.85-2.8.85s-2.79-.38-2.79-.85 1.25-.84 2.79-.84 2.8.38 2.8.84zm7.59 3.41c0 .47-1.25.85-2.79.85s-2.79-.38-2.79-.85 1.25-.85 2.79-.85 2.79.38 2.79.85z" fill="#fff" fill-rule="evenodd"/></g></g></g></svg>