<?xml version="1.0" encoding="utf-8"?>
<!-- Generator: Adobe Illustrator 23.1.0, SVG Export Plug-In . SVG Version: 6.00 Build 0)  -->
<svg version="1.1" id="Calque_1" xmlns="http://www.w3.org/2000/svg" xmlns:xlink="http://www.w3.org/1999/xlink" x="0px" y="0px"
	 viewBox="0 0 750 500" style="enable-background:new 0 0 750 500;" xml:space="preserve">
<style type="text/css">
	.st0{fill:url(#SVGID_1_);}
	.st1{clip-path:url(#SVGID_3_);}
	.st2{opacity:0.5;}
	.st3{fill:url(#SVGID_4_);}
	.st4{fill:url(#SVGID_5_);}
	.st5{fill:url(#SVGID_6_);}
	.st6{fill:url(#SVGID_7_);}
	.st7{fill:url(#SVGID_8_);}
	.st8{fill:url(#SVGID_9_);}
	.st9{fill:url(#SVGID_10_);}
	.st10{fill:url(#SVGID_11_);}
	.st11{fill:url(#SVGID_12_);}
	.st12{fill:url(#SVGID_13_);}
	.st13{fill:url(#SVGID_14_);}
	.st14{fill:url(#SVGID_15_);}
	.st15{fill:url(#SVGID_16_);}
	.st16{fill:url(#SVGID_17_);}
	.st17{fill:url(#SVGID_18_);}
	.st18{fill:url(#SVGID_19_);}
	.st19{fill:url(#SVGID_20_);}
	.st20{fill:url(#SVGID_21_);}
	.st21{fill:url(#SVGID_22_);}
	.st22{fill:url(#SVGID_23_);}
	.st23{fill:url(#SVGID_24_);}
	.st24{fill:url(#SVGID_25_);}
	.st25{fill:url(#SVGID_26_);}
	.st26{fill:url(#SVGID_27_);}
	.st27{fill:url(#SVGID_28_);}
	.st28{fill:url(#SVGID_29_);}
	.st29{fill:url(#SVGID_30_);}
	.st30{fill:url(#SVGID_31_);}
	.st31{fill:url(#SVGID_32_);}
	.st32{fill:url(#SVGID_33_);}
	.st33{fill:url(#SVGID_34_);}
	.st34{fill:url(#SVGID_35_);}
	.st35{fill:url(#SVGID_36_);}
	.st36{fill:url(#SVGID_37_);}
	.st37{fill:url(#SVGID_38_);}
	.st38{fill:url(#SVGID_39_);}
	.st39{fill:url(#SVGID_40_);}
	.st40{fill:url(#SVGID_41_);}
	.st41{fill:url(#SVGID_42_);}
	.st42{clip-path:url(#SVGID_44_);}
	.st43{fill:url(#SVGID_45_);}
	.st44{opacity:0.4;fill:url(#SVGID_46_);enable-background:new    ;}
	.st45{opacity:0.5;fill:url(#SVGID_47_);enable-background:new    ;}
	.st46{fill:url(#SVGID_48_);}
	.st47{fill:url(#SVGID_49_);}
	.st48{opacity:0.5;fill:url(#SVGID_50_);enable-background:new    ;}
	.st49{opacity:0.5;fill:url(#SVGID_51_);enable-background:new    ;}
	.st50{opacity:0.5;fill:url(#SVGID_52_);enable-background:new    ;}
	.st51{opacity:0.5;fill:url(#SVGID_53_);enable-background:new    ;}
	.st52{opacity:0.4;fill:url(#SVGID_54_);enable-background:new    ;}
	.st53{fill:url(#SVGID_55_);}
	.st54{opacity:0.6;fill:url(#SVGID_56_);enable-background:new    ;}
	.st55{fill:url(#SVGID_57_);}
	.st56{opacity:0.4;fill:url(#SVGID_58_);enable-background:new    ;}
	.st57{opacity:0.2;fill:url(#SVGID_59_);enable-background:new    ;}
	.st58{fill:url(#SVGID_60_);}
	.st59{opacity:0.5;fill:url(#SVGID_61_);enable-background:new    ;}
	.st60{opacity:0.4;fill:url(#SVGID_62_);enable-background:new    ;}
	.st61{fill:url(#SVGID_63_);}
	.st62{opacity:0.5;fill:url(#SVGID_64_);enable-background:new    ;}
	.st63{display:none;}
	.st64{display:inline;}
	.st65{clip-path:url(#SVGID_66_);}
	.st66{opacity:0.25;fill:url(#SVGID_67_);enable-background:new    ;}
	.st67{fill:url(#SVGID_68_);}
	.st68{fill:url(#SVGID_69_);}
	.st69{opacity:0.2;fill:url(#SVGID_70_);enable-background:new    ;}
	.st70{fill:none;}
	.st71{opacity:0.15;fill:url(#SVGID_71_);enable-background:new    ;}
	.st72{opacity:0.5;fill:url(#SVGID_72_);enable-background:new    ;}
	.st73{fill:url(#SVGID_73_);}
	.st74{opacity:3.000000e-02;fill:none;stroke:#FFFFFF;stroke-width:2.99;stroke-miterlimit:10;enable-background:new    ;}
	.st75{opacity:0.5;fill:url(#SVGID_74_);enable-background:new    ;}
	.st76{fill:url(#SVGID_75_);}
	.st77{fill:url(#SVGID_76_);}
	.st78{fill:url(#SVGID_77_);}
	.st79{fill:url(#SVGID_78_);}
	.st80{fill:url(#SVGID_79_);}
	.st81{fill:url(#SVGID_80_);}
	.st82{fill:url(#SVGID_81_);}
	.st83{fill:url(#SVGID_82_);}
</style>
<title>Mesa de trabajo 1</title>
<g>
	<g id="OBJECTS">
		
			<linearGradient id="SVGID_1_" gradientUnits="userSpaceOnUse" x1="375" y1="219.49" x2="375" y2="515.93" gradientTransform="matrix(1 0 0 -1 0 502)">
			<stop  offset="0" style="stop-color:#E6DFCC"/>
			<stop  offset="0.53" style="stop-color:#E5D9C3"/>
			<stop  offset="1" style="stop-color:#CCBDA6"/>
		</linearGradient>
		<rect class="st0" width="750" height="500"/>
		<g>
			<defs>
				<rect id="SVGID_2_" width="750" height="500"/>
			</defs>
			<clipPath id="SVGID_3_">
				<use xlink:href="#SVGID_2_"  style="overflow:visible;"/>
			</clipPath>
			<g class="st1">
				<g class="st2">
					
						<linearGradient id="SVGID_4_" gradientUnits="userSpaceOnUse" x1="503.11" y1="248.35" x2="503.11" y2="342.3" gradientTransform="matrix(1 0 0 -1 0 502)">
						<stop  offset="0" style="stop-color:#E6DFCC"/>
						<stop  offset="0.53" style="stop-color:#E5D9C3"/>
						<stop  offset="1" style="stop-color:#CCBDA6"/>
					</linearGradient>
					<path class="st3" d="M506.6,210.4l3.3-0.9l-4-2.8c3.5,0.1,5.8,0.1,8.2,0.1c0.6,0,1.2-0.1,1.7-0.2c-0.2-0.3-0.5-0.5-0.8-0.6
						c-0.4-0.1-0.8-0.1-1.3-0.1l-16.2-1.5L497,203l-4.7,0.8c-0.1-1.6,7.4-4.2,15.3-5.1l-2.2,1.7l5.7-0.4l12.1,5.7
						c1-1.3,2-2.7,2.8-4.1c0.2-0.4-0.7-1.2-1.7-1.3c-6.5-0.9-6.5-0.9-2-3.3l2.5,1.2c3.3-1.1,5.2-4,3.5-5c-3.6-2.2-4.7-2.4-11.7-1.5
						l2.6,1.1c-2.6,0.4-2.6,0.4-6.2-1.2c2-0.7,4.1-1.3,6.2-1.8c2.4-0.5,5.2-0.6,7.8-1c3.5-0.5,7.1-1,10.5-1.6c2.7-0.5,5-1.2,7.6-1.8
						c0.6-0.1,1.2-0.2,1.8-0.2c5,1.9,9.8-0.7,14.7-0.6c1.8,0,3.8-0.2,5.6-0.1c0.7,0.1,1.3,0.5,1.7,1c0.2,0.2-0.5,0.6-0.2,0.7
						c0.9,0.2,1.8,0.3,2.7,0.4c1.1-1.3,7.1,1.2,6.4-1.7l6.1,1.8l2.8-1.6l2.1,2.2l4.2-0.3c-1.6,2.1-2.3,2.2-6.4,1
						c-1.9-0.5-4.1,0.2-4.8,1.3c1.2,0.3,2.1,0.6,3.2,0.8c1.2,0.2,2.4,0.3,3.6,0.3c2.7,0,5.4-0.1,8,0s4.3,0.1,5.4-1.1
						c1.4-1.5,6-1.8,9.5-1.9c2.1,0.1,4.2,0.5,6.2,1.2c0.7,0.2,0.3,0.8-0.6,1.4l5.5,2.1c-0.1-0.8-0.4-1.1-0.1-1.4
						c0.7-0.9,1.4-2.1,5-1.9c6.7,0.5,13.4,0.2,20-1c1.3-2.6,0.5-3-5.8-3.9c-0.6-1.1-1.3-2.1-2.1-3c-1.7-1.6-1.5-1.7,3.6-2
						c1.4-0.2,2.8-0.4,4.1-0.7c-0.6-0.5-1.2-0.9-1.8-1.4c-0.4-0.1-0.7-0.2-1.1-0.3l-3.9-0.9c7.8-2.1,15.2-4.3,23.3-6.1
						c3.5-0.8,8.4-0.4,12.7-0.7c2-0.1,3.9-0.3,5.9-0.4c0.4,0,1-0.4,1.3-0.3c5.1,0.6,10.3,1.1,15,1.9c0.9,0.2-0.2,1.5-0.2,1.9
						l10.7,2.6c2.7-2.2,8.4-3.3,14.7-4.4c5.8-1,9.8-4.8,9-7.7c3.5-0.8,7.1-1.6,10.7-2.4c4.2-1,8.4-0.2,9,0.6c1.8,2,6.7,2.2,10.7,3
						c3.6,0.7,6.8,1.6,10.3,2.5l-12.6,1.9c2.3,1.2,4.7,2.2,7.2,3c1.8,0.5,4.9,0.6,7.3,0.9c4.9,0.6,5.1,2.5,6.8,4
						c2.4,2,7,2.5,13.2,1.5c1.1,1,3.4,0.9,6.7,0.9c4.3-0.1,8.2,0.6,12.1,1.1c0.1,0-0.5,0.5-0.7,0.8c7.9-1.3,13.9-0.8,18.7,0.9
						l-12,17.5c-6.4-1.1-14.3-0.4-21.4,0.2c-6.2,0.5-12.4,2.1-18.3,3.1l3,0.2c-2.1,2.3-1.4,2.5,7.1,2.5c-0.9,0.5-1.5,1.2-2.4,1.3
						c-3.6,0.5-7.3,0.8-11.1,1.1c1,1.6-0.7,2.8-6,3.4c-4.7,0.6-7,1.5-7.3,2.9c-5,0.6-6,0.9-4.4,1.5c3.4,1.3,2.8,1.7-2.7,2.5
						c-1.2,0.1-2.3,0.5-3.4,1c-2.8,2.5-9.5,3.7-15.3,4.3c-5.2,0.6-6.5,1.8-9.4,2.8c-1.7,0.5-3.3,1.3-4.9,2.2
						c-2.2,1.4-4.9,0.5-7.3,0.7c-0.7,0.1-1.5,0.1-2.2,0.2c-0.2,1.5-0.8,1.5-4.8,2.1c-2.1,0.4-4.2,0.9-6.2,1.7c-1,0.4-2,0.8-2.9,1.3
						l-1.9-1.1c-1,0.6-2.1,1.2-3.2,1.7c-4.7,1.8-4,2.9,2.3,3.2c-0.2,0.4-0.8,0.8-0.5,1.1c1.5,1.5,11,2,15.5,0.8
						c3.3-1.1,6.9-1.1,10.2,0l-7,0.4c0.8,0.3,1.5,0.5,2.3,0.6c2.7,0.2,5.5,0.2,8.2,0.4c0.7,0.1,1.5,0.3,2.2,0.6
						c-0.8,0.3-1.6,0.5-2.4,0.6c-4.6,0.5-9.3,1.1-13.9,1.4c-2.3,0.1-4.6,0-6.9-0.2l0.3-0.3l-16.9,3.1v0.6l17.7,0.9
						c-0.4,1.6,2.8,2.5,6.5,3.3c2.9,0.6,5.9,1.2,4.5,2.8h-76.9c1-1.4,4.4-1.6,6.3-1.7l9.8-3.1c-2.7,0-5.5-0.1-8.4,0s-6,0.4-8.9,0.6
						c-1,0.6-2.2,1-3.4,1.1c-1.6,0.2-3.3,0.2-4.9,0c-2.3-0.3-4.1-1.1-6.5-1.3c-7.4-0.5-14.9-0.4-22.3,0.3c-2.7,0.3-5.2,0.8-7.7,1.2
						c-0.2,0.4-0.4,0.8-0.5,0.9c-3,0-5.5,0-8,0c-5.9,0.1-5.9,0.1-6.8,2h-25.1c1.3-0.5,2.6-0.8,4-1c6.5-0.1,13,0,19.9,0
						c-0.4-0.2-0.8-0.7-1.5-0.7c-5.2-0.2-10.5-0.5-15.7-0.3c-2,0.2-4,0-5.9-0.7c3.3-0.4,6.6-0.6,9.9-0.6c7.2,0.1,14.3,0.3,21.4,0.5
						c0.1,0,0.3-0.1,0.5-0.2c-4.5-1.2-4.7-2.6-0.6-4c5-1.8,5.3-3.2,0.9-4.9c-0.6-0.2-1.4-0.4-2.2-0.7l4.3-2
						c-1.4-0.1-2.8-0.2-4.2-0.2c-2.7,0.2-5.4,0.6-8.1,0.9l-0.6-0.4l-1.6,0.9c-3.6-1-12.4-0.8-15.6,0.5c-3.7,1.4-8.1,1.8-12.9,1.8
						c-2.1-0.1-4.3-0.4-6.4-0.9l3.1-1.7c0.1-0.1,0.1-0.2,0.1-0.2c-4.3,0.3-8.7,0.8-13,1c-6.6,0.3-13.2,0.4-19.5,1.4
						c-1.5,0.2-3.1,0.2-4.6,0c-5.2-0.6-9.9-1.8-16.2-1.3c-0.4,0-0.8,0-1.1-0.1c-1.7-0.9-5.9-1.2-3.9-2.8c0.8-0.7-0.2-1.6-0.5-2.4
						l-1.1,0.5l-10.7-1.1c-1.4-0.3-2.9-0.4-4.4-0.5c-4.1,0.5-8,1.3-12,1.9c-5.9,0.9-11.8,1.8-17.7,2.7c-0.9,0.1-1.9,0.2-2.7,0.4
						c-3.7,0.7-7.6,0.8-11.3,0.2c-1.1-0.2-2.3-0.2-3.4,0c-0.9,0.3-1.8,0.9-2.4,1.7c1,0.3,2,0.4,3,0.6c0.6,0.1,1.3,0.1,2.2,0.2
						c1.1-1.4,3.8-1.2,6.8-0.7c2,0.3,4,0.6,5.9,1.1c4.2,1.3,9,1.1,13.7,0.4c3.7-0.5,4.6,0,5.3,0.9c0.3,0.3,0.6,0.6,1,0.9
						c5.5-1.4,5.5-1.4,7.7,0.8c0.7,0.5,1.5,0.7,2.4,0.8c5-0.6,4.1,0.7,4.9,1.5c0.5,0.4,1.1,0.7,1.7,1c0.6-0.3,1.3-0.6,1.8-1
						c0.1-0.1,0.3-0.2,0.4-0.3l11.1-0.7c1.4-0.1,2.8-0.1,4.2-0.2c5.5-0.3,11.3-0.3,16.4-0.9c2.3-0.4,4.6-0.3,6.9,0.2
						c2.8,0.7,5.7,1.1,8.7,1.3c10,0.1,16.9,2.1,25.5,3.1c0.2,0,0.1,0.2,0.2,0.5c-1.9,0-3.6,0-5.3,0c-4.2,0.1-8.6-0.6-12.6,1
						c-1.3,0.5-5.4,0.4-8.2,0.4s-5.6-0.1-8.5-0.2c-1.8,0.1-3.6,0-5.5-0.1c-3.9-0.5-7.8-0.5-11.6,0.3c-3.1,0.5-5.5,0.9-8.7,0.2
						c-1.3-0.1-2.7,0-4,0.1l0.4,1.2H194c-1.5-1.2-2.5-2.5-4.7-3.5s-5.6-1.7-8.5-2.5c-0.9-0.2-2.2-0.3-3.2-0.6
						c-1.1-0.3-2.1-0.7-3.1-1c1-0.3,2.1-0.5,3.1-0.8c0.8-0.2,1.7-0.5,2.5-0.8c1.3-0.7,2.8-0.7,4.1-0.1c2,0.7,4.2,1.3,5.9,1.8
						c5.7-2.1,11.8-2.9,19.9-2c-0.1-0.5-0.2-0.9-0.3-1.3l4.7-0.1c-0.7-2-2.9-4.2,4.6-4.7l11.2,0.5c1.1-0.8,1.1-0.8-4.5-1.7
						c-2.7-0.4-5.6-0.7-9.9-1.3c3.2-0.4,5.3-0.8,7.6-0.9s5,0,7.5-0.1c5.4-0.1,5.7-0.3,3.4-1.9c8.5-0.6,12.1,0.1,12.1,2.2
						c3.1-0.5,6-1.2,9,0.4c1.7,0.9,9.1-0.2,9.6-1.3c0.1-0.2,0.6-0.3,0.9-0.5c4.3,1.4,5.5,1.5,7.1,0.6c-1.1-1.2-2.3-2-2.6-2.9
						c-0.2-0.6,5.7-1.6,8-1.5c3,0.2,4.9,1.1,4.6,2.1l1.1,0.3c0.9-0.4,1.8-0.8,2.6-1.4c1.7-1.6,8-2.3,12.4-1.4
						c3.4,0.7,7.2,1.1,11.3,1.7c0.7,1,6,2.2,12,2.4l-4.7-1.9c-2.9-1.2-5.9-2.4-8.7-3.6c-0.6-0.2-1.1-0.8-0.7-1
						c2.5-1.6-0.8-2.5-3.5-3.5c-0.4-0.1-0.8-0.3-1.3-0.6l7.9-3l-2.6-3.8c4.5-1.2,3.8,1.6,6.5,1.2c0.1,1.4,0.2,2.8,0.3,3.8l7.9,1.3
						c0.8,0.1,1.6,0.3,2.4,0.4c5.7,1.1,8.5,0.6,10.1-1.5c0.2-0.4,0.4-0.7,0.5-1.1c-2.3-0.3-4.4-0.6-6.4-1c-0.7-0.1-1.3-0.4-1.7-1
						c-0.2-1-0.3-2.1-0.3-3.1c1.5-0.1,4.4-0.2,7-0.5c1.4-0.3,2.9-0.7,4.2-1.2l-9.2-0.5c0.4-1.4-1.1-2.2-5.4-2.2c-1-0.2-2-0.5-3-0.9
						c-5.5,0.6-5.6,1.1,0.1,4.5l-5.8,1.4c-0.2,0-0.3,0-0.5-0.1c1.9-2.3-2.9-4.2-4.1-6.3c-0.2-0.4,0-0.9-0.1-1.3
						c-0.3-0.8-0.6-1.6-1-2.3c0.6-0.1,1.3-0.2,1.9-0.3c1.1-0.3,3-0.8,2.8-1c-1-0.7-2.2-1.2-3.5-1.3c-3.2-0.2-6.5,0.1-9.7-0.1
						c-1.9-0.1-3.7-0.4-6.4-0.8c-2.8,0.8-6.6,1.2-12.2,1.1s-9.5-1-14.3-1.5c-2.9-0.3-6.4,0.3-9.5,0.6c-5.4,0.5-10.8,1-16.3,1.6
						c-0.9-1.7,1.6-3,6-3.3c8.4-0.6,9.4-1.6,5.2-4.4c-0.5-0.3-0.8-0.8-0.7-1.1c0.4-1,0.3-2.3,2-3c2.6-0.8,5.3-1.2,8.1-1.1
						c4.3,0.1,8.2,0.4,9.8-1.5c1.1-0.1,2.1-0.1,3.2,0c6.6,1.2,10.9,1,16.1-0.7c0.8-0.3,1.6-0.5,2.5-0.5c5,0.3,10,0.8,15.8,1.2
						l-5.2,0.6c6.8,1.5,15.1,2.2,13.9,5.6c3.4,0.7,5.7-2.4,9.3-0.1l-7.2,1.3c5.2,0.9,8.7,3.1,8.2,5l-6.5-0.1l-0.9,0.5
						c1.9,0.7,3.6,1.5,5.7,2.1c5.7,1.9,11.8,2.4,17.7,1.4c0.6-0.1,1.1-0.2,1.7-0.2c1.3,0.1,2.5,0.2,3.8,0.4
						c-0.8,0.3-1.7,0.5-2.5,0.8c-0.3,0.1-0.6,0.3-0.9,0.4c3.5,1.2,9.4,1.1,11.4,3.1c2.4,2.4-3.9,2.8-6.8,4.4
						c2.1-0.1,4.2-0.1,4.9-0.4c1.4-0.5,2.9-0.5,4.3,0c1.5,1.6,4.6,1,7.1,0.7c1.7,0.4,3.7,1.2,4.5,1c2.5-0.4,5.8-1,6.3-1.7
						c0.6-1-1.1-2.1-1.9-3.4c5.7,0.2,5.9,1.8,7.3,3.2l2.2-0.8c6.5,0.9,5.3,3.3,9,4.9c1.8-1.5,7-2.5,2.7-4.1l4.9-2.6h-0.1l1.6,1.9
						l-2.3,1l4.1-0.2l1.6,3.3c2.3,0.3,4.2,0.6,6.3,0.8c1.4,0.2,2.8,0.3,4.2,0.2c1.3-0.8,3-0.4,4.4-0.3c6.1,0.2,6.7,0.1,9.9-2
						l21.8,4.3l-8,0.8c0.3,0.8,0.7,1.6,1.3,2.3c1.1,0.2,2.3,0.2,3.4,0c2.5-0.9,4.1-2.4,8.8-1.9c2.2,0.3,4.4,0.8,6.5,1.3
						c2.6-0.4,5.6-0.9,8.6-1.4c1.1-0.1,2.2-0.4,3.3-0.8c2.7-1.5,5.6-1,8.6-0.4c0.9,0.2,2,0.3,4.1,0.7l-10.8-4.9
						c1.9-0.4,3.8-0.7,5.8-0.8c1.3,0,3.5,0.5,3.8,0.9c1.4,1.9,3.5,2.7,9.3,2.6c1.7,0,3.5-0.2,5.1-0.7c4-1.3,8.2-1.8,12.4-1.4
						l-2.5-2.7h4.5l0.1-0.4l2.7,0.7l1.3-1.1l2.5,0.5c1.8-0.2,3.8-0.7,4.6-0.5c2,0.5,3.9,1,5.9,1.7c-1.4,0.5-2.8,0.9-4.3,1.1
						c-1.5,0.2-3.3-0.1-4.9,0c-0.7,0.1-1.5,0.3-2.2,0.6c0.7,0.2,1.4,0.3,2.1,0.3c3.9-0.8,5.4,0.5,7.9,0.8c2.8,0.3,4.5,1.4,7.3,1.7
						c3.3,0.3,7.2,0.1,10.8,0.1c2.5,0,5-0.1,7.3,0c3.9,0.2,5.3-0.5,6-1.8c7.8,0,15.2,0.1,19.4,2.7l2.6-1c0.8,1,2.9,2.2,1.8,2.9
						c-2.7,1.5-0.8,2.8-1.3,4.1c-0.3,0.9-0.4,1.6,3.6,1.2c1.1,0.1,2.2,0.2,3.3,0.4c2.7,0.2,5.3,0.5,8.1,0.6c3.3,0.1,5.9-0.3,5.8-1.8
						c0-1.1,3.6-1.5,7.6-1.1c3.8-0.8,7-1.6,10.2-2.3c1.3-0.3,2.4-0.8,3.6-1.1l-0.5-0.6l10.6,0.2c2.2-2.2-4.8-2.9-5.3-4.7l-1.4-0.4
						l4-2l2.6,0.9c-1.2-0.7-2.4-1.3-3.6-1.8c-2.9-1.1-6.1-1.2-9.1-0.2c-1.8,0.5-4.8,0.4-7.3,0.6c-2,0.2-3.9,0.4-6.4,0.6l-2.2-1
						c-0.8,0.4-1.6,0.7-2.5,0.9c-1,0.3-2,0.5-3,0.6c-4.8-1.8-9.9-0.9-15.2,0.3c-2.1,0.5-4.2,0.9-6.3,1.1c-1,0-2-0.1-2.9-0.4
						c-2.8-1.1-5.7-1.5-8.7-1.1c-3.2,0.2-7-0.5-10.2-1c-4.3-0.7-8.4-1.6-13.3-2.1l2.3,0.7c-4.6,1.4-16.1,0.7-20.7-1.1l5.5-2.3
						l-12.9-3.2l-1,0.4l2.7,1.1c0,0,0,0,0,0.1c-1.6,1.8-4.6,2.6-9.8,1.8c-0.7-0.1-2,0.4-3.1,0.5c-2.3,0.1-4.7,0.2-7,0.3L506.6,210.4
						z M400.6,224.1c1.1,1.6,4.5,3.1-0.9,4.3c-1.7,0.2-3.4,0.4-5.1,0.3c-0.5-1.5-0.8-2.6-1.2-3.8c-4-0.8-4.2-0.8-7.9,0.3
						c-0.8,0.2-1.6,0.3-2.4,0.4c-6.4,0.1-12.7,0-19.1,0.1c-3.5,0.1-7.1,0.2-10.6,0.5c-0.7,0.1-1.4,0.4-2.1,0.7l8.2,1.8
						c2.4,0.5,4.7,1,7,1.5c4.2,0.9,7.6,0,11-0.7c2.9-0.6,6.5-0.2,9.4-1.1c1-0.3,5.5,0.7,8.1,1l7.9,1.3c-0.3-2,4.7-3.5,11.3-3.8
						c0,0.5,0,1,0.2,1.5c0.2,0.4,0.7,0.8,1.1,1.1c1.2-0.2,2.5-0.4,3.7-0.6c0.9-0.3,1.8-0.5,2.8-0.6c2.3,0.4,3.2,0.2,4.5-0.6
						c1.8-0.9,3.7-1.7,5.6-2.4c0.2-0.1,0.1-0.2,0.2-0.4l-1.9,0.1c-1.6-0.9-3.2-1.7-4.9-2.4c-0.8-0.2-3,0-5.5,0.1l3,0.8l-3.4,1
						l3.5,1.6l-5.6,0.4c0-0.5,0.1-0.8,0-0.7l-9.7-1.6l-2.4,1.4C404.3,224.8,406.2,223.3,400.6,224.1L400.6,224.1z M215,251.1
						c3.2,1.1,6.2,1.9,9.3,0.2c1.7-0.8,3.5-1.4,5.3-1.8c2.6-0.6,3.8-1.3,2.5-2.3s-5.5-1.7-8.6-1.5l2.9,1.6l-1.1,0.3
						c-2.4-1.3-10.1,0-9.5-2.6c-4.1,0.3-4.1,0.3-5.7,1.4c-0.5,0.3-1.1,0.5-1.6,0.6c-5.3,1.3-5.3,1.3-2.9,3.4
						c0.2,0.2,0.4,0.5,0.6,0.7c0.9,1,4.5,1.4,6.7,0.8C213.7,251.7,214.3,251.4,215,251.1z M678.6,213.6c0.3-0.2,0.6-0.4,1-0.6
						c1.7-0.5,3.6-1.1,1.5-1.7c-1.7-0.5-3.1-1.6-6.6-0.4c-0.5,0.2-1.8,0.1-2.7,0.2c-1.8,0.3-3.6,0.7-5.2,1.2
						c-0.9,0.2-1.7,0.6-2.4,1.2c-0.5,0.4-1.1,1.1-0.6,1.3c1.2,0.6,2.5,0.9,3.8,1.1c1.2,0.2,2.4,0.1,3.5-0.1c2.9-1.4,6.2-0.8,9.5-0.8
						c0.5-0.5,1-0.9,1.6-1.4L678.6,213.6z M761,184.6l20.5,1.8l-0.6,0.5l10.6-2.1l-1.5-2L761,184.6z M703.4,179.7
						c1.5-0.2,3.1-0.5,4.5-1c1.3-0.8,2.5-1.6,3.6-2.6l-5.7-0.6l-2,2.2h1.1l-5.9,1.2L703.4,179.7z M650.8,212.1l-5.3,1.4
						c1.9,0.7,3.8,1.3,5.8,1.7c0.3,0.1,4.1-1.1,3.9-1.3C654.6,213.3,652.8,212.9,650.8,212.1L650.8,212.1z M201.4,251.7l1.4-0.6
						l-4.1-1.2c-0.5,0.3-1.5,0.8-1.3,0.8C198.7,251.1,200.1,251.4,201.4,251.7z"/>
					
						<linearGradient id="SVGID_5_" gradientUnits="userSpaceOnUse" x1="42.3391" y1="248.35" x2="42.3391" y2="298.65" gradientTransform="matrix(1 0 0 -1 0 502)">
						<stop  offset="0" style="stop-color:#E6DFCC"/>
						<stop  offset="0.53" style="stop-color:#E5D9C3"/>
						<stop  offset="1" style="stop-color:#CCBDA6"/>
					</linearGradient>
					<path class="st4" d="M-42.8,253.6c0.4-0.8-0.3-1.5-3.5-1.7c-3-0.2-3.4-1-3.9-1.7l-13.9-20.2c-5.5-8-11.2-16.1-17-24.5l-1.5-2.2
						l10.7,1.7l-0.3,0.3c1.4-0.3,2.7-0.4,4.1-0.4c1.5,0.5,3.1,1.3,3.2,1.9c0.3,1.5,2.1,2.2,5.6,2.1c0.9,0.5,1.8,0.9,2.8,1.2
						c1,0.1,1.9,0,2.8-0.4c0.3-0.3-0.4-0.8-0.8-1.3c-0.6-0.8-1.2-1.6-1.8-2.3l6,0.7l5.6,0.8l-1.8-2c5.6,0.6,10.6,0.9,15.9,1
						c6,0.1,13.2,1.3,17.2,3.7c0.2,0.1,0.2,0.3,0.3,0.3c5.8,0.7,5.9,2.7,9,4c0.7,0.3,1.6,0.5,2.5,0.8l6.9,2c2-1.1,6.2-1.3,11.4-0.8
						c0.9,0.1,1.9,0,2.7-0.3c3-1.2,7.1-1.4,13-0.5l-3-3.7L28,212l2.8-0.8l2.1,1c1.8,0,3.3-0.1,4.6,0c5.5,0.6,7.7,0.3,8.8-1.5
						c0.7-0.7,1.4-1.4,2.2-1.9c3.9,0.9,7.1,1.3,10,0.5c1-0.2,2-0.3,3-0.1c3.4,0.6,6.8,1.1,10.2,1.3c5.2,0.6,10,1.8,15.1,2.8
						l-4.1,4.7c8.2,1,14.7,1.5,21.5,0.5c2.9-0.4,3.5-0.7,2.8-1.6c-0.6-0.7-1.3-1.4-2.1-2.2l4-0.4v-0.4l-7.9-0.6
						c1.9-1.3,5.7-1.7,9.5-2.1c2.4-0.2,5.2-0.2,7.2-0.6c2.9-0.6,6.1-0.1,8.9-0.2c4.4-0.2,9.5,1.6,13.5-0.1l3.1,2.3
						c4.8,0.3,10.5,0.6,16.1,1.1c1.7,0.3,3.3,0.6,4.9,1.1c-1,0.3-2,0.6-3.1,0.8c-2.9,0.6-6.8,0.7-6.4,2.4c0.1,0.2-4.7,0.5-7.3,0.5
						c-2.2,0-4.5-0.4-6.8-0.4c-1,0-2.7,0.3-2.8,0.6s0.7,0.9,1.2,1.4c0.7,0.4,1.4,0.9,2,1.4c1,1.3,1.7,2.4,7,2.2
						c1.5-0.1,3.8,0.8,5.5,1.3c1.1,0.3,1.9,0.7,3.1,1c0.6,0.7-2.2,1.7,2.3,2.3c0.4,0.1,0.3,1.1-0.1,1.6c-1.6,1.8,0.2,3.4,5.3,4.5
						c0.3,0.1,0.6,0.1,0.8,0.2c1.6,0.5,3.1,4,2.1,4.6c-0.4,0.2-1.1,0.5-1.1,0.7c0.1,1.6,0.1,1.6-3.9,2.2l0.7,0.8
						c-1.8,0.1-3.7,0.2-5.2,0.4c-0.6,0.1-0.2,0.7-0.2,1.1c1,0,2,0.2,2.9,0.1c2.5-0.1,4.8,0.9,4.2,2l2.2-0.1c0.1,0.3,0.5,0.6,0.2,0.7
						c-2.5,1.2-3.2,2.5-1.5,4.1c0.5,0.5-1.9,1.2-3.4,2.1c-2.9-0.4-5.9-0.9-8.8-1.4c-4-0.7-7.1-0.1-8.3,1.6H143
						c-1-0.4-2.1-0.7-3.1-0.8c-6.1-0.2-12.4,0.1-18.3-0.4c-7.7-0.7-14.5-0.2-21.7-0.1c-3.4,0-7.1-0.2-10.6-0.5
						c-3.3-0.3-5.3-0.1-6.4,0.8l-1.3,1.1H-42.8z M58.7,224.1l-2.3-0.3l-2.2,2.5c-2.7-0.2-5.4-0.5-8.1-1c-2.5-0.6-4.1-1.8-6.7-2.9
						l-2.7,0.2l1.4,0.9c-4.7,0.1-6.7-1-8.2-2.1c-1.3-1-3.1-1.2-4.6-0.6c-2.8,1.6-8.5,0.9-12.6,1.4c-3,0.4-7.9-0.6-11.9-0.7
						c-2.1,0.1-4.2,0.4-6.2,0.9c2,0.7,4.7,2.1,5.8,2.1c5.9-0.4,9.1,1.3,13.3,2.3l2.3-0.7c3.1,1.1,4.5,2.8,9.8,3
						c-0.6,1.2-2,2.4,0.6,3.4c-0.1,0.8-0.3,1.6-0.5,2.3c-0.2,0.6-0.5,1.1-0.9,1.6c-0.3,0.5-1.5,1.1-0.9,1.3c1.5,0.5,3,0.8,4.6,0.9
						c1.8,0.1,3.7,0,5.5-0.1c0.4,0.1,0.8,0.2,1.2,0.3l-2.8,0.6c2,0.5,3.6,1,5.4,1.2c6.2,0.9,12.5,1.6,18,2.4l9.8-4.8
						c-2.5-1.9-3.7-2-9.2-2.4c-4.4-0.3-9.8,0-12.9-2c-0.5-0.3-3-0.4-4.6-0.5c-0.9-0.1-1.9,0-2.8,0.1l-1-0.4l10-3.2
						c0.3-0.1,0.5-0.1,0.8,0c4.8,0.8,6.8-0.2,9.4-1c3.2-1,6.3-2,5.9-3.8c0-0.1,0.3-0.1,0.4-0.2c6.9,0.7,9.6-1.4,15.9-1.6
						C74,223,71,223,69,222.6c-6-1.4-7.8-1.4-9.6,0.6C59.1,223.4,58.9,223.8,58.7,224.1z M80.2,249.8l16.6-1.2l-0.3-0.4
						c-5.9-0.4-11.9-1-17.7-0.5c-0.6,0-1,0.5-1,1c0,0.1,0,0.2,0,0.3C78,249.3,79.4,249.6,80.2,249.8z"/>
					
						<linearGradient id="SVGID_6_" gradientUnits="userSpaceOnUse" x1="783.1099" y1="353.72" x2="783.1099" y2="450.3711" gradientTransform="matrix(1 0 0 -1 0 502)">
						<stop  offset="0" style="stop-color:#E6DFCC"/>
						<stop  offset="0.53" style="stop-color:#E5D9C3"/>
						<stop  offset="1" style="stop-color:#CCBDA6"/>
					</linearGradient>
					<path class="st5" d="M784.2,141.6c1.2,2.3-4.2,5.2-12.6,6.7c-0.9-1.4-2.1-2.8-7.8-1.9c-0.7,0.1-1.5,0-2.2-0.2
						c-2.4-1.1-4.7-2.3-6.8-3.4c-4.3-0.1-8.7-0.2-13.1-0.3c-3.6-0.2-7.3-0.2-10.9,0.1c-8,0.8-13.2-0.9-19.8-1.4
						c-3.7-0.3-5.1-0.8-4.4-2.2c-7.3,0.3-7.3,0.3-7.7-2c-3.7-0.2-7.4-0.2-10.8-0.5c-1-0.1-1.6-1.1-1.3-1.6c0.8-1.6,1.5-3-2.9-3.7
						c-0.7-0.1-1.2-0.5-1.4-1.2c-0.1-0.8-0.1-1.7,0.1-2.5l-7.9,1.4c2.2-1.6,1.5-2.2-2-2.8c-2.8-0.6-5.6-1.7-8.1-3.2
						c-2.7-1.2-5.2-2.7-7.6-4.4c-1.7-1.4,0.8-2.5,4.8-3.3c3.3-0.7,6.2-1.9,10-3.2c-4.4-0.4-8.7,0.9-10.1-0.9
						c-0.8,0.2-1.6,0.3-2.5,0.3c-2.7-0.2-6.9-0.1-7.6-0.8c-1.4-1.4,2.3-3,6.5-3.5c-0.4-0.8-0.9-1.5-1.5-2.1c-1.5-1.5-2.5-2.7,4-2.9
						c1.3-0.2,2.6-0.7,3.6-1.5c2.3-2.2,6.6-3.4,11.5-4.5c1-0.2,2-0.3,3-0.3c4.8,0.9,7.7-0.4,10.7-1.9c1.9-0.9,4.4-1.7,6.4-2.6
						s3.9-2.1,6.2-3.3l7.6,2c2.6-1.5,4.2-2.9,6.9-3.8c3.7-1.1,7.5-2,11.4-2.5c3.2-0.5,5.4-0.4,5.2-2.3c-0.2-1.5,3-3.3,0.8-4.9
						c-0.6-0.4,2.5-1.9,4.1-3.1l-3.3-0.9c1.3-0.9,2.1-1.9,3.8-2.5c3.4-1.2,9.1-1.8,10.7-3.2c2.8-2.4,6.4-2.6,10.9-2.8
						c0.5,0,1.1,0,1.6-0.1c2-0.4,4.4-1.4,5.9-1.3c4.4,0.3,8.5,1.1,13.4,1.7c-5.5,1.8-4.2,2.6-1.2,3.3c1.2,0.4,2.3,0.9,3.3,1.6
						l-1.3,0.5h-8l-1.3,1L784,74c3.3-0.7,6.5-1.5,9.7-2.5c3-1.3,6.3-1.6,9.6-1.1c1.4,0.2,4.8-0.8,6.8-1.5c1.2-0.5,2.3-1.3,3.2-2.2
						l-11.2-1.4c-1.4-0.1-2.8-0.3-4.2-0.6c-3.3-1.2-4.8-2.8-5-4.8c-0.2-1.5-1.3-2.8,2.9-4.4c2.7-1,2.1-2.3-1.7-2.6
						c3.3-1.6,7.7-1.8,10-0.5s4.6,2.5,6.9,3.7c6.7-3.5,16.8-4,22.6-1.5c4.2,1.8,7,3.6,2.7,6.8c-0.4,0.3,1.4,1.5,2.4,1.4
						c3.2-0.1,6.5-0.5,9.6-1.3c4.9-1.5,10.1-1.7,15-0.6c10.7,2,23.1,1.4,35.5,0l10.3,3.2l5.5-3.7l-47.4,68.8
						c-4.2,0.3-8.4,0.5-12.7,0.8c-1.1,0-2.2,0.3-3.2,0.7c-2.6,1.9-7.3,2.5-11.3,2.9c-7,0.6-14,0.8-20.9,1.2
						c-1.6,0.1-3.2,0.3-4.7,0.3c-3.5,0.1-7.9,0.5-6.7-1.7c-4.6,0.7-8.4,3.7-7.2,6.1L784.2,141.6l10.6-4.8c-1.7-0.5-2.9-1.2-4.2-1.1
						c-1.9,0.1-5.2,0.8-5.5,1.3C784.3,138.6,784.5,140.1,784.2,141.6z"/>
					
						<linearGradient id="SVGID_7_" gradientUnits="userSpaceOnUse" x1="755.6801" y1="248.35" x2="755.6801" y2="258.6" gradientTransform="matrix(1 0 0 -1 0 502)">
						<stop  offset="0" style="stop-color:#E6DFCC"/>
						<stop  offset="0.53" style="stop-color:#E5D9C3"/>
						<stop  offset="1" style="stop-color:#CCBDA6"/>
					</linearGradient>
					<path class="st6" d="M725.5,253.6l-1.7-2.2l-1.2,0.1c2-1.6,7.3-1.9,11-2.8c3.5-0.9,7.1-1.7,11.2-2.6l-4.5,0.2l-0.2-0.2
						c1.2-0.3,2.5-0.4,3.8-0.5c4,0.1,7.9,0.4,11.8,0.6c2.2,0.2,4.4,0,6.5-0.5c6.2-1.5,12.6-2.3,19-2.2l7.5-0.1l-7.1,10.2
						L725.5,253.6z"/>
					
						<linearGradient id="SVGID_8_" gradientUnits="userSpaceOnUse" x1="296.4297" y1="395.9336" x2="296.4297" y2="503.32" gradientTransform="matrix(1 0 0 -1 0 502)">
						<stop  offset="0" style="stop-color:#E6DFCC"/>
						<stop  offset="0.53" style="stop-color:#E5D9C3"/>
						<stop  offset="1" style="stop-color:#CCBDA6"/>
					</linearGradient>
					<path class="st7" d="M33.3,9.1c4.3-0.3,1.9-1.6-0.3-2.8c-1.2-0.7-3.1-1.4-3.3-2c-0.8-2.3-2.2-4.2-8-5.6h668.5l-14,6.7
						c4.3,1,4.4,2.3,1.5,4s-5.3,1.5-8.5,0.8S656,11.8,654,13.7l-4.9-0.2c0,0.8-0.1,1.4-0.1,2c-2.8,0.1-5.4,0.2-8,0.4
						c-0.9,0.1-1.8,0.2-2.8,0.4l-0.3,0.7c2.6,0.1,5.3,0.6,7.8,0.4c4-0.4,7.9-1.4,11.9-1.9c2.2-0.2,4.5,0.2,8,0.5l1.8-1
						c0.4,0.1,1.2,0.2,1.2,0.4c0.2,1.6-2.1,2.6-5.7,3.7c-2.2,0.7-3.2,2.2-5.6,3.8l-9.3-2c-1.2,1.1-2.4,2.4-3.4,3.8
						c-0.9,1.5-1.1,2.9-1.6,4.6l-8-1.1c-4.5-0.6-7.4-0.1-10.2,2.1c-1.6,1.2-5.6,2-8.9,3l-3.2-1l-6.4,2.6c-4-1.6-3.7-4.9-10.4-4.3
						c-3.6,0.3-7,1.7-11.4,2.9c-2.3-0.5,0.8-4.4-7.5-2.7c0.4-1.6,0.7-2.8,1-4.1c-2.9-0.3-5.8-0.5-8.5-0.9s-5.3-0.9-8.7-1.4
						c-4.4,1.6-9.8,3.2-13.7,5.3c-2.7,1.4-3,3.7-5.2,5.4c-3.3,2.6-3.6,5-1.9,7.5c0.2,0.3-1.2,1.1-2.2,1.4c-3.4,1-6.1,2.1-6.1,4
						c0,0.7-0.5,1.5,0.3,1.9s2.8,0,5.1-0.1c0.5,1.2,2.1,2.7,1.4,4S535,56.9,533,57c-3.8,0.2-8.4,1.4-12.1-0.4
						c-1.6-0.8-14.3,1.9-15.1,3.1c-1.4,2.3-4.7,2.8-9.9,3.2c-8.4,0.6-15-0.8-22.3-1.6c-2.8-0.3-5.7-0.5-8.5-0.4
						c-11.6,0.5-23.8-0.6-34.4,2.6c-1.9,0.6-2.7,1.8-3.8,2.6c-1.6,0.2-3.3,0.5-5.1,0.7c-0.7,0.2-1.4,0.2-2.1,0.2
						c-7.8-1.6-10.1,1.3-13.8,3.1c-4.1,1.9-8,3.8-12.5,5.5c-1.5,0.6-4.8,0.3-7.2,0.4c-3.6,0.1-8.7-1.6-9.7,1.6
						c-0.1,0.2-2.8,0.6-3.9,0.5c-5-0.6-7.4,1-9.7,2.2c-2.6,1.4-5.7,1.5-8.4,0.2c-1.9-0.9-3.5-2-5.3-3c-0.2,0.2-0.4,0.4-0.6,0.6
						c-3.6-0.5-7.1-1.1-10.8-1.4c-2.3-0.3-4.6-0.3-6.9-0.2c-3.6,0.4-7,1.2-10.5,1.8c-5,0.8-8.2,2.9-8.3,5.1c0,0.5-1.4,1.4-2.4,1.4
						c-4.2,0.2-5.1,1.2-4.4,2.6c-6.7,1-7.3,2.1-1.9,4c4,1.4-2.5,2.2-0.4,3.4c-5.5,1.5-2.8,3.2-0.7,5.2l-6-1l-1.5,1.5
						c-3-1.7-5.1-3.8-8.9-4.9c-3.5-1-8.8-0.8-14.1-1.2c1.6,2.1,2.8,3.6,4,5.2l-8.8-0.8l-0.5,0.6l5,1.6l-12.5,1.8l0.1,0.8l6.6,2.1
						c-5.1,0.7-9.9,0.7-13-0.1c-1.7-2.4-1.9-4.5-4.4-5.9s-7.4-2.6-11.8-3.3c-4.1-0.7-8.8-0.7-14.2-1c-5.3,1.5-6.6,1.4-14.4-0.6
						c-2-0.5-5.2-0.2-7.9-0.3c-1.6-0.1-3.2-0.3-4.9-0.5c0.4-0.5,0.3-1.3,1.2-1.5c1.7-0.4,3.4-0.6,5.1-0.4c7.8,2.2,14.8,1.4,22,0.2
						l-5.5-5.8l-3.9,0.7l-8.6-4.5c-3,0.6-5.8,0.5-8.2-1.4c-1.1-0.8-5.5-2-6.5-1.8c-3.3,0.8-7.1,2-8.3,3.4c-1.2,1.6-3,2.1-6.6,2.4
						c-2.1,0.3-4.1,1.2-5.8,2.5c8.2-0.9,9.9,1.2,11.7,3.9l-13.3-0.8c-1.7-3.9-0.1-5.7,5.5-7.4l-16,1c0.3-0.6,1.2-1.3,0.9-1.9
						c-0.6-1-1.5-1.8-2.6-2.2c-1.3-0.3-2.6-0.3-3.9,0c-1.2,0.5-2.7,1.4-2.2,1.9c1.8,1.8-1.8,1.9-3.6,2c-6.8,0.4-14.3-0.1-20.4,0.8
						c-5.2,0.8-10.8,0.7-15.8,1.5c-2.4,0.5-5,0.2-7.2-0.9c-4.2-2-9.9-1.1-14.7-0.9c-4.2,0.1-6.4,0.6-8.3-2c-1-1.4-2.8-4.2-9.5-4.8
						c0.5,1.4,1.5,2.6,1.2,3.8c-0.1,0.6-2.5,1.6-3.4,1.4c-3.8-0.5-7.2-1.6-11-2.2c-6.7-1.1-9.8-3.3-10.7-5.8
						c-0.5-1.4,0.5-3.3,2.5-4.2c3.5-1.6,4.6,0.2,5.6,1.7c2.4,0,4.8,0.1,7.1,0c1.4-0.1,3.2-0.5,3.4-1S64.1,70.5,63,70
						c-2-1-4.7-1.8-6-2.9c-2-1.5-3.2-2.8-7.6-1.7c-1.5,0.2-3.1,0-4.6-0.4c-4-1.9-7.7-3.9-11.9-6.2l4.1-1.2c-0.2-0.3-0.4-0.7-0.6-1
						c-6.2,1.2-9.6-1-14.1-2.1c-2.7-0.7-6.3-0.3-9.5-0.6c-2.4-0.2-4.8-0.8-7.2-1.2c-1.7-0.3-3.8-1.1-4.9-1c-1.8,0.2-4.5,1-4.2,1.6
						c1.7,4.5-6.5,5.2-12.9,6.5l-13.8,2.9L-41.8,59c-4.4,0-8.8-1.1-12.7-3.2c-5.1-2.7-10-5.7-18.8-6.5c-1.4-0.3-2.8-0.7-4.2-1.2
						c-3.8-0.9-7.6-1.9-11.5-2.7c-3.3-0.6-6.7-1-5.6-2.9c0.1-0.2,0.1-0.4-0.1-0.5c-1.4-0.9-4.9-2.1-0.3-2.4c0.8,0,3.2,1.7,4.8,2.7
						l0.9,0.5c0.5,0,0.9-0.1,1.4-0.2c2.7-1.5,7.5-2.8,12.4-3.1c1.3-0.2,2.6-0.2,3.9,0c4.7,1.2,8.2,0.6,10.5-0.5
						c3.3-1.7,7.6-1.4,12.5-0.9c8.5,0.9,16.9,2.8,25.4,2.2c5.2-0.3,10.6-0.4,16.1-0.3c3.1,0.1,6.2,0.5,9.2,1.2
						c8.3,1.9,13.5,0.8,13.3-3c-0.1-1.9,0.6-3.3,6.4-3.3c2.7,0,5-1.5,6.8-2.6c1.3-0.8,1.5-2,2.2-3.1c3.9,1,6.1,0.6,5.7-1.2
						c-1-4.4-2.5-8.8-3.4-13.2C32.6,13,33.2,11.1,33.3,9.1z M500.6,55.9l5.9-2.8l-0.9-0.7c-2.5,0.2-7.1,0.4-7.2,0.6
						c0,1.9,0.2,3.7,0.7,5.5c4.2,0.2,7.3,0.2,6.9-1.9L500.6,55.9z M538.9,8.6l-2-0.3c-5.6,2-5.6,2-2.1,4.5L538.9,8.6z"/>
					
						<linearGradient id="SVGID_9_" gradientUnits="userSpaceOnUse" x1="1.5358" y1="306.9789" x2="1.5358" y2="433.08" gradientTransform="matrix(1 0 0 -1 0 502)">
						<stop  offset="0" style="stop-color:#E6DFCC"/>
						<stop  offset="0.53" style="stop-color:#E5D9C3"/>
						<stop  offset="1" style="stop-color:#CCBDA6"/>
					</linearGradient>
					<path class="st8" d="M48.4,136.1c-1.1-1-2.8-1.4-5.8-0.5c-3.4,1.1-6.2-0.3-9.5-1c-5.5-1.4-11-2.4-16.5-3.2
						c-5.9-0.7-8.4,0.8-6.3,3.2c0.3,0.3,0.8,0.7,0.7,0.9c-1,3.4,1.4,4.9,11.2,6.5l-1.3,1.6c7.4,0,8.2,0.4,6.2,3l7.1,2.7
						c-2.2,0.4-5.8,0.8-5.6,1.1c1,1.7,2.5,3.1,4.4,3.8c2.8,1.1,3.2,1.9,2.5,3.1c-0.4,0.7-0.2,1.5,0.4,2c2.5,2.4-1,4-3,5.7
						c-0.8,0.7-5.1,0.6-7.8,0.8c-1,0.1-2.2,0-3.3,0c2,3.8,5.2,5,12.2,4.3l5.2,6.3l-3.6,0.7l3.8,2.1l-5.9,0.7
						c1.6,0.4,3.2,0.8,4.7,1.5c2,1.2,0.8,2-2.1,2.6c-3.7,0.6-7.3,1.3-12.1,0.4c-0.6-0.1-1.2-0.1-1.8,0c-2.3,0-4.7,0.2-7,0.1
						c-3.4-0.2-4.5,0.6-2.7,1.3c4.1,1.7-0.1,2.5,0.4,3.8h-1.2L9,184.6l-2-0.3l1.2-0.9L-8.2,182l-0.6-0.6l-3.8,2.3
						c4,0.9,5.9,0.9,5.7,0c3.1,0.2,5.9,0.4,8.7,0.7c1.6,0.2,3.1,0.6,4.6,0.9L6,185.9c-4.2,0.3-9.2,0.3-12.2,1.1
						c-2.8,0.8-3.5,2.4-4.6,3.2c-3.4,0.3-5.7,0.5-8,0.7c-0.6,0.1-1,0.2-1.6,0.2c-1.9,0.1-4.6-0.1-5.6,0.3s-0.3,1.3-0.4,2.1
						c-5.4-1.8-11.1-1.9-16.5-0.2c-2.3,0.6-5.4,1-8.2,1.4c-0.6,0.1-1.2,0.1-1.7,0.1c-4.5-1.1-8.3-0.8-12.7-0.6
						c-7.2,0.2-14.9-0.2-23.1-0.3l-78.3-113.8l6.9,1.1c-1.1,3.1-0.3,6.2,8,9.3l-5.5,0.3c4.1,3.8,10.4,5,18.7,4.8
						c1.1,0,2.7,0.6,4.7,1.1c-6.2,0.7-6.2,1.8-1.4,3.5c3.7,1.3,7,2.8,11,4.4l-3.3,0.2c0.8,1.2,4.9,2.6,1.8,3.9l-4.5-2.8l-12.1,2.9
						c6.5,3,13.8,3.1,21,3.3c6.6,0.2,13.1,1,19.6,2.6c2.1,0.5,4.2,0.9,6.3,1c2.2,0,5-0.2,5.8-0.8s-0.3-1.8-0.7-3l6.3,0.7
						c-1.2-1.2-2.3-2.5-3.3-3.8c-0.6-0.9-1.2-2.6-0.5-2.7c3-0.2,6-0.1,9,0.3c1.4,0.2,2.4,1.4,3.6,2.2c0.3,0.2,0.6,0.4,1.2,0.8
						c2.8-2,6.5-1.5,11.2,0c1.5,0.5,4.3,0.4,6.5,0.6l-1.6-0.7l6-6.7l-8.9-1.1c-0.1-2.8-5.6-3.1-9.2-3.5c-4.4-2.5-7.6-5-12.1-6.9
						c-5.1-2.2-11.5-2.4-17.8-2.1c-5.3-2.1-6.7-3.8-4.1-6c1-0.8,2.3-1.2,3.6-1.2c5.7,0.5,8-0.3,9.5-2.2c1.7-2.2,7.9-1.7,12.8-1.7
						c5.6-0.1,7.7-1.2,5.3-3.3c1.6-0.5,2.9-1.4,4.6-1.3c4.7,0.2,9.5,0.6,14.2,1.2c1.1,0.1,1.9,1.3,3,2c2.5,1.4,5.9,2.6,7.5,4.1
						c2.4,2.2,6.5,2.7,11.4,3.4l-1.4-2.7c3.1,0.6,5.7,1,8.1,1.6c4.2,1,8.4,0.8,10.5-0.6c0.7-0.4,2.6-0.6,3.9-0.8
						c5.8-1.2,5.8-2.8-0.9-6.6c1.6,4.3-6.5,3-11.4,3.6c-1.1-0.3-2.2-0.7-3.2-1.2l-9.6,1l-1.5-1.9c-4.7,0.1-6.9-0.8-7.9-2.9
						c-0.8-1.7-3.4-3.3-4.7-4.6c3.2,0.4,6.5,0.7,9.7,1.1c4,0.5,8.2,1.4,12.1,1.6c3.5,0,6.9-0.3,10.3-0.8c6.3-0.8,6.8-0.6,6.8,2.4
						c1.6,0.1,3.2,0.2,4.8,0.3c1.5,0,2.9,0.3,4.3,0.9l5,2.3c1.3,0.6,2.7,1.2,3.8,1.8c3.2,1.8,6.8,2,9.1,0.5l5.2,1.5
						c0,0.1,0,0.3-0.1,0.3c-1.9,0.6-3.8,1.1-5.5,1.8c0.6,0.6,1.4,1,2.2,1.2c3.1,0.4,6.3,0.5,9.4,0.4c2.4-0.2,4.2-1.1,6.1-1.7
						l1.2,0.3c-2.4,2.8,6.5,4.3,6.8,6.8c0.4,1.3,0.9,2.6,1.6,3.8c-3.5-0.4-7.2-0.6-10.5-1.3c-5.5-1.1-10.5-0.4-14.6,0.1
						c-3.8,0.5,0.4,2.5,2.4,3.5c2.3,1.2,5.7,2.1,8.4,3.2c1.2,0.5,2.5,1.2,2.5,1.8c-0.1,2.2,3.1,2.4,7.6,2.4l-1.3-3l1.3,0.3l4.9-4.3
						l1-0.1c0.3,0.7,1.2,1.5,0.7,1.9c-2.3,2.2,2.2,3.3,5.7,4.6c2.6,1.1,5.6,0.9,8.1-0.5l11,1.9l-7.9,1.2c7,2.3,7.3,2.3,14.6,0.2
						c-0.2-0.2-0.3-0.6-0.8-0.8c-6.4-1.9-1.4-2.9,0.5-4.2c0.6-0.2,1.2-0.4,1.8-0.3c4.1,1.7,7.5-0.2,11.4,0.3
						c1.8,0.1,3.5-0.1,5.2-0.6c5.4-1.9,11.3-1.6,16.3,1c2.6,1.2,5.9,2.2,8.8,3.4c0.8,0.3,1.5,0.7,2.1,1.3c1.4,1.2,2.8,2.5,4.1,3.9
						c1.5,1.7,4.1,2.1,8.2,2.3c2.1,0.1,4.2,0.7,6.2,1.7c3.4,2,6.5,4.3,9.4,6.8c0.9,0.9,0.3,2.3-1,3c-1.8,1-1.7,1.8,0.1,2.8
						c2.7,1.5,5.6,2.9,8,4.5c0.7,0.4,0.1,1.1,0.5,1.6c0.4,0.5,0.9,0.9,1.6,1c2.7,0,5.4-0.1,8.7-0.1c0.3,0.3,0.6,0.6,1,0.9
						c2.6,1.9,2,2.5-3.2,3c-4,0.4-5.3,2.3-2.3,3.6c4.9,2.2,4.9,2.1-1.3,2.6c-1.3,0.1-2.4,0.3-3.6,0.5l-1-0.4l5.2-1.9
						c-0.1,0.4,0.1,0.3-0.1,0.2c-1.6-0.9-3.3-1.8-4.9-2.6c-2.9,1.1-6.6,2-8.5,3.3c-1.6,1.1-2.1,2.3-6.5,2.2c-0.8,0-2.1,1-1.7,1.4
						c1.2,1.4-0.3,1.7-3.5,1.7c-4.1,0-8.4,0.5-12.1,0c-5.7-0.8-11-2.2-16.6-3.4c-1.5-0.3-3.6-0.9-4.5-0.7c-4.9,0.8-7.8-0.6-10.7-1.8
						c-3.2-1.5-6.8-1.8-10.1-0.8c-2.8,0.8-6.3,0.1-7.4-1.3c-1.3-1.6-3.7-2.6-8.2-2.9c-1.9-0.1-3.7-0.5-5.6-0.7
						c-2.3-0.2-5-1.1-6.4,0.3C54.8,136.2,51.4,136,48.4,136.1z M-51.9,110.6c3.2,2.4,7.7,3.9,11.1,3.4
						C-45,113.1-44.1,109.8-51.9,110.6z M-42.5,115.1c1,2.9,5.2,2.2,8.9,2.1L-42.5,115.1z"/>
					
						<linearGradient id="SVGID_10_" gradientUnits="userSpaceOnUse" x1="474.3946" y1="293.0118" x2="474.3946" y2="304.2419" gradientTransform="matrix(1 0 0 -1 0 502)">
						<stop  offset="0" style="stop-color:#E6DFCC"/>
						<stop  offset="0.53" style="stop-color:#E5D9C3"/>
						<stop  offset="1" style="stop-color:#CCBDA6"/>
					</linearGradient>
					<path class="st9" d="M483.9,199.8c-2.6,1-2.6,1.6,0.5,2.5c5.6,1.6,3.5,4.5-3.5,5.4c-4,0.5-8,1-12.1,1.2c-3.7,0.2-5.7-1-5.6-1.8
						c0.1-1.5-3.2-2.6-1.5-4.4c2.1-2.1,6.8-4.5,12.9-5c0.6,0,1.3,0.1,1.9,0.2C478.9,198.6,481.3,199.2,483.9,199.8z"/>
					
						<linearGradient id="SVGID_11_" gradientUnits="userSpaceOnUse" x1="39.95" y1="300.45" x2="39.95" y2="309.49" gradientTransform="matrix(1 0 0 -1 0 502)">
						<stop  offset="0" style="stop-color:#E6DFCC"/>
						<stop  offset="0.53" style="stop-color:#E5D9C3"/>
						<stop  offset="1" style="stop-color:#CCBDA6"/>
					</linearGradient>
					<path class="st10" d="M30.5,200.7l-1.8-1.7l-12-0.9l-0.5-0.6l17.4-1.3l-1.9-0.4l-2.9-3.3c7.5,1.9,13.7,2.6,18.4,0.4l6.5,2.1
						c-0.2,0.3-0.6,0.8-0.8,1.1l10.7,2.7l-4.2,2.2l-8.5,0.5l-5.5-3.2L30.5,200.7z"/>
					
						<linearGradient id="SVGID_12_" gradientUnits="userSpaceOnUse" x1="459.1699" y1="342.77" x2="459.1699" y2="351.1615" gradientTransform="matrix(1 0 0 -1 0 502)">
						<stop  offset="0" style="stop-color:#E6DFCC"/>
						<stop  offset="0.53" style="stop-color:#E5D9C3"/>
						<stop  offset="1" style="stop-color:#CCBDA6"/>
					</linearGradient>
					<path class="st11" d="M450.1,154.6c3.3,1.9,3.3,1.9-3,3.4c-4.5-0.6-8.7-1-12.6-1.6c-2.3-0.4-4.5-0.9-6.7-1.6
						c-0.6-0.2-0.6-1,0-1.4c1.3-0.9,2.8-1.5,4.3-1.8c3.9-0.5,8.1-0.6,12.2-0.8c0.8-0.1,1.5,0,2.3,0.2c2.2,2.6,7.1,1.4,10.7,1.1
						c2.8,0.5,5.2,0.9,7.5,1.3c2.7,0.5,5.3,1.1,8.1,1.3c1.3,0.1,3.2-0.5,5.4-0.8l1.6,1.1c7.8-2,5.1,2.7,11,1.7
						c-1.7,0.9-2.6,1.4-3.6,1.9c-0.5,0.3-1,0.5-1.6,0.6c-2.1-0.2-4.1-0.5-6.1-0.9c-3.3-0.9-6.1-2-9.5-2.9c-1.6-0.2-3.1-0.1-4.7,0.3
						c-3.2,0.9-5.7,0.8-7.3-0.4C456.3,153.8,453.4,154.3,450.1,154.6z"/>
					
						<linearGradient id="SVGID_13_" gradientUnits="userSpaceOnUse" x1="416.2524" y1="287.96" x2="416.2524" y2="295.4363" gradientTransform="matrix(1 0 0 -1 0 502)">
						<stop  offset="0" style="stop-color:#E6DFCC"/>
						<stop  offset="0.53" style="stop-color:#E5D9C3"/>
						<stop  offset="1" style="stop-color:#CCBDA6"/>
					</linearGradient>
					<path class="st12" d="M404,211.7l-2.6-0.4l-3-0.5c2.5-0.5,2.1-1.6,6.3-1.5c2.9,0,5.8-0.7,8.4-1.9c2-1.2,3.3-0.8,5.4-0.4
						c3.2,0.6,5.9,1.7,10.2,0.9c1.6-0.3,3.2-0.6,5-0.9c0.1,0.7,0.9,1.6,0.1,2.3c-0.6,0.6-3,1-5.1,1.5l-7.2-0.8
						c3,2.2-1.4,2.4-4.9,2.8c-2.4,0.3-4.7,0.8-6.5,1.1l-6.3-2.4L404,211.7z"/>
					
						<linearGradient id="SVGID_14_" gradientUnits="userSpaceOnUse" x1="387.62" y1="399.11" x2="387.62" y2="408.28" gradientTransform="matrix(1 0 0 -1 0 502)">
						<stop  offset="0" style="stop-color:#E6DFCC"/>
						<stop  offset="0.53" style="stop-color:#E5D9C3"/>
						<stop  offset="1" style="stop-color:#CCBDA6"/>
					</linearGradient>
					<path class="st13" d="M406.1,97.8l-4.1,2.2l-2.6-1l2.4,1.1l-13.7,2.6l1.6,0.2l-9.3-0.3c-0.7-2.5-5.9-3.7-11.4-2.6l3.3-3.2
						l3.8,1.3c1.1-0.7,2.8-1.3,3.2-2.1c1.3-2.2,3.5-2.7,8.4-2c1.6,0.2,3.2,0.2,4.7,0c8.2-0.6,9.7-0.2,11.5,2.9
						C404.3,97.3,405.4,97.6,406.1,97.8z"/>
					
						<linearGradient id="SVGID_15_" gradientUnits="userSpaceOnUse" x1="202.4795" y1="280.18" x2="202.4795" y2="285.9411" gradientTransform="matrix(1 0 0 -1 0 502)">
						<stop  offset="0" style="stop-color:#E6DFCC"/>
						<stop  offset="0.53" style="stop-color:#E5D9C3"/>
						<stop  offset="1" style="stop-color:#CCBDA6"/>
					</linearGradient>
					<path class="st14" d="M221.4,220.4c-7.7-1.8-15.3-1.2-22.9-1l1.2,0.4l-3.9,2l-1.5-0.3c0.1-0.3,0.1-0.6,0.2-1.1
						c-2.4,0.1-4.6,0.1-6.6,0.3c-3.4,0.4-5.2-0.1-4.9-1.2c0.4-1.2,1-2.3,1.8-3.4c4.7,0,8-0.1,11.3,0c5.1,0.1,10.1,0.3,15.2,0.6
						c0.9,0.1,1.9,0.4,2.6,0.9c0.9,0.8,2,1.2,4.7,1.2c1.2,0.2,2.4,0.5,3.5,1L221.4,220.4z"/>
					
						<linearGradient id="SVGID_16_" gradientUnits="userSpaceOnUse" x1="373.3933" y1="326.35" x2="373.3933" y2="335.61" gradientTransform="matrix(1 0 0 -1 0 502)">
						<stop  offset="0" style="stop-color:#E6DFCC"/>
						<stop  offset="0.53" style="stop-color:#E5D9C3"/>
						<stop  offset="1" style="stop-color:#CCBDA6"/>
					</linearGradient>
					<path class="st15" d="M362.2,167.3l-1,1.5l-1.4-0.1c0.4-0.7,0.2-1.6,1.4-2c1.7-0.4,3.5-0.5,5.3-0.4c2,0.2,4,0.5,5.9,0.9
						l3.9,2.2l6.2-0.1c-0.2,1.2,5.8,0.9,4,2.9s-2.2,2.9-8,1.9c-0.4-0.1-1.4,0.5-2.2,0.6c-2,0.3-4,0.5-6.1,0.8l-1.4-1.7l-6.2,0.4
						l4.8-2.9h-4c0-1.4,0-2.8,0-4.1L362.2,167.3z"/>
					
						<linearGradient id="SVGID_17_" gradientUnits="userSpaceOnUse" x1="13.6931" y1="423.93" x2="13.6931" y2="435.39" gradientTransform="matrix(1 0 0 -1 0 502)">
						<stop  offset="0" style="stop-color:#E6DFCC"/>
						<stop  offset="0.53" style="stop-color:#E5D9C3"/>
						<stop  offset="1" style="stop-color:#CCBDA6"/>
					</linearGradient>
					<path class="st16" d="M7.1,74.2c1.2,0.6,2.7,1.3,3.8,2c0.7,0.5,0.9,1,1.2,1.5c-1.1-0.1-2.3-0.3-3.4-0.6
						c-3.2-1.4-6.1-2.9-9.2-4.3c-0.9-0.2-1.7-0.3-2.6-0.3c-4.5-0.9-7.5-4.7-4.2-5.7c1.4-0.2,2.8-0.1,4.1,0.3
						c5.8,1.7,11.6,3.4,17.1,5.2c1.6,0.5,2.8,1.3,4.4,1.9c1.3,0.4,2.6,0.7,3.9,0.9c3.8,0.5,7.7,0.8,11.5,1.4
						c0.9,0.1,1.5,0.9,2.3,1.4c-1.2,0.1-2.4,0.2-3.5,0.2c-1.4-0.1-2.8-0.4-4.2-0.5c-2.5-0.3-4.9-0.5-7.4-0.9
						c-1.4-0.2-2.8-0.6-4.2-0.9C13.9,75.3,11,74.9,7.1,74.2z"/>
					
						<linearGradient id="SVGID_18_" gradientUnits="userSpaceOnUse" x1="615.777" y1="280.7045" x2="615.777" y2="285.7145" gradientTransform="matrix(1 0 0 -1 0 502)">
						<stop  offset="0" style="stop-color:#E6DFCC"/>
						<stop  offset="0.53" style="stop-color:#E5D9C3"/>
						<stop  offset="1" style="stop-color:#CCBDA6"/>
					</linearGradient>
					<path class="st17" d="M605.8,216.6c4.7-0.1,9.4-0.3,13.9-0.2c2.4,0.1,4.7,0.5,6.9,1.1c0.7,0.2,0.3,1.1-0.3,1.5
						c-1.1,1.1-2.5,1.8-4,2.2c-1.1,0.3-3.9-0.2-5.8-0.5c-2.4-0.3-4.7-0.7-7-1.3c-1.7-0.6-3.4-1.4-5-2.3L605.8,216.6z"/>
					
						<linearGradient id="SVGID_19_" gradientUnits="userSpaceOnUse" x1="567.8699" y1="342.46" x2="567.8699" y2="349.52" gradientTransform="matrix(1 0 0 -1 0 502)">
						<stop  offset="0" style="stop-color:#E6DFCC"/>
						<stop  offset="0.53" style="stop-color:#E5D9C3"/>
						<stop  offset="1" style="stop-color:#CCBDA6"/>
					</linearGradient>
					<path class="st18" d="M570.3,159.5h-10.6l2.3-2.4l-5.7-0.5l13.2-4.2l6.9,3.3l3,1.4c-1.8,0.3-3.5,0.7-5.3,0.9
						c-0.8,0.1-1.6,0.1-2.4,0L570.3,159.5z"/>
					
						<linearGradient id="SVGID_20_" gradientUnits="userSpaceOnUse" x1="554.2858" y1="332.065" x2="554.2858" y2="338.69" gradientTransform="matrix(1 0 0 -1 0 502)">
						<stop  offset="0" style="stop-color:#E6DFCC"/>
						<stop  offset="0.53" style="stop-color:#E5D9C3"/>
						<stop  offset="1" style="stop-color:#CCBDA6"/>
					</linearGradient>
					<path class="st19" d="M544.3,165.8c6.5-0.8,14.1,0.7,18.6-2.5l2.1,2.7c-2.9,1.4-5.9,2.5-8.9,3.4c-3.6,0.9-7.3,0.2-10.7-0.6
						C541.9,168,544.7,166.9,544.3,165.8z"/>
					
						<linearGradient id="SVGID_21_" gradientUnits="userSpaceOnUse" x1="345.8402" y1="334.03" x2="345.8402" y2="338.23" gradientTransform="matrix(1 0 0 -1 0 502)">
						<stop  offset="0" style="stop-color:#E6DFCC"/>
						<stop  offset="0.53" style="stop-color:#E5D9C3"/>
						<stop  offset="1" style="stop-color:#CCBDA6"/>
					</linearGradient>
					<path class="st20" d="M359,166c-0.7,0.5-1.5,0.8-2.4,1.1c-2.1,0.6-4.2,0.9-6.4,0.9c-5.8-0.3-11.4-1-17-1.5
						c-1.8-2.2,0.5-2.7,5.8-2.3c1.7,0.1,4-0.6,5.5-0.4C349.7,164.4,354.5,165.3,359,166z"/>
					
						<linearGradient id="SVGID_22_" gradientUnits="userSpaceOnUse" x1="554.1349" y1="368.1252" x2="554.1349" y2="375.21" gradientTransform="matrix(1 0 0 -1 0 502)">
						<stop  offset="0" style="stop-color:#E6DFCC"/>
						<stop  offset="0.53" style="stop-color:#E5D9C3"/>
						<stop  offset="1" style="stop-color:#CCBDA6"/>
					</linearGradient>
					<path class="st21" d="M565.2,127.5l-4.6,2.8l5,0.1c-2,0.7-4.1,1.6-6.6,2.3c-2,0.6-4.2,2.1-6.7,0.3c-0.4-0.3-2.8,0-4.3-0.1
						c-1.8-0.1-3.5-0.2-5.5-0.3l5.3-2.8c0.4-0.3,0.9-0.5,1.4-0.6c5,0,9.9-0.9,14.6-2.4L565.2,127.5z"/>
					
						<linearGradient id="SVGID_23_" gradientUnits="userSpaceOnUse" x1="616.95" y1="324.56" x2="616.95" y2="331.9343" gradientTransform="matrix(1 0 0 -1 0 502)">
						<stop  offset="0" style="stop-color:#E6DFCC"/>
						<stop  offset="0.53" style="stop-color:#E5D9C3"/>
						<stop  offset="1" style="stop-color:#CCBDA6"/>
					</linearGradient>
					<path class="st22" d="M625.2,170.7l-4.9,0.5c-0.2,1-1.3,2.1-0.6,2.9c1.4,1.5-0.6,2.5-3.6,3.4l-5.8-2l6.4-0.2l0.9-0.6
						c-7.1,0.7-6-1.6-8.8-2.5c0.7-0.5,1.4-0.9,2.1-1.3l4.3,1.6c0.6-0.3,1.1-0.4,1.2-0.6C617.4,169.8,617.8,169.7,625.2,170.7z"/>
					
						<linearGradient id="SVGID_24_" gradientUnits="userSpaceOnUse" x1="665.7159" y1="346.47" x2="665.7159" y2="352" gradientTransform="matrix(1 0 0 -1 0 502)">
						<stop  offset="0" style="stop-color:#E6DFCC"/>
						<stop  offset="0.53" style="stop-color:#E5D9C3"/>
						<stop  offset="1" style="stop-color:#CCBDA6"/>
					</linearGradient>
					<path class="st23" d="M670,153.8l0.5,1.8l-14.1-2.5c4.8-1.1,8.5-2.1,12.5-2.8c3.6-0.6,6,0.3,5.9,1.5c0,0.6-2.2,1.4-3.4,2.1
						L670,153.8z"/>
					
						<linearGradient id="SVGID_25_" gradientUnits="userSpaceOnUse" x1="595.2812" y1="404.81" x2="595.2812" y2="412.25" gradientTransform="matrix(1 0 0 -1 0 502)">
						<stop  offset="0" style="stop-color:#E6DFCC"/>
						<stop  offset="0.53" style="stop-color:#E5D9C3"/>
						<stop  offset="1" style="stop-color:#CCBDA6"/>
					</linearGradient>
					<path class="st24" d="M601.1,92c-1.2,1.1-2.5,2.1-3.9,3c-1.8,0.8-3.6,1.6-5.5,2.2c-8.4-1.9-1.3-4.6-1.8-7.4l12.9,1.7L601.1,92z
						"/>
					
						<linearGradient id="SVGID_26_" gradientUnits="userSpaceOnUse" x1="349.26" y1="318.79" x2="349.26" y2="323.26" gradientTransform="matrix(1 0 0 -1 0 502)">
						<stop  offset="0" style="stop-color:#E6DFCC"/>
						<stop  offset="0.53" style="stop-color:#E5D9C3"/>
						<stop  offset="1" style="stop-color:#CCBDA6"/>
					</linearGradient>
					<path class="st25" d="M352.9,178.7l6.4,1.8c-2.3,0.7-4.6,1.9-7.8,2.4c-4.1,0.6-8.4-0.1-12.2-1.8l2.9-0.9l2.2,1.6L352.9,178.7z"
						/>
					
						<linearGradient id="SVGID_27_" gradientUnits="userSpaceOnUse" x1="500.525" y1="291.06" x2="500.525" y2="293.98" gradientTransform="matrix(1 0 0 -1 0 502)">
						<stop  offset="0" style="stop-color:#E6DFCC"/>
						<stop  offset="0.53" style="stop-color:#E5D9C3"/>
						<stop  offset="1" style="stop-color:#CCBDA6"/>
					</linearGradient>
					<path class="st26" d="M506.8,210.4c-6.9,0.9-7.9,0.8-11.7-1c-0.6-0.3-0.5-0.8-0.8-1.1c1.1-0.1,2.1-0.1,3.2-0.1
						c6-0.6,7.3,1,9.2,2.3L506.8,210.4z"/>
					
						<linearGradient id="SVGID_28_" gradientUnits="userSpaceOnUse" x1="300.8078" y1="291.251" x2="300.8078" y2="294.75" gradientTransform="matrix(1 0 0 -1 0 502)">
						<stop  offset="0" style="stop-color:#E6DFCC"/>
						<stop  offset="0.53" style="stop-color:#E5D9C3"/>
						<stop  offset="1" style="stop-color:#CCBDA6"/>
					</linearGradient>
					<path class="st27" d="M305.9,207.2c0.2,0.7,0.3,1.5,0.1,2.3c-0.4,1.3-3.3,1.3-6.7,1.2c0.1-0.9,0.1-1.6,0.2-2.4l-3.9-0.2
						l-0.1-0.4L305.9,207.2z"/>
					
						<linearGradient id="SVGID_29_" gradientUnits="userSpaceOnUse" x1="184.0659" y1="263.49" x2="184.0659" y2="265.92" gradientTransform="matrix(1 0 0 -1 0 502)">
						<stop  offset="0" style="stop-color:#E6DFCC"/>
						<stop  offset="0.53" style="stop-color:#E5D9C3"/>
						<stop  offset="1" style="stop-color:#CCBDA6"/>
					</linearGradient>
					<path class="st28" d="M177.8,237.3c4.4,0.4,7.3,0.4,8.1-1c1.1-0.1,2.2-0.2,3.3-0.2c0.4,0.7,1.6,1.6,0.9,2.2
						S180.2,238.3,177.8,237.3z"/>
					
						<linearGradient id="SVGID_30_" gradientUnits="userSpaceOnUse" x1="550.085" y1="318.09" x2="550.085" y2="321.58" gradientTransform="matrix(1 0 0 -1 0 502)">
						<stop  offset="0" style="stop-color:#E6DFCC"/>
						<stop  offset="0.53" style="stop-color:#E5D9C3"/>
						<stop  offset="1" style="stop-color:#CCBDA6"/>
					</linearGradient>
					<path class="st29" d="M554.5,180.4l1.5,1.5l-11.9,2C544.7,181.9,548.3,180.6,554.5,180.4z"/>
					
						<linearGradient id="SVGID_31_" gradientUnits="userSpaceOnUse" x1="227.7417" y1="271.29" x2="227.7417" y2="272.8895" gradientTransform="matrix(1 0 0 -1 0 502)">
						<stop  offset="0" style="stop-color:#E6DFCC"/>
						<stop  offset="0.53" style="stop-color:#E5D9C3"/>
						<stop  offset="1" style="stop-color:#CCBDA6"/>
					</linearGradient>
					<path class="st30" d="M230.6,229.4l-1.9,0.1l3.6,0.8l-0.3,0.4c-2.6-0.1-5.7,0.1-7.6-0.4c-2.6-0.6-1.1-1.3,2.5-1.2l3.6,0.1
						L230.6,229.4z"/>
					
						<linearGradient id="SVGID_32_" gradientUnits="userSpaceOnUse" x1="484.5499" y1="290.35" x2="484.5499" y2="292.8778" gradientTransform="matrix(1 0 0 -1 0 502)">
						<stop  offset="0" style="stop-color:#E6DFCC"/>
						<stop  offset="0.53" style="stop-color:#E5D9C3"/>
						<stop  offset="1" style="stop-color:#CCBDA6"/>
					</linearGradient>
					<path class="st31" d="M483.9,211.6c-1.9-0.8-3.4-1.5-0.4-2.4c1.1-0.2,2.2-0.2,3.3,0.1C488.1,210.3,486.8,211,483.9,211.6z"/>
					
						<linearGradient id="SVGID_33_" gradientUnits="userSpaceOnUse" x1="646.704" y1="402.69" x2="646.704" y2="405.68" gradientTransform="matrix(1 0 0 -1 0 502)">
						<stop  offset="0" style="stop-color:#E6DFCC"/>
						<stop  offset="0.53" style="stop-color:#E5D9C3"/>
						<stop  offset="1" style="stop-color:#CCBDA6"/>
					</linearGradient>
					<path class="st32" d="M650.5,98.2l-7.7,1.2c-2.5-2,1.8-2.4,4.2-3c0.9-0.2,2.9,0.6,4.3,1C651.1,97.6,650.8,97.9,650.5,98.2z"/>
					
						<linearGradient id="SVGID_34_" gradientUnits="userSpaceOnUse" x1="309.665" y1="333.02" x2="309.665" y2="335.6" gradientTransform="matrix(1 0 0 -1 0 502)">
						<stop  offset="0" style="stop-color:#E6DFCC"/>
						<stop  offset="0.53" style="stop-color:#E5D9C3"/>
						<stop  offset="1" style="stop-color:#CCBDA6"/>
					</linearGradient>
					<path class="st33" d="M305,166.4l9.3,2.3C309,169.4,306.2,168.8,305,166.4z"/>
					
						<linearGradient id="SVGID_35_" gradientUnits="userSpaceOnUse" x1="456.615" y1="285.66" x2="456.615" y2="287.77" gradientTransform="matrix(1 0 0 -1 0 502)">
						<stop  offset="0" style="stop-color:#E6DFCC"/>
						<stop  offset="0.53" style="stop-color:#E5D9C3"/>
						<stop  offset="1" style="stop-color:#CCBDA6"/>
					</linearGradient>
					<path class="st34" d="M461.2,214.8c-1,0.1-2,0.3-3,0.3c-0.8,0-1.6-0.1-2.4-0.2l0.8,1.4l-4.5-1c0.1-0.2,0.2-0.4,0.3-0.6l8.5-0.5
						L461.2,214.8z"/>
					
						<linearGradient id="SVGID_36_" gradientUnits="userSpaceOnUse" x1="166.9309" y1="291.81" x2="166.9309" y2="294.29" gradientTransform="matrix(1 0 0 -1 0 502)">
						<stop  offset="0" style="stop-color:#E6DFCC"/>
						<stop  offset="0.53" style="stop-color:#E5D9C3"/>
						<stop  offset="1" style="stop-color:#CCBDA6"/>
					</linearGradient>
					<path class="st35" d="M165.8,207.7c1.8,0.8,3.1,1.2,3.4,1.6c0.2,0.2-1.2,0.6-1.9,0.9c-0.9-0.2-1.9-0.5-2.7-0.9
						C164.4,208.9,165.2,208.5,165.8,207.7z"/>
					
						<linearGradient id="SVGID_37_" gradientUnits="userSpaceOnUse" x1="587.29" y1="352.41" x2="587.29" y2="354.26" gradientTransform="matrix(1 0 0 -1 0 502)">
						<stop  offset="0" style="stop-color:#E6DFCC"/>
						<stop  offset="0.53" style="stop-color:#E5D9C3"/>
						<stop  offset="1" style="stop-color:#CCBDA6"/>
					</linearGradient>
					<path class="st36" d="M584.3,147.7l7.3,0.6c-1.7,0.6-3.2,1.3-3.7,1.2c-1.7-0.3-3.4-0.7-5-1.2L584.3,147.7z"/>
					
						<linearGradient id="SVGID_38_" gradientUnits="userSpaceOnUse" x1="367.0307" y1="321.86" x2="367.0307" y2="323.26" gradientTransform="matrix(1 0 0 -1 0 502)">
						<stop  offset="0" style="stop-color:#E6DFCC"/>
						<stop  offset="0.53" style="stop-color:#E5D9C3"/>
						<stop  offset="1" style="stop-color:#CCBDA6"/>
					</linearGradient>
					<path class="st37" d="M369.4,180.1c-1.8-0.1-3.5-0.2-5.2-0.4c-0.2,0,0.3-1,0.4-0.9c1.8,0,3.6,0.1,5.4,0.2
						C369.8,179.4,369.6,179.8,369.4,180.1z"/>
					
						<linearGradient id="SVGID_39_" gradientUnits="userSpaceOnUse" x1="607.05" y1="329.99" x2="607.05" y2="332.66" gradientTransform="matrix(1 0 0 -1 0 502)">
						<stop  offset="0" style="stop-color:#E6DFCC"/>
						<stop  offset="0.53" style="stop-color:#E5D9C3"/>
						<stop  offset="1" style="stop-color:#CCBDA6"/>
					</linearGradient>
					<path class="st38" d="M604.4,171.7c0.2-0.5,0.6-0.9,1-1.3c0.8-0.4,1.6-0.8,2.5-1c0.6,0,1.2,0,1.8,0.2c-0.3,0.4-0.7,0.8-1.2,1
						c-0.9,0.5-2,1-3,1.4L604.4,171.7z"/>
					
						<linearGradient id="SVGID_40_" gradientUnits="userSpaceOnUse" x1="601.88" y1="351.24" x2="601.88" y2="353.7" gradientTransform="matrix(1 0 0 -1 0 502)">
						<stop  offset="0" style="stop-color:#E6DFCC"/>
						<stop  offset="0.53" style="stop-color:#E5D9C3"/>
						<stop  offset="1" style="stop-color:#CCBDA6"/>
					</linearGradient>
					<path class="st39" d="M597.8,149.7l2.4-1.4l5.8,2C602.1,151.6,601.2,149.5,597.8,149.7z"/>
					
						<linearGradient id="SVGID_41_" gradientUnits="userSpaceOnUse" x1="462.275" y1="283.52" x2="462.275" y2="286.0221" gradientTransform="matrix(1 0 0 -1 0 502)">
						<stop  offset="0" style="stop-color:#E6DFCC"/>
						<stop  offset="0.53" style="stop-color:#E5D9C3"/>
						<stop  offset="1" style="stop-color:#CCBDA6"/>
					</linearGradient>
					<path class="st40" d="M462.4,218.5l-1.8-2.4c1.8-0.3,1.8-0.3,3.5,2.1L462.4,218.5z"/>
					
						<linearGradient id="SVGID_42_" gradientUnits="userSpaceOnUse" x1="616.7549" y1="249" x2="616.7549" y2="251.21" gradientTransform="matrix(1 0 0 -1 0 502)">
						<stop  offset="0" style="stop-color:#E6DFCC"/>
						<stop  offset="0.53" style="stop-color:#E5D9C3"/>
						<stop  offset="1" style="stop-color:#CCBDA6"/>
					</linearGradient>
					<path class="st41" d="M594.9,252c0-1.5,3.1-1.3,5.7-1.1c4.4,0.3,8.6,0.8,13.1,0.9c4.8,0.2,9.8,0.1,14.7,0.1
						c0.4,0,0.9-0.1,1.3,0c3,0.2,5.9,0.6,8.8,1.1L594.9,252z"/>
				</g>
			</g>
		</g>
		<g>
			<defs>
				<rect id="SVGID_43_" width="750" height="500"/>
			</defs>
			<clipPath id="SVGID_44_">
				<use xlink:href="#SVGID_43_"  style="overflow:visible;"/>
			</clipPath>
			<g class="st42">
				
					<linearGradient id="SVGID_45_" gradientUnits="userSpaceOnUse" x1="334.45" y1="271.22" x2="334.45" y2="211.78" gradientTransform="matrix(1 0 0 -1 0 502)">
					<stop  offset="0" style="stop-color:#D8BA93"/>
					<stop  offset="0.51" style="stop-color:#E0B889"/>
					<stop  offset="1" style="stop-color:#D4A972"/>
				</linearGradient>
				<path class="st43" d="M-53.6,312.2v-78.5c0,0,26.1-10.1,45.2-14.3s73.1,16.6,132.5,16.6s84.4-5.9,95.1-7.1s10.7,4.8,35.1,10.7
					s47.5,11.9,70.1,13.1s43.4-7.7,61.8-10.1s36.3,3,36.3,3s26.1-6.5,38.6-4.8s30.9,14.9,45.2,14.9c14.3,0,91.5-23.2,108.2-22
					s7.7,5.4,38.6,8.3s48.7,7.1,69.5,17.8v52.3L-53.6,312.2z"/>
				
					<linearGradient id="SVGID_46_" gradientUnits="userSpaceOnUse" x1="139.9796" y1="244.572" x2="49.3096" y2="165.912" gradientTransform="matrix(1 0 0 -1 0 502)">
					<stop  offset="0" style="stop-color:#CCBDA6"/>
					<stop  offset="1" style="stop-color:#E6DFCC;stop-opacity:0"/>
				</linearGradient>
				<path class="st44" d="M-61,289.1c0,0,82.7-34,146.7-27.3s149.3,56,149.3,56H-60.3L-61,289.1z"/>
				
					<linearGradient id="SVGID_47_" gradientUnits="userSpaceOnUse" x1="498.619" y1="232.9937" x2="463.289" y2="238.6638" gradientTransform="matrix(1 0 0 -1 0 502)">
					<stop  offset="0" style="stop-color:#D4A972"/>
					<stop  offset="1" style="stop-color:#E0B88A;stop-opacity:0"/>
				</linearGradient>
				<path class="st45" d="M508.7,257.1l-86,17.7l59-26.3C481.7,248.4,500.7,256.4,508.7,257.1z"/>
				
					<linearGradient id="SVGID_48_" gradientUnits="userSpaceOnUse" x1="695.7591" y1="190.3943" x2="609.0891" y2="204.2943" gradientTransform="matrix(1 0 0 -1 0 502)">
					<stop  offset="0" style="stop-color:#D4A972"/>
					<stop  offset="1" style="stop-color:#E0B88A;stop-opacity:0"/>
				</linearGradient>
				<path class="st46" d="M715.7,295.1c0,0-19.7-18-70-20s-134,37-134,37h204V295.1z"/>
				
					<linearGradient id="SVGID_49_" gradientUnits="userSpaceOnUse" x1="373.82" y1="240.02" x2="373.82" y2="168.43" gradientTransform="matrix(1 0 0 -1 0 502)">
					<stop  offset="0" style="stop-color:#F3C58A"/>
					<stop  offset="0.51" style="stop-color:#FFB15B"/>
					<stop  offset="1" style="stop-color:#EFB366"/>
				</linearGradient>
				<path class="st47" d="M-65.2,300.3c0,0,87.4,16,188.1,3.6s132.8-33,153.3-32.1s76.7,13.4,144.4,8s77.6-10.7,97.2-10.7
					s76.7-10.7,113.2-12.5s58.8,4.5,102.5,2.7c27.1-1.2,53.9-5.1,80.2-11.6V360H-66.1C-66.1,360-66.1,300.3-65.2,300.3z"/>
				
					<linearGradient id="SVGID_50_" gradientUnits="userSpaceOnUse" x1="33.3285" y1="166.22" x2="33.3285" y2="135.49" gradientTransform="matrix(1 0 0 -1 0 502)">
					<stop  offset="0" style="stop-color:#C0702B"/>
					<stop  offset="1" style="stop-color:#EBA955;stop-opacity:0"/>
				</linearGradient>
				<path class="st48" d="M-28.7,361.8c0,0,95.4-33.8,116.8-32.1s-11.6,48.1-11.6,48.1S-28.7,364.5-28.7,361.8z"/>
				
					<linearGradient id="SVGID_51_" gradientUnits="userSpaceOnUse" x1="388.8098" y1="182.08" x2="388.8098" y2="144.98" gradientTransform="matrix(1 0 0 -1 0 502)">
					<stop  offset="0" style="stop-color:#C0702B"/>
					<stop  offset="1" style="stop-color:#EBA955;stop-opacity:0"/>
				</linearGradient>
				<path class="st49" d="M297.6,370.7c0,0-33.9-33.9-18.7-54.4s223.8,48.1,223.8,48.1L297.6,370.7z"/>
				
					<linearGradient id="SVGID_52_" gradientUnits="userSpaceOnUse" x1="784.7962" y1="220.85" x2="784.7962" y2="174.32" gradientTransform="matrix(1 0 0 -1 0 502)">
					<stop  offset="0" style="stop-color:#C0702B"/>
					<stop  offset="1" style="stop-color:#EBA955;stop-opacity:0"/>
				</linearGradient>
				<path class="st50" d="M841.4,272.7c0,0-124.8-5.4-113.2,11.6s113.2,60.6,113.2,60.6S843.2,270.9,841.4,272.7z"/>
				
					<linearGradient id="SVGID_53_" gradientUnits="userSpaceOnUse" x1="663.1" y1="173.76" x2="663.1" y2="140.13" gradientTransform="matrix(1 0 0 -1 0 502)">
					<stop  offset="0" style="stop-color:#C0702B"/>
					<stop  offset="1" style="stop-color:#EBA955;stop-opacity:0"/>
				</linearGradient>
				<path class="st51" d="M532.1,374.3c0,0,35.7-56.2,102.5-52.6s159.6,51.7,159.6,51.7L532.1,374.3z"/>
				
					<linearGradient id="SVGID_54_" gradientUnits="userSpaceOnUse" x1="477.37" y1="217.7281" x2="556.34" y2="217.7281" gradientTransform="matrix(1 0 0 -1 0 502)">
					<stop  offset="0" style="stop-color:#EBA955;stop-opacity:0"/>
					<stop  offset="1" style="stop-color:#C0702B"/>
				</linearGradient>
				<path class="st52" d="M461.6,294.1c0,0,28.5,8,60.6,4.5s63.3-29.4,63.3-29.4L461.6,294.1z"/>
				
					<linearGradient id="SVGID_55_" gradientUnits="userSpaceOnUse" x1="366.67" y1="211.4647" x2="428.37" y2="211.4647" gradientTransform="matrix(1 0 0 -1 0 502)">
					<stop  offset="0" style="stop-color:#C0702B"/>
					<stop  offset="1" style="stop-color:#EBA955;stop-opacity:0"/>
				</linearGradient>
				<path class="st53" d="M354.4,281.1c0,0,44.9,21.4,67.8,18.7s30.6-8.9,28.8-14.6S401.9,294.4,354.4,281.1z"/>
				
					<linearGradient id="SVGID_56_" gradientUnits="userSpaceOnUse" x1="702.215" y1="226.93" x2="702.215" y2="234.21" gradientTransform="matrix(1 0 0 -1 0 502)">
					<stop  offset="0" style="stop-color:#C0702B"/>
					<stop  offset="1" style="stop-color:#EBA955;stop-opacity:0"/>
				</linearGradient>
				<path class="st54" d="M677.1,268c7.2,6,16.5,9,25.9,8.5c9.3-0.4,18-4.5,24.3-11.4L677.1,268z"/>
				
					<linearGradient id="SVGID_57_" gradientUnits="userSpaceOnUse" x1="366.365" y1="51.88" x2="366.365" y2="219" gradientTransform="matrix(1 0 0 -1 0 502)">
					<stop  offset="0" style="stop-color:#C0702B"/>
					<stop  offset="0.52" style="stop-color:#EBA955"/>
					<stop  offset="1" style="stop-color:#F0C083"/>
				</linearGradient>
				<path class="st55" d="M-78.9,332.5c0,0,100.3,20.1,135,18.7s89.6-26.7,141.7-26.7s111-5.4,149.8-12S427.9,283,476,283
					s38.8,32.1,104.3,30.8s215.9-20.8,231.3-5.4v141.7H-78.9C-78.9,450.1-74.9,332.5-78.9,332.5z"/>
				
					<linearGradient id="SVGID_58_" gradientUnits="userSpaceOnUse" x1="491.0854" y1="213.4823" x2="515.4454" y2="157.0323" gradientTransform="matrix(1 0 0 -1 0 502)">
					<stop  offset="0.22" style="stop-color:#C0702B"/>
					<stop  offset="1" style="stop-color:#C0702B;stop-opacity:0"/>
				</linearGradient>
				<path class="st56" d="M453.9,350.2c0,0,11.9-52.9,42.2-55.9c30.3-3,29.7,24.4,71.3,23.2C567.4,317.5,530,372.2,453.9,350.2z"/>
				
					<linearGradient id="SVGID_59_" gradientUnits="userSpaceOnUse" x1="316.65" y1="58.17" x2="316.65" y2="153.5506" gradientTransform="matrix(1 0 0 -1 0 502)">
					<stop  offset="0" style="stop-color:#EBA955;stop-opacity:0"/>
					<stop  offset="1" style="stop-color:#C0702B"/>
				</linearGradient>
				<path class="st57" d="M469.6,443.8c0,0-12.2-90.9-80.3-95.2s-225.7,92.8-225.7,92.8L469.6,443.8z"/>
				
					<linearGradient id="SVGID_60_" gradientUnits="userSpaceOnUse" x1="373.045" y1="-4.28" x2="373.045" y2="154.82" gradientTransform="matrix(1 0 0 -1 0 502)">
					<stop  offset="0" style="stop-color:#EBA955"/>
					<stop  offset="0.2" style="stop-color:#EBA955"/>
					<stop  offset="0.77" style="stop-color:#EDA656"/>
				</linearGradient>
				<path class="st58" d="M-66.9,402c0,0,66.9-28.1,133.7-32.1s135,26.7,196.5,18.7s50.8,0,97.6-8s93.6,2.7,181.8,2.7
					s240.7-36.1,270.1-36.1v159.1H-66.9C-66.9,506.3-64.2,402-66.9,402z"/>
				
					<linearGradient id="SVGID_61_" gradientUnits="userSpaceOnUse" x1="240.695" y1="-77.82" x2="240.695" y2="78.6252" gradientTransform="matrix(1 0 0 -1 0 502)">
					<stop  offset="0" style="stop-color:#EBA955;stop-opacity:0"/>
					<stop  offset="1" style="stop-color:#C0702B"/>
				</linearGradient>
				<path class="st59" d="M579,523.7c0,0-16-97.9-122.2-100.3s-484.5,90.7-554.4,90.7v65.7H579V523.7z"/>
				
					<linearGradient id="SVGID_62_" gradientUnits="userSpaceOnUse" x1="739.425" y1="5.08" x2="739.425" y2="162.86" gradientTransform="matrix(1 0 0 -1 0 502)">
					<stop  offset="0.16" style="stop-color:#C0702B"/>
					<stop  offset="1" style="stop-color:#EBA955;stop-opacity:0"/>
				</linearGradient>
				<path class="st60" d="M821,518.3c0,0-163.2-70.9-163.2-101.6S813,360.5,813,360.5L821,518.3z"/>
				
					<linearGradient id="SVGID_63_" gradientUnits="userSpaceOnUse" x1="528.49" y1="165.59" x2="528.49" y2="170.04" gradientTransform="matrix(1 0 0 -1 0 502)">
					<stop  offset="0" style="stop-color:#EBA955"/>
					<stop  offset="0.2" style="stop-color:#EBA955"/>
					<stop  offset="0.77" style="stop-color:#EDA656"/>
				</linearGradient>
				<path class="st61" d="M528.5,336.4c2.9,0,2.9-4.5,0-4.5S525.6,336.4,528.5,336.4z"/>
				
					<linearGradient id="SVGID_64_" gradientUnits="userSpaceOnUse" x1="50.3809" y1="59.6697" x2="50.3809" y2="115.352" gradientTransform="matrix(1 0 0 -1 0 502)">
					<stop  offset="0" style="stop-color:#EBA955;stop-opacity:0"/>
					<stop  offset="1" style="stop-color:#C0702B"/>
				</linearGradient>
				<path class="st62" d="M-66.1,437c0,0,29.1,10.7,99.2,1.8s132.5-24.4,133.7-35.7s-88.6-18.4-117.1-16s-115.3,24.3-115.3,24.3
					L-66.1,437z"/>
			</g>
		</g>
		<g class="st63">
			<g class="st64">
				<defs>
					<rect id="SVGID_65_" width="750" height="500"/>
				</defs>
				<clipPath id="SVGID_66_">
					<use xlink:href="#SVGID_65_"  style="overflow:visible;"/>
				</clipPath>
				<g class="st65">
					<g class="st2">
						
							<radialGradient id="SVGID_67_" cx="898.09" cy="560.8182" r="673.1916" gradientTransform="matrix(0.9871 0.1602 0.1602 -0.9871 -83.9646 365.9955)" gradientUnits="userSpaceOnUse">
							<stop  offset="0.1" style="stop-color:#000000"/>
							<stop  offset="0.15" style="stop-color:#191605"/>
							<stop  offset="0.21" style="stop-color:#2F2909"/>
							<stop  offset="0.27" style="stop-color:#40370C"/>
							<stop  offset="0.36" style="stop-color:#4B410E"/>
							<stop  offset="0.47" style="stop-color:#524710"/>
							<stop  offset="0.8" style="stop-color:#544910"/>
							<stop  offset="1" style="stop-color:#000000"/>
						</radialGradient>
						<circle class="st66" cx="892.4" cy="-43.7" r="673.1"/>
						
							<radialGradient id="SVGID_68_" cx="456.3748" cy="272.4549" r="22.4408" gradientTransform="matrix(0.9871 0.1602 0.1602 -0.9871 -83.9675 366.002)" gradientUnits="userSpaceOnUse">
							<stop  offset="0" style="stop-color:#D6E098"/>
							<stop  offset="6.000000e-02" style="stop-color:#B2BA7E"/>
							<stop  offset="0.14" style="stop-color:#888F61"/>
							<stop  offset="0.22" style="stop-color:#646847"/>
							<stop  offset="0.31" style="stop-color:#454831"/>
							<stop  offset="0.4" style="stop-color:#2B2E1F"/>
							<stop  offset="0.5" style="stop-color:#181911"/>
							<stop  offset="0.62" style="stop-color:#0A0B07"/>
							<stop  offset="0.76" style="stop-color:#020302"/>
							<stop  offset="1" style="stop-color:#000000"/>
						</radialGradient>
						<circle class="st67" cx="410.2" cy="170.2" r="22.4"/>
						
							<radialGradient id="SVGID_69_" cx="176.3925" cy="89.6538" r="22.44" gradientTransform="matrix(0.9871 0.1602 0.1602 -0.9871 -83.9669 365.9999)" gradientUnits="userSpaceOnUse">
							<stop  offset="0" style="stop-color:#D6E098"/>
							<stop  offset="6.000000e-02" style="stop-color:#B2BA7E"/>
							<stop  offset="0.14" style="stop-color:#888F61"/>
							<stop  offset="0.22" style="stop-color:#646847"/>
							<stop  offset="0.31" style="stop-color:#454831"/>
							<stop  offset="0.4" style="stop-color:#2B2E1F"/>
							<stop  offset="0.5" style="stop-color:#181911"/>
							<stop  offset="0.62" style="stop-color:#0A0B07"/>
							<stop  offset="0.76" style="stop-color:#020302"/>
							<stop  offset="1" style="stop-color:#000000"/>
						</radialGradient>
						<circle class="st68" cx="104.5" cy="305.8" r="22.4"/>
						
							<radialGradient id="SVGID_70_" cx="205.2529" cy="108.4939" r="168.2954" gradientTransform="matrix(0.9871 0.1602 0.1602 -0.9871 -83.9646 365.9955)" gradientUnits="userSpaceOnUse">
							<stop  offset="5.000000e-02" style="stop-color:#000000"/>
							<stop  offset="0.1" style="stop-color:#070B04"/>
							<stop  offset="0.3" style="stop-color:#243513"/>
							<stop  offset="0.48" style="stop-color:#3A541F"/>
							<stop  offset="0.64" style="stop-color:#466726"/>
							<stop  offset="0.75" style="stop-color:#4B6E28"/>
							<stop  offset="0.76" style="stop-color:#506F26"/>
							<stop  offset="0.82" style="stop-color:#727215"/>
							<stop  offset="0.86" style="stop-color:#7F740E"/>
							<stop  offset="0.89" style="stop-color:#7B710E"/>
							<stop  offset="0.91" style="stop-color:#71670C"/>
							<stop  offset="0.94" style="stop-color:#5E560A"/>
							<stop  offset="0.96" style="stop-color:#453F08"/>
							<stop  offset="0.98" style="stop-color:#242104"/>
							<stop  offset="1" style="stop-color:#000000"/>
						</radialGradient>
						<circle class="st69" cx="136" cy="291.8" r="168.3"/>
						<line class="st70" x1="734.8" y1="26.2" x2="104.5" y2="305.8"/>
						
							<radialGradient id="SVGID_71_" cx="753.7491" cy="466.5833" r="448.7633" gradientTransform="matrix(0.9871 0.1602 0.1602 -0.9871 -83.9644 365.9965)" gradientUnits="userSpaceOnUse">
							<stop  offset="0" style="stop-color:#000000"/>
							<stop  offset="0.73" style="stop-color:#834A29"/>
							<stop  offset="1" style="stop-color:#000000"/>
						</radialGradient>
						<circle class="st71" cx="734.8" cy="26.2" r="448.7"/>
						
							<radialGradient id="SVGID_72_" cx="753.7441" cy="466.5827" r="224.3939" gradientTransform="matrix(0.9871 0.1602 0.1602 -0.9871 -83.9646 365.9955)" gradientUnits="userSpaceOnUse">
							<stop  offset="0.15" style="stop-color:#FFFFFF"/>
							<stop  offset="0.21" style="stop-color:#E2D7D7"/>
							<stop  offset="0.29" style="stop-color:#BBA1A0"/>
							<stop  offset="0.36" style="stop-color:#9E7978"/>
							<stop  offset="0.42" style="stop-color:#8C6160"/>
							<stop  offset="0.45" style="stop-color:#865857"/>
							<stop  offset="0.46" style="stop-color:#7F5453"/>
							<stop  offset="0.59" style="stop-color:#49302F"/>
							<stop  offset="0.71" style="stop-color:#211616"/>
							<stop  offset="0.8" style="stop-color:#090606"/>
							<stop  offset="0.85" style="stop-color:#000000"/>
							<stop  offset="0.86" style="stop-color:#040201"/>
							<stop  offset="0.86" style="stop-color:#110804"/>
							<stop  offset="0.87" style="stop-color:#251309"/>
							<stop  offset="0.88" style="stop-color:#422211"/>
							<stop  offset="0.89" style="stop-color:#68351A"/>
							<stop  offset="0.89" style="stop-color:#954B26"/>
							<stop  offset="0.9" style="stop-color:#BA5E2F"/>
							<stop  offset="0.9" style="stop-color:#A6542A"/>
							<stop  offset="0.92" style="stop-color:#7B3E1F"/>
							<stop  offset="0.93" style="stop-color:#552B15"/>
							<stop  offset="0.94" style="stop-color:#361B0E"/>
							<stop  offset="0.95" style="stop-color:#1E0F08"/>
							<stop  offset="0.97" style="stop-color:#0D0703"/>
							<stop  offset="0.98" style="stop-color:#030201"/>
							<stop  offset="1" style="stop-color:#000000"/>
						</radialGradient>
						<circle class="st72" cx="734.8" cy="26.2" r="224.4"/>
						
							<radialGradient id="SVGID_73_" cx="753.7491" cy="466.5833" r="186.9839" gradientTransform="matrix(0.9871 0.1602 0.1602 -0.9871 -83.9644 365.9965)" gradientUnits="userSpaceOnUse">
							<stop  offset="0.15" style="stop-color:#FFFFFF"/>
							<stop  offset="0.28" style="stop-color:#C2C2C2"/>
							<stop  offset="0.43" style="stop-color:#888888"/>
							<stop  offset="0.56" style="stop-color:#575757"/>
							<stop  offset="0.69" style="stop-color:#313131"/>
							<stop  offset="0.81" style="stop-color:#161616"/>
							<stop  offset="0.92" style="stop-color:#060606"/>
							<stop  offset="1" style="stop-color:#000000"/>
						</radialGradient>
						<circle class="st73" cx="734.8" cy="26.2" r="187"/>
						<polyline class="st74" points="734.8,26.2 547.4,119.9 734.8,26.2 922.2,-67.5 734.8,26.2 641.1,-161.2 734.8,26.2 
							828.5,213.6 734.8,26.2 678.4,23.2 734.8,26.2 791.2,29.2 734.8,26.2 737.8,-30.2 734.8,26.2 731.8,82.6 734.8,26.2 
							637.5,99.8 734.8,26.2 832.1,-47.3 734.8,26.2 661.2,-71.1 734.8,26.2 808.4,123.5 734.8,26.2 -249.7,269.9 734.8,26.2 
							1719.3,-217.5 734.8,26.2 491.1,-958.2 734.8,26.2 978.5,1010.7 734.8,26.2 317,-20.8 734.8,26.2 1152.6,73.2 734.8,26.2 
							781.8,-391.6 734.8,26.2 687.8,444 734.8,26.2 -223.6,-220 734.8,26.2 1693.2,272.4 734.8,26.2 981,-932.2 734.8,26.2 
							488.6,984.6 734.8,26.2 153.1,-247.2 734.8,26.2 1316.5,299.6 734.8,26.2 1008.2,-555.5 734.8,26.2 461.4,607.9 734.8,26.2 
							724.4,30 734.8,26.2 745.2,22.5 734.8,26.2 731,15.8 734.8,26.2 738.6,36.6 734.8,26.2 267.6,-85.5 734.8,26.2 1202,137.9 
							734.8,26.2 846.5,-441 734.8,26.2 623.1,493.4 734.8,26.2 -234.8,-304.4 734.8,26.2 1704.3,356.9 734.8,26.2 1065.4,-943.3 
							734.8,26.2 404.2,995.8 734.8,26.2 655.5,76.5 734.8,26.2 814.1,-24.1 734.8,26.2 684.5,-53.1 734.8,26.2 785.1,105.5 
							734.8,26.2 594.2,142.4 734.8,26.2 875.4,-89.9 734.8,26.2 618.6,-114.3 734.8,26.2 851,166.8 734.8,26.2 352.7,143.5 
							734.8,26.2 1116.9,-91.1 734.8,26.2 617.5,-355.9 734.8,26.2 852.1,408.3 734.8,26.2 -320,-75.2 734.8,26.2 1789.6,127.6 
							734.8,26.2 836.2,-1028.6 734.8,26.2 633.4,1081 734.8,26.2 2.5,657 734.8,26.2 1467.1,-604.6 734.8,26.2 104,-706.1 
							734.8,26.2 1365.6,758.5 						"/>
						
							<radialGradient id="SVGID_74_" cx="176.3904" cy="89.6511" r="336.5749" gradientTransform="matrix(0.9871 0.1602 0.1602 -0.9871 -83.9642 366.0029)" gradientUnits="userSpaceOnUse">
							<stop  offset="0.64" style="stop-color:#000000"/>
							<stop  offset="0.72" style="stop-color:#010200"/>
							<stop  offset="0.74" style="stop-color:#050902"/>
							<stop  offset="0.76" style="stop-color:#0C1405"/>
							<stop  offset="0.78" style="stop-color:#162508"/>
							<stop  offset="0.79" style="stop-color:#233B0D"/>
							<stop  offset="0.8" style="stop-color:#2B4810"/>
							<stop  offset="0.8" style="stop-color:#2B4710"/>
							<stop  offset="0.82" style="stop-color:#2C2809"/>
							<stop  offset="0.83" style="stop-color:#2D1204"/>
							<stop  offset="0.85" style="stop-color:#2E0501"/>
							<stop  offset="0.86" style="stop-color:#2E0000"/>
							<stop  offset="0.87" style="stop-color:#250000"/>
							<stop  offset="0.88" style="stop-color:#140000"/>
							<stop  offset="0.9" style="stop-color:#090000"/>
							<stop  offset="0.93" style="stop-color:#020000"/>
							<stop  offset="1" style="stop-color:#000000"/>
						</radialGradient>
						<circle class="st75" cx="104.5" cy="305.8" r="336.5"/>
						
							<radialGradient id="SVGID_75_" cx="688.0642" cy="423.6978" r="6.23" gradientTransform="matrix(0.9871 0.1602 0.1602 -0.9871 -83.9646 365.9955)" gradientUnits="userSpaceOnUse">
							<stop  offset="0.1" style="stop-color:#1D191D"/>
							<stop  offset="0.34" style="stop-color:#0F0D0F"/>
							<stop  offset="0.66" style="stop-color:#040304"/>
							<stop  offset="1" style="stop-color:#000000"/>
						</radialGradient>
						<path class="st76" d="M657,57c-0.6,3.4,1.8,6.6,5.2,7.1c3.4,0.6,6.6-1.8,7.1-5.2c0.6-3.4-1.8-6.6-5.1-7.1
							C660.8,51.3,657.6,53.6,657,57C657,57,657,57,657,57z"/>
						
							<radialGradient id="SVGID_76_" cx="381.1645" cy="223.3277" r="40.9067" gradientTransform="matrix(0.9871 0.1602 0.1602 -0.9871 -83.9288 365.9943)" gradientUnits="userSpaceOnUse">
							<stop  offset="0.1" style="stop-color:#8D926D"/>
							<stop  offset="0.13" style="stop-color:#848966"/>
							<stop  offset="0.27" style="stop-color:#5C5F47"/>
							<stop  offset="0.41" style="stop-color:#3B3D2D"/>
							<stop  offset="0.55" style="stop-color:#212219"/>
							<stop  offset="0.69" style="stop-color:#0F0F0B"/>
							<stop  offset="0.84" style="stop-color:#040403"/>
							<stop  offset="1" style="stop-color:#000000"/>
						</radialGradient>
						<circle class="st77" cx="328.1" cy="206.6" r="40.9"/>
						
							<radialGradient id="SVGID_77_" cx="278.1777" cy="155.4503" r="22.32" gradientTransform="matrix(0.9874 0.166 0.166 -0.9874 -87.741 365.7965)" gradientUnits="userSpaceOnUse">
							<stop  offset="0.1" style="stop-color:#000000"/>
							<stop  offset="0.19" style="stop-color:#060805"/>
							<stop  offset="0.45" style="stop-color:#151B11"/>
							<stop  offset="0.71" style="stop-color:#1D2619"/>
							<stop  offset="1" style="stop-color:#202A1B"/>
						</radialGradient>
						<circle class="st78" cx="214.6" cy="256.9" r="22.3"/>
						
							<radialGradient id="SVGID_78_" cx="259.1176" cy="144.863" r="71.319" gradientTransform="matrix(0.9924 0.158 0.158 -0.9924 -82.5635 369.3807)" gradientUnits="userSpaceOnUse">
							<stop  offset="0.1" style="stop-color:#0E001C"/>
							<stop  offset="0.33" style="stop-color:#08000F"/>
							<stop  offset="0.65" style="stop-color:#020004"/>
							<stop  offset="1" style="stop-color:#000000"/>
						</radialGradient>
						<circle class="st79" cx="195.3" cy="266.2" r="71.5"/>
						
							<radialGradient id="SVGID_79_" cx="418.7647" cy="247.3011" r="11.57" gradientTransform="matrix(0.9865 0.1643 0.1643 -0.9865 -86.5689 365.3122)" gradientUnits="userSpaceOnUse">
							<stop  offset="0.1" style="stop-color:#65432C"/>
							<stop  offset="0.13" style="stop-color:#5F3F29"/>
							<stop  offset="0.29" style="stop-color:#3D281A"/>
							<stop  offset="0.46" style="stop-color:#22170F"/>
							<stop  offset="0.63" style="stop-color:#0F0A07"/>
							<stop  offset="0.81" style="stop-color:#040202"/>
							<stop  offset="1" style="stop-color:#000000"/>
						</radialGradient>
						<circle class="st80" cx="368.4" cy="188.7" r="11.6"/>
					</g>
					
						<radialGradient id="SVGID_80_" cx="698.36" cy="472.94" r="344" gradientTransform="matrix(1 0 0 -1 0 502)" gradientUnits="userSpaceOnUse">
						<stop  offset="0" style="stop-color:#FFB569"/>
						<stop  offset="8.000000e-02" style="stop-color:#FFB569;stop-opacity:0.85"/>
						<stop  offset="0.22" style="stop-color:#FFB569;stop-opacity:0.63"/>
						<stop  offset="0.36" style="stop-color:#FFB569;stop-opacity:0.44"/>
						<stop  offset="0.5" style="stop-color:#FFB569;stop-opacity:0.28"/>
						<stop  offset="0.63" style="stop-color:#FFB569;stop-opacity:0.16"/>
						<stop  offset="0.76" style="stop-color:#FFB569;stop-opacity:7.000000e-02"/>
						<stop  offset="0.89" style="stop-color:#FFB569;stop-opacity:2.000000e-02"/>
						<stop  offset="1" style="stop-color:#FFB569;stop-opacity:0"/>
					</radialGradient>
					<circle class="st81" cx="698.4" cy="29.1" r="344"/>
					
						<radialGradient id="SVGID_81_" cx="698.36" cy="472.94" r="344" gradientTransform="matrix(1 0 0 -1 0 502)" gradientUnits="userSpaceOnUse">
						<stop  offset="0" style="stop-color:#FFB569"/>
						<stop  offset="8.000000e-02" style="stop-color:#FFB569;stop-opacity:0.85"/>
						<stop  offset="0.22" style="stop-color:#FFB569;stop-opacity:0.63"/>
						<stop  offset="0.36" style="stop-color:#FFB569;stop-opacity:0.44"/>
						<stop  offset="0.5" style="stop-color:#FFB569;stop-opacity:0.28"/>
						<stop  offset="0.63" style="stop-color:#FFB569;stop-opacity:0.16"/>
						<stop  offset="0.76" style="stop-color:#FFB569;stop-opacity:7.000000e-02"/>
						<stop  offset="0.89" style="stop-color:#FFB569;stop-opacity:2.000000e-02"/>
						<stop  offset="1" style="stop-color:#FFB569;stop-opacity:0"/>
					</radialGradient>
					<circle class="st82" cx="698.4" cy="29.1" r="344"/>
					
						<radialGradient id="SVGID_82_" cx="698.36" cy="472.94" r="470.55" gradientTransform="matrix(1 0 0 -1 0 502)" gradientUnits="userSpaceOnUse">
						<stop  offset="0" style="stop-color:#FFB569"/>
						<stop  offset="8.000000e-02" style="stop-color:#FFB569;stop-opacity:0.85"/>
						<stop  offset="0.22" style="stop-color:#FFB569;stop-opacity:0.63"/>
						<stop  offset="0.36" style="stop-color:#FFB569;stop-opacity:0.44"/>
						<stop  offset="0.5" style="stop-color:#FFB569;stop-opacity:0.28"/>
						<stop  offset="0.63" style="stop-color:#FFB569;stop-opacity:0.16"/>
						<stop  offset="0.76" style="stop-color:#FFB569;stop-opacity:7.000000e-02"/>
						<stop  offset="0.89" style="stop-color:#FFB569;stop-opacity:2.000000e-02"/>
						<stop  offset="1" style="stop-color:#FFB569;stop-opacity:0"/>
					</radialGradient>
					<circle class="st83" cx="698.4" cy="29.1" r="470.5"/>
				</g>
			</g>
		</g>
	</g>
</g>
</svg>
