<svg xmlns="http://www.w3.org/2000/svg" xmlns:xlink="http://www.w3.org/1999/xlink" viewBox="0 0 750 500"><defs><style>.cls-1{fill:none;}.cls-2{isolation:isolate;}.cls-3{clip-path:url(#clip-path);}.cls-4{fill:url(#Degradado_sin_nombre_48);}.cls-5{opacity:0.68;fill:url(#Degradado_sin_nombre_8);}.cls-6{fill:#faf9fc;opacity:0.14;}.cls-6,.cls-7{mix-blend-mode:overlay;}.cls-7{opacity:0.67;fill:url(#Degradado_sin_nombre_7);}.cls-8{fill:url(#Degradado_sin_nombre_37);}.cls-9{fill:#fff;}.cls-10{fill:url(#Degradado_sin_nombre_6);}.cls-11{opacity:0.35;mix-blend-mode:multiply;fill:url(#Degradado_sin_nombre_6-2);}.cls-12{fill:url(#Degradado_sin_nombre_5);}.cls-13{opacity:0.74;fill:url(#Degradado_sin_nombre_43);}.cls-14{fill:url(#Degradado_sin_nombre_4);}.cls-15{fill:url(#Degradado_sin_nombre_4-2);}.cls-16{fill:url(#Degradado_sin_nombre_4-3);}.cls-17{fill:url(#Degradado_sin_nombre_4-4);}.cls-18{fill:url(#Degradado_sin_nombre_41);}.cls-19{fill:url(#Degradado_sin_nombre_38);}.cls-20{fill:url(#Degradado_sin_nombre_2);}.cls-21{fill:url(#Degradado_sin_nombre_3);}.cls-22{fill:url(#Degradado_sin_nombre_2-2);}.cls-23{fill:url(#Degradado_sin_nombre_38-2);}.cls-24{fill:#400a2c;}.cls-25{opacity:0.3;}.cls-26{opacity:0.4;}</style><clipPath id="clip-path"><rect class="cls-1" width="750" height="500"/></clipPath><linearGradient id="Degradado_sin_nombre_48" x1="375" y1="24.93" x2="375" y2="306.94" gradientUnits="userSpaceOnUse"><stop offset="0" stop-color="#ffbe89"/><stop offset="0.04" stop-color="#ffc28d"/><stop offset="0.36" stop-color="#fbdbab"/><stop offset="0.53" stop-color="#fae4b6"/><stop offset="1" stop-color="#faf4e8"/></linearGradient><linearGradient id="Degradado_sin_nombre_8" x1="-47" y1="152.46" x2="377" y2="152.46" gradientUnits="userSpaceOnUse"><stop offset="0" stop-color="#faf9fc"/><stop offset="0.17" stop-color="#faf9fc" stop-opacity="0.85"/><stop offset="0.57" stop-color="#faf9fc" stop-opacity="0.46"/><stop offset="1" stop-color="#faf9fc" stop-opacity="0"/></linearGradient><linearGradient id="Degradado_sin_nombre_7" x1="35" y1="24.94" x2="783.87" y2="24.94" gradientUnits="userSpaceOnUse"><stop offset="0" stop-color="#faf9fc" stop-opacity="0"/><stop offset="0.42" stop-color="#faf9fc" stop-opacity="0.46"/><stop offset="0.81" stop-color="#faf9fc" stop-opacity="0.85"/><stop offset="0.98" stop-color="#faf9fc"/></linearGradient><radialGradient id="Degradado_sin_nombre_37" cx="375" cy="276.95" r="170" gradientUnits="userSpaceOnUse"><stop offset="0" stop-color="#fff"/><stop offset="1" stop-color="#fff" stop-opacity="0"/></radialGradient><linearGradient id="Degradado_sin_nombre_6" x1="221.38" y1="222.35" x2="221.38" y2="307.68" gradientUnits="userSpaceOnUse"><stop offset="0" stop-color="#ffbe89"/><stop offset="0.08" stop-color="#ffc28d"/><stop offset="0.67" stop-color="#fbdbab"/><stop offset="1" stop-color="#fae4b6"/></linearGradient><linearGradient id="Degradado_sin_nombre_6-2" x1="265.55" y1="221.85" x2="265.55" y2="307.18" xlink:href="#Degradado_sin_nombre_6"/><linearGradient id="Degradado_sin_nombre_5" x1="73.38" y1="157.6" x2="73.38" y2="272.03" gradientUnits="userSpaceOnUse"><stop offset="0" stop-color="#ffa55c"/><stop offset="0.45" stop-color="#fdc082"/><stop offset="1" stop-color="#fae4b6"/></linearGradient><linearGradient id="Degradado_sin_nombre_43" x1="132.61" y1="157.6" x2="132.61" y2="272.03" gradientUnits="userSpaceOnUse"><stop offset="0" stop-color="#ffa55c"/><stop offset="0.34" stop-color="#ffa75e"/><stop offset="0.53" stop-color="#feac66"/><stop offset="0.68" stop-color="#feb674"/><stop offset="0.81" stop-color="#fdc387"/><stop offset="0.92" stop-color="#fbd5a0"/><stop offset="1" stop-color="#fae4b6"/></linearGradient><linearGradient id="Degradado_sin_nombre_4" x1="516.38" y1="363.46" x2="516.38" y2="202.02" gradientUnits="userSpaceOnUse"><stop offset="0" stop-color="#8f3257"/><stop offset="0.1" stop-color="#9b415c"/><stop offset="0.72" stop-color="#e39b7c"/><stop offset="1" stop-color="#ffbe89"/></linearGradient><linearGradient id="Degradado_sin_nombre_4-2" x1="581" y1="208.33" x2="581" y2="519.53" xlink:href="#Degradado_sin_nombre_4"/><linearGradient id="Degradado_sin_nombre_4-3" x1="665.57" y1="362.93" x2="665.57" y2="166.9" xlink:href="#Degradado_sin_nombre_4"/><linearGradient id="Degradado_sin_nombre_4-4" x1="749" y1="149.48" x2="749" y2="542.95" xlink:href="#Degradado_sin_nombre_4"/><linearGradient id="Degradado_sin_nombre_41" x1="195.81" y1="411.93" x2="195.81" y2="243.89" gradientUnits="userSpaceOnUse"><stop offset="0" stop-color="#8f3257"/><stop offset="0.14" stop-color="#933859"/><stop offset="0.31" stop-color="#9f4760"/><stop offset="0.5" stop-color="#b3626b"/><stop offset="0.71" stop-color="#cf867b"/><stop offset="0.93" stop-color="#f2b58f"/><stop offset="1" stop-color="#ffc696"/></linearGradient><linearGradient id="Degradado_sin_nombre_38" x1="283.58" y1="232.18" x2="283.58" y2="394.95" gradientUnits="userSpaceOnUse"><stop offset="0" stop-color="#ad3c69"/><stop offset="0.17" stop-color="#ad3c69" stop-opacity="0.86"/><stop offset="0.53" stop-color="#ad3c69" stop-opacity="0.51"/><stop offset="1" stop-color="#ad3c69" stop-opacity="0"/></linearGradient><linearGradient id="Degradado_sin_nombre_2" x1="434.5" y1="541.96" x2="434.5" y2="273.16" gradientUnits="userSpaceOnUse"><stop offset="0.08" stop-color="#8f3257"/><stop offset="0.17" stop-color="#9b415c"/><stop offset="0.74" stop-color="#e39b7c"/><stop offset="1" stop-color="#ffbe89"/></linearGradient><linearGradient id="Degradado_sin_nombre_3" x1="574" y1="238.38" x2="574" y2="422.13" gradientUnits="userSpaceOnUse"><stop offset="0" stop-color="#ad3c69"/><stop offset="0.41" stop-color="#ad3c69" stop-opacity="0.55"/><stop offset="0.81" stop-color="#ad3c69" stop-opacity="0.16"/><stop offset="1" stop-color="#ad3c69" stop-opacity="0"/></linearGradient><linearGradient id="Degradado_sin_nombre_2-2" x1="325.5" y1="553.16" x2="325.5" y2="369.97" xlink:href="#Degradado_sin_nombre_2"/><linearGradient id="Degradado_sin_nombre_38-2" x1="453.57" y1="348.84" x2="453.57" y2="531.59" xlink:href="#Degradado_sin_nombre_38"/></defs><title>Mesa de trabajo 1 copia 3</title><g class="cls-2"><g id="Background"><g class="cls-3"><rect class="cls-4" width="750" height="500"/><polygon class="cls-5" points="-23.98 134.93 384 157.93 -22.56 169.99 -23.98 134.93"/><polygon class="cls-6" points="-0.81 63.72 755.33 95.24 755.33 -0.4 -0.81 -1.07 -0.81 63.72"/><polygon class="cls-7" points="35 47.93 783.07 56.94 783.87 -7.06 478 31.93 35 47.93"/><polygon class="cls-6" points="763.03 137.93 770 108.93 78 97.93 763.03 137.93"/><polygon class="cls-6" points="782 182.93 781 156.93 416 158.93 782 182.93"/><circle class="cls-8" cx="375" cy="276.95" r="195.02"/><circle class="cls-9" cx="375" cy="276.95" r="98"/></g></g><g id="Objects"><g class="cls-3"><polygon class="cls-10" points="218.14 207.93 129.79 296.28 312.97 302.76 218.14 207.93"/><polygon class="cls-11" points="218.14 207.43 220 295.78 312.97 302.26 218.14 207.43"/><polygon class="cls-12" points="69.03 163.6 -49.44 282.07 196.19 290.76 69.03 163.6"/><polygon class="cls-13" points="69.03 163.6 71.5 285.43 196.19 290.76 69.03 163.6"/><polygon class="cls-14" points="511.62 189.6 381.81 319.41 650.95 328.93 511.62 189.6"/><polygon class="cls-15" points="512.03 189.6 510.67 328.27 651.33 328.27 512.03 189.6"/><polygon class="cls-16" points="662.14 147.61 494.08 315.68 837.06 322.54 662.14 147.61"/><polygon class="cls-17" points="662.14 147.61 660.67 319.6 837.33 322.93 662.14 147.61"/><path class="cls-18" d="M-185.39,313.59l180.78-61a215.45,215.45,0,0,1,128.38-3C339.5,328.43,524.5,311.43,571,319.93l6,103.67H-178Z"/><path class="cls-19" d="M123.43,249.33c-5.67-1.58-11.37-3-17.11-4.14a108,108,0,0,0-14.84-.39C69.8,246.24,55.61,260.15,65,276.53c3.8,6.6,13.52,11.51,20.08,15.32,10.81,6.27,23.49,10.55,31.83,18.34,21.41,20-40,49.43-125.44,66.33v46.83H575.67l-4.67-108C318.29,324.28,158,258.94,123.43,249.33Z"/><path class="cls-20" d="M891,323.93c-2.89-.87-103.87-33.58-175.94-55-44.2-13.14-92.68-10.77-135.93,4.81-32.09,11.56-60.27,32.45-90.51,48-29,15-59,28.24-89.91,38.66a423,423,0,0,1-51.26,14c-16.57,3.35-33.74,2.77-50.12,5.85L-20,439.93l-6,63.55,921-3.22Z"/><path class="cls-21" d="M675,262.24q-2-.08-3.9-.09a118.16,118.16,0,0,0-51.14,10.66C608.82,278,593.61,287,596.08,300.24a16.86,16.86,0,0,0,1.18,3.71c5.09,11.56,23.38,13.63,30.26,24.4,4.22,6.6,3,15.22-1.17,21.84s-10.83,11.66-17.72,16C536,412.13,300.83,480.08,268,483H878l2-166.27c-33.75-9.81-39.32-11-73.33-19.8C772,287.93,711,263.57,675,262.24Z"/><path class="cls-22" d="M752,464.93c-224,15-441.46-114-574-103-120,10-277,61-280,62l32,103H753Z"/><path class="cls-1" d="M227.17,361.13q10.88,1.67,22.41,4.17A92.73,92.73,0,0,0,227.17,361.13Z"/><path class="cls-23" d="M752,464.92C544.71,478.8,343.11,369.24,209.14,361.61a94,94,0,0,0-33.88,11c-11.51,6.42-22.51,17.5-21,30.4,1.69,14.51,17.46,22.48,30.59,29.38A210.15,210.15,0,0,1,237.73,472c7.87,8.12,12.26,34.39,13.16,55H753Z"/><path class="cls-24" d="M500,336.88c-1.71-.27-3.53,2.32-4.07,5.77s.38,6.37,2,6.72c.13,5.17,0,10.35-.34,15.5A67.26,67.26,0,0,1,495.2,380a30.17,30.17,0,0,1-7.44,12.92,19.61,19.61,0,0,1-13.17,5.89,14.43,14.43,0,0,1-12.36-6.35l-1.69,1.05a16.4,16.4,0,0,0,13.81,7.3h.27a21.66,21.66,0,0,0,14.55-6.47,32.17,32.17,0,0,0,7.94-13.75A69.26,69.26,0,0,0,499.65,365c.38-5.45.49-10.95.33-16.43a9.3,9.3,0,0,0,2.16-5C502.68,340.16,501.73,337.15,500,336.88Z"/><path class="cls-24" d="M630.4,392.67c-1-5.78-3.82-10.16-3.39-16.05.23-3.05.9-6,1.12-9.08a21.07,21.07,0,0,0-.13-4.35c0-.4,0-.8,0-1.21a23.33,23.33,0,0,0,12.41,20,45.78,45.78,0,0,1-7.73-17.24c-.77-3.58-1.12-7.25-2.07-10.78-1.09-4-3-8.72-6.68-11.09a17.68,17.68,0,0,0-5-1.84c-5.37-1.51-9-7.62-13-11.26-5.48-5.08-12.82-7.64-20.24-6-5.62,1.22-10,4.7-13.7,8.94-.09.1-.17.2-.26.29-1.29,1.52-2.68,3.79-4.84,3.83-2.65.05-5.41-.23-8,.41-2.78.68-5.14,2.5-7.31,4.37a93,93,0,0,0-7.25,6.93c-3.29,3.52-6.8,7.55-11.59,8.09-4,.44-7.88-1.79-10.4-4.88s-3.9-7-5-10.78c-1-3.2-1.58-7.9-3.81-10.49-.77-.9-2-1.3-2.7-2.31-1-1.57-1.17-4.21-1.62-6-.81.14-.87,1.26-1.27,2-.53.93-1.74,1.17-2.81,1.26a25.27,25.27,0,0,1-3.37,0,2.48,2.48,0,0,0-1,.06,3.42,3.42,0,0,0-.85.57c-1.31,1-3.07.92-4.7.89-2.86-.06-5.73,0-8.59.22a6.37,6.37,0,0,0-2.67.61c-1.73,1-2.21,3.21-3.37,4.81a4.16,4.16,0,0,0-.79,1.3,2.2,2.2,0,0,0,1.33,2.36,8,8,0,0,0,2.86.55,21.06,21.06,0,0,1,8.24,2.58,11.62,11.62,0,0,0,3.17,1.49c1.8.39,4.72-.34,5.76,1.64a6.35,6.35,0,0,1,.54,2c.86,5.16,2.78,10.81,6,15l5.17,6.74a37.13,37.13,0,0,0,6.43,7,24.29,24.29,0,0,0,11.74,4.52,48.85,48.85,0,0,0,8.29.3,15.53,15.53,0,0,0,1.58-.15,92.91,92.91,0,0,1,4.82,8.1c2.49,4.86,2.82,10.2,3.42,15.67.59,5.32.59,10.74,1.11,16.07.5,5.06,1.46,10,1.51,15.14,0,2.57-.3,5.43-1.74,7a12.16,12.16,0,0,0-1.21,1.27,2.19,2.19,0,0,0-.26,1.94,13.39,13.39,0,0,0,7.44-.43L555.33,428a75.19,75.19,0,0,1-.07-9.13c.57-7.95,3.6-15.37,3.58-23.37a47.46,47.46,0,0,1,2.79,14.25c.08,1.78.69,3.36.71,5.13,0,2.35-.54,4.79.25,7a8,8,0,0,0,2.68,3.46c1.62,1.38,3.29,2.67,5,3.86,1.43,1,3,1.56,4.39,2.72a20,20,0,0,0,2.65,2.29,2.12,2.12,0,0,0,2.92-.5c.72-1,.71-2.66.65-4.11-.08-1.87-.26-4-1.36-5.07-1.41-1.38-3.3-.08-5,.07-2.52.23-4.88-2.29-6-5.48-1.33-3.77-1.2-7.95-.8-11.88.63-6.33,2.95-13.72,3.66-20.87a71.51,71.51,0,0,0,25.56-2.06c2.52-.67,5-1.48,7.52-2.23a10.92,10.92,0,0,1,3.44,4.38,13.3,13.3,0,0,1,1,5.95c-.09,1.8-.93,3.42-.77,5.21a14,14,0,0,0,2.33,5.8,89.32,89.32,0,0,0,5,7.87,14.49,14.49,0,0,1,2.76,8.74,64,64,0,0,1-1.26,9.55c-.37,2.36-.62,4.83-1.72,6.84-.6,1.08-1.41,2-2,3a5.06,5.06,0,0,0-.79,3.63,27.68,27.68,0,0,1,8.56.46,3.41,3.41,0,0,0,0-2.85c-.34-.9-.86-1.71-1.12-2.66a10.37,10.37,0,0,1,.14-4.53l1.59-8.86a33.09,33.09,0,0,1,2.13-8,16.5,16.5,0,0,0,1.52-3.68,7.69,7.69,0,0,0-.46-4c-.69-1.86-1.8-3-2.17-5a14.83,14.83,0,0,1,.3-6.66l3.9,5.92a21.39,21.39,0,0,1,3.12,6.09,24,24,0,0,1,.54,6.12c0,3.78,0,7.56.05,11.34,0,3.5-.1,7.38-2.14,9.9-.78,1-1.79,1.64-2.61,2.56a4.34,4.34,0,0,0-1.19,3.58l7.48-.21a1.91,1.91,0,0,0,1-.23c.69-.46.77-1.59.75-2.53-.13-8.44-.75-17.15,1.66-25.09.71-2.36,1.7-4.71,1.59-7.22-.11-2.84-1.61-5.31-3.13-7.52S630.88,395.46,630.4,392.67Z"/><path class="cls-24" d="M779.73,394.67c-1-5.78-3.81-10.16-3.38-16.05.22-3.05.9-6,1.11-9.08a20.39,20.39,0,0,0-.13-4.35c0-.4,0-.8,0-1.21a23.3,23.3,0,0,0,12.4,20A45.78,45.78,0,0,1,782,366.73c-.77-3.58-1.11-7.25-2.07-10.78-1.08-4-3-8.72-6.68-11.09a17.62,17.62,0,0,0-5-1.84c-5.38-1.51-9-7.62-13-11.26-5.48-5.08-12.81-7.64-20.24-6-5.62,1.22-10,4.7-13.7,8.94l-.25.29c-1.3,1.52-2.69,3.79-4.85,3.83-2.65.05-5.41-.23-8,.41-2.78.68-5.13,2.5-7.31,4.37a94.7,94.7,0,0,0-7.24,6.93c-3.3,3.52-6.81,7.55-11.6,8.09-4,.44-7.87-1.79-10.4-4.88s-3.9-7-5.05-10.78c-.95-3.2-1.58-7.9-3.81-10.49-.77-.9-2-1.3-2.7-2.31-1-1.57-1.17-4.21-1.62-6-.81.14-.86,1.26-1.27,2-.53.93-1.74,1.17-2.81,1.26a25.27,25.27,0,0,1-3.37,0,2.48,2.48,0,0,0-1,.06,3.62,3.62,0,0,0-.85.57c-1.31,1-3.07.92-4.7.89-2.86-.06-5.73,0-8.58.22a6.45,6.45,0,0,0-2.68.61c-1.73,1-2.2,3.21-3.37,4.81a4.16,4.16,0,0,0-.79,1.3,2.23,2.23,0,0,0,1.33,2.36,8.12,8.12,0,0,0,2.86.55,21,21,0,0,1,8.24,2.58,11.76,11.76,0,0,0,3.17,1.49c1.8.39,4.72-.34,5.76,1.64a6.64,6.64,0,0,1,.55,2c.85,5.16,2.78,10.81,6,15q2.6,3.36,5.17,6.74a37.13,37.13,0,0,0,6.43,7,24.33,24.33,0,0,0,11.74,4.52,48.89,48.89,0,0,0,8.29.3c.49,0,1-.08,1.59-.15,1.69,2.64,3.38,5.29,4.82,8.1,2.48,4.86,2.81,10.2,3.41,15.67.59,5.32.59,10.74,1.12,16.07.49,5.06,1.46,10,1.5,15.14,0,2.57-.3,5.43-1.74,7a12.07,12.07,0,0,0-1.2,1.27,2.13,2.13,0,0,0-.26,1.94,13.36,13.36,0,0,0,7.43-.43L704.66,430a77.27,77.27,0,0,1-.07-9.13c.57-7.95,3.6-15.37,3.59-23.37a41.39,41.39,0,0,1,1.33,4.31c.58,5.31.58,10.71,1.11,16,.49,5.06,1.46,10,1.5,15.14,0,2.57-.3,5.43-1.74,7a12.07,12.07,0,0,0-1.2,1.27,2.13,2.13,0,0,0-.26,1.94,13.36,13.36,0,0,0,7.43-.43L715.66,428a77.27,77.27,0,0,1-.07-9.13c.17-2.3,4.86-30.51,5.1-30.49a71.51,71.51,0,0,0,25.56-2.06c2.53-.67,5-1.48,7.53-2.23a10.82,10.82,0,0,1,3.43,4.38,13.17,13.17,0,0,1,1,5.95c-.1,1.8-.94,3.42-.78,5.21a14.17,14.17,0,0,0,2.33,5.8,87.16,87.16,0,0,0,5.05,7.87,14.56,14.56,0,0,1,2.76,8.74,62.77,62.77,0,0,1-1.27,9.55c-.37,2.36-.62,4.83-1.72,6.84-.59,1.08-1.41,2-2,3a5.11,5.11,0,0,0-.79,3.63,28.05,28.05,0,0,1,8.57.45,3.43,3.43,0,0,0,0-2.84,27.09,27.09,0,0,1-1.11-2.66,10.36,10.36,0,0,1,.13-4.53L771,426.6a33.09,33.09,0,0,1,2.13-8,15.61,15.61,0,0,0,1.52-3.68,7.69,7.69,0,0,0-.46-4c-.69-1.85-1.79-3-2.17-5a14.69,14.69,0,0,1,.31-6.66l3.89,5.92a21.14,21.14,0,0,1,3.12,6.09,24,24,0,0,1,.55,6.12c0,3.78,0,7.56,0,11.34,0,3.5-.09,7.38-2.13,9.9-.79,1-1.79,1.64-2.61,2.56a4.31,4.31,0,0,0-1.19,3.58l7.47-.21a2,2,0,0,0,1.06-.23c.69-.46.76-1.59.75-2.53-.14-8.44-.75-17.15,1.65-25.09.71-2.36,1.7-4.71,1.6-7.22-.12-2.84-1.62-5.31-3.13-7.52S780.22,397.46,779.73,394.67Z"/><g class="cls-25"><path class="cls-24" d="M628,367.06c0,.28.06.56.09.83,0-.1,0-.21,0-.31,0-.58-.09-1.15-.1-1.73C628,366.26,628,366.67,628,367.06Z"/><path class="cls-24" d="M562.22,417.37a15.55,15.55,0,0,0,0,3.13c0-.6.07-1.19.06-1.78A8.58,8.58,0,0,0,562.22,417.37Z"/><path class="cls-24" d="M633.76,432.22c0,2.88,0,5.79.1,8.68a7.3,7.3,0,0,0,0-1.14C633.87,437.26,633.79,434.74,633.76,432.22Z"/><path class="cls-24" d="M555.18,424.35c-.08,2.49,0,5,.15,7.48l.51,11,.18-.06L555.33,428C555.27,426.76,555.22,425.55,555.18,424.35Z"/></g><path class="cls-24" d="M473.63,431.73a106.53,106.53,0,0,1-4.45-18.31c-.49-3-1.58-6-2.21-9a42.35,42.35,0,0,1-1-9.51,28,28,0,0,1,.27-3.43c.31-2.2.9-4.36,1.16-6.57a20.86,20.86,0,0,0-.58-8c-.73-2.62-1-5.42-1.65-8.08a8.54,8.54,0,0,0-1.76-4c-1.32-1.39-3.42-1.8-4.75-3.18a6,6,0,0,1-1.5-3.37,17,17,0,0,1,0-3.42c.06-.79-.47-2.08.13-2.7.26-.27.66-.36.93-.61a1.3,1.3,0,0,0,.23-1.38,3.32,3.32,0,0,0-.89-1.18,15.75,15.75,0,0,0-2.27-1.8,10.1,10.1,0,0,0-3.92-1.63,6.19,6.19,0,0,0-3.05.25,7.57,7.57,0,0,0-2.56,1.22,1.89,1.89,0,0,0-.7,1.54c.06.51.76,1,.45,1.48-.19.3-.54.48-.69.79a1.21,1.21,0,0,0,.08,1.08c.18.34.43.62.61.95a5,5,0,0,1,.14,3.66,9.56,9.56,0,0,0-.53,3.69,2.51,2.51,0,0,1,.07,1.12c-.3,1-1.75,1-2.38,1.67-1.38,1.58-.82,4.4-.93,6.31a17.69,17.69,0,0,1-2.31,7.94,13.12,13.12,0,0,1-7.75,6.09s0,0,0,.06c-2.26.08-5.52.61-6.42-1.95a2.54,2.54,0,0,0-.59-1.08l-.12-.1c-.44-4-.89-8-1.33-12.12-.19-1.85-.43-4-.65-6.27,0-.33-.07-.65-.1-1s-.09-.9-.14-1.35c0-.29-.05-.6-.07-.93-.12-1.73-.27-3.88-2.18-5.15a6.17,6.17,0,0,0-5.31-.54,8.91,8.91,0,0,0-5.45,6.13,4.4,4.4,0,0,0,1.58,4.4l.08.07.24.13a5,5,0,0,1,2.09,3,1.07,1.07,0,0,0,1.28.82,1.08,1.08,0,0,0,.82-1.28,7.08,7.08,0,0,0-3.06-4.39l-.16-.09a2.24,2.24,0,0,1-.76-2.28,6.87,6.87,0,0,1,4-4.49,4,4,0,0,1,3.44.28c1,.65,1.11,1.76,1.23,3.52,0,.33.05.67.08,1s.1.89.14,1.33.06.66.1,1c.23,2.23.46,4.42.66,6.28.45,4.22.91,8.43,1.36,12.52a2.47,2.47,0,0,0-.82.13c-1.23.51-.21,2.43-.37,3.33a1.07,1.07,0,0,0,0,.66.84.84,0,0,0,.58.33,9,9,0,0,0,1.15.22c0,.37.08.75.13,1.11.72,6.48,1.49,13.37,2.43,21.69.73,6.5,1.5,13.3,2.35,20.78q.89,7.8,1.78,15.61v.11c.23,2,.46,3.95.68,5.92h2.16a.49.49,0,0,0,0-.12l-.69-6v-.11q-.9-7.81-1.78-15.61c-.85-7.48-1.62-14.28-2.36-20.78-.94-8.32-1.71-15.21-2.43-21.68,0-.29-.06-.59-.1-.88a15.07,15.07,0,0,1,1.62.24,43.86,43.86,0,0,1,6.41,1.5,14,14,0,0,0,2.76,3.51c2.32,2.13,4.86,2.82,7.78,3.64a30.74,30.74,0,0,1-2,5.43c-1,1.92-2.13,3.76-3.25,5.6a14.43,14.43,0,0,0-2.28,5.36c-.47,3.68,1.83,7.07,4,10.06,3.34,4.55,3.41,9.65,5.68,14.82a6.6,6.6,0,0,0,1.83,2.77,4.45,4.45,0,0,0,2.3.8.87.87,0,0,1-.15.46,1.26,1.26,0,0,1-.81.42c-.13,0-.27,0-.4.06a2.88,2.88,0,0,0-1.59.64c-.43.41-.74,1.46-.27,1.94s2,.44,2.72.44a17.1,17.1,0,0,0,6.08-1.12,13.11,13.11,0,0,0-.26-3,8.94,8.94,0,0,1,3.88.6c1.25.54,2.29,1.49,3.51,2.09a8.59,8.59,0,0,0,2.61.76,8.72,8.72,0,0,1,.17,1.43,3.33,3.33,0,0,1-.05,1.54c-.29.87-1.12,1.36-1.82,1.87s-1.52.46-2,1.28a2,2,0,0,0-.05,1.89,26.31,26.31,0,0,0,6.08.1,2.91,2.91,0,0,0,1.37-.39,3.17,3.17,0,0,0,.93-1.26l1.11-2.21a12.76,12.76,0,0,1-1.54-3.2c-.1-.31-.18-.63-.26-1l.45,0a4.81,4.81,0,0,0,3.16-.93,4.59,4.59,0,0,0,1.08-2.14,11.39,11.39,0,0,0,.58-2.83A13.51,13.51,0,0,0,473.63,431.73Z"/><g class="cls-26"><path class="cls-24" d="M437.37,408.06c1.12-1.84,2.26-3.68,3.25-5.6a18.15,18.15,0,0,0,.8-1.83c-.88,1.63-1.84,3.22-2.8,4.8a19.35,19.35,0,0,0-1.85,3.66C437,408.74,437.16,408.4,437.37,408.06Z"/><path class="cls-24" d="M421.34,383.38c0-.49-.11-1-.16-1.5A6,6,0,0,0,421.34,383.38Z"/></g><path class="cls-24" d="M374,441.93,271.69,421.47a210,210,0,0,0-75.6-1.22l-32.85,5.48a116.42,116.42,0,0,1-60.81-6.13L-8.83,378.72-12,503.92H750.07v-62Z"/></g></g></g></svg>