<?xml version="1.0" encoding="utf-8"?>
<!-- Generator: Adobe Illustrator 23.1.0, SVG Export Plug-In . SVG Version: 6.00 Build 0)  -->
<svg version="1.1" xmlns="http://www.w3.org/2000/svg" xmlns:xlink="http://www.w3.org/1999/xlink" x="0px" y="0px"
	 viewBox="0 0 750 500" enable-background="new 0 0 750 500" xml:space="preserve">
<g id="BACKGROUND_2">
	<g>
		<defs>
			<rect id="SVGID_1_" width="750" height="500"/>
		</defs>
		<clipPath id="SVGID_2_">
			<use xlink:href="#SVGID_1_"  overflow="visible"/>
		</clipPath>
		<linearGradient id="SVGID_3_" gradientUnits="userSpaceOnUse" x1="375" y1="500" x2="375" y2="-77.235">
			<stop  offset="0.2304" style="stop-color:#FFC080"/>
			<stop  offset="1" style="stop-color:#F0854F"/>
		</linearGradient>
		<rect clip-path="url(#SVGID_2_)" fill="url(#SVGID_3_)" width="750" height="500"/>
		
			<ellipse transform="matrix(0.7071 -0.7071 0.7071 0.7071 -143.6941 267.6396)" clip-path="url(#SVGID_2_)" fill="#FFFA6F" cx="251.223" cy="307.274" rx="116.229" ry="116.229"/>
		<linearGradient id="SVGID_4_" gradientUnits="userSpaceOnUse" x1="251.2226" y1="423.5027" x2="251.2226" y2="191.0452">
			<stop  offset="0" style="stop-color:#FFD13D;stop-opacity:0"/>
			<stop  offset="0.2895" style="stop-color:#FFD03A;stop-opacity:0.2895"/>
			<stop  offset="0.5273" style="stop-color:#FFCD30;stop-opacity:0.5273"/>
			<stop  offset="0.7467" style="stop-color:#FFC81E;stop-opacity:0.7467"/>
			<stop  offset="0.9539" style="stop-color:#FFC206;stop-opacity:0.9539"/>
			<stop  offset="1" style="stop-color:#FFC000"/>
		</linearGradient>
		<circle opacity="0.2" clip-path="url(#SVGID_2_)" fill="url(#SVGID_4_)" cx="251.223" cy="307.274" r="116.229"/>
		<radialGradient id="SVGID_5_" cx="251.2226" cy="307.274" r="224.7033" gradientUnits="userSpaceOnUse">
			<stop  offset="0.1571" style="stop-color:#FFFFFF"/>
			<stop  offset="0.2643" style="stop-color:#FFFEFA;stop-opacity:0.8729"/>
			<stop  offset="0.3856" style="stop-color:#FFFBED;stop-opacity:0.7289"/>
			<stop  offset="0.514" style="stop-color:#FFF5D6;stop-opacity:0.5766"/>
			<stop  offset="0.6472" style="stop-color:#FFEEB6;stop-opacity:0.4185"/>
			<stop  offset="0.7842" style="stop-color:#FFE48D;stop-opacity:0.256"/>
			<stop  offset="0.9224" style="stop-color:#FFD85C;stop-opacity:0.092"/>
			<stop  offset="1" style="stop-color:#FFD13D;stop-opacity:0"/>
		</radialGradient>
		<circle opacity="0.8" clip-path="url(#SVGID_2_)" fill="url(#SVGID_5_)" cx="251.223" cy="307.274" r="224.703"/>
		<linearGradient id="SVGID_6_" gradientUnits="userSpaceOnUse" x1="419.4588" y1="280.2318" x2="419.4588" y2="222.6678">
			<stop  offset="0" style="stop-color:#FFFFFF;stop-opacity:0"/>
			<stop  offset="1" style="stop-color:#FFFFFF"/>
		</linearGradient>
		<path clip-path="url(#SVGID_2_)" fill="url(#SVGID_6_)" d="M502.78,259.234c-5.461,0-10.418,2.102-14.153,5.519
			c-5.83-12.456-18.469-21.087-33.13-21.087c-2.09,0-4.135,0.185-6.13,0.521c0.004-0.175,0.026-0.346,0.026-0.521
			c0-11.597-9.401-20.998-20.998-20.998c-6.723,0-12.694,3.172-16.537,8.088c-6.12-2.45-12.794-3.812-19.79-3.812
			c-22.373,0-41.513,13.794-49.412,33.336c-2.054-0.671-4.242-1.045-6.52-1.045c-11.597,0-20.997,9.401-20.997,20.998h208.638
			C523.778,268.635,514.377,259.234,502.78,259.234z"/>
		<linearGradient id="SVGID_7_" gradientUnits="userSpaceOnUse" x1="154.5728" y1="224.893" x2="154.5728" y2="183.5801">
			<stop  offset="0" style="stop-color:#FFFFFF;stop-opacity:0"/>
			<stop  offset="1" style="stop-color:#FFFFFF"/>
		</linearGradient>
		<path clip-path="url(#SVGID_2_)" fill="url(#SVGID_7_)" d="M199.618,205.056c-3.73-12.422-15.247-21.476-28.884-21.476
			c-14.621,0-26.809,10.405-29.571,24.214c-2.682-1.777-5.894-2.818-9.352-2.818c-6.752,0-12.564,3.955-15.293,9.666
			c-2.372-2.047-5.456-3.293-8.835-3.293c-7.48,0-13.543,6.064-13.543,13.543h120.866
			C215.006,216.058,211.136,206.797,199.618,205.056z"/>
		
			<linearGradient id="SVGID_8_" gradientUnits="userSpaceOnUse" x1="-414.6227" y1="184.9157" x2="-414.6227" y2="123.2121" gradientTransform="matrix(-1 0 0 1 282.5099 0)">
			<stop  offset="0" style="stop-color:#FFFFFF;stop-opacity:0"/>
			<stop  offset="1" style="stop-color:#FFFFFF"/>
		</linearGradient>
		<path clip-path="url(#SVGID_2_)" fill="url(#SVGID_8_)" d="M607.82,162.408c5.853,0,11.167,2.253,15.171,5.916
			c6.249-13.351,19.797-22.604,35.512-22.604c2.24,0,4.433,0.198,6.57,0.559c-0.005-0.188-0.028-0.37-0.028-0.559
			c0-12.431,10.077-22.508,22.508-22.508c7.207,0,13.607,3.4,17.726,8.67c6.56-2.627,13.714-4.086,21.213-4.086
			c23.982,0,44.498,14.786,52.965,35.733c2.202-0.719,4.547-1.12,6.989-1.12c12.431,0,22.508,10.077,22.508,22.508H585.312
			C585.312,172.485,595.389,162.408,607.82,162.408z"/>
		<linearGradient id="SVGID_9_" gradientUnits="userSpaceOnUse" x1="131.2387" y1="87.8325" x2="977.5765" y2="87.8325">
			<stop  offset="0" style="stop-color:#FFFFFF;stop-opacity:0"/>
			<stop  offset="1" style="stop-color:#FFFFFF"/>
		</linearGradient>
		<path opacity="0.4" clip-path="url(#SVGID_2_)" fill="url(#SVGID_9_)" d="M977.577,87.832c0,2.365-189.459,4.282-423.169,4.282
			s-423.169-1.917-423.169-4.282c0-2.365,189.459-4.282,423.169-4.282S977.577,85.467,977.577,87.832z"/>
		
			<linearGradient id="SVGID_10_" gradientUnits="userSpaceOnUse" x1="-1021.2859" y1="44.8461" x2="708.5913" y2="44.8461" gradientTransform="matrix(-0.5197 0 0 1 306.7666 0)">
			<stop  offset="0" style="stop-color:#FFFFFF;stop-opacity:0"/>
			<stop  offset="1" style="stop-color:#FFFFFF"/>
		</linearGradient>
		<path opacity="0.4" clip-path="url(#SVGID_2_)" fill="url(#SVGID_10_)" d="M-61.488,44.846c0,2.365,201.252,4.282,449.509,4.282
			s449.509-1.917,449.509-4.282s-201.252-4.282-449.509-4.282S-61.488,42.481-61.488,44.846z"/>
		
			<linearGradient id="SVGID_11_" gradientUnits="userSpaceOnUse" x1="-640.7712" y1="146.4993" x2="800.3188" y2="146.4993" gradientTransform="matrix(-0.3617 0 0 1 125.1094 0)">
			<stop  offset="0" style="stop-color:#FFFFFF;stop-opacity:0"/>
			<stop  offset="1" style="stop-color:#FFFFFF"/>
		</linearGradient>
		<path opacity="0.4" clip-path="url(#SVGID_2_)" fill="url(#SVGID_11_)" d="M-164.366,146.499c0,0.926,116.684,1.676,260.621,1.676
			s260.621-0.751,260.621-1.676c0-0.926-116.684-1.676-260.621-1.676S-164.366,145.573-164.366,146.499z"/>
		
			<linearGradient id="SVGID_12_" gradientUnits="userSpaceOnUse" x1="-1467.5789" y1="97.8426" x2="-26.4887" y2="97.8426" gradientTransform="matrix(-0.3617 0 0 1 125.1094 0)">
			<stop  offset="0" style="stop-color:#FFFFFF;stop-opacity:0"/>
			<stop  offset="1" style="stop-color:#FFFFFF"/>
		</linearGradient>
		<ellipse opacity="0.6" clip-path="url(#SVGID_2_)" fill="url(#SVGID_12_)" cx="395.312" cy="97.843" rx="260.621" ry="1.201"/>
		
			<linearGradient id="SVGID_13_" gradientUnits="userSpaceOnUse" x1="-1450.542" y1="31.8822" x2="1497.0851" y2="31.8822" gradientTransform="matrix(0.2691 0 0 1 413.1963 0)">
			<stop  offset="0" style="stop-color:#FFFFFF;stop-opacity:0"/>
			<stop  offset="1" style="stop-color:#FFFFFF"/>
		</linearGradient>
		<ellipse opacity="0.6" clip-path="url(#SVGID_2_)" fill="url(#SVGID_13_)" cx="419.459" cy="31.882" rx="396.603" ry="1.201"/>
		
			<linearGradient id="SVGID_14_" gradientUnits="userSpaceOnUse" x1="-1522.0643" y1="189.8447" x2="283.4841" y2="189.8447" gradientTransform="matrix(0.2691 0 0 1 413.1963 0)">
			<stop  offset="0" style="stop-color:#FFFFFF;stop-opacity:0"/>
			<stop  offset="1" style="stop-color:#FFFFFF"/>
		</linearGradient>
		<ellipse opacity="0.2" clip-path="url(#SVGID_2_)" fill="url(#SVGID_14_)" cx="246.545" cy="189.845" rx="242.937" ry="1.201"/>
		
			<linearGradient id="SVGID_15_" gradientUnits="userSpaceOnUse" x1="-886.8953" y1="174.6914" x2="420.5451" y2="174.6914" gradientTransform="matrix(0.2691 0 0 1 413.1963 0)">
			<stop  offset="0" style="stop-color:#FFFFFF;stop-opacity:0"/>
			<stop  offset="1" style="stop-color:#FFFFFF"/>
		</linearGradient>
		<ellipse opacity="0.2" clip-path="url(#SVGID_2_)" fill="url(#SVGID_15_)" cx="350.449" cy="174.691" rx="175.916" ry="1.351"/>
		
			<linearGradient id="SVGID_16_" gradientUnits="userSpaceOnUse" x1="-934.2773" y1="68.6109" x2="7118.6958" y2="68.6109" gradientTransform="matrix(-0.0553 0 0 1 903.2036 0)">
			<stop  offset="0" style="stop-color:#FFFFFF;stop-opacity:0"/>
			<stop  offset="1" style="stop-color:#FFFFFF"/>
		</linearGradient>
		<ellipse opacity="0.4" clip-path="url(#SVGID_2_)" fill="url(#SVGID_16_)" cx="732.204" cy="68.611" rx="222.665" ry="1.201"/>
		
			<linearGradient id="SVGID_17_" gradientUnits="userSpaceOnUse" x1="5285.4297" y1="15.0574" x2="17649.6309" y2="15.0574" gradientTransform="matrix(-0.0553 0 0 1 903.2036 0)">
			<stop  offset="0" style="stop-color:#FFFFFF;stop-opacity:0"/>
			<stop  offset="1" style="stop-color:#FFFFFF"/>
		</linearGradient>
		<path opacity="0.4" clip-path="url(#SVGID_2_)" fill="url(#SVGID_17_)" d="M-72.821,15.057c0,0.663,153.06,1.201,341.87,1.201
			s341.87-0.538,341.87-1.201c0-0.663-153.06-1.2-341.87-1.2S-72.821,14.394-72.821,15.057z"/>
		
			<linearGradient id="SVGID_18_" gradientUnits="userSpaceOnUse" x1="-367.5751" y1="155.6957" x2="468.4902" y2="155.6957" gradientTransform="matrix(0.4181 0 0 1 165.3236 0)">
			<stop  offset="0" style="stop-color:#FFFFFF;stop-opacity:0"/>
			<stop  offset="1" style="stop-color:#FFFFFF"/>
		</linearGradient>
		<ellipse opacity="0.6" clip-path="url(#SVGID_2_)" fill="url(#SVGID_18_)" cx="186.42" cy="155.696" rx="174.779" ry="1.276"/>
		<path clip-path="url(#SVGID_2_)" fill="#D4722B" d="M775.747,283.497c0,0-47.01,10.976-50.822,14.439
			c-3.812,3.463-21.808,15.388-27.508,17.298c-5.7,1.91-22.044,7.002-32.208,9.279c-10.164,2.277-36.846,10.357-41.928,10.357
			c-5.082,0-43.199,18.467-58.445,19.622c-15.247,1.154-29.223-10.388-35.575-9.234c-1.777,0.323-6.24,1.911-11.994,4.055
			c-0.376-0.996-0.62-2.163-1.076-2.683c-0.667-0.76-2.479-4.127-3.05-4.779c-0.572-0.652-8.388-5.213-8.388-5.213
			s-4.194-0.217-4.766-1.955c-0.572-1.738-2.478-15.639-2.478-16.943c0-1.303-0.953-3.475-1.525-4.127
			c-0.572-0.652-1.144-24.609-1.144-24.609s-1.334-1.955-1.716-2.389c-0.381-0.435-6.101-2.172-6.101-2.172s0,19.395,0,20.264
			c0,0.869-1.525,3.546-1.525,3.546s-0.381,2.971,0,3.84c0.381,0.869-1.144,9.123-1.144,9.775s-0.953,1.738-1.906,1.738
			c-0.953,0-1.967-3.475-1.651-4.562c0.316-1.086,0.697-9.123,0.507-9.992s-1.335-15.143-1.335-15.143s-5.147,1.244-5.719,0.592
			c-0.572-0.652-6.915-4.379-7.392-3.836c-0.477,0.543-2.521,1.444-4.047,1.226c-1.525-0.217-5.719,0.652-5.529,1.52
			c0.191,0.869,1.144,6.299,1.335,7.385c0.191,1.086-2.288,8.037-2.288,8.037l-2.288,4.996l0.381,21.669c0,0-2.288,4.779-2.86,0.217
			c-0.572-4.561-0.191-15.146-0.381-15.798c-0.191-0.652-2.288-0.135-2.288-0.135l-2.097,0.415c0,0-1.525,5.638-1.716,6.289
			c-0.191,0.652,0.572,4.779,0.763,5.43c0.191,0.652-2.288,1.896-2.288,2.982c0,1.086-3.241,12.164-3.432,14.119
			c-0.191,1.955,0,14.77,0,14.77s-37.918-2.373-55.706-5.836c-17.788-3.463-47.01-10.388-55.904-10.388s-37.152,7.831-57.963,16.612
			c-20.811,8.781-60.198,24.94-80.527,18.015c-20.329-6.925-49.551-6.925-49.551-6.925l-19.058,34.626v45.014h693.718
			L775.747,283.497z"/>
		<linearGradient id="SVGID_19_" gradientUnits="userSpaceOnUse" x1="468.2748" y1="454.9081" x2="468.2748" y2="283.497">
			<stop  offset="0" style="stop-color:#FFC080"/>
			<stop  offset="1" style="stop-color:#F0854F;stop-opacity:0"/>
		</linearGradient>
		<path opacity="0.4" clip-path="url(#SVGID_2_)" fill="url(#SVGID_19_)" d="M775.747,283.497c0,0-47.01,10.976-50.822,14.439
			c-3.812,3.463-21.808,15.388-27.508,17.298c-5.7,1.91-22.044,7.002-32.208,9.279c-10.164,2.277-36.846,10.357-41.928,10.357
			c-5.082,0-43.199,18.467-58.445,19.622c-15.247,1.154-29.223-10.388-35.575-9.234c-1.777,0.323-6.24,1.911-11.994,4.055
			c-0.376-0.996-0.62-2.163-1.076-2.683c-0.667-0.76-2.479-4.127-3.05-4.779c-0.572-0.652-8.388-5.213-8.388-5.213
			s-4.194-0.217-4.766-1.955c-0.572-1.738-2.478-15.639-2.478-16.943c0-1.303-0.953-3.475-1.525-4.127
			c-0.572-0.652-1.144-24.609-1.144-24.609s-1.334-1.955-1.716-2.389c-0.381-0.435-6.101-2.172-6.101-2.172s0,19.395,0,20.264
			c0,0.869-1.525,3.546-1.525,3.546s-0.381,2.971,0,3.84c0.381,0.869-1.144,9.123-1.144,9.775s-0.953,1.738-1.906,1.738
			c-0.953,0-1.967-3.475-1.651-4.562c0.316-1.086,0.697-9.123,0.507-9.992s-1.335-15.143-1.335-15.143s-5.147,1.244-5.719,0.592
			c-0.572-0.652-6.915-4.379-7.392-3.836c-0.477,0.543-2.521,1.444-4.047,1.226c-1.525-0.217-5.719,0.652-5.529,1.52
			c0.191,0.869,1.144,6.299,1.335,7.385c0.191,1.086-2.288,8.037-2.288,8.037l-2.288,4.996l0.381,21.669c0,0-2.288,4.779-2.86,0.217
			c-0.572-4.561-0.191-15.146-0.381-15.798c-0.191-0.652-2.288-0.135-2.288-0.135l-2.097,0.415c0,0-1.525,5.638-1.716,6.289
			c-0.191,0.652,0.572,4.779,0.763,5.43c0.191,0.652-2.288,1.896-2.288,2.982c0,1.086-3.241,12.164-3.432,14.119
			c-0.191,1.955,0,14.77,0,14.77s-37.918-2.373-55.706-5.836c-17.788-3.463-47.01-10.388-55.904-10.388s-37.152,7.831-57.963,16.612
			c-20.811,8.781-60.198,24.94-80.527,18.015c-20.329-6.925-49.551-6.925-49.551-6.925l-19.058,34.626v45.014h693.718
			L775.747,283.497z"/>
		<g clip-path="url(#SVGID_2_)">
			<path fill="#D4722B" d="M604.132,357.565c0-1.718,2.281-14.083,2.281-16.488c0-2.404,1.037-25.762,1.037-25.762
				s0.622-2.061,1.659-2.748c1.037-0.687,4.148-9.961,4.355-12.709c0.207-2.748,0-8.587,1.245-12.023
				c1.244-3.435,5.185-3.435,5.185-3.435s1.867,8.467,1.244,10.546c-0.622,2.08,0.622,8.83,1.244,11.234
				c0.622,2.404,5.628-1.328,6.071-2.063c0.443-0.734,2.64-14.046,2.64-14.046s2.696-12.709,2.696-14.427
				c0-1.717-1.037-46.615-1.037-47.646c0-1.03,7.259-6.685,7.259-6.685s2.904-1.72,3.526,0.685s1.685,44.371,1.685,44.371
				l5.159,5.889c0,0,2.696-2.405,3.319-3.435c0.622-1.031,0.415-1.542,0.415-4.977c0-3.435,3.111-21.27,3.111-24.127
				c0-2.858-0.207-5.588,0.83-5.588c1.037,0,12.237-2.002,13.896-0.972c1.659,1.031,4.252,24.795,5.393,26.684
				c1.141,1.889,7.985-5.843,8.918-7.389c0.933-1.546,2.074-13.74,2.074-18.205c0-4.465,0.622-10.305,0.622-10.305s3.526,0,5.185,0
				s4.77-32.288,4.77-35.38c0-3.091,0-8.931,0.415-11.679c0.415-2.748,7.259-3.435,7.259-5.496c0-2.061,0.415-10.992,0.415-13.74
				c0-2.748-0.415-8.244,1.037-10.648c1.452-2.405,4.77-6.183,6.637-6.183c1.867,0,9.333,4.465,9.333,4.465
				s1.659,19.236,2.074,20.953c0.415,1.717,3.526,8.931,3.733,10.648c0.207,1.717,0.415,21.984,0.83,23.701s0,7.277,0,8.994
				s1.254,3.108,2.302,1.374c1.047-1.734,3.298-3.155,3.298-4.529c0-1.374-2.489-17.518-2.489-19.236s1.867-10.305,1.867-10.305
				s11.2,3.092,12.237,7.213c1.037,4.122,4.563,8.587,4.563,8.587s1.037,10.648,1.037,12.022c0,1.374,3.526,1.717,4.356,1.717
				s2.253,10.305,2.253,10.305s0,17.862,0,19.283c0,1.421,2.904,4.809,3.497,5.792c0.594,0.983,3.168,5.152,3.168,5.152
				l4.563,118.506H602.68C602.68,365.466,604.132,359.283,604.132,357.565z"/>
			<linearGradient id="SVGID_20_" gradientUnits="userSpaceOnUse" x1="686.9902" y1="365.4657" x2="686.9902" y2="140.8198">
				<stop  offset="0" style="stop-color:#FFC080"/>
				<stop  offset="1" style="stop-color:#F0854F;stop-opacity:0"/>
			</linearGradient>
			<path opacity="0.4" fill="url(#SVGID_20_)" d="M604.132,357.565c0-1.718,2.281-14.083,2.281-16.488
				c0-2.404,1.037-25.762,1.037-25.762s0.622-2.061,1.659-2.748c1.037-0.687,4.148-9.961,4.355-12.709
				c0.207-2.748,0-8.587,1.245-12.023c1.244-3.435,5.185-3.435,5.185-3.435s1.867,8.467,1.244,10.546
				c-0.622,2.08,0.622,8.83,1.244,11.234c0.622,2.404,5.628-1.328,6.071-2.063c0.443-0.734,2.64-14.046,2.64-14.046
				s2.696-12.709,2.696-14.427c0-1.717-1.037-46.615-1.037-47.646c0-1.03,7.259-6.685,7.259-6.685s2.904-1.72,3.526,0.685
				s1.685,44.371,1.685,44.371l5.159,5.889c0,0,2.696-2.405,3.319-3.435c0.622-1.031,0.415-1.542,0.415-4.977
				c0-3.435,3.111-21.27,3.111-24.127c0-2.858-0.207-5.588,0.83-5.588c1.037,0,12.237-2.002,13.896-0.972
				c1.659,1.031,4.252,24.795,5.393,26.684c1.141,1.889,7.985-5.843,8.918-7.389c0.933-1.546,2.074-13.74,2.074-18.205
				c0-4.465,0.622-10.305,0.622-10.305s3.526,0,5.185,0s4.77-32.288,4.77-35.38c0-3.091,0-8.931,0.415-11.679
				c0.415-2.748,7.259-3.435,7.259-5.496c0-2.061,0.415-10.992,0.415-13.74c0-2.748-0.415-8.244,1.037-10.648
				c1.452-2.405,4.77-6.183,6.637-6.183c1.867,0,9.333,4.465,9.333,4.465s1.659,19.236,2.074,20.953
				c0.415,1.717,3.526,8.931,3.733,10.648c0.207,1.717,0.415,21.984,0.83,23.701s0,7.277,0,8.994s1.254,3.108,2.302,1.374
				c1.047-1.734,3.298-3.155,3.298-4.529c0-1.374-2.489-17.518-2.489-19.236s1.867-10.305,1.867-10.305s11.2,3.092,12.237,7.213
				c1.037,4.122,4.563,8.587,4.563,8.587s1.037,10.648,1.037,12.022c0,1.374,3.526,1.717,4.356,1.717s2.253,10.305,2.253,10.305
				s0,17.862,0,19.283c0,1.421,2.904,4.809,3.497,5.792c0.594,0.983,3.168,5.152,3.168,5.152l4.563,118.506H602.68
				C602.68,365.466,604.132,359.283,604.132,357.565z"/>
		</g>
		<g clip-path="url(#SVGID_2_)">
			<path fill="#D4722B" d="M32.882,325.963c2.123-0.22,6.066-16.751,6.066-23.2c0-6.449,0-13.973,0-15.048
				s14.861-5.568,14.861-5.568s-0.607-6.387,2.123-7.475c2.729-1.089,5.762-7.314,5.762-9.733c0-2.418-1.82-17.01-1.82-17.01
				s15.81-2.442,18.197-1.882c2.387,0.559,13.648,8.8,15.467,9.418c1.82,0.618,19.538-11.617,19.538-12.424
				c0-0.806,9.274-0.522,9.274-0.522s5.156,13.463,6.976,13.275c1.82-0.188,3.336-8.407,3.336-9.482
				c0-1.075,7.947,3.226,7.947,3.226s4.549,3.829,4.549,4.635c0,0.806-0.061,11.813-0.061,13.694c0,1.881,5.67,1.687,5.8,4.086
				c0.13,2.399,0.519,17.182,0.519,18.331c0,1.149,3.89,5.802,5.058,7.75c1.167,1.948,7.003,38.112,7.003,39.261
				c0,1.149,1.815,2.915,1.815,2.915l1.686-5.856c0,0,0.648-4.319,1.167-5.636c0.519-1.317,3.891-1.781,3.891-1.781l0.389-3.028
				c0,0,3.242-2.748,3.113-3.539c-0.13-0.791,1.037-16.538,1.037-16.538s1.686-0.864,2.204-0.917
				c0.519-0.054,6.743,1.141,6.743,1.141l0.519,15.476c0,0,0.778-0.195,1.297-0.249c0.519-0.054,0.964-7.746,1.612-7.928
				c0.648-0.182,3.782,3.637,3.782,3.637l1.089,14.174c0,0,4.798,4.904,5.706,5.615c0.908,0.71,0.843,1.803,0.843,2.549
				c0,0.747,6.095,7.568,6.549,7.924c0.454,0.355,0.389,8.536,0.389,9.226c0,0.69,1.038,3.914,1.556,3.861
				c0.519-0.054,2.205-2.296,2.075-2.742c-0.13-0.446,0.778-2.953,1.297-3.121c0.519-0.169,0.778-6.63,0.648-7.536
				c-0.13-0.906,0.13-29.447,0.908-30.216c0.778-0.77,8.331-5.222,8.331-5.222s2.007,32.87,2.007,34.316
				c0,1.446,6.119,5.512,6.119,5.512s2.04,4.488,2.04,7.38c0,2.891,1.224,14.332,2.856,15.609
				c1.632,1.277,3.264,31.832,3.264,31.832L35.308,425.157c0,0,0-60.481,0-66.393c0-5.912-3.943-19.209-5.459-22.814
				C28.333,332.345,30.759,326.182,32.882,325.963z"/>
			
				<linearGradient id="SVGID_21_" gradientUnits="userSpaceOnUse" x1="133.8926" y1="421.392" x2="133.8926" y2="244.6689" gradientTransform="matrix(1 -0.1135 0 1 0 9.8159)">
				<stop  offset="0" style="stop-color:#FFC080"/>
				<stop  offset="1" style="stop-color:#F0854F;stop-opacity:0"/>
			</linearGradient>
			<path opacity="0.4" fill="url(#SVGID_21_)" d="M32.882,325.963c2.123-0.22,6.066-16.751,6.066-23.2c0-6.449,0-13.973,0-15.048
				s14.861-5.568,14.861-5.568s-0.607-6.387,2.123-7.475c2.729-1.089,5.762-7.314,5.762-9.733c0-2.418-1.82-17.01-1.82-17.01
				s15.81-2.442,18.197-1.882c2.387,0.559,13.648,8.8,15.467,9.418c1.82,0.618,19.538-11.617,19.538-12.424
				c0-0.806,9.274-0.522,9.274-0.522s5.156,13.463,6.976,13.275c1.82-0.188,3.336-8.407,3.336-9.482
				c0-1.075,7.947,3.226,7.947,3.226s4.549,3.829,4.549,4.635c0,0.806-0.061,11.813-0.061,13.694c0,1.881,5.67,1.687,5.8,4.086
				c0.13,2.399,0.519,17.182,0.519,18.331c0,1.149,3.89,5.802,5.058,7.75c1.167,1.948,7.003,38.112,7.003,39.261
				c0,1.149,1.815,2.915,1.815,2.915l1.686-5.856c0,0,0.648-4.319,1.167-5.636c0.519-1.317,3.891-1.781,3.891-1.781l0.389-3.028
				c0,0,3.242-2.748,3.113-3.539c-0.13-0.791,1.037-16.538,1.037-16.538s1.686-0.864,2.204-0.917
				c0.519-0.054,6.743,1.141,6.743,1.141l0.519,15.476c0,0,0.778-0.195,1.297-0.249c0.519-0.054,0.964-7.746,1.612-7.928
				c0.648-0.182,3.782,3.637,3.782,3.637l1.089,14.174c0,0,4.798,4.904,5.706,5.615c0.908,0.71,0.843,1.803,0.843,2.549
				c0,0.747,6.095,7.568,6.549,7.924c0.454,0.355,0.389,8.536,0.389,9.226c0,0.69,1.038,3.914,1.556,3.861
				c0.519-0.054,2.205-2.296,2.075-2.742c-0.13-0.446,0.778-2.953,1.297-3.121c0.519-0.169,0.778-6.63,0.648-7.536
				c-0.13-0.906,0.13-29.447,0.908-30.216c0.778-0.77,8.331-5.222,8.331-5.222s2.007,32.87,2.007,34.316
				c0,1.446,6.119,5.512,6.119,5.512s2.04,4.488,2.04,7.38c0,2.891,1.224,14.332,2.856,15.609
				c1.632,1.277,3.264,31.832,3.264,31.832L35.308,425.157c0,0,0-60.481,0-66.393c0-5.912-3.943-19.209-5.459-22.814
				C28.333,332.345,30.759,326.182,32.882,325.963z"/>
		</g>
		<path clip-path="url(#SVGID_2_)" fill="#A64F12" d="M779.63,273.239c-4.222-1.572-21.028-2.358-25.329-2.358
			c-4.301,0-40.527-1.572-42.215,0c-1.689,1.572-21.192,12.435-27.018,15.06c-8.443,3.806-46.437,32.891-54.036,32.891
			c-7.599,0-41.793,13.757-46.437,18.08c-4.644,4.323-19.419,22.01-19.419,22.01s-5.066,3.93-10.976,3.93
			c-5.91,0-26.174,2.358-32.928,2.358c-6.755,0-30.395-3.144-33.772-3.144s-37.15-14.15-44.749-15.722
			c-7.599-1.572-24.063,9.04-27.862,12.577c-3.799,3.537-37.15,17.294-48.97,15.722c-11.82-1.572-23.641-3.144-29.551-3.93
			c-5.91-0.786-54.88-16.508-63.323-16.508c-8.443,0-21.952,0-27.862,0c-5.91,0-21.108,5.503-28.707,8.647
			c-7.599,3.144-40.527,23.582-48.126,25.155c-7.599,1.572-27.942,5.71-54.115-0.579c-26.174-6.289-37.914-19.073-47.202-25.362
			c-9.287-6.289-14.353-16.508-22.374-18.473c-8.021-1.965-22.374-6.682-28.284-6.682c-5.91,0-39.682,1.572-39.682,1.572V524
			h808.848l16.042-244.472C801.582,279.528,783.852,274.811,779.63,273.239z"/>
		<linearGradient id="SVGID_22_" gradientUnits="userSpaceOnUse" x1="389.1373" y1="507.9465" x2="389.1373" y2="368.6948">
			<stop  offset="0.573" style="stop-color:#FFC080"/>
			<stop  offset="1" style="stop-color:#F0854F;stop-opacity:0"/>
		</linearGradient>
		<path opacity="0.4" clip-path="url(#SVGID_2_)" fill="url(#SVGID_22_)" d="M779.63,273.239
			c-4.222-1.572-21.028-2.358-25.329-2.358c-4.301,0-40.527-1.572-42.215,0c-1.689,1.572-21.192,12.435-27.018,15.06
			c-8.443,3.806-46.437,32.891-54.036,32.891c-7.599,0-41.793,13.757-46.437,18.08c-4.644,4.323-19.419,22.01-19.419,22.01
			s-5.066,3.93-10.976,3.93c-5.91,0-26.174,2.358-32.928,2.358c-6.755,0-30.395-3.144-33.772-3.144s-37.15-14.15-44.749-15.722
			c-7.599-1.572-24.063,9.04-27.862,12.577c-3.799,3.537-37.15,17.294-48.97,15.722c-11.82-1.572-23.641-3.144-29.551-3.93
			c-5.91-0.786-54.88-16.508-63.323-16.508c-8.443,0-21.952,0-27.862,0c-5.91,0-21.108,5.503-28.707,8.647
			c-7.599,3.144-40.527,23.582-48.126,25.155c-7.599,1.572-27.942,5.71-54.115-0.579c-26.174-6.289-37.914-19.073-47.202-25.362
			c-9.287-6.289-14.353-16.508-22.374-18.473c-8.021-1.965-22.374-6.682-28.284-6.682c-5.91,0-39.682,1.572-39.682,1.572V524
			h808.848l16.042-244.472C801.582,279.528,783.852,274.811,779.63,273.239z"/>
		<path clip-path="url(#SVGID_2_)" fill="#8C3300" d="M754.901,293.825c-1.192,0-7.152,2.012-11.523,2.012
			c-4.371,0-17.483,8.451-20.265,10.06c-2.781,1.61-10.331,12.475-14.702,15.694c-4.371,3.219-15.496,10.865-16.291,14.889
			c-0.795,4.024-12.318,17.706-14.702,21.328c-2.384,3.622-5.166,0.805-7.947,0.805c-2.781,0-5.563,10.865-9.139,16.902
			c-3.576,6.036-27.02,16.902-30.993,18.511c-3.974,1.61-12.318-3.219-15.894-3.219s-17.881,7.244-21.854,7.244
			c-3.974,0-11.126-5.232-14.304-8.451c-3.179-3.219-13.113-5.634-14.304-5.634c-1.192,0-17.881,1.61-19.073,1.61
			c-1.192,0-9.536,0-11.92,0.805c-2.384,0.805-9.934,2.817-11.92,2.817c-1.987,0-19.271-2.213-20.662-3.622
			c-1.391-1.409-10.728,0-12.318,0c-1.589,0-18.278,15.292-18.278,15.292s-26.622,10.865-28.609,12.877
			c-1.987,2.012-12.318,8.853-12.318,8.853l-22.649,1.61l-16.291,1.207c0,0,13.588,2.574-1.412,2.574c-5,0-31-3.038-36-3.038
			s-50-16.415-63-16.415s-57-7.891-60-10.929s-21-5.064-25-5.064s-12,6.077-16.928,6.077c-4.928,0-12.072-1.013-20.072-1.013
			s-14.5,5.57-19,10.128c-4.5,4.557-54.5-11.647-62.824-15.192c-8.325-3.545-43.176-48.613-50.176-58.741
			c-7-10.128-13-20.255-25-23.294s-57-17.217-57-17.217l-6.667,213.694h830.667V293.825
			C776.533,293.825,756.093,293.825,754.901,293.825z"/>
		<g clip-path="url(#SVGID_2_)">
			<path fill="#8C3300" d="M525.409,389.754l0.631-0.211c-1.048-1.734-3.122-2.863-3.122-2.863
				C524.066,387.664,525.409,389.754,525.409,389.754z"/>
			<path fill="#8C3300" d="M524.965,383.52c0,0,0.176,2.102,0.994,4.572c-1.497-2.541-3.361-4.333-3.361-4.333
				c1.467,1.937,3.402,5.798,3.402,5.798l0.447-0.15l0.184-0.061l0.277-0.093C526.908,389.253,525.444,385.594,524.965,383.52z"/>
			<path fill="#8C3300" d="M528.765,388.632c0,0,0.632-2.489,1.447-3.989c0,0-1.696,2.203-2.154,4.225L528.765,388.632z"/>
			<path fill="#8C3300" d="M527.703,387.905c-0.064-1.234-0.134-3.276,0-4.642c0,0-0.315,1.291-0.449,3.027
				c-0.229-1.601-0.464-3.59-0.466-5.028c0,0-0.313,2.056-0.19,4.71c-0.305-1.693-0.627-3.723-0.721-5.2
				c0,0-0.286,4.214,0.711,8.588l0.392-0.131l0.239-0.08l0.034-0.011l0.261-0.087l0.172-0.058l0.082-0.027l0.451-0.151
				c0,0,0.62-4.251,1.429-6.698C529.646,382.116,528.313,384.859,527.703,387.905z"/>
		</g>
		<g clip-path="url(#SVGID_2_)">
			<path fill="#8C3300" d="M528.714,388.613l0.665-0.034c-0.544-1.951-2.237-3.597-2.237-3.597
				C527.982,386.238,528.714,388.613,528.714,388.613z"/>
			<path fill="#8C3300" d="M529.962,382.488c0,0-0.396,2.072-0.271,4.671c-0.759-2.85-2.073-5.077-2.073-5.077
				c0.892,2.26,1.719,6.499,1.719,6.499l0.471-0.024l0.194-0.01l0.291-0.015C530.293,388.532,529.865,384.614,529.962,382.488z"/>
			<path fill="#8C3300" d="M532.247,388.433c0,0,1.278-2.228,2.466-3.453c0,0-2.225,1.666-3.21,3.491L532.247,388.433z"/>
			<path fill="#8C3300" d="M531.42,387.448c0.27-1.206,0.751-3.192,1.247-4.471c0,0-0.651,1.159-1.246,2.795
				c0.21-1.604,0.518-3.583,0.902-4.968c0,0-0.854,1.896-1.448,4.486c0.161-1.712,0.397-3.755,0.703-5.202
				c0,0-1.408,3.982-1.624,8.463l0.412-0.021l0.252-0.013l0.036-0.002l0.274-0.014l0.182-0.009l0.087-0.005l0.475-0.024
				c0,0,1.739-3.928,3.176-6.068C534.848,382.394,532.826,384.678,531.42,387.448z"/>
		</g>
		<g clip-path="url(#SVGID_2_)">
			<path fill="#8C3300" d="M246.136,403.564l0.847,0.08c-0.327-2.57-2.166-4.966-2.166-4.966
				C245.65,400.423,246.136,403.564,246.136,403.564z"/>
			<path fill="#8C3300" d="M248.849,396.043c0,0-0.884,2.549-1.207,5.861c-0.433-3.747-1.684-6.809-1.684-6.809
				c0.711,3.025,0.973,8.544,0.973,8.544l0.6,0.057l0.247,0.023l0.372,0.035C248.15,403.754,248.334,398.716,248.849,396.043z"/>
			<path fill="#8C3300" d="M250.642,403.99c0,0,2.029-2.583,3.76-3.914c0,0-3.125,1.697-4.709,3.824L250.642,403.99z"/>
			<path fill="#8C3300" d="M249.777,402.59c0.565-1.476,1.542-3.901,2.406-5.428c0,0-1.038,1.346-2.094,3.306
				c0.562-1.991,1.319-4.439,2.061-6.121c0,0-1.432,2.242-2.663,5.409c0.521-2.137,1.197-4.679,1.852-6.454
				c0,0-2.519,4.78-3.621,10.41l0.526,0.05l0.321,0.03l0.046,0.004l0.35,0.033l0.232,0.022l0.111,0.01l0.606,0.057
				c0,0,2.928-4.649,5.143-7.092C255.051,396.828,252.07,399.344,249.777,402.59z"/>
		</g>
		<g clip-path="url(#SVGID_2_)">
			<path fill="#8C3300" d="M257.185,405.38l1.519,0.144c-0.774-2.613-4.236-5.162-4.236-5.162
				C256.083,402.181,257.185,405.38,257.185,405.38z"/>
			<path fill="#8C3300" d="M261.469,398.008c0,0-1.389,2.501-1.72,5.813c-1.051-3.806-3.512-6.982-3.512-6.982
				c1.494,3.099,2.371,8.676,2.371,8.676l1.076,0.102l0.442,0.042l0.666,0.063C260.793,405.721,260.748,400.662,261.469,398.008z"/>
			<path fill="#8C3300" d="M265.26,406.144c0,0,3.43-2.451,6.422-3.662c0,0-5.453,1.477-8.122,3.501L265.26,406.144z"/>
			<path fill="#8C3300" d="M263.612,404.67c0.9-1.444,2.462-3.814,3.891-5.287c0,0-1.753,1.279-3.493,3.174
				c0.856-1.963,2.025-4.372,3.225-6.011c0,0-2.389,2.151-4.353,5.25c0.771-2.114,1.79-4.623,2.827-6.362
				c0,0-4.141,4.626-5.691,10.214l0.943,0.089l0.576,0.054l0.081,0.008l0.627,0.059l0.415,0.039l0.198,0.019l1.087,0.103
				c0,0,4.882-4.464,8.654-6.76C272.599,399.26,267.464,401.572,263.612,404.67z"/>
		</g>
		<g clip-path="url(#SVGID_2_)">
			<path fill="#8C3300" d="M466.406,402.243l1.116-0.537c-2.236-2.741-6.239-4.155-6.239-4.155
				C463.565,398.958,466.406,402.243,466.406,402.243z"/>
			<path fill="#8C3300" d="M464.451,391.493c0,0,0.707,3.617,2.658,7.703c-3.205-4.029-6.946-6.653-6.946-6.653
				c3.04,2.983,7.29,9.196,7.29,9.196l0.791-0.381l0.325-0.156l0.49-0.236C469.059,400.966,465.707,394.98,464.451,391.493z"/>
			<path fill="#8C3300" d="M472.342,399.386c0,0,0.7-4.509,1.918-7.341c0,0-2.7,4.295-3.168,7.943L472.342,399.386z"/>
			<path fill="#8C3300" d="M470.265,398.404c-0.343-2.134-0.846-5.676-0.852-8.091c0,0-0.34,2.335-0.268,5.397
				c-0.712-2.73-1.507-6.135-1.775-8.639c0,0-0.196,3.668,0.516,8.262c-0.868-2.869-1.83-6.323-2.273-8.871
				c0,0,0.25,7.423,2.874,14.78l0.693-0.333l0.423-0.204l0.06-0.029l0.461-0.222l0.305-0.147l0.146-0.07l0.799-0.384
				c0,0,0.355-7.576,1.387-12.06C472.762,387.792,470.824,392.93,470.265,398.404z"/>
		</g>
		<path clip-path="url(#SVGID_2_)" fill="#521200" d="M-49.562,388.692c0,0,40.533-1.746,46-2.795s28.366-6.86,37.367-6.86
			s33.036,23.165,47.036,23.165s58.692,20.494,62.692,20.494s25,4.196,35,0c10-4.196,35.072,1.253,49.036,1.253
			c13.964,0,57.964,5.041,57.964,5.041c12,2.098,64,10.491,74,6.294s47,5.076,58-1.219s40-0.88,44-5.076
			s27.387-11.641,33.387-14.788c6-3.147,20.614,3.248,30.614,1.15c10-2.098,34-14.707,44-14.707s52,9.115,58,9.115
			s27-19.17,40-21.268c13-2.098,43,28.959,52,26.861c9-2.098,34-12.589,38-12.589s26-18.883,26-18.883v133.233h-821L-49.562,388.692
			z"/>
		<path clip-path="url(#SVGID_2_)" fill="#521200" d="M163.428,356.621c-0.977,0-1.541,0.436-1.541,3.449
			c0,3.088,0.409,26.659,0.409,29.014c0,2.355,0.152,3.74-1.062,3.74c-1.213,0-1.517-0.762-1.517-2.216s0-15.647,0-17.261
			c0-1.614-0.215-2.217-1.042-2.217c-0.827,0-1.511,0.16-1.511,1.598s0.277,7.977,0.277,9.224c0,1.247,0.076,1.801-0.91,1.801
			c-0.986,0-1.365-0.415-1.365-1.731c0-1.316,0-40.699,0-41.567s-0.459-1.736-1.564-1.736c-1.105,0-1.193,0.686-1.193,1.897
			c0,1.211-0.15,36.535-0.15,41.059c0,4.525,0.326,5.849,3.431,6.45v8.578c0,0,0.007,2.493-1.964,2.286
			c-1.972-0.208-3.64-0.485-3.64-5.748s0.253-33.5,0.253-35.163c0-1.662-0.099-2.446-1.223-2.446c-1.124,0-1.864,0.774-1.864,3.08
			c0,2.307,0,35.752,0,38.753s1.663,6.556,8.087,7.11v26.971h8.087v-27.802c0,0,7.841-0.138,7.841-4.617c0-4.479,0-28.286,0-29.849
			s-0.459-2.056-1.449-2.056c-0.991,0-1.801,0.576-1.801,2.139c0,1.563,0,23.488,0,24.721c0,1.234-0.225,1.974-0.901,1.974
			c-0.675,0-1.621,0.288-1.621-2.18s0-33.695,0-35.011S164.636,356.621,163.428,356.621z"/>
		<path clip-path="url(#SVGID_2_)" fill="#521200" d="M458.451,431.694l7.845-7.983l-9.025,6.607c0,0,3.795-5.349,5.948-7.59
			l-6.561,6.31c0,0,1.28-5.091,2.459-9.063c0,0-2.615,4.601-3.436,7.944l-0.256-8.495l-0.974,9.124c0,0-2.154-9.714-2.308-9.714
			c-0.154,0,1.128,9.163,1.179,9.95l-2.769-7.118l1.487,7.118c0,0-2.923-5.349-4.513-8.927c0,0,2.615,8.455,3.384,9.832
			l-4.307-4.798c0,0,2.974,4.837,3.538,5.27l-8.307-4.995l7.282,5.585c0,0-8.563-2.124-8.563-2.006c0,0.118,9.691,3.972,9.691,3.972
			h8.204c0,0,5.743-2.792,9.281-4.09C467.732,428.626,460.194,431.143,458.451,431.694z"/>
		<path clip-path="url(#SVGID_2_)" fill="#521200" d="M575.429,401.486l9.154-12.146l-10.53,10.052c0,0,4.427-8.137,6.94-11.548
			l-7.656,9.6c0,0,1.493-7.745,2.869-13.788c0,0-3.052,7-4.009,12.086l-0.299-12.924l-1.137,13.881c0,0-2.513-14.779-2.693-14.779
			s1.316,13.941,1.376,15.138l-3.231-10.83l1.735,10.83c0,0-3.41-8.137-5.265-13.582c0,0,3.052,12.864,3.949,14.958l-5.026-7.299
			c0,0,3.47,7.359,4.128,8.017l-9.693-7.599l8.496,8.496c0,0-9.992-3.231-9.992-3.052s11.308,6.043,11.308,6.043h9.573
			c0,0,6.701-4.248,10.83-6.223C586.258,396.819,577.463,400.648,575.429,401.486z"/>
		<path clip-path="url(#SVGID_2_)" fill="#521200" d="M646.416,376.77c-0.989,0-1.648,1.154-1.401,3.791
			c0.247,2.637,0.495,7.17,0.495,8.736c0,1.566-0.659,2.39-1.731,2.39c-1.072,0-1.483-0.495-1.483-1.978
			c0-1.483-0.33-26.707-0.33-30.416c0-3.709-2.308-3.214-3.214-3.214c-0.907,0-1.154,2.39-1.154,3.956
			c0,1.566,0.082,26.213,0.082,27.943c0,1.731-0.742,2.225-1.813,2.225c-1.071,0-2.63-1.071-2.63-2.802
			c0-1.731-0.172-32.693-0.007-38.38c0.165-5.687-2.72-5.357-4.368-5.192c-1.648,0.165-2.72,1.401-2.72,5.604
			c0,4.203,0.495,37.885,0.659,41.512c0.191,4.2-6.099,1.896-6.428,0c-0.33-1.896-0.605-18.327-0.742-21.625
			c-0.206-4.986-2.06-5.44-3.874-4.945c-1.813,0.495-3.049,2.637-2.967,5.11c0.082,2.472,0.907,23.52,1.236,25.416
			s1.236,4.038,4.368,4.368c3.132,0.33,9.478,0.082,9.478,0.082l0.577,15.989h6.511l-0.989-16.236c0,0,1.072-0.659,4.863-0.906
			c3.791-0.247,8.736-0.412,9.23-2.06c0.495-1.648,0.742-10.549,0.742-14.753C648.806,377.182,647.405,376.77,646.416,376.77z"/>
		<g clip-path="url(#SVGID_2_)">
			<path fill="#521200" d="M123.889,422.561h1.871c-1.247-6.757-5.769-12.67-5.769-12.67
				C122.174,414.325,123.889,422.561,123.889,422.561z"/>
			<path fill="#521200" d="M128.268,401.866c0,0-1.407,7.005-1.428,15.901c-1.723-9.863-5.095-17.696-5.095-17.696
				c2.183,7.872,3.898,22.49,3.898,22.49h1.326h0.545h0.82C128.334,422.561,127.694,409.109,128.268,401.866z"/>
			<path fill="#521200" d="M133.837,422.561c0,0,3.905-7.385,7.418-11.362c0,0-6.487,5.302-9.512,11.362H133.837z"/>
			<path fill="#521200" d="M131.654,419.053c0.931-4.07,2.566-10.768,4.14-15.049c0,0-1.993,3.844-3.899,9.325
				c0.818-5.439,1.967-12.143,3.242-16.806c0,0-2.669,6.326-4.708,15.066c0.698-5.819,1.651-12.751,2.717-17.641
				c0,0-4.521,13.353-5.769,28.614h1.161h0.71h0.1h0.773h0.511h0.244h1.339c0,0,5.444-13.108,9.786-20.167
				C142.002,402.394,135.999,409.839,131.654,419.053z"/>
		</g>
		<g clip-path="url(#SVGID_2_)">
			<path fill="#521200" d="M161.564,425.839h1.105c-0.737-3.992-3.407-7.484-3.407-7.484
				C160.551,420.974,161.564,425.839,161.564,425.839z"/>
			<path fill="#521200" d="M164.15,413.614c0,0-0.831,4.138-0.844,9.392c-1.018-5.826-3.009-10.453-3.009-10.453
				c1.289,4.65,2.302,13.285,2.302,13.285h0.783h0.322h0.485C164.189,425.839,163.811,417.893,164.15,413.614z"/>
			<path fill="#521200" d="M167.44,425.839c0,0,2.307-4.362,4.382-6.711c0,0-3.832,3.132-5.619,6.711H167.44z"/>
			<path fill="#521200" d="M166.15,423.767c0.55-2.404,1.515-6.361,2.446-8.89c0,0-1.177,2.271-2.303,5.508
				c0.483-3.213,1.162-7.173,1.915-9.927c0,0-1.576,3.737-2.781,8.899c0.412-3.437,0.975-7.532,1.605-10.421
				c0,0-2.671,7.888-3.407,16.902h0.686h0.419h0.059h0.456h0.302h0.144h0.791c0,0,3.216-7.743,5.78-11.913
				C172.263,413.926,168.717,418.324,166.15,423.767z"/>
		</g>
		<g clip-path="url(#SVGID_2_)">
			<path fill="#521200" d="M152.018,426.878l1.075-0.255c-1.638-3.714-5.042-6.496-5.042-6.496
				C149.91,422.379,152.018,426.878,152.018,426.878z"/>
			<path fill="#521200" d="M151.714,414.387c0,0,0.146,4.218,1.346,9.334c-2.335-5.434-5.34-9.476-5.34-9.476
				c2.327,4.227,5.305,12.395,5.305,12.395l0.762-0.181l0.313-0.074l0.471-0.112C154.573,426.272,152.371,418.628,151.714,414.387z"
				/>
			<path fill="#521200" d="M157.735,425.522c0,0,1.238-4.777,2.715-7.541c0,0-3.006,3.932-3.919,7.827L157.735,425.522z"/>
			<path fill="#521200" d="M156.003,423.804c-0.019-2.466,0.007-6.539,0.328-9.214c0,0-0.621,2.481-0.97,5.891
				c-0.271-3.238-0.525-7.248-0.427-10.101c0,0-0.672,4-0.653,9.301c-0.392-3.439-0.789-7.554-0.843-10.51
				c0,0-0.779,8.291,0.585,17.232l0.667-0.158l0.408-0.097l0.058-0.014l0.444-0.105l0.294-0.07l0.141-0.033l0.769-0.182
				c0,0,1.342-8.276,2.876-12.925C159.68,412.819,157.244,417.916,156.003,423.804z"/>
		</g>
		<path clip-path="url(#SVGID_2_)" fill="#330900" d="M765.085,379.039c-0.667,0.635-34,4.762-39,6.667c-5,1.905-8,15.557-11,16.827
			s-9.333-1.905-19-3.456c-9.667-1.551-38,9.488-43.667,13.298c-5.667,3.81-43,23.177-46.333,25.399c-3.333,2.222-14,7.302-16,8.255
			c-2,0.952-7.333-2.223-10-2.223c-2.667,0-15,5.08-20.333,7.937c-5.333,2.857-21,3.81-24.333,3.81c-7,0-17-13.017-20-14.922
			c-3-1.905-29,1.587-34,1.587s-25.667-8.572-28-12.065c-2.333-3.492-23.724-14.693-26.474-14.88
			c-2.75-0.187-8.448,2.433-9.037,2.994c-0.589,0.561-6.091,0-7.466,0c-1.375,0-16.307-4.117-18.861-4.491
			c-2.554-0.374-31.042-7.298-31.926-7.766c-0.884-0.468-6.68-6.362-7.171-6.83c-0.491-0.468-10.02,0.749-10.806,1.497
			c-0.786,0.749-5.501-0.374-6.483-0.374c-0.982,0-26.72,2.058-28.291,2.433c-1.572,0.374-47.545,9.918-52.85,13.286
			c-5.305,3.368-19.45,7.859-21.022,8.795c-1.572,0.936-1.965,0.749-3.929,1.684c-1.965,0.936-4.715,0.749-8.448,2.058
			c-3.733,1.31-10.609,2.058-10.609,2.058l-6.876,1.31l-5.108,1.123c0,0-4.715,0.936-5.108,1.31
			c-0.393,0.374-1.965,1.123-3.143,1.667c-1.179,0.544-4.912,0.017-6.68-0.544c-1.768-0.561-13.163,4.865-15.717,5.988
			c-2.554,1.123-21.022,6.549-22.594,7.111c-1.572,0.561-9.038,2.433-10.806,2.807c-1.768,0.374-27.259,1.306-35.259,1.306
			s-43,0-49,0s-34-7.62-39-7.62s-14-12.382-21-16.192c-7-3.81-33-9.525-33-9.525l2,87.626h806.333
			C765.085,506.985,765.752,378.404,765.085,379.039z"/>
		<path clip-path="url(#SVGID_2_)" fill="#330900" d="M421.264,294.658c-1.825,0-2.879,0.814-2.879,6.444
			c0,5.77,0.764,49.808,0.764,54.207c0,4.399,0.283,6.987-1.983,6.987c-2.267,0-2.833-1.423-2.833-4.141c0-2.717,0-29.234,0-32.25
			s-0.401-4.142-1.946-4.142c-1.545,0-2.823,0.299-2.823,2.985c0,2.686,0.518,14.904,0.518,17.233s0.142,3.364-1.7,3.364
			c-1.842,0-2.55-0.776-2.55-3.235s0-76.039,0-77.661c0-1.621-0.857-3.242-2.922-3.242s-2.229,1.282-2.229,3.544
			s-0.28,68.258-0.28,76.712c0,8.454,0.609,10.928,6.409,12.051v16.027c0,0,0.013,4.658-3.67,4.27
			c-3.684-0.388-6.801-0.906-6.801-10.74c0-9.834,0.472-62.59,0.472-65.695s-0.184-4.57-2.284-4.57
			c-2.101,0-3.482,1.445-3.482,5.755c0,4.31,0,66.796,0,72.404c0,5.607,3.107,12.249,15.11,13.284v50.391h15.11v-51.944
			c0,0,14.65-0.259,14.65-8.626c0-8.368,0-52.847,0-55.767s-0.857-3.842-2.708-3.842c-1.851,0-3.365,1.076-3.365,3.996
			c0,2.92,0,43.882,0,46.187c0,2.305-0.421,3.688-1.683,3.688c-1.262,0-3.029,0.538-3.029-4.072c0-4.61,0-62.954,0-65.412
			S423.521,294.658,421.264,294.658z"/>
		<path clip-path="url(#SVGID_2_)" fill="#330900" d="M348.248,402.676l10.835-14.376l-12.464,11.898c0,0,5.241-9.632,8.215-13.668
			l-9.062,11.363c0,0,1.768-9.167,3.396-16.32c0,0-3.612,8.286-4.745,14.306l-0.354-15.297l-1.346,16.43
			c0,0-2.974-17.493-3.187-17.493c-0.212,0,1.558,16.501,1.629,17.918l-3.824-12.819l2.054,12.819c0,0-4.037-9.632-6.232-16.076
			c0,0,3.612,15.226,4.674,17.705l-5.949-8.64c0,0,4.108,8.711,4.886,9.49l-11.473-8.994l10.056,10.056
			c0,0-11.827-3.824-11.827-3.612c0,0.212,13.385,7.153,13.385,7.153l5.187,1.72l6.144-1.72c0,0,7.932-5.028,12.818-7.365
			C361.067,397.152,350.656,401.685,348.248,402.676z"/>
		<path clip-path="url(#SVGID_2_)" fill="#330900" d="M297.442,407.899l3.901-11.568l-4.945,9.797c0,0,1.623-7.621,2.685-10.865
			l-3.328,9.175c0,0-0.036-7.048,0.059-12.563c0,0-0.956,6.499-0.919,11.126l-1.681-11.55l0.958,12.516
			c0,0-3.183-13.043-3.287-13.03c-0.104,0.013,2.39,12.384,2.564,13.451l-3.139-9.453l2.271,9.566c0,0-2.93-7.029-4.642-11.764
			c0,0,3.272,11.288,4.038,13.096l-3.771-6.156c0,0,2.874,6.327,3.333,6.867l-6.516-6.071l5.926,6.965c0,0-6.181-2.137-6.16-1.977
			c0.021,0.161,7.273,4.556,7.273,4.556l2.715,0.97l2.846-1.694c0,0,3.397-4.311,5.565-6.391
			C303.188,402.901,298.526,406.995,297.442,407.899z"/>
		<path clip-path="url(#SVGID_2_)" fill="#330900" d="M693.588,399.587l9.12-15.675l-11.045,13.39c0,0,4.091-10.26,6.583-14.653
			l-7.706,12.448c0,0,0.672-9.38,1.447-16.73c0,0-2.622,8.72-3.036,14.876l-2.182-15.258l0.618,16.595
			c0,0-5.066-17.141-5.278-17.116c-0.213,0.025,3.531,16.318,3.771,17.727l-5.357-12.364l3.586,12.576c0,0-5.189-9.151-8.155-15.335
			c0,0,5.433,14.798,6.791,17.15l-6.983-7.931c0,0,5.15,8.222,6.022,8.908l-12.55-7.625l11.261,8.857c0,0-12.287-2.411-12.261-2.199
			c0.025,0.213,14.243,5.555,14.243,5.555l5.393,1.1l5.94-2.455c0,0,7.333-5.977,11.941-8.899
			C705.749,392.53,695.878,398.307,693.588,399.587z"/>
		<path clip-path="url(#SVGID_2_)" fill="#330900" d="M428.199,417.146l9.991-11.217l-10.31,8.707c0,0,5.515-7.847,8.281-11.008
			l-8.188,8.783c0,0,3.37-7.999,6.145-14.199c0,0-4.221,6.898-6.418,12.156l3.694-13.892l-4.975,14.636c0,0,2.724-16.308,2.6-16.343
			c-0.124-0.035-3.299,15.178-3.618,16.471l1.036-12.221l-2.07,11.93c0,0,0.1-9.374,0.462-15.564c0,0-1.775,14.364-1.786,16.78
			l-1.269-8.793c0,0,0.176,8.553,0.432,9.386l-4.404-10.022l3.306,10.749c0,0-5.929-5.405-5.983-5.213
			c-0.054,0.192,5.78,13.118,5.78,13.118l2.799-2.038l4.025-0.544c0,0,5.912-3.241,9.361-4.55
			C437.091,414.261,429.858,416.646,428.199,417.146z"/>
		<path clip-path="url(#SVGID_2_)" fill="#330900" d="M312.282,381.419c-0.575-1.917-3.066-4.216-4.121-2.971
			c-1.054,1.246-0.383,6.708-0.767,7.379s-4.216,1.437-4.504,0.288c-0.288-1.15,0.096-23.19,0.096-23.19s4.164,0.479,4.669-2.779
			c0.505-3.258,0.41-9.391-1.028-9.966c-1.437-0.575-2.971,0.479-2.779,2.204c0.192,1.725,0.383,5.366-1.246,5.366
			c0,0,0.479-12.457-4.791-13.991c-5.27-1.533-8.049,1.15-7.474,7.474c0.575,6.325,1.629,22.96,1.629,25.375
			c0,2.415-3.066,3.086-4.6,3.086c-1.533,0-4.312-1.342-4.408-3.354c-0.096-2.012,1.629-11.787,0.767-14.086
			c-0.862-2.3-5.654-3.546-8.049-0.862c-2.396,2.683-0.192,13.224,0.479,15.62c0.671,2.396,2.124,5.478,5.894,6.272
			c2.001,0.421,9.325,0.893,10.913,3.075c1.587,2.183,1.291,17.173,0.596,23.522h10.292c0,0-1.315-11.882-1.124-17.249
			c0,0,4.19,0,5.532,0c1.342,0,3.45-0.958,3.737-3.546C312.282,386.497,312.857,383.335,312.282,381.419z"/>
		<path clip-path="url(#SVGID_2_)" fill="#330900" d="M111.153,403.504c-1.275,0-2.125,1.488-1.806,4.888
			c0.319,3.4,0.638,9.245,0.638,11.264c0,2.019-0.85,3.082-2.232,3.082c-1.382,0-1.913-0.638-1.913-2.55s-0.425-34.435-0.425-39.217
			c0-4.782-2.975-4.144-4.144-4.144c-1.169,0-1.488,3.082-1.488,5.101c0,2.019,0.106,33.797,0.106,36.029
			c0,2.232-0.956,2.869-2.338,2.869s-3.392-1.381-3.392-3.613c0-2.231-0.221-42.153-0.009-49.485
			c0.213-7.332-3.507-6.907-5.632-6.695c-2.125,0.212-3.507,1.806-3.507,7.226c0,5.419,0.638,48.848,0.85,53.523
			c0.246,5.415-7.863,2.444-8.289,0c-0.425-2.444-0.781-23.63-0.956-27.882c-0.266-6.429-2.657-7.013-4.994-6.376
			c-2.338,0.638-3.932,3.4-3.826,6.588c0.106,3.188,1.169,30.326,1.594,32.77c0.425,2.444,1.594,5.207,5.632,5.632
			c4.038,0.425,12.22,0.106,12.22,0.106l0.744,20.615h8.395l-1.275-20.934c0,0,1.382-0.85,6.27-1.169
			c4.888-0.319,11.264-0.531,11.901-2.657c0.638-2.125,0.957-13.602,0.957-19.021C114.235,404.035,112.429,403.504,111.153,403.504z
			"/>
		<g clip-path="url(#SVGID_2_)">
			<path fill="#330900" d="M92.719,455.618h1.488c-0.992-5.375-4.589-10.079-4.589-10.079
				C91.355,449.067,92.719,455.618,92.719,455.618z"/>
			<path fill="#330900" d="M96.203,439.156c0,0-1.119,5.573-1.136,12.648c-1.371-7.846-4.053-14.076-4.053-14.076
				c1.736,6.262,3.1,17.89,3.1,17.89h1.055h0.434h0.653C96.255,455.618,95.746,444.918,96.203,439.156z"/>
			<path fill="#330900" d="M100.633,455.618c0,0,3.106-5.875,5.901-9.038c0,0-5.16,4.218-7.567,9.038H100.633z"/>
			<path fill="#330900" d="M98.896,452.827c0.741-3.238,2.041-8.566,3.294-11.971c0,0-1.585,3.058-3.101,7.418
				c0.651-4.327,1.565-9.66,2.579-13.369c0,0-2.123,5.032-3.745,11.984c0.555-4.629,1.313-10.143,2.161-14.033
				c0,0-3.597,10.622-4.589,22.761h0.924h0.565h0.08h0.615h0.407h0.194h1.065c0,0,4.331-10.427,7.784-16.042
				C107.128,439.576,102.352,445.498,98.896,452.827z"/>
		</g>
		<g clip-path="url(#SVGID_2_)">
			<path fill="#330900" d="M213.4,434.641l2.455-0.41c-3.117-8.595-10.346-15.365-10.346-15.365
				C209.345,424.208,213.4,434.641,213.4,434.641z"/>
			<path fill="#330900" d="M214.613,406.521c0,0-0.312,9.502,1.609,21.181c-4.422-12.568-10.563-22.108-10.563-22.108
				c4.589,9.853,10.042,28.662,10.042,28.662l1.74-0.29l0.715-0.119l1.077-0.18C219.233,433.667,215.446,416.153,214.613,406.521z"
				/>
			<path fill="#330900" d="M226.455,432.461c0,0,3.508-10.548,7.246-16.536c0,0-7.352,8.38-9.995,16.995L226.455,432.461z"/>
			<path fill="#330900" d="M222.822,428.336c0.331-5.546,1.008-14.695,2.137-20.658c0,0-1.773,5.482-3.074,13.093
				c-0.117-7.318-0.079-16.368,0.574-22.767c0,0-2.117,8.888-2.879,20.804c-0.359-7.789-0.626-17.097-0.299-23.748
				c0,0-3.009,18.515-1.302,38.817l1.524-0.254l0.931-0.155l0.132-0.022l1.014-0.169l0.671-0.112l0.321-0.054l1.757-0.293
				c0,0,4.274-18.397,8.425-28.611C232.754,404.205,226.506,415.292,222.822,428.336z"/>
		</g>
		<g clip-path="url(#SVGID_2_)">
			<path fill="#330900" d="M3.338,449.081h2.917C4.31,438.543-2.74,429.323-2.74,429.323C0.663,436.238,3.338,449.081,3.338,449.081
				z"/>
			<path fill="#330900" d="M10.166,416.81c0,0-2.194,10.924-2.227,24.795c-2.686-15.381-7.944-27.594-7.944-27.594
				c3.404,12.275,6.078,35.07,6.078,35.07H8.14h0.85h1.279C10.269,449.081,9.27,428.105,10.166,416.81z"/>
			<path fill="#330900" d="M18.85,449.081c0,0,6.09-11.516,11.567-17.717c0,0-10.115,8.268-14.833,17.717H18.85z"/>
			<path fill="#330900" d="M15.445,443.61c1.452-6.347,4.001-16.792,6.456-23.467c0,0-3.107,5.994-6.079,14.541
				c1.276-8.482,3.067-18.936,5.056-26.207c0,0-4.161,9.865-7.342,23.492c1.088-9.073,2.575-19.884,4.236-27.509
				c0,0-7.051,20.822-8.995,44.619h1.811h1.107h0.157h1.205h0.797h0.381h2.087c0,0,8.49-20.441,15.259-31.447
				C31.582,417.633,22.221,429.243,15.445,443.61z"/>
		</g>
		<g clip-path="url(#SVGID_2_)">
			<path fill="#330900" d="M90.443,455.618h-1.488c0.992-5.375,4.589-10.079,4.589-10.079
				C91.807,449.067,90.443,455.618,90.443,455.618z"/>
			<path fill="#330900" d="M86.96,439.156c0,0,1.119,5.573,1.136,12.648c1.37-7.846,4.053-14.076,4.053-14.076
				c-1.736,6.262-3.101,17.89-3.101,17.89h-1.055H87.56h-0.653C86.907,455.618,87.416,444.918,86.96,439.156z"/>
			<path fill="#330900" d="M82.53,455.618c0,0-3.107-5.875-5.901-9.038c0,0,5.16,4.218,7.567,9.038H82.53z"/>
			<path fill="#330900" d="M84.266,452.827c-0.741-3.238-2.041-8.566-3.294-11.971c0,0,1.585,3.058,3.101,7.418
				c-0.651-4.327-1.565-9.66-2.579-13.369c0,0,2.123,5.032,3.745,11.984c-0.555-4.629-1.313-10.143-2.161-14.033
				c0,0,3.597,10.622,4.589,22.761h-0.924h-0.565h-0.08h-0.615h-0.407h-0.194h-1.065c0,0-4.331-10.427-7.784-16.042
				C76.035,439.576,80.81,445.498,84.266,452.827z"/>
		</g>
		<rect opacity="0.2" clip-path="url(#SVGID_2_)" fill="#F55636" width="750" height="500"/>
		<linearGradient id="SVGID_23_" gradientUnits="userSpaceOnUse" x1="375" y1="500" x2="375" y2="-45.005">
			<stop  offset="0.244" style="stop-color:#FFD13D;stop-opacity:0"/>
			<stop  offset="0.5826" style="stop-color:#FF9149;stop-opacity:0.4478"/>
			<stop  offset="1" style="stop-color:#FF3E58"/>
		</linearGradient>
		<rect clip-path="url(#SVGID_2_)" fill="url(#SVGID_23_)" width="750" height="500"/>
		<linearGradient id="SVGID_24_" gradientUnits="userSpaceOnUse" x1="103.9784" y1="204.2365" x2="103.9784" y2="176.5586">
			<stop  offset="0" style="stop-color:#FFFFFF;stop-opacity:0"/>
			<stop  offset="1" style="stop-color:#FFFFFF"/>
		</linearGradient>
		<path opacity="0.28" clip-path="url(#SVGID_2_)" fill="url(#SVGID_24_)" d="M134.157,190.946
			c-2.499-8.322-10.215-14.388-19.351-14.388c-9.796,0-17.961,6.971-19.811,16.222c-1.797-1.191-3.949-1.888-6.266-1.888
			c-4.523,0-8.417,2.65-10.245,6.476c-1.59-1.371-3.655-2.206-5.919-2.206c-5.011,0-9.074,4.062-9.074,9.074h80.975
			C144.466,198.317,141.873,192.113,134.157,190.946z"/>
		
			<linearGradient id="SVGID_25_" gradientUnits="userSpaceOnUse" x1="538.7735" y1="141.0193" x2="538.7735" y2="116.6532" gradientTransform="matrix(-1 0 0 1 1034.0668 0)">
			<stop  offset="0" style="stop-color:#FFFFFF;stop-opacity:0"/>
			<stop  offset="1" style="stop-color:#FFFFFF"/>
		</linearGradient>
		<path opacity="0.2" clip-path="url(#SVGID_2_)" fill="url(#SVGID_25_)" d="M458.966,135.79c1.063,0,2.05,0.319,2.876,0.864
			c1.415-2.129,3.833-3.534,6.582-3.534c1.687,0,3.247,0.533,4.53,1.434c2.234-3.847,6.389-6.44,11.158-6.44
			c0.993,0,1.956,0.123,2.884,0.335c3.141-6.953,10.131-11.795,18.256-11.795c7.047,0,13.239,3.643,16.809,9.145
			c0.468-0.081,0.947-0.132,1.438-0.132c4.609,0,8.345,3.736,8.345,8.344c0,0.213-0.016,0.422-0.032,0.631
			c2.888,0.689,5.039,3.28,5.039,6.379h-83.112C453.737,138.131,456.078,135.79,458.966,135.79z"/>
		
			<linearGradient id="SVGID_26_" gradientUnits="userSpaceOnUse" x1="-171.0128" y1="72.6598" x2="-171.0128" y2="40.564" gradientTransform="matrix(-1.1809 0 0 1 99.2569 0)">
			<stop  offset="0" style="stop-color:#FFFFFF;stop-opacity:0"/>
			<stop  offset="1" style="stop-color:#FFFFFF"/>
		</linearGradient>
		<path opacity="0.4" clip-path="url(#SVGID_2_)" fill="url(#SVGID_26_)" d="M250.406,65.772c1.486,0,2.867,0.42,4.021,1.138
			c1.979-2.805,5.361-4.655,9.204-4.655c2.359,0,4.54,0.702,6.335,1.889c3.124-5.067,8.934-8.484,15.603-8.484
			c1.388,0,2.734,0.162,4.033,0.441c4.392-9.159,14.167-15.536,25.529-15.536c9.854,0,18.514,4.798,23.505,12.046
			c0.655-0.107,1.324-0.174,2.011-0.174c6.445,0,11.669,4.921,11.669,10.992c0,0.281-0.022,0.556-0.044,0.831
			c4.039,0.907,7.046,4.32,7.046,8.402H243.094C243.094,68.856,246.368,65.772,250.406,65.772z"/>
		
			<linearGradient id="SVGID_27_" gradientUnits="userSpaceOnUse" x1="-384.4094" y1="204.2365" x2="-384.4094" y2="172.1408" gradientTransform="matrix(1.1809 0 0 1 1025.8217 0)">
			<stop  offset="0" style="stop-color:#FFFFFF;stop-opacity:0"/>
			<stop  offset="1" style="stop-color:#FFFFFF"/>
		</linearGradient>
		<path opacity="0.4" clip-path="url(#SVGID_2_)" fill="url(#SVGID_27_)" d="M622.672,197.348c-1.486,0-2.867,0.42-4.021,1.138
			c-1.979-2.805-5.361-4.655-9.204-4.655c-2.359,0-4.54,0.702-6.335,1.889c-3.124-5.067-8.934-8.484-15.603-8.484
			c-1.389,0-2.735,0.162-4.033,0.441c-4.392-9.159-14.167-15.537-25.529-15.537c-9.854,0-18.514,4.798-23.505,12.045
			c-0.655-0.107-1.324-0.174-2.011-0.174c-6.445,0-11.669,4.921-11.669,10.992c0,0.281,0.023,0.556,0.044,0.831
			c-4.039,0.907-7.046,4.32-7.046,8.402h116.225C629.985,200.432,626.711,197.348,622.672,197.348z"/>
		
			<linearGradient id="SVGID_28_" gradientUnits="userSpaceOnUse" x1="-150.5937" y1="158.8417" x2="-150.5937" y2="128.8362" gradientTransform="matrix(-1 0 0 1 282.5099 0)">
			<stop  offset="0" style="stop-color:#FFFFFF;stop-opacity:0"/>
			<stop  offset="1" style="stop-color:#FFFFFF"/>
		</linearGradient>
		<path opacity="0.48" clip-path="url(#SVGID_2_)" fill="url(#SVGID_28_)" d="M389.672,147.897c2.846,0,5.431,1.096,7.377,2.877
			c3.039-6.492,9.627-10.992,17.269-10.992c1.089,0,2.156,0.096,3.195,0.272c-0.002-0.091-0.014-0.18-0.014-0.272
			c0-6.045,4.9-10.945,10.945-10.945c3.505,0,6.617,1.654,8.62,4.216c3.19-1.277,6.669-1.987,10.316-1.987
			c11.662,0,21.639,7.19,25.756,17.376c1.071-0.35,2.211-0.545,3.399-0.545c6.045,0,10.945,4.9,10.945,10.945H378.727
			C378.727,152.797,383.627,147.897,389.672,147.897z"/>
		
			<linearGradient id="SVGID_29_" gradientUnits="userSpaceOnUse" x1="243.9575" y1="120.6556" x2="243.9575" y2="69.5105" gradientTransform="matrix(-1 0 0 1 282.5099 0)">
			<stop  offset="0" style="stop-color:#FFFFFF;stop-opacity:0"/>
			<stop  offset="1" style="stop-color:#FFFFFF"/>
		</linearGradient>
		<path opacity="0.4" clip-path="url(#SVGID_2_)" fill="url(#SVGID_29_)" d="M-35.478,101.999c4.852,0,9.257,1.868,12.575,4.903
			c5.18-11.067,16.409-18.736,29.435-18.736c1.857,0,3.674,0.164,5.446,0.463c-0.004-0.155-0.024-0.307-0.024-0.463
			c0-10.304,8.353-18.656,18.656-18.656c5.974,0,11.278,2.818,14.693,7.186c5.438-2.177,11.368-3.387,17.583-3.387
			c19.878,0,36.884,12.256,43.902,29.618c1.825-0.596,3.769-0.929,5.793-0.929c10.304,0,18.656,8.353,18.656,18.656H-54.134
			C-54.134,110.352-45.781,101.999-35.478,101.999z"/>
	</g>
</g>
<g id="DESIGNED_BY_FREEPIK_1_" display="none">
	<g display="inline">
		<g id="XMLID_29_">
			<g id="XMLID_48_">
				<path id="XMLID_56_" fill="#FFFFFF" d="M385.104,465.465c-0.432,0.443-0.803,0.931-1.108,1.453l-0.465-0.241
					c-0.067-0.298-0.349-0.503-0.659-0.466c-0.331,0.039-0.568,0.339-0.529,0.67s0.339,0.568,0.67,0.529
					c0.065-0.008,0.127-0.026,0.183-0.052l0.452,0.234c-0.251,0.554-0.433,1.139-0.539,1.744l0.747,0.132
					c0.23-1.306,0.85-2.507,1.792-3.473L385.104,465.465z"/>
				<path id="XMLID_55_" fill="#FFFFFF" d="M390.592,463.163c-0.171,0-0.341,0.006-0.51,0.017l-0.074-0.626
					c0.188-0.149,0.296-0.389,0.266-0.645c-0.046-0.393-0.402-0.674-0.795-0.628c-0.393,0.046-0.674,0.402-0.628,0.795
					c0.03,0.254,0.189,0.461,0.405,0.564l0.073,0.624c-0.714,0.116-1.403,0.332-2.06,0.646l0.327,0.684
					c0.934-0.447,1.942-0.673,2.995-0.673c0.496,0,0.993,0.053,1.475,0.158l0.161-0.741
					C391.693,463.222,391.142,463.163,390.592,463.163z"/>
				<path id="XMLID_54_" fill="#FFFFFF" d="M397.194,465.711c0.331-0.04,0.566-0.341,0.526-0.672
					c-0.041-0.331-0.342-0.566-0.672-0.526c-0.309,0.038-0.535,0.304-0.53,0.609l-0.416,0.363c-0.418-0.43-0.89-0.813-1.408-1.139
					l-0.404,0.641c1.134,0.715,2.021,1.726,2.563,2.925l0.691-0.313c-0.251-0.554-0.568-1.072-0.942-1.545l0.402-0.351
					C397.065,465.716,397.129,465.719,397.194,465.711z"/>
				<path id="XMLID_53_" fill="#FFFFFF" d="M390.044,473.372c-0.386,0.023-0.775,0.035-1.157,0.035c-0.88,0-1.733-0.061-2.478-0.179
					c-0.39-0.062-0.846-0.155-1.27-0.292c1.046,1.861,3.069,3.125,5.388,3.125c2.855,0,5.262-1.916,5.95-4.504
					c-0.682,0.449-1.506,0.825-2.459,1.123C392.839,473.047,391.464,473.286,390.044,473.372z"/>
				<path id="XMLID_49_" fill="#FFFFFF" d="M390.592,464.68c-3.352,0-6.08,2.666-6.08,5.943c0,0.426,0.046,0.849,0.137,1.261
					c0.673,0.483,2.706,0.89,5.348,0.731c2.879-0.173,5.297-0.957,6.672-2.159c-0.005-0.195-0.021-0.39-0.045-0.582
					C396.244,466.913,393.65,464.68,390.592,464.68z M388.432,471.194c-1.02,0-1.85-0.83-1.85-1.85c0-1.02,0.83-1.85,1.85-1.85
					c1.02,0,1.85,0.83,1.85,1.85C390.282,470.365,389.452,471.194,388.432,471.194z M393.17,470.286c-0.75,0-1.36-0.61-1.36-1.36
					s0.61-1.361,1.36-1.361c0.75,0,1.361,0.61,1.361,1.361S393.92,470.286,393.17,470.286z"/>
			</g>
			<path id="XMLID_46_" fill="#FFFFFF" d="M406.595,466.547c-0.295-0.116-0.805-0.309-1.382-0.237
				c-0.551,0.069-0.844,0.341-0.844,1.007v0.866h2.228v1.717h-2.228v5.455h-1.932v-5.455h-1.34v-1.717h1.34v-0.888
				c0-1.68,0.896-2.783,2.568-2.783c0.643,0,1.157,0.122,1.59,0.308L406.595,466.547z"/>
			<path id="XMLID_44_" fill="#FFFFFF" d="M411.298,469.879c-0.177-0.03-0.358-0.046-0.526-0.046c-0.896,0-1.51,0.548-1.51,1.614
				v3.908h-1.932v-7.172h1.873v0.785c0.451-0.673,1.14-0.977,2.021-0.977c0.414,0,0.848,0.128,1.094,0.337L411.298,469.879z"/>
			<path id="XMLID_41_" fill="#FFFFFF" d="M418.965,471.757c0,0.222-0.015,0.489-0.037,0.651h-5.085
				c0.207,1.036,0.933,1.488,1.843,1.488c0.622,0,1.295-0.252,1.813-0.688l1.132,1.243c-0.814,0.748-1.85,1.088-3.057,1.088
				c-2.198,0-3.723-1.495-3.723-3.753c0-2.258,1.48-3.797,3.627-3.797C417.544,467.99,418.958,469.522,418.965,471.757z
				 M413.851,471.091h3.175c-0.177-0.918-0.733-1.436-1.562-1.436C414.554,469.655,414.021,470.203,413.851,471.091z"/>
			<path id="XMLID_38_" fill="#FFFFFF" d="M426.618,471.757c0,0.222-0.015,0.489-0.037,0.651h-5.085
				c0.207,1.036,0.932,1.488,1.843,1.488c0.622,0,1.295-0.252,1.813-0.688l1.132,1.243c-0.814,0.748-1.85,1.088-3.057,1.088
				c-2.198,0-3.723-1.495-3.723-3.753c0-2.258,1.48-3.797,3.627-3.797C425.197,467.99,426.611,469.522,426.618,471.757z
				 M421.504,471.091h3.175c-0.178-0.918-0.733-1.436-1.562-1.436C422.207,469.655,421.674,470.203,421.504,471.091z"/>
			<path id="XMLID_35_" fill="#FFFFFF" d="M434.964,471.764c0,2.154-1.495,3.775-3.471,3.775c-0.962,0-1.643-0.378-2.109-0.933
				v3.708h-1.924v-10.133h1.887v0.792c0.466-0.585,1.155-0.984,2.139-0.984C433.469,467.99,434.964,469.61,434.964,471.764z
				 M429.287,471.764c0,1.132,0.747,1.976,1.843,1.976c1.14,0,1.85-0.881,1.85-1.976c0-1.095-0.71-1.976-1.85-1.976
				C430.035,469.788,429.287,470.632,429.287,471.764z"/>
			<path id="XMLID_32_" fill="#FFFFFF" d="M438.068,465.836c0,0.696-0.54,1.229-1.236,1.229c-0.696,0-1.229-0.533-1.229-1.229
				c0-0.696,0.533-1.243,1.229-1.243C437.527,464.592,438.068,465.14,438.068,465.836z M437.809,475.354h-1.932v-7.172h1.932
				V475.354z"/>
			<path id="XMLID_30_" fill="#FFFFFF" d="M441.032,470.736l2.702-2.554h2.368l-3.479,3.375l3.501,3.797h-2.376l-2.716-2.901v2.901
				H439.1v-10.658h1.932V470.736z"/>
		</g>
		<g>
			<path fill="#FFFFFF" d="M309.412,475.289v-1.055c-0.527,0.718-1.391,1.23-2.387,1.23c-1.846,0-3.149-1.406-3.149-3.706
				c0-2.256,1.289-3.721,3.149-3.721c0.952,0,1.816,0.469,2.387,1.245v-3.765h1.099v9.77H309.412z M309.412,473.37v-3.208
				c-0.395-0.615-1.245-1.143-2.124-1.143c-1.421,0-2.27,1.172-2.27,2.739c0,1.567,0.85,2.724,2.27,2.724
				C308.168,474.483,309.017,473.986,309.412,473.37z"/>
			<path fill="#FFFFFF" d="M311.932,471.744c0-2.051,1.465-3.706,3.486-3.706c2.139,0,3.398,1.67,3.398,3.794v0.279h-5.727
				c0.088,1.333,1.026,2.446,2.549,2.446c0.806,0,1.626-0.322,2.182-0.894l0.527,0.718c-0.703,0.703-1.655,1.084-2.812,1.084
				C313.44,475.465,311.932,473.956,311.932,471.744z M315.404,468.947c-1.509,0-2.256,1.274-2.315,2.358h4.643
				C317.718,470.25,317.015,468.947,315.404,468.947z"/>
			<path fill="#FFFFFF" d="M319.607,474.351l0.571-0.791c0.469,0.542,1.362,1.011,2.329,1.011c1.084,0,1.67-0.513,1.67-1.216
				c0-1.714-4.38-0.659-4.38-3.281c0-1.098,0.952-2.036,2.636-2.036c1.201,0,2.051,0.454,2.622,1.026l-0.513,0.762
				c-0.424-0.513-1.201-0.894-2.109-0.894c-0.967,0-1.567,0.483-1.567,1.113c0,1.552,4.38,0.527,4.38,3.281
				c0,1.187-0.952,2.138-2.783,2.138C321.306,475.465,320.325,475.113,319.607,474.351z"/>
			<path fill="#FFFFFF" d="M326.477,466.471c0-0.41,0.337-0.747,0.732-0.747c0.41,0,0.747,0.337,0.747,0.747
				c0,0.41-0.337,0.732-0.747,0.732C326.814,467.203,326.477,466.881,326.477,466.471z M326.667,475.289v-7.075h1.099v7.075H326.667
				z"/>
			<path fill="#FFFFFF" d="M329.582,477.105l0.556-0.82c0.586,0.703,1.289,0.967,2.3,0.967c1.172,0,2.27-0.571,2.27-2.124v-1.011
				c-0.513,0.718-1.377,1.26-2.373,1.26c-1.845,0-3.149-1.377-3.149-3.662c0-2.27,1.289-3.677,3.149-3.677
				c0.952,0,1.802,0.469,2.373,1.245v-1.069h1.099v6.87c0,2.344-1.641,3.076-3.369,3.076
				C331.237,478.16,330.417,477.926,329.582,477.105z M334.709,473.253v-3.091c-0.381-0.615-1.23-1.143-2.109-1.143
				c-1.421,0-2.27,1.128-2.27,2.695c0,1.553,0.849,2.695,2.27,2.695C333.478,474.41,334.328,473.868,334.709,473.253z"/>
			<path fill="#FFFFFF" d="M342.413,475.289v-4.629c0-1.245-0.63-1.641-1.582-1.641c-0.865,0-1.685,0.527-2.095,1.099v5.17h-1.099
				v-7.075h1.099v1.025c0.498-0.586,1.464-1.201,2.519-1.201c1.48,0,2.256,0.747,2.256,2.285v4.966H342.413z"/>
			<path fill="#FFFFFF" d="M344.932,471.744c0-2.051,1.465-3.706,3.486-3.706c2.138,0,3.398,1.67,3.398,3.794v0.279h-5.727
				c0.088,1.333,1.025,2.446,2.549,2.446c0.806,0,1.626-0.322,2.183-0.894l0.527,0.718c-0.703,0.703-1.655,1.084-2.812,1.084
				C346.441,475.465,344.932,473.956,344.932,471.744z M348.404,468.947c-1.509,0-2.256,1.274-2.314,2.358h4.643
				C350.718,470.25,350.015,468.947,348.404,468.947z"/>
			<path fill="#FFFFFF" d="M358.35,475.289v-1.055c-0.527,0.718-1.392,1.23-2.388,1.23c-1.846,0-3.149-1.406-3.149-3.706
				c0-2.256,1.289-3.721,3.149-3.721c0.952,0,1.817,0.469,2.388,1.245v-3.765h1.098v9.77H358.35z M358.35,473.37v-3.208
				c-0.396-0.615-1.245-1.143-2.124-1.143c-1.421,0-2.27,1.172-2.27,2.739c0,1.567,0.849,2.724,2.27,2.724
				C357.105,474.483,357.954,473.986,358.35,473.37z"/>
			<path fill="#FFFFFF" d="M364.692,475.289v-9.77h1.099v3.765c0.572-0.776,1.421-1.245,2.388-1.245
				c1.845,0,3.149,1.465,3.149,3.721c0,2.299-1.304,3.706-3.149,3.706c-0.996,0-1.86-0.513-2.388-1.23v1.055H364.692z
				 M367.9,474.483c1.436,0,2.285-1.157,2.285-2.724c0-1.568-0.85-2.739-2.285-2.739c-0.864,0-1.728,0.527-2.109,1.143v3.208
				C366.171,473.986,367.036,474.483,367.9,474.483z"/>
			<path fill="#FFFFFF" d="M372.529,477.061c0.161,0.073,0.425,0.117,0.601,0.117c0.483,0,0.806-0.161,1.055-0.747l0.469-1.069
				l-2.959-7.148h1.187l2.358,5.8l2.344-5.8h1.201l-3.545,8.51c-0.425,1.025-1.143,1.421-2.08,1.435
				c-0.234,0-0.601-0.044-0.805-0.103L372.529,477.061z"/>
		</g>
	</g>
</g>
</svg>
