<?xml version="1.0" encoding="utf-8"?>
<!-- Generator: Adobe Illustrator 23.1.0, SVG Export Plug-In . SVG Version: 6.00 Build 0)  -->
<svg version="1.1" xmlns="http://www.w3.org/2000/svg" xmlns:xlink="http://www.w3.org/1999/xlink" x="0px" y="0px"
	 viewBox="0 0 750 500" enable-background="new 0 0 750 500" xml:space="preserve">
<g id="BACKGROUND">
	<linearGradient id="SVGID_1_" gradientUnits="userSpaceOnUse" x1="375" y1="497.3881" x2="375" y2="0.768">
		<stop  offset="0" style="stop-color:#82B6C9"/>
		<stop  offset="0.1808" style="stop-color:#7AB0CB"/>
		<stop  offset="0.4631" style="stop-color:#649ED1"/>
		<stop  offset="0.8096" style="stop-color:#4081DC"/>
		<stop  offset="1" style="stop-color:#296FE2"/>
	</linearGradient>
	<rect y="0.01" fill="url(#SVGID_1_)" width="750" height="499.99"/>
</g>
<g id="OBJECTS">
	<g>
		<linearGradient id="SVGID_2_" gradientUnits="userSpaceOnUse" x1="145.8824" y1="103.3238" x2="145.8824" y2="174.5814">
			<stop  offset="0" style="stop-color:#82B6C9"/>
			<stop  offset="0.1808" style="stop-color:#7AB0CB;stop-opacity:0.8192"/>
			<stop  offset="0.4631" style="stop-color:#649ED1;stop-opacity:0.5369"/>
			<stop  offset="0.8096" style="stop-color:#4081DC;stop-opacity:0.1904"/>
			<stop  offset="1" style="stop-color:#296FE2;stop-opacity:0"/>
		</linearGradient>
		<path opacity="0.2" fill="url(#SVGID_2_)" d="M292.015,129.248c-17.249,0.837-34.273,6.173-48.881,15.39
			c-5.158,3.253-10.053,7.002-15.545,9.659c-8.21,3.981-17.636,5.391-26.644,3.981c-2.571-0.403-5.205-1.022-7.738-0.434
			c-3.028,0.697-5.383,2.997-7.776,4.973c-9.813,8.094-23.011,11.936-35.629,10.371c-8.675-1.077-17.179-4.57-25.862-3.609
			c-12.207,1.348-24.491,11.254-35.482,5.763c-2.494-1.255-4.593-3.222-7.126-4.392c-6.653-3.059-14.43-0.008-20.866,3.478
			c-6.444,3.478-13.314,7.567-20.556,6.483c-6.134-0.914-11.432-5.484-17.636-5.631c-6.886-0.163-12.524,5.035-18.411,8.621
			c-1.332,0.813-2.703,1.541-4.113,2.2v-74.433c7.691,1.433,15.127,5.29,23.004,5.244c10.084-0.047,19.425-6.483,29.502-6.01
			c10.441,0.48,19.929,8.326,30.285,6.963c7.885-1.038,14.979-7.358,22.818-5.987c7.01,1.231,11.982,8.342,19.054,9.194
			c7.265,0.883,13.554-5.104,20.765-6.351c9.968-1.719,19.921,5.817,29.804,3.702c8.001-1.72,15.777-9.519,23.027-5.716
			c4.275,2.246,6.359,8.017,11.084,9.023c6.661,1.425,13.694-7.73,19.201-3.718c2.27,1.642,2.974,5.019,5.499,6.235
			c2.169,1.046,4.701,0.07,7.002-0.643C257.37,118.458,274.712,127.97,292.015,129.248z"/>
		<linearGradient id="SVGID_3_" gradientUnits="userSpaceOnUse" x1="586.2045" y1="36.0824" x2="586.2045" y2="131.2759">
			<stop  offset="0" style="stop-color:#82B6C9"/>
			<stop  offset="0.1808" style="stop-color:#7AB0CB;stop-opacity:0.8192"/>
			<stop  offset="0.4631" style="stop-color:#649ED1;stop-opacity:0.5369"/>
			<stop  offset="0.8096" style="stop-color:#4081DC;stop-opacity:0.1904"/>
			<stop  offset="1" style="stop-color:#296FE2;stop-opacity:0"/>
		</linearGradient>
		<path opacity="0.2" fill="url(#SVGID_3_)" d="M750.25,35.616v88.52c-8.17,1.884-16.477,1.447-22.931-4.157
			c-2.254-1.962-4.32-4.565-7.111-5.09c-1.733-0.33-3.492,0.204-5.182,0.719c-14.283,4.342-30.162,7.402-43.318-0.262
			c-3.577-2.079-6.889-4.935-10.808-5.954c-6.429-1.681-12.891,1.875-18.978,4.74c-11.551,5.43-25.296,8.47-36.146,1.428
			c-5.643-3.652-10.099-9.811-16.34-11.851c-5.745-1.884-11.841,0.117-17.749,1.137c-5.916,1.03-12.814,0.66-16.699-4.507
			c-2.185-2.904-3.167-7.042-5.993-9.111c-5.788-4.216-12.797,3.497-19.67,3.74c-5.08,0.185-9.476-3.779-14.359-5.391
			c-4.021-1.331-8.298-1.03-12.481-0.826c-21.633,1.049-59.086,3.895-80.326-0.932c23.247-1.389,62.193-7.548,85.431-8.937
			c8.401-0.495,17.006-1.059,24.698-4.925c7.427-3.73,14.727-10.617,22.623-8.441c4.064,1.127,7.752,4.653,11.901,4.041
			c2.151-0.32,4.038-1.719,5.831-3.099c5.66-4.342,11.329-8.898,17.791-11.414s13.975-2.739,19.781,1.36
			c2.595,1.826,5.908,4.468,8.255,2.263c0.99-0.932,1.357-2.448,1.87-3.788c2.168-5.702,7.752-9.082,13.215-9.247
			c5.455-0.175,10.74,2.409,15.265,5.896c1.195,0.923,2.561,1.962,3.97,1.593c1.383-0.369,2.194-1.933,3.073-3.196
			c4.431-6.343,12.857-6.537,19.789-4.682c2.766,0.738,5.592,1.719,8.392,1.195c5.31-1.01,8.998-7.11,14.291-8.198
			c7.658-1.574,14.863,7.926,22.367,5.576c4.755-1.486,7.598-7.246,12.166-9.364C738.315,31.925,744.342,35.208,750.25,35.616z"/>
		<linearGradient id="SVGID_4_" gradientUnits="userSpaceOnUse" x1="535.0577" y1="97.0726" x2="535.0577" y2="290.5565">
			<stop  offset="0" style="stop-color:#82B6C9"/>
			<stop  offset="0.1808" style="stop-color:#7AB0CB;stop-opacity:0.8192"/>
			<stop  offset="0.4631" style="stop-color:#649ED1;stop-opacity:0.5369"/>
			<stop  offset="0.8096" style="stop-color:#4081DC;stop-opacity:0.1904"/>
			<stop  offset="1" style="stop-color:#296FE2;stop-opacity:0"/>
		</linearGradient>
		<circle fill="url(#SVGID_4_)" cx="535.058" cy="184.96" r="93.128"/>
		<linearGradient id="SVGID_5_" gradientUnits="userSpaceOnUse" x1="541.5353" y1="367.8092" x2="541.5353" y2="134.7555">
			<stop  offset="0" style="stop-color:#82B6C9"/>
			<stop  offset="0.0515" style="stop-color:#77A9C3"/>
			<stop  offset="0.1753" style="stop-color:#6290B8"/>
			<stop  offset="0.313" style="stop-color:#517CAF"/>
			<stop  offset="0.4703" style="stop-color:#456EA9"/>
			<stop  offset="0.6637" style="stop-color:#3E65A5"/>
			<stop  offset="1" style="stop-color:#3C63A4"/>
		</linearGradient>
		<path fill="url(#SVGID_5_)" d="M749.75,167v186.99c-71.83-5.49-143.74-9.98-215.77-10.21c-37.33-0.11-74.66,0.92-111.98,1.95
			c-28.28,0.78-56.55,1.56-84.83,2.34c-3.23-6.69-4.48-14.32-3.55-21.69c12.24-6.62,24.48-13.25,36.72-19.88
			c15.52-8.41,31.1-16.85,45.3-27.33c20.27-14.96,37.33-33.78,56.33-50.31c18.99-16.54,40.87-31.19,65.73-35.23
			c5.07-0.82,10.29-1.22,15.06-3.13c18.88-7.58,25.35-36.26,45.58-38.4c4.3-0.46,8.65,0.47,12.96,0.14
			c8.76-0.67,16.23-6.32,23.14-11.75c7.59-5.96,15.18-11.92,22.76-17.88c2.58-2.02,5.32-4.11,8.57-4.53
			c8.53-1.11,13.56,8.91,20.08,14.52c3.86,3.33,8.7,5.24,13.38,7.25C716.82,147.4,733.38,157.07,749.75,167z"/>
		<linearGradient id="SVGID_6_" gradientUnits="userSpaceOnUse" x1="384.0325" y1="365.052" x2="384.0325" y2="134.1915">
			<stop  offset="0" style="stop-color:#82B6C9"/>
			<stop  offset="0.0515" style="stop-color:#77A9C3"/>
			<stop  offset="0.1753" style="stop-color:#6290B8"/>
			<stop  offset="0.313" style="stop-color:#517CAF"/>
			<stop  offset="0.4703" style="stop-color:#456EA9"/>
			<stop  offset="0.6637" style="stop-color:#3E65A5"/>
			<stop  offset="1" style="stop-color:#3C63A4"/>
		</linearGradient>
		<path fill="url(#SVGID_6_)" d="M234.237,201.765c4.16-2.57,8.301-5.129,12.304-7.766c2.743-1.807,5.51-3.627,8.559-4.85
			c3.357-1.347,6.96-1.935,10.518-2.588c14.199-2.609,28.455-6.6,41.059-13.809c12.914-7.386,19.679-18.374,29.317-29.133
			c2.579-2.879,5.037-5.94,8.214-8.143c5.217-3.616,11.513-4.158,17.102-6.834c8.281-3.965,12.937-7.021,21.596-2.355
			c8.963,4.829,16.625,11.754,24.81,17.728c15.541,11.343,33.034,19.671,50.412,27.93c5.255,2.497,10.51,4.995,15.765,7.493
			c30.562,14.526,61.141,29.06,90.917,45.136c14.452,7.803,29.257,16.469,38.242,30.217c4.664,7.137,7.519,15.315,11.97,22.587
			c17.517,28.623,55.686,37.974,76.461,64.328c-75.68,3.216-151.361,6.431-227.041,9.647c-24.055,1.022-48.268,2.037-72.113-1.297
			c-16.28-2.277-32.223-6.561-48.483-8.973c-19.132-2.838-38.544-3.064-57.884-3.22c-69.792-0.563-139.591-0.293-209.377,0.81
			c11.675-5.325,23.696-10.897,32.301-20.416c8.824-9.762,13.236-22.799,21.606-32.953c7.644-9.272,16.867-14.297,27.568-18.814
			c10.477-4.422,19.095-12.408,26.629-20.736c8.25-9.12,15.552-19.9,25.228-27.608C217.445,212.145,225.878,206.93,234.237,201.765z
			"/>
		<linearGradient id="SVGID_7_" gradientUnits="userSpaceOnUse" x1="217.84" y1="344.71" x2="217.84" y2="179.5651">
			<stop  offset="0" style="stop-color:#82B6C9"/>
			<stop  offset="0.0515" style="stop-color:#77A9C3"/>
			<stop  offset="0.1753" style="stop-color:#6290B8"/>
			<stop  offset="0.313" style="stop-color:#517CAF"/>
			<stop  offset="0.4703" style="stop-color:#456EA9"/>
			<stop  offset="0.6637" style="stop-color:#3E65A5"/>
			<stop  offset="1" style="stop-color:#3C63A4"/>
		</linearGradient>
		<path fill="url(#SVGID_7_)" d="M435.93,337.573c-57.04,11.71-115.52,4.885-173.42,2.506c-55.83-2.31-111.71-0.439-167.55,1.444
			c-31.74,1.062-63.47,2.125-95.21,3.187V231.721c0.56,0.162,1.11,0.358,1.66,0.566c4.31,1.674,8.55,4.608,13.04,3.892
			c3.07-0.497,5.73-2.645,8.14-4.896c8.53-7.957,15.59-17.842,24.09-25.845c8.49-8.003,19.16-14.204,30.05-12.726
			c-0.97-3.626,2.1-7.16,5.27-8.13c3.18-0.97,6.57-0.404,9.77-1.224c4.58-1.189,8.44-5.127,13.11-5.693
			c2.41-0.3,4.83,0.346,7.17,1.086c7.64,2.402,15.05,5.786,22.04,10.082c8.651,5.317,13.103,7.884,23.056,6.51
			c9.666-1.334,19.363-0.156,28.062,4.47c3.044,1.619,5.884,3.589,8.716,5.555c21.556,14.962,42.686,32.031,66.329,43.399
			c17.98,8.645,41.124-5.486,54.566,13.512c2.29,3.234,4.06,6.929,6.54,9.966c3.24,3.996,7.52,6.617,11.72,9.181
			c4.21,2.564,8.42,5.128,12.63,7.691C375.07,307.016,404.57,324.974,435.93,337.573z"/>
		<path fill="#3C63A4" d="M749.75,327.6V500h-750V324.04c77.77-17.91,158.91-16.33,238.55-10.87
			c93.28,6.41,186.87,17.92,279.95,8.66c49.14-4.89,98.18-15.56,147.42-12.03C694.28,311.85,722.23,318.64,749.75,327.6z"/>
		<g>
			<path fill="#2C4A7E" d="M749.75,368.87V500h-750V384.77c114.49-41.97,244.09-41.13,362.56-9.09
				c42.68,11.55,85.6,27.09,129.75,24.2c45.63-2.99,87.65-25.44,132.65-33.49C666,359.01,707.81,363.97,749.75,368.87z"/>
			<path fill="#2C4A7E" d="M423.458,364.886c-1.763-3.442-2.03-7.968-1.219-11.984c0.281-1.389,0.718-2.803,1.57-3.696
				c0.852-0.893,2.215-1.064,2.978-0.039c0.754,1.011,0.648,2.634,0.586,4.051c-0.058,1.313-0.034,2.633,0.071,3.941
				c0.173,2.156,0.838,4.663,2.433,5.165c0.016,0.005,0.032,0.006,0.047,0.01c0.163-10.41,0.915-20.741,3.108-30.893
				c0.446-2.066,1.593-4.613,3.579-4.334c1.67,0.235,2.409,2.344,2.649,4.111c0.798,5.862-0.038,11.804-0.62,17.687
				c-0.709,7.16-1.035,14.345-1.116,21.542c0.484-0.043,0.975-0.031,1.456,0.021c0.514,0.056,1.04,0.153,1.544,0.034
				c1.462-0.347,1.917-2.187,1.965-3.689c0.079-2.455-0.177-4.921-0.758-7.307c-0.364-1.496-1.214-3.795,0.331-4.976
				c0.482-0.368,1.135-0.443,1.734-0.353c4.49,0.673,3.244,8.942,3.091,12.064c-0.115,2.353-0.442,4.784-1.697,6.778
				c-1.596,2.537-4.708,4.041-7.68,3.68c0.091,12.204,0.794,24.431,1.5,36.62c-2.966-0.007-5.932,0.143-8.882,0.447
				c0.547-11.042,0.189-22.174-0.06-33.28c-0.678-0.072-1.342-0.329-1.927-0.689c-0.848-0.521-1.555-1.237-2.254-1.946
				c-0.945-0.958-1.954-2.065-1.952-3.41c0-0.296,0.055-0.601,0.217-0.849c0.388-0.594,1.235-0.673,1.93-0.531
				c1.603,0.327,2.864,1.42,3.89,2.738c-0.037-2.079-0.066-4.157-0.079-6.233C427.388,369.555,424.886,367.675,423.458,364.886z"/>
			<path fill="#2C4A7E" d="M252.991,323.851c1.959-3.825,2.256-8.855,1.354-13.317c-0.312-1.544-0.798-3.115-1.745-4.108
				c-0.947-0.993-2.461-1.182-3.31-0.044c-0.837,1.124-0.72,2.927-0.651,4.502c0.064,1.459,0.038,2.926-0.079,4.379
				c-0.193,2.395-0.932,5.181-2.704,5.74c-0.017,0.005-0.035,0.006-0.053,0.011c-0.182-11.568-1.017-23.048-3.454-34.33
				c-0.496-2.296-1.77-5.127-3.978-4.816c-1.856,0.261-2.676,2.605-2.944,4.568c-0.886,6.514,0.042,13.118,0.689,19.654
				c0.788,7.957,1.15,15.941,1.24,23.938c-0.538-0.047-1.084-0.035-1.618,0.023c-0.572,0.062-1.156,0.17-1.715,0.037
				c-1.625-0.385-2.13-2.431-2.183-4.099c-0.088-2.728,0.197-5.468,0.842-8.12c0.405-1.662,1.349-4.217-0.368-5.53
				c-0.535-0.409-1.261-0.492-1.927-0.393c-4.99,0.748-3.605,9.937-3.435,13.406c0.128,2.614,0.492,5.316,1.885,7.532
				c1.773,2.819,5.232,4.491,8.534,4.089c-0.101,13.562-0.883,27.149-1.667,40.694c3.296-0.007,6.592,0.159,9.871,0.497
				c-0.608-12.27-0.21-24.641,0.067-36.982c0.753-0.08,1.492-0.366,2.141-0.766c0.942-0.579,1.728-1.375,2.505-2.162
				c1.05-1.065,2.171-2.294,2.169-3.79c-0.001-0.329-0.062-0.668-0.242-0.943c-0.431-0.66-1.372-0.747-2.145-0.59
				c-1.781,0.363-3.182,1.578-4.323,3.042c0.041-2.311,0.073-4.62,0.087-6.926C248.623,329.039,251.404,326.95,252.991,323.851z"/>
			<path fill="#2C4A7E" d="M408.571,356.049c-0.152,1.37-0.435,2.754-1.058,3.977c-0.597,1.172-2.496,3.418-2.558,0.725
				c-0.188-8.223,0.185-16.443,0.609-24.654c0.568-0.096,1.126-0.232,1.652-0.463c1.828-0.803,3.064-2.627,3.559-4.561
				c0.495-1.934,0.337-3.976-0.001-5.944c-0.108-0.632-0.242-1.279-0.601-1.811c-0.358-0.531-0.996-0.923-1.627-0.809
				c-0.619,0.112-1.073,0.68-1.252,1.283c-0.179,0.603-0.139,1.246-0.122,1.874c0.04,1.427-0.052,2.894-0.634,4.198
				c-0.208,0.466-0.491,0.906-0.831,1.292c-0.013-2.718-0.144-5.405-0.081-8.171c0.1-4.343,0.132-8.688,0.095-13.033
				c-0.026-3.14-0.088-6.281-0.185-9.42c-0.078-2.51,0.358-5.199-0.329-7.639c-0.383-1.359-1.19-2.667-2.447-3.31
				c-1.831-0.936-3.541,0.072-4.623,1.582c-0.746,1.041-1.051,2.33-1.255,3.595c-0.524,3.252-0.485,6.565-0.446,9.859
				c0.112,9.301,0.408,18.599,0.589,27.899c0.092,4.702,0.155,9.405,0.15,14.107c-0.002,2.295-0.021,4.591-0.06,6.886
				c-0.013,0.78,0.226,5.368-1.911,3.676c-0.464-0.367-0.649-0.976-0.788-1.551c-1.698-7.037-0.133-14.483-1.265-21.634
				c-0.283-1.791-0.823-3.694-2.26-4.799c-0.497-0.382-1.118-0.654-1.741-0.577c-0.787,0.096-1.423,0.737-1.736,1.465
				c-0.313,0.728-0.361,1.539-0.397,2.332c-0.388,8.582-0.004,17.245,1.446,25.698c0.097,0.564,0.2,1.13,0.311,1.694
				c-0.33-0.172-0.635-0.394-0.894-0.654c-1.041-1.049-1.478-2.55-1.724-4.007c-0.266-1.578-0.353-3.186-0.259-4.784
				c0.029-0.495,0.074-1.005-0.078-1.477c-0.152-0.472-0.561-0.903-1.057-0.907c-0.393-0.003-0.744,0.256-0.988,0.564
				c-0.605,0.763-0.704,1.798-0.762,2.77c-0.124,2.069-0.171,4.164,0.234,6.197c0.406,2.033,1.299,4.019,2.818,5.43
				c1.142,1.06,2.667,1.752,4.209,1.816c0.181,0.39,0.373,0.774,0.593,1.146c1.662,2.815,4.455,4.96,5.529,8.048
				c0.646,1.857,0.598,3.874,0.543,5.84c-0.097,3.458-0.194,6.916-0.29,10.374c-0.044,1.576-0.298,3.307-0.059,4.866
				c0.153,0.999,0.014,2.583,0.705,3.374c0.607,0.694,1.669,0.688,2.589,0.626c1.604-0.107,3.208-0.214,4.813-0.322
				c0.272-0.018,0.566-0.045,0.77-0.227c0.267-0.238,0.279-0.645,0.266-1.003c-0.139-3.855-0.818-7.672-1.075-11.521
				c-0.229-3.425-0.564-8.672,1.858-11.361c3.329-3.698,7.084-7.6,8.876-12.292c1.758-4.603,2.132-9.744,0.954-14.536
				c-0.292-1.187-0.691-2.385-1.476-3.321c-0.786-0.937-2.032-1.568-3.231-1.331c-1.289,0.255-2.225,1.444-2.596,2.704
				c-0.371,1.26-0.291,2.602-0.256,3.916c0.047,1.769,0.004,3.541-0.128,5.306C408.637,355.383,408.608,355.716,408.571,356.049z"/>
			<path fill="#2C4A7E" d="M260.484,318.232c1.37-0.193,2.16,1.564,2.468,2.988c3.992,18.479,1.064,37.812,2.003,56.76
				c-2.034-0.21-4.079-0.313-6.124-0.309c0.857-14.799,1.713-29.679,0.255-44.411c-0.401-4.056-0.978-8.153-0.428-12.195
				C258.823,319.848,259.333,318.393,260.484,318.232z"/>
			<path fill="#2C4A7E" d="M27.205,322.674c1.505-0.212,2.373,1.718,2.711,3.283c4.385,20.302,1.169,41.541,2.2,62.359
				c-2.235-0.231-4.481-0.344-6.728-0.339c0.942-16.258,1.882-32.606,0.28-48.791c-0.441-4.456-1.074-8.957-0.47-13.397
				C25.38,324.45,25.94,322.852,27.205,322.674z"/>
			<path fill="#2C4A7E" d="M184.393,348.813c2.672-1.096,5.57-1.641,8.458-1.589c3.189,0.057,6.318,0.828,9.414,1.594
				c2.687,3.595,6.45,6.375,10.676,7.888c-7.172,2.999-15.302,1.494-23.056,0.934c-5.707-0.412-11.437-0.279-17.157-0.147
				c-6.51,0.151-13.02,0.301-19.53,0.452c0.987-2.214,1.974-4.427,2.962-6.641c0.382-0.857,0.814-1.77,1.63-2.233
				c0.833-0.473,1.876-0.364,2.778-0.688c1.949-0.699,2.831-3.219,4.821-3.79c2.181-0.625,4.535,1.428,6.659,0.633
				c-0.205,1.812,1.387,3.408,3.124,3.963c1.737,0.555,3.609,0.364,5.432,0.391c0.574,0.008,1.152,0.039,1.719-0.055
				C183.044,349.406,183.716,349.09,184.393,348.813z"/>
			<path fill="#2C4A7E" d="M641.743,357.562c1.247-0.155,2.565-0.3,3.716,0.205c0.721,0.316,1.311,0.863,1.935,1.344
				c2.794,2.157,6.329,3.057,9.755,3.906c-6.305,3.967-14.327,3.625-21.453,5.798c-3.597,1.096-6.984,2.844-10.637,3.733
				c-2.529,0.615-5.139,0.807-7.735,0.996c-3.898,0.285-7.796,0.569-11.694,0.854c2.465-4.176,4.405-8.662,5.76-13.318
				c2.77-1.683,5.539-3.366,8.309-5.049c0.508-0.309,1.071-0.629,1.659-0.544c0.411,0.059,0.765,0.31,1.102,0.553
				c0.874,0.632,1.748,1.264,2.622,1.896c1.804,1.304,3.884,2.677,6.074,2.277c0.802-0.147,1.54-0.525,2.292-0.841
				C636.065,358.272,638.924,357.912,641.743,357.562z"/>
		</g>
		<linearGradient id="SVGID_8_" gradientUnits="userSpaceOnUse" x1="305.3676" y1="1.3043" x2="305.3676" y2="56.4471">
			<stop  offset="0" style="stop-color:#296FE2;stop-opacity:0"/>
			<stop  offset="0.1904" style="stop-color:#4081DC;stop-opacity:0.1904"/>
			<stop  offset="0.5369" style="stop-color:#649ED1;stop-opacity:0.5369"/>
			<stop  offset="0.8192" style="stop-color:#7AB0CB;stop-opacity:0.8192"/>
			<stop  offset="1" style="stop-color:#82B6C9"/>
		</linearGradient>
		<path opacity="0.2" fill="url(#SVGID_8_)" d="M557.255,0.51c-29.952,9.43-60.359,17.2-91.569,19.23
			c-6.238,0.4-12.634,0.61-18.436,2.97c-2.673,1.09-5.178,2.63-7.941,3.48c-5.05,1.56-10.812,0.6-15.1-2.52
			c-1.436-1.04-2.891-2.37-4.654-2.32c-2.01,0.06-3.465,1.86-4.862,3.32c-7.475,7.85-21.07,8.63-29.378,1.68
			c-1.634,5.11-7.218,8.07-12.535,8.28c-5.317,0.2-10.446-1.76-15.417-3.7c-5.02,10.72-17.615,17.21-29.15,15.04
			c-3.198-0.6-6.386-1.8-9.604-1.31c-4.376,0.65-7.674,4.21-11.545,6.39c-6.555,3.71-15.228,3.16-21.288-1.33
			c-3.812-2.83-7.03-7.24-11.753-7.59c-7.545-0.56-12.06,9.47-19.545,10.62c-11.535,1.77-21.367-17.99-31.001-11.34
			c-1.891,1.31-3.06,3.4-4.495,5.21c-7.287,9.26-22.872,10-30.992,1.48c-2.178-2.28-3.931-5.14-6.743-6.56
			c-7.297-3.69-17.248,4.27-23.793-0.66c-3.297-2.48-4.05-7.25-7.01-10.13c-7.436-7.24-20.625,2.52-29.883-2.09
			c-3.267-1.62-5.446-4.78-7.911-7.47C98.185,5.46,74.392,6.03,53.48,0.51H557.255z"/>
		<g>
			<path fill="#162D56" d="M749.75,397.22V500h-750v-47.14c63.23,8.57,128.72,6.2,190.72-7.03c30.43-6.5,60.71-15.64,92.17-15.13
				c29.24,0.47,57.26,9.27,86.24,12.47c68.34,7.55,135.14-16.13,201.85-30.32C628.99,400.46,689.56,395.2,749.75,397.22z"/>
			<path fill="#162D56" d="M99.835,358.402c4.127-8.06,4.754-18.657,2.853-28.061c-0.657-3.253-1.68-6.563-3.676-8.655
				c-1.996-2.092-5.186-2.491-6.974-0.092c-1.765,2.367-1.518,6.167-1.371,9.485c0.136,3.075,0.08,6.164-0.166,9.227
				c-0.405,5.047-1.963,10.918-5.697,12.095c-0.037,0.012-0.074,0.013-0.111,0.024c-0.382-24.376-2.142-48.565-7.278-72.337
				c-1.045-4.837-3.73-10.802-8.381-10.148c-3.91,0.55-5.64,5.489-6.203,9.626c-1.867,13.726,0.089,27.641,1.452,41.414
				c1.66,16.766,2.423,33.59,2.613,50.44c-1.133-0.099-2.284-0.073-3.409,0.049c-1.205,0.132-2.435,0.358-3.615,0.079
				c-3.423-0.811-4.487-5.121-4.6-8.638c-0.185-5.748,0.414-11.521,1.775-17.109c0.853-3.502,2.843-8.886-0.774-11.652
				c-1.127-0.862-2.656-1.038-4.06-0.827c-10.514,1.577-7.597,20.939-7.238,28.248c0.27,5.509,1.036,11.202,3.973,15.87
				c3.737,5.939,11.024,9.463,17.983,8.616c-0.212,28.576-1.86,57.206-3.513,85.747c6.946-0.016,13.89,0.334,20.799,1.048
				c-1.281-25.855-0.442-51.921,0.141-77.925c1.587-0.169,3.143-0.771,4.512-1.613c1.985-1.221,3.642-2.897,5.278-4.556
				c2.212-2.244,4.575-4.834,4.57-7.985c-0.001-0.694-0.13-1.407-0.509-1.988c-0.908-1.392-2.891-1.575-4.519-1.243
				c-3.753,0.764-6.705,3.326-9.109,6.41c0.087-4.869,0.154-9.734,0.184-14.594C90.633,369.333,96.492,364.932,99.835,358.402z"/>
			<path fill="#162D56" d="M685.482,296.487c-0.468,4.207-1.335,8.455-3.248,12.213c-1.833,3.598-7.665,10.494-7.854,2.227
				c-0.578-25.251,0.567-50.494,1.871-75.707c1.742-0.296,3.457-0.713,5.072-1.423c5.612-2.466,9.408-8.066,10.929-14.005
				c1.521-5.938,1.033-12.21-0.003-18.252c-0.333-1.94-0.744-3.929-1.845-5.56c-1.101-1.632-3.059-2.835-4.995-2.484
				c-1.901,0.345-3.294,2.087-3.844,3.938c-0.55,1.852-0.428,3.825-0.374,5.756c0.122,4.381-0.16,8.888-1.947,12.89
				c-0.639,1.431-1.509,2.782-2.551,3.967c-0.041-8.346-0.442-16.597-0.247-25.091c0.306-13.338,0.404-26.68,0.293-40.02
				c-0.08-9.644-0.27-19.286-0.568-28.925c-0.239-7.708,1.1-15.966-1.01-23.457c-1.175-4.174-3.654-8.19-7.515-10.164
				c-5.624-2.876-10.874,0.222-14.197,4.859c-2.292,3.197-3.228,7.156-3.853,11.039c-1.608,9.986-1.491,20.159-1.369,30.273
				c0.344,28.562,1.253,57.113,1.81,85.672c0.282,14.438,0.476,28.879,0.461,43.32c-0.007,7.049-0.063,14.097-0.184,21.145
				c-0.041,2.395,0.693,16.485-5.869,11.288c-1.423-1.127-1.992-2.998-2.418-4.763c-5.214-21.61-0.41-44.474-3.884-66.431
				c-0.87-5.499-2.527-11.345-6.941-14.737c-1.527-1.174-3.435-2.007-5.347-1.772c-2.417,0.296-4.369,2.263-5.331,4.5
				s-1.11,4.727-1.22,7.16c-1.191,26.353-0.011,52.955,4.44,78.913c0.297,1.732,0.613,3.47,0.956,5.203
				c-1.014-0.53-1.95-1.209-2.744-2.008c-3.198-3.22-4.54-7.829-5.294-12.305c-0.816-4.846-1.083-9.784-0.794-14.69
				c0.09-1.521,0.228-3.086-0.239-4.536c-0.467-1.451-1.722-2.773-3.245-2.785c-1.206-0.01-2.284,0.786-3.033,1.731
				c-1.858,2.342-2.162,5.521-2.341,8.506c-0.381,6.354-0.526,12.787,0.72,19.029c1.246,6.242,3.99,12.342,8.654,16.674
				c3.506,3.257,8.191,5.379,12.925,5.577c0.555,1.197,1.146,2.377,1.821,3.52c5.105,8.645,13.681,15.232,16.978,24.715
				c1.983,5.703,1.837,11.896,1.668,17.932c-0.297,10.619-0.594,21.238-0.891,31.856c-0.135,4.838-0.915,10.155-0.18,14.943
				c0.471,3.067,0.044,7.933,2.166,10.361c1.864,2.132,5.125,2.112,7.95,1.924c4.926-0.329,9.853-0.659,14.779-0.988
				c0.836-0.056,1.739-0.139,2.365-0.696c0.821-0.731,0.857-1.98,0.817-3.079c-0.428-11.839-2.511-23.559-3.302-35.379
				c-0.704-10.517-1.732-26.628,5.704-34.888c10.222-11.354,21.755-23.337,27.257-37.746c5.397-14.136,6.547-29.922,2.93-44.636
				c-0.896-3.645-2.121-7.322-4.534-10.198c-2.412-2.876-6.24-4.815-9.922-4.087c-3.958,0.783-6.831,4.434-7.971,8.304
				c-1.14,3.871-0.892,7.991-0.786,12.025c0.144,5.434,0.012,10.874-0.394,16.295C685.686,294.439,685.595,295.462,685.482,296.487z
				"/>
			<path fill="#162D56" d="M580.261,197.44c3.917-0.709,6.212,5.988,7.117,11.412c11.753,70.376,3.713,143.878,6.735,215.985
				c-5.827-0.835-11.682-1.263-17.536-1.282c2.193-56.288,4.38-112.886-0.054-168.961c-1.221-15.437-2.942-31.035-1.44-46.403
				C575.536,203.559,576.969,198.036,580.261,197.44z"/>
			<path fill="#162D56" d="M554.33,257.151c3.92-0.542,6.182,4.387,7.061,8.384c11.406,51.859,3.006,106.122,5.672,159.303
				c-5.823-0.588-11.675-0.875-17.528-0.859c2.469-41.536,4.935-83.299,0.776-124.645c-1.145-11.382-2.789-22.881-1.211-34.225
				C549.575,261.688,551.035,257.606,554.33,257.151z"/>
			<path fill="#162D56" d="M131.32,457.219c-0.891,0.22-2.16,0.544-3.663,0.999c-0.754,0.22-1.568,0.471-2.42,0.76
				c-0.857,0.277-1.754,0.592-2.676,0.934c-0.915,0.359-1.877,0.694-2.823,1.114c-0.955,0.396-1.912,0.835-2.871,1.268
				c-0.941,0.474-1.889,0.93-2.799,1.431c-0.923,0.473-1.788,1.023-2.638,1.525c-0.838,0.526-1.639,1.047-2.373,1.581
				c-0.367,0.266-0.724,0.525-1.069,0.775c-0.341,0.255-0.656,0.524-0.965,0.77c-0.247,0.203-0.486,0.392-0.714,0.582
				c0.123-0.409,0.202-0.831,0.233-1.256c0.015-0.015,0.028-0.028,0.043-0.043c0.551-0.546,1.148-1.137,1.779-1.762
				c0.625-0.629,1.323-1.254,2.007-1.935c0.705-0.661,1.438-1.337,2.187-2.02c0.738-0.695,1.521-1.363,2.292-2.044
				c0.78-0.67,1.548-1.357,2.337-1.993c0.783-0.644,1.553-1.278,2.299-1.892c0.767-0.586,1.482-1.191,2.19-1.726
				c0.705-0.54,1.372-1.051,1.987-1.523c1.246-0.933,2.285-1.711,3.012-2.255c0.733-0.542,1.146-0.866,1.146-0.866
				s-0.48,0.206-1.31,0.591c-0.417,0.191-0.916,0.434-1.478,0.734c-0.568,0.29-1.205,0.626-1.879,1.026
				c-0.686,0.383-1.413,0.824-2.169,1.312c-0.764,0.476-1.548,1.012-2.351,1.577c-0.788,0.585-1.629,1.158-2.424,1.816
				c-0.814,0.634-1.61,1.316-2.415,1.988c-0.774,0.708-1.558,1.403-2.297,2.124c-0.758,0.701-1.441,1.454-2.127,2.156
				c-0.669,0.719-1.305,1.424-1.881,2.116c-0.363,0.423-0.699,0.833-1.02,1.237c-0.024-0.134-0.053-0.266-0.088-0.397
				c0.423-0.509,0.856-1.031,1.291-1.584c0.569-0.722,1.176-1.454,1.759-2.224c0.587-0.766,1.184-1.544,1.781-2.322
				c0.582-0.789,1.164-1.578,1.737-2.355c0.58-0.772,1.113-1.56,1.649-2.307c1.06-1.503,2.022-2.927,2.823-4.165
				c1.615-2.466,2.577-4.196,2.577-4.196s-1.395,1.405-3.315,3.641c-0.967,1.113-2.067,2.433-3.217,3.869
				c-0.569,0.722-1.178,1.453-1.758,2.225c-0.587,0.766-1.184,1.544-1.78,2.323c-0.582,0.789-1.164,1.579-1.736,2.356
				c-0.577,0.774-1.112,1.56-1.648,2.307c-0.244,0.339-0.477,0.676-0.705,1.008c-0.202-0.432-0.414-0.861-0.595-1.302
				c0.297-0.548,0.603-1.109,0.917-1.688c0.686-1.276,1.465-2.591,2.224-3.975c0.788-1.369,1.608-2.779,2.454-4.204
				c0.828-1.436,1.723-2.862,2.6-4.299c0.894-1.426,1.769-2.865,2.682-4.248c0.898-1.393,1.79-2.759,2.662-4.076
				c0.898-1.298,1.726-2.583,2.56-3.768c0.83-1.189,1.614-2.312,2.338-3.35c0.728-1.035,1.401-1.981,2.005-2.816
				c0.602-0.836,1.128-1.565,1.56-2.165c0.87-1.198,1.357-1.893,1.357-1.893s-0.59,0.608-1.605,1.69
				c-0.51,0.539-1.117,1.205-1.794,1.985c-0.341,0.388-0.704,0.801-1.088,1.236c-0.371,0.445-0.762,0.913-1.169,1.401
				c-0.405,0.491-0.827,1.002-1.263,1.531c-0.423,0.54-0.861,1.098-1.31,1.672c-0.904,1.145-1.817,2.383-2.754,3.669
				c-0.912,1.304-1.891,2.627-2.797,4.032c-0.936,1.385-1.836,2.825-2.751,4.255c-0.868,1.459-1.754,2.908-2.574,4.365
				c-0.848,1.441-1.595,2.907-2.353,4.306c-0.731,1.414-1.428,2.785-2.048,4.105c-0.118,0.244-0.232,0.484-0.346,0.725
				c-0.164-0.599-0.316-1.203-0.48-1.803c0.282-0.785,0.578-1.588,0.862-2.416c0.488-1.323,0.999-2.687,1.53-4.068
				c0.513-1.388,1.09-2.776,1.648-4.172c0.576-1.388,1.131-2.785,1.733-4.137c0.586-1.359,1.17-2.693,1.745-3.98
				c0.603-1.274,1.142-2.528,1.705-3.693c0.558-1.168,1.086-2.272,1.573-3.292c0.492-1.018,0.948-1.95,1.359-2.773
				c0.41-0.825,0.767-1.544,1.062-2.136c0.594-1.182,0.922-1.868,0.922-1.868s-0.443,0.614-1.198,1.706
				c-0.38,0.544-0.828,1.213-1.321,1.994c-0.25,0.389-0.515,0.803-0.795,1.24c-0.267,0.444-0.548,0.911-0.841,1.398
				c-0.29,0.489-0.593,0.999-0.906,1.526c-0.299,0.536-0.607,1.09-0.924,1.659c-0.639,1.137-1.27,2.36-1.914,3.629
				c-0.617,1.282-1.294,2.59-1.887,3.962c-0.624,1.358-1.205,2.762-1.801,4.159c-0.547,1.417-1.112,2.827-1.613,4.235
				c-0.531,1.398-0.961,2.806-1.414,4.155c-0.082,0.263-0.158,0.515-0.238,0.775c-0.344-0.851-0.722-1.69-1.05-2.544
				c0.138-0.681,0.279-1.372,0.423-2.083c0.186-0.957,0.397-1.936,0.626-2.934c0.218-0.999,0.441-2.02,0.667-3.059
				c0.495-2.066,0.986-4.206,1.557-6.36c0.527-2.167,1.172-4.336,1.791-6.512c0.673-2.158,1.297-4.335,2.056-6.427
				c0.182-0.526,0.363-1.049,0.544-1.57c0.17-0.525,0.356-1.041,0.554-1.549c0.385-1.02,0.766-2.028,1.14-3.02
				c0.379-0.99,0.815-1.936,1.194-2.884c0.386-0.944,0.764-1.869,1.187-2.744c0.407-0.883,0.803-1.741,1.187-2.572
				c0.377-0.834,0.804-1.609,1.18-2.37c0.386-0.757,0.755-1.483,1.107-2.173c0.378-0.676,0.736-1.318,1.072-1.921
				c0.336-0.605,0.651-1.171,0.941-1.694c0.293-0.522,0.596-0.981,0.851-1.408c1.031-1.704,1.621-2.677,1.621-2.677
				s-0.686,0.909-1.887,2.5c-0.294,0.403-0.638,0.838-0.978,1.334c-0.332,0.502-0.691,1.044-1.074,1.624
				c-0.383,0.582-0.79,1.2-1.22,1.853c-0.409,0.665-0.81,1.381-1.245,2.12c-0.423,0.745-0.899,1.504-1.328,2.322
				c-0.424,0.822-0.862,1.672-1.312,2.545c-0.465,0.868-0.885,1.785-1.315,2.724c-0.43,0.938-0.879,1.894-1.293,2.883
				c-0.801,1.989-1.679,4.028-2.394,6.164c-0.785,2.112-1.437,4.305-2.132,6.483c-0.608,2.204-1.241,4.401-1.754,6.59
				c-0.57,2.176-0.977,4.352-1.434,6.442c-0.385,2.033-0.765,3.997-1.056,5.877c-0.006-0.027-0.011-0.054-0.017-0.081
				c-0.002-0.18-0.006-0.357-0.007-0.538c-0.017-1.023-0.034-2.068-0.051-3.13c0.008-2.125-0.003-4.32,0.059-6.548
				c0.016-2.23,0.147-4.489,0.251-6.749c0.161-2.255,0.269-4.517,0.529-6.727c0.057-0.553,0.113-1.105,0.17-1.653
				c0.045-0.55,0.108-1.095,0.184-1.635c0.141-1.082,0.281-2.15,0.418-3.201c0.142-1.05,0.35-2.072,0.502-3.081
				c0.16-1.008,0.316-1.995,0.527-2.943c0.212-1.039,0.264-3.156,1.615-3.433c0.241-0.049,0.505-0.034,0.714-0.164
				c0.647-0.401,0.055-1.537,0.538-2.126c0.807,0.197,1.697-0.535,1.66-1.364c-0.025-0.556-0.388-1.124-0.167-1.635
				c0.251-0.581,1.072-0.659,1.471-1.15c0.727-0.894-0.413-2.285,0.027-3.35c0.319-0.774,1.407-1.177,1.402-2.014
				c-0.004-0.691-0.795-1.185-0.805-1.877c-0.004-0.273,0.118-0.53,0.188-0.793c0.125-0.473,0.06-1.027-0.287-1.373
				c-0.347-0.345-1.006-0.368-1.29,0.03c-0.136,0.191-0.172,0.441-0.319,0.624c-0.471,0.585-1.59,0.038-2.095,0.595
				c-0.449,0.494,0,1.435-0.496,1.882c-0.345,0.311-0.914,0.151-1.325,0.369c-0.368,0.195-0.522,0.651-0.517,1.067
				c0.005,0.416,0.135,0.82,0.184,1.233c0.028,0.235,0.023,0.493-0.122,0.68c-0.19,0.247-0.545,0.28-0.816,0.432
				c-0.476,0.267-0.65,0.893-0.561,1.432c0.089,0.539,0.384,1.018,0.654,1.493c0.112,0.197,0.222,0.44,0.113,0.639
				c-0.065,0.118-0.191,0.186-0.294,0.273c-0.535,0.457-0.334,1.321-0.032,1.956c0.629,1.321,0.427,2.187,0.08,3.541
				c-0.224,0.897-0.456,1.825-0.694,2.778c-0.253,0.951-0.452,1.941-0.656,2.953c-0.204,1.012-0.422,2.045-0.598,3.103
				c-0.324,2.119-0.711,4.305-0.918,6.548c-0.28,2.236-0.412,4.52-0.589,6.799c-0.086,2.284-0.199,4.568-0.197,6.817
				c-0.056,2.249,0.046,4.46,0.08,6.6c0.027,0.618,0.054,1.229,0.081,1.834c-0.088,0.678-0.188,1.355-0.302,2.03
				c0.003-0.735-0.006-1.481-0.027-2.245c-0.021-0.95-0.046-1.921-0.09-2.908c-0.129-1.971-0.205-4.013-0.44-6.076
				c-0.176-2.068-0.477-4.155-0.738-6.248c-0.352-2.079-0.666-4.164-1.093-6.195c-0.367-2.043-0.884-4.021-1.329-5.945
				c-0.243-0.957-0.496-1.895-0.751-2.811c-0.249-0.917-0.501-1.812-0.778-2.674c-0.268-0.864-0.529-1.705-0.781-2.518
				c-0.262-0.81-0.549-1.581-0.806-2.327c-0.265-0.743-0.505-1.46-0.757-2.133c-0.264-0.669-0.514-1.304-0.749-1.9
				c-0.236-0.595-0.457-1.152-0.662-1.668c-0.211-0.512-0.425-0.976-0.607-1.397c-0.751-1.677-1.181-2.636-1.181-2.636
				s0.321,0.999,0.882,2.749c0.298,0.867,0.616,1.935,0.987,3.156c0.186,0.61,0.384,1.259,0.593,1.943
				c0.195,0.688,0.4,1.411,0.614,2.166c0.442,1.504,0.86,3.15,1.311,4.888c0.236,0.866,0.446,1.763,0.651,2.683
				c0.214,0.917,0.433,1.853,0.656,2.806c0.4,1.915,0.82,3.892,1.182,5.913c0.405,2.013,0.695,4.079,1.028,6.137
				c0.276,2.066,0.593,4.129,0.785,6.173c0.239,2.039,0.404,4.053,0.573,6.002c0.062,0.976,0.122,1.936,0.182,2.876
				c0.068,0.94,0.125,1.86,0.149,2.757c0.035,0.897,0.069,1.77,0.102,2.613c0.024,0.583,0.032,1.148,0.039,1.703
				c-0.032,0.121-0.067,0.242-0.1,0.363c-0.019-0.325-0.039-0.654-0.062-0.988c-0.078-1.388-0.197-2.852-0.331-4.364
				c-0.164-1.51-0.287-3.077-0.519-4.658c-0.196-1.585-0.462-3.187-0.713-4.792c-0.312-1.595-0.596-3.195-0.969-4.753
				c-0.324-1.568-0.775-3.081-1.171-4.553c-0.208-0.733-0.44-1.448-0.666-2.146c-0.225-0.699-0.445-1.382-0.698-2.035
				c-0.244-0.655-0.48-1.292-0.71-1.909c-0.235-0.614-0.507-1.191-0.743-1.752c-0.245-0.558-0.468-1.098-0.701-1.601
				c-0.25-0.496-0.486-0.967-0.709-1.41c-0.223-0.441-0.432-0.854-0.626-1.235c-0.2-0.378-0.408-0.713-0.583-1.021
				c-0.716-1.226-1.137-1.914-1.137-1.914s0.302,0.755,0.85,2.055c0.134,0.326,0.298,0.68,0.449,1.078
				c0.15,0.397,0.312,0.827,0.485,1.287c0.174,0.458,0.359,0.945,0.554,1.458c0.177,0.52,0.363,1.066,0.558,1.636
				c0.406,1.133,0.772,2.385,1.173,3.702c0.211,0.655,0.388,1.34,0.569,2.04c0.174,0.702,0.395,1.406,0.569,2.137
				c0.351,1.461,0.703,2.971,1.021,4.516c0.35,1.537,0.61,3.121,0.903,4.697c0.266,1.582,0.547,3.162,0.759,4.729
				c0.236,1.563,0.446,3.107,0.651,4.6c0.189,1.498,0.371,2.945,0.544,4.318c0.155,1.27,0.301,2.472,0.438,3.595
				c-0.016,0.047-0.029,0.095-0.045,0.142c-0.046-0.168-0.088-0.332-0.136-0.502c-0.314-1.055-0.608-2.157-0.978-3.252
				c-0.351-1.102-0.738-2.21-1.115-3.322c-0.408-1.1-0.813-2.202-1.231-3.277c-0.401-1.083-0.859-2.123-1.272-3.141
				c-0.853-2.025-1.692-3.896-2.451-5.481c-1.499-3.178-2.643-5.234-2.643-5.234s0.16,0.566,0.464,1.547
				c0.305,0.98,0.754,2.375,1.324,4.035c0.284,0.83,0.588,1.73,0.929,2.675c0.337,0.946,0.676,1.948,1.058,2.973
				c0.737,2.057,1.523,4.251,2.309,6.445c0.335,0.94,0.674,1.877,0.995,2.81c-0.114-0.24-0.222-0.475-0.34-0.717
				c-0.53-1.091-1.056-2.229-1.629-3.366c-0.568-1.14-1.144-2.298-1.721-3.456c-0.593-1.149-1.186-2.299-1.77-3.431
				c-0.576-1.136-1.185-2.232-1.752-3.304c-1.147-2.138-2.248-4.118-3.218-5.801c-1.926-3.374-3.337-5.559-3.337-5.559
				s0.929,2.43,2.514,5.977c0.785,1.777,1.732,3.835,2.779,6.024c0.53,1.091,1.055,2.23,1.63,3.366
				c0.568,1.14,1.145,2.297,1.722,3.455c0.593,1.149,1.187,2.299,1.771,3.43c0.579,1.134,1.186,2.231,1.753,3.303
				c0.566,1.073,1.14,2.096,1.678,3.069c0.127,0.233,0.251,0.45,0.376,0.675c-0.157-0.176-0.314-0.353-0.474-0.533
				c-0.419-0.464-0.84-0.948-1.263-1.448c-0.429-0.496-0.867-1.003-1.312-1.518c-0.869-1.048-1.777-2.122-2.662-3.243
				c-0.908-1.103-1.772-2.268-2.65-3.421c-0.848-1.175-1.724-2.331-2.505-3.525c-0.2-0.295-0.398-0.59-0.596-0.883
				c-0.204-0.289-0.397-0.582-0.581-0.879c-0.375-0.59-0.745-1.172-1.11-1.745c-0.362-0.575-0.679-1.162-1.02-1.721
				c-0.336-0.561-0.665-1.11-0.951-1.664c-0.323-0.598-1.168-1.66-0.617-2.352c0.098-0.123,0.234-0.224,0.284-0.374
				c0.153-0.463-0.604-0.778-0.609-1.266c0.478-0.235,0.615-0.96,0.256-1.353c-0.241-0.263-0.653-0.393-0.754-0.735
				c-0.115-0.389,0.257-0.765,0.251-1.17c-0.01-0.738-1.142-0.954-1.364-1.658c-0.161-0.512,0.208-1.157-0.139-1.567
				c-0.286-0.338-0.878-0.256-1.167-0.592c-0.114-0.133-0.16-0.309-0.234-0.467c-0.133-0.284-0.393-0.53-0.705-0.557
				c-0.312-0.027-0.646,0.232-0.622,0.545c0.012,0.15,0.097,0.288,0.1,0.438c0.009,0.481-0.766,0.672-0.785,1.153
				c-0.017,0.427,0.59,0.706,0.53,1.129c-0.042,0.295-0.387,0.45-0.5,0.725c-0.101,0.247,0.011,0.535,0.184,0.737
				c0.174,0.202,0.403,0.348,0.597,0.531c0.11,0.104,0.214,0.233,0.22,0.384c0.008,0.2-0.153,0.362-0.224,0.548
				c-0.124,0.327,0.048,0.706,0.313,0.935c0.265,0.228,0.607,0.342,0.935,0.465c0.136,0.051,0.29,0.125,0.318,0.268
				c0.017,0.085-0.018,0.17-0.032,0.255c-0.075,0.444,0.378,0.787,0.788,0.975c0.852,0.391,1.109,0.9,1.494,1.708
				c0.259,0.533,0.526,1.084,0.801,1.651c0.266,0.572,0.575,1.14,0.891,1.721c0.316,0.581,0.633,1.179,0.981,1.771
				c0.712,1.175,1.42,2.409,2.24,3.597c0.781,1.214,1.655,2.391,2.505,3.585c0.896,1.159,1.779,2.328,2.705,3.433
				c0.897,1.129,1.856,2.174,2.752,3.212c0.925,1.012,1.814,1.995,2.694,2.891c0.437,0.451,0.862,0.889,1.274,1.313
				c0.393,0.387,0.77,0.759,1.136,1.12c0.012,0.021,0.025,0.043,0.037,0.064c-0.137,0.353-0.271,0.707-0.415,1.056
				c-0.083,0.2-0.166,0.4-0.248,0.601c-0.565-0.645-1.171-1.294-1.812-1.956c-0.761-0.747-1.525-1.545-2.366-2.286
				c-0.821-0.763-1.689-1.495-2.547-2.242c-0.885-0.712-1.765-1.43-2.654-2.106c-0.873-0.697-1.781-1.316-2.637-1.945
				c-1.735-1.225-3.385-2.321-4.827-3.216c-1.434-0.908-2.657-1.619-3.516-2.112c-0.862-0.49-1.362-0.758-1.362-0.758
				s0.423,0.379,1.179,1.02c0.756,0.641,1.844,1.543,3.164,2.602c0.66,0.528,1.375,1.1,2.132,1.705
				c0.757,0.601,1.555,1.235,2.381,1.891c0.82,0.66,1.667,1.341,2.528,2.034c0.868,0.683,1.722,1.407,2.585,2.121
				c0.856,0.72,1.724,1.428,2.542,2.164c0.831,0.723,1.64,1.44,2.418,2.145c0.755,0.725,1.52,1.393,2.201,2.071
				c0.053,0.052,0.102,0.1,0.155,0.152c-0.027,0.104-0.052,0.209-0.073,0.315c-0.012-0.007-0.024-0.013-0.036-0.02
				c-0.707-0.379-1.45-0.787-2.232-1.18c-0.781-0.394-1.578-0.823-2.406-1.22c-0.826-0.402-1.664-0.811-2.503-1.22
				c-0.847-0.392-1.693-0.784-2.527-1.17c-0.83-0.394-1.666-0.738-2.465-1.095c-1.604-0.7-3.116-1.322-4.424-1.829
				c-2.61-1.028-4.412-1.584-4.412-1.584s1.569,1.045,4.015,2.418c1.22,0.694,2.657,1.473,4.213,2.274
				c0.781,0.394,1.577,0.824,2.407,1.219c0.826,0.402,1.665,0.811,2.503,1.219c0.847,0.392,1.693,0.784,2.527,1.169
				c0.831,0.391,1.667,0.738,2.466,1.094c0.798,0.358,1.583,0.676,2.324,0.984c0.159,0.065,0.308,0.127,0.463,0.19
				c0.112,1.75,1.144,3.443,2.692,4.288c1.882,1.027,4.382,0.75,6.018-0.635c0.429-0.363,0.791-0.797,1.083-1.274
				c0.019-0.013,0.037-0.024,0.057-0.037c0.525-0.351,1.125-0.732,1.789-1.138c0.654-0.419,1.386-0.834,2.148-1.288
				c0.76-0.458,1.597-0.883,2.434-1.365c0.854-0.456,1.741-0.915,2.649-1.373c0.898-0.474,1.838-0.906,2.769-1.353
				c0.936-0.439,1.867-0.89,2.802-1.297c0.931-0.417,1.847-0.828,2.734-1.225c1.787-0.783,3.454-1.513,4.884-2.14
				c1.432-0.63,2.621-1.174,3.451-1.564c0.83-0.39,1.299-0.628,1.299-0.628S132.212,457.003,131.32,457.219z"/>
			<path fill="#162D56" d="M492.319,420.054c1.338,0.067,3.247,0.176,5.529,0.408c1.142,0.104,2.378,0.237,3.681,0.412
				c1.305,0.158,2.679,0.358,4.095,0.591c1.412,0.259,2.884,0.469,4.356,0.808c1.479,0.301,2.973,0.663,4.468,1.016
				c1.481,0.416,2.967,0.805,4.411,1.269c1.455,0.421,2.847,0.967,4.207,1.449c1.348,0.52,2.642,1.043,3.842,1.603
				c0.6,0.279,1.183,0.55,1.748,0.812c0.56,0.271,1.086,0.568,1.598,0.833c0.411,0.221,0.806,0.426,1.186,0.635
				c-0.29-0.551-0.522-1.134-0.685-1.735c-0.025-0.017-0.048-0.032-0.073-0.05c-0.942-0.628-1.962-1.309-3.041-2.028
				c-1.072-0.727-2.246-1.428-3.417-2.212c-1.194-0.751-2.435-1.514-3.698-2.284c-1.251-0.789-2.56-1.529-3.856-2.289
				c-1.306-0.743-2.597-1.512-3.905-2.203c-1.302-0.704-2.583-1.398-3.823-2.068c-1.263-0.626-2.457-1.293-3.62-1.861
				c-1.161-0.578-2.259-1.123-3.273-1.627c-2.047-0.989-3.753-1.814-4.946-2.391c-1.201-0.572-1.884-0.921-1.884-0.921
				s0.745,0.161,2.043,0.482c0.65,0.157,1.434,0.365,2.323,0.638c0.895,0.257,1.901,0.56,2.979,0.946
				c1.09,0.358,2.255,0.785,3.474,1.274c1.228,0.469,2.501,1.018,3.81,1.603c1.293,0.617,2.658,1.204,3.981,1.925
				c1.344,0.681,2.675,1.436,4.016,2.174c1.306,0.798,2.625,1.575,3.884,2.402c1.281,0.792,2.472,1.681,3.651,2.495
				c1.159,0.844,2.268,1.676,3.286,2.506c0.639,0.504,1.234,0.999,1.807,1.487c-0.003-0.198,0.002-0.396,0.014-0.594
				c-0.748-0.611-1.514-1.238-2.292-1.91c-1.017-0.876-2.091-1.756-3.141-2.696c-1.056-0.934-2.128-1.882-3.201-2.83
				c-1.054-0.968-2.109-1.937-3.147-2.89c-1.046-0.944-2.03-1.924-3.007-2.845c-1.939-1.858-3.715-3.629-5.209-5.18
				c-3.003-3.083-4.866-5.293-4.866-5.293s2.391,1.624,5.768,4.292c1.697,1.325,3.642,2.909,5.69,4.645
				c1.017,0.876,2.093,1.753,3.14,2.697c1.055,0.934,2.128,1.882,3.2,2.831c1.054,0.969,2.108,1.937,3.146,2.891
				c1.043,0.947,2.029,1.925,3.006,2.846c0.444,0.418,0.872,0.835,1.292,1.248c0.168-0.676,0.353-1.349,0.489-2.032
				c-0.579-0.702-1.173-1.422-1.785-2.163c-1.339-1.637-2.824-3.303-4.298-5.075c-1.512-1.741-3.08-3.533-4.691-5.339
				c-1.588-1.826-3.268-3.62-4.926-5.435c-1.68-1.794-3.335-3.612-5.03-5.339c-1.676-1.745-3.336-3.453-4.953-5.097
				c-1.649-1.61-3.195-3.219-4.72-4.684c-1.521-1.472-2.959-2.863-4.286-4.148c-1.333-1.28-2.562-2.448-3.66-3.475
				c-1.097-1.03-2.053-1.928-2.84-2.667c-1.582-1.473-2.474-2.334-2.474-2.334s1.015,0.706,2.772,1.974
				c0.882,0.63,1.937,1.415,3.125,2.344c0.598,0.461,1.233,0.951,1.904,1.468c0.656,0.534,1.347,1.095,2.067,1.681
				c0.717,0.59,1.465,1.205,2.238,1.841c0.757,0.655,1.54,1.333,2.345,2.029c1.615,1.388,3.269,2.907,4.971,4.489
				c1.671,1.613,3.443,3.237,5.134,4.996c1.728,1.723,3.42,3.535,5.131,5.329c1.652,1.849,3.326,3.677,4.907,5.536
				c1.617,1.828,3.098,3.72,4.574,5.514c1.442,1.821,2.824,3.592,4.082,5.31c0.238,0.317,0.468,0.629,0.698,0.942
				c0.068-0.905,0.117-1.812,0.185-2.718c-0.624-1.046-1.271-2.114-1.909-3.222c-1.069-1.76-2.181-3.572-3.329-5.402
				c-1.123-1.846-2.337-3.674-3.526-5.518c-1.214-1.828-2.399-3.675-3.639-5.444c-1.219-1.783-2.429-3.531-3.612-5.216
				c-1.22-1.657-2.343-3.303-3.474-4.815c-1.126-1.518-2.191-2.953-3.174-4.278c-0.989-1.322-1.903-2.53-2.722-3.594
				c-0.818-1.067-1.531-1.998-2.118-2.764c-1.182-1.529-1.843-2.419-1.843-2.419s0.807,0.756,2.192,2.11
				c0.697,0.673,1.526,1.507,2.45,2.489c0.466,0.488,0.962,1.007,1.485,1.554c0.507,0.562,1.04,1.152,1.596,1.768
				c0.553,0.62,1.129,1.266,1.725,1.934c0.577,0.684,1.174,1.392,1.788,2.12c1.233,1.451,2.479,3.027,3.756,4.666
				c1.242,1.665,2.578,3.35,3.811,5.151c1.274,1.772,2.498,3.621,3.743,5.456c1.179,1.878,2.383,3.74,3.494,5.619
				c1.151,1.854,2.161,3.752,3.186,5.559c0.191,0.353,0.37,0.695,0.557,1.044c0.256-1.315,0.563-2.624,0.794-3.939
				c-0.388-0.937-0.783-1.888-1.188-2.867c-0.534-1.319-1.11-2.663-1.716-4.029c-0.591-1.371-1.196-2.772-1.81-4.197
				c-1.286-2.823-2.588-5.751-4.008-8.679c-1.36-2.957-2.891-5.886-4.385-8.832c-1.568-2.905-3.069-5.85-4.742-8.636
				c-0.408-0.703-0.814-1.402-1.218-2.099c-0.39-0.705-0.8-1.393-1.226-2.065c-0.837-1.354-1.664-2.693-2.478-4.009
				c-0.819-1.313-1.709-2.547-2.517-3.799c-0.818-1.246-1.617-2.465-2.468-3.601c-0.83-1.151-1.638-2.271-2.419-3.354
				c-0.774-1.09-1.601-2.08-2.353-3.066c-0.764-0.977-1.497-1.914-2.193-2.805c-0.73-0.864-1.423-1.683-2.073-2.453
				c-0.651-0.773-1.259-1.496-1.822-2.164c-0.566-0.667-1.128-1.24-1.613-1.779c-1.954-2.153-3.07-3.384-3.07-3.384
				s1.237,1.111,3.403,3.056c0.533,0.496,1.148,1.022,1.773,1.638c0.616,0.626,1.281,1.304,1.993,2.028
				c0.711,0.726,1.468,1.499,2.265,2.314c0.771,0.839,1.547,1.753,2.376,2.69c0.814,0.949,1.709,1.904,2.552,2.957
				c0.837,1.059,1.702,2.155,2.591,3.281c0.908,1.114,1.767,2.311,2.645,3.536c0.878,1.224,1.789,2.468,2.658,3.77
				c1.704,2.626,3.531,5.303,5.152,8.164c1.715,2.807,3.261,5.768,4.866,8.696c1.486,2.988,3.007,5.96,4.354,8.954
				c1.424,2.96,2.616,5.964,3.855,8.831c1.119,2.806,2.213,5.514,3.155,8.126c0-0.04,0.001-0.081,0.001-0.122
				c-0.047-0.258-0.091-0.512-0.14-0.772c-0.262-1.47-0.529-2.972-0.801-4.5c-0.605-3.042-1.202-6.191-1.913-9.366
				c-0.646-3.19-1.465-6.391-2.245-9.601c-0.86-3.187-1.647-6.397-2.637-9.492c-0.236-0.777-0.471-1.551-0.705-2.322
				c-0.218-0.776-0.46-1.539-0.721-2.291c-0.505-1.51-1.003-3.002-1.493-4.47c-0.497-1.465-1.08-2.871-1.579-4.275
				c-0.51-1.4-1.009-2.77-1.577-4.07c-0.594-1.43-1.259-4.449-3.273-4.469c-0.359-0.004-0.733,0.092-1.069-0.035
				c-1.039-0.394-0.508-2.187-1.364-2.896c-1.101,0.508-2.581-0.292-2.76-1.491c-0.12-0.804,0.243-1.719-0.217-2.389
				c-0.522-0.762-1.721-0.644-2.43-1.237c-1.291-1.079-0.047-3.39-0.974-4.793c-0.674-1.021-2.345-1.293-2.572-2.495
				c-0.187-0.992,0.808-1.921,0.629-2.914c-0.071-0.392-0.317-0.726-0.491-1.085c-0.311-0.643-0.372-1.455,0.028-2.047
				c0.4-0.592,1.339-0.809,1.857-0.317c0.248,0.236,0.37,0.584,0.631,0.805c0.838,0.707,2.289-0.389,3.168,0.267
				c0.781,0.583,0.401,2.057,1.236,2.559c0.581,0.35,1.352-0.038,2.001,0.158c0.581,0.176,0.931,0.787,1.039,1.385
				c0.109,0.598,0.036,1.213,0.081,1.819c0.026,0.344,0.105,0.713,0.364,0.941c0.342,0.3,0.859,0.249,1.291,0.392
				c0.757,0.25,1.181,1.098,1.203,1.896c0.023,0.797-0.267,1.565-0.521,2.322c-0.105,0.313-0.195,0.693,0.017,0.947
				c0.126,0.151,0.326,0.213,0.497,0.31c0.894,0.505,0.848,1.799,0.592,2.794c-0.533,2.068-0.002,3.253,0.875,5.097
				c0.572,1.223,1.163,2.487,1.77,3.787c0.629,1.292,1.19,2.655,1.764,4.048c0.574,1.393,1.176,2.813,1.723,4.279
				c1.057,2.947,2.222,5.971,3.144,9.128c1.026,3.126,1.853,6.361,2.744,9.579c0.762,3.249,1.561,6.49,2.187,9.714
				c0.708,3.207,1.18,6.405,1.728,9.48c0.134,0.894,0.266,1.776,0.396,2.651c0.315,0.948,0.649,1.889,1,2.824
				c-0.21-1.053-0.405-2.124-0.588-3.225c-0.236-1.367-0.47-2.766-0.683-4.193c-0.366-2.86-0.827-5.808-1.066-8.829
				c-0.325-3.013-0.476-6.088-0.687-9.159c-0.077-3.077-0.208-6.153-0.164-9.183c-0.045-3.03,0.144-6.009,0.243-8.89
				c0.081-1.44,0.182-2.854,0.291-4.238c0.101-1.384,0.212-2.737,0.368-4.049c0.143-1.313,0.282-2.59,0.416-3.826
				c0.149-1.234,0.345-2.419,0.505-3.56c0.172-1.139,0.315-2.233,0.489-3.269c0.191-1.032,0.373-2.012,0.543-2.932
				c0.172-0.919,0.334-1.779,0.483-2.574c0.16-0.793,0.336-1.517,0.479-2.172c0.608-2.614,0.956-4.107,0.956-4.107
				s-0.18,1.522-0.496,4.185c-0.185,1.326-0.343,2.945-0.533,4.798c-0.097,0.926-0.199,1.911-0.308,2.95
				c-0.087,1.04-0.179,2.134-0.275,3.275c-0.214,2.279-0.353,4.755-0.513,7.37c-0.096,1.306-0.146,2.651-0.184,4.026
				c-0.051,1.374-0.103,2.777-0.156,4.204c-0.038,2.856-0.089,5.806-0.042,8.803c-0.018,2.998,0.144,6.039,0.241,9.081
				c0.182,3.038,0.304,6.082,0.599,9.065c0.227,2.989,0.553,5.921,0.855,8.761c0.184,1.416,0.366,2.809,0.543,4.172
				c0.165,1.366,0.34,2.7,0.557,3.992c0.201,1.295,0.395,2.555,0.584,3.774c0.128,0.843,0.275,1.653,0.419,2.451
				c0.08,0.165,0.164,0.327,0.245,0.492c-0.064-0.471-0.126-0.949-0.187-1.434c-0.275-2.011-0.515-4.142-0.744-6.347
				c-0.186-2.21-0.448-4.489-0.558-6.819c-0.161-2.326-0.228-4.696-0.317-7.065c0.001-2.373-0.038-4.745,0.061-7.082
				c0.026-2.337,0.25-4.632,0.406-6.852c0.094-1.109,0.226-2.198,0.355-3.262c0.128-1.064,0.251-2.105,0.432-3.111
				c0.166-1.007,0.328-1.986,0.484-2.934c0.165-0.945,0.394-1.848,0.575-2.718c0.195-0.868,0.364-1.704,0.558-2.491
				c0.219-0.781,0.427-1.522,0.622-2.218c0.197-0.694,0.381-1.344,0.551-1.944c0.181-0.597,0.386-1.136,0.551-1.626
				c0.684-1.957,1.095-3.061,1.095-3.061s-0.222,1.166-0.644,3.182c-0.102,0.505-0.237,1.058-0.342,1.67
				c-0.104,0.611-0.216,1.273-0.335,1.979c-0.121,0.704-0.25,1.454-0.387,2.245c-0.109,0.794-0.223,1.629-0.342,2.501
				c-0.265,1.737-0.44,3.633-0.647,5.632c-0.12,0.997-0.182,2.029-0.246,3.083c-0.054,1.055-0.173,2.125-0.218,3.221
				c-0.095,2.192-0.178,4.453-0.202,6.757c-0.073,2.301-0.002,4.643,0.018,6.983c0.061,2.341,0.1,4.684,0.233,6.989
				c0.099,2.305,0.228,4.577,0.352,6.774c0.148,2.199,0.291,4.324,0.427,6.34c0.133,1.863,0.259,3.627,0.377,5.274
				c0.036,0.063,0.069,0.128,0.104,0.19c0.019-0.254,0.034-0.5,0.055-0.757c0.155-1.6,0.269-3.26,0.494-4.933
				c0.195-1.677,0.44-3.373,0.669-5.072c0.278-1.69,0.55-3.382,0.849-5.04c0.273-1.664,0.638-3.282,0.945-4.857
				c0.656-3.14,1.337-6.055,1.981-8.539c1.261-4.973,2.326-8.239,2.326-8.239s-0.071,0.856-0.232,2.346
				c-0.164,1.49-0.417,3.615-0.771,6.151c-0.175,1.269-0.359,2.644-0.583,4.092c-0.219,1.449-0.425,2.981-0.686,4.556
				c-0.482,3.153-0.995,6.517-1.509,9.88c-0.218,1.441-0.442,2.878-0.642,4.305c0.096-0.375,0.186-0.743,0.288-1.123
				c0.454-1.711,0.891-3.489,1.395-5.279c0.495-1.792,0.998-3.612,1.501-5.432c0.529-1.813,1.058-3.626,1.579-5.41
				c0.509-1.788,1.075-3.529,1.588-5.224c1.047-3.384,2.071-6.528,2.992-9.212c1.817-5.373,3.229-8.898,3.229-8.898
				s-0.653,3.741-1.933,9.267c-0.628,2.766-1.411,5.98-2.3,9.408c-0.455,1.711-0.888,3.49-1.396,5.278
				c-0.495,1.792-0.999,3.612-1.503,5.432c-0.529,1.813-1.059,3.626-1.58,5.41c-0.513,1.787-1.076,3.529-1.59,5.223
				c-0.511,1.695-1.049,3.322-1.547,4.867c-0.117,0.369-0.234,0.715-0.351,1.073c0.176-0.297,0.351-0.593,0.531-0.896
				c0.471-0.781,0.939-1.593,1.406-2.428c0.476-0.83,0.962-1.679,1.456-2.542c0.953-1.745,1.954-3.538,2.909-5.391
				c0.994-1.834,1.907-3.744,2.842-5.643c0.887-1.92,1.82-3.822,2.605-5.751c0.203-0.479,0.406-0.956,0.608-1.431
				c0.212-0.471,0.406-0.946,0.587-1.422c0.373-0.95,0.741-1.888,1.103-2.811c0.358-0.925,0.649-1.855,0.981-2.751
				c0.324-0.898,0.642-1.777,0.898-2.649c0.296-0.947,1.209-2.705,0.227-3.542c-0.175-0.149-0.398-0.256-0.511-0.457
				c-0.349-0.621,0.649-1.284,0.519-1.984c-0.75-0.203-1.149-1.205-0.744-1.867c0.272-0.445,0.826-0.745,0.875-1.264
				c0.056-0.589-0.581-1.024-0.686-1.607c-0.191-1.061,1.37-1.686,1.492-2.757c0.088-0.779-0.621-1.6-0.239-2.284
				c0.316-0.565,1.187-0.612,1.507-1.174c0.126-0.222,0.142-0.487,0.205-0.735c0.112-0.444,0.415-0.868,0.855-0.995
				c0.44-0.126,0.991,0.152,1.043,0.607c0.025,0.218-0.059,0.439-0.021,0.655c0.121,0.692,1.285,0.749,1.448,1.433
				c0.144,0.608-0.648,1.176-0.444,1.766c0.142,0.411,0.68,0.537,0.919,0.9c0.214,0.326,0.134,0.769-0.058,1.108
				c-0.192,0.338-0.481,0.611-0.707,0.927c-0.129,0.18-0.241,0.394-0.207,0.612c0.045,0.288,0.32,0.475,0.474,0.723
				c0.27,0.434,0.129,1.025-0.188,1.426c-0.317,0.401-0.774,0.66-1.21,0.927c-0.181,0.111-0.38,0.26-0.381,0.472
				c0,0.126,0.073,0.239,0.117,0.357c0.232,0.616-0.323,1.233-0.857,1.617c-1.112,0.798-1.338,1.599-1.664,2.865
				c-0.222,0.836-0.451,1.701-0.686,2.589c-0.222,0.894-0.506,1.794-0.796,2.715c-0.29,0.921-0.578,1.866-0.911,2.812
				c-0.692,1.883-1.362,3.849-2.206,5.78c-0.78,1.958-1.704,3.889-2.588,5.837c-0.961,1.911-1.9,3.833-2.917,5.674
				c-0.97,1.868-2.052,3.633-3.046,5.371c-1.042,1.708-2.042,3.365-3.053,4.895c-0.501,0.768-0.988,1.514-1.459,2.237
				c-0.455,0.664-0.891,1.303-1.315,1.922c-0.011,0.034-0.023,0.068-0.035,0.102c0.295,0.467,0.586,0.937,0.89,1.397
				c0.174,0.263,0.35,0.527,0.523,0.792c0.63-1.082,1.317-2.181,2.051-3.309c0.882-1.283,1.754-2.64,2.751-3.936
				c0.963-1.323,2.003-2.615,3.024-3.924c1.069-1.268,2.13-2.542,3.214-3.759c1.057-1.243,2.185-2.384,3.236-3.524
				c2.144-2.24,4.202-4.272,6.019-5.957c1.801-1.701,3.355-3.062,4.449-4.009c1.098-0.943,1.741-1.467,1.741-1.467
				s-0.501,0.661-1.404,1.791c-0.904,1.129-2.212,2.727-3.807,4.613c-0.798,0.941-1.664,1.96-2.578,3.038
				c-0.917,1.073-1.883,2.204-2.883,3.375c-0.991,1.174-2.014,2.387-3.055,3.62c-1.053,1.221-2.074,2.497-3.112,3.761
				c-1.025,1.271-2.072,2.528-3.039,3.81c-0.988,1.268-1.948,2.522-2.865,3.748c-0.879,1.25-1.789,2.421-2.576,3.583
				c-0.061,0.09-0.119,0.172-0.18,0.261c0.068,0.142,0.133,0.285,0.193,0.43c0.016-0.013,0.031-0.026,0.047-0.039
				c0.908-0.741,1.858-1.533,2.868-2.314c1.009-0.783,2.032-1.62,3.107-2.42c1.071-0.807,2.158-1.627,3.246-2.447
				c1.104-0.798,2.207-1.596,3.294-2.382c1.079-0.796,2.182-1.524,3.227-2.258c2.103-1.451,4.096-2.765,5.83-3.856
				c3.453-2.202,5.879-3.502,5.879-3.502s-1.957,1.936-5.079,4.587c-1.554,1.335-3.396,2.852-5.403,4.435
				c-1.01,0.782-2.03,1.622-3.108,2.418c-1.071,0.807-2.159,1.626-3.247,2.446c-1.104,0.798-2.208,1.596-3.295,2.381
				c-1.082,0.792-2.182,1.523-3.228,2.257c-1.044,0.736-2.08,1.41-3.056,2.059c-0.21,0.138-0.406,0.267-0.611,0.402
				c0.329,2.539-0.677,5.253-2.66,6.897c-2.41,1.997-6.07,2.299-8.802,0.771c-0.716-0.401-1.355-0.921-1.907-1.523
				c-0.031-0.013-0.06-0.024-0.091-0.037c-0.85-0.356-1.816-0.734-2.882-1.131c-1.054-0.417-2.219-0.809-3.438-1.246
				c-1.217-0.444-2.535-0.82-3.869-1.276c-1.352-0.414-2.751-0.825-4.179-1.228c-1.419-0.428-2.887-0.784-4.345-1.166
				c-1.464-0.367-2.923-0.754-4.377-1.076c-1.451-0.338-2.879-0.671-4.261-0.992c-2.779-0.623-5.373-1.204-7.596-1.702
				c-2.228-0.503-4.084-0.95-5.382-1.277c-1.298-0.327-2.037-0.536-2.037-0.536S490.981,419.993,492.319,420.054z"/>
			<path fill="#162D56" d="M707.482,404.931c-0.806,0.02-1.958,0.057-3.335,0.162c-0.689,0.046-1.435,0.107-2.222,0.193
				c-0.788,0.076-1.618,0.175-2.475,0.294c-0.854,0.135-1.744,0.239-2.635,0.421c-0.895,0.159-1.8,0.354-2.706,0.544
				c-0.898,0.228-1.799,0.44-2.675,0.698c-0.883,0.231-1.729,0.539-2.555,0.809c-0.819,0.293-1.607,0.588-2.338,0.907
				c-0.365,0.159-0.721,0.313-1.065,0.463c-0.342,0.155-0.663,0.326-0.975,0.478c-0.251,0.127-0.492,0.244-0.724,0.364
				c0.183-0.328,0.331-0.675,0.439-1.034c0.016-0.01,0.029-0.019,0.045-0.029c0.576-0.364,1.201-0.758,1.862-1.175
				c0.656-0.422,1.374-0.826,2.091-1.28c0.731-0.434,1.489-0.875,2.261-1.32c0.765-0.456,1.565-0.882,2.356-1.32
				c0.797-0.428,1.587-0.871,2.385-1.268c0.794-0.405,1.576-0.802,2.333-1.188c0.77-0.358,1.499-0.741,2.208-1.066
				c0.708-0.33,1.377-0.642,1.995-0.931c1.247-0.565,2.287-1.035,3.014-1.365c0.732-0.326,1.148-0.526,1.148-0.526
				s-0.451,0.086-1.237,0.259c-0.394,0.085-0.869,0.198-1.408,0.349c-0.543,0.141-1.153,0.309-1.808,0.525
				c-0.661,0.199-1.37,0.439-2.111,0.715c-0.746,0.264-1.521,0.575-2.318,0.908c-0.788,0.352-1.618,0.685-2.426,1.099
				c-0.819,0.39-1.632,0.824-2.451,1.248c-0.799,0.461-1.604,0.909-2.375,1.387c-0.784,0.458-1.514,0.974-2.236,1.447
				c-0.711,0.49-1.391,0.975-2.017,1.459c-0.392,0.294-0.758,0.583-1.11,0.868c0.005-0.119,0.005-0.238,0-0.358
				c0.46-0.357,0.931-0.723,1.409-1.115c0.626-0.512,1.286-1.026,1.932-1.576c0.65-0.546,1.31-1.101,1.97-1.656
				c0.649-0.567,1.299-1.134,1.938-1.693c0.644-0.553,1.251-1.128,1.854-1.668c1.196-1.09,2.292-2.129,3.214-3.04
				c1.855-1.811,3.01-3.114,3.01-3.114s-1.464,0.941-3.538,2.497c-1.042,0.772-2.237,1.696-3.496,2.711
				c-0.625,0.512-1.287,1.024-1.932,1.576c-0.65,0.546-1.31,1.101-1.969,1.656c-0.649,0.567-1.299,1.135-1.938,1.693
				c-0.643,0.555-1.251,1.128-1.853,1.668c-0.274,0.245-0.538,0.49-0.797,0.732c-0.091-0.41-0.192-0.818-0.264-1.231
				c0.359-0.414,0.728-0.838,1.107-1.275c0.831-0.965,1.75-1.946,2.664-2.991c0.937-1.026,1.908-2.081,2.905-3.144
				c0.984-1.075,2.023-2.131,3.048-3.198c1.039-1.055,2.062-2.125,3.109-3.139c1.036-1.025,2.061-2.029,3.059-2.994
				c1.018-0.944,1.973-1.89,2.913-2.749c0.938-0.863,1.825-1.679,2.643-2.433c0.822-0.751,1.579-1.435,2.256-2.037
				c0.676-0.604,1.265-1.13,1.75-1.563c0.975-0.863,1.525-1.368,1.525-1.368s-0.622,0.41-1.699,1.147
				c-0.54,0.366-1.188,0.822-1.917,1.364c-0.367,0.268-0.757,0.554-1.168,0.855c-0.403,0.312-0.827,0.639-1.27,0.981
				c-0.441,0.345-0.9,0.703-1.375,1.075c-0.466,0.383-0.947,0.779-1.443,1.187c-0.993,0.811-2.012,1.701-3.061,2.627
				c-1.031,0.946-2.122,1.897-3.167,2.931c-1.067,1.011-2.113,2.077-3.17,3.132c-1.023,1.088-2.058,2.164-3.038,3.259
				c-1.001,1.076-1.922,2.193-2.837,3.251c-0.896,1.075-1.755,2.12-2.538,3.136c-0.148,0.187-0.291,0.372-0.435,0.557
				c-0.027-0.546-0.043-1.093-0.07-1.639c0.392-0.621,0.797-1.254,1.198-1.911c0.67-1.043,1.367-2.118,2.086-3.202
				c0.704-1.094,1.463-2.177,2.206-3.269c0.758-1.082,1.5-2.177,2.273-3.223c0.761-1.055,1.516-2.09,2.254-3.086
				c0.759-0.979,1.461-1.954,2.165-2.847c0.701-0.897,1.364-1.745,1.975-2.528c0.615-0.781,1.184-1.495,1.693-2.123
				c0.509-0.63,0.952-1.18,1.317-1.632c0.735-0.902,1.146-1.429,1.146-1.429s-0.497,0.443-1.352,1.237
				c-0.43,0.395-0.942,0.884-1.513,1.462c-0.288,0.287-0.595,0.592-0.918,0.913c-0.314,0.331-0.643,0.678-0.988,1.041
				c-0.342,0.365-0.699,0.745-1.068,1.139c-0.358,0.403-0.728,0.82-1.109,1.249c-0.765,0.855-1.538,1.785-2.332,2.753
				c-0.773,0.983-1.603,1.978-2.372,3.044c-0.794,1.048-1.559,2.142-2.336,3.229c-0.738,1.113-1.491,2.216-2.188,3.331
				c-0.721,1.099-1.358,2.227-2.002,3.299c-0.12,0.21-0.233,0.413-0.351,0.62c-0.134-0.796-0.299-1.588-0.418-2.384
				c0.248-0.558,0.5-1.125,0.759-1.708c0.342-0.786,0.709-1.587,1.094-2.4c0.377-0.817,0.762-1.651,1.154-2.5
				c0.817-1.68,1.645-3.424,2.544-5.165c0.864-1.76,1.829-3.5,2.774-5.251c0.988-1.725,1.937-3.476,2.985-5.128
				c0.256-0.417,0.511-0.832,0.765-1.245c0.245-0.419,0.503-0.826,0.77-1.225c0.525-0.803,1.043-1.596,1.552-2.376
				c0.513-0.778,1.068-1.508,1.573-2.249c0.511-0.738,1.011-1.46,1.54-2.131c0.517-0.681,1.021-1.343,1.507-1.983
				c0.482-0.645,0.996-1.228,1.463-1.811c0.475-0.577,0.93-1.13,1.363-1.656c0.453-0.509,0.882-0.992,1.285-1.446
				c0.403-0.455,0.781-0.882,1.13-1.276c0.351-0.393,0.698-0.73,0.998-1.047c1.209-1.267,1.9-1.991,1.9-1.991
				s-0.762,0.65-2.095,1.789c-0.328,0.291-0.707,0.598-1.093,0.96c-0.38,0.368-0.791,0.766-1.231,1.191
				c-0.439,0.427-0.906,0.881-1.399,1.359c-0.477,0.493-0.958,1.032-1.471,1.584c-0.505,0.559-1.058,1.12-1.581,1.742
				c-0.52,0.625-1.057,1.272-1.609,1.936c-0.564,0.657-1.099,1.365-1.646,2.089c-0.547,0.724-1.114,1.459-1.657,2.23
				c-1.065,1.556-2.206,3.14-3.225,4.838c-1.075,1.664-2.051,3.424-3.061,5.162c-0.94,1.777-1.901,3.543-2.757,5.326
				c-0.902,1.76-1.665,3.551-2.454,5.259c-0.716,1.672-1.416,3.287-2.022,4.845c0-0.024,0.001-0.049,0.001-0.073
				c0.032-0.155,0.063-0.307,0.096-0.463c0.18-0.881,0.363-1.782,0.55-2.697c0.41-1.823,0.817-3.71,1.293-5.611
				c0.437-1.911,0.979-3.826,1.497-5.747c0.566-1.906,1.088-3.827,1.731-5.676c0.154-0.464,0.307-0.927,0.459-1.387
				c0.143-0.464,0.3-0.92,0.468-1.369c0.327-0.902,0.649-1.792,0.967-2.669c0.321-0.875,0.694-1.712,1.015-2.55
				c0.328-0.835,0.65-1.653,1.011-2.427c0.379-0.852,0.825-2.66,2.039-2.641c0.216,0.003,0.44,0.067,0.644-0.005
				c0.632-0.221,0.339-1.309,0.865-1.723c0.655,0.322,1.559-0.137,1.684-0.856c0.084-0.482-0.12-1.039,0.167-1.435
				c0.326-0.451,1.046-0.362,1.482-0.708c0.794-0.63,0.079-2.04,0.659-2.872c0.421-0.604,1.432-0.743,1.586-1.463
				c0.128-0.594-0.458-1.169-0.335-1.764c0.049-0.235,0.202-0.432,0.312-0.646c0.197-0.383,0.246-0.87,0.014-1.233
				c-0.232-0.362-0.794-0.507-1.113-0.219c-0.153,0.138-0.231,0.346-0.392,0.475c-0.515,0.413-1.372-0.269-1.911,0.113
				c-0.479,0.339-0.273,1.233-0.783,1.522c-0.355,0.202-0.813-0.043-1.207,0.065c-0.353,0.097-0.572,0.46-0.647,0.818
				s-0.04,0.73-0.076,1.094c-0.021,0.207-0.074,0.428-0.234,0.561c-0.21,0.176-0.521,0.137-0.783,0.216
				c-0.46,0.139-0.727,0.643-0.753,1.123c-0.026,0.48,0.137,0.947,0.279,1.406c0.059,0.19,0.107,0.42-0.025,0.57
				c-0.078,0.089-0.199,0.123-0.304,0.179c-0.546,0.291-0.538,1.071-0.399,1.673c0.289,1.253-0.048,1.959-0.604,3.056
				c-0.363,0.728-0.738,1.48-1.123,2.254c-0.398,0.768-0.757,1.58-1.124,2.411c-0.367,0.83-0.75,1.676-1.102,2.55
				c-0.681,1.758-1.428,3.562-2.031,5.448c-0.665,1.866-1.212,3.802-1.797,5.726c-0.508,1.945-1.038,3.884-1.464,5.816
				c-0.475,1.921-0.807,3.838-1.184,5.682c-0.094,0.536-0.187,1.065-0.279,1.59c-0.204,0.566-0.419,1.128-0.645,1.685
				c0.143-0.631,0.276-1.273,0.403-1.933c0.163-0.82,0.325-1.659,0.474-2.514c0.264-1.716,0.586-3.485,0.775-5.3
				c0.241-1.809,0.379-3.659,0.552-5.505c0.093-1.852,0.219-3.702,0.238-5.527c0.073-1.824,0.004-3.62-0.012-5.357
				c-0.027-0.868-0.066-1.721-0.111-2.556c-0.04-0.835-0.087-1.651-0.161-2.444c-0.066-0.793-0.13-1.564-0.193-2.31
				c-0.071-0.745-0.171-1.462-0.25-2.151c-0.086-0.689-0.156-1.35-0.245-1.976c-0.099-0.624-0.194-1.217-0.283-1.773
				c-0.09-0.556-0.174-1.076-0.252-1.557c-0.084-0.48-0.179-0.918-0.256-1.315c-0.327-1.583-0.514-2.487-0.514-2.487
				s0.086,0.919,0.235,2.527c0.091,0.801,0.162,1.778,0.249,2.897c0.044,0.559,0.091,1.154,0.141,1.781
				c0.037,0.628,0.076,1.288,0.116,1.976c0.094,1.376,0.141,2.868,0.198,4.445c0.038,0.788,0.048,1.599,0.05,2.427
				c0.01,0.828,0.02,1.674,0.03,2.534c-0.02,1.72-0.034,3.497-0.107,5.301c-0.034,1.805-0.178,3.634-0.282,5.465
				c-0.155,1.827-0.275,3.657-0.497,5.449c-0.182,1.796-0.423,3.557-0.647,5.262c-0.132,0.85-0.263,1.686-0.39,2.504
				c-0.12,0.82-0.245,1.621-0.396,2.395c-0.14,0.777-0.277,1.533-0.409,2.263c-0.09,0.505-0.191,0.991-0.289,1.469
				c-0.051,0.098-0.104,0.195-0.155,0.292c0.045-0.283,0.09-0.569,0.135-0.86c0.196-1.207,0.373-2.486,0.544-3.81
				c0.146-1.328,0.338-2.696,0.439-4.098c0.132-1.398,0.208-2.824,0.298-4.249c0.035-1.429,0.095-2.856,0.07-4.265
				c0.02-1.408-0.08-2.793-0.141-4.132c-0.04-0.669-0.103-1.327-0.165-1.969c-0.061-0.643-0.119-1.271-0.213-1.88
				c-0.085-0.609-0.167-1.201-0.247-1.774c-0.085-0.572-0.209-1.118-0.305-1.646c-0.105-0.526-0.193-1.031-0.298-1.508
				c-0.12-0.474-0.234-0.923-0.341-1.345c-0.108-0.421-0.209-0.815-0.303-1.179c-0.1-0.362-0.215-0.69-0.307-0.988
				c-0.383-1.188-0.613-1.86-0.613-1.86s0.116,0.705,0.339,1.926c0.054,0.306,0.127,0.641,0.181,1.01
				c0.053,0.37,0.111,0.77,0.172,1.197c0.062,0.426,0.129,0.879,0.199,1.357c0.053,0.48,0.11,0.984,0.168,1.511
				c0.134,1.05,0.21,2.194,0.305,3.401c0.057,0.602,0.079,1.225,0.102,1.86c0.016,0.636,0.072,1.282,0.083,1.943
				c0.024,1.321,0.04,2.684,0.02,4.072c0.009,1.387-0.069,2.796-0.117,4.204c-0.072,1.409-0.131,2.819-0.246,4.205
				c-0.094,1.387-0.206,2.752-0.314,4.074c-0.122,1.322-0.24,2.599-0.352,3.811c-0.108,1.12-0.211,2.18-0.307,3.17
				c-0.022,0.037-0.043,0.076-0.066,0.113c-0.008-0.153-0.013-0.302-0.021-0.457c-0.069-0.966-0.113-1.967-0.223-2.978
				c-0.092-1.013-0.214-2.038-0.326-3.064c-0.142-1.022-0.28-2.045-0.435-3.048c-0.139-1.006-0.334-1.986-0.496-2.938
				c-0.348-1.901-0.714-3.666-1.064-5.171c-0.684-3.014-1.276-4.996-1.276-4.996s0.03,0.517,0.104,1.416
				c0.076,0.9,0.196,2.183,0.371,3.716c0.086,0.767,0.177,1.597,0.29,2.473c0.11,0.876,0.211,1.801,0.344,2.753
				c0.242,1.906,0.501,3.939,0.759,5.972c0.109,0.871,0.223,1.74,0.321,2.602c-0.052-0.227-0.101-0.45-0.156-0.68
				c-0.248-1.037-0.484-2.114-0.76-3.199c-0.271-1.086-0.547-2.19-0.822-3.294c-0.291-1.1-0.582-2.199-0.869-3.282
				c-0.279-1.084-0.594-2.141-0.877-3.169c-0.579-2.053-1.149-3.962-1.662-5.592c-1.013-3.263-1.81-5.407-1.81-5.407
				s0.336,2.262,1.024,5.609c0.337,1.675,0.759,3.622,1.243,5.7c0.248,1.037,0.482,2.115,0.761,3.199
				c0.271,1.086,0.547,2.19,0.823,3.293c0.291,1.1,0.583,2.199,0.87,3.281c0.282,1.084,0.595,2.141,0.878,3.169
				c0.282,1.029,0.581,2.016,0.858,2.954c0.065,0.224,0.13,0.434,0.195,0.651c-0.101-0.181-0.202-0.363-0.306-0.548
				c-0.272-0.478-0.541-0.973-0.81-1.483c-0.274-0.507-0.554-1.025-0.838-1.552c-0.547-1.065-1.123-2.16-1.67-3.29
				c-0.571-1.119-1.092-2.283-1.626-3.441c-0.505-1.17-1.038-2.329-1.482-3.502c-0.115-0.292-0.23-0.582-0.344-0.871
				c-0.12-0.287-0.23-0.576-0.332-0.865c-0.21-0.578-0.418-1.148-0.622-1.709c-0.202-0.562-0.363-1.127-0.549-1.671
				c-0.182-0.546-0.36-1.08-0.5-1.609c-0.164-0.575-0.688-1.647-0.083-2.136c0.108-0.087,0.244-0.148,0.315-0.267
				c0.219-0.369-0.371-0.783-0.283-1.203c0.454-0.111,0.71-0.708,0.476-1.113c-0.157-0.272-0.486-0.461-0.508-0.774
				c-0.025-0.356,0.365-0.608,0.437-0.957c0.131-0.636-0.799-1.036-0.856-1.682c-0.041-0.47,0.398-0.954,0.178-1.371
				c-0.181-0.345-0.705-0.386-0.889-0.73c-0.073-0.136-0.078-0.295-0.112-0.446c-0.06-0.269-0.237-0.529-0.5-0.612
				c-0.263-0.083-0.599,0.077-0.638,0.35c-0.018,0.131,0.029,0.265,0.003,0.395c-0.084,0.415-0.785,0.432-0.893,0.841
				c-0.096,0.364,0.372,0.718,0.241,1.07c-0.092,0.245-0.418,0.313-0.567,0.528c-0.134,0.193-0.092,0.461,0.018,0.668
				c0.111,0.207,0.28,0.375,0.412,0.569c0.075,0.11,0.139,0.241,0.116,0.372c-0.031,0.173-0.2,0.281-0.296,0.428
				c-0.169,0.257-0.093,0.615,0.091,0.862s0.456,0.409,0.715,0.577c0.107,0.069,0.225,0.163,0.222,0.29
				c-0.002,0.076-0.047,0.143-0.076,0.213c-0.149,0.367,0.175,0.747,0.492,0.986c0.657,0.497,0.781,0.983,0.959,1.75
				c0.121,0.507,0.246,1.031,0.374,1.57c0.12,0.541,0.278,1.088,0.438,1.647c0.161,0.559,0.32,1.132,0.506,1.707
				c0.388,1.144,0.762,2.338,1.241,3.513c0.44,1.191,0.967,2.367,1.47,3.554c0.55,1.165,1.086,2.336,1.671,3.461
				c0.556,1.139,1.181,2.219,1.753,3.28c0.602,1.044,1.179,2.057,1.765,2.994c0.29,0.47,0.572,0.927,0.845,1.369
				c0.264,0.407,0.517,0.798,0.763,1.177c0.006,0.02,0.013,0.042,0.019,0.062c-0.185,0.277-0.367,0.555-0.557,0.828
				c-0.109,0.156-0.219,0.312-0.327,0.469c-0.363-0.661-0.76-1.333-1.185-2.023c-0.512-0.786-1.016-1.616-1.597-2.411
				c-0.56-0.811-1.167-1.605-1.761-2.408c-0.625-0.779-1.244-1.563-1.879-2.312c-0.617-0.764-1.28-1.468-1.895-2.171
				c-1.257-1.381-2.466-2.636-3.534-3.677c-1.058-1.052-1.974-1.894-2.618-2.481c-0.647-0.585-1.026-0.91-1.026-0.91
				s0.291,0.406,0.818,1.1c0.528,0.694,1.291,1.675,2.223,2.835c0.467,0.579,0.972,1.205,1.507,1.868
				c0.536,0.66,1.101,1.356,1.685,2.076c0.579,0.722,1.177,1.468,1.784,2.226c0.615,0.751,1.211,1.535,1.817,2.311
				c0.598,0.781,1.209,1.553,1.772,2.34c0.576,0.778,1.135,1.548,1.669,2.3c0.51,0.766,1.041,1.485,1.497,2.196
				c0.036,0.055,0.069,0.105,0.104,0.16c-0.043,0.084-0.084,0.169-0.123,0.256c-0.009-0.008-0.018-0.016-0.027-0.024
				c-0.535-0.46-1.095-0.951-1.692-1.436c-0.596-0.487-1.199-1.006-1.835-1.504c-0.633-0.502-1.275-1.012-1.918-1.522
				c-0.652-0.497-1.305-0.995-1.947-1.484c-0.638-0.496-1.291-0.95-1.909-1.408c-1.245-0.905-2.424-1.727-3.452-2.41
				c-2.046-1.378-3.487-2.198-3.487-2.198s1.149,1.195,2.989,2.839c0.915,0.828,2.002,1.769,3.186,2.752
				c0.596,0.486,1.198,1.007,1.835,1.503c0.633,0.502,1.275,1.012,1.918,1.522c0.653,0.497,1.305,0.994,1.948,1.484
				c0.639,0.493,1.291,0.95,1.909,1.408c0.617,0.459,1.231,0.881,1.809,1.286c0.124,0.086,0.24,0.167,0.362,0.251
				c-0.236,1.524,0.328,3.173,1.497,4.193c1.421,1.239,3.62,1.476,5.288,0.597c0.437-0.23,0.83-0.534,1.171-0.888
				c0.019-0.007,0.036-0.014,0.055-0.021c0.517-0.201,1.105-0.415,1.752-0.637c0.641-0.236,1.348-0.453,2.089-0.699
				c0.74-0.249,1.539-0.455,2.349-0.71c0.82-0.229,1.669-0.455,2.535-0.676c0.861-0.236,1.75-0.429,2.634-0.637
				c0.887-0.199,1.772-0.41,2.652-0.581c0.879-0.182,1.743-0.36,2.58-0.533c1.683-0.333,3.253-0.644,4.599-0.91
				c1.349-0.269,2.473-0.51,3.26-0.688c0.786-0.178,1.235-0.292,1.235-0.292S708.289,404.914,707.482,404.931z"/>
			<path fill="#162D56" d="M260.892,440.62c-7.525-0.483-15.05-0.965-22.575-1.447c2.567-3.11,5.134-6.22,7.7-9.33
				c3.493-4.233,7.166-8.605,12.168-10.864c5.199-2.348,11.832-1.891,16.042,1.959c2.652-2.036,6.415-0.077,9.136,1.867
				c4.746,3.392,9.508,6.796,13.763,10.787c-5.73,0.41-11.461,0.82-17.191,1.229c-4.414,0.316-9.114,0.736-12.606,3.454
				c-0.926,0.721-1.764,1.602-2.852,2.041C263.355,440.768,262.1,440.698,260.892,440.62z"/>
			<path fill="#162D56" d="M318.122,427.236c-0.228,0.773,0.586,1.491,1.377,1.641c0.792,0.15,1.622-0.026,2.408,0.156
				c0.938,0.218,1.683,0.911,2.366,1.59c2.482,2.464,4.806,5.087,6.953,7.847c-3.207,0.243-6.414,0.486-9.622,0.729
				c-1.747,0.132-3.498,0.265-5.249,0.192c-4.498-0.187-8.819-1.717-13.059-3.23c-0.37-0.132-0.739-0.264-1.109-0.396
				c2.038-0.054,2.768-2.636,3.948-4.298C308.657,427.918,313.915,428.354,318.122,427.236z"/>
		</g>
		<g display="none">
			
				<text transform="matrix(1 0 0 1 303.309 181.0103)" display="inline" fill="#FFFFFF" font-family="'Montserrat-Regular'" font-size="12px" letter-spacing="2">DESERT LANDSCAPE</text>
			
				<rect x="276.168" y="160.019" display="inline" fill="none" stroke="#FFFFFF" stroke-miterlimit="10" width="197.164" height="34.794"/>
		</g>
		<path fill="#2C4A7E" d="M287.055,359.451c-0.395,0.02-0.96,0.052-1.634,0.121c-0.338,0.031-0.703,0.07-1.088,0.122
			c-0.386,0.047-0.792,0.106-1.21,0.175c-0.417,0.077-0.852,0.139-1.288,0.239c-0.437,0.089-0.879,0.196-1.321,0.3
			c-0.438,0.123-0.877,0.238-1.304,0.375c-0.43,0.124-0.842,0.286-1.243,0.428c-0.398,0.154-0.781,0.308-1.136,0.474
			c-0.177,0.082-0.35,0.163-0.517,0.24c-0.166,0.08-0.321,0.168-0.472,0.246c-0.121,0.066-0.238,0.126-0.35,0.188
			c0.086-0.163,0.154-0.335,0.202-0.513c0.008-0.005,0.014-0.01,0.022-0.015c0.278-0.186,0.58-0.387,0.899-0.599
			c0.317-0.215,0.664-0.422,1.01-0.654c0.353-0.222,0.72-0.448,1.093-0.675c0.37-0.233,0.757-0.452,1.14-0.677
			c0.386-0.219,0.768-0.447,1.154-0.651c0.385-0.208,0.764-0.413,1.13-0.611c0.373-0.185,0.726-0.382,1.07-0.55
			c0.343-0.171,0.668-0.332,0.967-0.481c0.605-0.292,1.109-0.536,1.462-0.707c0.355-0.169,0.557-0.272,0.557-0.272
			s-0.22,0.048-0.604,0.142c-0.192,0.046-0.424,0.108-0.687,0.189c-0.264,0.076-0.562,0.165-0.88,0.28
			c-0.322,0.106-0.667,0.232-1.027,0.377c-0.363,0.139-0.739,0.301-1.126,0.474c-0.382,0.182-0.785,0.356-1.177,0.569
			c-0.397,0.201-0.791,0.424-1.187,0.643c-0.386,0.236-0.776,0.466-1.148,0.71c-0.379,0.234-0.73,0.497-1.079,0.737
			c-0.343,0.249-0.67,0.495-0.971,0.741c-0.189,0.149-0.365,0.295-0.534,0.44c0.001-0.059-0.001-0.117-0.004-0.176
			c0.221-0.181,0.448-0.366,0.677-0.564c0.301-0.259,0.618-0.519,0.928-0.797c0.312-0.276,0.629-0.556,0.946-0.836
			c0.312-0.286,0.623-0.573,0.93-0.854c0.309-0.279,0.6-0.569,0.889-0.841c0.573-0.549,1.098-1.073,1.539-1.531
			c0.888-0.911,1.438-1.564,1.438-1.564s-0.707,0.48-1.705,1.269c-0.501,0.392-1.076,0.86-1.682,1.373
			c-0.301,0.259-0.619,0.518-0.928,0.797c-0.312,0.276-0.629,0.556-0.946,0.837c-0.312,0.286-0.623,0.573-0.93,0.854
			c-0.308,0.28-0.6,0.569-0.888,0.841c-0.131,0.123-0.258,0.247-0.382,0.369c-0.05-0.2-0.104-0.399-0.144-0.601
			c0.171-0.207,0.347-0.42,0.528-0.639c0.396-0.484,0.835-0.976,1.27-1.5c0.447-0.515,0.91-1.044,1.387-1.578
			c0.469-0.54,0.966-1.07,1.456-1.606c0.496-0.53,0.986-1.068,1.487-1.578c0.495-0.516,0.986-1.021,1.464-1.507
			c0.488-0.476,0.944-0.951,1.395-1.385c0.449-0.435,0.874-0.846,1.267-1.226c0.394-0.379,0.757-0.724,1.082-1.027
			c0.324-0.304,0.607-0.57,0.84-0.788c0.468-0.435,0.731-0.69,0.731-0.69s-0.3,0.209-0.819,0.583
			c-0.261,0.186-0.573,0.418-0.924,0.693c-0.177,0.136-0.365,0.281-0.563,0.434c-0.194,0.158-0.398,0.324-0.611,0.497
			c-0.212,0.174-0.433,0.356-0.661,0.544c-0.224,0.194-0.455,0.394-0.693,0.6c-0.477,0.41-0.966,0.859-1.469,1.327
			c-0.494,0.477-1.018,0.957-1.518,1.477c-0.511,0.509-1.011,1.045-1.517,1.575c-0.488,0.546-0.983,1.087-1.45,1.636
			c-0.478,0.54-0.916,1.1-1.352,1.63c-0.426,0.538-0.835,1.062-1.206,1.57c-0.07,0.094-0.138,0.186-0.206,0.278
			c-0.02-0.267-0.035-0.536-0.055-0.803c0.184-0.309,0.376-0.625,0.564-0.952c0.316-0.52,0.645-1.056,0.984-1.597
			c0.332-0.546,0.691-1.086,1.042-1.631c0.359-0.54,0.709-1.086,1.076-1.609c0.36-0.527,0.718-1.044,1.068-1.542
			c0.361-0.49,0.693-0.976,1.027-1.423c0.333-0.449,0.647-0.873,0.938-1.264c0.292-0.391,0.562-0.748,0.805-1.062
			c0.242-0.316,0.452-0.59,0.626-0.817c0.349-0.452,0.545-0.715,0.545-0.715s-0.238,0.224-0.648,0.624
			c-0.206,0.199-0.451,0.445-0.724,0.736c-0.138,0.144-0.284,0.298-0.439,0.459c-0.15,0.166-0.307,0.34-0.472,0.523
			c-0.163,0.183-0.334,0.374-0.51,0.572c-0.171,0.202-0.347,0.411-0.528,0.626c-0.365,0.429-0.733,0.895-1.11,1.379
			c-0.367,0.492-0.762,0.99-1.126,1.522c-0.376,0.524-0.738,1.07-1.106,1.613c-0.349,0.555-0.704,1.105-1.033,1.661
			c-0.34,0.548-0.639,1.109-0.942,1.643c-0.056,0.104-0.109,0.205-0.165,0.309c-0.076-0.389-0.166-0.775-0.235-1.164
			c0.115-0.277,0.232-0.558,0.351-0.848c0.158-0.39,0.328-0.787,0.507-1.191c0.175-0.405,0.353-0.819,0.535-1.24
			c0.38-0.834,0.765-1.7,1.185-2.565c0.402-0.874,0.854-1.74,1.296-2.61c0.463-0.859,0.907-1.729,1.401-2.552
			c0.121-0.208,0.241-0.415,0.36-0.62c0.115-0.208,0.237-0.412,0.363-0.61c0.247-0.4,0.492-0.796,0.732-1.185
			c0.242-0.388,0.505-0.753,0.744-1.123c0.242-0.368,0.478-0.729,0.729-1.064c0.245-0.34,0.484-0.671,0.715-0.992
			c0.229-0.322,0.473-0.615,0.696-0.906c0.226-0.289,0.442-0.566,0.648-0.829c0.216-0.255,0.42-0.497,0.613-0.725
			c0.192-0.228,0.372-0.442,0.539-0.64c0.167-0.197,0.333-0.366,0.477-0.526c0.578-0.637,0.908-1,0.908-1s-0.366,0.328-1.006,0.903
			c-0.158,0.147-0.339,0.302-0.524,0.484c-0.182,0.185-0.379,0.385-0.589,0.599c-0.21,0.215-0.434,0.443-0.67,0.684
			c-0.228,0.248-0.457,0.518-0.702,0.795c-0.241,0.281-0.505,0.563-0.754,0.874c-0.247,0.313-0.503,0.637-0.766,0.97
			c-0.268,0.329-0.522,0.683-0.782,1.045c-0.26,0.362-0.529,0.73-0.786,1.114c-0.504,0.776-1.044,1.567-1.523,2.413
			c-0.507,0.83-0.964,1.705-1.438,2.57c-0.439,0.883-0.889,1.762-1.287,2.647c-0.421,0.875-0.773,1.763-1.139,2.61
			c-0.331,0.829-0.654,1.63-0.932,2.402c0-0.012,0-0.024,0-0.036c0.014-0.076,0.027-0.151,0.041-0.228
			c0.077-0.435,0.156-0.879,0.237-1.33c0.179-0.899,0.355-1.83,0.565-2.768c0.191-0.943,0.433-1.889,0.663-2.838
			c0.254-0.942,0.487-1.891,0.779-2.806c0.07-0.23,0.139-0.459,0.208-0.686c0.064-0.229,0.136-0.455,0.213-0.677
			c0.149-0.446,0.296-0.887,0.441-1.321c0.147-0.433,0.319-0.849,0.467-1.263c0.151-0.414,0.298-0.819,0.466-1.203
			c0.175-0.423,0.372-1.315,0.967-1.321c0.106-0.001,0.217,0.027,0.316-0.01c0.307-0.116,0.15-0.646,0.403-0.856
			c0.325,0.15,0.763-0.086,0.816-0.441c0.035-0.238-0.072-0.508,0.064-0.706c0.154-0.225,0.509-0.19,0.718-0.366
			c0.382-0.319,0.014-1.002,0.288-1.417c0.199-0.302,0.693-0.382,0.76-0.737c0.055-0.293-0.239-0.568-0.186-0.861
			c0.021-0.116,0.094-0.214,0.145-0.32c0.092-0.19,0.11-0.43-0.008-0.605c-0.118-0.175-0.396-0.239-0.549-0.094
			c-0.073,0.07-0.109,0.173-0.186,0.238c-0.248,0.209-0.676-0.115-0.936,0.079c-0.231,0.172-0.118,0.608-0.365,0.756
			c-0.172,0.103-0.4-0.011-0.591,0.047c-0.172,0.052-0.275,0.233-0.307,0.409s-0.01,0.358-0.024,0.538
			c-0.008,0.102-0.031,0.211-0.108,0.278c-0.101,0.089-0.254,0.074-0.382,0.116c-0.224,0.074-0.349,0.325-0.356,0.56
			c-0.007,0.236,0.079,0.463,0.154,0.686c0.031,0.093,0.057,0.205-0.005,0.28c-0.037,0.045-0.096,0.063-0.147,0.092
			c-0.264,0.149-0.251,0.532-0.175,0.826c0.157,0.611,0,0.961-0.259,1.506c-0.169,0.361-0.344,0.735-0.523,1.119
			c-0.186,0.382-0.352,0.785-0.522,1.196c-0.17,0.412-0.347,0.831-0.509,1.265c-0.312,0.871-0.657,1.765-0.929,2.698
			c-0.303,0.924-0.548,1.88-0.811,2.831c-0.225,0.96-0.462,1.918-0.646,2.871c-0.209,0.948-0.349,1.893-0.511,2.802
			c-0.04,0.264-0.079,0.525-0.117,0.784c-0.093,0.28-0.192,0.558-0.296,0.835c0.062-0.311,0.12-0.628,0.174-0.953
			c0.07-0.404,0.139-0.818,0.202-1.239c0.108-0.845,0.244-1.717,0.315-2.61c0.096-0.891,0.141-1.799,0.203-2.707
			c0.023-0.909,0.062-1.819,0.049-2.714c0.013-0.896-0.043-1.776-0.072-2.628c-0.024-0.426-0.054-0.844-0.086-1.253
			c-0.03-0.409-0.063-0.809-0.109-1.197c-0.042-0.388-0.083-0.766-0.123-1.131c-0.044-0.365-0.102-0.715-0.149-1.052
			c-0.051-0.337-0.093-0.66-0.145-0.966c-0.056-0.305-0.11-0.595-0.161-0.867c-0.051-0.272-0.099-0.526-0.143-0.761
			c-0.047-0.234-0.099-0.448-0.142-0.642c-0.18-0.772-0.283-1.214-0.283-1.214s0.053,0.45,0.147,1.237
			c0.055,0.392,0.101,0.87,0.158,1.418c0.029,0.274,0.059,0.565,0.091,0.872c0.026,0.307,0.053,0.631,0.081,0.968
			c0.063,0.674,0.104,1.405,0.152,2.178c0.028,0.386,0.043,0.784,0.055,1.19c0.015,0.406,0.03,0.821,0.046,1.243
			c0.011,0.844,0.026,1.716,0.013,2.602c0.005,0.886-0.043,1.785-0.071,2.684c-0.054,0.898-0.09,1.798-0.177,2.679
			c-0.067,0.883-0.164,1.75-0.253,2.59c-0.055,0.419-0.108,0.83-0.161,1.233c-0.049,0.404-0.1,0.798-0.164,1.18
			c-0.059,0.383-0.117,0.755-0.173,1.115c-0.038,0.249-0.081,0.489-0.124,0.724c-0.024,0.049-0.048,0.097-0.072,0.145
			c0.019-0.139,0.037-0.28,0.055-0.424c0.081-0.594,0.152-1.224,0.22-1.876c0.055-0.653,0.132-1.327,0.165-2.016
			c0.048-0.687,0.067-1.388,0.094-2.088c0-0.701,0.011-1.402-0.018-2.093c-0.008-0.691-0.074-1.369-0.12-2.025
			c-0.028-0.328-0.067-0.65-0.105-0.964c-0.038-0.315-0.074-0.622-0.128-0.92c-0.049-0.298-0.097-0.587-0.143-0.867
			c-0.049-0.28-0.116-0.546-0.17-0.804c-0.058-0.257-0.107-0.504-0.165-0.736c-0.065-0.231-0.126-0.45-0.184-0.656
			c-0.058-0.205-0.113-0.397-0.163-0.575c-0.054-0.177-0.114-0.336-0.163-0.481c-0.202-0.578-0.324-0.905-0.324-0.905
			s0.066,0.345,0.19,0.94c0.03,0.149,0.07,0.313,0.101,0.493c0.031,0.181,0.064,0.376,0.099,0.585
			c0.036,0.208,0.074,0.43,0.114,0.663c0.032,0.235,0.066,0.482,0.101,0.739c0.078,0.513,0.13,1.074,0.191,1.665
			c0.036,0.295,0.054,0.6,0.073,0.911c0.016,0.312,0.051,0.628,0.065,0.952c0.028,0.648,0.053,1.316,0.06,1.997
			c0.021,0.68,0,1.372-0.005,2.064c-0.018,0.692-0.029,1.384-0.069,2.066c-0.029,0.681-0.067,1.353-0.104,2.002
			c-0.044,0.65-0.086,1.278-0.126,1.874c-0.039,0.551-0.077,1.072-0.111,1.559c-0.01,0.019-0.02,0.038-0.031,0.056
			c-0.006-0.075-0.01-0.148-0.016-0.224c-0.046-0.473-0.08-0.964-0.146-1.458c-0.058-0.496-0.13-0.997-0.198-1.499
			c-0.082-0.5-0.163-1-0.251-1.49c-0.081-0.492-0.188-0.97-0.279-1.435c-0.194-0.928-0.395-1.79-0.586-2.524
			c-0.373-1.47-0.688-2.435-0.688-2.435s0.021,0.253,0.069,0.694c0.048,0.44,0.123,1.068,0.228,1.818
			c0.052,0.375,0.106,0.781,0.172,1.21c0.065,0.428,0.125,0.881,0.203,1.346c0.142,0.932,0.294,1.926,0.446,2.92
			c0.064,0.426,0.131,0.851,0.19,1.272c-0.029-0.111-0.055-0.22-0.085-0.332c-0.134-0.506-0.263-1.031-0.412-1.56
			c-0.146-0.53-0.295-1.068-0.444-1.606c-0.156-0.536-0.313-1.072-0.467-1.599c-0.15-0.528-0.318-1.043-0.469-1.544
			c-0.309-1-0.612-1.93-0.884-2.723c-0.537-1.588-0.954-2.63-0.954-2.63s0.193,1.106,0.571,2.739
			c0.186,0.818,0.417,1.767,0.68,2.781c0.135,0.506,0.263,1.031,0.413,1.56c0.147,0.53,0.295,1.068,0.444,1.606
			c0.156,0.536,0.313,1.072,0.467,1.599c0.152,0.528,0.318,1.043,0.47,1.544c0.151,0.501,0.31,0.982,0.457,1.439
			c0.035,0.109,0.069,0.211,0.104,0.317c-0.052-0.088-0.104-0.175-0.157-0.265c-0.139-0.231-0.277-0.471-0.416-0.718
			c-0.141-0.245-0.284-0.496-0.43-0.751c-0.282-0.516-0.578-1.046-0.86-1.593c-0.294-0.542-0.564-1.107-0.84-1.668
			c-0.262-0.568-0.538-1.13-0.77-1.7c-0.06-0.142-0.12-0.283-0.18-0.423c-0.063-0.139-0.12-0.28-0.174-0.42
			c-0.11-0.281-0.219-0.558-0.326-0.831c-0.106-0.273-0.192-0.548-0.29-0.813c-0.096-0.265-0.19-0.525-0.265-0.783
			c-0.088-0.28-0.358-0.799-0.067-1.047c0.052-0.044,0.118-0.076,0.151-0.135c0.103-0.184-0.192-0.38-0.154-0.587
			c0.222-0.06,0.34-0.356,0.22-0.552c-0.08-0.131-0.244-0.22-0.259-0.373c-0.017-0.174,0.172-0.303,0.203-0.475
			c0.057-0.314-0.405-0.498-0.441-0.815c-0.026-0.23,0.184-0.473,0.071-0.675c-0.093-0.167-0.351-0.181-0.445-0.347
			c-0.037-0.066-0.042-0.144-0.06-0.217c-0.033-0.131-0.123-0.257-0.253-0.294c-0.13-0.037-0.293,0.045-0.308,0.18
			c-0.007,0.064,0.017,0.13,0.006,0.194c-0.036,0.205-0.38,0.222-0.428,0.424c-0.043,0.18,0.192,0.348,0.131,0.522
			c-0.042,0.121-0.201,0.159-0.272,0.266c-0.063,0.096-0.04,0.227,0.017,0.328c0.057,0.1,0.142,0.181,0.209,0.274
			c0.038,0.053,0.071,0.116,0.061,0.181c-0.013,0.085-0.095,0.14-0.14,0.214c-0.08,0.128-0.038,0.303,0.055,0.422
			c0.094,0.119,0.229,0.195,0.358,0.274c0.053,0.033,0.112,0.077,0.112,0.14c0,0.037-0.021,0.071-0.035,0.105
			c-0.069,0.182,0.095,0.365,0.253,0.478c0.329,0.236,0.395,0.473,0.492,0.847c0.065,0.247,0.133,0.503,0.203,0.765
			c0.066,0.264,0.15,0.53,0.235,0.802c0.086,0.272,0.171,0.552,0.269,0.831c0.204,0.556,0.402,1.137,0.652,1.708
			c0.231,0.579,0.504,1.15,0.765,1.725c0.284,0.565,0.562,1.133,0.862,1.677c0.287,0.552,0.607,1.074,0.9,1.587
			c0.308,0.505,0.604,0.995,0.902,1.447c0.148,0.227,0.292,0.448,0.431,0.661c0.134,0.196,0.263,0.385,0.389,0.568
			c0.003,0.01,0.007,0.02,0.01,0.03c-0.087,0.138-0.173,0.277-0.263,0.413c-0.051,0.078-0.103,0.156-0.155,0.234
			c-0.186-0.32-0.389-0.645-0.606-0.978c-0.261-0.379-0.518-0.78-0.813-1.163c-0.285-0.391-0.592-0.773-0.894-1.16
			c-0.316-0.375-0.63-0.751-0.95-1.111c-0.312-0.367-0.646-0.704-0.956-1.042c-0.634-0.662-1.242-1.263-1.779-1.761
			c-0.532-0.503-0.992-0.905-1.315-1.185c-0.324-0.279-0.514-0.434-0.514-0.434s0.148,0.195,0.415,0.529
			c0.267,0.334,0.654,0.806,1.125,1.363c0.236,0.278,0.492,0.579,0.762,0.898c0.271,0.317,0.557,0.651,0.852,0.997
			c0.293,0.347,0.595,0.705,0.903,1.07c0.311,0.361,0.613,0.738,0.92,1.112c0.303,0.376,0.612,0.747,0.898,1.126
			c0.292,0.375,0.576,0.746,0.847,1.108c0.26,0.37,0.529,0.716,0.761,1.059c0.018,0.027,0.035,0.051,0.053,0.077
			c-0.02,0.042-0.039,0.084-0.057,0.127c-0.005-0.004-0.009-0.008-0.014-0.011c-0.268-0.219-0.549-0.453-0.848-0.684
			c-0.298-0.231-0.6-0.479-0.919-0.715c-0.316-0.238-0.638-0.481-0.959-0.723c-0.326-0.236-0.652-0.472-0.974-0.704
			c-0.319-0.235-0.645-0.45-0.954-0.667c-0.622-0.429-1.211-0.817-1.723-1.14c-1.021-0.651-1.738-1.035-1.738-1.035
			s0.578,0.572,1.501,1.356c0.459,0.395,1.004,0.843,1.597,1.311c0.298,0.231,0.6,0.479,0.919,0.715
			c0.316,0.238,0.638,0.481,0.96,0.723c0.326,0.236,0.653,0.472,0.974,0.704c0.32,0.234,0.645,0.45,0.954,0.667
			c0.309,0.217,0.615,0.417,0.903,0.609c0.062,0.041,0.12,0.079,0.181,0.119c-0.097,0.75,0.2,1.553,0.786,2.038
			c0.712,0.59,1.794,0.68,2.601,0.228c0.212-0.118,0.401-0.272,0.564-0.45c0.009-0.004,0.018-0.007,0.027-0.011
			c0.251-0.105,0.537-0.217,0.852-0.334c0.311-0.123,0.656-0.239,1.016-0.368c0.36-0.131,0.749-0.242,1.144-0.377
			c0.4-0.122,0.813-0.244,1.235-0.363c0.42-0.127,0.853-0.232,1.284-0.345c0.433-0.109,0.864-0.223,1.294-0.318
			c0.429-0.1,0.851-0.198,1.259-0.293c0.821-0.184,1.588-0.356,2.245-0.503c0.658-0.149,1.207-0.281,1.591-0.377
			c0.384-0.097,0.602-0.159,0.602-0.159S287.451,359.433,287.055,359.451z"/>
	</g>
</g>
<g id="DESIGNED_BY_FREEPIK" display="none">
	<g display="inline">
		<g id="XMLID_319_">
			<g id="XMLID_338_">
				<path id="XMLID_346_" fill="#F8FAFB" d="M385.104,464.136c-0.432,0.443-0.803,0.931-1.108,1.453l-0.465-0.241
					c-0.067-0.298-0.349-0.503-0.659-0.466c-0.331,0.039-0.568,0.339-0.529,0.67c0.039,0.331,0.339,0.568,0.67,0.529
					c0.066-0.008,0.127-0.026,0.184-0.052l0.451,0.234c-0.251,0.554-0.433,1.139-0.539,1.744l0.746,0.132
					c0.23-1.306,0.85-2.507,1.792-3.473L385.104,464.136z"/>
				<path id="XMLID_345_" fill="#F8FAFB" d="M390.592,461.834c-0.171,0-0.341,0.006-0.51,0.017l-0.074-0.626
					c0.188-0.149,0.296-0.389,0.266-0.645c-0.046-0.393-0.402-0.674-0.795-0.628c-0.393,0.046-0.674,0.402-0.628,0.795
					c0.03,0.254,0.189,0.461,0.404,0.564l0.074,0.624c-0.714,0.116-1.403,0.332-2.06,0.646l0.327,0.684
					c0.934-0.447,1.942-0.673,2.995-0.673c0.496,0,0.993,0.053,1.475,0.158l0.161-0.741
					C391.692,461.893,391.142,461.834,390.592,461.834z"/>
				<path id="XMLID_344_" fill="#F8FAFB" d="M397.194,464.381c0.331-0.04,0.566-0.341,0.526-0.672
					c-0.04-0.331-0.342-0.566-0.672-0.526c-0.309,0.038-0.535,0.304-0.53,0.609l-0.416,0.363c-0.418-0.43-0.889-0.813-1.408-1.139
					l-0.404,0.641c1.134,0.715,2.021,1.726,2.563,2.925l0.69-0.313c-0.251-0.554-0.568-1.072-0.942-1.545l0.402-0.351
					C397.065,464.386,397.129,464.389,397.194,464.381z"/>
				<path id="XMLID_343_" fill="#F8FAFB" d="M390.044,472.042c-0.386,0.023-0.775,0.035-1.157,0.035
					c-0.88,0-1.733-0.061-2.478-0.179c-0.39-0.062-0.846-0.155-1.27-0.292c1.046,1.861,3.069,3.125,5.388,3.125
					c2.855,0,5.262-1.916,5.95-4.504c-0.682,0.449-1.505,0.825-2.459,1.123C392.839,471.717,391.463,471.957,390.044,472.042z"/>
				<path id="XMLID_339_" fill="#F8FAFB" d="M390.592,463.35c-3.352,0-6.08,2.666-6.08,5.943c0,0.426,0.046,0.849,0.137,1.261
					c0.673,0.483,2.706,0.89,5.348,0.731c2.879-0.173,5.297-0.957,6.672-2.159c-0.006-0.195-0.021-0.39-0.045-0.582
					C396.244,465.584,393.65,463.35,390.592,463.35z M388.432,469.865c-1.02,0-1.85-0.83-1.85-1.85c0-1.02,0.83-1.85,1.85-1.85
					c1.02,0,1.85,0.83,1.85,1.85C390.282,469.035,389.452,469.865,388.432,469.865z M393.17,468.957c-0.75,0-1.36-0.61-1.36-1.36
					s0.61-1.361,1.36-1.361c0.75,0,1.361,0.61,1.361,1.361S393.92,468.957,393.17,468.957z"/>
			</g>
			<path id="XMLID_336_" fill="#F8FAFB" d="M406.595,465.217c-0.295-0.116-0.805-0.309-1.382-0.237
				c-0.551,0.069-0.844,0.341-0.844,1.007v0.866h2.228v1.717h-2.228v5.455h-1.932v-5.455h-1.34v-1.717h1.34v-0.888
				c0-1.68,0.896-2.783,2.568-2.783c0.643,0,1.157,0.122,1.59,0.308L406.595,465.217z"/>
			<path id="XMLID_334_" fill="#F8FAFB" d="M411.298,468.549c-0.177-0.03-0.358-0.046-0.526-0.046c-0.895,0-1.51,0.548-1.51,1.613
				v3.908h-1.932v-7.172h1.873v0.785c0.451-0.673,1.14-0.977,2.021-0.977c0.414,0,0.848,0.128,1.094,0.337L411.298,468.549z"/>
			<path id="XMLID_331_" fill="#F8FAFB" d="M418.965,470.427c0,0.222-0.015,0.489-0.037,0.651h-5.085
				c0.207,1.036,0.933,1.488,1.843,1.488c0.622,0,1.295-0.252,1.813-0.688l1.133,1.243c-0.814,0.748-1.85,1.088-3.057,1.088
				c-2.198,0-3.723-1.495-3.723-3.753c0-2.258,1.48-3.797,3.627-3.797C417.544,466.66,418.958,468.192,418.965,470.427z
				 M413.851,469.761h3.175c-0.177-0.918-0.733-1.436-1.562-1.436C414.554,468.325,414.021,468.873,413.851,469.761z"/>
			<path id="XMLID_328_" fill="#F8FAFB" d="M426.618,470.427c0,0.222-0.015,0.489-0.037,0.651h-5.085
				c0.207,1.036,0.932,1.488,1.843,1.488c0.622,0,1.295-0.252,1.814-0.688l1.132,1.243c-0.814,0.748-1.85,1.088-3.057,1.088
				c-2.198,0-3.723-1.495-3.723-3.753c0-2.258,1.48-3.797,3.627-3.797C425.197,466.66,426.611,468.192,426.618,470.427z
				 M421.504,469.761h3.175c-0.178-0.918-0.733-1.436-1.562-1.436C422.207,468.325,421.674,468.873,421.504,469.761z"/>
			<path id="XMLID_325_" fill="#F8FAFB" d="M434.964,470.435c0,2.154-1.495,3.775-3.471,3.775c-0.962,0-1.643-0.378-2.109-0.933
				v3.708h-1.924v-10.133h1.887v0.792c0.466-0.585,1.155-0.984,2.139-0.984C433.469,466.66,434.964,468.281,434.964,470.435z
				 M429.287,470.435c0,1.132,0.747,1.976,1.843,1.976c1.14,0,1.85-0.881,1.85-1.976c0-1.095-0.711-1.976-1.85-1.976
				C430.035,468.459,429.287,469.302,429.287,470.435z"/>
			<path id="XMLID_322_" fill="#F8FAFB" d="M438.067,464.506c0,0.696-0.54,1.229-1.236,1.229c-0.696,0-1.229-0.533-1.229-1.229
				c0-0.696,0.533-1.243,1.229-1.243C437.527,463.263,438.067,463.81,438.067,464.506z M437.809,474.024h-1.932v-7.172h1.932
				V474.024z"/>
			<path id="XMLID_320_" fill="#F8FAFB" d="M441.032,469.406l2.702-2.554h2.368l-3.479,3.375l3.501,3.797h-2.376l-2.716-2.901v2.901
				H439.1v-10.658h1.932V469.406z"/>
		</g>
		<g>
			<path fill="#F8FAFB" d="M309.412,473.959v-1.055c-0.527,0.718-1.391,1.23-2.387,1.23c-1.846,0-3.149-1.406-3.149-3.706
				c0-2.256,1.289-3.721,3.149-3.721c0.952,0,1.816,0.469,2.387,1.245v-3.765h1.099v9.77H309.412z M309.412,472.041v-3.208
				c-0.395-0.615-1.245-1.143-2.124-1.143c-1.421,0-2.27,1.172-2.27,2.739c0,1.567,0.85,2.724,2.27,2.724
				C308.168,473.154,309.017,472.656,309.412,472.041z"/>
			<path fill="#F8FAFB" d="M311.932,470.415c0-2.051,1.465-3.706,3.486-3.706c2.139,0,3.398,1.67,3.398,3.794v0.279h-5.727
				c0.088,1.333,1.026,2.446,2.549,2.446c0.806,0,1.626-0.322,2.182-0.894l0.527,0.718c-0.703,0.703-1.655,1.084-2.812,1.084
				C313.44,474.135,311.932,472.627,311.932,470.415z M315.404,467.617c-1.509,0-2.256,1.274-2.315,2.358h4.643
				C317.718,468.921,317.015,467.617,315.404,467.617z"/>
			<path fill="#F8FAFB" d="M319.607,473.022l0.571-0.791c0.469,0.542,1.362,1.011,2.329,1.011c1.084,0,1.67-0.513,1.67-1.216
				c0-1.714-4.38-0.659-4.38-3.281c0-1.098,0.952-2.036,2.636-2.036c1.201,0,2.051,0.454,2.622,1.026l-0.513,0.762
				c-0.424-0.513-1.201-0.894-2.109-0.894c-0.967,0-1.567,0.483-1.567,1.113c0,1.552,4.38,0.527,4.38,3.281
				c0,1.187-0.952,2.138-2.783,2.138C321.306,474.135,320.325,473.784,319.607,473.022z"/>
			<path fill="#F8FAFB" d="M326.477,465.142c0-0.41,0.337-0.747,0.732-0.747c0.41,0,0.747,0.337,0.747,0.747
				c0,0.41-0.337,0.732-0.747,0.732C326.814,465.874,326.477,465.552,326.477,465.142z M326.667,473.959v-7.075h1.099v7.075H326.667
				z"/>
			<path fill="#F8FAFB" d="M329.582,475.776l0.556-0.82c0.586,0.703,1.289,0.967,2.3,0.967c1.172,0,2.27-0.571,2.27-2.124v-1.011
				c-0.513,0.718-1.377,1.26-2.373,1.26c-1.845,0-3.149-1.377-3.149-3.662c0-2.27,1.289-3.677,3.149-3.677
				c0.952,0,1.802,0.469,2.373,1.245v-1.069h1.099v6.87c0,2.344-1.641,3.076-3.369,3.076
				C331.237,476.831,330.417,476.596,329.582,475.776z M334.709,471.923v-3.091c-0.381-0.615-1.23-1.143-2.109-1.143
				c-1.421,0-2.27,1.128-2.27,2.695c0,1.553,0.849,2.695,2.27,2.695C333.478,473.081,334.328,472.539,334.709,471.923z"/>
			<path fill="#F8FAFB" d="M342.413,473.959v-4.629c0-1.245-0.63-1.641-1.582-1.641c-0.865,0-1.685,0.527-2.095,1.099v5.17h-1.099
				v-7.075h1.099v1.025c0.498-0.586,1.465-1.201,2.519-1.201c1.48,0,2.256,0.747,2.256,2.285v4.966H342.413z"/>
			<path fill="#F8FAFB" d="M344.932,470.415c0-2.051,1.465-3.706,3.486-3.706c2.138,0,3.398,1.67,3.398,3.794v0.279h-5.727
				c0.088,1.333,1.025,2.446,2.549,2.446c0.806,0,1.626-0.322,2.183-0.894l0.527,0.718c-0.703,0.703-1.655,1.084-2.812,1.084
				C346.441,474.135,344.932,472.627,344.932,470.415z M348.404,467.617c-1.509,0-2.256,1.274-2.314,2.358h4.643
				C350.718,468.921,350.015,467.617,348.404,467.617z"/>
			<path fill="#F8FAFB" d="M358.35,473.959v-1.055c-0.527,0.718-1.392,1.23-2.388,1.23c-1.846,0-3.149-1.406-3.149-3.706
				c0-2.256,1.289-3.721,3.149-3.721c0.952,0,1.817,0.469,2.388,1.245v-3.765h1.098v9.77H358.35z M358.35,472.041v-3.208
				c-0.396-0.615-1.245-1.143-2.124-1.143c-1.421,0-2.27,1.172-2.27,2.739c0,1.567,0.849,2.724,2.27,2.724
				C357.105,473.154,357.954,472.656,358.35,472.041z"/>
			<path fill="#F8FAFB" d="M364.692,473.959v-9.77h1.099v3.765c0.572-0.776,1.421-1.245,2.388-1.245
				c1.845,0,3.149,1.465,3.149,3.721c0,2.299-1.304,3.706-3.149,3.706c-0.996,0-1.86-0.513-2.388-1.23v1.055H364.692z
				 M367.9,473.154c1.436,0,2.286-1.157,2.286-2.724c0-1.568-0.85-2.739-2.286-2.739c-0.864,0-1.728,0.527-2.109,1.143v3.208
				C366.171,472.656,367.036,473.154,367.9,473.154z"/>
			<path fill="#F8FAFB" d="M372.529,475.732c0.161,0.073,0.425,0.117,0.601,0.117c0.483,0,0.806-0.161,1.055-0.747l0.469-1.069
				l-2.959-7.148h1.187l2.358,5.8l2.344-5.8h1.201l-3.545,8.51c-0.425,1.025-1.143,1.421-2.08,1.435
				c-0.234,0-0.601-0.044-0.806-0.103L372.529,475.732z"/>
		</g>
	</g>
</g>
</svg>
