<?xml version="1.0" encoding="utf-8"?>
<!-- Generator: Adobe Illustrator 19.0.0, SVG Export Plug-In . SVG Version: 6.00 Build 0)  -->
<svg version="1.1" id="Layer_1" xmlns="http://www.w3.org/2000/svg" xmlns:xlink="http://www.w3.org/1999/xlink" x="0px" y="0px"
	 width="1400px" height="1000px" viewBox="0 0 1400 1000" enable-background="new 0 0 1400 1000" xml:space="preserve">
<g id="XMLID_21_">
	<defs>
		<rect id="XMLID_19_" width="1400" height="1000"/>
	</defs>
	<clipPath id="XMLID_23_">
		<use xlink:href="#XMLID_19_"  overflow="visible"/>
	</clipPath>
	<g id="XMLID_17_" clip-path="url(#XMLID_23_)">
		<linearGradient id="XMLID_24_" gradientUnits="userSpaceOnUse" x1="700" y1="595.8287" x2="700" y2="24.8171">
			<stop  offset="5.376344e-003" style="stop-color:#FFEDC5"/>
			<stop  offset="1" style="stop-color:#B3C9D5"/>
		</linearGradient>
		<rect id="XMLID_3_" fill="url(#XMLID_24_)" width="1400" height="651.2"/>
		<linearGradient id="XMLID_25_" gradientUnits="userSpaceOnUse" x1="444.2646" y1="77.9302" x2="444.2646" y2="501.7106">
			<stop  offset="0" style="stop-color:#FFFBD3"/>
			<stop  offset="1" style="stop-color:#FFFCDD;stop-opacity:0"/>
		</linearGradient>
		<path id="XMLID_18_" fill="url(#XMLID_25_)" d="M937,370.7c-45.5,0-85.7,22.5-110.2,57c-6-1.7-12.3-2.6-18.7-2.6
			c-11.3,0-22,2.7-31.5,7.5c-7.1-22.8-27.2-39.8-51.7-42.4v-0.4c0-60.3-48.8-109.1-109.1-109.1c-36.3,0-68.4,17.7-88.3,45
			c-6.6-2-13.6-3-20.8-3c-21.2,0-40.2,9-53.5,23.5c-7-29.7-33.6-51.8-65.4-51.8c-18.6,0-35.5,7.6-47.6,19.8
			c-10.2-49.2-53.7-86.1-105.9-86.1c-59.7,0-108.1,48.4-108.1,108.1c0,6.1,0.5,12.1,1.5,17.9c-24.1,7.2-41.7,29.5-41.7,55.9v0.1
			c-8.5,0.6-15.9,4.9-20.8,11.2c-19.3-13.3-42.7-21.1-68-21.1c-37.9,0-71.8,17.6-93.8,45v150.3c22,27.5,55.9,45,93.8,45
			c32,0,61.1-12.5,82.6-32.9c164.4,10.2,581.7-3.6,758.3-10.2c24.6,26.5,59.8,43.1,98.8,43.1c16.9,0,33.1-3.1,48.1-8.8V379.5
			C970.1,373.8,953.9,370.7,937,370.7z"/>
		<linearGradient id="XMLID_26_" gradientUnits="userSpaceOnUse" x1="1161.0393" y1="-0.2125" x2="1161.0393" y2="423.5678">
			<stop  offset="0" style="stop-color:#FFFBD3"/>
			<stop  offset="1" style="stop-color:#FFFCDD;stop-opacity:0"/>
		</linearGradient>
		<path id="XMLID_7_" fill="url(#XMLID_26_)" d="M1653.8,292.5c-45.5,0-85.7,22.5-110.2,57c-6-1.7-12.3-2.6-18.7-2.6
			c-11.3,0-22,2.7-31.5,7.5c-7.1-22.8-27.2-39.8-51.7-42.4v-0.4c0-60.3-48.8-109.1-109.1-109.1c-36.3,0-68.4,17.7-88.3,45
			c-6.6-2-13.6-3-20.8-3c-21.2,0-40.2,9-53.5,23.5c-7-29.7-33.6-51.8-65.4-51.8c-18.6,0-35.5,7.6-47.6,19.8
			c-10.2-49.2-53.7-86.1-105.9-86.1c-59.7,0-108.1,48.4-108.1,108.1c0,6.1,0.5,12.1,1.5,17.9c-24.1,7.2-41.7,29.5-41.7,55.9v0.1
			c-8.5,0.6-15.9,4.9-20.8,11.2c-19.3-13.3-42.7-21.1-68-21.1c-37.9,0-71.8,17.6-93.8,45v150.3c22,27.5,55.9,45,93.8,45
			c32,0,61.1-12.5,82.6-32.9c164.4,10.2,581.7-3.6,758.3-10.2c24.6,26.5,59.8,43.1,98.8,43.1c16.9,0,33.1-3.1,48.1-8.8V301.3
			C1686.9,295.6,1670.7,292.5,1653.8,292.5z"/>
		<g id="XMLID_1_">
			<linearGradient id="XMLID_27_" gradientUnits="userSpaceOnUse" x1="700" y1="544.5046" x2="700" y2="1276.6934">
				<stop  offset="0" style="stop-color:#FFD99C"/>
				<stop  offset="1" style="stop-color:#F7954E"/>
			</linearGradient>
			<rect id="XMLID_2_" y="622.2" fill="url(#XMLID_27_)" width="1400" height="530.8"/>
			<linearGradient id="XMLID_28_" gradientUnits="userSpaceOnUse" x1="841.5538" y1="678.034" x2="862.5528" y2="412.5473">
				<stop  offset="0" style="stop-color:#FFD99C"/>
				<stop  offset="1" style="stop-color:#F7954E"/>
			</linearGradient>
			<path id="XMLID_15_" fill="url(#XMLID_28_)" d="M1515,646.8l-207.3-3.8l-590.8-10.8L601.4,630L175,622.2
				c16,0,482-178.2,586-194.2c25.8-4,49.8-9.7,72.1-16c0.1,0,0.2-0.1,0.2-0.1c67.1-19.2,118.2-44.4,155.8-45.9c50-2,168,54,218,86
				S1515,646.8,1515,646.8z"/>
			<linearGradient id="XMLID_29_" gradientUnits="userSpaceOnUse" x1="932.2721" y1="685.9485" x2="950.2721" y2="547.9485">
				<stop  offset="0" style="stop-color:#FFD99C"/>
				<stop  offset="1" style="stop-color:#F7954E"/>
			</linearGradient>
			<path id="XMLID_11_" fill="url(#XMLID_29_)" d="M1307.7,643l-590.8-10.8L601.4,630L577,574.4l523-23.4
				C1100,551,1186.8,617.8,1307.7,643z"/>
			<linearGradient id="XMLID_30_" gradientUnits="userSpaceOnUse" x1="637.4838" y1="455.7185" x2="637.4838" y2="759.438">
				<stop  offset="0" style="stop-color:#FFD99C"/>
				<stop  offset="1" style="stop-color:#F7954E"/>
			</linearGradient>
			<path id="XMLID_12_" fill="url(#XMLID_30_)" d="M1065,574.4C946,613,804.2,627,716.8,632.1L175,622.2c16,0,482-178.2,586-194.2
				c25.8-4,49.8-9.7,72.1-16c-5,1.6-107.3,34.1-156.1,75.1C627,529,1251.8,513.8,1065,574.4z"/>
			<linearGradient id="XMLID_31_" gradientUnits="userSpaceOnUse" x1="182.9847" y1="549.928" x2="182.9847" y2="662.4566">
				<stop  offset="0" style="stop-color:#FFD99C"/>
				<stop  offset="1" style="stop-color:#F7954E"/>
			</linearGradient>
			<path id="XMLID_8_" fill="url(#XMLID_31_)" d="M378,573c-23-38-69-45-108-60c-11-4-24-17-19-28c7.3-16.9,21.5-30.6,38.2-40.5
				c-80,7.3-160.5,86.3-289.2,144.2l-19,138.8c0,0,42-1.5,158-0.1c47.5,0.6,73.5-2.2,94.8-5.7C283.4,697,331,668.8,373,629
				C388,614,388,590,378,573z"/>
			<linearGradient id="XMLID_32_" gradientUnits="userSpaceOnUse" x1="570.9382" y1="799.878" x2="614.436" y2="502.8928">
				<stop  offset="0" style="stop-color:#FFD99C"/>
				<stop  offset="1" style="stop-color:#F7954E"/>
			</linearGradient>
			<path id="XMLID_9_" fill="url(#XMLID_32_)" d="M729,588.7C657,555.4,385,444,301,444c-3.9,0-7.9,0.2-11.8,0.5
				c-16.7,9.9-30.9,23.5-38.2,40.5c-5,11,8,24,19,28c39,15,85,22,108,60c10,17,10,41-5,56c-42,39.8-89.6,68-139.2,92.7
				c30.8-5,51.7-11.2,113.2-10.4c104,1.4,612-58.4,612-58.4S801,622,729,588.7z"/>
			<linearGradient id="XMLID_33_" gradientUnits="userSpaceOnUse" x1="1035.8527" y1="548.4576" x2="1035.8527" y2="746.3131">
				<stop  offset="0" style="stop-color:#FFFCD7"/>
				<stop  offset="1" style="stop-color:#FCBD78"/>
			</linearGradient>
			<path id="XMLID_13_" fill="url(#XMLID_33_)" d="M1144,694.9c8-0.8,16,0.8,24,0c133.7-16.3,266.8-11.6,396.7,6.8l20.2-25.3
				c-2.4,0.2-7.8-0.3-15.6-1.3c-59.3-7.6-262.7-43.8-455.4-32.3c-218.2,13.1-627.1,76.3-627.1,76.3s126.6,25.5,270.5,50.3
				c2.9-0.8,5.8-1.6,8.7-2.4C891,734.9,1013,706.1,1144,694.9z"/>
			<linearGradient id="XMLID_34_" gradientUnits="userSpaceOnUse" x1="1161.0392" y1="602.5594" x2="1161.0393" y2="820.7415">
				<stop  offset="0" style="stop-color:#FFD99C"/>
				<stop  offset="1" style="stop-color:#F7954E"/>
			</linearGradient>
			<path id="XMLID_14_" fill="url(#XMLID_34_)" d="M1168,694.9c-8,0.8-16-0.8-24,0c-131,11.2-253,40-378,72.1
				c-2.9,0.8-5.8,1.6-8.7,2.4c72.1,12.4,148.5,24.7,215.5,33.5c201,26.4,492,24,492,24l99.8-125.2
				C1434.8,683.2,1301.7,678.5,1168,694.9z"/>
			<linearGradient id="XMLID_35_" gradientUnits="userSpaceOnUse" x1="375.5106" y1="721.8413" x2="375.5106" y2="881.3094">
				<stop  offset="0" style="stop-color:#FFD99C"/>
				<stop  offset="1" style="stop-color:#F7954E"/>
			</linearGradient>
			<path id="XMLID_10_" fill="url(#XMLID_35_)" d="M864,857c-12-32-45-33-72-39c-174-40-346-17-511-77c-12-4-13-23-4-34
				c22.8-28.8,51.2-48.4,82.4-62.3c-32.5-0.3-70,2.4-109.6,11.1c-123.2,26.8-339,71.7-339,71.7l-24,160.1h920.1
				c14.5-4.6,28.9-9.8,43.1-15.6C857,869,866,863,864,857z"/>
			<linearGradient id="XMLID_36_" gradientUnits="userSpaceOnUse" x1="926.114" y1="434.0843" x2="917.3555" y2="804.8588">
				<stop  offset="0" style="stop-color:#FFD99C"/>
				<stop  offset="1" style="stop-color:#F7954E"/>
			</linearGradient>
			<path id="XMLID_16_" fill="url(#XMLID_36_)" d="M1564.7,841.9c0,0-24.8-12-141.6-15c-116.8-3-695.6-78.3-765.3-105.1
				s-183-62.6-183-62.6s-46.8-13.9-115.4-14.5c-31.1,13.9-59.6,33.5-82.4,62.3c-9,11-8,30,4,34c165,60,337,37,511,77
				c27,6,60,7,72,39c2,6-7,12-14,15c-14.3,5.8-28.6,11-43.1,15.6h739L1564.7,841.9z"/>
		</g>
		<g id="XMLID_6_">
			<linearGradient id="XMLID_37_" gradientUnits="userSpaceOnUse" x1="977.9554" y1="856.6797" x2="981.7068" y2="773.0222">
				<stop  offset="0.3118" style="stop-color:#3E301D"/>
				<stop  offset="0.4207" style="stop-color:#41331F"/>
				<stop  offset="0.5158" style="stop-color:#4A3A24"/>
				<stop  offset="0.6056" style="stop-color:#58442C"/>
				<stop  offset="0.6924" style="stop-color:#6B5134"/>
				<stop  offset="0.7768" style="stop-color:#84603D"/>
				<stop  offset="0.8596" style="stop-color:#A57245"/>
				<stop  offset="0.9394" style="stop-color:#CD854B"/>
				<stop  offset="1" style="stop-color:#F7954E"/>
			</linearGradient>
			<path id="XMLID_20_" fill="url(#XMLID_37_)" d="M1021.4,789.8c-0.9-1.4-2.6-2.4-4.3-2.4c-2.3-2-5.4-2.9-8.4-1.6
				c-0.4,0.2-0.4,0.6-0.2,0.9c-1.9,3-3.4,6.2-5.1,9.2c-0.5,0.8-1,1.6-1.5,2.4c-2.1,0-4.3,0-6.5,0c-1.3-1.5-2.9-2.8-4.2-3.9
				c-2.5-2.3-5-5-8.1-6.7c0.3-0.2,0.5-0.6,0.4-1l0-0.2c-0.1-0.4-0.6-0.7-1-0.6l-0.1,0.1c0,0,0,0,0,0c0-0.1-0.1-0.1-0.1-0.2
				c0-0.5-0.3-0.8-1-1c-0.1-0.1-0.3-0.2-0.4-0.3c0.3-2,0.4-4.4-1.4-5.7c-1.9-1.4-5-1.8-7.2-1.7c-0.5,0-0.8,0.3-1,0.8
				c-0.1,0.4-0.4,0.9-0.8,1.5c-6.4-2.2-19.7-3.5-19.3,4.9c0,0.5,0.5,0.7,0.9,0.5c1-0.6,1.1-1,1.8-1.9c0.4-0.5,0.8-1,1.2-1.3
				c0,0.1-0.1,0.1-0.1,0.2c0,0.1-0.1,0.3-0.1,0.4c-0.2,0.2-0.3,0.5-0.2,0.7c-0.2,0.7-0.4,1.3-0.7,2c0,0.1-0.1,0.2-0.1,0.3
				c-2.2,0.8-4.2,2.2-6,4.2c-2.2,2.4-6,5.9-7.2,9.4c-1.2,2-1.9,4.1-2.1,6.4c-0.2,3.8,1,9.4-2.9,11.9c-0.1,0-0.1,0.1-0.1,0.2
				c-0.2,0.1-0.3,0.3-0.2,0.5c0.4,3,0.7,6.2,1.2,9.2c0,1.9,0.1,3.8,0.7,5.4c-0.1,0.3-0.2,0.6-0.3,0.9c0,0,0,0,0,0
				c-0.5,0.6-0.6,1.1-0.9,1.8c-0.1,0.4,0.1,0.9,0.4,1.1c1.1,0.5,1.9,0.6,3.1,0.5c0.4-0.1,0.9-0.5,0.7-1c-0.8-2.1-1-4.2-1.2-6.3
				c0.1-1.3,0.2-2.7,0.3-4c0.1-1.6,0.3-3.3,0.3-5c0.7-0.5,1.2-1.3,1.7-1.8c1.8-1.7,3.9-3.2,5.9-4.7c0.4,3.3,1.2,6.6,0.9,10
				c0,0.4,0.2,0.8,0.6,1c4.1,2.6,5.3,7.6,7.9,11.4c0.2,0.3,0.5,0.4,0.8,0.4c0.1,0.1,0.1,0.2,0.2,0.3c0,0.4,0,0.8,0,1.2
				c0,0.6,0.6,1,1.1,0.9c0.1,0,0.2-0.1,0.3-0.1c0.5,0.1,1,0.1,1.4-0.2c0.1-0.1,0.2-0.2,0.3-0.3c0.3-0.2,0.5-0.6,0.2-1
				c-0.6-0.7-1.2-1.4-1.8-2.1c-0.5-0.6-1-1.3-1.5-1.9c-0.4-0.7-0.8-1.4-1.1-2c-0.8-1.6-1.7-3.2-2.6-4.7c-0.3-1.5-0.5-2.9-0.7-4.4
				c0.8-2.7,0.8-5.6,1.3-8.2c0.2-1.5,0.5-2.9,0.7-4.4c0.4-1.8,0.8-3.7,1.2-5.5c0.3,0.1,0.5,0.1,0.8,0.2c3.9,1.3,6.9,3.5,9.9,6.3
				c1.9,1.7,4.6,3.7,6.9,3.4c-1,3.2-1.8,6.4-2.7,9.6c-0.2,0.5-0.3,1-0.4,1.5c0,0.1-0.1,0.3-0.1,0.4c0,0.1,0,0.1,0,0.2
				c-0.1,0.6-0.1,1.1-0.1,1.7c-0.8,4.4-0.8,9.2-1.7,13.3c-0.8,0.3-0.4,1.6,0.6,1.4c0.9-0.1,1.8-0.3,2.6-0.5c0.3-0.1,0.6-0.5,0.5-0.8
				c-1.6-3.8-0.9-8.9-0.3-13.4c0.3-1.8,0.6-3.5,1-5.3c1.3-2.7,3.1-5.4,4.4-7.5c1.4-2.4,3.1-4.6,4.7-6.8c1.1,4.5,3,8.7,4.3,13.1
				c1.2,4,1.7,9.2,4.5,12.4c0.1,0.3,0.1,0.5,0.2,0.8c1,3.1,3.1,5.6,4.5,8.6c-0.3,0.4-0.5,0.9-0.7,1.4c-0.2,0.5,0.3,1.2,0.9,1.2
				c0.3,0,0.7-0.1,1-0.1c0.4,0,0.8,0,1.1-0.1c0.5-0.2,0.7-0.7,0.6-1.1c0.3-0.3,0.2-0.8,0-1.1c0,0-0.1-0.1-0.1-0.1
				c-0.3-1.7-1.5-3.4-2.5-4.7c-0.7-1-1.5-1.9-2.2-2.8c-1.6-3.1-2-7.4-2.5-10.8c-0.9-5.7-2.3-11.3-3.3-17c4,3.3,9.1,6.1,13.4,4
				c6.4-3.2,10.7-10.1,16-15c0.7-0.1,1.4-0.3,2.1-0.4c1.3-0.1,2.7,0,4-0.3c0.4,0.2,0.9,0.2,1.1-0.2
				C1025.8,792.8,1023.7,790,1021.4,789.8z"/>
			<linearGradient id="XMLID_38_" gradientUnits="userSpaceOnUse" x1="1076.1415" y1="846.2347" x2="1073.8906" y2="800.0918">
				<stop  offset="0.3118" style="stop-color:#3E301D"/>
				<stop  offset="0.4207" style="stop-color:#41331F"/>
				<stop  offset="0.5158" style="stop-color:#4A3A24"/>
				<stop  offset="0.6056" style="stop-color:#58442C"/>
				<stop  offset="0.6924" style="stop-color:#6B5134"/>
				<stop  offset="0.7768" style="stop-color:#84603D"/>
				<stop  offset="0.8596" style="stop-color:#A57245"/>
				<stop  offset="0.9394" style="stop-color:#CD854B"/>
				<stop  offset="1" style="stop-color:#F7954E"/>
			</linearGradient>
			<path id="XMLID_39_" fill="url(#XMLID_38_)" d="M1090.9,827.4c-0.5-0.9-1.4-2.2-2.5-2.2c-0.7-0.5-1.5-0.8-1.9-1.2
				c-1.2-0.9-2.6-1.8-3.6-2.9c-0.4-1-0.9-2-1.4-3c-0.6-1.2-1.2-2.4-1.9-3.6c0-0.2,0-0.5-0.2-0.8c-0.6-0.9-1.4-2.2-2.4-2.9
				c0,0,0-0.1,0-0.1c0.3-0.3,0.6-0.7,0.8-1.1c0.4-0.6,0.6-1.3,0.8-2c0.4-0.5,0.9-1,1.2-1.6c0.4-0.7,0-1.5-0.7-1.8
				c-0.7-0.3-1.5-0.5-2.2-0.6c-0.6-0.1-1.5-0.2-2.1,0.2c0,0,0,0-0.1,0.1c-0.7-0.3-1.6-0.5-2.3-0.6c-0.8-0.1-1.3,0.9-0.9,1.6
				c0.5,0.9,1,1.2,0.7,2.2c-0.2,0.5,0,1,0.4,1.3c-0.2,0.7-0.4,1.5-0.4,2.2c-0.1,0.2,0,0.4,0,0.6c-1,1.2-1.9,2.6-2.9,3.7
				c-1.5,1.7-3.5,3.3-4.3,5.5c-0.1,0.3,0.2,0.4,0.4,0.3c0,0.1,0.1,0.2,0.2,0.2c1.4,0.1,3.5,0.1,5.1-0.5c-0.1,1.9,0,3.9,0,5.7
				c0,1.6-0.2,4.7,1.3,5.8c0,0.5,0,1,0,1.5c0,0.5,0,1.2,0.2,1.8c-1.8,1.6-3.6,3.2-5.1,5.1c-1.7,2.1-3.4,4.3-5.1,6.5
				c0,0,0,0.1-0.1,0.1c-0.3,0.3-0.6,0.5-1,0.7c-0.6,0.4-0.7,1.3,0,1.7c1.9,1,4.3,0.9,6.4,0.8c0.3,0,0.3-0.4,0.1-0.4
				c-1.4-0.4-2.8-0.8-4.1-1.4c0,0,0.1,0,0.1-0.1c0.1,0.1,0.3,0.2,0.5,0.1c2.2-0.9,3.9-2.6,5.6-4.2c0.2-0.2,0.5-0.4,0.7-0.7
				c0.7-0.5,1.3-1,2-1.4c1-0.7,2.3-1.4,3.5-2.2c0.1,0.7,0.2,1.4,0.2,2.1c0.1,1.5,0.2,3.3,0.9,4.8c0.1,0.7,0.2,1.4,0.3,2
				c-0.1,0.5-0.2,1-0.4,1.5c-0.1,0.4,0.2,1,0.6,1c0.7,0.1,1.3,0,1.8-0.3c1.8,0.5,3.9-0.6,5.6-0.9c0.2,0,0.2-0.4,0-0.4
				c-0.8-0.1-1.5-0.2-2.3-0.3c-0.5,0-1.1,0-1.6-0.1c0-0.2,0.1-0.4,0-0.6c0.3,0,0.7-0.1,0.8-0.5c0.9-3.7,0.4-8,0.4-11.8
				c0-3.7-0.7-7.4-0.8-11.1c0.2-0.2,0.4-0.4,0.7-0.7c0.9,0.8,1.9,1.3,3,1.9c0.8,0.4,1.7,0.8,2.6,0.8c0,0.2,0,0.4,0,0.6
				c0,0.6,0.6,1,1.2,0.9c0.3-0.1,0.7-0.1,1-0.2c0.1,0,0.1,0,0.2,0C1090.5,828.8,1091.3,828.1,1090.9,827.4z"/>
		</g>
		<linearGradient id="XMLID_40_" gradientUnits="userSpaceOnUse" x1="698.9582" y1="678.0679" x2="782.9666" y2="1095.1096">
			<stop  offset="0" style="stop-color:#FFD99C"/>
			<stop  offset="1" style="stop-color:#F7954E"/>
		</linearGradient>
		<path id="XMLID_4_" fill="url(#XMLID_40_)" d="M1596.9,887.6c0,0-42.8-3.8-111-9.5c-217.5-18.2-693.5-55.7-867.1-51.2
			c-228,5.9-696.1,60.7-696.1,60.7v185.3l141,80.1l1431.1-92.1L1596.9,887.6z"/>
		<linearGradient id="XMLID_41_" gradientUnits="userSpaceOnUse" x1="918.0987" y1="1366.9536" x2="801.087" y2="868.9039">
			<stop  offset="0" style="stop-color:#FFD99C"/>
			<stop  offset="1" style="stop-color:#F7954E"/>
		</linearGradient>
		<path id="XMLID_5_" fill="url(#XMLID_41_)" d="M1449.9,875.1c-543-18.2-1185.1-27.2-939.1,38.8S9.3,993.7-19,989.8
			s-25.3,65.1,13.7,74.1s313.3,48,720.7,60s869.5,15,911.5-3c42-18,117-54,84-81S1449.9,875.1,1449.9,875.1z"/>
	</g>
</g>
</svg>
