<svg xmlns="http://www.w3.org/2000/svg" xmlns:xlink="http://www.w3.org/1999/xlink" viewBox="0 0 335.99 235.19"><defs><filter id="luminosity-noclip" x="57.98" y="-8310" width="278" height="32766" filterUnits="userSpaceOnUse" color-interpolation-filters="sRGB"><feFlood flood-color="#fff" result="bg"/><feBlend in="SourceGraphic" in2="bg"/></filter><filter id="luminosity-noclip-2" x=".21" y="-8310" width="335.77" height="32766" filterUnits="userSpaceOnUse" color-interpolation-filters="sRGB"><feFlood flood-color="#fff" result="bg"/><feBlend in="SourceGraphic" in2="bg"/></filter><filter id="luminosity-noclip-3" x="96.41" y="-8310" width="41.9" height="32766" filterUnits="userSpaceOnUse" color-interpolation-filters="sRGB"><feFlood flood-color="#fff" result="bg"/><feBlend in="SourceGraphic" in2="bg"/></filter><filter id="luminosity-noclip-4" x="195.03" y="-8310" width="65.91" height="32766" filterUnits="userSpaceOnUse" color-interpolation-filters="sRGB"><feFlood flood-color="#fff" result="bg"/><feBlend in="SourceGraphic" in2="bg"/></filter><filter id="luminosity-noclip-5" x="248.96" y="-8310" width="55.51" height="32766" filterUnits="userSpaceOnUse" color-interpolation-filters="sRGB"><feFlood flood-color="#fff" result="bg"/><feBlend in="SourceGraphic" in2="bg"/></filter><filter id="luminosity-noclip-6" x="232.19" y="-8310" width="29.92" height="32766" filterUnits="userSpaceOnUse" color-interpolation-filters="sRGB"><feFlood flood-color="#fff" result="bg"/><feBlend in="SourceGraphic" in2="bg"/></filter><filter id="luminosity-noclip-7" x="125.52" y="-8310" width="210.46" height="32766" filterUnits="userSpaceOnUse" color-interpolation-filters="sRGB"><feFlood flood-color="#fff" result="bg"/><feBlend in="SourceGraphic" in2="bg"/></filter><filter id="luminosity-noclip-8" x="273.37" y="-8310" width="41.9" height="32766" filterUnits="userSpaceOnUse" color-interpolation-filters="sRGB"><feFlood flood-color="#fff" result="bg"/><feBlend in="SourceGraphic" in2="bg"/></filter><filter id="luminosity-noclip-9" x="76.92" y="-8310" width="56.96" height="32766" filterUnits="userSpaceOnUse" color-interpolation-filters="sRGB"><feFlood flood-color="#fff" result="bg"/><feBlend in="SourceGraphic" in2="bg"/></filter><filter id="luminosity-noclip-10" x="185.27" y="-8310" width="41.9" height="32766" filterUnits="userSpaceOnUse" color-interpolation-filters="sRGB"><feFlood flood-color="#fff" result="bg"/><feBlend in="SourceGraphic" in2="bg"/></filter><filter id="luminosity-noclip-11" x="211.85" y="-8310" width="41.9" height="32766" filterUnits="userSpaceOnUse" color-interpolation-filters="sRGB"><feFlood flood-color="#fff" result="bg"/><feBlend in="SourceGraphic" in2="bg"/></filter><filter id="luminosity-noclip-12" x="247.09" y="-8310" width="59.16" height="32766" filterUnits="userSpaceOnUse" color-interpolation-filters="sRGB"><feFlood flood-color="#fff" result="bg"/><feBlend in="SourceGraphic" in2="bg"/></filter><filter id="luminosity-noclip-13" x="268.95" y="-8310" width="41.9" height="32766" filterUnits="userSpaceOnUse" color-interpolation-filters="sRGB"><feFlood flood-color="#fff" result="bg"/><feBlend in="SourceGraphic" in2="bg"/></filter><filter id="luminosity-noclip-15" x="66.7" y="-8310" width="41.9" height="32766" filterUnits="userSpaceOnUse" color-interpolation-filters="sRGB"><feFlood flood-color="#fff" result="bg"/><feBlend in="SourceGraphic" in2="bg"/></filter><filter id="luminosity-noclip-16" x="33.8" y="-8310" width="54.24" height="32766" filterUnits="userSpaceOnUse" color-interpolation-filters="sRGB"><feFlood flood-color="#fff" result="bg"/><feBlend in="SourceGraphic" in2="bg"/></filter><filter id="luminosity-noclip-17" x="39.54" y="-8310" width="58.25" height="32766" filterUnits="userSpaceOnUse" color-interpolation-filters="sRGB"><feFlood flood-color="#fff" result="bg"/><feBlend in="SourceGraphic" in2="bg"/></filter><filter id="luminosity-noclip-18" x="-.28" y="-8310" width="210.46" height="32766" filterUnits="userSpaceOnUse" color-interpolation-filters="sRGB"><feFlood flood-color="#fff" result="bg"/><feBlend in="SourceGraphic" in2="bg"/></filter><filter id="luminosity-noclip-19" x="37.56" y="-8310" width="41.9" height="32766" filterUnits="userSpaceOnUse" color-interpolation-filters="sRGB"><feFlood flood-color="#fff" result="bg"/><feBlend in="SourceGraphic" in2="bg"/></filter><filter id="luminosity-noclip-20" x="289.9" y="-8310" width="41.9" height="32766" filterUnits="userSpaceOnUse" color-interpolation-filters="sRGB"><feFlood flood-color="#fff" result="bg"/><feBlend in="SourceGraphic" in2="bg"/></filter><filter id="luminosity-noclip-21" x="145.76" y="-8310" width="190.23" height="32766" filterUnits="userSpaceOnUse" color-interpolation-filters="sRGB"><feFlood flood-color="#fff" result="bg"/><feBlend in="SourceGraphic" in2="bg"/></filter><filter id="luminosity-noclip-23" x="57.98" y="132.5" width="278" height="1.36" filterUnits="userSpaceOnUse" color-interpolation-filters="sRGB"><feFlood flood-color="#fff" result="bg"/><feBlend in="SourceGraphic" in2="bg"/></filter><filter id="luminosity-noclip-24" x="125.52" y="178.84" width="210.46" height="2.87" filterUnits="userSpaceOnUse" color-interpolation-filters="sRGB"><feFlood flood-color="#fff" result="bg"/><feBlend in="SourceGraphic" in2="bg"/></filter><filter id="luminosity-noclip-25" x="-.28" y="150.52" width="210.46" height="1.52" filterUnits="userSpaceOnUse" color-interpolation-filters="sRGB"><feFlood flood-color="#fff" result="bg"/><feBlend in="SourceGraphic" in2="bg"/></filter><filter id="luminosity-noclip-26" x="145.76" y="153.66" width="190.23" height="1.03" filterUnits="userSpaceOnUse" color-interpolation-filters="sRGB"><feFlood flood-color="#fff" result="bg"/><feBlend in="SourceGraphic" in2="bg"/></filter><filter id="luminosity-noclip-27" x="145.76" y="155.68" width="190.23" height="2.76" filterUnits="userSpaceOnUse" color-interpolation-filters="sRGB"><feFlood flood-color="#fff" result="bg"/><feBlend in="SourceGraphic" in2="bg"/></filter><filter id="luminosity-noclip-28" x=".21" y="174.82" width="335.77" height="1.6" filterUnits="userSpaceOnUse" color-interpolation-filters="sRGB"><feFlood flood-color="#fff" result="bg"/><feBlend in="SourceGraphic" in2="bg"/></filter><filter id="luminosity-noclip-29" x="96.41" y="108.82" width="41.9" height="42.21" filterUnits="userSpaceOnUse" color-interpolation-filters="sRGB"><feFlood flood-color="#fff" result="bg"/><feBlend in="SourceGraphic" in2="bg"/></filter><filter id="luminosity-noclip-30" x="195.03" y="85.6" width="65.91" height="66.4" filterUnits="userSpaceOnUse" color-interpolation-filters="sRGB"><feFlood flood-color="#fff" result="bg"/><feBlend in="SourceGraphic" in2="bg"/></filter><filter id="luminosity-noclip-31" x="248.96" y="54.38" width="55.51" height="55.93" filterUnits="userSpaceOnUse" color-interpolation-filters="sRGB"><feFlood flood-color="#fff" result="bg"/><feBlend in="SourceGraphic" in2="bg"/></filter><filter id="luminosity-noclip-32" x="232.19" y="123.23" width="29.92" height="30.14" filterUnits="userSpaceOnUse" color-interpolation-filters="sRGB"><feFlood flood-color="#fff" result="bg"/><feBlend in="SourceGraphic" in2="bg"/></filter><filter id="luminosity-noclip-33" x="273.37" y="128.9" width="41.9" height="42.21" filterUnits="userSpaceOnUse" color-interpolation-filters="sRGB"><feFlood flood-color="#fff" result="bg"/><feBlend in="SourceGraphic" in2="bg"/></filter><filter id="luminosity-noclip-34" x="76.92" y="40.73" width="56.96" height="57.39" filterUnits="userSpaceOnUse" color-interpolation-filters="sRGB"><feFlood flood-color="#fff" result="bg"/><feBlend in="SourceGraphic" in2="bg"/></filter><filter id="luminosity-noclip-35" x="185.27" y="16.81" width="41.9" height="42.21" filterUnits="userSpaceOnUse" color-interpolation-filters="sRGB"><feFlood flood-color="#fff" result="bg"/><feBlend in="SourceGraphic" in2="bg"/></filter><filter id="luminosity-noclip-36" x="211.85" y="145.48" width="41.9" height="42.21" filterUnits="userSpaceOnUse" color-interpolation-filters="sRGB"><feFlood flood-color="#fff" result="bg"/><feBlend in="SourceGraphic" in2="bg"/></filter><filter id="luminosity-noclip-37" x="247.09" y="162.71" width="59.16" height="59.6" filterUnits="userSpaceOnUse" color-interpolation-filters="sRGB"><feFlood flood-color="#fff" result="bg"/><feBlend in="SourceGraphic" in2="bg"/></filter><filter id="luminosity-noclip-38" x="268.95" y="29.38" width="41.9" height="42.21" filterUnits="userSpaceOnUse" color-interpolation-filters="sRGB"><feFlood flood-color="#fff" result="bg"/><feBlend in="SourceGraphic" in2="bg"/></filter><filter id="luminosity-noclip-39" x="185.27" y="142.47" width="41.9" height="42.21" filterUnits="userSpaceOnUse" color-interpolation-filters="sRGB"><feFlood flood-color="#fff" result="bg"/><feBlend in="SourceGraphic" in2="bg"/></filter><filter id="luminosity-noclip-40" x="66.7" y="135.53" width="41.9" height="42.21" filterUnits="userSpaceOnUse" color-interpolation-filters="sRGB"><feFlood flood-color="#fff" result="bg"/><feBlend in="SourceGraphic" in2="bg"/></filter><filter id="luminosity-noclip-41" x="33.8" y="164.59" width="54.24" height="54.64" filterUnits="userSpaceOnUse" color-interpolation-filters="sRGB"><feFlood flood-color="#fff" result="bg"/><feBlend in="SourceGraphic" in2="bg"/></filter><filter id="luminosity-noclip-42" x="39.54" y="88.9" width="58.25" height="58.69" filterUnits="userSpaceOnUse" color-interpolation-filters="sRGB"><feFlood flood-color="#fff" result="bg"/><feBlend in="SourceGraphic" in2="bg"/></filter><filter id="luminosity-noclip-43" x="37.56" y="23.28" width="41.9" height="42.21" filterUnits="userSpaceOnUse" color-interpolation-filters="sRGB"><feFlood flood-color="#fff" result="bg"/><feBlend in="SourceGraphic" in2="bg"/></filter><filter id="luminosity-noclip-44" x="289.9" y="65.61" width="41.9" height="42.21" filterUnits="userSpaceOnUse" color-interpolation-filters="sRGB"><feFlood flood-color="#fff" result="bg"/><feBlend in="SourceGraphic" in2="bg"/></filter><radialGradient id="Névtelen_színátmenet_17" cx="232.35" cy="-54.67" r="20.87" gradientTransform="matrix(-1 .06 -.06 -1.01 346.56 59.77)" gradientUnits="userSpaceOnUse"><stop offset=".74" stop-color="#ccc"/><stop offset=".95"/></radialGradient><radialGradient id="Névtelen_színátmenet_16" cx="121.64" cy="-50.72" r="32.84" xlink:href="#Névtelen_színátmenet_17"/><radialGradient id="Névtelen_színátmenet_15" cx="70.88" cy="-17.83" r="27.66" gradientTransform="matrix(-1 .06 -.06 -1.01 346.56 59.77)" gradientUnits="userSpaceOnUse"><stop offset=".85" stop-color="#999"/><stop offset=".95"/></radialGradient><radialGradient id="Névtelen_színátmenet_14" cx="103.81" cy="-71.19" r="14.9" xlink:href="#Névtelen_színátmenet_17"/><radialGradient id="Névtelen_színátmenet_13" cx="57.64" cy="-85.74" r="20.87" xlink:href="#Névtelen_színátmenet_15"/><radialGradient id="Névtelen_színátmenet_12" cx="240.43" cy="5.81" r="28.38" xlink:href="#Névtelen_színátmenet_17"/><radialGradient id="Névtelen_színátmenet_11" cx="138.17" cy="30.5" r="20.87" xlink:href="#Névtelen_színátmenet_17"/><radialGradient id="Névtelen_színátmenet_10" cx="119.86" cy="-98.2" r="20.87" xlink:href="#Névtelen_színátmenet_17"/><radialGradient id="Névtelen_színátmenet_9" cx="77.87" cy="-126.58" r="29.48" xlink:href="#Névtelen_színátmenet_17"/><radialGradient id="Névtelen_színátmenet_8" cx="55.76" cy="12.77" r="20.87" xlink:href="#Névtelen_színátmenet_17"/><radialGradient id="Névtelen_színátmenet_7" cx="146.1" cy="-93.53" r="20.87" xlink:href="#Névtelen_színátmenet_17"/><radialGradient id="Névtelen_színátmenet_6" cx="263.58" cy="-79.15" r="20.87" xlink:href="#Névtelen_színátmenet_17"/><radialGradient id="Névtelen_színátmenet_5" cx="292.38" cy="-112.27" r="27.02" xlink:href="#Névtelen_színátmenet_15"/><radialGradient id="Névtelen_színátmenet_4" cx="280.03" cy="-40.05" r="29.02" xlink:href="#Névtelen_színátmenet_17"/><radialGradient id="Névtelen_színátmenet_3" cx="285.47" cy="33.5" r="20.87" xlink:href="#Névtelen_színátmenet_17"/><radialGradient id="Névtelen_színátmenet_2" cx="37.21" cy="-24.32" r="20.87" xlink:href="#Névtelen_színátmenet_17"/><radialGradient id="Névtelen_színátmenet_26" cx="232.35" cy="-54.67" r="20.87" gradientTransform="matrix(-1 .06 -.06 -1.01 346.56 59.77)" gradientUnits="userSpaceOnUse"><stop offset=".74" stop-color="#fff"/><stop offset=".95" stop-color="#fff"/></radialGradient><radialGradient id="Névtelen_színátmenet_26-2" cx="121.64" cy="-50.72" r="32.84" xlink:href="#Névtelen_színátmenet_26"/><radialGradient id="Névtelen_színátmenet_31" cx="70.88" cy="-17.83" r="27.66" gradientTransform="matrix(-1 .06 -.06 -1.01 346.56 59.77)" gradientUnits="userSpaceOnUse"><stop offset=".85" stop-color="#fff"/><stop offset=".95" stop-color="#fff"/></radialGradient><radialGradient id="Névtelen_színátmenet_26-3" cx="103.81" cy="-71.19" r="14.9" xlink:href="#Névtelen_színátmenet_26"/><radialGradient id="Névtelen_színátmenet_31-2" cx="57.64" cy="-85.74" r="20.87" xlink:href="#Névtelen_színátmenet_31"/><radialGradient id="Névtelen_színátmenet_26-4" cx="240.43" cy="5.81" r="28.38" xlink:href="#Névtelen_színátmenet_26"/><radialGradient id="Névtelen_színátmenet_26-5" cx="138.17" cy="30.5" r="20.87" xlink:href="#Névtelen_színátmenet_26"/><radialGradient id="Névtelen_színátmenet_26-6" cx="119.86" cy="-98.2" r="20.87" xlink:href="#Névtelen_színátmenet_26"/><radialGradient id="Névtelen_színátmenet_26-7" cx="77.87" cy="-126.58" r="29.48" xlink:href="#Névtelen_színátmenet_26"/><radialGradient id="Névtelen_színátmenet_26-8" cx="55.76" cy="12.77" r="20.87" xlink:href="#Névtelen_színátmenet_26"/><radialGradient id="Névtelen_színátmenet_26-9" cx="146.1" cy="-93.53" r="20.87" xlink:href="#Névtelen_színátmenet_26"/><radialGradient id="Névtelen_színátmenet_26-10" cx="263.58" cy="-79.15" r="20.87" xlink:href="#Névtelen_színátmenet_26"/><radialGradient id="Névtelen_színátmenet_31-3" cx="292.38" cy="-112.27" r="27.02" xlink:href="#Névtelen_színátmenet_31"/><radialGradient id="Névtelen_színátmenet_26-11" cx="280.03" cy="-40.05" r="29.02" xlink:href="#Névtelen_színátmenet_26"/><radialGradient id="Névtelen_színátmenet_26-12" cx="285.47" cy="33.5" r="20.87" xlink:href="#Névtelen_színátmenet_26"/><radialGradient id="Névtelen_színátmenet_26-13" cx="37.21" cy="-24.32" r="20.87" xlink:href="#Névtelen_színátmenet_26"/><mask id="mask-23" x="57.98" y="132.5" width="278" height="1.36" maskUnits="userSpaceOnUse"><g mask="url(#mask)" filter="url(#luminosity-noclip-23)"><path style="mix-blend-mode:multiply" fill="url(#Névtelen_színátmenet_36)" d="M335.99 133.86L57.98 132.5h278.01v1.36z"/></g></mask><mask id="mask-24" x="125.52" y="178.84" width="210.46" height="2.87" maskUnits="userSpaceOnUse"><g mask="url(#mask-7)" filter="url(#luminosity-noclip-24)"><path style="mix-blend-mode:multiply" fill="url(#Névtelen_színátmenet_35)" d="M335.99 181.71l-210.47-1.24 210.47-1.63v2.87z"/></g></mask><mask id="mask-25" x="-.28" y="150.52" width="210.46" height="1.52" maskUnits="userSpaceOnUse"><g mask="url(#mask-18)" filter="url(#luminosity-noclip-25)"><path style="mix-blend-mode:multiply" fill="url(#Névtelen_színátmenet_33)" d="M-.28 151.65l210.46.4-210.46-1.53v1.13z"/></g></mask><mask id="mask-26" x="145.76" y="153.66" width="190.23" height="1.03" maskUnits="userSpaceOnUse"><g filter="url(#luminosity-noclip-26)" mask="url(#mask-21)"><path style="mix-blend-mode:multiply" fill="url(#Névtelen_színátmenet_32)" d="M335.99 154.69H145.76l190.23-1.03v1.03z"/></g></mask><mask id="mask-27" x="145.76" y="155.68" width="190.23" height="2.76" maskUnits="userSpaceOnUse"><g filter="url(#luminosity-noclip-27)" mask="url(#mask-21)"><path style="mix-blend-mode:multiply" fill="url(#Névtelen_színátmenet_30)" d="M335.99 158.45l-190.23-1.52 190.23-1.25v2.77z"/></g></mask><mask id="mask-28" x=".21" y="174.82" width="335.77" height="1.6" maskUnits="userSpaceOnUse"><g mask="url(#mask-2)" filter="url(#luminosity-noclip-28)"><path style="mix-blend-mode:multiply" fill="url(#Névtelen_színátmenet_29)" d="M335.99 176.42L.21 175.84v-1.02l335.78.57v1.03z"/></g></mask><mask id="mask-29" x="96.41" y="108.82" width="41.9" height="42.21" maskUnits="userSpaceOnUse"><g mask="url(#mask-3)" filter="url(#luminosity-noclip-29)"><path d="M98.16 121.5a20.89 20.89 0 0127.56-10.92 21.15 21.15 0 0110.84 27.77A20.88 20.88 0 01109 149.27a21.16 21.16 0 01-10.84-27.77z" style="mix-blend-mode:multiply" fill="url(#Névtelen_színátmenet_17)"/></g></mask><mask id="mask-30" x="195.03" y="85.6" width="65.91" height="66.4" maskUnits="userSpaceOnUse"><g mask="url(#mask-4)" filter="url(#luminosity-noclip-30)"><path d="M197.77 105.55a32.86 32.86 0 0143.36-17.18 33.29 33.29 0 0117.06 43.68 32.86 32.86 0 01-43.36 17.19 33.3 33.3 0 01-17.06-43.69z" style="mix-blend-mode:multiply" fill="url(#Névtelen_színátmenet_16)"/></g></mask><mask id="mask-31" x="248.96" y="54.38" width="55.51" height="55.93" maskUnits="userSpaceOnUse"><g mask="url(#mask-5)" filter="url(#luminosity-noclip-31)"><path d="M251.27 71.18a27.67 27.67 0 0136.52-14.47 28 28 0 0114.36 36.79 27.67 27.67 0 01-36.51 14.5 28 28 0 01-14.37-36.82z" style="mix-blend-mode:multiply" fill="url(#Névtelen_színátmenet_15)"/></g></mask><mask id="mask-32" x="232.19" y="123.23" width="29.92" height="30.14" maskUnits="userSpaceOnUse"><g mask="url(#mask-6)" filter="url(#luminosity-noclip-32)"><path d="M233.43 132.28a14.91 14.91 0 0119.68-7.8 15.11 15.11 0 017.75 19.83 14.91 14.91 0 01-19.68 7.8 15.11 15.11 0 01-7.75-19.83z" style="mix-blend-mode:multiply" fill="url(#Névtelen_színátmenet_14)"/></g></mask><mask id="mask-33" x="273.37" y="128.9" width="41.9" height="42.21" maskUnits="userSpaceOnUse"><g mask="url(#mask-8)" filter="url(#luminosity-noclip-33)"><path d="M275.12 141.58a20.88 20.88 0 0127.56-10.92 21.15 21.15 0 0110.84 27.77A20.88 20.88 0 01286 169.35a21.16 21.16 0 01-10.88-27.77z" style="mix-blend-mode:multiply" fill="url(#Névtelen_színátmenet_13)"/></g></mask><mask id="mask-34" x="76.92" y="40.73" width="56.96" height="57.39" maskUnits="userSpaceOnUse"><g mask="url(#mask-9)" filter="url(#luminosity-noclip-34)"><path d="M79.29 58a28.4 28.4 0 0137.47-14.85 28.76 28.76 0 0114.74 37.72A28.38 28.38 0 0194 95.72 28.76 28.76 0 0179.29 58z" style="mix-blend-mode:multiply" fill="url(#Névtelen_színátmenet_12)"/></g></mask><mask id="mask-35" x="185.27" y="16.81" width="41.9" height="42.21" maskUnits="userSpaceOnUse"><g filter="url(#luminosity-noclip-35)" mask="url(#mask-10)"><path d="M187 29.49a20.88 20.88 0 0127.56-10.92 21.17 21.17 0 0110.85 27.77 20.9 20.9 0 01-27.57 10.92A21.16 21.16 0 01187 29.49z" style="mix-blend-mode:multiply" fill="url(#Névtelen_színátmenet_11)"/></g></mask><mask id="mask-36" x="211.85" y="145.48" width="41.9" height="42.21" maskUnits="userSpaceOnUse"><g mask="url(#mask-11)" filter="url(#luminosity-noclip-36)"><path d="M213.6 158.17a20.88 20.88 0 0127.56-10.93A21.15 21.15 0 01252 175a20.87 20.87 0 01-27.56 10.92 21.15 21.15 0 01-10.84-27.75z" style="mix-blend-mode:multiply" fill="url(#Névtelen_színátmenet_10)"/></g></mask><mask id="mask-37" x="247.09" y="162.71" width="59.16" height="59.6" maskUnits="userSpaceOnUse"><g mask="url(#mask-12)" filter="url(#luminosity-noclip-37)"><path d="M249.56 180.62a29.49 29.49 0 0138.92-15.42 29.87 29.87 0 0115.31 39.21 29.5 29.5 0 01-38.92 15.43 29.89 29.89 0 01-15.31-39.22z" style="mix-blend-mode:multiply" fill="url(#Névtelen_színátmenet_9)"/></g></mask><mask id="mask-38" x="268.95" y="29.38" width="41.9" height="42.21" maskUnits="userSpaceOnUse"><g mask="url(#mask-13)" filter="url(#luminosity-noclip-38)"><path d="M270.7 42.07a20.88 20.88 0 0127.56-10.93 21.16 21.16 0 0110.84 27.77 20.88 20.88 0 01-27.56 10.93 21.16 21.16 0 01-10.84-27.77z" style="mix-blend-mode:multiply" fill="url(#Névtelen_színátmenet_8)"/></g></mask><mask id="mask-39" x="185.27" y="142.47" width="41.9" height="42.21" maskUnits="userSpaceOnUse"><g filter="url(#luminosity-noclip-39)" mask="url(#mask-10)"><path d="M187 155.15a20.88 20.88 0 0127.56-10.92A21.16 21.16 0 01225.43 172a20.89 20.89 0 01-27.57 10.93A21.16 21.16 0 01187 155.15z" style="mix-blend-mode:multiply" fill="url(#Névtelen_színátmenet_7)"/></g></mask><mask id="mask-40" x="66.7" y="135.53" width="41.9" height="42.21" maskUnits="userSpaceOnUse"><g mask="url(#mask-15)" filter="url(#luminosity-noclip-40)"><path d="M68.44 148.21A20.9 20.9 0 0196 137.29a21.16 21.16 0 0110.84 27.77A20.89 20.89 0 0179.29 176a21.17 21.17 0 01-10.85-27.79z" style="mix-blend-mode:multiply" fill="url(#Névtelen_színátmenet_6)"/></g></mask><mask id="mask-41" x="33.8" y="164.59" width="54.24" height="54.64" maskUnits="userSpaceOnUse"><g mask="url(#mask-16)" filter="url(#luminosity-noclip-41)"><path d="M36.06 181a27 27 0 0135.68-14.14 27.39 27.39 0 0114 35.95A27 27 0 0150.1 217a27.4 27.4 0 01-14.04-36z" style="mix-blend-mode:multiply" fill="url(#Névtelen_színátmenet_5)"/></g></mask><mask id="mask-42" x="39.54" y="88.9" width="58.25" height="58.69" maskUnits="userSpaceOnUse"><g mask="url(#mask-17)" filter="url(#luminosity-noclip-42)"><path d="M42 106.53a29 29 0 0138.3-15.18A29.41 29.41 0 0195.37 130a29 29 0 01-38.32 15.19A29.42 29.42 0 0142 106.53z" style="mix-blend-mode:multiply" fill="url(#Névtelen_színátmenet_4)"/></g></mask><mask id="mask-43" x="37.56" y="23.28" width="41.9" height="42.21" maskUnits="userSpaceOnUse"><g mask="url(#mask-19)" filter="url(#luminosity-noclip-43)"><path d="M39.31 36a20.89 20.89 0 0127.56-11 21.15 21.15 0 0110.84 27.81 20.88 20.88 0 01-27.56 10.92A21.16 21.16 0 0139.31 36z" style="mix-blend-mode:multiply" fill="url(#Névtelen_színátmenet_3)"/></g></mask><mask id="mask-44" x="289.9" y="65.61" width="41.9" height="42.21" maskUnits="userSpaceOnUse"><g mask="url(#mask-20)" filter="url(#luminosity-noclip-44)"><path d="M291.64 78.29a20.9 20.9 0 0127.57-10.93 21.17 21.17 0 0110.84 27.77 20.88 20.88 0 01-27.56 10.93 21.17 21.17 0 01-10.85-27.77z" style="mix-blend-mode:multiply" fill="url(#Névtelen_színátmenet_2)"/></g></mask><linearGradient id="Névtelen_színátmenet_36" x1="865.06" y1="294.74" x2="1110.88" y2="205.79" gradientTransform="translate(-790.77 -117.16)" gradientUnits="userSpaceOnUse"><stop offset="0"/><stop offset="1" stop-color="#fff"/></linearGradient><linearGradient id="Névtelen_színátmenet_29" x1="810.34" y1="346.52" x2="1107.39" y2="239.04" xlink:href="#Névtelen_színátmenet_36"/><linearGradient id="Névtelen_színátmenet_35" x1="928.67" y1="331.85" x2="1115.29" y2="264.32" xlink:href="#Névtelen_színátmenet_36"/><linearGradient id="Névtelen_színátmenet_33" x1="-596.83" y1="302.7" x2="-410.24" y2="235.19" gradientTransform="matrix(-1 0 0 1 -398.77 -117.16)" xlink:href="#Névtelen_színátmenet_36"/><linearGradient id="Névtelen_színátmenet_32" x1="947.54" y1="302.28" x2="1116.07" y2="241.3" xlink:href="#Névtelen_színátmenet_36"/><linearGradient id="Névtelen_színátmenet_30" x1="947.78" y1="305.19" x2="1116.38" y2="244.19" xlink:href="#Névtelen_színátmenet_36"/><linearGradient id="Névtelen_színátmenet_96" x1="167.99" y1="-.07" x2="167.99" y2="170.44" gradientUnits="userSpaceOnUse"><stop offset="0" stop-color="#a8a5d2"/><stop offset=".07" stop-color="#ada7d3"/><stop offset=".16" stop-color="#bdacd4"/><stop offset=".25" stop-color="#d6b6d7"/><stop offset=".35" stop-color="#f6c1da"/><stop offset=".52" stop-color="#f8cce1"/><stop offset=".69" stop-color="#faddec"/></linearGradient><linearGradient id="Névtelen_színátmenet_78" x1="168.08" y1="235.13" x2="168.08" y2="199.49" gradientUnits="userSpaceOnUse"><stop offset="0" stop-color="#35184f"/><stop offset=".37" stop-color="#40225a"/><stop offset="1" stop-color="#503068"/></linearGradient><linearGradient id="Névtelen_színátmenet_120" x1="168.08" y1="199.49" x2="168.08" y2="128.74" gradientUnits="userSpaceOnUse"><stop offset="0" stop-color="#8678b5"/><stop offset=".18" stop-color="#8c7db8"/><stop offset=".42" stop-color="#9c8cc0"/><stop offset=".7" stop-color="#b7a5ce"/><stop offset=".99" stop-color="#ddc8e1"/><stop offset="1" stop-color="#dec9e2"/></linearGradient><linearGradient id="Névtelen_színátmenet_543" x1="865.06" y1="294.74" x2="1110.88" y2="205.79" gradientTransform="translate(-790.77 -117.16)" gradientUnits="userSpaceOnUse"><stop offset="0" stop-color="#fff"/><stop offset="1" stop-color="#fff"/></linearGradient><linearGradient id="Névtelen_színátmenet_543-2" x1="928.67" y1="331.85" x2="1115.29" y2="264.32" xlink:href="#Névtelen_színátmenet_543"/><linearGradient id="Névtelen_színátmenet_543-3" x1="-596.83" y1="302.7" x2="-410.24" y2="235.19" gradientTransform="matrix(-1 0 0 1 -398.77 -117.16)" xlink:href="#Névtelen_színátmenet_543"/><linearGradient id="Névtelen_színátmenet_543-4" x1="947.54" y1="302.28" x2="1116.07" y2="241.3" xlink:href="#Névtelen_színátmenet_543"/><linearGradient id="Névtelen_színátmenet_543-5" x1="947.78" y1="305.19" x2="1116.38" y2="244.19" xlink:href="#Névtelen_színátmenet_543"/><linearGradient id="Névtelen_színátmenet_543-6" x1="810.34" y1="346.52" x2="1107.39" y2="239.04" xlink:href="#Névtelen_színátmenet_543"/><linearGradient id="Névtelen_színátmenet_99" x1="66.35" y1="173.62" x2="268.81" y2="173.62" gradientUnits="userSpaceOnUse"><stop offset="0" stop-color="#b1a5d0"/><stop offset=".06" stop-color="#a597c3"/><stop offset=".25" stop-color="#8772a3"/><stop offset=".44" stop-color="#6f5589"/><stop offset=".63" stop-color="#5e4077"/><stop offset=".82" stop-color="#53346c"/><stop offset="1" stop-color="#503068"/></linearGradient><linearGradient id="linear-gradient" x1="60.29" y1="173.18" x2="276.69" y2="173.18" gradientUnits="userSpaceOnUse"><stop offset="0" stop-color="#fdf4f9"/><stop offset=".99" stop-color="#f3e5f2"/></linearGradient><linearGradient id="Névtelen_színátmenet_52" x1="59.29" y1="185.37" x2="275.86" y2="185.37" gradientUnits="userSpaceOnUse"><stop offset=".01" stop-color="#af99c1"/><stop offset=".27" stop-color="#a68ab7"/><stop offset=".79" stop-color="#8e629e"/><stop offset="1" stop-color="#834f92"/></linearGradient><linearGradient id="linear-gradient-2" x1="204.46" y1="194.27" x2="223.22" y2="194.27" xlink:href="#linear-gradient"/><style>.cls-49{fill:#fff}.cls-76,.cls-79{fill:#251647}.cls-75{opacity:.2}.cls-74{fill:#272156}.cls-77{fill:#571457}.cls-78{fill:#442c63}.cls-79{fill-rule:evenodd}.cls-80{fill:#002a27}.cls-81{fill:#573a80}.cls-82{fill:#98aa25}</style></defs><g style="isolation:isolate"><g id="Layer"><path fill="url(#Névtelen_színátmenet_96)" d="M-.01-.07h336v170.51h-336z"/><path fill="url(#Névtelen_színátmenet_78)" d="M.18 199.49h335.81v35.64H.18z"/><path fill="url(#Névtelen_színátmenet_120)" d="M.18 128.74h335.81v70.75H.18z"/><path class="cls-49" d="M.18 196.07h335.81v4.57H.18z"/><g opacity=".78"><g mask="url(#mask-23)" opacity=".53"><path fill="url(#Névtelen_színátmenet_543)" d="M335.99 133.86L57.98 132.5h278.01v1.36z"/></g><g mask="url(#mask-24)"><path fill="url(#Névtelen_színátmenet_543-2)" d="M335.99 181.71l-210.47-1.24 210.47-1.63v2.87z"/></g><g mask="url(#mask-25)" opacity=".32"><path fill="url(#Névtelen_színátmenet_543-3)" d="M-.28 151.65l210.46.4-210.46-1.53v1.13z"/></g><g mask="url(#mask-26)" opacity=".13"><path fill="url(#Névtelen_színátmenet_543-4)" d="M335.99 154.69H145.76l190.23-1.03v1.03z"/></g><g mask="url(#mask-27)"><path fill="url(#Névtelen_színátmenet_543-5)" d="M335.99 158.45l-190.23-1.52 190.23-1.25v2.77z"/></g><g mask="url(#mask-28)" opacity=".3"><path fill="url(#Névtelen_színátmenet_543-6)" d="M335.99 176.42L.21 175.84v-1.02l335.78.57v1.03z"/></g></g><path d="M167.48 178.93c-63 0-90.35-6.63-101.13-10.62 37.34 4.18 99.06 4.38 99.71 4.38h3c.65 0 62.38-.2 99.72-4.38-10.77 4-38.12 10.6-101.09 10.62h-.24z" fill="url(#Névtelen_színátmenet_99)"/><path d="M79.78 170.69c37.21 3 86.61 3.17 87.19 3.17h3c.58 0 50-.16 87.16-3.17-15.2 3.45-42.17 7.05-88.59 7.06h-.24c-46.4 0-73.36-3.61-88.55-7.06m196.91-4.43zm0 0C244 170.84 181 171.51 170 171.51h-3c-11 0-74-.67-106.68-5.25 0 0 16.27 13.82 108 13.85h.31c91.78 0 108.05-13.85 108.05-13.85z" fill="url(#linear-gradient)"/><path d="M168.64 180.11h-.31c-87 0-106.15-12.46-107.9-13.75l-1-.1s-4 30 35.4 35.4c22.72 3.78 32.16 2.74 72.52 2.59 42.14.15 50.29 1.19 73-2.59 36.19-4.95 35.77-30.6 35.46-34.81-4.4 2.66-26.92 13.23-107.17 13.26z" fill="url(#Névtelen_színátmenet_52)"/><path d="M275.8 166.85a45.8 45.8 0 01-10.52 4.21 32.17 32.17 0 01-.72 3.44c-5.27 4.27-13 7.81-24.22 9.35-22.72 3.78-30.87 2.74-73 2.59-40.36.15-49.8 1.19-72.52-2.59-15.94-2.18-24.78-8.39-29.65-15a35.77 35.77 0 01-3.46-1.63c3.58 8.53 12.28 18.24 33.11 21.09 22.72 3.79 32.16 2.74 72.52 2.59 42.14.15 50.29 1.2 73-2.59 9.63-1.31 16.66-4.1 21.79-7.55a29.61 29.61 0 01-5.76 7.65 57.81 57.81 0 01-16 4.37c-22.72 3.79-30.87 2.74-73 2.59-40.36.15-49.8 1.2-72.52-2.59-25.36-3.47-32.74-17.1-34.78-26.4l-.62-.07v.21c.68 8.65 5.72 26.66 35.42 30.72 22.72 3.79 32.16 2.75 72.52 2.6 42.14.15 50.29 1.19 73-2.6.2 0 .39-.06.59-.09a63.26 63.26 0 01-10.82 2.39c-22.72 3.79-30.87 2.74-73 2.59-40 .15-49.62 1.17-71.86-2.48a66.62 66.62 0 009.57 2c22.72 3.78 32.16 2.74 72.52 2.59 42.14.15 50.29 1.19 73-2.59 36.14-4.94 35.72-30.59 35.41-34.8z" opacity=".2" fill="#251647"/><path d="M167.66 177.75h8.13l-.6-3.89h-15.1l-.7 3.89h8zm-44.49-1.32q7.44.49 16 .82v-3.77c-4.55-.1-9.49-.23-14.65-.4zm87.48-3.35c-5.16.16-10.1.29-14.65.4l.05 3.76q8.61-.31 16-.82z" fill="#8e7cb0"/><path d="M204.46 191.51a15.62 15.62 0 015.23-.46 22.22 22.22 0 014.84.87 21.85 21.85 0 014.55 1.88 15.42 15.42 0 014.14 3.23 15.38 15.38 0 01-5.23.47 22.22 22.22 0 01-4.84-.87 23.3 23.3 0 01-4.54-1.89 15.51 15.51 0 01-4.15-3.23z" fill="url(#linear-gradient-2)"/><path class="cls-74" d="M240 193l-14.18-4.45c-9.12-2.87-17 2.06-17.7 2.51h1.54a22.22 22.22 0 014.84.87 21.85 21.85 0 014.55 1.88 15.42 15.42 0 014.14 3.23 15.38 15.38 0 01-5.23.47 22.22 22.22 0 01-4.84-.87 23.3 23.3 0 01-4.54-1.89c-.46-.26-.92-.55-1.37-.85.3.74 4 9.32 13.09 12.19l14.18 4.46s3.14 1 4.05-1.9l1.85-5.9 1.85-5.9C243.17 194 240 193 240 193z"/><g class="cls-75"><path class="cls-76" d="M235.69 209l-14.18-4.45a21.47 21.47 0 01-11.51-9.12c-.48-.22-1-.43-1.43-.69s-.92-.55-1.37-.85c.3.74 4 9.32 13.09 12.19l14.18 4.46s3 .94 4-1.75a3.88 3.88 0 01-2.78.21z"/></g><path class="cls-77" d="M95.68 157.34l135.84 42-136.77-38.87a1.63 1.63 0 11.89-3.14z"/><path class="cls-76" d="M33.51 235.14c6.66-8.33 12.22-19 16.91-29 8.29-17.66.92-20 .92-20 5.23-10-1.22-14.71-1.22-14.71a11.2 11.2 0 00-1.38-10.54 21 21 0 000-9.36l.13-.44-.18.19c0-.09 0-.18-.07-.26l-.13.44a21.17 21.17 0 00-5 7.92 11.2 11.2 0 00-6.79 8.17s-8 .55-8.9 11.79c0 0-6.21-1.16-8.64 18.19-1.48 11.85.24 26.72 1.46 37.62z"/><path class="cls-78" d="M8.75 161.51a1.52 1.52 0 00.11.28c.2 1.26.6 1.32 2.15 1.06h.22c.1 0 .57-.1.72-.15s7.9-1.95 8.91-1.58a52.26 52.26 0 00-8.51 3c-1.85.91-3.35 2-3.63 3a11.34 11.34 0 00.28 7.3c.32.79.47 1.42.94 1.78.06.08.11.17.16.23.28.36 1.75.07 3.91-.28 2.33-.35 8.07.34 8.07.34-3.31.29-8.72.82-10.5 1.85h-.07s-1.55.42-1.48 3-.65 11.95-.65 11.95-.36 1.64 2.33 1.91c1.69.17 8.48 3.45 8.48 3.45-6.37-1.28-8.88-2-9.86-1.37-.4.17-1.38.82-1.46 3.4-.11 3.25.13 7.44.13 7.44s-.18.52.47 1.1a2.35 2.35 0 00.95.57l.3.12.76.25a55.09 55.09 0 017.45 3.25c-1.07-.14-3.92-1.12-6.3-1.76-2.05-.55-3.18-.83-3.49-.46a.48.48 0 00-.07.39C8.84 213 9 218 18.09 222.67c0 0 2.19.63 1.77 2.63-.1.51-.27 1.44-.54 2.64l.54-2.64s-1.27 4.93-2.87 9.48h2.54c.65-1.85 1.43-4.16 2.36-7.07 19.27-60.42-7.41-89.37-7.41-89.37S6.18 143 8 155.78z"/><path class="cls-79" d="M69.62 235.13h30.12c.3-.11.6-.21.88-.33 1.17-2.07 6.4-7.92 8.46-9-2.3.47-10-.68-12.28-1.51-5.64 1.81-12.43 6.52-14.73 10a28.15 28.15 0 0111.84-10.93l.48-.22c-1.11-.55-2.37-1.1-3.84-1.71a30.36 30.36 0 00-5.41-1.6c-6.05 1.42-13.58 9.94-15.52 15.3z"/><path class="cls-79" d="M69.41 235.13a23.17 23.17 0 017-12.61c1.41-1.31 2.64-2.39 3.71-3.27a20.15 20.15 0 00-15.22 6.05c-3.4 3.57-4.88 6.93-4.82 9.83z"/><path class="cls-80" d="M71.45 175c0 .08.06-.17 0 0z"/><path class="cls-81" d="M26.39 217.2s-6.47 1.73-6.89.76 5.32-1.2 5.95-7.39-1.39-13.85-5.07-21.36c0 0-6.56 2.25-6.87.8 0 0 4.69-1.85 4.87-4.73 0 0-5.14-14.49-8.38-17.58 0 0-4.36 3.47-5.54 3.07 0 0 4.42-3.88 3.82-5.82-.4-1.32-4.32-5.22-8.28-7.7v77.88h24.31a38.1 38.1 0 002.08-17.93zm54.17-21.31c0 .06.06-.12 0 0zm-28.05 39.23a6.56 6.56 0 00-.39-.91c-.3-.57-.73-1.07-1.45-.9a1.7 1.7 0 00-1.13 1.21 3 3 0 00-.12.6z"/><path class="cls-81" d="M52.73 235.12h9.9a1.72 1.72 0 00-.07-2.22 2.82 2.82 0 00-1.45-.59c-.6-.13-1.21-.21-1.81-.29h-.1l.12-.14a10.51 10.51 0 013.25.7 2.14 2.14 0 002.51-.75 1.86 1.86 0 00.08-2c-.46-.72-1.47-.77-2.21-.89a7.74 7.74 0 00-1.18-.12l.33-.42a9.57 9.57 0 012.9.6 1.83 1.83 0 002.34-.52l-.06.08.06-.08c.12-.16.07-.09 0 0a2.17 2.17 0 00.21-2.26c-.39-.63-1.26-.72-1.91-.79-.33 0-.66-.05-1-.07a7 7 0 012-.2 5.16 5.16 0 002.28 0 1.72 1.72 0 001.15-1.79c-.16-1.09-1.13-1.21-2-1.19a8.79 8.79 0 00-1.15.12 6.83 6.83 0 011.2-.2c.67-.06 1.33.13 2 .12 1.75-.06 2.45-3 .3-3.17a6.25 6.25 0 00-1.88.22 5.16 5.16 0 013.11-.57 1.52 1.52 0 001.61-1.57c0-.93-.73-1.3-1.56-1.18a7.68 7.68 0 00-1.61.47 5 5 0 012.24-.77c.55 0 1.15.2 1.66 0a1.68 1.68 0 00.87-2c-.19-.65-.85-.77-1.41-.72a5.32 5.32 0 00-1.63.44l.22-.41a4.85 4.85 0 012.81-.48c.11 0 .07 0 0 0 1.55.27 1.94-2.7.05-2.49a4.4 4.4 0 00-.89.19 4.09 4.09 0 012.09-.6 1.14 1.14 0 001.1-1.58c-.25-.79-1.17-.6-1.69-.39a6.56 6.56 0 00-1 .5l.23-.46a16.71 16.71 0 011.56-.68 5 5 0 001.41-.42 1.19 1.19 0 00.49-1.51c-.3-.52-1.09-.25-1.46-.11a2.39 2.39 0 00-.28.13c.68-.43 1.38-.84 2.11-1.23.44-.21 1.43-1.09.88-1.68-.4-.42-1-.16-1.51.12v-.06a12.41 12.41 0 011.09-.82c.56-.34 1.58-1 1.27-1.8-.18-.5-.68-.36-1.16-.08.34-.37.68-.74 1-1.13.13-.16 1.06-1.55.33-1.61a.7.7 0 00-.35.05l.33-.76.08-.18a1.49 1.49 0 01.07-.24c.07-.19.33-.83.1-1.06-.41-.41-1.2 1.19-1.3 1.42l-.26.62c.06-.34-.4-.67-.77-.19a5 5 0 00-.61 1.71c-.1-.29-.25-.46-.46-.4-.71.2-.66 1.75-.63 2.36s.09.95.09 1.42a.59.59 0 00-.12.19c-.12-.71-.42-2.12-1-1.54s-.45 2-.29 2.8c.1.56.16 1.11.21 1.67a5.13 5.13 0 00-.43-1.15c-.2-.35-.48-.76-.89-.55a1.15 1.15 0 00-.47.89 7.27 7.27 0 00.56 2.6c0 .07.12.43.2.75-.1.18-.19.36-.28.54a4.46 4.46 0 00-.6-1.81c-.71-1.1-1.51-.22-1.46.69s.65 1.86.77 2.84a3.71 3.71 0 00-.64-1.21c-.24-.29-.59-.65-1-.54a1.18 1.18 0 00-.74.72 2.67 2.67 0 00.41 2.14 5 5 0 01.71 1.89l-.23.42a5.18 5.18 0 00-.67-1.73c-.26-.42-.68-.91-1.21-.79a1.25 1.25 0 00-1 1.1 3.09 3.09 0 00.2 1.58c.2.59.65 1.07.81 1.68a2.75 2.75 0 01.12.9 1.43 1.43 0 000 .25v.08a5.74 5.74 0 00-.43-1.52c-.36-.77-1.05-1.63-1.85-.91s-.51 1.9-.16 2.73a7.39 7.39 0 01.58 1.5 10.06 10.06 0 01.11 1.09 5.58 5.58 0 00-.71-1.84c-.25-.39-.6-.94-1.1-1a1.15 1.15 0 00-1 .45 2.84 2.84 0 00-.08 2.9 8.12 8.12 0 01.75 1.54 4.51 4.51 0 01.07.48 5.94 5.94 0 00-.72-1.61c-.26-.4-.58-1-1.11-1a1.13 1.13 0 00-1.08.66 3.26 3.26 0 00.09 2.9 7.29 7.29 0 01.77 1.71 3.26 3.26 0 01.07.7 7.8 7.8 0 00-1.1-1.84c-.75-.86-1.65-1.26-2.49-.13a2.7 2.7 0 000 2.83 14.4 14.4 0 011 1.46c.11.22.27.53.38.81l-.39.51a7.13 7.13 0 00-.51-1.25 4.88 4.88 0 00-1.43-1.84c-1.2-.79-2 1-2 1.91a2.89 2.89 0 00.35 1.6 11.72 11.72 0 011.14 2.23 1 1 0 010 .31l-.14.16a12.64 12.64 0 00-1-2.34c-.67-1.12-1.54-1.85-2.46-.79a3.18 3.18 0 00-.35 2.92c.22.6.6 1.16.85 1.75.05.11.23.81.36 1.26a20.62 20.62 0 00-1.7-3.27 1.3 1.3 0 00-2 0 2.76 2.76 0 00-.47 2.18 7.75 7.75 0 00.77 1.94z"/><path class="cls-74" d="M71 183.49c-.61-.47-1.39 0-2 .46v-.08a15.29 15.29 0 011.25-1.3c.65-.55 1.85-1.57 1.28-2.6-.34-.62-1-.33-1.53.13.37-.55.74-1.1 1.07-1.67.14-.24 1.07-2.24.1-2.18a1 1 0 00-.45.15l.27-1.06c0-.13.06-.2.07-.25s0-.12 0-.33.25-1.15-.09-1.4c-.62-.45-1.32 1.79-1.4 2.12l-.22.86c0-.46-.65-.79-1-.09a6.23 6.23 0 00-.44 2.35c-.21-.36-.43-.55-.7-.42-.88.41-.49 2.42-.33 3.2.13.61.32 1.22.42 1.84a.62.62 0 00-.12.27c-.3-.91-1-2.68-1.66-1.79s-.18 2.67.19 3.7a19 19 0 01.62 2.13 6.45 6.45 0 00-.79-1.4c-.33-.43-.78-.9-1.27-.53a1.44 1.44 0 00-.43 1.24c0 1.26.78 2.13 1.26 3.28 0 .1.25.53.41.94-.08.25-.17.5-.25.76a5.65 5.65 0 00-1.15-2.23c-1.16-1.29-2 0-1.76 1.2s1.23 2.28 1.59 3.53a5.09 5.09 0 00-1.08-1.44c-.38-.33-.9-.72-1.4-.5a1.55 1.55 0 00-.81 1.1 3.53 3.53 0 001 2.7 6.55 6.55 0 011.35 2.31l-.21.59a6.7 6.7 0 00-1.23-2.1c-.43-.5-1.08-1.06-1.75-.79a1.67 1.67 0 00-1 1.63 4.14 4.14 0 00.59 2c.39.72 1.07 1.26 1.4 2a3.38 3.38 0 01.34 1.15 2.09 2.09 0 000 .33v.11a7.51 7.51 0 00-.88-1.88c-.62-.94-1.7-1.91-2.59-.82s-.29 2.59.34 3.6a9.4 9.4 0 01.99 1.88 10.94 10.94 0 01.37 1.39 7.37 7.37 0 00-1.31-2.25c-.4-.46-1-1.11-1.64-1.13a1.48 1.48 0 00-1.24.8 3.74 3.74 0 00.49 3.8 10.73 10.73 0 011.3 1.84c0 .06.11.32.2.61a8.15 8.15 0 00-1.28-1.94c-.42-.48-.95-1.16-1.66-1.14a1.54 1.54 0 00-1.23 1.11 4.33 4.33 0 00.72 3.76 9.8 9.8 0 011.28 2.08 4.15 4.15 0 01.23.89 10.76 10.76 0 00-1.81-2.18c-1.15-1-2.41-1.29-3.27.35a3.56 3.56 0 00.63 3.68 20 20 0 011.6 1.71c.18.26.46.62.66 1l-.41.74a9.4 9.4 0 00-.91-1.52 6.58 6.58 0 00-2.25-2.11c-1.73-.77-2.39 1.75-2.25 2.92a3.77 3.77 0 00.79 2 15.5 15.5 0 011.99 2.65 1.17 1.17 0 01.09.39l-.15.24a17.52 17.52 0 00-1.75-2.88c-1.11-1.33-2.39-2.1-3.37-.53a4.17 4.17 0 00.14 3.88c.42.74 1 1.39 1.47 2.11.09.13.47 1 .73 1.56l-.24.34a9.36 9.36 0 00-2.65-4.14 1.73 1.73 0 00-2.59.36 3.68 3.68 0 00-.16 2.93 19.86 19.86 0 001.7 3 9.2 9.2 0 01.61 1.61c0 .11 0 .24.05.37l-.27.33a10.19 10.19 0 00-1.7-3.92c-.51-.69-1.17-1.25-2.08-.87a2.26 2.26 0 00-1.22 1.8 5.37 5.37 0 00.14 2.22 4.88 4.88 0 00.49 1.12h13.41a2.62 2.62 0 00.37-2.48c-.42-1.19-1.63-1.41-2.75-1.49a22 22 0 00-2.29-.08h-.29c.06-.1.13-.19.2-.29a25.66 25.66 0 014.68.5 3 3 0 003.14-1.23c-.14.2-.25.36 0 0s.16-.25 0 0a2.3 2.3 0 00-.51-3 3.58 3.58 0 00-2-.46h-2.55l.13-.21a14 14 0 014.37.24 2.81 2.81 0 003.12-1.5 2.45 2.45 0 00-.3-2.58c-.74-.85-2.07-.7-3.06-.71a10.13 10.13 0 00-1.56.09l.34-.61a12.41 12.41 0 013.89.15 2.42 2.42 0 002.94-1.17c.12-.22.07-.13 0 0a2.84 2.84 0 00-.2-3c-.64-.75-1.79-.69-2.65-.65-.44 0-.87.08-1.3.12a9.78 9.78 0 012.56-.68c1-.11 2.14.09 3-.45a2.3 2.3 0 001.15-2.68c-.45-1.39-1.73-1.34-2.9-1.14a12.42 12.42 0 00-1.48.4 9.16 9.16 0 011.53-.51c.87-.21 1.76-.1 2.64-.26.28-.05.1 0 0 0 2.26-.44 2.56-4.46-.27-4.19a8 8 0 00-2.4.68 6.83 6.83 0 013.93-1.39 2 2 0 001.78-2.38c-.18-1.21-1.22-1.54-2.27-1.21a8.83 8.83 0 00-2 1 6.55 6.55 0 012.77-1.46c.71-.15 1.53 0 2.15-.36a2.21 2.21 0 00.72-2.81 1.6 1.6 0 00-2-.66 7 7 0 00-2 .92c.06-.19.14-.38.2-.58a6.43 6.43 0 013.52-1.23c2.07 0 2-3.92-.46-3.26a6.35 6.35 0 00-1.12.44 5.36 5.36 0 012.61-1.21c.06 0 .05 0 0 0a1.5 1.5 0 001.11-2.19c-.48-1-1.64-.54-2.28-.16a9.17 9.17 0 00-1.19.85c.07-.21.14-.42.2-.64a21.85 21.85 0 011.9-1.21 7.23 7.23 0 001.75-.83 1.57 1.57 0 00.32-2.07c-.5-.62-1.46-.11-1.92.15a4 4 0 00-.34.23c.8-.71 1.63-1.39 2.5-2 .06 0 .25-.18 0 0 .6-.43 1.71-1.78.92-2.43z"/><path class="cls-82" d="M60.92 220.16a.9.9 0 00-.05.09z"/><path class="cls-76" d="M302.48 235.14c-6.67-8.33-12.22-19-16.91-29-8.3-17.66-.92-20-.92-20-5.23-10 1.21-14.71 1.21-14.71a11.23 11.23 0 011.38-10.54 21.1 21.1 0 010-9.36l-.12-.44.18.19a1.38 1.38 0 00.06-.26l.13.44a21.17 21.17 0 015 7.92 11.21 11.21 0 016.8 8.17s8 .55 8.9 11.79c0 0 6.2-1.16 8.63 18.19 1.49 11.85-.23 26.72-1.45 37.62z"/><path class="cls-78" d="M327.24 161.51a1.52 1.52 0 01-.11.28c-.2 1.26-.61 1.32-2.15 1.06h-.22c-.1 0-.58-.1-.73-.15s-7.9-1.95-8.9-1.58a52 52 0 018.5 3c1.84.91 3.34 2 3.63 3a11.48 11.48 0 01-.24 7.25 4.06 4.06 0 01-1 1.78 2.3 2.3 0 01-.15.23c-.29.36-1.75.07-3.91-.28-2.33-.35-8.07.34-8.07.34 3.31.29 8.71.82 10.49 1.85h.07s1.55.42 1.49 3 .64 11.95.64 11.95.36 1.64-2.32 1.91c-1.7.17-8.48 3.45-8.48 3.45 6.37-1.28 8.88-2 9.85-1.37.4.17 1.38.82 1.47 3.4.11 3.25-.13 7.44-.13 7.44s.18.52-.47 1.1a2.33 2.33 0 01-1 .57l-.29.12-.76.25a54.8 54.8 0 00-7.46 3.25c1.08-.14 3.92-1.12 6.31-1.76 2-.55 3.18-.83 3.48-.46a.52.52 0 01.07.39c.17 1.43 0 6.47-9.07 11.14 0 0-2.19.63-1.78 2.63.11.51.28 1.44.54 2.64l-.54-2.64s1.28 4.93 2.87 9.48h-2.53c-.66-1.85-1.44-4.16-2.37-7.07-19.27-60.42 7.42-89.37 7.42-89.37s8.3 4.61 6.47 17.44z"/><path class="cls-79" d="M266.36 235.13h-30.12c-.29-.11-.59-.21-.87-.33-1.18-2.07-6.4-7.92-8.46-9 2.29.47 10.05-.68 12.28-1.51 5.64 1.81 12.42 6.52 14.72 10a28.09 28.09 0 00-11.83-10.93l-.48-.22c1.11-.55 2.37-1.1 3.84-1.71a30.36 30.36 0 015.41-1.6c6.05 1.42 13.58 9.94 15.51 15.3z"/><path class="cls-79" d="M266.58 235.13a23.14 23.14 0 00-7-12.61c-1.4-1.31-2.63-2.39-3.7-3.27a20.16 20.16 0 0115.23 6.05c3.39 3.57 4.88 6.93 4.82 9.83z"/><path class="cls-80" d="M264.53 175c0 .08 0-.17 0 0z"/><path class="cls-81" d="M309.59 217.2s6.48 1.73 6.9.76-5.32-1.2-5.95-7.39 1.39-13.85 5.07-21.36c0 0 6.56 2.25 6.87.8 0 0-4.69-1.85-4.87-4.73 0 0 5.13-14.49 8.37-17.58 0 0 4.37 3.47 5.55 3.07 0 0-4.42-3.88-3.82-5.82.4-1.32 4.32-5.22 8.28-7.7v77.88h-24.31a38.08 38.08 0 01-2.09-17.93zm-36.26 17.92c-.12-.12-.08-.12 0 0zm-17.9-39.23c0 .06-.06-.12 0 0zm28.05 39.23a8 8 0 01.38-.91c.31-.57.74-1.07 1.46-.9a1.74 1.74 0 011.13 1.21 4 4 0 01.12.6z"/><path class="cls-81" d="M283.26 235.12h-9.9a1.72 1.72 0 01.06-2.22 2.89 2.89 0 011.46-.59c.6-.13 1.2-.21 1.81-.29h.1l-.12-.14a10.51 10.51 0 00-3.25.7 2.14 2.14 0 01-2.51-.75 1.86 1.86 0 01-.08-2c.45-.72 1.46-.77 2.2-.89a8 8 0 011.19-.12l-.34-.42a9.57 9.57 0 00-2.88.6 1.82 1.82 0 01-2.33-.52l.06.08-.07-.08c-.11-.16-.06-.09 0 0a2.19 2.19 0 01-.21-2.26 2.44 2.44 0 011.91-.79c.33 0 .66-.05 1-.07a7 7 0 00-2-.2 5.16 5.16 0 01-2.28 0 1.74 1.74 0 01-1.16-1.79c.17-1.09 1.14-1.21 2-1.19a8.79 8.79 0 011.15.12 6.83 6.83 0 00-1.2-.2c-.68-.06-1.34.13-2 .12-1.74-.06-2.44-3-.29-3.17a6.18 6.18 0 011.87.22 5.11 5.11 0 00-3.1-.57 1.51 1.51 0 01-1.61-1.57c0-.93.73-1.3 1.55-1.18a8 8 0 011.62.47 5.08 5.08 0 00-2.25-.77c-.55 0-1.14.2-1.65 0a1.66 1.66 0 01-.87-2c.19-.65.84-.77 1.41-.72a5.4 5.4 0 011.63.44c-.08-.13-.15-.27-.23-.41a4.81 4.81 0 00-2.8-.48c-.11 0-.07 0 0 0-1.54.27-1.94-2.7 0-2.49a4.55 4.55 0 01.89.19 4.12 4.12 0 00-2.1-.6 1.15 1.15 0 01-1.1-1.51c.25-.79 1.17-.6 1.69-.39a5.74 5.74 0 011 .5c-.07-.15-.15-.3-.22-.46a16.71 16.71 0 00-1.56-.68 4.92 4.92 0 01-1.41-.42 1.19 1.19 0 01-.49-1.51c.3-.52 1.08-.25 1.45-.11a2.55 2.55 0 01.29.13c-.69-.43-1.39-.84-2.12-1.23 0 0-.21-.1 0 0-.44-.21-1.43-1.09-.88-1.68.4-.42 1-.16 1.51.12v-.06a11.22 11.22 0 00-1.1-.82c-.55-.34-1.57-1-1.27-1.8.19-.5.69-.36 1.16-.08-.33-.37-.67-.74-1-1.13-.13-.16-1.06-1.55-.33-1.61a.7.7 0 01.35.05l-.33-.76a1.73 1.73 0 01-.08-.18s0-.09-.08-.24-.32-.83-.1-1.06c.42-.41 1.2 1.19 1.31 1.42l.26.62c-.06-.34.39-.67.76-.19a4.65 4.65 0 01.61 1.71c.11-.29.26-.46.47-.4.71.2.66 1.75.63 2.36s-.09.95-.09 1.42a.59.59 0 01.12.19c.11-.71.42-2.12 1-1.54s.46 2 .3 2.8a13.61 13.61 0 00-.21 1.67 4.69 4.69 0 01.43-1.15c.19-.35.47-.76.89-.55a1.11 1.11 0 01.46.89 7.05 7.05 0 01-.55 2.6c0 .07-.13.43-.2.75l.28.54a4.31 4.31 0 01.6-1.81c.71-1.1 1.51-.22 1.46.69s-.65 1.86-.77 2.84a3.68 3.68 0 01.63-1.21c.25-.29.59-.65 1-.54a1.2 1.2 0 01.74.72 2.67 2.67 0 01-.41 2.14 5 5 0 00-.72 1.89l.24.42a5 5 0 01.66-1.73c.27-.42.69-.91 1.22-.79a1.26 1.26 0 011 1.1 3.21 3.21 0 01-.2 1.58c-.21.59-.65 1.07-.81 1.68a2.51 2.51 0 00-.12.9v.33a5.74 5.74 0 01.43-1.52c.35-.77 1-1.63 1.84-.91s.52 1.9.17 2.73a7.39 7.39 0 00-.58 1.5 8.05 8.05 0 00-.11 1.09 5.58 5.58 0 01.71-1.84c.25-.39.6-.94 1.09-1a1.16 1.16 0 011 .45 2.84 2.84 0 01.08 2.9 8.12 8.12 0 00-.75 1.54 3.7 3.7 0 00-.08.48 6.62 6.62 0 01.72-1.61c.26-.4.58-1 1.12-1a1.13 1.13 0 011.08.66 3.29 3.29 0 01-.09 2.9 7.76 7.76 0 00-.78 1.71 4 4 0 00-.06.7 7.8 7.8 0 011.1-1.84c.75-.86 1.65-1.26 2.48-.13a2.7 2.7 0 010 2.83 14.4 14.4 0 00-1 1.46c-.11.22-.27.53-.38.81l.39.51a6.44 6.44 0 01.51-1.25 4.88 4.88 0 011.43-1.84c1.2-.79 2 1 2 1.91a2.9 2.9 0 01-.36 1.6 11.68 11.68 0 00-1.13 2.23 1 1 0 000 .31l.14.16a12.64 12.64 0 011-2.34c.67-1.12 1.54-1.85 2.45-.79a3.15 3.15 0 01.36 2.92c-.23.6-.6 1.16-.85 1.75-.05.11-.23.81-.36 1.26a21.19 21.19 0 011.71-3.19 1.31 1.31 0 012 0 2.84 2.84 0 01.47 2.18 8.15 8.15 0 01-.8 1.79z"/><path class="cls-74" d="M265 183.49c.61-.47 1.38 0 1.94.46a.25.25 0 000-.08 15.29 15.29 0 00-1.25-1.3c-.65-.55-1.85-1.57-1.29-2.6.35-.62 1-.33 1.53.13-.36-.55-.73-1.1-1.06-1.67-.14-.24-1.07-2.24-.1-2.18a1 1 0 01.45.15c-.09-.35-.19-.7-.28-1.06a1.78 1.78 0 00-.07-.25v-.33c0-.21-.26-1.15.09-1.4.62-.45 1.31 1.79 1.4 2.12l.22.86c0-.46.64-.79 1-.09a6.44 6.44 0 01.44 2.35c.2-.36.43-.55.69-.42.89.41.5 2.42.34 3.2-.13.61-.32 1.22-.42 1.84a.77.77 0 01.12.27c.3-.91 1-2.68 1.66-1.79s.17 2.67-.2 3.7a21.29 21.29 0 00-.61 2.13 6.45 6.45 0 01.79-1.4c.33-.43.78-.9 1.27-.53a1.47 1.47 0 01.43 1.24c-.05 1.26-.79 2.13-1.27 3.28 0 .1-.24.53-.41.94.09.25.17.5.26.76a5.65 5.65 0 011.15-2.23c1.16-1.29 2 0 1.76 1.2s-1.23 2.28-1.59 3.53a4.91 4.91 0 011.08-1.44c.38-.33.9-.72 1.39-.5a1.53 1.53 0 01.81 1.1 3.49 3.49 0 01-1 2.7 6.6 6.6 0 00-1.32 2.31c.07.2.15.4.22.59a6.51 6.51 0 011.23-2.1c.43-.5 1.07-1.06 1.74-.79a1.67 1.67 0 011 1.63 4.25 4.25 0 01-.59 2c-.39.72-1.07 1.26-1.41 2a3.62 3.62 0 00-.34 1.15v.44a7.18 7.18 0 01.88-1.88c.62-.94 1.7-1.91 2.59-.82s.28 2.59-.35 3.6a9.35 9.35 0 00-1.06 1.84 9.49 9.49 0 00-.37 1.39 7.35 7.35 0 011.3-2.25c.41-.46 1-1.11 1.64-1.13a1.47 1.47 0 011.24.8 3.74 3.74 0 01-.49 3.8 11.26 11.26 0 00-1.29 1.84 5.27 5.27 0 00-.2.61 8.11 8.11 0 011.27-1.94c.42-.48 1-1.16 1.67-1.14a1.51 1.51 0 011.27 1.09 4.33 4.33 0 01-.71 3.76 10.25 10.25 0 00-1.37 2.08 4.83 4.83 0 00-.23.89 10.81 10.81 0 011.82-2.18c1.15-1 2.41-1.29 3.26.35a3.54 3.54 0 01-.63 3.68 18.39 18.39 0 00-1.59 1.71 10.81 10.81 0 00-.66 1l.4.74a9.46 9.46 0 01.92-1.52 6.49 6.49 0 012.25-2.11c1.73-.77 2.38 1.75 2.24 2.92a3.75 3.75 0 01-.78 2 15.5 15.5 0 00-1.94 2.68 1.48 1.48 0 00-.1.39l.15.24a17.61 17.61 0 011.87-2.85c1.11-1.33 2.39-2.1 3.37-.53a4.2 4.2 0 01-.14 3.88c-.42.74-1 1.39-1.48 2.11-.08.13-.46 1-.72 1.56a4.15 4.15 0 00.24.34 9.27 9.27 0 012.65-4.14 1.73 1.73 0 012.59.36 3.72 3.72 0 01.16 2.93 20.78 20.78 0 01-1.7 3 7.84 7.84 0 00-.61 1.61 3.69 3.69 0 00-.05.37l.26.33a10.5 10.5 0 011.7-3.92c.52-.69 1.18-1.25 2.08-.87a2.25 2.25 0 011.23 1.8 5.37 5.37 0 01-.15 2.22 4.85 4.85 0 01-.48 1.12h-13.41a2.65 2.65 0 01-.38-2.48c.43-1.19 1.64-1.41 2.76-1.49a21.91 21.91 0 012.29-.08h.29c-.07-.1-.14-.19-.2-.29a25.57 25.57 0 00-4.68.5 3 3 0 01-3.14-1.23c.14.2.24.36 0 0s-.17-.25 0 0a2.29 2.29 0 01.5-3 3.62 3.62 0 012-.46h2.56a2.39 2.39 0 01-.13-.21 14.07 14.07 0 00-4.38.24 2.8 2.8 0 01-3.11-1.5 2.43 2.43 0 01.3-2.58c.74-.85 2.07-.7 3.05-.71a10.26 10.26 0 011.57.09l-.34-.61a12.4 12.4 0 00-3.89.15 2.41 2.41 0 01-2.94-1.17c-.12-.22-.07-.13 0 0a2.86 2.86 0 01.19-3c.65-.75 1.8-.69 2.66-.65l1.3.12a9.75 9.75 0 00-2.57-.68c-1-.11-2.13.09-3-.45a2.29 2.29 0 01-1.13-2.57c.44-1.39 1.73-1.34 2.9-1.14a11.77 11.77 0 011.47.4 9 9 0 00-1.52-.51c-.87-.21-1.77-.1-2.64-.26-.27-.05-.09 0 0 0-2.27-.44-2.56-4.46.26-4.19a8 8 0 012.41.68 6.83 6.83 0 00-3.93-1.39 2 2 0 01-1.78-2.38c.18-1.21 1.22-1.54 2.27-1.21a8.83 8.83 0 012 1 6.61 6.61 0 00-2.77-1.46c-.71-.15-1.53 0-2.15-.36a2.21 2.21 0 01-.72-2.81 1.58 1.58 0 012-.66 7.1 7.1 0 012 .92l-.21-.58a6.39 6.39 0 00-3.55-1.21c-2.08 0-2-3.92.46-3.26a6.57 6.57 0 011.11.44 5.36 5.36 0 00-2.61-1.21c-.05 0 0 0 0 0a1.51 1.51 0 01-1.12-2.19c.49-1 1.65-.54 2.29-.16a9.06 9.06 0 011.18.85c-.06-.21-.13-.42-.2-.64a20.27 20.27 0 00-1.89-1.21 7.06 7.06 0 01-1.75-.83 1.57 1.57 0 01-.33-2.07c.5-.62 1.47-.11 1.93.15.12.06.22.16.34.23-.8-.71-1.63-1.39-2.51-2-.05 0-.25-.18 0 0-.55-.56-1.66-1.91-.86-2.56z"/><path class="cls-82" d="M275.07 220.16l.05.09z"/><path d="M336 67.87L242.86 69s9.68-6.85 38.7-6.85c0 0 8.12-5.33 13.2-.55 0 0 7.57-7.2 14.58-.67 0 0 4.49-8 13.93-3.64 0 0 2.62-7.56 10.56-7.15a12.93 12.93 0 012.16.32z" fill="#f6f8f9"/><path d="M125 102.29l124.46.78s-30.07-3.56-35.2-2.86c0 0-6.23-1.33-9.1-.16 0 0-5.85-2.08-11.27-.19 0 0-3.47-2.32-10.76-1.06a20.32 20.32 0 00-9.87-2.06c-6.14.12-9 2.41-9 2.41s-5.34-1.51-8.32.93c0 0-5.93-1.79-8.65.75a11.23 11.23 0 00-5.64.35zM2.42 83.4l92.26-.4s-6.57-3.59-18.54-3.59c0 0-3.66-3.17-7.33-.39 0 0-4.38-4.11-9.08-.49a7.73 7.73 0 00-8.65-2 8.56 8.56 0 00-7.53-3.75c-6.71 0-7.68 4.13-7.68 4.13s-4.11-2.77-7.41.51c0 0-4.59-.89-6.33 2.23z" opacity=".5" fill="#fff"/><path class="cls-49" d="M101.21 111l-.16 19.27a48.22 48.22 0 01-9.33-.23c1.96-5.34 6.88-13.92 9.49-19.04z"/><path class="cls-77" d="M108.84 135.14H95.7a9.19 9.19 0 01-2-.35 4.29 4.29 0 01-.5-.19c-.34-.14-1.85-1.05-1.85-1.05h18.11z"/><path class="cls-74" d="M108.42 133.55l-14.27-.02 1.1-.68 12.89.01.28.69z"/><path class="cls-74" d="M101.29 132.86l.17-23.2s-.07-.07-.17-.07-.16 0-.16.07l-.18 23.2z"/><path d="M101 130.32l.14-19.1c0 .08-5.45 19.18-5.45 19.18a48.64 48.64 0 005.31-.08z" style="mix-blend-mode:multiply" fill="#c1cac7" opacity=".2"/><path class="cls-81" d="M179.09 148.06h-20L158 148a14.65 14.65 0 01-3.23-.55c-.27-.09-.55-.19-.82-.31-.53-.22-3-1.69-3-1.69.22.05 28.83.07 29.11.07z"/><path class="cls-74" d="M178.42 145.51l-22.94-.03 1.76-1.09 20.73.01.45 1.11zM167 144.39l.28-37.29c0-.06-.12-.11-.27-.11s-.27.05-.27.11l-.28 37.29z"/><path class="cls-49" d="M166.44 140.31l.23-30.7c-.07.14-8.77 30.83-8.77 30.83a75.63 75.63 0 008.54-.13zm.56 0l.12-30.7c.07.14 8.77 30.83 8.77 30.83a82.2 82.2 0 01-8.89-.13z"/><path class="cls-76" d="M14.73 0C49.54 26.12 75 17.35 79.7 13.3c3.64-3.13 4-8.62-.63-13.29zM.38 0s29.39 16.24 40.21 32.67c10.58 16 4.52 26.06-3.29 25.48C31 57.68 5.86 45.4.38 0z"/><path class="cls-81" d="M32.14 42.18l1.17 7.37-.37-6.38c2.25 2.78 4.51 5.55 6.82 8.29-2.18-3-4.4-6-6.64-8.94l6.37 1.92-7.15-3-1-1.32-5.1-6.62 9.22 2.52-9.85-3.34L22.76 29l-3.85-4.85 11.38 3.1-12.19-4.12L14 18c-.37-.46-.74-.91-1.1-1.37l7.52 1.87-8.08-2.55C10 13 7.56 10 5.1 7.1c2.19 3 4.44 6 6.69 9l.09.18.62 8.72-.06-8 1.07 1.42 4 5.25 1.19 13-.37-11.9 3.72 4.84 3.06 3.85.94 10.29-.3-9.47 5 6.36c.52.46.95 1 1.39 1.54z"/><path class="cls-74" d="M.32 70.86c5.36-.51 11.16-6.59 12.17-20.21C14 31 .56.26.56.26L.32.69z"/><path d="M.32 63.9v1.13c.12-3.71.17-7.42.2-11.13l3.87 5.41-3.81-6.72v-10l5.77 7.62L.6 41.56v-4.68l-.08-6.2 7.11 9.4L.5 29.37l-.09-6.56v-1.76l4.82 6.07-4.88-6.95v-1z" fill="#8678b5"/><path class="cls-78" d="M.22 0v2.27c16.83 27.86 58.22 30.34 58.22 30.34l12.73.78h.1-.09l-8.85-9.19S43.84 4.9 19.92 0z"/><path class="cls-81" d="M65.69 5.2l5.86-3.14L64.4 5l-1.63-.23-8.29-1.05L61 0h-.28l-7.26 3.58L48.82 3l-6.16-.71L46.6 0h-1l-4.24 2.12-6.52-.76-1.75-.18L35 0h-.75l-2.04 1.09C28.57.7 24.93.33 21.27 0h-.17c3.61.58 7.22 1.1 10.84 1.61h.18l6.59 5.71L33 1.76l1.76.24 6.57.86 10 8.32L42.66 3l6.05.78 4.89.57L61.54 11l-6.91-6.49 8.06.93 2.06.22 6 4.38L66 5.79c3.56.38 7.12.74 10.68 1C73 6.24 69.37 5.72 65.69 5.2z"/><g class="cls-75"><g mask="url(#mask-29)"><path d="M98.16 121.5a20.89 20.89 0 0127.56-10.92 21.15 21.15 0 0110.84 27.77A20.88 20.88 0 01109 149.27a21.16 21.16 0 01-10.84-27.77z" fill="url(#Névtelen_színátmenet_26)" opacity=".6"/></g><g mask="url(#mask-30)"><path d="M197.77 105.55a32.86 32.86 0 0143.36-17.18 33.29 33.29 0 0117.06 43.68 32.86 32.86 0 01-43.36 17.19 33.3 33.3 0 01-17.06-43.69z" fill="url(#Névtelen_színátmenet_26-2)" opacity=".3"/></g><g mask="url(#mask-31)"><path d="M251.27 71.18a27.67 27.67 0 0136.52-14.47 28 28 0 0114.36 36.79 27.67 27.67 0 01-36.51 14.5 28 28 0 01-14.37-36.82z" fill="url(#Névtelen_színátmenet_31)" opacity=".6"/></g><g mask="url(#mask-32)"><path d="M233.43 132.28a14.91 14.91 0 0119.68-7.8 15.11 15.11 0 017.75 19.83 14.91 14.91 0 01-19.68 7.8 15.11 15.11 0 01-7.75-19.83z" fill="url(#Névtelen_színátmenet_26-3)" opacity=".6"/></g><g mask="url(#mask-33)"><path d="M275.12 141.58a20.88 20.88 0 0127.56-10.92 21.15 21.15 0 0110.84 27.77A20.88 20.88 0 01286 169.35a21.16 21.16 0 01-10.88-27.77z" fill="url(#Névtelen_színátmenet_31-2)" opacity=".6"/></g><g mask="url(#mask-34)"><path d="M79.29 58a28.4 28.4 0 0137.47-14.85 28.76 28.76 0 0114.74 37.72A28.38 28.38 0 0194 95.72 28.76 28.76 0 0179.29 58z" opacity=".8" fill="url(#Névtelen_színátmenet_26-4)"/></g><g mask="url(#mask-35)"><path d="M187 29.49a20.88 20.88 0 0127.56-10.92 21.17 21.17 0 0110.85 27.77 20.9 20.9 0 01-27.57 10.92A21.16 21.16 0 01187 29.49z" fill="url(#Névtelen_színátmenet_26-5)" opacity=".3"/></g><g mask="url(#mask-36)"><path d="M213.6 158.17a20.88 20.88 0 0127.56-10.93A21.15 21.15 0 01252 175a20.87 20.87 0 01-27.56 10.92 21.15 21.15 0 01-10.84-27.75z" fill="url(#Névtelen_színátmenet_26-6)" opacity=".3"/></g><g mask="url(#mask-37)"><path d="M249.56 180.62a29.49 29.49 0 0138.92-15.42 29.87 29.87 0 0115.31 39.21 29.5 29.5 0 01-38.92 15.43 29.89 29.89 0 01-15.31-39.22z" fill="url(#Névtelen_színátmenet_26-7)" opacity=".2"/></g><g mask="url(#mask-38)"><path d="M270.7 42.07a20.88 20.88 0 0127.56-10.93 21.16 21.16 0 0110.84 27.77 20.88 20.88 0 01-27.56 10.93 21.16 21.16 0 01-10.84-27.77z" fill="url(#Névtelen_színátmenet_26-8)" opacity=".6"/></g><g mask="url(#mask-39)"><path d="M187 155.15a20.88 20.88 0 0127.56-10.92A21.16 21.16 0 01225.43 172a20.89 20.89 0 01-27.57 10.93A21.16 21.16 0 01187 155.15z" fill="url(#Névtelen_színátmenet_26-9)" opacity=".2"/></g><g mask="url(#mask-40)"><path d="M68.44 148.21A20.9 20.9 0 0196 137.29a21.16 21.16 0 0110.84 27.77A20.89 20.89 0 0179.29 176a21.17 21.17 0 01-10.85-27.79z" fill="url(#Névtelen_színátmenet_26-10)" opacity=".2"/></g><g mask="url(#mask-41)"><path d="M36.06 181a27 27 0 0135.68-14.14 27.39 27.39 0 0114 35.95A27 27 0 0150.1 217a27.4 27.4 0 01-14.04-36z" fill="url(#Névtelen_színátmenet_31-3)" opacity=".6"/></g><g mask="url(#mask-42)"><path d="M42 106.53a29 29 0 0138.3-15.18A29.41 29.41 0 0195.37 130a29 29 0 01-38.32 15.19A29.42 29.42 0 0142 106.53z" fill="url(#Névtelen_színátmenet_26-11)" opacity=".3"/></g><g mask="url(#mask-43)"><path d="M39.31 36a20.89 20.89 0 0127.56-11 21.15 21.15 0 0110.84 27.81 20.88 20.88 0 01-27.56 10.92A21.16 21.16 0 0139.31 36z" fill="url(#Névtelen_színátmenet_26-12)" opacity=".2"/></g><g mask="url(#mask-44)"><path d="M291.64 78.29a20.9 20.9 0 0127.57-10.93 21.17 21.17 0 0110.84 27.77 20.88 20.88 0 01-27.56 10.93 21.17 21.17 0 01-10.85-27.77z" fill="url(#Névtelen_színátmenet_26-13)" opacity=".6"/></g></g></g></g></svg>