<svg xmlns="http://www.w3.org/2000/svg" xmlns:xlink="http://www.w3.org/1999/xlink" viewBox="0 0 336.52 235.47"><defs><radialGradient id="Névtelen_színátmenet_26" cx="245.43" cy="-28.18" r="22.94" gradientTransform="matrix(-1 .06 -.06 -1.01 343.59 48.6)" gradientUnits="userSpaceOnUse"><stop offset=".74" stop-color="#fff" stop-opacity=".8"/><stop offset=".95" stop-color="#fff" stop-opacity="0"/></radialGradient><radialGradient id="Névtelen_színátmenet_26-2" cx="174.09" cy="1.2" r="36.09" xlink:href="#Névtelen_színátmenet_26"/><radialGradient id="Névtelen_színátmenet_26-3" cx="121.8" cy="-76.01" r="22.94" xlink:href="#Névtelen_színátmenet_26"/><radialGradient id="Névtelen_színátmenet_26-4" cx="93.59" cy="-116.78" r="32.4" xlink:href="#Névtelen_színátmenet_26"/><radialGradient id="Névtelen_színátmenet_26-5" cx="150.64" cy="-70.89" r="22.94" xlink:href="#Névtelen_színátmenet_26"/><radialGradient id="Névtelen_színátmenet_26-6" cx="279.76" cy="-55.07" r="22.94" xlink:href="#Névtelen_színátmenet_26"/><radialGradient id="Névtelen_színátmenet_346" cx="311.41" cy="-91.48" r="29.7" gradientTransform="matrix(-1 .06 -.06 -1.01 343.59 48.6)" gradientUnits="userSpaceOnUse"><stop offset=".6" stop-color="#fff" stop-opacity=".3"/><stop offset=".95" stop-color="#fff" stop-opacity="0"/></radialGradient><radialGradient id="Névtelen_színátmenet_26-7" cx="297.83" cy="-12.1" r="31.9" xlink:href="#Névtelen_színátmenet_26"/><radialGradient id="Névtelen_színátmenet_26-8" cx="30.96" cy="5.19" r="22.94" xlink:href="#Névtelen_színátmenet_26"/><linearGradient id="Névtelen_színátmenet_81" x1="168.39" y1="129.6" x2="168.39" gradientUnits="userSpaceOnUse"><stop offset="0" stop-color="#fcf6c3"/><stop offset=".03" stop-color="#fbf4b7"/><stop offset=".08" stop-color="#f9f2a4"/><stop offset=".14" stop-color="#f8f099"/><stop offset=".19" stop-color="#f8f095"/><stop offset="1" stop-color="#ee7661"/></linearGradient><linearGradient id="linear-gradient" x1="-253.16" y1="23.44" x2="907.48" y2="23.44" gradientTransform="rotate(180 167.96 60.96)" gradientUnits="userSpaceOnUse"><stop offset=".1" stop-color="#fff" stop-opacity="0"/><stop offset=".2" stop-color="#fff" stop-opacity=".17"/><stop offset=".39" stop-color="#fff" stop-opacity=".46"/><stop offset=".55" stop-color="#fff" stop-opacity=".69"/><stop offset=".69" stop-color="#fff" stop-opacity=".86"/><stop offset=".8" stop-color="#fff" stop-opacity=".96"/><stop offset=".87" stop-color="#fff"/></linearGradient><linearGradient id="linear-gradient-2" x1="-253.16" y1="98.49" x2="907.48" y2="98.49" xlink:href="#linear-gradient"/><linearGradient id="linear-gradient-3" x1="-252.5" y1="23.26" x2="908.14" y2="23.26" gradientTransform="translate(-.51 51.42)" xlink:href="#linear-gradient"/><linearGradient id="linear-gradient-4" x1="-595.64" y1="74.62" x2="815.23" y2="74.62" xlink:href="#linear-gradient"/><linearGradient id="linear-gradient-5" x1="-531.17" y1="48" x2="745.71" y2="48" gradientTransform="translate(-7.11 38.27)" xlink:href="#linear-gradient"/><linearGradient id="linear-gradient-6" x1="-531.17" y1="-3.33" x2="745.71" y2="-3.33" gradientTransform="translate(-7.11 38.27)" xlink:href="#linear-gradient"/><linearGradient id="Névtelen_színátmenet_80" x1="168.42" y1="177.46" x2="168.42" y2="129.83" gradientUnits="userSpaceOnUse"><stop offset="0" stop-color="#ee7661"/><stop offset=".15" stop-color="#ef7d64"/><stop offset=".35" stop-color="#f08f6c"/><stop offset=".6" stop-color="#f3ae79"/><stop offset=".86" stop-color="#f6d78b"/><stop offset="1" stop-color="#f8f095"/></linearGradient><linearGradient id="Névtelen_színátmenet_680" x1=".43" y1="182.02" x2="336.42" y2="182.02" gradientUnits="userSpaceOnUse"><stop offset="0" stop-color="#8b6267"/><stop offset="1" stop-color="#b87a65"/></linearGradient><style>.cls-43{fill:#fff}.cls-14{fill:#eaebef}.cls-19{fill:#59163f}.cls-20{fill:#3d1539}.cls-21{fill:#c6c8cb}.cls-24{fill:#665265}.cls-25{fill:#b87a65}.cls-26{fill:#4c254c}.cls-48{fill:#5f4267}.cls-49{fill:#8b6267}</style></defs><g style="isolation:isolate"><g id="Layer"><path fill="url(#Névtelen_színátmenet_81)" d="M.43 0h335.92v129.6H.43z"/><path d="M330.39 122a2.59 2.59 0 00-1-1.17 2.46 2.46 0 00-2.48-.15 5.4 5.4 0 00-2.26-3.27 5.19 5.19 0 00-7.28 1.59 2.87 2.87 0 00-3.92 1l-.05.09a2.29 2.29 0 00-2.19-.8 4.65 4.65 0 00-2.05-4.06 4.45 4.45 0 00-6.24 1.37 4.72 4.72 0 00-.65 1.7 3 3 0 00-3.62.71 6.75 6.75 0 00-2.92-4.52 6.51 6.51 0 00-8.84 1.56 4.45 4.45 0 00-6.24 1.37 4.58 4.58 0 00-.69 2 6.64 6.64 0 00-11.49.46 6.36 6.36 0 00-7.68.71 4.67 4.67 0 00-1.58.15 3.86 3.86 0 00-1.32-.23 4 4 0 00-1.38.25 4.66 4.66 0 00-4-2.34h-.12a5.28 5.28 0 00-1.06-.93 5.14 5.14 0 00-4.4-.63 7.07 7.07 0 00-9.1 1.51 4.65 4.65 0 00-2-3.08 4.45 4.45 0 00-6.24 1.37 4.72 4.72 0 00-.65 1.7 3 3 0 00-3.62.71 6.79 6.79 0 00-2.92-4.52 6.51 6.51 0 00-8.84 1.56 4.45 4.45 0 00-6.24 1.37 4.58 4.58 0 00-.69 2 6.65 6.65 0 00-11.5.46 6.35 6.35 0 00-8.28 1.35 4 4 0 00-2.29-.72 4 4 0 00-1.38.25 4.66 4.66 0 00-4-2.34 4.58 4.58 0 00-3 1.12 7.09 7.09 0 00-11.25-1.63 4.93 4.93 0 00-.51-.42 5.19 5.19 0 00-7.28 1.59 2.87 2.87 0 00-3.92 1l-.05.09a2.79 2.79 0 00-.51-.46 2.26 2.26 0 00-1.68-.34 4.64 4.64 0 00-2.06-4.06 4.44 4.44 0 00-6.23 1.37 4.54 4.54 0 00-.65 1.7 3 3 0 00-3.62.71 6.79 6.79 0 00-2.92-4.52 6.51 6.51 0 00-8.84 1.56 4.44 4.44 0 00-6.23 1.37 4.59 4.59 0 00-.7 2 6.64 6.64 0 00-11.49.46 6.34 6.34 0 00-7.67.71 4.65 4.65 0 00-1.58.15 3.9 3.9 0 00-1.32-.23 4 4 0 00-1.38.25 4.66 4.66 0 00-4-2.34h-.12a5.57 5.57 0 00-1.06-.93 5.16 5.16 0 00-4.41-.63 7 7 0 00-3.66-1 7.14 7.14 0 00-5.44 2.54 4.61 4.61 0 00-2-3.08 4.44 4.44 0 00-6.23 1.37 4.74 4.74 0 00-.66 1.7 3 3 0 00-3.61.71 6.79 6.79 0 00-2.92-4.52A6.51 6.51 0 0053.3 116a4.45 4.45 0 00-6.3 1.39 4.71 4.71 0 00-.69 2 6.64 6.64 0 00-11.49.46 6.35 6.35 0 00-8.28 1.35 4 4 0 00-2.29-.72 3.93 3.93 0 00-1.38.25 4.67 4.67 0 00-4-2.34 4.6 4.6 0 00-3 1.12 7.11 7.11 0 00-12.33-.28 6.47 6.47 0 00-3.34-1.32V130h335.73v-9a4.59 4.59 0 00-5.54 1z" transform="translate(.43)" opacity=".6" fill="#fff"/><path d="M134.05 40a.85.85 0 10-.85-.85.85.85 0 00.85.85zm124.89-27.87a.85.85 0 10-.85-.85.85.85 0 00.85.85zm61.87 33a.85.85 0 10-.85-.85.85.85 0 00.85.85zm-101.18 22.8a.85.85 0 100-1.69.84.84 0 00-.84.85.83.83 0 00.84.84zM90.56 24.26a.85.85 0 00.85-.84.85.85 0 10-1.7 0 .85.85 0 00.85.84zM41.06 66a.85.85 0 00.85-.85.85.85 0 00-1.7 0 .85.85 0 00.85.85zm168.26 9.69a.43.43 0 00.43-.43.43.43 0 10-.85 0 .43.43 0 00.42.43zM186.88 46a.42.42 0 00.43-.42.42.42 0 00-.43-.42.42.42 0 00-.43.42.43.43 0 00.43.42zm33.24-18.18a.42.42 0 00.43-.42.43.43 0 00-.86 0 .42.42 0 00.43.42zm19.41 25.97a.44.44 0 00.43-.43.43.43 0 00-.86 0 .44.44 0 00.43.43zm45.61-33.48a.43.43 0 10-.42-.43.43.43 0 00.42.43zm38.59-10.2a.41.41 0 00.41-.42.41.41 0 00-.41-.42.42.42 0 00-.43.42.42.42 0 00.43.42zm-27.18 41.5a.43.43 0 000-.86.43.43 0 000 .86zm32.99 19.16a.43.43 0 10-.42-.42.42.42 0 00.42.42zM310.2 86.24a.43.43 0 000-.85.43.43 0 100 .85zM209.75 11.75a.43.43 0 10-.43-.43.43.43 0 00.43.43zM190.34 95.7a.42.42 0 00.42-.42.43.43 0 00-.42-.43.44.44 0 00-.43.43.43.43 0 00.43.42zM81.88 59.43a.43.43 0 100-.85.43.43 0 000 .85zM11 87.58a.43.43 0 10-.42-.43.43.43 0 00.42.43zM7.93 60.19a.26.26 0 10-.26-.26.26.26 0 00.26.26zM5.2 22.54a.26.26 0 00.26-.26.26.26 0 00-.51 0 .26.26 0 00.25.26zM23.16 9.92a.26.26 0 10-.25-.25.25.25 0 00.25.25zm55.08 20.14a.26.26 0 10-.24-.26.25.25 0 00.26.26zm36.39-17.71a.26.26 0 10-.26-.26.26.26 0 00.26.26zM122.64 39a.26.26 0 00.25-.26.26.26 0 00-.51 0 .26.26 0 00.26.26zM105.9 64a.26.26 0 000-.52.26.26 0 100 .52zM68.52 86.34a.26.26 0 000-.52.26.26 0 000 .52zm83.23-32.99a.26.26 0 100-.51.26.26 0 000 .51zm37.37 26.21a.26.26 0 10-.26-.26.26.26 0 00.26.26zm45.13 8.73a.25.25 0 00.25-.25.26.26 0 10-.51 0 .26.26 0 00.26.25zm.48-18.44a.26.26 0 10-.26-.25.26.26 0 00.26.25zm-21.84-26.2a.26.26 0 10-.25-.26.26.26 0 00.25.26zm40.77-12.13a.26.26 0 000-.52.26.26 0 100 .52zm51.43-5.34a.26.26 0 00.26-.25.26.26 0 10-.52 0 .26.26 0 00.26.25zm26.21 10.19a.26.26 0 10-.26-.26.25.25 0 00.26.26zm-33.49 43.19a.26.26 0 100-.52.26.26 0 000 .52zm19.42 23.29a.26.26 0 00.25-.26.25.25 0 00-.25-.25.26.26 0 00-.27.25.27.27 0 00.27.26zm-17.96-91.71a.26.26 0 10-.26-.26.26.26 0 00.26.26zM177 15a.26.26 0 100-.52.26.26 0 000 .52zm-28.65-7.26a.26.26 0 00.26-.26.25.25 0 00-.26-.25.25.25 0 00-.25.25.26.26 0 00.25.26zM46.94 47.05a.26.26 0 10-.26-.26.26.26 0 00.26.26zm12.13-33.49a.26.26 0 10-.26-.26.26.26 0 00.26.26zm92.45 62.97a.42.42 0 00.42-.42.43.43 0 10-.42.42zm-43.44 10.19a.42.42 0 00.43-.42.43.43 0 10-.43.42zm17.47.36a.26.26 0 00.26-.26.26.26 0 00-.52 0 .26.26 0 00.26.26zm-24.49 24.97a.26.26 0 00.26-.25.26.26 0 00-.52 0 .26.26 0 00.26.25z" transform="translate(.43)" fill-rule="evenodd" fill="#fff"/><path fill="url(#linear-gradient)" opacity=".21" d="M0 105.11l336.07-4.64v-5.79L0 91.86v13.25z"/><path fill="url(#linear-gradient-2)" opacity=".21" d="M0 30.06l336.07-4.64v-5.79L0 16.81v13.25z"/><path fill="url(#linear-gradient-3)" opacity=".21" d="M336.07 68.06L0 70.61v7.83l336.07 2.86V68.06z"/><path fill="url(#linear-gradient-4)" opacity=".21" d="M336.35 51.65v-8.69L50.48 49.11l285.87 2.54z"/><path style="mix-blend-mode:overlay" fill="url(#linear-gradient-5)" opacity=".21" d="M.41 83.08v6.39l258.72-3.11L.41 83.08z"/><path fill="url(#linear-gradient-6)" opacity=".21" d="M.41 31.75v6.4l258.72-3.12L.41 31.75z"/><path fill="url(#Névtelen_színátmenet_80)" d="M.43 129.83h335.99v47.62H.43z"/><path opacity=".2" fill="#fff" d="M.83 143.01v-2.97l171.92 1.47-171.92 1.5z"/><path opacity=".29" fill="#fff" d="M.83 136.52v-2.97l303.09 1.46L.83 136.52z"/><path class="cls-14" d="M201.43 147.05l-16.14 9.57.02 10.21 33.41-3.35-.1-6-17.19-10.43z"/><path fill="#fffdf1" d="M62.8 93.51h64.39l-2.6-.91-3.4.33-.97-1.57-2.96.78-.42-1.06-1.52.5-2.22-2.22-5.25 1.16-1.26-2.01-2.57 1.26-2.96-2.7-7.88-3-5.02 5.25-3.63-.88-1.12 1.87-3.45-.64-.99 1.55-1.73-.49-.51 1.15-2.8-.62-1.93 1.2-4.2-.45-5 1.5z"/><path fill="#4d1f13" d="M54.93 154.64l.48 8.28-31.97-.94-1.58-8.37 5.33-5.7 27.74 6.73z"/><path d="M315.88 150.87c-.15-2.29 2.66-13.31 2.66-13.31s3.07 11.65 2.92 13.53-2.8 4.27-2.8 4.27-2.66-2.19-2.78-4.49z" transform="translate(.43)" fill="#503914"/><path d="M277 151.24c-.14-2.29 2.66-13.31 2.66-13.31s3.08 11.65 2.92 13.53-2.8 4.27-2.8 4.27-2.68-2.2-2.78-4.49z" transform="translate(.43)" fill="#614d14"/><path class="cls-19" d="M292.17 144.69h-1.31l11.61-7 15.74-.42 11.23 7.64-16.39.65-10.57-7.09-10.31 6.22z"/><path class="cls-20" d="M307.49 137.56l11.7 7.76 10.25-.41-11.23-7.64-10.72.29z"/><path class="cls-14" d="M313.05 154.01v-8.45l-10.57-7.09-10.31 6.22v11.41l20.88-2.09z"/><path class="cls-21" d="M328.01 152.52v-7.55l-14.96.59v8.45l14.96-1.49z"/><path class="cls-14" d="M255.61 159.78v-22.01l-12.4-11.26-12.08 9.87v25.86l24.48-2.46z"/><path class="cls-21" d="M273.14 158.02v-21.2l-17.53.95v22.01l17.53-1.76z"/><path fill="#9da4aa" d="M195.24 165.84l-.02-5.59 12.19.07-.04 4.3.5-.05.05-4.74-13.2-.08.02 6.14.5-.05z"/><path fill="#d7dae0" d="M207.62 164.6l.05-4.53-12.7-.07.02 5.86 12.63-1.26z"/><path class="cls-19" d="M218.68 157.51l35.25-2.79-16.4-10.3-36.64 1.22-17.92 10.98h2.32l16.14-9.57 17.25 10.46z"/><path class="cls-21" d="M218.68 157.51l-.06-.03.12 6 33.76-3.39-.19-5.24-33.63 2.66z"/><path class="cls-20" d="M237.53 144.42l-16.31.58 16.66 10.99 16.05-1.27-16.4-10.3z"/><path class="cls-24" d="M63.87 144.59c-8 19.33 0 21.4 0 21.4s7.99-2.07 0-21.4zm108.45 4.49c-8 19.33 0 21.41 0 21.41s7.99-2.08 0-21.41z" transform="translate(.43)"/><path class="cls-25" d="M182.54 140.37c-10.5 25.42 0 28.15 0 28.15s10.51-2.73 0-28.15z" transform="translate(.43)"/><path class="cls-26" d="M279.74 136.4c-10.5 25.42 0 28.15 0 28.15s10.51-2.73 0-28.15zm49.26-6.8c-6.43 25.42 0 28.15 0 28.15s6.44-2.75 0-28.15z" transform="translate(.43)"/><path class="cls-25" d="M9 137.14c-4.93 19.48 0 21.58 0 21.58s4.92-2.1 0-21.58z" transform="translate(.43)"/><path class="cls-24" d="M218 145.31c-4.93 19.49 0 21.59 0 21.59s5-2.1 0-21.59zm56.39-11.08c-6.43 25.42 0 28.15 0 28.15s6.43-2.73 0-28.15z" transform="translate(.43)"/><path class="cls-25" d="M150.7 156c-6.26 15.16 0 16.79 0 16.79s6.3-1.64 0-16.79z" transform="translate(.43)"/><path class="cls-24" d="M128.51 156c-6.26 15.16 0 16.79 0 16.79s6.26-1.64 0-16.79zm6 6.5c-3.83 9.28 0 10.28 0 10.28s3.84-1 0-10.28z" transform="translate(.43)"/><path class="cls-25" d="M74 155.91c-3.83 9.28 0 10.28 0 10.28s3.84-1 0-10.28z" transform="translate(.43)"/><path class="cls-24" d="M114.42 160c-3.83 9.28 0 10.27 0 10.27s3.84-.99 0-10.27z" transform="translate(.43)"/><path class="cls-26" d="M68.33 150.28c-6.22 15 0 16.66 0 16.66s6.21-1.62 0-16.66z" transform="translate(.43)"/><path class="cls-24" d="M14.07 147.05c-4.82 11.66 0 12.91 0 12.91s4.82-1.25 0-12.91z" transform="translate(.43)"/><path class="cls-19" d="M27.31 145.94l23-.07 8.05 9.89-25.1-.14-5.82-8.15-6.79 8.05-.55-.63 7.21-8.95z"/><path class="cls-21" d="M33.26 155.62l-.23-.33.21 4.4 22.12 2.44-.37-6.38-21.73-.13z"/><path class="cls-14" d="M33.24 159.69l-.21-4.4-5.59-7.82-5.56 6.59.19 4.4 11.17 1.23z"/><path d="M25.71 157.33v-2.77l2.26.17v2.77l-2.26-.17zm210.02-14.85v-4.7l3.83.29v4.7l-3.83-.29z" fill="#5f4267" fill-rule="evenodd"/><path fill="#3d1539" fill-rule="evenodd" d="M238.91 142.72l.65.05v-4.7l-.65-.05v4.7z"/><path fill="#59163f" fill-rule="evenodd" d="M245.26 143.34v-4.71l3.84.29v4.7l-3.84-.28z"/><path fill="#30193f" fill-rule="evenodd" d="M248.45 143.57l.65.06v-4.71l-.65-.05v4.7z"/><path class="cls-19" d="M231.13 136.38h-1.54l13.61-11.11 18.45-.68 13.17 12.14-19.21 1.04-12.4-11.26-12.08 9.87z"/><path class="cls-20" d="M254.55 124.85l13.39 12.25 6.88-.37-13.17-12.14-7.1.26z"/><path fill="#9da4aa" fill-rule="evenodd" d="M303.29 155v-5.56h-2.99v5.86l2.99-.3z"/><path fill="url(#Névtelen_színátmenet_680)" d="M336.42 151.68L.43 185.29v27.03l335.99.05v-60.69z"/><g opacity=".2"><path d="M78.49 83.6a23 23 0 0130.29-12 23.26 23.26 0 0111.92 30.52 23 23 0 01-30.29 12A23.25 23.25 0 0178.49 83.6z" transform="translate(.43)" fill="url(#Névtelen_színátmenet_26)" opacity=".6"/><path d="M136 44.06a36.11 36.11 0 0147.65-18.89 36.59 36.59 0 0118.75 48 36.12 36.12 0 01-47.7 18.9A36.59 36.59 0 01136 44.06z" transform="translate(.43)" fill="url(#Névtelen_színátmenet_26-2)" opacity=".3"/><path d="M205.36 123.9a23 23 0 0130.3-12 23.26 23.26 0 0111.91 30.52 23 23 0 01-30.29 12 23.27 23.27 0 01-11.92-30.52z" transform="translate(.43)" fill="url(#Névtelen_színátmenet_26-3)" opacity=".3"/><path d="M227.53 159.39a32.41 32.41 0 0142.77-16.95 32.84 32.84 0 0116.83 43.1 32.4 32.4 0 01-42.77 17 32.84 32.84 0 01-16.83-43.15z" transform="translate(.43)" fill="url(#Névtelen_színátmenet_26-4)" opacity=".2"/><path d="M176.15 120.58a23 23 0 0130.3-12 23.24 23.24 0 0111.91 30.51 22.94 22.94 0 01-30.29 12 23.26 23.26 0 01-11.92-30.51z" transform="translate(.43)" fill="url(#Névtelen_színátmenet_26-5)" opacity=".2"/><path d="M45.83 113a23 23 0 0130.29-12A23.26 23.26 0 0188 131.47a23 23 0 01-30.29 12A23.26 23.26 0 0145.83 113z" transform="translate(.43)" fill="url(#Névtelen_színátmenet_26-6)" opacity=".2"/><path d="M10.24 149a29.72 29.72 0 0139.22-15.55A30.11 30.11 0 0164.88 173a29.7 29.7 0 01-39.21 15.54A30.1 30.1 0 0110.24 149z" transform="translate(.43)" fill="url(#Névtelen_színátmenet_346)" opacity=".6"/><path d="M16.73 67.15a31.92 31.92 0 0142.13-16.69 32.33 32.33 0 0116.56 42.43 31.91 31.91 0 01-42.12 16.69 32.34 32.34 0 01-16.57-42.43z" transform="translate(.43)" fill="url(#Névtelen_színátmenet_26-7)" opacity=".3"/><path d="M291.14 36.11a23 23 0 0130.3-12 23.26 23.26 0 0111.91 30.52 23 23 0 01-30.29 12 23.26 23.26 0 01-11.92-30.52z" transform="translate(.43)" fill="url(#Névtelen_színátmenet_26-8)" opacity=".6"/></g><path class="cls-43" d="M336.34 182.93l-196.78-11.49 196.86 13.1-.08-1.61z"/><path class="cls-43" d="M336.31 187.52l-196.75-16.08 196.83 17.68-.08-1.6z"/><path class="cls-43" d="M331.57 192.52l.17-15-2.67-.26-.04 14.93 2.54.33zm-19-2.05v-12.25l-2.11-.04-.02 12.01 2.13.28zm-19.19-2.04l.14-10.55-1.79-.11.04 10.45 1.61.21zm-19.03-1.97l.12-9.51-1.29-.09-.16 9.41 1.33.19zm-19-2.19l.09-7.62-1.09-.08-.07 7.54 1.07.16zm-18.96-2.25v-6.95l-.82-.07.02 6.88.8.14zm-19-2.09l.06-6.01-.67-.06-.03 5.94.64.13zm-18.88-2.03l.06-5.74-.6-.06-.1 5.69.64.11zm-18.92-2.11l.05-4.94-.58-.05-.03 4.89.56.1z"/><path fill="#5a1a40" d="M336.42 235.19v-42.05L.5 156.08v79.11h335.92z"/><path opacity=".1" fill="#fff" d="M.5 156.08v10.64l335.85 26.42L.5 156.08z"/><path fill="#30193f" d="M336.35 235.19L.5 199.99l-.07 35.2h335.92z"/><path d="M269 61.87a1.54 1.54 0 00-.3 0 1.33 1.33 0 00-1.05-.41h-.19a2.44 2.44 0 00-1.91-.7h-.3c0-.67-.78-1.22-1.74-1.22-.14-.6-1-1.06-2-1.06a2.92 2.92 0 00-1.35.31 1.14 1.14 0 00-.86-.42 1.35 1.35 0 00-1.23-.61 1.39 1.39 0 00-1.22.59.58.58 0 00-.18 0 .47.47 0 00-.4.19.5.5 0 00-.13 0c0-.19-.23-.35-.52-.37 0-.43-.56-.77-1.24-.77h-.27a.41.41 0 00-.3-.21.35.35 0 00.12-.25c0-.25-.3-.44-.68-.44h-.16a.57.57 0 00-.59-.37.71.71 0 00-.52.21.93.93 0 00-.29 0 .62.62 0 00-.64.4c-.25 0-.44.12-.44.28a2.25 2.25 0 00-.46 0c-.81 0-1.47.38-1.54.86a.92.92 0 00-.88.47l-.17.06a2.24 2.24 0 00-1.26-.35 1.72 1.72 0 00-1.61.75.55.55 0 00-.59.43.47.47 0 00-.17 0c-.27 0-.48.11-.51.27a2.55 2.55 0 00-1-.19 2.32 2.32 0 00-.46 0 1.14 1.14 0 00-.75-.25 1.22 1.22 0 00-.59.14 3.4 3.4 0 00-.88-.12h-.37a1.81 1.81 0 00-1.28-.5h-.29a1.94 1.94 0 00-1.71-.88 1.79 1.79 0 00-1.9 1.29h-.12c-.79 0-1.43.46-1.43 1v.09c-.42 0-.74.25-.74.51a2.13 2.13 0 00-.78-.14c-.76 0-1.38.35-1.38.78a.24.24 0 000 .08 1.67 1.67 0 00-.52-.08c-.55 0-1 .24-1 .54a.77.77 0 00-.62.35c-.38.51.26.65.56.65h40.7c.47 0 .91-.17.91-.44s-.34-.47-.77-.47z" transform="translate(.43)" opacity=".5" fill="#fafafb"/><path class="cls-43" d="M127.18 91.81a2.24 2.24 0 00-.46 0 2.13 2.13 0 00-1.64-.63h-.31a3.83 3.83 0 00-3-1.1h-.47c0-1.05-1.21-1.9-2.72-1.91-.21-.94-1.53-1.66-3.13-1.66a4.41 4.41 0 00-2.11.5 1.75 1.75 0 00-1.34-.67 2.14 2.14 0 00-1.93-1 2.17 2.17 0 00-1.91.93.64.64 0 00-.28 0 .73.73 0 00-.62.29.65.65 0 00-.21-.05c0-.3-.35-.55-.8-.59 0-.66-.86-1.2-1.93-1.2a2.73 2.73 0 00-.41 0 .73.73 0 00-.48-.33.54.54 0 00.19-.39c0-.38-.47-.69-1.06-.69a1 1 0 00-.25 0 .9.9 0 00-.93-.58 1 1 0 00-.8.33 1.39 1.39 0 00-.46-.08 1 1 0 00-1 .62c-.38 0-.69.19-.69.43v.07a4 4 0 00-.71-.07c-1.27 0-2.31.59-2.42 1.34a1.49 1.49 0 00-1.38.74l-.25.1a3.49 3.49 0 00-2-.55 2.72 2.72 0 00-2.52 1.17.87.87 0 00-.91.67 1.27 1.27 0 00-.28 0c-.4 0-.74.18-.79.42a3.9 3.9 0 00-1.53-.3 4.18 4.18 0 00-.72.07 1.73 1.73 0 00-1.17-.39 1.83 1.83 0 00-.91.22 5.06 5.06 0 00-1.38-.18 5.49 5.49 0 00-.58 0 2.82 2.82 0 00-2-.79 3.15 3.15 0 00-.44 0 3.06 3.06 0 00-2.69-1.37 2.8 2.8 0 00-2.9 2h-.19c-1.23 0-2.23.73-2.23 1.61a.59.59 0 000 .14c-.66.07-1.16.4-1.16.8a3.48 3.48 0 00-1.21-.21c-1.19 0-2.15.55-2.15 1.22A.5.5 0 0066 91a2.55 2.55 0 00-.81-.12c-.86 0-1.57.37-1.57.84a1.17 1.17 0 00-1 .55c-.6.79.4 1 .87 1h63.61c.73 0 1.42-.27 1.42-.68s-.6-.78-1.34-.78zm-9.53-45.57a2.08 2.08 0 00.14-.7c0-1.52-1.75-2.76-3.9-2.76a4.81 4.81 0 00-.77.06 2.19 2.19 0 00.11-.67 2.69 2.69 0 00-2.86-2.49 3.06 3.06 0 00-2.07.78 5.71 5.71 0 00-4.55-2A5.61 5.61 0 0099 40.7a3.35 3.35 0 00-3.2-1.86 4.14 4.14 0 00-1.28.21 2 2 0 00.08-.54 2.67 2.67 0 00-2.21-2.32 1.9 1.9 0 00.17-.79 2.18 2.18 0 00-2.27-2.07 2.37 2.37 0 00-.61.08v-.18a2.9 2.9 0 00-2.94-2.86 3.11 3.11 0 00-1 .18A4.31 4.31 0 0081.69 28a4.38 4.38 0 00-4 2.28 3.94 3.94 0 00-2.7-.95 4.61 4.61 0 00-1.31.19 1 1 0 000-.25c0-.63-.75-1.14-1.67-1.14a2 2 0 00-.5.05.78.78 0 000-.26 1.13 1.13 0 00-1.24-1 1.35 1.35 0 00-1.44-1.15 1.74 1.74 0 00-.61.11 2.52 2.52 0 00-2-.84 2.37 2.37 0 00-2.19 1.17A2.81 2.81 0 0061.4 28a3.57 3.57 0 00-.59-.06c-1.1 0-2 .65-2 1.44a1.15 1.15 0 00-.57-.15 1.2 1.2 0 00-.68.22 1.62 1.62 0 00-1-.34 1.45 1.45 0 00-1.44 1h-.24A1.72 1.72 0 0053 31.65a2.67 2.67 0 00-1.4.44 2.35 2.35 0 00-2-1 2.41 2.41 0 00-1.84.81 3.2 3.2 0 00-.63-.07 2.35 2.35 0 00-2.37 1.58h-.19a1.83 1.83 0 00-2 1.68 1.41 1.41 0 00.11.54 1.12 1.12 0 00-.89.71 3.35 3.35 0 00-.79-.09 2.83 2.83 0 00-2.92 2 3.56 3.56 0 00-1.42.29A4.43 4.43 0 0033.31 37a4.64 4.64 0 00-1.12.14 4.65 4.65 0 00-3.74-1.81 4.59 4.59 0 00-4.11 2.42 3.18 3.18 0 00-.62-.06 3.54 3.54 0 00-3.66 3.4v.28a2.66 2.66 0 00-2.53 2.43 2.1 2.1 0 00.2.89c-2.05.05-3.68 1.13-3.68 2.46s1.71 2.46 3.83 2.46h97.69c3.83-1.04 3.35-2.67 2.08-3.37z" transform="translate(.43)"/><path class="cls-48" d="M99.06 235.47c2.06-25.92 10.39-35.55 10.39-35.55-7.7 8.28-10.52 26.17-11.49 35.55zm-2.46 0h1.26c.2-10.68-.51-31.41-8.12-41.87 0 0 8.16 12.09 6.86 41.87z" transform="translate(.43)"/><path class="cls-49" d="M98.16 235.47c-2.4-10.94-9.18-36.78-21.52-47 0 0 13.08 11.7 20 47z" transform="translate(.43)"/><path class="cls-48" d="M96.75 235.47c-3.21-9.19-11.73-30.69-23.41-38.24 0 0 12.42 8.68 22 38.24z" transform="translate(.43)"/><path d="M50.4 101.46a.41.41 0 000-.19c0-.42-.48-.76-1.07-.76h-.21a.57.57 0 000-.18.74.74 0 00-.78-.69.86.86 0 00-.57.22 1.57 1.57 0 00-1.25-.55 1.55 1.55 0 00-1.29.61.92.92 0 00-.88-.51 1 1 0 00-.35.06.39.39 0 000-.15.71.71 0 00-.6-.63.54.54 0 000-.22.6.6 0 00-.63-.57h-.17a.8.8 0 00-.81-.79.81.81 0 00-.27 0 1.25 1.25 0 00-2.21-.07 1.09 1.09 0 00-.74-.26 1.36 1.36 0 00-.36 0v-.07c0-.07-.21-.31-.46-.31h-.14a.15.15 0 000-.07.31.31 0 00-.34-.27.37.37 0 00-.39-.31.47.47 0 00-.17 0 .7.7 0 00-.55-.24.63.63 0 00-.59.33.77.77 0 00-.75.49h-.16c-.3 0-.55.18-.55.4a.29.29 0 00-.16 0 .31.31 0 00-.19.06.43.43 0 00-.27-.1.4.4 0 00-.4.28h-.07a.47.47 0 00-.51.42.78.78 0 00-.38.12.63.63 0 00-.55-.28.67.67 0 00-.5.22h-.18a.64.64 0 00-.64.43h-.06a.5.5 0 00-.53.47.32.32 0 000 .14.31.31 0 00-.24.2.78.78 0 00-.22 0 .77.77 0 00-.8.56 1 1 0 00-.39.08 1.23 1.23 0 00-.93-.43 1.55 1.55 0 00-.09.1 1.27 1.27 0 00-1-.5 1.25 1.25 0 00-1.13.67h-.17a1 1 0 00-1 .93v.08a.73.73 0 00-.69.66.7.7 0 00-.01.16c-.56 0-1 .31-1 .67s.47.68 1.06.68h26.78c1.04-.25.91-.7.56-.89z" transform="translate(.43)" opacity=".8" fill="#fafafb"/><path class="cls-49" d="M336.09 230.28a12.83 12.83 0 01-.77-3.33 19.11 19.11 0 01.77-5.54v-1.61a18.68 18.68 0 00-3.52 7.57c-.3 1.81-.47 3.45-.56 4.76a38.51 38.51 0 011.53-14.71c.89-3 1.76-5.51 2.55-7.63v-3c-3.35 5.05-8.25 12.94-9.59 17.63a18.44 18.44 0 00-.74 7.22 21.14 21.14 0 01-1.69-3.47 41.74 41.74 0 01-2-9 48.73 48.73 0 00-1.16 5.68c-.13-.77-.28-1.58-.47-2.44a33.08 33.08 0 00-7.51-15.09s4.47 9.21 3.8 15.41c-.43 4.09-2.77 8.24-4.32 10.59a30.63 30.63 0 00.73-3.88c.48-3.7-1.33-10.27-1.33-10.27a41.74 41.74 0 01-2 9 22.3 22.3 0 01-2.51 4.83 56.88 56.88 0 01.24-8.3c.66-7.22 5.13-16.1 5.13-16.1s-7.13 11.38-8.18 17.16a16 16 0 01-2.77 6.33 71.23 71.23 0 001.59-12.51c.58-11.18-1.52-17.51-1.52-17.51s.29 14.81-3.13 23.83a54.7 54.7 0 01-3.18 7.15 35.7 35.7 0 01-1.65-6.68 25.77 25.77 0 011.42-12s-4.85 6-5.13 12.36c-.08 1.85-.09 3.35-.05 4.56a35.89 35.89 0 01-2.57-7.66c-1.33-6.53-1.81-11.71-1.81-11.71a41.1 41.1 0 00-1.6 7.16 32.24 32.24 0 00-2.82-7.72s2 7.73.57 14.49a19.25 19.25 0 01-3.53 8 19.32 19.32 0 01-1.56-3.87 41.08 41.08 0 01-1.13-6.78 35.07 35.07 0 00-.75 7.75 31 31 0 00.52 3.44 32 32 0 01-2.19-8 25.77 25.77 0 011.42-12 28.6 28.6 0 00-4 7.15 41.5 41.5 0 00-1.85-9.6s-.48 5.18-1.81 11.71a36.4 36.4 0 01-3 8.62c-.92-2.74-2.33-7.2-3.86-13-2.66-10.09-8.83-14-8.83-14s3.51 5.09 5.31 14.31a27.06 27.06 0 01-.75 13.59c.1-.62.21-1.37.29-2.23a35.07 35.07 0 00-.75-7.75 41.08 41.08 0 01-1.13 6.78 19.07 19.07 0 01-.8 2.29 9 9 0 01-1.9-4.69c-.38-4.86 1.14-13.19 1.14-13.19a36.81 36.81 0 00-4.27 10.23 50.28 50.28 0 00-1.11-5.37 42.08 42.08 0 01-2 9c-.08.21-.16.42-.25.63a20.14 20.14 0 00-.39-3.78 36.22 36.22 0 00-4.38-10.69s1.53 8.33 1.15 13.19a9.59 9.59 0 01-2.76 5.71c.1-.64.21-1.43.3-2.34a35.07 35.07 0 00-.75-7.75 41.71 41.71 0 01-1.12 6.78 18.33 18.33 0 01-1.12 3c.07-2 .1-5.17-.12-9.07a32.08 32.08 0 00-3.52-12.5s2 7.73.57 14.49a20.41 20.41 0 01-2.33 6.21c-.9-3.34-2.39-9.13-4-16.81-2.66-12.58-8.83-17.43-8.83-17.43s3.5 6.35 5.31 17.86a41.5 41.5 0 01-.9 17.51 22 22 0 01-2.68-5 41.74 41.74 0 01-2-9s-1.81 6.57-1.33 10.27c.05.45.12.87.18 1.26a22.44 22.44 0 01-2.75-8c-.67-6.2 3.8-15.41 3.8-15.41a33.08 33.08 0 00-7.51 15.09c0 .18-.07.36-.11.54a28 28 0 00-4.49-8.64 25.7 25.7 0 011.43 12 38.81 38.81 0 01-.94 4.4c-.58-1.25-1.25-2.84-2-4.87-3.42-9-3.14-23.83-3.14-23.83s-2.09 6.33-1.52 17.51q0 .75.09 1.47c-3.55-7.78-11.52-19-11.52-19a98.76 98.76 0 015.8 15.37 39 39 0 011.53 14.24 29.64 29.64 0 00-2.78-10.65 45 45 0 00-10.17-13.59s6.42 9.49 7.89 17.82a20.34 20.34 0 01.13 6.18c-.1-1.19-.25-2.58-.51-4.1-.76-4.58-4.32-8.58-4.32-8.58s1.76 4.79 1.57 8.17a16.32 16.32 0 01-1.45 5c0-2 0-4.76-.15-8.06a32.16 32.16 0 00-3.51-12.5s2 7.73.57 14.49a20.11 20.11 0 01-2.69 6.79 18.69 18.69 0 01-1.31-3.37 40.51 40.51 0 01-1.12-6.78 42.44 42.44 0 00-.79 6.32 8.36 8.36 0 01-.21-1.25c-.38-4.86 1.14-13.19 1.14-13.19a36.34 36.34 0 00-4.37 10.69 19.6 19.6 0 00-.39 4.35 27.57 27.57 0 01.16-9.84c1.81-9.22 5.31-14.31 5.31-14.31s-6.17 3.88-8.83 14c-1 3.66-1.88 6.78-2.65 9.27q0-.83-.06-1.77c-.28-6.34-5.13-12.36-5.13-12.36a25.77 25.77 0 011.42 12c-.05.36-.11.72-.18 1.06a29.79 29.79 0 00-1.57-4.84c-3.14-7.54-10-16-10-16a125 125 0 016.09 14.76 24.38 24.38 0 01.87 12 53.78 53.78 0 00-.63-6c-.76-4.58-4.33-8.58-4.33-8.58s1.76 4.79 1.57 8.17a18.81 18.81 0 01-1.9 6.06 21.78 21.78 0 01-2.49-4.72 42.08 42.08 0 01-2-9 49.79 49.79 0 00-1.27 6.6c-.72-2.94-1.54-6.49-2.41-10.58-2.66-12.58-8.83-17.43-8.83-17.43s3.51 6.35 5.32 17.86a41.06 41.06 0 01-1.14 18.27 19.1 19.1 0 01-3.61-8.1c-1.43-6.76.57-14.49.57-14.49a32.08 32.08 0 00-3.52 12.5 100.06 100.06 0 00-.08 10.14c-.74-1.49-1.76-4.45-2.27-10-.86-9.21 1.56-19.62 1.56-19.62s-2.89 3.7-4.32 12a68.86 68.86 0 00-.27 16.4 16.44 16.44 0 01-3.35-7.1c-1-5.78-8.17-17.16-8.17-17.16s4.46 8.88 5.13 16.1a58.51 58.51 0 01.25 8c-.91-2.69-2.39-7.31-4-13.44-2.67-10.09-8.84-14-8.84-14s3.51 5.09 5.32 14.31a27.38 27.38 0 01-.32 12.12 20.12 20.12 0 01-1.69-3.48 42.08 42.08 0 01-2-9s-1.64 6-1.38 9.74c-.18-.79-.34-1.66-.49-2.61a25.77 25.77 0 011.42-12s-4.84 6-5.13 12.36A36.21 36.21 0 00105 235a30 30 0 01-2.5-8.66 25.7 25.7 0 011.43-12 27.49 27.49 0 00-4.65 9.25 32.3 32.3 0 00-3.5-12.26s2 7.73.57 14.49a19.38 19.38 0 01-3.53 8 19.32 19.32 0 01-1.55-3.82 41.08 41.08 0 01-1.13-6.78 35.07 35.07 0 00-.75 7.75 31 31 0 00.52 3.44 32.31 32.31 0 01-2.2-8 25.7 25.7 0 011.43-12 26.83 26.83 0 00-4.9 10.37 21.44 21.44 0 00-2-7.27 25.48 25.48 0 01-1.71 10.6 21.15 21.15 0 01-2.8 5c.06-2 .1-5.22-.12-9.23a32.08 32.08 0 00-3.52-12.5s2 7.73.57 14.49a21.08 21.08 0 01-2 5.65c-.92-2.77-2.21-7-3.62-12.27-2.66-10.09-8.83-14-8.83-14s3.51 5.09 5.32 14.31a27.17 27.17 0 01-.74 13.54 50.69 50.69 0 00-.62-5.83c-.76-4.58-4.33-8.58-4.33-8.58s1.76 4.79 1.57 8.17a19.38 19.38 0 01-2 6.31 18.08 18.08 0 01-1.3-3.17 40.51 40.51 0 01-1.11-6.83 35.07 35.07 0 00-.75 7.75v.56c-.16-.45-.32-.93-.46-1.44a40.87 40.87 0 01-1.13-6.77 40.3 40.3 0 00-.79 6.9 40.91 40.91 0 01-.76-3.72 25.7 25.7 0 011.43-12s-4.85 6-5.14 12.36c-.09 2.09-.08 3.74 0 5a22 22 0 01-1.86-3.68 25.4 25.4 0 01-1.72-10.6 21.71 21.71 0 00-2.07 7.54c-.51-1.74-1.05-3.67-1.6-5.78-2.67-10.09-8.84-14-8.84-14s3.51 5.09 5.32 14.32a27.38 27.38 0 01-.37 12.3 19.57 19.57 0 01-.65-1.92 40.31 40.31 0 01-1.12-6.77 41.23 41.23 0 00-.8 6.78 17.37 17.37 0 01-.69-1.7 42.08 42.08 0 01-2-9s-1.8 6.57-1.33 10.27c.15 1.2.35 2.23.54 3.08a37.13 37.13 0 01-1.5-6.22 25.7 25.7 0 011.43-12 28.13 28.13 0 00-4.39 8.3c.08-1 .15-2 .21-3.1.57-11.18-1.52-17.51-1.52-17.51S26.68 217 23.26 226a41 41 0 01-3.94 8.38 51.78 51.78 0 01.14-9.58c.67-7.22 5.13-16.1 5.13-16.1s-7.13 11.38-8.17 17.16a17 17 0 01-4.09 8 38.07 38.07 0 011.33-16.31 98.85 98.85 0 015.8-15.36s-10.37 14.57-12.72 22A40.45 40.45 0 004.82 212s-.48 5.19-1.82 11.72a35.62 35.62 0 01-2.8 8.14v3.56h335.89z" transform="translate(.43)"/><path class="cls-48" d="M336.09 232.58c-.09.41-.19.79-.29 1.11a31.79 31.79 0 00-.35-3.16 12 12 0 00-2.6-5.15 15.43 15.43 0 01.95 4.9 7.89 7.89 0 01-.44 1.94c-.06-.76-.15-1.52-.28-2.24-.85-5-2.59-7.22-2.59-7.22a43.3 43.3 0 01.94 11.77v.3a10.26 10.26 0 01-.7-1.85 25.38 25.38 0 01-.68-4.06 28.78 28.78 0 00-.46 3.45 15.55 15.55 0 01.86-7.16s-2.83 3.52-3.07 7.27a5 5 0 01-.46-1.72 40.68 40.68 0 01.68-7.91 22.08 22.08 0 00-2.44 5.64 24.66 24.66 0 00-1.16-7.12 71 71 0 01-1.08 7 22.21 22.21 0 01-2.25 6 42.17 42.17 0 00-.12-10.31c-.85-5-2.59-7.21-2.59-7.21a43.3 43.3 0 01.94 11.77 25.18 25.18 0 01-.58 3.66c-.05-.53-.13-1.11-.23-1.72a12 12 0 00-2.6-5.15 15.24 15.24 0 01.94 4.9 11.25 11.25 0 01-1.18 3.74 12.53 12.53 0 01-1.69-3 15.43 15.43 0 01-1-4.46 75.44 75.44 0 013.51-8.42 48.08 48.08 0 00-6 9.61c-.25.6-.45 1.18-.62 1.73-.09-.56-.19-1.16-.34-1.82a19.86 19.86 0 00-4.5-9s2.68 5.53 2.28 9.25a13.48 13.48 0 01-1.63 4.73c-.06-.62-.14-1.3-.26-2a12 12 0 00-2.6-5.15 15.24 15.24 0 01.94 4.9 12 12 0 01-1.27 3.93 5.82 5.82 0 01-1.74-3.51 40.68 40.68 0 01.68-7.91 21.75 21.75 0 00-2.62 6.41 12.3 12.3 0 00-.23 2.67c-.51-1.58-1.13-3.67-1.79-6.17-1.59-6-5.3-8.38-5.3-8.38a24.46 24.46 0 013.19 8.59 16.14 16.14 0 01-.58 8.54c.05-1.13.09-3.25-.06-6a19.11 19.11 0 00-2.11-7.5 22.17 22.17 0 01.35 8.69 12.75 12.75 0 01-1 2.92c-.05-.15-.09-.3-.14-.45a25 25 0 01-.67-4.07 21.21 21.21 0 00-.45 4.65c0 .45.09.84.15 1.19a13.21 13.21 0 01-1.49-2.82 25 25 0 01-1.19-5.39 24.42 24.42 0 00-.85 5.54c-.51-2-1.15-4.68-1.84-7.93-1.6-7.55-5.3-10.46-5.3-10.46a35.21 35.21 0 013.19 10.72 25.09 25.09 0 01-.48 10.28c0-1.21.05-3.08-.07-5.37a19.3 19.3 0 00-2.11-7.5 22.26 22.26 0 01.34 8.69 12.52 12.52 0 01-1.58 4 29.26 29.26 0 00-.36-3.17 12 12 0 00-2.59-5.15 15.54 15.54 0 01.94 4.9 12.14 12.14 0 01-1.29 3.95 11.83 11.83 0 01-.82-2.09 25 25 0 01-.67-4.07 21.21 21.21 0 00-.45 4.65c0 .48.1.9.16 1.26a13.58 13.58 0 01-1.54-2.89 25 25 0 01-1.19-5.39 25.19 25.19 0 00-.85 5.19c-.05-.29-.11-.59-.16-.91a15.39 15.39 0 01.86-7.19s-2.91 3.6-3.08 7.41c-.06 1.26-.05 2.25 0 3a14.09 14.09 0 01-1.12-2.21 15.14 15.14 0 01-1-6.35 12.88 12.88 0 00-1.25 4.52c-.3-1-.63-2.2-1-3.47-1.6-6-5.3-8.38-5.3-8.38a24.46 24.46 0 013.19 8.59 16.33 16.33 0 01-.22 7.37 10.12 10.12 0 01-.39-1.14 24.36 24.36 0 01-.68-4.07 24.74 24.74 0 00-.47 4.07 9 9 0 01-.45-1 24.68 24.68 0 01-1.2-5.39s-1.09 3.94-.8 6.16c.09.72.21 1.34.32 1.85a23 23 0 01-.9-3.73 15.39 15.39 0 01.86-7.19 17 17 0 00-2.63 5c0-.58.09-1.2.12-1.85a31.65 31.65 0 00-.91-10.51s.17 8.88-1.88 14.3a24.1 24.1 0 01-2.37 5 30.26 30.26 0 01.09-5.74c.4-4.33 3.07-9.67 3.07-9.67s-4.27 6.83-4.9 10.31a10.12 10.12 0 01-2.45 4.78 22.73 22.73 0 01.8-9.78 58.66 58.66 0 013.48-9.22s-6.23 8.75-7.63 13.21a24.5 24.5 0 00-1.16-7.3 71 71 0 01-1.08 7 22.45 22.45 0 01-2.67 6.73 11.86 11.86 0 01-.4-5.79c.88-5 4.73-10.69 4.73-10.69a27.06 27.06 0 00-6.1 8.15 16.71 16.71 0 00-1.66 8 14.46 14.46 0 01.39-7.78 75.25 75.25 0 013.66-8.86 48.08 48.08 0 00-6 9.61 17.58 17.58 0 00-1 3.42c0-.8 0-1.7-.09-2.67a19.3 19.3 0 00-2.11-7.5 22.26 22.26 0 01.34 8.69 11.77 11.77 0 01-1.89 4.48 41.24 41.24 0 00-.13-10.12c-.85-5-2.59-7.21-2.59-7.21a43.3 43.3 0 01.94 11.77 18.08 18.08 0 01-1.28 5.78 12.27 12.27 0 01-.89-2.23 25 25 0 01-.67-4.07 21.21 21.21 0 00-.45 4.65c0 .46.1.87.15 1.22a22.13 22.13 0 01-1-4 15.39 15.39 0 01.86-7.19 16.13 16.13 0 00-2.85 5.8c-.06-.31-.12-.62-.19-1a19.92 19.92 0 00-4.51-9s2.68 5.53 2.28 9.25a14.87 14.87 0 01-2.25 5.81c0-1.21 0-3-.08-5.17a19.11 19.11 0 00-2.11-7.5 22.17 22.17 0 01.35 8.69 11.87 11.87 0 01-1.82 4.38 5.69 5.69 0 01-1.6-3.37 40.81 40.81 0 01.68-7.92 21.58 21.58 0 00-2.62 6.42c-.06.28-.11.57-.14.84 0-.49 0-1-.07-1.54a19.3 19.3 0 00-2.11-7.5 22 22 0 01.34 8.69 12.18 12.18 0 01-1.33 3.61c-.54-2-1.42-5.45-2.37-10-1.6-7.55-5.3-10.46-5.3-10.46a35.56 35.56 0 013.19 10.72 25.14 25.14 0 01-.43 10.09 13.68 13.68 0 01-1.32-2.57 25.37 25.37 0 01-1.2-5.39s-.32 1.18-.57 2.6a19.42 19.42 0 00-2.09-7.32 22.26 22.26 0 01.34 8.69 13.09 13.09 0 01-1.28 3.52c-.55-1.66-1.35-4.22-2.21-7.49-1.6-6-5.3-8.38-5.3-8.38a24.46 24.46 0 013.16 8.67 16.46 16.46 0 01-.18 7.23c-.06-.74-.16-1.63-.32-2.61a12 12 0 00-2.59-5.15 15.54 15.54 0 01.94 4.9 10.45 10.45 0 01-1 3.31c0-1.21 0-3-.08-5.11a19.3 19.3 0 00-2.11-7.5 22 22 0 01.34 8.69 12.47 12.47 0 01-1.33 3.61c-.55-2-1.42-5.45-2.37-10-1.6-7.55-5.3-10.46-5.3-10.46a35.56 35.56 0 013.19 10.72 25.33 25.33 0 01-.43 10.09 13.11 13.11 0 01-1.32-2.57 15.93 15.93 0 01-.49-1.58c.12-1 .22-2.24.29-3.6a31.65 31.65 0 00-.91-10.51s.17 8.88-1.88 14.3a36.62 36.62 0 01-1.69 3.88 22.7 22.7 0 01-.85-3.6 15.39 15.39 0 01.86-7.19s-2.91 3.6-3.08 7.41c-.06 1.3-.05 2.32 0 3.09a23.22 23.22 0 01.93-8.67 60 60 0 013.48-9.22s-6.44 9-7.7 13.44a15.54 15.54 0 00-.36 1.65l-.09-.51a15.39 15.39 0 01.86-7.19s-2.91 3.6-3.08 7.41c-.06 1.26 0 2.25 0 3a14.09 14.09 0 01-1.12-2.21 15.14 15.14 0 01-1-6.35 12.88 12.88 0 00-1.25 4.52c-.3-1-.63-2.2-1-3.47-1.6-6-5.3-8.38-5.3-8.38a24.46 24.46 0 013.19 8.59 16.33 16.33 0 01-.22 7.37 10.12 10.12 0 01-.39-1.14 25.59 25.59 0 01-.68-4.07 24.74 24.74 0 00-.47 4.07 11 11 0 01-.45-1 24.68 24.68 0 01-1.2-5.39s-1.09 3.94-.8 6.16c.09.72.21 1.34.32 1.85a23 23 0 01-.9-3.73 15.39 15.39 0 01.86-7.19 17.56 17.56 0 00-2.23 3.85c0-.24 0-.48.05-.73a31.45 31.45 0 00-.92-10.51s.17 8.88-1.88 14.3a24.3 24.3 0 01-2.36 5 30.85 30.85 0 01.08-5.74c.4-4.33 3.08-9.67 3.08-9.67s-4.28 6.83-4.91 10.31a10.12 10.12 0 01-2.45 4.78 22.89 22.89 0 01.8-9.78 60 60 0 013.48-9.22 89.53 89.53 0 00-6.86 11.29 25.18 25.18 0 00-1.08-5.38s-.29 3.11-1.09 7a22.51 22.51 0 01-2.66 6.73 11.82 11.82 0 01-.41-5.79c.88-5 4.74-10.69 4.74-10.69a26.88 26.88 0 00-6.1 8.15 16.76 16.76 0 00-1.67 8 14.59 14.59 0 01.4-7.78 74.23 74.23 0 013.65-8.86 48.08 48.08 0 00-6 9.61 17.49 17.49 0 00-1 3.42c0-.8 0-1.7-.1-2.67a19.3 19.3 0 00-2.11-7.5 22 22 0 01.34 8.69 11.79 11.79 0 01-1.88 4.48 42.26 42.26 0 00-.13-10.12c-.86-5-2.6-7.21-2.6-7.21a43.3 43.3 0 01.94 11.77 23.23 23.23 0 01-.82 4.58 21.4 21.4 0 00-5-14.58s2.68 5.53 2.28 9.25a13.47 13.47 0 01-1.62 4.73q-.09-.93-.27-2a12 12 0 00-2.59-5.15 15.54 15.54 0 01.94 4.9 12 12 0 01-1.28 3.93 5.82 5.82 0 01-1.74-3.51 40.38 40.38 0 01.69-7.91 21.63 21.63 0 00-2.63 6.41 12.3 12.3 0 00-.23 2.67c-.5-1.58-1.12-3.67-1.78-6.17-1.6-6-5.3-8.38-5.3-8.38a24.7 24.7 0 013.19 8.59 16.11 16.11 0 01-.59 8.54c.05-1.13.1-3.25 0-6a19.3 19.3 0 00-2.11-7.5 22 22 0 01.34 8.69 12.44 12.44 0 01-1.53 4 11.54 11.54 0 01-.53-1.48 24.36 24.36 0 01-.68-4.07 21.21 21.21 0 00-.45 4.65c0 .45.1.84.15 1.19a13.68 13.68 0 01-1.48-2.82 25.37 25.37 0 01-1.2-5.39 24 24 0 00-.84 5.54c-.51-2-1.16-4.68-1.85-7.93-1.59-7.55-5.29-10.46-5.29-10.46a35.41 35.41 0 013.18 10.72 24.91 24.91 0 01-.6 10.25c0-1.21.06-3.08-.07-5.37a19.3 19.3 0 00-2.11-7.5 22 22 0 01.34 8.69 12.29 12.29 0 01-1.58 4 29.26 29.26 0 00-.36-3.17 11.9 11.9 0 00-2.59-5.15 15.54 15.54 0 01.94 4.9 12.65 12.65 0 01-1.4 4.18c0-1.13.1-3.25 0-6A19.3 19.3 0 0082 221a22.26 22.26 0 01.34 8.69 13.09 13.09 0 01-1.28 3.52c-.55-1.66-1.35-4.22-2.21-7.49-1.6-6-5.3-8.38-5.3-8.38a24.46 24.46 0 013.2 8.66 16.42 16.42 0 01-.27 7.57 10.84 10.84 0 01-.74-1.93 24.16 24.16 0 01-.68-4.06 21.12 21.12 0 00-.45 4.65l.06.52a4.94 4.94 0 01-.59-2 40.38 40.38 0 01.69-7.91 21.63 21.63 0 00-2.63 6.41 12.24 12.24 0 00-.18 3.59 14.07 14.07 0 01-.79-1.7 23.46 23.46 0 01-1.06-4.4 37.73 37.73 0 012.69-7.38s-4.28 6.83-4.9 10.31a9.83 9.83 0 01-1.9 4.16 12.18 12.18 0 010-4.49c.88-5 4.73-10.69 4.73-10.69a27.06 27.06 0 00-6.1 8.15 18.58 18.58 0 00-1.47 4.2c-.44-1.45-1-3.22-1.5-5.28-1.6-6-5.3-8.38-5.3-8.38a24.7 24.7 0 013.19 8.66 16.42 16.42 0 01-.2 7.27 9 9 0 01-.35-1 25.59 25.59 0 01-.68-4.07 21.21 21.21 0 00-.45 4.65c.05.45.1.84.15 1.19a13.68 13.68 0 01-1.48-2.82 25.37 25.37 0 01-1.2-5.39 24 24 0 00-.84 5.54c-.51-2-1.16-4.68-1.84-7.93-1.6-7.55-5.3-10.46-5.3-10.46a35.56 35.56 0 013.19 10.72 25.27 25.27 0 01-.48 10.28c0-1.21 0-3.08-.08-5.37a19.3 19.3 0 00-2.11-7.5 22 22 0 01.34 8.69 12.29 12.29 0 01-1.58 4 31.63 31.63 0 00-.35-3.17 12 12 0 00-2.6-5.15 15.24 15.24 0 01.94 4.9 10.63 10.63 0 01-1.05 3.45c-.55-1.61-1.43-4.38-2.39-8-1.6-6-5.3-8.38-5.3-8.38a24.46 24.46 0 013.19 8.55 16.12 16.12 0 01-.72 8.9A19.26 19.26 0 0137 230a15.46 15.46 0 01.85-7.19s-2.9 3.6-3.07 7.4a12.28 12.28 0 00-2.53-4.81 15.54 15.54 0 01.94 4.9 8.5 8.5 0 01-.63 2.46c-.55-2.06-1.36-5.29-2.24-9.43-1.59-7.55-5.29-10.46-5.29-10.46a35.41 35.41 0 013.18 10.72 25.5 25.5 0 01.1 7.37c0-.74 0-1.57-.09-2.46a19.3 19.3 0 00-2.11-7.5 22 22 0 01.34 8.69 11.45 11.45 0 01-2.05 4.7 42.32 42.32 0 00-.11-10.34c-.86-5-2.6-7.21-2.6-7.21a43.1 43.1 0 011 11.77 24 24 0 01-.71 4.17 12.24 12.24 0 01-.77-1.67 25.37 25.37 0 01-1.2-5.39s-1.08 3.94-.8 6.16c.08.63.18 1.18.28 1.65a13.37 13.37 0 01-1.31-2.51 14.87 14.87 0 01-1-4 22.32 22.32 0 01.59-2.42 60 60 0 013.48-9.22s-5.89 8.27-7.5 12.83c-.23-.79-.46-1.63-.7-2.53-1.59-6-5.29-8.38-5.29-8.38A24.59 24.59 0 0111 226a16.39 16.39 0 01-.25 7.51c-.06-.8-.16-1.79-.34-2.89a12 12 0 00-2.59-5.15 15.54 15.54 0 01.94 4.9A11.51 11.51 0 017.57 234c0-1.21 0-3.11-.08-5.47A19.11 19.11 0 005.38 221a22.17 22.17 0 01.35 8.69 13 13 0 01-1.29 3.54A22.91 22.91 0 013.7 230a15.39 15.39 0 01.86-7.19s-2.91 3.6-3.08 7.41a31.6 31.6 0 000 3.41A11.37 11.37 0 011 232.2a23.63 23.63 0 01-.65-3.86 34.88 34.88 0 013-9S1.62 222 .21 224.89v10.53h335.88z" transform="translate(.43)"/><path class="cls-49" d="M290.49 175a4.62 4.62 0 011.11 0 5.28 5.28 0 01-.7-.83c-.5-.77-.5-1.33-.19-1.53s.82 0 1.33.79a3.46 3.46 0 01.61 1.69h.07s.91.45 2.39 1.31c-.08-.13-.16-.27-.23-.41-.52-1-.46-1.69-.05-1.91s1 .14 1.52 1.14a4.18 4.18 0 01.54 2.15v.09c1.18.73 2.58 1.64 4.12 2.72-.1-.21-.2-.42-.29-.64-.49-1.29-.33-2.13.19-2.34s1.2.29 1.69 1.58a5.07 5.07 0 01.38 2.68.51.51 0 010 .13c1.42 1 2.92 2.22 4.48 3.52-.09-.23-.18-.46-.25-.7-.46-1.56-.19-2.54.44-2.74s1.38.45 1.84 2a6.32 6.32 0 01.2 3.19v.14c.92.82 1.85 1.67 2.78 2.58.51.48 1 1 1.54 1.52-.13-.32-.25-.65-.35-1-.52-1.81-.2-2.93.53-3.16s1.59.53 2.11 2.34a7.32 7.32 0 01.2 3.68 1 1 0 01-.21.52c1.35 1.46 2.71 3.05 4.07 4.75a11 11 0 01-.23-1.74c-.1-2.14.54-3.31 1.39-3.38s1.6 1 1.7 3.13a8.29 8.29 0 01-.73 4.14 1.81 1.81 0 01-.2.37c1.3 1.76 2.58 3.63 3.82 5.62a11.87 11.87 0 01-.11-1.58c0-2.4.77-3.67 1.73-3.7s1.73 1.19 1.73 3.58a9.37 9.37 0 01-1 4.6 1.43 1.43 0 01-.32.48c1.07 1.91 2.08 3.92 3 6a14.48 14.48 0 010-1.61c.23-2.64 1.2-4 2.26-3.92s1.78 1.47 1.55 4.12a10.37 10.37 0 01-1.58 5 1.38 1.38 0 01-.53.58q1.29 3.34 2.31 7l-.76-.08q-1-3.43-2.21-6.6a2.28 2.28 0 01-.46 0 10.2 10.2 0 01-5-1.49c-2.29-1.3-3-2.71-2.49-3.62s2.18-1 4.48.33a14 14 0 012.09 1.48c-1-2.38-2.17-4.64-3.37-6.78a1.8 1.8 0 01-.5.06 9.23 9.23 0 01-4.6-1c-2.18-1-3-2.21-2.54-3.07s1.9-1 4.08 0a12.56 12.56 0 011.83 1c-1.3-2.12-2.66-4.12-4-6a1.58 1.58 0 01-.48.09 8.5 8.5 0 01-4.16-.66c-2-.8-2.75-1.85-2.4-2.64s1.65-1 3.65-.2a10.15 10.15 0 011.2.57q-1.91-2.37-3.8-4.42h-.12a7.51 7.51 0 01-3.76.25c-1.89-.29-2.76-1-2.61-1.78s1.24-1.18 3.12-.89a11.19 11.19 0 011.44.34 86.72 86.72 0 00-4.52-4.31 1.3 1.3 0 01-.33.14 6.45 6.45 0 01-3.25.24c-1.64-.23-2.4-.88-2.28-1.51s1.06-1 2.7-.8a9 9 0 011.27.28c-1.68-1.41-3.29-2.67-4.8-3.79a.6.6 0 01-.16.08 5.67 5.67 0 01-2.73.41c-1.4-.1-2.09-.59-2-1.14s.84-.93 2.24-.84c.25 0 .5.05.74.09-1.55-1.08-2.94-2-4.12-2.72a4.65 4.65 0 01-2.21.57c-1.15 0-1.75-.3-1.75-.75s.59-.83 1.75-.87h.45c-1.45-.84-2.3-1.26-2.33-1.27l-.07-.06a3.79 3.79 0 01-1.69.6c-.93.13-1.45-.1-1.49-.46s.36-.63 1.29-.73z" transform="translate(.43)"/><path class="cls-48" d="M280.91 193.56a4.89 4.89 0 011.09-.25 4.09 4.09 0 01-.86-.67c-.64-.64-.76-1.19-.5-1.46s.81-.14 1.46.51a3.33 3.33 0 01.94 1.53h.08s1 .26 2.61.8a3.38 3.38 0 01-.31-.35c-.71-.87-.8-1.57-.44-1.86s1-.07 1.72.81a4.07 4.07 0 011 2v.08c1.31.48 2.86 1.09 4.59 1.83a4.57 4.57 0 01-.41-.57c-.75-1.16-.76-2-.29-2.32s1.23 0 2 1.2a5.27 5.27 0 01.91 2.55v.13c1.6.73 3.31 1.58 5.1 2.54-.13-.21-.26-.42-.38-.64-.77-1.43-.71-2.44-.13-2.77s1.44.16 2.21 1.6a6.19 6.19 0 01.84 3.07.38.38 0 010 .15c1.07.62 2.15 1.27 3.25 2 .59.38 1.2.77 1.81 1.18-.19-.28-.37-.58-.54-.89-.87-1.66-.78-2.83-.12-3.19s1.66.19 2.54 1.86A7.14 7.14 0 01310 206a1 1 0 01-.1.55q2.43 1.74 4.95 3.83a11.22 11.22 0 01-.58-1.66c-.53-2.07-.14-3.35.68-3.59s1.77.65 2.3 2.72a8.29 8.29 0 01.12 4.2 1.83 1.83 0 01-.12.41c1.63 1.46 3.26 3 4.88 4.73a12.79 12.79 0 01-.43-1.53c-.49-2.35 0-3.75.94-4s1.94.81 2.43 3.16a9.34 9.34 0 01-.09 4.71 1.51 1.51 0 01-.22.54q2.14 2.48 4.19 5.27a12.34 12.34 0 01-.29-1.59c-.31-2.63.37-4.14 1.41-4.3s2.05 1.08 2.36 3.72a10.48 10.48 0 01-.54 5.2 1.44 1.44 0 01-.4.68q1.93 3 3.68 6.36l-.77.07c-1.1-2.11-2.27-4.11-3.49-6a1.85 1.85 0 01-.45.11 10.23 10.23 0 01-5.18-.45c-2.5-.81-3.52-2-3.17-3s2-1.39 4.46-.58a13 13 0 012.35 1 90.886 90.886 0 00-4.68-6 1.61 1.61 0 01-.47.16 9.38 9.38 0 01-4.71 0c-2.33-.54-3.35-1.57-3.11-2.49s1.66-1.4 4-.87a13.11 13.11 0 012 .65c-1.71-1.81-3.44-3.5-5.17-5.05a1.52 1.52 0 01-.46.19 8.32 8.32 0 01-4.2.19c-2.11-.38-3.07-1.26-2.89-2.09s1.42-1.32 3.54-.94a11.57 11.57 0 011.29.32 88.979 88.979 0 00-4.62-3.57.41.41 0 01-.11.07 7.51 7.51 0 01-3.63 1c-1.91.1-2.91-.45-2.92-1.2s1-1.41 2.88-1.51a10.37 10.37 0 011.48 0c-.73-.49-1.44-1-2.14-1.4-1.07-.68-2.13-1.31-3.16-1.91a1.45 1.45 0 01-.29.21 6.55 6.55 0 01-3.14.89c-1.65.1-2.52-.37-2.54-1s.83-1.23 2.49-1.33a9.41 9.41 0 011.3 0c-1.93-1-3.76-2-5.47-2.75l-.14.11a5.58 5.58 0 01-2.59.95c-1.4.2-2.17-.15-2.22-.7s.63-1.08 2-1.27a6.37 6.37 0 01.74-.07c-1.73-.74-3.28-1.35-4.58-1.82a4.72 4.72 0 01-2 1c-1.12.27-1.78.06-1.87-.38s.42-.94 1.54-1.21a3.43 3.43 0 01.44-.09c-1.58-.53-2.5-.77-2.53-.77h-.08a4.1 4.1 0 01-1.54.93c-.89.31-1.44.19-1.55-.15s.19-.79 1.1-1.1z" transform="translate(.43)"/><path class="cls-49" d="M.12 224.39V229c1.88-1.39 2.44-2.8 1.88-3.76a2 2 0 00-1.88-.85zm45.52-51.14a6.89 6.89 0 00-1.43 0 5.6 5.6 0 00.9-1.07c.65-1 .66-1.72.26-2s-1.07 0-1.72 1a4.43 4.43 0 00-.8 2.19h-.09s-1.17.58-3.09 1.69c.1-.17.21-.34.3-.52.67-1.3.59-2.2.06-2.47s-1.3.17-2 1.47a5.49 5.49 0 00-.7 2.79v.11c-1.54.95-3.34 2.12-5.34 3.52a8.84 8.84 0 00.38-.83c.64-1.67.43-2.75-.25-3s-1.55.37-2.19 2a6.77 6.77 0 00-.49 3.47v.17c-1.83 1.35-3.78 2.87-5.8 4.56.12-.3.23-.6.32-.91.61-2 .26-3.28-.56-3.55s-1.79.59-2.38 2.61a8 8 0 00-.26 4.12v.19q-1.77 1.58-3.59 3.33c-.66.63-1.32 1.29-2 2 .17-.41.32-.84.45-1.27.67-2.34.25-3.79-.69-4.08s-2 .68-2.72 3a9.27 9.27 0 00-.26 4.76 1.36 1.36 0 00.26.67 117.5 117.5 0 00-5.26 6.16 14 14 0 00.3-2.26c.13-2.77-.7-4.28-1.8-4.37s-2.07 1.28-2.21 4.05a10.83 10.83 0 00.95 5.35 2.46 2.46 0 00.26.49c-1.51 2-3 4.22-4.44 6.51v1.72c1.67-2.72 3.41-5.28 5.18-7.68a1.8 1.8 0 00.62.12 10.91 10.91 0 005.38-.86c2.58-1 3.56-2.4 3.11-3.41s-2.14-1.3-4.72-.26a13.07 13.07 0 00-1.56.74c1.64-2.05 3.29-4 4.92-5.73l.16.05a9.74 9.74 0 004.86.33c2.45-.38 3.57-1.34 3.39-2.3s-1.61-1.53-4.05-1.15a12.6 12.6 0 00-1.86.44c.79-.81 1.57-1.59 2.34-2.33a128.2 128.2 0 013.51-3.26 1.26 1.26 0 00.42.19 8.47 8.47 0 004.21.32c2.12-.31 3.1-1.14 2.95-2s-1.38-1.34-3.5-1a11.44 11.44 0 00-1.64.37c2.17-1.83 4.26-3.46 6.21-4.91a1 1 0 00.21.1 7.24 7.24 0 003.53.53c1.82-.12 2.7-.76 2.63-1.47s-1.08-1.21-2.9-1.09a7.47 7.47 0 00-1 .12c2-1.4 3.8-2.57 5.33-3.52a6 6 0 002.85.74c1.5.05 2.27-.39 2.28-1s-.78-1.08-2.28-1.14h-.57c1.87-1.09 3-1.63 3-1.65a.28.28 0 00.09-.07 5 5 0 002.19.78c1.2.16 1.87-.13 1.92-.6s-.37-.84-1.58-1zm-43.2 40.38A15.47 15.47 0 00.12 215v3.94a15.34 15.34 0 004.32-1.24c2.81-1.29 3.83-2.86 3.28-4s-2.46-1.36-5.28-.07z" transform="translate(.43)"/><path d="M58 197.29a6.09 6.09 0 00-1.4-.31 5.92 5.92 0 001.1-.87c.84-.84 1-1.55.66-1.89s-1.06-.18-1.89.65a4.46 4.46 0 00-1.23 2h-.09s-1.27.32-3.38 1c.14-.15.28-.3.4-.45.92-1.14 1-2 .57-2.41s-1.31-.1-2.23 1a5.45 5.45 0 00-1.25 2.59v.11c-1.69.62-3.7 1.4-5.94 2.37.19-.24.38-.49.54-.74 1-1.5 1-2.61.37-3s-1.59.05-2.56 1.55a6.76 6.76 0 00-1.18 3.3v.17c-2.07.95-4.28 2-6.6 3.29.17-.27.34-.54.49-.83 1-1.85.92-3.16.17-3.58s-1.87.2-2.86 2.06a8.1 8.1 0 00-1.09 4v.19q-2.07 1.19-4.2 2.54c-.77.48-1.55 1-2.34 1.52.25-.37.48-.76.69-1.15 1.13-2.15 1-3.66.16-4.14s-2.15.26-3.28 2.41a9.31 9.31 0 00-1.22 4.61 1.3 1.3 0 00.12.71 104.28 104.28 0 00-6.4 5 14.39 14.39 0 00.75-2.15c.69-2.69.19-4.34-.88-4.65s-2.28.83-3 3.52a10.66 10.66 0 00-.16 5.43 1.75 1.75 0 00.16.53q-3.18 2.84-6.32 6.12a14.77 14.77 0 00.56-2c.63-3 0-4.86-1.23-5.15s-2.5 1.05-3.13 4.09a12.11 12.11 0 00.11 6.1 2.31 2.31 0 00.28.7c-.4.46-.8.94-1.2 1.42v1.48c.62-.77 1.24-1.54 1.88-2.27a2.17 2.17 0 00.61.21 12 12 0 006.09 0c3-.7 4.34-2 4-3.23s-2.14-1.81-5.16-1.12a15.82 15.82 0 00-2.6.85c2.21-2.36 4.46-4.53 6.7-6.54a1.75 1.75 0 00.58.24 10.78 10.78 0 005.44.25c2.74-.49 4-1.62 3.74-2.71s-1.84-1.7-4.57-1.21a13.28 13.28 0 00-1.68.41c2-1.67 4-3.21 6-4.61l.15.08a9.7 9.7 0 004.69 1.3c2.47.13 3.76-.59 3.78-1.56s-1.26-1.82-3.73-2a13.46 13.46 0 00-1.91.05c.94-.63 1.86-1.23 2.77-1.81 1.38-.87 2.75-1.7 4.09-2.47a2 2 0 00.37.27 8.63 8.63 0 004.06 1.16c2.14.13 3.27-.49 3.29-1.33s-1.08-1.59-3.22-1.72a11.75 11.75 0 00-1.68 0c2.5-1.35 4.87-2.53 7.07-3.54l.19.14a7.21 7.21 0 003.35 1.23c1.81.25 2.8-.2 2.87-.91s-.81-1.4-2.61-1.65a7.77 7.77 0 00-1-.08c2.24-1 4.24-1.75 5.93-2.37a5.86 5.86 0 002.64 1.3c1.46.36 2.31.08 2.43-.49s-.54-1.21-2-1.57l-.56-.11c2.05-.68 3.24-1 3.28-1h.1a5.09 5.09 0 002 1.2c1.15.4 1.86.25 2-.19s-.26-.93-1.45-1.34zm278.09 2.11c-1.23-2.39-2.49-4.65-3.76-6.76a1.28 1.28 0 00.39-.6 9.15 9.15 0 00.69-4.67c-.18-2.4-1.07-3.57-2-3.48s-1.66 1.43-1.47 3.83a11.63 11.63 0 00.18 1.32c-.52-.79-1-1.56-1.54-2.31-.94-1.37-1.89-2.69-2.83-3.94l.08-.18a8.18 8.18 0 00.56-4.05c-.18-2.08-1-3.09-1.8-3s-1.43 1.25-1.25 3.33c0 .31.08.63.13 1-1.62-2-3.21-3.9-4.72-5.58a.76.76 0 00.06-.16 6.62 6.62 0 00.22-3.46c-.29-1.74-1-2.54-1.73-2.41s-1.12 1.14-.83 2.88a8.63 8.63 0 00.2.88 116.62 116.62 0 00-4.48-4.47.43.43 0 000-.11 5.43 5.43 0 00-.12-2.85c-.39-1.39-1.06-2-1.62-1.81s-.82 1-.43 2.41c.05.19.12.38.19.57-1.64-1.47-2.64-2.24-2.67-2.26h-.08a4.35 4.35 0 00-.34-2.28c-.43-1.09-1-1.51-1.46-1.33s-.58.88-.15 2a5.45 5.45 0 00.67 1.21 6.81 6.81 0 00-1.4-.26c-1.2-.08-1.87.26-1.91.72s.54.88 1.75 1a5 5 0 002.28-.32.27.27 0 00.07.08s1 .78 2.59 2.2a5.59 5.59 0 00-.56-.12c-1.46-.24-2.31.09-2.43.65s.55 1.14 2 1.39a6 6 0 002.91-.15c1.3 1.22 2.81 2.72 4.48 4.47-.3-.11-.6-.21-.91-.3-1.74-.48-2.81-.18-3 .49s.52 1.46 2.26 1.94a7.18 7.18 0 003.53.19l.22-.05c1.61 1.78 3.31 3.78 5 6a11 11 0 00-1.52-.69c-2-.71-3.29-.46-3.6.31s.48 1.77 2.48 2.49a8.33 8.33 0 004.15.53 1.36 1.36 0 00.44-.1c.92 1.23 1.84 2.52 2.76 3.85.6.88 1.2 1.79 1.81 2.73a12.24 12.24 0 00-1.72-.79c-2.29-.85-3.79-.57-4.15.32s.53 2 2.83 2.9a9.63 9.63 0 004.78.64h.16c1.23 2 2.45 4.22 3.64 6.53a13.49 13.49 0 00-1.36-1c-2.3-1.52-4-1.58-4.64-.68s.05 2.41 2.34 3.92a11.94 11.94 0 004.6 1.88z" transform="translate(.43)" fill="#6d3453"/></g></g></svg>