<svg xmlns="http://www.w3.org/2000/svg" xmlns:xlink="http://www.w3.org/1999/xlink" width="720" height="503.999"><linearGradient id="a" gradientUnits="userSpaceOnUse" x1="360" y1="503.987" x2="360" y2="-.01"><stop offset=".032" stop-color="#efe5b4"/><stop offset=".1" stop-color="#eae4b8"/><stop offset=".183" stop-color="#dbe3c5"/><stop offset=".238" stop-color="#cde1d1"/><stop offset=".352" stop-color="#c1dcce"/><stop offset=".468" stop-color="#bcd9cc"/><stop offset=".54" stop-color="#b7d9d2"/><stop offset=".728" stop-color="#aed8dd"/><stop offset=".935" stop-color="#abd8e1"/></linearGradient><path fill="url(#a)" d="M0-.011h720.001v503.998H0z"/><g fill="#FFF"><path opacity=".2" d="M50.817-.052l37.75.011s-36.254 36.333 65.079 45.666S321.681 32.85 336.664 16.399L351.646-.052l37.333.011s-44.411 16.44-58.666 41.729c-11.028 19.563-84.113 52.729-142 53.278C62.312 96.161 48.118-.052 50.817-.052z"/><path opacity=".3" d="M0 71.333C0 72.09 41.69 122.568 77 128s154.874 44.241 249-7.5c84.352-46.369 8.314-41.841 31.848-81.307C373.209 13.434 493.63 0 562 0h158.001v33.574S651.634 40.522 629 88.5c-22.635 47.978-146.428 20.915-188.126 23.631-41.697 2.716-114.822 47.232-152.577 67.803s-94.643 4.365-115.466-2.294C152.007 170.98 15.448 138.057 0 151.239V71.333z"/></g><path fill="#BCD9CC" d="M0 274.851l385.008.675L720 274.851v220.684l-720-2.94z"/><path fill="#3A516E" d="M0 0v136.25s64 17.852 81-28.699 26.169-9.871 40.478-12.544c22.566-4.215 31.865-47.133 18.193-64.07s31.416 17.38 49.33-3.406c9.043-10.493 15.624-27.583 15.624-27.583L0 0z"/><path fill="#CFE4D3" d="M340.541 235.25l51.645 37.968 10.043-6.167zm-84.25-24.031l76.346 26.343-36.471 10.157s-35.375-21.75-34.625-21.75 18.276 1.057 18.276 1.057l-23.526-15.807z"/><path fill="#7AB0B6" d="M83.842 274.25l135.829-65.531 6.5 6.75-4.25.25 5.75 6.75 10.087 26.25-32.587-17.25 1.75 7.25h-2.25l17.232 37.75z"/><path fill="#CFE4D3" d="M219.671 208.719l23.261 8.027-15.261 5.723-5.75-6.75 5-.125zm2.232 67.75h35.768l-19.913-27.75-32.587-17.25 1.75 7.25h-2.25z"/><path fill="#4F769A" d="M0 260.009l53.826-22.333 58.027 28.625 80.54 9.317-1.332.208H0z"/><path fill="#7AB0B6" d="M53.826 237.676L110 273l87.833 2.826z"/><path fill="#4F769A" d="M492.083 276.469L720 275.826l.001-21.555-51.529-24.914 14.362 14.362-20.225-12.896s-40.742-24.036-41.915-24.329c-1.172-.293 5.569 10.552 5.569 10.552l-71.665-26.233-35.174 26.38 18.319-6.595-33.414 28.725 38.104-13.483-47.484 29.312-2.866 21.317z"/><path fill="#7DB1BA" d="M385.008 276.469l156.624-85.656-5.716 8.793 19.199-8.793-35.174 26.38 17.707-6.374-32.801 28.504 38.104-13.483-47.484 29.311-3.384 21.318zm214.517-69.21c.775.283 21.169-.765 21.169-.765l5.569 10.552-26.738-9.787zm62.131 23.002l6.816-.904 14.362 14.363z"/><path fill="#4F769A" d="M554.599 190.813h-13.484l-5.716 8.793z"/><path fill="#7AB0B6" d="M297.546 247.719c.75-.125 44.375-12.375 44.375-12.375l54.579 41.125-96.204-.002-2.75-28.748z"/><path fill="#7AB0B6" d="M227.671 222.469l30-11.25 23.527 15.806h-16.82l33.168 20.694 2.75 28.748-51.875.002z"/><g opacity=".2"><path fill="#CFE4D3" d="M340.541 299.489l51.645-22.821 10.043 3.706zm-84.25 14.446l76.346-15.835-36.471-6.104s-35.375 13.073-34.625 13.073 18.276-.635 18.276-.635l-23.526 9.501z"/><path fill="#7AB0B6" d="M83.842 276.047l135.83 39.391 6.5-4.058-4.25-.151 5.75-4.057 10.086-15.777-32.586 10.368 1.75-4.359h-2.25l17.231-22.69z"/><path fill="#CFE4D3" d="M219.672 315.438l23.26-4.826-15.26-3.44-5.75 4.057 5 .075zm2.231-40.724h35.769l-19.914 16.681-32.586 10.368 1.75-4.359h-2.25z"/><path fill="#4F769A" d="M0 284.607l53.826 13.424 58.027-17.207 80.54-5.599-1.332-.124H0z"/><path fill="#7AB0B6" d="M53.826 298.031L110 276.799l87.834-1.698z"/><path fill="#4F769A" d="M492.083 274.714l227.917.387.001 12.956-51.529 14.976 14.362-8.635-20.225 7.753s-40.742 14.448-41.915 14.623c-1.172.177 5.569-6.342 5.569-6.342L554.599 326.2l-35.174-15.857 18.319 3.965-33.414-17.267 38.104 8.105-47.484-17.619-2.867-12.813z"/><path fill="#7DB1BA" d="M385.008 274.714L541.632 326.2l-5.716-5.286 19.199 5.286-35.174-15.857 17.707 3.832-32.801-17.134 38.104 8.105-47.484-17.619-3.384-12.813zm214.517 41.601c.775-.171 21.169.458 21.169.458l5.569-6.342-26.738 5.884zm62.131-13.827l6.816.544 14.362-8.635z"/><path fill="#4F769A" d="M554.599 326.2h-13.484l-5.716-5.286z"/><path fill="#7AB0B6" d="M297.547 291.995c.75.074 44.375 7.438 44.375 7.438l54.579-24.72-96.203.001-2.751 17.281z"/><path fill="#7AB0B6" d="M227.672 307.172l30 6.763 23.525-9.501h-16.818l33.168-12.439 2.75-17.28-51.875-.001z"/></g><circle fill="#F7EBBC" cx="354.86" cy="133.5" r="45"/><circle opacity=".5" fill="#F7EBBC" cx="309.86" cy="365.965" r="37.165"/><path fill="#3E3155" d="M0 369.636v134.341h22.581l9.752-92.341 7.852-95.314 7.482-90.822L75.25 62.125 126-.011h-7.965L72.333 43.032 48.171-.011h-8.588l17.99 56.981z"/><path fill="#1F1F2A" d="M45.748 123.024L0 17.705v11.531l42.415 112.121z"/><path fill="#1F1F2A" d="M21.1 66.041L27.605 0 21.59.097l-7.236 51.6 6.62 15.626M0 369.636v112.031l22.581-165.334 23.551-149.474L66.833 57 44.625-.011h-5.042l17.99 56.981z"/><path fill="#7C7496" d="M70.167 63.333l5.083-1.208L126-.011l-2 .108zm-36.75 235.001l-2.335 25.552 7.42 12.864 1.941-26.382zM29 339.25l8.185 13.496-.524 6.361L29 347zm27.301-164.888l-.941 5.572-6.735-4.684.89-5.895zm-1.932 11.846l-.638 3.373L47.25 185l.763-3.991z"/><path fill="#1F1F2A" d="M.238 489.434c-.088-.694-8.218-69.647 50.829-100.336l.653 1.257C-6.458 420.594 1.557 488.57 1.645 489.254l-1.407.18z"/><path fill="#3E3155" d="M232.631 358.781s24.676 11.508 30.2 9.35c5.523-2.156-7.734 2.538-17.953-12.929-4.1-6.206-9.001-10.365-14.061-13.018-7.55-3.954-15.451-4.547-21.57-3.556-2.184.354-4.911.357-7.871.086-10.888-1.002-24.916-5.685-26.654-10.029-2.208-5.524-5.8 11.878-5.8 11.878V326.2s-29.83-6.353-47.783 3.593c-8.634 4.782-2.485 22.646-2.485 22.646l-10.772-20.716s-22.372 3.039-32.04 14.087c-9.667 11.048-20.439 5.801-24.582 6.076-4.144.277-13.811 21.267 0 32.592 13.81 11.324 43.916-20.2 80.375-23.908 36.459-3.712 83.497-4.752 100.996-1.789z"/><path fill="#7C7496" d="M212.496 347.371c3.533-4.144 12.751-5.756 20.551-3.595l.148-.531c-7.988-2.214-17.46-.523-21.12 3.767l.421.359zm-19.563-.119c1.055-4.737 4.224-7.826 8.471-8.264l-.057-.551c-5.294.549-8.096 4.849-8.954 8.693l.54.122zm-17.389 1.287l.545-.1c-1.868-10.354 5.438-14.466 5.513-14.505l-.263-.486c-.077.041-7.735 4.331-5.795 15.091z"/><image overflow="visible" width="27" height="96" xlink:href="39811EFC7DDEAB35.png" transform="matrix(.24 0 0 .24 147.933 323.972)"/><path fill="#7C7496" d="M228.341 357.334c.184-.346 4.66-8.439 15.736-2.879l.249-.496c-11.568-5.807-16.425 3.027-16.473 3.118l.488.257z"/><image overflow="visible" width="26" height="90" xlink:href="39811EFC7DDEAB37.png" transform="matrix(.24 0 0 .24 127.13 325.214)"/><path fill="#7C7496" d="M97.067 353.486l.369-.412c-11.265-10.021-7.533-16.15-7.493-16.211l-.465-.302c-.169.263-4.061 6.559 7.589 16.925zm-13.468 8.849l.243-.495c-5.595-2.742-8.831-5.886-9.615-9.342-.753-3.316 1.115-5.729 1.134-5.755l-.434-.34c-.083.104-2.05 2.646-1.239 6.217.823 3.627 4.158 6.896 9.911 9.715zm-22.051 10.494l.322-.451c-6.559-4.683-8.303-9.871-8.61-13.399-.334-3.826.899-6.588.912-6.615l-.502-.23c-.053.112-5.045 11.467 7.878 20.695z"/><path fill="#1F1F2A" d="M237.277 360.625s-11.75-4.405-24.991-13.434c-12.435-8.477-15.466 6.076-15.466 6.076v-6.627s-22.096 3.312-31.211 1.104c-9.115-2.211-55.794-2.565-56.621 3.551-.829 6.116 8.563 9.274 8.563 9.274l-19.611-8.661s-2.485 6.571-10.221 8.661c-7.732 2.089-11.323.984-15.19 1.812-3.866.83-11.66 12.983-16.878 15.192-5.218 2.211-6.322 6.904-7.703 13.259-1.381 6.351 27.896-10.497 53.306-18.507 25.41-8.009 34.734-11.264 69.327-13.256 32.31-1.864 56.055-3.745 66.696 1.556z"/><path fill="#2E2442" d="M680.315 390.527s-24.67-37.864-36.197-42.564c-11.67-4.757-19.052-5.886-42.39-4.757 0 0 13.336-4.242 34.53-4.396 21.194-.154 22.624 2.279 26.673 4.396 4.047 2.117 13.098 11.006 19.052 12.116 5.953 1.111 12.382 7.039 7.145 14.938-4.699 7.085-10.319 12.189-9.113 18.69.139.75-.043.764.3 1.577z"/><path fill="#7C7496" d="M580.771 338.804s18.575 4.689 22.386 4.402c5.589-.422 41.684-5.567 48.824-3.759s-29.005-7.402-38.822-3.553c-13.336 5.233-27.625 5.772-32.388 2.91z"/><path fill="#2E2442" d="M701.882 481.883l-1.22-.042c1.876-58.329-21.69-93.358-21.924-93.689l1.276.8c.239.333 23.76 34.134 21.868 92.931z"/><path fill="#1F1F2A" d="M118.954 35.267s2.941 2.753 7.601 2.91c4.66.158 8.48-.952 8.827-1.89.346-.939-14.941-1.542-20.336-5.67-1.212-.927 3.122 4.06 3.908 4.65z"/><path fill="#3E3155" d="M104.464 27.037s9.229 15.11 17.86 14.189c2.141-.229-6.81-9.878-6.81-9.878s4.573 2.567 8.252 3.879c2.969 1.059 8.007 1.656 11.616 1.06 0 0-6.802-10.156-12.644-10.587 0 0 2.65-3.455 4.029-5.053.459-.531-9.085-1.659-11.043-1.184-1.957.475-7.18 1.326-11.26 7.574z"/><path fill="#1F1F2A" d="M104.464 27.037s2.043-6.485 7.753-8.978c5.712-2.493 12.866 1.134 14.55 2.588 1.684 1.454-9.027-1.995-13.924.271-4.899 2.268-7.385 5.326-8.379 6.119z"/><g fill="#1F1F2A"><path d="M21.667 48.488c-.078.294 7.633 2.115 16.603-6.834.206-.205-3.814-.377-3.814-.377s5.396-4.113 6.041-10.251c.112-1.069-11.311 7.249-12.562 11.09 0 0 2.022-2.63 2.488-7.428.112-1.151-6.459 5.157-8.756 13.8z"/><path d="M28.197 41.902s.042-3.161 4.939-7.196c3.731-3.075 7.323-3.769 7.323-3.769-.329.078-4.603 3.11-6.883 4.913-2.242 1.774-5.491 5.196-5.379 6.052m10.073-.248c-.001-.039-2.976 3.021-7.172 4.934-7.36 3.354-9.431 1.901-9.431 1.901s2.322 1.503 6.019.708c3.445-.741 6.19-2.81 8.212-4.856s2.372-2.687 2.372-2.687z"/></g><path fill="#3E3155" d="M84.862 26.974c-.126.319-9.655-2.071-12.843-15.286-.074-.303 4.339 1.676 4.339 1.676s-2.824-6.751.865-12.882c.644-1.067 6.9 12.857 5.496 17.146 0 0-.283-3.556 2.643-8.328.701-1.144 3.214 8.303-.5 17.674z"/><path fill="#1F1F2A" d="M82.591 17.287s2.209-3.003-.139-9.415C80.663 2.986 77.326.419 77.326.419c.296.249 2.695 5.383 3.842 8.297 1.127 2.867 2.152 7.824 1.423 8.571M72.02 11.688c.029-.036 1.021 4.433 4.134 8.471 5.461 7.082 8.708 6.815 8.708 6.815s-3.55.181-6.929-2.538c-3.148-2.534-4.601-5.946-5.298-8.953-.697-3.005-.615-3.795-.615-3.795z"/><path fill="#3E3155" d="M99.345 33.284c-.253-.228-6.013 6.494-1.726 19.985.098.31 2.33-3.593 2.33-3.593s1.318 7.465 7.082 11.251c1.003.659-1.399-14.944-4.572-18.155 0 0 1.574 3.355 6.099 6.277 1.085.702-1.81-9.054-9.213-15.765z"/><path fill="#1F1F2A" d="M102.536 43.143s3.116 1.662 4.612 8.591c1.14 5.28-.012 9.202-.012 9.202.091-.367-.728-6.164-1.349-9.352-.611-3.135-2.344-8.113-3.251-8.441M97.62 53.27c.039.019-1.474-4.503-1.222-9.648.442-9.026 2.948-10.337 2.948-10.337s-2.684 1.535-3.789 5.612c-1.03 3.8-.383 7.585.612 10.642s1.451 3.731 1.451 3.731z"/><g fill="#1F1F2A"><path d="M48.602 23.364c.014.205-5.353.433-10.179-6.672-.111-.163 2.585.235 2.585.235s-3.064-3.427-2.71-7.595c.062-.727 6.604 6.27 6.946 8.988 0 0-1.01-2.009-.708-5.264.073-.779 3.64 4.26 4.066 10.308z"/><path d="M45.097 18.144s.376-2.11-2.369-5.421c-2.091-2.524-4.394-3.446-4.394-3.446.209.095 2.668 2.659 3.954 4.151 1.267 1.467 2.993 4.161 2.809 4.716m-6.674-1.452c.004-.026 1.594 2.392 4.143 4.201 4.471 3.174 6.036 2.471 6.036 2.471s-1.738.704-4.098-.299c-2.198-.932-3.763-2.662-4.846-4.282-1.085-1.621-1.235-2.091-1.235-2.091z"/></g><g fill="#1F1F2A"><path d="M17.95 79.792c.07-.251-6.504-1.901-14.284 5.647-.179.173 3.258.368 3.258.368s-4.665 3.454-5.29 8.697c-.109.913 9.762-6.065 10.878-9.336 0 0-1.761 2.226-2.217 6.324-.11.984 5.587-4.334 7.655-11.7z"/><path d="M12.285 85.348s-.074 2.704-4.312 6.096C4.745 94.03 1.665 94.58 1.665 94.58c.282-.062 3.975-2.604 5.948-4.12 1.938-1.49 4.757-4.378 4.672-5.112m-8.619.091c0 .034 2.582-2.548 6.194-4.134 6.336-2.781 8.09-1.513 8.09-1.513s-1.969-1.314-5.141-.678c-2.956.593-5.328 2.329-7.083 4.056-1.753 1.726-2.06 2.269-2.06 2.269z"/></g><g fill="#1F1F2A"><path d="M10.113 147.449c.033.219 5.502-1.069 8.714-9.841.074-.202-2.556.98-2.556.98s2.293-4.442.96-8.686c-.232-.739-5.199 8.409-4.909 11.338 0 0 .55-2.38-.517-5.685-.254-.792-2.678 5.472-1.692 11.894z"/><path d="M12.431 141.016s-.873-2.092 1.124-6.322c1.52-3.224 3.629-4.837 3.629-4.837-.189.157-2.071 3.527-3.022 5.448-.935 1.887-2.046 5.183-1.731 5.711m6.396-3.408c-.012-.026-1.051 2.944-3.2 5.553-3.771 4.577-5.514 4.288-5.514 4.288s1.918.24 4.066-1.473c2.001-1.597 3.174-3.841 3.89-5.839.716-1.996.758-2.529.758-2.529z"/></g><g fill="#1F1F2A"><path d="M20.917 181.169c.127-.181-4.722-3.019-13.097 1.121-.193.095 2.527 1.052 2.527 1.052s-4.724 1.637-6.684 5.63c-.341.695 9.564-2.507 11.373-4.829 0 0-2.039 1.345-3.545 4.474-.363.75 5.713-2.117 9.426-7.448z"/><path d="M14.802 184.231s-.811 2.117-5.172 3.804c-3.323 1.287-5.963 1.002-5.963 1.002.245.017 3.932-1.127 5.945-1.863 1.978-.722 5.055-2.344 5.19-2.943M7.82 182.29c-.01.027 2.791-1.408 6.146-1.816 5.887-.715 6.951.696 6.951.696s-1.224-1.497-3.961-1.736c-2.55-.223-4.947.594-6.843 1.548-1.895.951-2.293 1.308-2.293 1.308z"/></g><path fill="#3A516E" d="M720 107.344s1.531 8.188-23.41-3.035c-26.02-11.707-41.863-54.678-50.551-71.145S593.194-.052 599.751 0s120.25-.011 120.25-.011L720 107.344z"/><g fill="#1F1F2A"><path d="M16.337 26.242c.229.126 3.337-5.898-2.233-15.197-.128-.213-1.103 3.087-1.103 3.087s-2.297-5.33-7.258-7.137c-.864-.315 3.674 10.89 6.604 12.724 0 0-1.764-2.223-5.65-3.604-.933-.331 2.942 6.43 9.64 10.127z"/><path d="M12.224 19.458s-2.616-.69-4.95-5.59c-1.78-3.734-1.611-6.859-1.611-6.859-.004.288 1.627 4.464 2.651 6.731 1.008 2.228 3.176 5.633 3.91 5.718m1.88-8.413c-.033-.008 1.891 3.096 2.609 6.975 1.26 6.804-.376 8.222-.376 8.222s1.729-1.617 1.835-4.85c.099-3.013-1.05-5.719-2.331-7.822-1.279-2.102-1.737-2.525-1.737-2.525z"/></g><path fill="#3E3155" d="M676.576 38.459c.109.322 8.416-2.736 11.255-16.605.066-.317-3.785 2-3.785 2s2.489-7.159-.695-13.275c-.552-1.065-6.068 13.727-4.863 18.079 0 0 .262-3.697-2.263-8.455-.606-1.141-2.837 8.786.351 18.256z"/><path fill="#1F1F2A" d="M678.601 28.296s-1.911-2.971.165-9.75c1.579-5.167 4.499-8.026 4.499-8.026-.26.275-2.373 5.735-3.385 8.821-.996 3.036-1.911 8.227-1.279 8.955m9.23-6.442c-.024-.036-.909 4.651-3.64 9.02-4.789 7.664-7.615 7.585-7.615 7.585s3.092-.031 6.046-3.051c2.752-2.815 4.034-6.435 4.655-9.588.622-3.153.554-3.966.554-3.966z"/><g fill="#1F1F2A"><path d="M662.381 36.673c.298-.163-4.156-7.812-18.308-8.198-.324-.01 2.627 3.38 2.627 3.38s-7.482-1.209-12.953 2.989c-.952.731 14.573 3.592 18.649 1.651 0 0-3.688.384-7.934 3.696-1.018.795 9.147 1.267 17.919-3.518z"/><path d="M652.021 36.446s-2.594 2.397-9.63 1.531c-5.361-.659-8.686-3.036-8.686-3.036.315.208 6.06 1.34 9.274 1.801 3.163.453 8.434.453 9.042-.296m-7.948-7.971c-.03.03 4.737.087 9.514 2.017 8.38 3.385 8.794 6.181 8.794 6.181s-.568-3.039-4.055-5.423c-3.251-2.221-7.038-2.855-10.252-2.919-3.214-.065-4.001.144-4.001.144z"/></g><path fill="#3E3155" d="M720 77.72l-37.332-23.001L660.123 0h-4.79l16.911 65.553L720 97.643z"/><path fill="#1F1F2A" d="M575.479 56.946s-3.178-2.475-7.833-2.208c-4.654.266-8.358 1.717-8.619 2.683-.26.966 15.02.18 20.768 3.801 1.29.813-3.48-3.76-4.316-4.276z"/><path fill="#3E3155" d="M590.656 63.827s-10.562-14.21-19.073-12.51c-2.111.422 7.679 9.219 7.679 9.219s-4.788-2.141-8.571-3.115c-3.053-.785-8.124-.922-11.664-.001 0 0 7.696 9.497 13.553 9.396 0 0-2.326 3.681-3.554 5.398-.409.571 9.198.828 11.104.177 1.906-.65 7.029-1.972 10.526-8.564z"/><path fill="#1F1F2A" d="M590.656 63.827s-1.446 6.644-6.906 9.645c-5.463 3.001-12.916.038-14.725-1.257-1.809-1.295 9.171 1.168 13.842-1.534 4.672-2.702 6.872-5.974 7.789-6.854z"/><path fill="#3E3155" d="M620.456 61.596c.219.261 6.848-5.605 4.456-19.559-.054-.32-2.801 3.238-2.801 3.238s-.28-7.574-5.469-12.116c-.901-.792-.669 14.993 2.034 18.61 0 0-1.099-3.54-5.179-7.056-.977-.842.549 9.218 6.959 16.883z"/><path fill="#1F1F2A" d="M618.651 51.392s-2.859-2.074-3.387-9.144c-.405-5.387 1.276-9.112 1.276-9.112-.142.351-.128 6.206.05 9.448.176 3.19 1.208 8.359 2.061 8.808m6.261-9.354c-.036-.024.842 4.664-.115 9.726-1.679 8.88-4.341 9.833-4.341 9.833s2.869-1.151 4.525-5.038c1.541-3.623 1.422-7.46.855-10.624-.565-3.165-.924-3.897-.924-3.897z"/><path fill="#3E3155" d="M720.001 163.168L611.25 97.09 579.836-.011 573.807 0l29.272 103.834L720.001 192.5z"/><path fill="#3E3155" d="M634.731 111.287V82.833l-22.892-28.666h2.168L639.34 80.5l1.348 34.406zm-47.724-65.158l-24.056-23.983v2.666l26.777 30.969z"/><path fill="#1F1F2A" d="M720.001 163.168v9.332L611.839 101l-.589-3.91z"/><path fill="#7C7496" d="M697.252 175.249l4.701 3.564v-15.688l-3.952-3.875zm-5.538-4.2l2.639 1.763v-14.5l-2.032-2.507zm-30.058-22.794v-11.922l-2.321-1.538-.742 11.138zm-9.524-7.222l1.614 1.224.172-9.465-.894-1.042z"/><path fill="#3E3155" d="M572.956 37.056c.304-.153-3.89-7.949-18.02-8.814-.324-.02 2.511 3.468 2.511 3.468s-7.437-1.461-13.046 2.55c-.978.697 14.442 4.083 18.582 2.28 0 0-3.697.259-8.054 3.426-1.044.759 9.098 1.576 18.027-2.91z"/><path fill="#1F1F2A" d="M562.609 36.478s-2.673 2.309-9.676 1.204c-5.337-.838-8.578-3.328-8.578-3.328.309.218 6.012 1.544 9.208 2.114 3.146.56 8.415.738 9.046.01m-7.672-8.236c-.032.03 4.732.248 9.44 2.338 8.26 3.667 8.579 6.476 8.579 6.476s-.464-3.057-3.869-5.558c-3.173-2.33-6.937-3.092-10.146-3.264-3.21-.173-4.004.008-4.004.008zM212.459 55.819s3.413-2.139 8.017-1.4c4.604.738 8.141 2.559 8.302 3.546.16.988-14.96-1.348-21.047 1.669-1.367.678 3.843-3.386 4.728-3.815z"/><path fill="#3E3155" d="M196.66 61.121s11.952-13.062 20.247-10.505c2.057.634-8.577 8.39-8.577 8.39s4.981-1.643 8.844-2.227c3.117-.47 8.175-.091 11.604 1.185 0 0-8.623 8.665-14.438 7.969 0 0 1.94 3.898 2.986 5.731.349.61-9.234-.111-11.064-.954-1.832-.839-6.794-2.675-9.602-9.589z"/><path fill="#1F1F2A" d="M196.66 61.121s.763 6.756 5.89 10.297c5.129 3.542 12.845 1.352 14.776.247 1.931-1.104-9.242.229-13.614-2.934-4.374-3.163-6.23-6.642-7.052-7.61z"/><path fill="#3E3155" d="M157.918 71.13c-.229.252-6.624-5.868-3.691-19.718.066-.317 2.673 3.345 2.673 3.345s.574-7.558 5.936-11.895c.932-.756.085 15.008-2.757 18.518 0 0 1.235-3.495 5.449-6.849 1.011-.804-.906 9.189-7.61 16.599z"/><path fill="#1F1F2A" d="M160.119 61.003s2.938-1.96 3.74-9.004c.615-5.368-.921-9.155-.921-9.155.128.356-.114 6.206-.417 9.438-.299 3.181-1.532 8.306-2.402 8.721m-5.892-9.591c.037-.022-1.022 4.628-.264 9.723 1.332 8.938 3.955 9.995 3.955 9.995s-2.822-1.262-4.326-5.21c-1.398-3.68-1.13-7.51-.441-10.649.689-3.141 1.076-3.859 1.076-3.859z"/><path fill="#3E3155" d="M59.284 146.727l114.908-54.674L215.679-.169l6.224.169-40.268 99.593-125.334 76.314z"/><path fill="#3E3155" d="M149.388 103.788l1.714-16.761 24.024-35.103.689-2.853-28.999 37.956-6.42 21.106zM202.779 43.6l26.371-21.412-.272 2.652-29.787 28.085z"/><path fill="#1F1F2A" d="M61.113 145.857l-2.778 10.154 114.873-60.129.984-3.829z"/><path fill="#7C7496" d="M80.687 161.059l-5.04 3.068 1.596-15.607 4.325-3.453zm5.936-3.615l-2.804 1.486 1.474-14.426 2.276-2.286zm32.22-19.618l1.213-11.86 2.465-1.295-.394 11.156zm10.21-6.217l-1.731 1.054.792-9.433.995-.946z"/><path fill="#3E3155" d="M218.958 34.892c-.256-.224 5.74-6.736 19.643-4.069.319.061-3.292 2.737-3.292 2.737s7.566.429 12.006 5.706c.774.917-15.004.373-18.567-2.4 0 0 3.518 1.167 6.953 5.316.822.995-9.206-.73-16.743-7.29z"/><path fill="#1F1F2A" d="M229.124 36.898s2.017 2.9 9.075 3.566c5.378.512 9.135-1.096 9.135-1.096-.353.134-6.207.005-9.445-.236-3.185-.237-8.333-1.372-8.765-2.234m9.476-6.075c.024.037-4.646-.934-9.725-.076-8.911 1.504-9.917 4.146-9.917 4.146s1.208-2.846 5.126-4.424c3.652-1.47 7.487-1.274 10.64-.646 3.151.627 3.876 1 3.876 1zM720 97.643l-47.756-32.09L655.333 0h1.5l19.528 61.097 43.658 27.425z"/><path fill="#1F1F2A" d="M664.412 35.142l-17.58-18.475V20s19.844 23.912 19.924 24.225l-2.344-9.083zM35.195 178.499l-17.788-13.69L.465 109.253 0 119.75l12.287 54.895L32.525 193z"/><path fill="#3E3155" d="M27.072 457.051s83.775 6.899 124.791 20.686 156.683 2.214 182.114 0c25.43-2.214 55.001-4.968 55.001-4.968s18.828 1.617 40.978 3.853c22.148 2.235 71.202-4.739 81.046-8.274s54.16 0 54.16 0 50.357 1.755 72.506 4.422S720 466.714 720 466.714v33.055L7.5 502.791l19.572-45.74zm41.006-353.859l9.858-8.612v7.17l-12.169 16.545z"/><path fill="#2E2442" d="M662.991 431.671s17.841 4.808 16.914-7.599c-.927-12.402-4.273-30.824-10.009-27.927-7.926 3.998-33.347 10.017-27.707 16.36 5.641 6.345 13.514 4.899 20.802 19.166z"/><path fill="#7C7496" d="M667.471 394.673s-23.009 1.647-33.011-10.773c-9.999-12.428-14.676 6.398-22.305 17.456-7.629 11.062-12.238 15.501-13.065 21.604-.827 6.104-4.763 20.188-2.293 35.454 2.47 15.269 2.759 24.199 2.759 24.199s10.197-30.733 17.52-37.019c7.32-6.286 10.369-13.342 10.369-13.342l.842-6.348 3.056.236s6.722-11.979 11.326-12.571c4.604-.588 17.22-15.207 26.343-15.955 9.121-.746-1.541-2.941-1.541-2.941z"/><path fill="#9F9BB2" d="M643.447 390.871s-15.354 7.481-23.689 19.396c-7.668 10.971-17.862 29.468-19.941 51.578-.984 10.488.324-5.351 4.438-18.501 3.963-12.67 10.252-23.852 13.865-29.144 12.729-18.66 27.587-22.61 27.587-22.61l-2.26-.719z"/><path fill="#2E2442" d="M674.206 432.146s13.871 22.599 16.981 46.937l2.722.21s-5.614-25.675-17.55-47.941l-2.153.794z"/><path fill="#9F9BB2" d="M627.691 401.946c-.006-.034-.676-3.377-3.454-4.834-2.462-1.292-5.807-.775-9.94 1.526l-.363-.781c4.373-2.437 7.958-2.952 10.659-1.531 3.137 1.651 3.855 5.288 3.885 5.442l-.787.178zm1.549 24.066l-.792-.13c.416-3.071-.121-5.578-1.596-7.453-2.936-3.733-8.678-3.789-8.733-3.789v-.877c.25 0 6.157.053 9.338 4.091 1.636 2.076 2.235 4.821 1.783 8.158zm-31.553 7.257l-.768-.25c1.03-3.769 2.83-6.354 5.344-7.689 4.017-2.129 8.358-.293 8.54-.216l-.294.814c-.041-.019-4.207-1.771-7.901.193-2.303 1.225-3.958 3.629-4.921 7.148zm14.13 20.55l-.755-.298c1.618-4.884 1.648-8.516.09-10.795-1.91-2.794-5.621-2.587-5.662-2.575l-.05-.876c.168-.004 4.186-.245 6.354 2.926 1.73 2.531 1.738 6.441.023 11.618zm29.583-39.61l-.802-.017c.109-6.214-1.111-10.416-3.627-12.487-2.698-2.221-6.025-1.136-6.059-1.125l-.238-.836c.15-.053 3.736-1.236 6.771 1.254 2.741 2.248 4.07 6.692 3.955 13.211z"/><path fill="#2E2442" d="M71.775 328.861s-24.511 2.919-22.177-7.587c2.335-10.502 8.462-25.969 15.955-23.124 10.353 3.926 44.154 10.727 35.984 15.759-8.17 5.031-18.674 3.28-29.762 14.952z"/><path fill="#7C7496" d="M68.955 297.058s30.929 2.918 45.519-7.003c14.59-9.923 19.259 6.419 28.597 16.338 9.335 9.924 15.172 14.008 15.756 19.26.583 5.254 4.669 17.508 0 30.346-4.669 12.841-5.836 20.429-5.836 20.429s-11.088-26.846-20.425-32.683c-9.338-5.836-12.838-12.046-12.838-12.046l-.584-5.461h-4.146s-8.032-10.646-14.198-11.452c-6.167-.805-21.923-14.087-34.179-15.323-12.256-1.239 2.334-2.405 2.334-2.405z"/><path fill="#9F9BB2" d="M101.729 295.401s20.083 7.383 30.295 18.081c9.4 9.847 21.55 26.272 22.426 45.239.415 8.997.029-4.578-4.377-16.048-4.246-11.052-11.762-20.991-16.178-25.735-15.563-16.73-35.28-21.074-35.28-21.074l3.114-.463z"/><path fill="#2E2442" d="M59.036 322.781c-18.334 17.18-36.688 34.133-49.301 56.158-4.878 8.517-6.694 12.037-9.735 21.436v10.689c3.137-12.704 5.893-19.161 12.266-30.646 12.152-21.898 30.796-38.654 48.843-55.565 1.381-1.294-.695-3.363-2.073-2.072z"/><path fill="#1F1F2A" d="M0 464.17v39.784h720v-37.241s-34.468-.869-56.171 11.294c0 0-109.787 13.88-127.659 9.372s-45.957-4.412-65.105 0c-19.149 4.412-178.724-2.791-215.746 0-37.021 2.791-109.787 6.129-144.255 0C76.596 481.25 0 464.17 0 464.17z"/><path fill="#1F1F2A" d="M234.745 500.768s-13-56-56-78c0 0 41.5 8.5 64 78M720 357.741c-20.014-51.25-61.635-59.991-61.635-59.991 43 22 61.635 83.016 61.635 83.016v-23.025zM2.025 418.487c20.014-51.25 62.135-61.25 62.135-61.25-43 22-61.635 83.016-61.635 83.016l-.5-21.766zm717.976 32.586c-20.014-51.25-61.636-59.993-61.636-59.993 43 22 61.635 83.016 61.635 83.016l.001-23.023zm0-42.339c-20.014-51.25-61.636-59.992-61.636-59.992 43 22 61.635 83.016 61.635 83.016l.001-23.024zM2.35 455.993c20.014-51.25 62.135-61.25 62.135-61.25-43 22-62.459 103.876-62.459 103.876l.324-42.626zM0 338.467c13.435-34.403 41.71-41.116 41.71-41.116C12.845 312.118 0 353.75 0 353.75v-15.283zM247.334 454.25s14 17 11 41.5h6s4.5-23-17-41.5zm-131.039-1.529s3.341 21.769-11.764 41.29l5.157 3.067s15.626-17.466 6.607-44.357z"/><path fill="#1F1F2A" d="M24.269 426.821s3.341 21.769-11.764 41.29l5.157 3.067c0 .001 15.626-17.465 6.607-44.357zm583.29 25.9s3.341 21.769-11.764 41.29l5.156 3.067s15.627-17.466 6.608-44.357zm53.208-4.056s2.962 19.299-10.429 36.606l4.571 2.719s13.855-15.484 5.858-39.325zm44.894-23.755s11.574 18.736 5.291 42.606l5.945.811s7.567-22.181-11.236-43.417zM60.018 451.497s-10.312 8.408-14.606 31.435l-2.735-2.824c-.001-.001 3.264-22.41 17.341-28.611z"/><path fill="#1F1F2A" d="M21.176 441.334s-10.312 8.408-14.606 31.435l-2.735-2.824c-.001-.001 3.264-22.41 17.341-28.611zm57.985 60.445h8.605s-.258-59.149 62.5-78.804c14.625-4.581-25.815 4.076-43.025 20.38-23.733 22.484-28.533 51.63-28.08 58.424zm632.843-17.344h-8.605s.258-59.149-62.5-78.804c-14.625-4.581 25.815 4.076 43.025 20.38 23.732 22.483 28.532 51.63 28.08 58.424z"/><path opacity=".3" fill="#FFF" d="M223.074 388.151c0 .334-.873.604-1.95.604H59.67c-1.078 0-1.951-.27-1.951-.604 0-.334.873-.604 1.951-.604h161.454c1.077.001 1.95.27 1.95.604z"/><path fill="#1F1F2A" d="M447.201 502.791h-4.919s.147-33.809-35.724-45.043c-8.359-2.618 14.756 2.33 24.593 11.648 13.565 12.852 16.309 29.511 16.05 33.395zm20.629-7.159h-3.379s.101-23.226-24.541-30.942c-5.742-1.799 10.137 1.601 16.895 8.002 9.317 8.828 11.203 20.272 11.025 22.94zm-274.517 4.136h-3.379s.101-23.226-24.541-30.942c-5.742-1.799 10.137 1.601 16.895 8.002 9.317 8.827 11.203 20.272 11.025 22.94zm2.984-6.554h5s.25-34.25 37.5-52c0 0-37 7.25-42.5 52zm434.474-5.446h5s.25-34.25 37.5-52c0 0-37 7.25-42.5 52zM474.485 501h8.334s35.999-48 73.333-52c0 0-44-.288-81.667 52zM57.466 434.736l-.664-1.26c-17.096 9.008-32.246 40.939-43.036 70.273h1.509c17.516-47.57 32.448-63.878 42.191-69.013z"/><path fill="#3E3155" d="M53.697 436.251s-17.231-1.75-14.387-9.915c2.846-8.164 24.511-24.928 34.877-23.812 10.368 1.116-5.049 28.748-20.49 33.727z"/><path fill="#1F1F2A" d="M185.027 438.104s-29.028-21.642-64.275-16.51c-35.248 5.133-62.538 12.776-62.538 12.776s-1.149-7.021 5.782-15.537c6.931-8.512 4.165-12.044 4.165-12.044s2.925 7.569 2.466 9.458c-.459 1.888.469-11.316 5.354-16.125 4.886-4.812 8.312-9.406 16.574-11.111 8.261-1.701 38.972 12.348 44.724 16.036 5.753 3.687 2.654 3.503 2.654 3.503l-10.463 6.594 16.937-5.018c0 .001 21.389 7.209 38.62 27.978z"/><path fill="#7C7496" d="M58.958 427.869c-.112-.031-11.276-2.965-11.278-12.224l.711-.002c.003 8.715 10.634 11.508 10.741 11.535l-.174.691zm7.578-12.442c-.191-.063-4.678-1.591-6.25-4.753-.621-1.252-.699-2.588-.231-3.972l.674.231c-.405 1.193-.341 2.348.193 3.422 1.439 2.896 5.794 4.381 5.838 4.396l-.224.676z"/><path fill="#1F1F2A" d="M707.812 388.355l-1.065-.401c-5.757 15.298 3.403 44.775 13.155 68.858v-3.071c-15.449-38.909-15.237-57.02-12.09-65.386z"/><path fill="#3E3155" d="M706.362 391.263s-11.234 8.1-13.867 1.706c-2.632-6.393 1.427-27.919 8.219-32.754 6.793-4.837 12.24 19.874 5.648 31.048z"/><g fill="#1F1F2A"><path d="M700.294 366.455c-.531-.412-.92-.49-.92-.49s.363.187.92.49zm5.576 3.857c-.116-.219-.369-.48-.697-.762.568.792.892 1.131.697.762z"/><path d="M704.745 342.383c-4.035 5.406-3.646 9.973-4.014 15.443-.271 4.002 3.111 9.564 4.661 11.725.328.281.581.543.697.762.195.368-.129.029-.697-.762-1.215-1.043-3.573-2.386-4.879-3.096 1.072.833 2.732 3.055 2.982 8.923.375 8.773 4.789 12.362 4.789 12.362s4.352-6.761 11.748-16.83v-36.636c-6.965 2.613-13.43 5.624-15.287 8.109z"/></g><path fill="#7C7496" d="M705.06 383.457c-.084.041-8.317 4.212-13.233-1.325l.425-.378c4.627 5.211 12.468 1.238 12.546 1.197l.262.506zm-2.074-11.464c-.147.062-3.642 1.531-6.261.475-1.036-.419-1.792-1.177-2.246-2.253l.526-.219c.392.928 1.042 1.584 1.932 1.943 2.399.969 5.79-.455 5.825-.469l.224.523z"/><path opacity=".3" fill="#FFF" d="M361.684 310.557c0 .539-.914.976-2.042.976H190.375c-1.127 0-2.042-.437-2.042-.976 0-.539.915-.976 2.042-.976h169.266c1.129 0 2.043.437 2.043.976zm19.455 11.816c0 .539-.457.976-1.021.976h-84.632c-.564 0-1.021-.437-1.021-.976 0-.539.457-.976 1.021-.976h84.632c.564 0 1.021.437 1.021.976zm1.021 16.065c0 .539-.325.976-.728.976H321.14c-.402 0-.728-.437-.728-.976 0-.539.326-.976.728-.976h60.292c.403 0 .728.436.728.976zm-153.453 42.328c0 .539-.325.976-.728.976h-60.292c-.402 0-.728-.437-.728-.976 0-.539.326-.976.728-.976h60.292c.403 0 .728.437.728.976zm6.838 17.979c0 .539-.163.976-.364.976h-30.146c-.201 0-.364-.437-.364-.976 0-.539.163-.976.364-.976h30.146c.202.001.364.437.364.976zm313.81-95.713c0 .539-.735.976-1.644.976H411.567c-.908 0-1.644-.437-1.644-.976 0-.539.735-.976 1.644-.976h136.145c.908.001 1.643.437 1.643.976zm-353.043-17.441c0 .539-.735.976-1.644.976H58.524c-.908 0-1.644-.437-1.644-.976 0-.539.735-.976 1.644-.976h136.145c.908 0 1.643.437 1.643.976zm312.999 35.806c0 .539-.23.976-.515.976h-42.598c-.284 0-.515-.437-.515-.976 0-.539.23-.976.515-.976h42.598c.284.001.515.437.515.976zm-299.164-21.963c0 .539-.23.976-.515.976h-42.598c-.284 0-.515-.437-.515-.976 0-.539.23-.976.515-.976h42.598c.285 0 .515.437.515.976zm361.022 22.939c0 .539-.23.976-.515.976h-42.598c-.284 0-.515-.437-.515-.976 0-.539.23-.976.515-.976h42.598c.284 0 .515.437.515.976zm56.686-.976c0 .539-.23.976-.515.976h-42.598c-.284 0-.515-.437-.515-.976 0-.539.23-.976.515-.976h42.598c.285.001.515.437.515.976zm-84.345 17.184c0 .276-.23.5-.515.5h-42.598a.508.508 0 01-.515-.5c0-.275.23-.499.515-.499h42.598c.284 0 .515.224.515.499zm-49.416-3.138c0 .276-.23.5-.515.5h-42.598a.508.508 0 01-.515-.5c0-.275.23-.499.515-.499h42.598c.284 0 .515.224.515.499zm82.791 16.54c0 .539-.65.976-1.452.976H455.207c-.803 0-1.453-.437-1.453-.976 0-.539.65-.976 1.453-.976h120.226c.801.001 1.452.437 1.452.976zm4.345 63.813c0 .334-1.434.604-3.2.604H313.062c-1.769 0-3.203-.27-3.203-.604 0-.334 1.434-.604 3.203-.604H578.03c1.767 0 3.2.27 3.2.604zm138.684-127.718c0 .334-1.434.604-3.2.604H451.746c-1.77 0-3.203-.27-3.203-.604 0-.334 1.434-.604 3.203-.604h264.968c1.766.001 3.2.27 3.2.604z"/><path opacity=".2" fill="#FFF" d="M548.361 404.411c0 .334-.873.604-1.95.604H384.957c-1.078 0-1.951-.27-1.951-.604 0-.334.873-.604 1.951-.604h161.454c1.077.001 1.95.27 1.95.604z"/><path opacity=".3" fill="#FFF" d="M541.027 441.334c0 .334-.873.604-1.95.604H377.623c-1.078 0-1.951-.27-1.951-.604 0-.334.873-.604 1.951-.604h161.454c1.077 0 1.95.27 1.95.604z"/><path opacity=".2" fill="#FFF" d="M590.896 428.786c0 .539-1.96.976-4.376.976H224.2c-2.419 0-4.379-.437-4.379-.976 0-.539 1.96-.976 4.379-.976h362.32c2.416.001 4.376.437 4.376.976z"/><path d="M259.658 159.212s-1.352-5.775-6.836-8.562c-5.485-2.786 10.141-.885 6.836 8.562zm0 0s4.948-.119 8.349 3.727c3.399 3.845-1.412-8.377-8.349-3.727zm358.712-6.539s5.848-.997 10.544 2.975c4.697 3.973-3.122-9.69-10.544-2.975zm0 0s-1.812-4.606-6.676-6.247c-4.864-1.64 8.268-1.951 6.676 6.247z" opacity=".7" fill="#3E3155"/><path d="M443.838 191.002s4.782-.815 8.622 2.433c3.841 3.248-2.553-7.924-8.622-2.433zm0 0s-1.48-3.767-5.458-5.108 6.761-1.596 5.458 5.108z" opacity=".5" fill="#3E3155"/><path d="M388.021 89.898s4.72-.804 8.51 2.401c3.791 3.207-2.519-7.82-8.51-2.401zm0 0s-1.463-3.718-5.389-5.042 6.675-1.575 5.389 5.042z" opacity=".6" fill="#3E3155"/><path d="M389.718 108.155s-3.371-2.74-7.797-1.896 5.478-5.058 7.797 1.896zm0 0s2.813-2.286 6.506-1.583c3.693.704-4.572-4.22-6.506 1.583z" opacity=".7" fill="#3E3155"/><path fill="#FFF" d="M485.948 245.32l.034.021c-.002-.015-.009-.025-.034-.021z"/><path fill="#F4F3E9" d="M516.446 184.037l-14.833 59.449c5.038 3.662 10.009 7.392 14.833 11.267v-70.716z"/><path fill="#E5D8E1" d="M516.446 284.566c-6.955-5.382-14.112-10.56-21.118-15.89l-1.63 6.531c7.953 4.521 15.588 9.617 22.748 15.296v-5.937z"/><path fill="#F4F3E9" d="M493.698 275.208l-10.378 41.596h33.126v-26.3c-7.16-5.679-14.795-10.775-22.748-15.296zm22.748-9.992c-5.677-4.103-11.531-8.027-17.235-12.103l-3.883 15.563c7.006 5.33 14.163 10.508 21.118 15.89v-19.35z"/><path fill="#E5D8E1" d="M516.446 254.752c-4.824-3.875-9.795-7.604-14.833-11.267l-2.402 9.628c5.704 4.075 11.559 8 17.235 12.103v-10.464z"/><path fill="#F4F3E9" d="M516.446 322.851c-.39 1.255 40.75 0 40.75 0s-34.44-111.209-39.173-126.983c-4.732-15.775 13.934 77.03-1.577 126.983z"/><path fill="#ACB4BF" d="M489.104 326.662v3.55l53.107-.789s-.658-1.183-3.812-2.761c-3.155-1.577-49.295 0-49.295 0z"/><path fill="#C6C5BE" d="M479.64 329.043v5.901h73.613s9.464-2.104 11.567-4.732-85.18-1.169-85.18-1.169z"/><path fill="#E5E4E1" d="M544.999 334.944h10.938s1.259-.956 0-1.562c-.563-.271-2.938 0-3.062.781s-.854-.101-.854-.101-1.116-1.499-1.771-.881c-.895.845-3.251 1.701-5.251 1.763zm-69 0h10.938s1.259-.956 0-1.562c-.563-.271-2.938 0-3.062.781s-.854-.101-.854-.101-1.116-1.499-1.771-.881c-.895.845-3.251 1.701-5.251 1.763zm41.438 0h18.078s2.08-.647 0-1.058c-.931-.184-4.854 0-5.062.529-.207.528-1.412-.068-1.412-.068s-1.845-1.015-2.926-.596c-1.479.572-5.374 1.151-8.678 1.193z"/></svg>