<svg xmlns="http://www.w3.org/2000/svg" viewBox="0 0 500 500"><defs><linearGradient id="Degradado_sin_nombre_2595" x1="250" x2="250" y2="500" gradientUnits="userSpaceOnUse"><stop offset="0" stop-color="#a6d9d6"/><stop offset=".1" stop-color="#bacec2"/><stop offset=".22" stop-color="#cdc4ae"/><stop offset=".37" stop-color="#dbbda1"/><stop offset=".55" stop-color="#e3b898"/><stop offset=".88" stop-color="#e5b796"/></linearGradient><clipPath id="clip-path"><path fill="none" d="M0 0h500v500H0z"/></clipPath><style>.cls-5{opacity:.68}.cls-6{fill:#fcd5c0}.cls-7{fill:#d6b1a1}.cls-8{fill:#3f3834;opacity:.19}.cls-12{fill:#45647c}.cls-11{fill:#16293a}.cls-12{opacity:.27}</style></defs><path fill="url(#Degradado_sin_nombre_2595)" d="M0 0h500v500H0z" id="BACKGROUND"/><g clip-path="url(#clip-path)" id="OBJECTS"><path d="M365.77 70a38.1 38.1 0 00-5.25 3.13 24 24 0 00-26.12-3.3 24.47 24.47 0 00-6 4.16 24 24 0 00-43.07 7.83 32.24 32.24 0 00-22.84 9.82 24 24 0 10-5.91 39.15c.43-.21.84-.43 1.25-.66a32.15 32.15 0 0059.7-20.13c.55-.22 1.09-.45 1.63-.71a24.1 24.1 0 006-4.16 24.06 24.06 0 0021.91 10.25 36.08 36.08 0 001.68 4 37 37 0 1017-49.43zM97 122.81a29.74 29.74 0 004.14-3.58c7.72 5.16 17.39 5.72 24.56.63a18.84 18.84 0 004.6-4.66c8.12 8.72 20.61 10.94 29.37 4.72a20.44 20.44 0 008.31-16.63 25.45 25.45 0 0018.78-11.86c7.87 5.76 18 6.6 25.51 1.29 9.66-6.86 11.12-21.39 3.26-32.46s-22.06-14.46-31.72-7.6c-.34.25-.68.5-1 .77-10.74-13.28-28.64-17.06-41-8.28-10.27 7.29-13.6 21.07-9.26 33.84q-.69.41-1.35.87a19.15 19.15 0 00-4.6 4.65c-6.12-6.51-14.6-9.41-22.24-7.83A42.6 42.6 0 00102 72.9c-12.08-17-33.92-22.24-48.78-11.69s-17.1 32.9-5 49.91S82.1 133.36 97 122.81z" fill="#fdfeff" opacity=".3"/><g class="cls-5"><path class="cls-6" d="M171.83 132.83v208.39H-6.13l3.61-285.54 14.54 17.28 35.69-12.61 35.68 36.24 41.89-27.83 46.55 64.07z"/><path class="cls-7" d="M125.28 68.76l46.55 64.07 13.45 28.35-43.44-38.86-10.35 11.56-18.62-24.16-13.45 5.25 25.86-46.21zm-78.01-8.12l35.94 35.98 45.81 86.73-68.05-87.09-3.95 26.28-9.75-61.9z"/></g><g class="cls-5"><path class="cls-6" d="M501.82 166.87v208.4H323.85l3.62-285.54 14.54 17.28 35.68-12.61 35.69 36.24 41.89-27.83 46.55 64.06z"/><path class="cls-7" d="M455.27 102.81l46.55 64.06 13.44 28.36-43.44-38.86-10.34 11.55-18.62-24.15-13.45 5.25 25.86-46.21zm-78.01-8.12l35.94 35.98L459 217.4l-68.05-87.09-3.95 26.28-9.74-61.9z"/></g><path class="cls-6" d="M251.41 130.69l60.7-59.94 164.74 183.06-86.71 85.86-138.73-208.98z"/><path class="cls-6" d="M117.26 123.22l95.13-112.34 163.3 296.89L145.92 313q-14.34-94.88-28.66-189.78z"/><path class="cls-7" d="M212.39 10.88L199.03 93.9l13.17-2.89-5.64 26.98 23.5-1.93-5.64 64.57 151.27 127.14-163.3-296.89zm99.72 59.87l-4.94 46.28 20.69 14.45-4.71 20.24 58.3 16.38 28.93 64.65 66.47 21.06L312.11 70.75z"/><path class="cls-6" d="M14.73 178.24l92.16-105.16 153.58 242.89-245.74-5.92V178.24z"/><path class="cls-7" d="M106.89 73.08L84.4 135.34l35 1.93-30 41.43 167.89 133z"/><path class="cls-8" d="M115.05 89.13v42.95l7.94-25.13-7.94-17.82zm119.17-5.34v24.43h4.99l-2.49 41.43 6.06 17.68 4.18-63.34-12.74-20.2zm94.14 14.62l8.47 28.34 8.34 1 12.59 25.43 7.37-12.21-36.77-42.56zM165.82 188.6l-32.97-58.04-9.29 23.4 42.26 34.64zm-50.47-25.05v25.88l11.5-4.86-11.5-21.02z"/><path class="cls-8" d="M212.56 32.2l5.58 34.73 21.65 14.27 16.48 32.37 6.28-1.06-49.99-80.31z"/><path d="M631.55 291.38l5.2 240-554.06-15.15c12.84-27.92 78.05-161.86 237.12-223.77 149.99-58.37 280.86-12.78 311.74-1.08z" fill="#45647c"/><path d="M-61.85 238.56s247.73-48.13 501 192.5l-503.21-3.44z" fill="#334e60"/><path class="cls-11" d="M-12.4 427.49s401.8-97.92 512.47-15.8S355.5 634.38 355.5 634.38L44.43 583.84l-90.73-6.31z"/><path class="cls-11" d="M327.62 373.88c-1.15-25.44-3.79-50.9-5.81-76.27-1.42-17.81-2.86-35.61-4.45-53.4-.78-8.74-1.25-18-2.77-26.79-.07-.42-.07-1.45-.41-1.76-1.07-.95-5.87.61-6.32 2a8.45 8.45 0 00.12 2.65c.15 2.09.34 4.18.52 6.27l.45 4.93c.09 1 1 4.29.48 5.14a11.48 11.48 0 00-1.48.61 7.29 7.29 0 01-1.32.71l-.61-.52a11.79 11.79 0 00-4.23 0c-3.37.49-6.85.44-10.24.89-1.37.18-1 .2-1.61-1.22s-1.45-2.81-2.09-4.25c-2.73-6.16-3.53-12.73-5.23-19.17-.89-3.38-2.71-4.86-5.33-7-.72-.58-3.55-1.59-3.8-2.2s1.37-4.85 1.54-5.61c1.72.92 5.19-.38 6.77-1.24 2.19-1.19 2.81-3.2 4.25-5.06s4.83-1.62 5.27-4.4c.34-2.2-1.31-5-1.56-7.27-.6-5.36-1.88-10.58-6.5-13.95a14 14 0 00-7.18-2.66 16.45 16.45 0 00-7.89 1.4 5.93 5.93 0 00-.76-3.09c-.6-1-1.68-1.25-2.34-2s-.37-1.47-.64-2.33a3.94 3.94 0 00-2.24-2.4 4.56 4.56 0 00-5.54 1.16 19.46 19.46 0 01-1.49 2.32c-.84.82-2.08 1.13-2.85 2.06-1.37 1.66-.23 3.41-1.79 4.95-1.34 1.33-2.47 2.91-1.33 4.85.59 1 1.46 1.23 2.42 1.69a3.27 3.27 0 012 2.12c1 2.23 2.15 3.26 4.77 2.84-1.17 6.53 2.43 11 6.16 15.37 2.18 2.58 1.73 3.88.85 7.11-.38 1.37-.28 1.68-1.7 2a39.64 39.64 0 00-5.35 1.09c.07-3.19 1.81-6.07.7-9.28-1.06-3.06-4-3-5.57-5.3-.9-1.27-1-3-2-4.18a7.84 7.84 0 00-3.44-2.17 33.41 33.41 0 00-9.49-1.74c-5.24-.18-13.06 2-15.25 7.35a18.23 18.23 0 00-.69 9.63c.24 1.4.91 3 .55 4.41-.43 1.71-2.12 2.68-3.25 3.87.88-.74-1.15 1.42-1.38 1.77a14 14 0 00-1.51 3.2 22.4 22.4 0 00-1 6.4c-.06 1.95.16 3.91.1 5.86-.07 2.18-.62 2.4-2.56 2.87-4.85 1.17-5.93 6.21-5.14 10.54.84 4.58 3.89 8 6.29 11.84 2.6 4.12 3.19 7.56 1.83 12.18-1.24 4.24-1.53 9.41 0 13.61a18 18 0 0021.72 10.73 12.6 12.6 0 001.75 5c.44.7 1.21 1.32 1.59 2 .52 1 .54.75.22 1.92-1 3.68-1.36 7.47-2.31 11.15-1.82 7.05-6.65 13.61-10.32 19.82a77.87 77.87 0 01-6.33 9.07c-2.3 2.84-5.44 5.06-8 7.71a31.39 31.39 0 00-6.13 9.15c-.71 1.59-1.43 3.19-2 4.84-.34 1-.6 2-.86 3.05a17.51 17.51 0 01-.61 3.16c-.56 1-1.76 1.39-2.36 2.43a5.54 5.54 0 00-.43 4.55c1.11 3 4.79 4 6.4 6.73 1.48 2.49 1.76 5.77 4.66 7.16a12.86 12.86 0 008.67.38c3-1.13 3-4 1.09-6.24a29.57 29.57 0 00-3.08-2.74c-1.51-1.39-1.59-3.16-1.87-5.1-.57-4 1.66-6.09 4-9.14s4.35-6.37 6.65-9.47c5.32-7.15 11.15-13.88 16.58-20.94 4.84-6.32 10.75-11.8 13.62-19.37a22 22 0 013.44 9.57c.32 3.44-.41 6.86-.43 10.31 0 6.94 2.88 13.68 5.81 19.86 1.47 3.1 3.23 6 4.86 9a10.65 10.65 0 011.56 4.19c.18 1.73 0 3.54.14 5.29.23 3.43 1 6.79 1.16 10.1.15 2.66.76 6 3.21 7.45 5.58 3.34 14.22 1.77 20.26 1 2.45-.3 5.44-.76 6.25-3.51s-1.26-5.26-3.83-6.07-6.21.07-8.26-2.27a18.69 18.69 0 01-1.75-3.2 9.2 9.2 0 01-1-1.59c-.18-.74.12-1.9 0-2.75-1.15-6.76-4-13.18-5.49-19.87-1.74-7.83-1.85-16.13-1.88-24.12 0-3.89.27-7.85-.56-11.66a66.62 66.62 0 00-3.12-10.29c.47 1.21-.84-1.91-1-2.22-.57-1.17-1.22-2.3-1.85-3.44a66.77 66.77 0 01-3.13-6.28c-1.45-3.44-3.79-9.46-2.24-13 .34-.79 1.3-1.61 1.74-2.42a32.16 32.16 0 001.5-3.34c.82-2 1.68-4 2.43-6.05 1.77-4.84 2.39-10 3.33-15 1.07 2.37 2.11 6.29 4.61 7.55s6.67-.9 9.29-1.45c4-.84 16.54-.08 14.39-7.18.79.64 1.72.35 2.1 1.11s.23 2.32.32 3.22c.22 2.18.43 4.36.65 6.54l1.29 13.61q1.09 10.94 2.21 21.88c.51 5.13 1 10.26 1.58 15.38q3.29 28.65 6.78 57.26c.39 3.19.72 6.41 1.19 9.59.12.82.12 2 .88 2.49 3.01 1.96 2.03-4.85 1.98-5.97zm-46.75-68.73l.18.46zM9.24 476.45s98.21-87.29 73.66-114.57S9.24 476.45 9.24 476.45z"/><path class="cls-11" d="M46.84 423.36s143-9.93 128.93-53.87-128.93 53.87-128.93 53.87z"/><path class="cls-11" d="M53.82 460.81c3.62-2.41 96.39-110.84 67.47-114.46S53.82 460.81 53.82 460.81z"/><path class="cls-11" d="M51.31-39.05l12.67 533.37H9.17l9.46-533.37h32.68z"/><path class="cls-11" d="M53.78 92.81l49.25-48.31 33.5-71.74-54.82 66.17L33.6 74.72l20.18 18.09zm6.88 263.48L99.6 333.1l10.73-15.76-15 14.27-36.91 19.8zm-5.01-135.78L89.12 190l7.34-17.6-11.79 17-32.17 26.77z"/><path class="cls-11" d="M111.88 154.78a13.55 13.55 0 00-10.9-.37 10.84 10.84 0 00-4.3-3.75 11.05 11.05 0 00-9.58 19.92 10.37 10.37 0 002 .72 14.67 14.67 0 00-1.46 2.42 14.84 14.84 0 1027.9 3.2 13.87 13.87 0 002.7-3.79 13.72 13.72 0 00-6.36-18.35zm-39.06-20.63a13.56 13.56 0 00-10.49-3 10.83 10.83 0 00-3.28-4.67 11.05 11.05 0 10-12.34 18.21A14.84 14.84 0 1071 156.52a14 14 0 003.53-3 13.74 13.74 0 00-1.71-19.37zm-4.74 95.99a7.64 7.64 0 00-5.91-1.68 6.1 6.1 0 00-1.84-2.63 6.23 6.23 0 00-7.94 9.6 7 7 0 001 .66 7.9 7.9 0 00-1.12 1.12 8.36 8.36 0 1014.82 5.53 7.86 7.86 0 002-1.71 7.72 7.72 0 00-1.01-10.89zM55.54 291.1h.64c6.16.36 10.88 5.1 10.57 10.58v.25a21.53 21.53 0 013.22-.07c10.23.6 18.09 8.47 17.56 17.58-.53 8.74-8.53 15.43-18.18 15.48a13.73 13.73 0 011.77 7.57c-.48 8.35-8.47 14.67-17.83 14.12q-.8 0-1.56-.15zm117.64-415.05c-9.29-22.82-32.32-35-51.42-27.22a31.7 31.7 0 00-6.42 3.54A38.64 38.64 0 0090-146.5c-21.52 8.77-30.9 36-21.91 61.84-12 5.76-19.93 17.5-22.44 31.4-10.76-6.42-23.13-8.38-34.53-4.52v-.12C.17-84.64-26.8-98.92-49.18-89.8S-80.87-51.62-70-24.88a61.4 61.4 0 006.91 12.51C-76.73.56-81.06 23.54-72.3 45c10.89 26.73 37.86 41 60.24 31.89 15.47-6.3 24.69-22.14 25.31-40.14 11.09 6.13 23.75 7.63 35.2 3C61.64 34.38 70.24 22.06 72.9 7.39c11.42 6.81 24.67 8.67 36.62 3.8a35.33 35.33 0 003.92-1.88c10.89 5.76 23.21 7 34.39 2.49 22.38-9.12 31.69-38.18 20.8-64.92a61.23 61.23 0 00-10.27-16.82c16.95-9.06 23.64-32.4 14.82-54.01z"/><path class="cls-12" d="M46.45 39.75c-22.83 30-24.48 45.4-21.13 54 2.41 6.15 7.2 8.21 8.43 16.82 1.62 11.36-5.42 16.94-3.62 28 1.33 8.12 5.59 8.16 8.44 15.43 8 20.48-17.63 41.21-13.25 71.49.94 6.53 2.18 5.92 7.22 19.63 8.92 24.24 26.34 71.63 12.05 106.54-6.11 14.93-15.53 21.5-13.25 33.64 1.77 9.45 9 13.66 13.25 18.23 9.52 10.26 15.24 34.57-2.41 96.73 8.6.09 21.69 2.21 21.69-5.61 0-4.23-17.42-454.9-17.42-454.9z"/><path class="cls-11" d="M467.56 448.91s-38.48-125.63-73.5-114.67 73.5 114.67 73.5 114.67z"/><path class="cls-11" d="M447 434.79s50.51-134.14 4.71-139.65S447 434.79 447 434.79z"/><path class="cls-11" d="M469.48 418.73c-.68-4.29-60.64-133.78-76-109s76 109 76 109z"/><path class="cls-11" d="M467.93-33.65l-12.67 533.37h54.81l-9.46-533.37h-32.68z"/><path class="cls-11" d="M469.07 151.23l-49.24-48.32-33.5-71.73 54.81 66.16 48.11 35.79-20.18 18.1zm12.23 16.19l-38.94-23.19q-5.37-7.89-10.73-15.77l15 14.28 36.91 19.79zM448.13 179a13.53 13.53 0 0110.49-3 10.83 10.83 0 013.28-4.67 11.05 11.05 0 1112.34 18.21 14.84 14.84 0 11-24.32 11.8 13.78 13.78 0 01-1.79-22.34z"/><path class="cls-11" d="M455 99.57a7.61 7.61 0 015.91-1.67 6.07 6.07 0 011.85-2.63 6.22 6.22 0 117 10.25 9.19 9.19 0 011.13 1.12 8.36 8.36 0 11-14.89 5.53 7.83 7.83 0 01-2-1.71 7.74 7.74 0 011-10.89z"/><path class="cls-11" d="M326.78-70.35c9.3-22.82 32.32-35 51.42-27.23a31.26 31.26 0 016.42 3.58A38.63 38.63 0 01410-92.9c21.52 8.77 30.91 36 21.91 61.83 12 5.77 19.93 17.5 22.44 31.4 10.74-6.42 23.1-8.33 34.5-4.51v-.13c10.89-26.73 37.86-41 60.24-31.9S580.83 2 569.94 28.71A61.85 61.85 0 01563 41.22c13.65 12.93 18 35.91 9.22 57.41-10.89 26.73-37.86 41-60.24 31.9-15.47-6.31-24.69-22.14-25.31-40.15-11.09 6.13-23.74 7.63-35.2 3C438.32 88 429.72 75.65 427.07 61c-11.43 6.82-24.68 8.68-36.63 3.8a37.15 37.15 0 01-3.92-1.87c-10.89 5.75-23.21 7-34.38 2.48-22.38-9.12-31.7-38.18-20.81-64.91a60.93 60.93 0 0110.28-16.83c-16.96-9.05-23.61-32.42-14.83-54.02z"/><path class="cls-12" d="M467.49 92.5c17.33 26 18.92 39.57 16.71 47.19-1.6 5.48-5 7.4-5.7 15-.89 10.07 4.37 14.85 3.33 24.68-.75 7.19-3.84 7.32-5.73 13.79-5.31 18.25 13.84 36 11.43 62.84-.52 5.78-1.44 5.27-4.75 17.48-5.86 21.59-17.31 63.79-6 94.31 4.81 13.05 11.82 18.66 10.47 29.43-1.05 8.37-6.2 12.24-9.16 16.36-6.65 9.26-10.19 30.84 4.2 85.35-6.24.26-15.69 2.4-15.89-4.5-.15-3.7 1.09-401.93 1.09-401.93z"/></g></svg>