<svg xmlns="http://www.w3.org/2000/svg" width="720" height="503.999"><linearGradient id="a" gradientUnits="userSpaceOnUse" x1="360" y1="0" x2="360" y2="499.189"><stop offset="0" stop-color="#17122a"/><stop offset=".161" stop-color="#271938"/><stop offset=".171" stop-color="#281939"/><stop offset=".264" stop-color="#381f40"/><stop offset=".425" stop-color="#5c2d51"/><stop offset=".478" stop-color="#6c3a58"/><stop offset=".582" stop-color="#965b69"/><stop offset=".702" stop-color="#cd8780"/><stop offset=".755" stop-color="#d5978b"/><stop offset=".858" stop-color="#e8c0a8"/><stop offset=".889" stop-color="#efceb1"/></linearGradient><path fill="url(#a)" d="M0 0h720v499.188H0z"/><path fill="#754A64" d="M114.886 326.341l118.202-39.221 111.248 64.196 120.052-65.321 92 59.768 82.2-71.356L717.544 336v34.795H141.997z"/><path fill="#754A64" d="M218.784 321.72l-85.337 22.163 15.485 24.387L360 367.938z"/><path fill="#3C5F7C" d="M134.189 369.019l460.866-.533-31.076 41.504-200.381 16.415-201.265-16.4z"/><g opacity=".5" fill="#3F2C36"><path d="M351.709 362.944l5.219 2.435 2.638-2.008 1.449 2.008 1.447-1.689 1.702 1.689 1.362-3.788 2.213 4.013 2.129-1.822 1.958 1.822 1.874-4.333 2.213 4.611 4.141-.935 3.522.935 1.959-.822 2.894 1.747 3.747.947 2.375 1.399-42.84-.144zm-209.712 6.075c.146-.145 2.235-10.412 2.527-10.219.292.193 1.75 3.473 1.75 3.473l4.084-6.705 1.459 2.413 1.312-.098s1.021 2.942 1.021 3.038c0 .097.729-1.35.729-1.35l1.313 1.495 1.021-1.688 1.021 1.108 3.209-6.704 2.042 5.499 5.021-10.542 5.919 5.622 1.459-2.363 1.021 3.473 1.459-2.267 2.188 3.858 2.188-5.595 1.021 6.703 1.75-2.17 1.896 1.688 2.333-6.463 2.772 6.125 2.188-3.231 2.479 3.665 1.021-1.688 1.021 2.122 1.167-2.025.875 1.736 1.313-2.75 1.313 2.846s1.604-1.108 1.75-.964c.146.145 3.21 4.438 3.21 4.438l1.312-1.593s1.897 2.604 1.897 2.702c0 .096 2.188-2.798 1.75-2.702l1.604 1.352 1.167-3.088 1.604 2.171 1.458-1.641.875 1.641 1.458-4.727 2.479 5.161s1.313-1.93 1.605-1.784c.292.145 1.75 3.424 1.75 3.424l1.314-1.399.729 2.219 1.167-1.351 1.459 3.232 1.458-.724 1.312.578 1.167-4.1 2.042 1.93 1.75-7.041 1.75 3.761 1.605-2.266 2.042 4.05 1.166-.915 1.75 1.784 1.256 6.832-107.778.014z"/><path d="M385.287 362.813l5.218 2.436 2.639-2.009 1.448 2.009 1.447-1.689 1.703 1.689 1.363-3.79 2.213 4.014 2.129-1.821 1.958 1.821 1.872-4.333 2.215 4.611 4.139-.935 3.523.935 1.958-.821 4.44-1.77s3.551-.545 5.114.737 2.778 4.761 2.778 4.761l-45.74.495-.417-6.34zm-140.94 6.146c.146-.146 3.063-8.924 3.355-8.729.292.192 1.75 3.473 1.75 3.473l4.084-6.705 1.459 2.412 1.312-.097s1.021 2.941 1.021 3.039c0 .096.729-1.351.729-1.351l1.313 1.495 1.021-1.688 1.021 1.109 3.209-6.704 5.711 6.334 4.608-11.525 2.662 5.771 1.459-2.365 1.02 3.474 1.459-2.268 2.188 3.859 2.188-5.595 1.021 6.703 1.75-2.17 1.896 1.688 2.334-6.463 2.771 6.125 2.188-3.232 2.479 3.666 1.021-1.688 1.021 2.122 1.167-2.025.874 1.736 1.313-2.749 1.313 2.845s1.604-1.109 1.749-.964c.147.144 3.21 4.437 3.21 4.437l1.312-1.592s1.897 2.604 1.897 2.702c0 .096 2.187-2.798 1.749-2.702l1.605 1.351 1.167-3.087 1.604 2.171 1.459-1.64.875 1.64 1.459-4.727 2.479 5.16s1.313-1.93 1.605-1.784c.292.145 1.749 3.425 1.749 3.425l1.315-1.399.728 2.22 1.167-1.352 1.46 3.231 1.457-.724 1.313.58 1.167-4.101 2.041 1.931 1.751-7.043 1.75 3.762 1.605-2.267 2.042 4.051 1.166-.916 1.75 1.784 1.771 5.414-109.119-.058z"/></g><path fill="#3F2C36" d="M637.848 362.035l5.218 2.435 2.639-2.008 1.448 2.008 1.448-1.689 1.702 1.689 1.362-3.788 2.213 4.012 2.129-1.821 1.958 1.821 1.874-4.333 2.213 4.612 4.14-.935 3.523.935 1.959-.823 2.893 1.747 3.747.948 2.375 1.399-42.839-.144z"/><path opacity=".8" fill="#33556D" d="M144.933 368.27l220.673.884 3.605-.011 207.191-.635 1.785 6.355s-113.814-2.742-128.501-3.178-208.687-.564-209.937 0-90.818 3.178-90.818 3.178l-3.998-6.593zm12.348 28.349l12.386 10.231 209.509 20.417 181.082-21.847 9.769-10.554-187.676 25.473z"/><path opacity=".5" fill="#3F2C36" d="M431.445 368.658c.146-.145 1.22-10.646 1.511-10.453.292.193 1.75 3.473 1.75 3.473l4.085-6.705 1.459 2.413 1.312-.098s1.021 2.942 1.021 3.038c0 .097.729-1.35.729-1.35l1.313 1.495 1.02-1.688 1.021 1.108 3.21-6.704 2.104 7.487 3.271-3.732 2.043 2.576 3.5-8.903 1.667 4.531 1.856-3.743 1.021 3.473 1.459-2.267 2.188 3.858 2.188-5.595 1.021 6.703 1.75-2.17 1.896 1.688 2.333-6.463 2.772 6.125 2.188-3.231 2.479 3.665 1.021-1.688 1.021 2.122 1.166-2.025.875 1.736 1.313-2.75 1.313 2.846s1.604-1.108 1.749-.964c.146.145 3.21 4.438 3.21 4.438l1.312-1.593s1.896 2.604 1.896 2.702c0 .096 2.188-2.798 1.75-2.702l1.605 1.352 1.166-3.088 1.604 2.171 1.458-1.641.876 1.641 1.458-4.727 2.479 5.161s1.313-1.93 1.604-1.784c.292.145 1.75 3.424 1.75 3.424l1.314-1.399.729 2.219 1.167-1.351 1.46 3.232 1.458-.724 1.312.578 1.167-4.1 2.041 1.93 1.751-7.041 1.75 3.761 1.605-2.266 2.042 4.05 1.166-.915 1.75 1.784 1.257 6.832-106.762.248z"/><path fill="#3F2C36" d="M671.426 361.904l5.218 2.436 2.638-2.009 1.448 2.009 1.448-1.69 1.703 1.69 1.363-3.79 2.213 4.013 2.129-1.821 1.958 1.821 1.872-4.333 2.215 4.612 4.139-.935 3.523.935 1.958-.821 4.44-1.77 2.457-1.004 5.436 7.627-45.74-.63z"/><path fill="#151C30" d="M0 352.346l84.648 44.195L360 423.082l237.107-20.912L720 361.585v142.414H0z"/><path fill="#101721" d="M152.839 403.465l58.828 6.173 5.01 10.701-21.515 1.329 2.396 13.245c-5.225 6.754-44.72-2.789-44.72-2.789s5.458 8.329 8.161 9.862-20.541 8.104-20.541 8.104L161 458.156l-17.853 15.538s-7.204 7.559 14.133 10.8c34.053 5.173-39.488 19.505-39.488 19.505L0 503.188v-42.933l152.839-56.79z"/><path fill="#805066" d="M466.506 286.393l-4.669 6.474 7.002 6.475h-7.002v7.228l-4.414 2.484 22.417 18.442 24.215 20.716 91 18.689-9.883-13.822z"/><path opacity=".5" fill="#3F2C36" d="M537.379 368.688c.146-.187 2.236-13.404 2.527-13.155.292.249 1.75 4.471 1.75 4.471l4.085-8.632 1.459 3.106 1.312-.126s1.021 3.788 1.021 3.911c0 .125.729-1.737.729-1.737l1.313 1.925 1.02-2.173 1.021 1.428 3.21-8.631 2.104 9.639 3.271-4.805 2.043 3.316 3.5-11.462 1.667 5.833 1.856-4.818 1.021 4.471 1.459-2.918 2.188 4.967 2.188-7.202 1.021 8.629 1.75-2.793 1.896 2.174 2.333-8.32 2.772 7.885 2.188-4.16 2.479 4.719 1.021-2.173 1.021 2.732 1.166-2.607.875 2.235 1.313-3.541 1.313 3.664s1.604-1.427 1.749-1.241c.146.187 3.21 5.713 3.21 5.713l1.312-2.051s1.896 3.354 1.896 3.479c0 .123 2.188-3.602 1.75-3.479l1.605 1.74 1.166-3.976 1.604 2.795 1.458-2.112.876 2.112 1.458-6.085 2.479 6.645s1.313-2.484 1.604-2.297c.292.186 1.75 4.407 1.75 4.407l1.314-1.801.729 2.856 1.167-1.739 1.46 4.161 1.458-.932 1.312.744 1.167-5.277 2.041 2.484 1.751-9.064 1.75 4.842 1.605-2.917 2.042 5.214 1.166-1.179 1.75 2.297 1.257 8.796-107.778.013z"/><path fill="#3F2C36" d="M586.3 460.188c2.558.026 3.533-.356-1.109-.722-9.911-.779-12.169-1.559-14.395-1.727 0 0 27.796-.697 29.184-.668 3.562.077 1.245-1.625-3.058-1.734-4.304-.109-30.255-1.354-30.255-1.354s21.334-.366 21.5-1.279c.166-.914-27.078-2.975-27.078-2.975l29.896-1.239s-37.644-1.791-44.972-1.687c-7.328.104-27.678.904-27.678.904l-44.042 1.799 23.905 1.547-13.449 1.146s-30.81 1.62-32.357 1.97c-8.893 2.006 16.02 3.943 9.237 3.634 0 0 25.298.819 12.713 1.119-25.462.605-37.931-.207-35.343 1.286 2.75 1.587 35.5 1.038 35.5 1.038s-30.164 1.616-24.813 2.879c4.063.96 34.462-.342 34.462-.342s-11.378 1.316-11.144 2.234c.234.917 55.995 1.271 55.995 1.271s41.146-.702 44.156-1.567c3.011-.864-2.032-1.938-2.032-1.938s22.655-.799 26.002-.925c3.347-.127 3.872-.869-1.353-.958-5.226-.088-34.606-1.692-34.606-1.692 22.272-.017 13.52-.139 25.134-.02z"/><path fill="#151C30" d="M135.062 326.341l13.87 5.771s-2.22 2.401-4.766 1.418c-7.604-2.939-9.104-7.189-9.104-7.189zm-4.457-30.375l14.328 6.896s-2.942.962-5.488-.021c-7.605-2.94-8.84-6.875-8.84-6.875z"/><path fill="#212C44" d="M92.92 186.017l19.952 48.176-10.666-11.332 1.666 18.332-12.501-28.92z"/><path fill="#111828" d="M92.539 184.527s-4.806 24.887-17.333 38.666c-6.667 7.334 10-6.332 10-6.332l-11.574 16.666 9.453-2.334s-.463 1.287-1.298 3.002c-1.246 2.559-3.319 6.068-5.915 7.666-4.333 2.666 10.334-8.334 10.334-8.334s5.334 9 2 13.666c-3.334 4.668 5.636-2.33 4.333-16-.667-7 4.001 8.668 6.667 12.334 0 0 .334-5 0-6.666-.334-1.668 4.666 6.666 4.666 6.666s-5.666-16-9.275-26.945c-.78-2.365-2.747-10.745 3.275-4.721 2.333 2.333-5.333-27.334-5.333-27.334zm9.667 38.334l10.666 11.332-10.666-7z"/><path fill="#151C30" d="M102.95 231.05l6.922 13.477-6-4.5z"/><path fill="#212C44" d="M121.615 358.699s44.111 31.846 58.438 39.346c10.8 5.654-15.331 0-15.331 0l19.233 15.038-17.701-6.016 13.288 10.148s-30.61 13-40.579-3.146c-2.575-4.17 3.034 12.396 3.034 12.396l-18.498-13.383 2.384 9.396-11.755-7.894 4.17 19.63s-2.426 2.242-8.426.334c-6.939-2.207-7.903-8.349-7.666-8.87.51-1.127-.514-33.546-4.261-46.568-3.746-13.019 3.048-30.809 23.67-20.411z"/><path fill="#111828" d="M101.657 427.267l12.932-37.384 9.912.833-3.283-6.622 16.551 20.789-8.332-31.167s8.639 5.14 14.391 6.638 10.588-1.831 10.588-1.831l-15.421-5.836-11.558-10.221-4.75 2.617-3.067 7.979 1.375 4.625-5.564-4.375-43.289 17.904 29.515 36.051z"/><path fill="#212C44" d="M121.167 326.342s20.83 27.687 33.581 35.263c7.397 4.396-9.953 0-9.953 0l12.486 13.271-11.491-5.309 8.625 8.956s-21.231-1.989-26.871-10.614c-5.64-8.626.332 20.234.332 20.234l-9.841-13.268 1.547 8.292-7.63-6.966-11.833 32.032s-.091-6.57-3.5-12.422c-2.935-5.038-7.867-18.263-7.867-18.263.332-.994 15.127-21.161 12.695-32.653-2.432-11.49 6.333-27.73 19.72-18.553z"/><path fill="#111828" d="M100.437 381.716l9.679-37.682 10.784 11.538-3.713-11.856 11.417 15.834-4.812-26.333s7.082 5.419 12.833 6.917 13.802.261 13.802.261l-18.636-7.928-10.625-6.125-.75 11.25-8-4.75 1.375 4.625-5.564-4.375-16.856 10.749 9.066 37.875zM86.783 226.447l-5.995 5.313s-16.5 19.683-26.25 24.683c-9.75 4.999 9.5-1.25 9.5-1.25s-3.762 9.25-12.256 11c-8.494 1.749 16.256 4.499 20.506 0 4.25-4.5.23 9.337-25.5 22.249-8.655 4.344 16.5-1.25 22.5-4.75 0 0 .186 4.436-16.25 11.25-10.25 4.25 18-1.25 18-1.25s-5.5 4.75-6 5 8.25-2.25 6.25 2.25 15.416 1.25 20.083 8 7.917 5.25 7.917 5.25l-6.25-66.75c0 .001-3.958-20.245-6.255-20.995"/><path fill="#212C44" d="M112.824 288.755s13.232 25.579 37.936 34.722c8.07 2.986-9.953 0-9.953 0l8.125 8.635c-1.245 2.979-14.245-5.77-14.245-5.77l15.741 14.053s-21.231-1.989-26.871-10.614c-5.64-8.626.332 20.234.332 20.234l-9.841-13.268 1.547 8.292-7.63-6.966-7.528 31.893s-15.638-16.537-16.5-15.938c-6.513 4.528 15.955-35.769 13.522-47.261-2.432-11.49 1.979-27.189 15.365-18.012z"/><path fill="#111828" d="M94.832 343.883l12.673-34.792 9.432 13.125-1.932-11.125 9.496 12.552-4.371-22.552s7.082 5.419 12.833 6.917 10.184-1.366 10.184-1.366l-15.018-6.301-10.625-6.125-.75 11.25-8-4.75 1.375 4.625-5.564-4.375-9.733 13.368v29.549z"/><path fill="#111828" d="M83.247 289.331l-3.676.112S51.233 305.747 35.307 308.8s15.069.619 15.069.619-7.049 8.442-20.601 8.517c-13.552.073 24.964 7.646 32.192 4.013 7.229-3.634-.793 9.311-42.785 17.089-14.126 2.616 26.058 1.988 35.911-.312 0 0-.257 4.438-26.903 7.984-16.617 2.212 28.414 2.282 28.414 2.282s-9.222 3.637-10.039 3.787c-.815.15 13.23-.618 9.534 3.456-3.696 4.073 24.047 4.257 30.539 11.868l.139-15.222 13.659-43.417c.001.002-13.677-18.94-17.189-20.133"/><path fill="#212C44" d="M109.928 261.349s17.259 22.117 32.813 30.034c8.8 4.479-8.609 0-8.609 0l10.8 11.479-9.939-4.592 8.154 8.372s-19.058-2.346-23.937-9.807c-4.878-7.461.287 17.503.287 17.503l-8.512-11.477 1.338 7.173-6.6-6.025s-4.885 16.626-6.731 13.523c-3.28-5.511-7.799-13.26-7.616-13.811.287-.86 3.914-16.565 1.81-26.506-2.103-9.937 5.163-23.805 16.742-15.866z"/><path fill="#111828" d="M91.371 389.549l6.176-30.061s-17.848-17.272-22.299-18.583l-.301 2.415.301-2.415s-35.083 15.462-54.994 18.02c-19.91 2.557 18.952 1.103 18.952 1.103s-8.587 8.251-25.611 7.893c-17.024-.359 31.609 8.474 40.575 5.058 8.664-3.303-.075 8.483-48.059 15.116v2.498c11.975.443 32.666.191 39.958-.99 0 0-.182 4.448-33.545 7.156-20.807 1.69 35.771 3.199 35.771 3.199s-13.463 3.146-12.491 3.482c22.516 7.776-8.355 10.858-12.868 14.831-4.514 3.972 53.268-3.903 61.667 3.945 8.4 7.85 17.054 5.051 17.054 5.051l-10.286-37.718zm7.202-120.023l.412-2.907v20.251s2.144-14.614 4.887-11.32c2.034 2.442 5.94 1.695 5.94 1.695l-2.273-5.265s-1.701-5.59 0 0 10.759 8.902 10.759 8.902-9.096-19.026-5.729-15.014c3.367 4.014 18.036 1.497 18.036 1.497l-12.664-3.759-7.826-6.517-6.546 6.778 1.166 6.251-5.75-3.501"/><path fill="#212C44" d="M102.95 228.527s21.588 21.166 28.588 26.167c7 4.999-7.5 0-7.5 0l9.409 10-8.659-4.001 6.5 6.75s-16-1.499-20.25-8c-4.25-6.5.25 15.25.25 15.25l-7.416-9.999 1.166 6.249-5.75-5.249-2.99 16.569s-9.76-16.069-9.51-16.819 6.416-14.682 4.583-23.341 1.491-20.492 11.579-13.576z"/><path fill="#111828" d="M95.27 226.447l7.68 22.19v-9.577l-5.847-14.177zm-3.899 48.436l.733-5.333 7.877 6.833-.996 10.487-3.715-8.66z"/><path fill="#101726" d="M66.285 336.659l20.41 8.492s-3.266 3.533-7.013 2.086c-11.19-4.324-13.397-10.578-13.397-10.578zm-6.558-44.698l21.084 10.147s-4.33 1.415-8.077-.031c-11.19-4.324-13.007-10.116-13.007-10.116z"/><path fill="#222642" d="M4.272 130.167l29.36 70.894-15.695-16.676 2.452 26.976-18.396-42.556z"/><path fill="#101726" d="M20.389 214.796s-8.338-23.544-13.649-39.651c-1.148-3.48-4.042-15.813 4.82-6.947 3.433 3.432-7.848-40.224-7.848-40.224S2.563 133.898 0 142.289v75.152c2.28-4.384 4.593-11.548 3.712-20.795-.981-10.301 5.887 12.755 9.811 18.15 0 0 .491-7.357 0-9.809-.492-2.455 6.866 9.809 6.866 9.809zm-2.452-30.411l15.695 16.676-15.695-10.301z"/><path fill="#151C30" d="M19.032 196.437l10.186 19.831-8.829-6.622z"/><path fill="#222642" d="M46.499 384.276s64.912 46.861 85.993 57.898c15.893 8.32-22.56 0-22.56 0l28.303 22.129-26.048-8.853 19.553 14.935s-45.044 19.13-59.713-4.629c-3.789-6.137 4.464 18.24 4.464 18.24l-27.22-19.693 3.508 13.827-17.299-11.614 6.136 28.886s-3.57 3.3-12.399.492c-10.211-3.248-11.629-12.286-11.281-13.053.75-1.659-.756-49.364-6.271-68.527-5.511-19.161 4.486-45.339 34.834-30.038z"/><path fill="#101726" d="M72.072 404.858l-17.008-15.04-6.99 3.852-4.514 11.741 2.023 6.806-8.188-6.438L0 421.246v43.008l17.129 20.922 19.029-55.012 14.585 1.226-2.184-7.953 21.708 28.801-12.261-45.864s12.713 7.563 21.177 9.769c8.464 2.204 20.311.383 20.311.383l-27.422-11.668z"/><path fill="#222642" d="M98.981 408.079l-18.373-19.528s25.531 6.469 14.646 0c-18.764-11.148-49.415-51.89-49.415-51.89-19.699-13.504-32.598 10.394-29.019 27.302C19.793 378.011 5.282 400.854 0 409.028v7.844c2.442 6.263 6.765 16.95 9.716 22.016 5.016 8.611 5.15 18.279 5.15 18.279l17.413-47.137 11.229 10.251-2.277-12.202 14.481 19.523s-8.787-42.469-.488-29.775c8.299 12.692 39.542 15.619 39.542 15.619l-12.692-13.179 16.907 7.812z"/><path fill="#101726" d="M15.333 418.146l14.243-55.449 15.87 16.979-5.464-17.447 16.8 23.3-7.08-38.75s10.421 7.975 18.885 10.179c8.464 2.205 20.311.384 20.311.384l-27.423-11.666-15.635-9.013-1.104 16.555-11.772-6.99 2.023 6.806-8.188-6.438-24.806 15.815 13.34 55.735zM4.446 220.559S2.383 210.007 0 201.229v107.72c.765.62 1.444 1.312 1.993 2.107 6.868 9.933 11.65 7.726 11.65 7.726l-9.197-98.223z"/><path fill="#222642" d="M89.386 332.444c-36.353-13.453-55.824-51.094-55.824-51.094-19.699-13.504-26.189 9.598-22.61 26.506C12.63 315.783 6.258 333.02 0 348.414v36.719c6.931 6.838 15.333 15.723 15.333 15.723l11.078-46.932 11.229 10.251-2.277-12.202 14.481 19.523s-8.787-42.469-.488-29.775c8.299 12.692 39.542 15.619 39.542 15.619l-23.164-20.679s19.13 12.874 20.962 8.49L74.74 332.444s26.521 4.395 14.646 0z"/><path fill="#101726" d="M7.086 362.473l18.648-51.197 13.879 19.313-2.842-16.37 13.973 18.47-6.432-33.186s10.421 7.975 18.885 10.179 14.986-2.011 14.986-2.011L56.084 298.4l-15.635-9.014-1.104 16.556-11.772-6.99 2.023 6.806-8.188-6.438-14.322 19.671v43.482z"/><path fill="#101726" d="M0 291.973v68.592l15.333-48.737c0-.001-8.093-11.206-15.333-19.855z"/><path fill="#222642" d="M29.3 241.022s25.397 32.545 48.286 44.195c12.949 6.59-12.668 0-12.668 0l15.893 16.891-14.626-6.757 12 12.319s-28.045-3.451-35.224-14.431c-7.178-10.979.422 25.757.422 25.757l-12.526-16.889 1.969 10.555-9.712-8.866s-7.189 24.466-9.906 19.9C8.382 315.587 1.731 304.183 2 303.373c.422-1.266 5.76-24.376 2.664-39.004-3.096-14.622 7.597-35.03 24.636-23.347z"/><path fill="#101726" d="M17.129 485.176L1.993 429.673l9.088-44.235S6.134 380.651 0 375.077V483.25c9.322 4.449 17.129 1.926 17.129 1.926zm-4.538-232.121l.606-4.278v29.801s3.155-21.506 7.191-16.659c2.993 3.595 8.742 2.495 8.742 2.495l-3.346-7.747s-2.502-8.226 0 0c2.503 8.226 15.832 13.101 15.832 13.101s-13.385-27.999-8.43-22.094c4.955 5.906 26.54 2.203 26.54 2.203l-18.635-5.531-11.517-9.589-9.632 9.975 1.716 9.198-8.461-5.151"/><path fill="#222642" d="M63.91 245.943l-13.846-14.715s21.337 7.357 11.037 0c-10.301-7.358-42.068-38.504-42.068-38.504-14.845-10.177-19.736 7.234-17.039 19.975 1.295 6.121-.127 14.03-1.994 20.721v22.787c4.06 7.055 9.243 15.59 9.243 15.59l4.4-24.383 8.461 7.725-1.716-9.196 10.913 14.713s-6.622-32.004-.368-22.439 29.799 11.771 29.799 11.771l-9.565-9.931 12.743 5.886z"/><path fill="#101726" d="M7.73 189.662l11.302 32.653v-14.092l-8.604-20.863zm-5.737 71.275l1.078-7.847 11.593 10.055-1.466 15.432-5.468-12.744z"/><path fill="#151C30" d="M587.334 330.75l-14.475 6.636s1.764 1.984 4.309 1.001c7.605-2.939 10.166-7.637 10.166-7.637zm3.395-29.927l-14.327 6.896s2.941.962 5.488-.021c7.604-2.939 8.839-6.875 8.839-6.875z"/><path fill="#273250" d="M628.414 190.875l-19.951 48.175 10.666-11.332-1.666 18.332 12.5-28.92z"/><path fill="#151C30" d="M628.795 189.384s4.807 24.887 17.334 38.666c6.666 7.334-10-6.332-10-6.332l11.574 16.666-9.453-2.334s.463 1.287 1.297 3.002c1.246 2.559 3.32 6.068 5.916 7.666 4.332 2.666-10.334-8.334-10.334-8.334s-5.334 9-2 13.666c3.334 4.668-5.637-2.33-4.334-16 .668-7-4 8.668-6.666 12.334 0 0-.334-5 0-6.666.334-1.668-4.666 6.666-4.666 6.666s5.666-16 9.275-26.945c.779-2.365 2.746-10.745-3.275-4.721-2.334 2.333 5.332-27.334 5.332-27.334zm-9.666 38.334l-10.666 11.332 10.666-7zm-.744 8.19l-6.922 13.476 6-4.5z"/><path fill="#273250" d="M599.719 363.557s-44.111 31.846-58.438 39.346c-10.799 5.654 15.332 0 15.332 0l-19.234 15.038 17.701-6.016-13.287 10.148s30.609 13 40.578-3.146c2.575-4.17-3.033 12.396-3.033 12.396l18.498-13.383-2.385 9.396 11.756-7.894-4.17 19.63s1.629 4.336 7.629 2.428c6.939-2.207 8.699-10.442 8.463-10.964-.51-1.127.514-33.546 4.261-46.568 3.746-13.02-3.048-30.81-23.671-20.411z"/><path fill="#151C30" d="M619.678 432.124l-12.932-37.384-9.912.833 3.283-6.622-16.551 20.789 8.332-31.167s-8.64 5.14-14.392 6.638-13.802.261-13.802.261l18.635-7.928 11.559-10.221 4.75 2.617 3.066 7.979-1.375 4.625 5.564-4.375 43.289 17.904-29.514 36.051z"/><path fill="#273250" d="M600.168 331.199s-20.83 27.687-33.581 35.263c-7.397 4.396 9.952 0 9.952 0l-12.485 13.271 11.491-5.309-8.626 8.956s21.231-1.989 26.871-10.614c5.64-8.626-.331 20.234-.331 20.234l9.84-13.268-1.547 8.292 7.631-6.966 11.832 32.032s.092-6.57 3.5-12.422c2.936-5.038 7.867-18.263 7.867-18.263-.331-.994-15.127-21.161-12.694-32.653 2.432-11.489-6.333-27.73-19.72-18.553z"/><path fill="#151C30" d="M620.898 386.573l-9.68-37.682-10.783 11.538 3.713-11.856-11.418 15.834 4.812-26.333s-7.082 5.419-12.834 6.917-13.379.636-13.379.636l18.213-8.303 10.625-6.125.75 11.25 8-4.75-1.375 4.625 5.564-4.375 16.855 10.749-9.063 37.875zm13.653-155.269l5.996 5.313s16.5 19.683 26.25 24.683c9.75 4.999-9.5-1.25-9.5-1.25s3.762 9.25 12.256 11c8.494 1.749-16.256 4.499-20.506 0-4.25-4.5-.23 9.337 25.5 22.249 8.654 4.344-16.5-1.25-22.5-4.75 0 0-.186 4.436 16.25 11.25 10.25 4.25-18-1.25-18-1.25s5.5 4.75 6 5-8.25-2.25-6.25 2.25-15.416 1.25-20.084 8c-4.666 6.75-7.916 5.25-7.916 5.25l6.25-66.75c0 .001 3.957-20.245 6.254-20.995"/><path fill="#273250" d="M608.51 294.032s-13.231 25.579-37.936 34.722c-8.069 2.986 9.953 0 9.953 0l-8.125 8.635c1.246 2.979 14.246-5.77 14.246-5.77l-15.742 14.053s21.232-1.989 26.871-10.614c5.641-8.626-.331 20.234-.331 20.234l9.841-13.268-1.547 8.292 7.63-6.966 7.528 31.893s15.638-16.537 16.5-15.938c6.513 4.528-15.955-35.769-13.523-47.261 2.433-11.489-1.979-27.189-15.365-18.012z"/><path fill="#151C30" d="M626.502 348.74l-12.672-34.792-9.432 13.125 1.932-11.125-9.496 12.552 4.371-22.552s-7.082 5.419-12.834 6.917-10.184-1.366-10.184-1.366l15.018-6.301 11.92-6.125-.545 11.25 8-4.75-1.375 4.625 5.564-4.375 9.732 13.368v29.549z"/><path fill="#151C30" d="M642.064 296.716l-.301-2.415s28.338 16.304 44.264 19.357-15.068.619-15.068.619 7.049 8.442 20.601 8.517c13.552.073-24.964 7.646-32.192 4.013-7.229-3.634.793 9.311 42.785 17.089 14.125 2.616-26.059 1.988-35.911-.312 0 0 .257 4.438 26.903 7.984 16.617 2.212-28.414 2.282-28.414 2.282s9.223 3.637 10.039 3.787c.814.15-13.23-.618-9.534 3.456 3.696 4.073-24.048 4.257-30.539 11.868l-.14-15.222-13.658-43.417s13.677-18.941 17.189-20.135"/><path fill="#273250" d="M611.406 266.206s-17.258 22.117-32.812 30.034c-8.801 4.479 8.608 0 8.608 0l-10.8 11.479 9.939-4.592-8.154 8.372s19.058-2.346 23.936-9.807c4.879-7.461-.287 17.503-.287 17.503l8.513-11.477-1.339 7.173 6.601-6.025s4.886 16.626 6.731 13.523c3.279-5.511 7.799-13.26 7.616-13.811-.287-.86-3.914-16.565-1.81-26.506 2.104-9.936-5.162-23.804-16.742-15.866z"/><path fill="#151C30" d="M629.963 394.406l-6.176-30.061s17.848-17.272 22.299-18.583l.302 2.415-.302-2.415s35.084 15.462 54.994 18.02c19.91 2.557-18.952 1.103-18.952 1.103s8.587 8.251 25.61 7.893c17.024-.359-31.609 8.474-40.574 5.058-8.664-3.303.074 8.483 48.059 15.116v2.498c-11.975.443-32.666.191-39.958-.99 0 0 .182 4.448 33.545 7.156 20.808 1.69-35.771 3.199-35.771 3.199s13.463 3.146 12.49 3.482c-22.516 7.776 8.355 10.858 12.869 14.831 4.514 3.972-53.268-3.903-61.668 3.945-8.399 7.85-17.053 5.051-17.053 5.051l10.286-37.718zm-7.201-120.022l-.412-2.907v20.251s-2.145-14.614-4.887-11.32c-2.034 2.442-5.941 1.695-5.941 1.695l2.273-5.265s1.701-5.59 0 0c-1.7 5.59-10.758 8.902-10.758 8.902s9.096-19.026 5.729-15.014c-3.367 4.014-18.036 1.497-18.036 1.497l12.663-3.759 7.826-6.517 6.547 6.778-1.166 6.251 5.75-3.501"/><path fill="#273250" d="M618.385 233.384s-21.588 21.167-28.588 26.167c-7 4.999 7.5 0 7.5 0l-9.41 10 8.66-4.001-6.5 6.75s16-1.499 20.25-8c4.25-6.499-.25 15.25-.25 15.25l7.416-9.999-1.166 6.249 5.75-5.249 2.99 16.569s9.76-16.069 9.51-16.819-6.416-14.682-4.584-23.341c1.834-8.66-1.49-20.492-11.578-13.576z"/><path fill="#151C30" d="M626.064 231.304l-7.679 22.19v-9.577l5.846-14.177zm3.899 48.436l-.733-5.333-7.876 6.833.996 10.488 3.714-8.661zm22.962 79.929l-15.887 6.609s2.543 2.751 5.459 1.624c8.71-3.365 10.428-8.233 10.428-8.233zm5.104-34.792l-16.41 7.898s3.37 1.102 6.286-.024c8.71-3.366 10.124-7.874 10.124-7.874z"/><path fill="#273250" d="M701.194 198.94l-22.853 55.182 12.218-12.98-1.909 20.998 14.319-33.125z"/><path fill="#151C30" d="M720 262.385c-.88-.665-1.705-1.493-2.456-2.425.925.72 1.771 1.388 2.456 1.941v.484zm-31.35 2.428s6.489-18.327 10.624-30.864c.894-2.709 3.146-12.309-3.752-5.407-2.672 2.671 6.108-31.309 6.108-31.309s5.126 26.524 18.37 42.567v2.263c-3.926-2.837-9.97-7.793-9.97-7.793l9.97 14.354v3.923l-7.54-1.861s.53 1.475 1.486 3.438c.871 1.79 2.1 3.981 3.598 5.836-3.729-2.904-8.659-6.601-8.659-6.601s-6.109 10.309-2.291 15.653c3.819 5.347-6.455-2.669-4.963-18.327.764-8.018-4.583 9.929-7.637 14.128 0 0-.382-5.728 0-7.636.383-1.909-5.344 7.636-5.344 7.636zm1.909-23.671l-12.218 12.98 12.218-8.018zm-.853 9.38l-7.929 15.437 6.873-5.154z"/><path fill="#273250" d="M668.326 396.732s-50.525 36.477-66.935 45.067c-12.37 6.477 17.561 0 17.561 0l-22.03 17.225 20.275-6.891-15.22 11.624s35.061 14.891 46.479-3.603c2.948-4.776-3.475 14.198-3.475 14.198l21.187-15.329-2.73 10.763 13.464-9.041-4.775 22.484s2.778 2.568 9.65.382c7.949-2.527 9.053-9.562 8.781-10.159-.584-1.291.588-38.424 4.88-53.341 4.291-14.912-3.49-35.289-27.112-23.379z"/><path fill="#151C30" d="M648.421 412.754l13.238-11.707 5.44 2.998 3.514 9.139-1.575 5.297 6.374-5.011L720 431.911v8.168l-28.813 35.191-14.812-42.82-11.353.954 3.76-7.585-18.958 23.812 9.544-35.699s-9.896 5.887-16.484 7.604c-6.589 1.716-15.809.298-15.809.298l21.346-9.08z"/><path fill="#273250" d="M668.84 359.67s-23.857 31.713-38.464 40.391c-8.472 5.034 11.4 0 11.4 0l-14.302 15.2 13.162-6.081-9.881 10.259s24.32-2.278 30.779-12.158c6.461-9.88-.38 23.177-.38 23.177l11.272-15.196-1.772 9.497 8.739-7.979 13.554 36.69s.105-7.525 4.009-14.229c3.363-5.771 9.012-20.918 9.012-20.918-.381-1.139-17.326-24.238-14.541-37.401 2.787-13.161-7.253-31.763-22.587-21.252z"/><path fill="#151C30" d="M692.585 423.096l-11.086-43.161-12.353 13.217 4.253-13.581-13.077 18.137 5.511-30.162s-8.11 6.207-14.698 7.923c-6.589 1.716-15.811.299-15.811.299l21.346-9.081 12.17-7.016.859 12.886 9.163-5.44-1.575 5.298 6.374-5.012 19.308 12.312-10.384 43.381zm8.475-153.797s4.533-23.19 7.164-24.049l6.867 6.085s1.927 2.298 4.909 5.608v76.912c-5.749.757-13.897 1.353-17.031 5.885-5.346 7.731-9.068 6.014-9.068 6.014l7.159-76.455z"/><path fill="#273250" d="M678.396 316.617s-15.157 29.299-43.452 39.771c-9.244 3.421 11.4 0 11.4 0l-9.307 9.891c1.427 3.413 16.316-6.608 16.316-6.608l-18.03 16.097s24.319-2.279 30.779-12.158c6.459-9.88-.381 23.177-.381 23.177l11.273-15.197-1.773 9.498 8.739-7.979 8.623 36.53s17.912-18.942 18.899-18.255c7.46 5.187-18.275-40.97-15.488-54.134 2.787-13.162-2.265-31.144-17.598-20.633z"/><path fill="#151C30" d="M699.005 379.762l-14.516-39.852-10.804 15.034 2.213-12.743-10.876 14.377 5.006-25.831s-8.111 6.207-14.699 7.923c-6.589 1.716-11.666-1.564-11.666-1.564l17.202-7.218 12.17-7.016.858 12.887 9.163-5.441-1.574 5.298 6.373-5.011 11.149 15.312v33.845z"/><path fill="#151C30" d="M712.274 317.277l4.556 2.895-.345-2.766s1.305.749 3.515 1.965v82.247c-4.971 1.434-9.384 3.277-11.61 5.888l-.159-17.436-15.646-49.73s15.666-21.695 19.689-23.063z"/><path fill="#273250" d="M681.714 285.228s-19.769 25.332-37.585 34.4c-10.08 5.129 9.86 0 9.86 0l-12.37 13.147 11.385-5.26-9.341 9.59s21.829-2.688 27.418-11.233c5.587-8.546-.329 20.049-.329 20.049l9.749-13.146-1.532 8.216 7.56-6.901s5.596 19.043 7.711 15.489c3.757-6.312 8.933-15.188 8.723-15.818-.329-.985-4.483-18.975-2.072-30.36 2.409-11.383-5.914-27.268-19.177-18.173z"/><path fill="#151C30" d="M702.969 432.068l-7.074-34.432s17.419-16.854 24.105-20.623v89.279c-4.324.642-7.632 1.652-9.279 3.192-9.622 8.991-19.534 5.785-19.534 5.785l11.782-43.201zm-8.25-137.475l-.472-3.33v23.196s-2.455-16.739-5.597-12.967c-2.33 2.798-6.805 1.941-6.805 1.941l2.604-6.03s1.949-6.402 0 0c-1.948 6.403-12.322 10.197-12.322 10.197s10.418-21.793 6.561-17.196c-3.856 4.597-20.658 1.714-20.658 1.714l14.506-4.305 8.964-7.465 7.498 7.765-1.336 7.159 6.586-4.01"/><path fill="#273250" d="M689.706 247.632s-24.728 24.244-32.745 29.971c-8.018 5.728 8.591 0 8.591 0l-10.777 11.454 9.918-4.581-7.445 7.73s18.327-1.717 23.194-9.162c4.868-7.445-.286 17.466-.286 17.466l8.495-11.453-1.336 7.158 6.586-6.013 3.425 18.979s11.18-18.406 10.893-19.266c-.286-.859-7.349-16.816-5.249-26.736 2.098-9.916-1.709-23.469-13.264-15.547z"/><path fill="#151C30" d="M698.504 245.25l-8.798 25.416v-10.969l6.696-16.239zm4.465 55.479l-.839-6.109-9.024 7.826 1.141 12.013 4.257-9.92z"/><path fill="#E4DDCC" d="M96.677 104.416c.968 0 .968-1.5 0-1.5s-.968 1.5 0 1.5zM49.552 42.778v.666c0 1.451 2.25 1.451 2.25 0v-.666c0-1.451-2.25-1.451-2.25 0zm194.458 4.458c1.451 0 1.451-2.25 0-2.25s-1.451 2.25 0 2.25zm-169.333 2c1.451 0 1.451-2.25 0-2.25s-1.451 2.25 0 2.25zm155.871 13.671c.583.569 1.312.944 2.129.996.612.039 1.125-.541 1.125-1.125 0-.643-.513-1.086-1.125-1.125.134.009-.173-.064-.074-.02a2.44 2.44 0 01-.323-.193c.155.104-.099-.084-.14-.125-1.038-1.014-2.63.576-1.592 1.592zM129.344 18.57h.666c1.451 0 1.451-2.25 0-2.25h-.666c-1.451 0-1.451 2.25 0 2.25zM80.01 21.236h.667c1.451 0 1.451-2.25 0-2.25h-.667c-1.451 0-1.451 2.25 0 2.25zm86.209 34.208c.024 1.033.786 1.724 1.791 1.792.612.042 1.125-.543 1.125-1.125 0-.645-.514-1.083-1.125-1.125.246.017.383.189.461.394-.103-.27 0 .146-.002.064-.033-1.448-2.283-1.452-2.25 0zm72.666-31.999c-.004.164.062-.343.016-.126-.034.108-.021.083.037-.075a.514.514 0 01.406-.257c-.611.042-1.125.48-1.125 1.125 0 .582.513 1.167 1.125 1.125 1.005-.068 1.767-.758 1.791-1.792.033-1.452-2.217-1.449-2.25 0zm-42.208 5.125h.667c1.451 0 1.451-2.25 0-2.25h-.667c-1.451 0-1.451 2.25 0 2.25zm53.333-6.667c1.451 0 1.451-2.25 0-2.25s-1.451 2.25 0 2.25zm-33.333-5.333c1.451 0 1.451-2.25 0-2.25s-1.451 2.25 0 2.25zM50.01 19.236c.485-.001.995-.032 1.361-.397.385-.385.43-.879.431-1.394.002-1.451-2.248-1.451-2.25 0 0 .084-.053.54.016.17.159-.407.415-.618.768-.634-.107.01-.218.005-.325.005-1.452.003-1.452 2.253-.001 2.25zm209.532 30.209v.666c0 1.451 2.25 1.451 2.25 0v-.666c0-1.451-2.25-1.451-2.25 0zM454 53.903c1.451 0 1.451-2.25 0-2.25s-1.451 2.25 0 2.25zm-169.333 2c1.451 0 1.451-2.25 0-2.25s-1.451 2.25 0 2.25zm155.871 13.671c.583.569 1.312.944 2.129.996.612.039 1.125-.541 1.125-1.125 0-.643-.513-1.086-1.125-1.125.134.009-.173-.064-.074-.02a2.44 2.44 0 01-.323-.193c.155.104-.099-.084-.14-.125-1.038-1.014-2.63.576-1.592 1.592zM339.334 25.237H340c1.451 0 1.451-2.25 0-2.25h-.666c-1.451 0-1.451 2.25 0 2.25zM290 27.903h.667c1.451 0 1.451-2.25 0-2.25H290c-1.451 0-1.451 2.25 0 2.25zm86.209 34.208c.024 1.033.786 1.724 1.791 1.792.612.042 1.125-.543 1.125-1.125 0-.645-.514-1.083-1.125-1.125.246.017.383.189.461.394-.103-.27 0 .146-.002.064-.033-1.448-2.283-1.452-2.25 0zm72.666-31.999c-.004.164.062-.343.016-.126-.034.108-.021.083.037-.075a.514.514 0 01.406-.257c-.611.042-1.125.48-1.125 1.125 0 .582.513 1.167 1.125 1.125 1.005-.068 1.767-.758 1.791-1.792.033-1.452-2.217-1.449-2.25 0zm-42.208 5.125h.667c1.451 0 1.451-2.25 0-2.25h-.667c-1.451 0-1.451 2.25 0 2.25zM460 28.57c1.451 0 1.451-2.25 0-2.25s-1.451 2.25 0 2.25zm-33.333-5.333c1.451 0 1.451-2.25 0-2.25s-1.451 2.25 0 2.25zM260 25.903c.485-.001.995-.032 1.361-.397.385-.385.43-.879.431-1.394.002-1.451-2.248-1.451-2.25 0 0 .084-.053.54.016.17.159-.407.415-.618.768-.634-.107.01-.218.005-.325.005-1.452.003-1.452 2.253-.001 2.25z"/><path fill="#E4DDCC" d="M190.209 152.445v.666c0 1.451 2.25 1.451 2.25 0v-.666c0-1.451-2.25-1.451-2.25 0zm194.458 4.458c1.451 0 1.451-2.25 0-2.25s-1.451 2.25 0 2.25zm-169.333 2c1.451 0 1.451-2.25 0-2.25s-1.451 2.25 0 2.25zm155.871 13.671c.583.569 1.312.944 2.129.996.612.039 1.125-.541 1.125-1.125 0-.643-.513-1.086-1.125-1.125.134.009-.173-.064-.074-.02a2.44 2.44 0 01-.323-.193c.155.104-.099-.084-.14-.125-1.038-1.015-2.63.575-1.592 1.592zm-101.204-44.338h.666c1.451 0 1.451-2.25 0-2.25h-.666c-1.451 0-1.451 2.25 0 2.25zm-49.334 2.667h.667c1.451 0 1.451-2.25 0-2.25h-.667c-1.451 0-1.451 2.25 0 2.25zm86.209 34.208c.024 1.033.786 1.724 1.791 1.792.612.042 1.125-.543 1.125-1.125 0-.645-.514-1.083-1.125-1.125.246.017.383.189.461.394-.103-.27 0 .146-.002.064-.033-1.448-2.283-1.452-2.25 0zm72.666-32c-.004.164.062-.343.016-.126-.034.108-.021.083.037-.075a.514.514 0 01.406-.257c-.611.042-1.125.48-1.125 1.125 0 .582.513 1.167 1.125 1.125 1.005-.068 1.767-.758 1.791-1.792.033-1.451-2.217-1.448-2.25 0zm-42.208 5.125h.667c1.451 0 1.451-2.25 0-2.25h-.667c-1.451 0-1.451 2.25 0 2.25zm53.333-6.666c1.451 0 1.451-2.25 0-2.25s-1.451 2.25 0 2.25zm-33.333-5.334c1.451 0 1.451-2.25 0-2.25s-1.451 2.25 0 2.25zm-166.667 2.667c.485-.001.995-.032 1.361-.397.385-.385.43-.879.431-1.394.002-1.451-2.248-1.451-2.25 0 0 .084-.053.54.016.17.159-.407.415-.618.768-.634-.107.01-.218.005-.325.005-1.452.002-1.452 2.252-.001 2.25z" opacity=".4"/><path fill="#E4DDCC" d="M231.517 213.215v.666c0 1.451 2.25 1.451 2.25 0v-.666c0-1.451-2.25-1.451-2.25 0zm194.458 4.458c1.451 0 1.451-2.25 0-2.25s-1.452 2.25 0 2.25zm-169.333 2c1.451 0 1.451-2.25 0-2.25s-1.452 2.25 0 2.25zm155.871 13.671c.583.569 1.312.944 2.129.996.612.039 1.125-.541 1.125-1.125 0-.643-.513-1.086-1.125-1.125.134.009-.173-.064-.074-.02a2.44 2.44 0 01-.323-.193c.155.104-.099-.084-.14-.125-1.039-1.014-2.63.576-1.592 1.592zm-101.204-44.337h.666c1.451 0 1.451-2.25 0-2.25h-.666c-1.452 0-1.452 2.25 0 2.25zm-49.334 2.666h.667c1.451 0 1.451-2.25 0-2.25h-.667c-1.452 0-1.452 2.25 0 2.25zm86.209 34.208c.024 1.033.786 1.724 1.791 1.792.612.042 1.125-.543 1.125-1.125 0-.645-.514-1.083-1.125-1.125.246.017.383.189.461.394-.103-.27 0 .146-.002.064-.034-1.448-2.284-1.452-2.25 0zm72.666-31.999c-.004.164.062-.343.016-.126-.034.108-.021.083.037-.075a.514.514 0 01.406-.257c-.611.042-1.125.48-1.125 1.125 0 .582.513 1.167 1.125 1.125 1.005-.068 1.767-.758 1.791-1.792.033-1.452-2.217-1.449-2.25 0zm-42.208 5.125h.667c1.451 0 1.451-2.25 0-2.25h-.667c-1.452 0-1.452 2.25 0 2.25zm53.333-6.667c1.451 0 1.451-2.25 0-2.25s-1.452 2.25 0 2.25zm-33.333-5.333c1.451 0 1.451-2.25 0-2.25s-1.452 2.25 0 2.25zm-166.667 2.666c.485-.001.995-.032 1.361-.397.385-.385.43-.879.431-1.394.002-1.451-2.248-1.451-2.25 0 0 .084-.053.54.016.17.159-.407.415-.618.768-.634-.107.01-.218.005-.325.005-1.453.003-1.453 2.253-.001 2.25zm204.946-1.561v.666c0 1.451 2.25 1.451 2.25 0v-.666c0-1.451-2.25-1.451-2.25 0zm194.458 4.458c1.451 0 1.451-2.25 0-2.25s-1.451 2.25 0 2.25zm-169.333 2c1.451 0 1.451-2.25 0-2.25s-1.451 2.25 0 2.25zm155.871 13.671c.583.569 1.312.944 2.129.996.612.039 1.125-.541 1.125-1.125 0-.643-.513-1.086-1.125-1.125.134.009-.173-.064-.074-.02a2.44 2.44 0 01-.323-.193c.155.104-.099-.084-.14-.125-1.038-1.014-2.63.576-1.592 1.592zm-101.204-44.337h.666c1.451 0 1.451-2.25 0-2.25h-.666c-1.451 0-1.451 2.25 0 2.25zm-49.334 2.666h.667c1.451 0 1.451-2.25 0-2.25h-.667c-1.451 0-1.451 2.25 0 2.25zm86.209 34.208c.024 1.033.786 1.724 1.791 1.792.612.042 1.125-.543 1.125-1.125 0-.645-.514-1.083-1.125-1.125.246.017.383.189.461.394-.103-.27 0 .146-.002.064-.033-1.448-2.283-1.452-2.25 0zm72.666-31.999c-.004.164.062-.343.016-.126-.034.108-.021.083.037-.075a.514.514 0 01.406-.257c-.611.042-1.125.48-1.125 1.125 0 .582.513 1.167 1.125 1.125 1.005-.068 1.767-.758 1.791-1.792.033-1.452-2.217-1.449-2.25 0zm-42.208 5.125h.667c1.451 0 1.451-2.25 0-2.25h-.667c-1.451 0-1.451 2.25 0 2.25zm53.333-6.667c1.451 0 1.451-2.25 0-2.25s-1.451 2.25 0 2.25zm-33.333-5.333c1.451 0 1.451-2.25 0-2.25s-1.451 2.25 0 2.25zm-166.667 2.666c.485-.001.995-.032 1.361-.397.385-.385.43-.879.431-1.394.002-1.451-2.248-1.451-2.25 0 0 .084-.053.54.016.17.159-.407.415-.618.768-.634-.107.01-.218.005-.325.005-1.452.003-1.452 2.253-.001 2.25z" opacity=".1"/><path fill="#E4DDCC" d="M132.797 173.903c1.451 0 1.451-2.25 0-2.25s-1.451 2.25 0 2.25zm-13.462 15.671c.583.569 1.312.944 2.129.996.612.039 1.125-.541 1.125-1.125 0-.643-.513-1.086-1.125-1.125.134.009-.173-.064-.074-.02a2.44 2.44 0 01-.323-.193c.155.104-.099-.084-.14-.125-1.038-1.015-2.63.575-1.592 1.592zM18.131 145.236h.666c1.451 0 1.451-2.25 0-2.25h-.666c-1.451 0-1.451 2.25 0 2.25zm36.875 36.875c.024 1.033.786 1.724 1.791 1.792.612.042 1.125-.543 1.125-1.125 0-.645-.514-1.083-1.125-1.125.246.017.383.189.461.394-.103-.27 0 .146-.002.064-.033-1.448-2.283-1.452-2.25 0zm72.666-32c-.004.164.062-.343.016-.126-.034.108-.021.083.037-.075a.514.514 0 01.406-.257c-.611.042-1.125.48-1.125 1.125 0 .582.513 1.167 1.125 1.125 1.005-.068 1.767-.758 1.791-1.792.033-1.451-2.217-1.448-2.25 0zm-42.208 5.125h.667c1.451 0 1.451-2.25 0-2.25h-.667c-1.451 0-1.451 2.25 0 2.25zm53.333-6.666c1.451 0 1.451-2.25 0-2.25s-1.451 2.25 0 2.25zm-33.333-5.334c1.451 0 1.451-2.25 0-2.25s-1.451 2.25 0 2.25z" opacity=".4"/><path fill="#E4DDCC" d="M134.677 98.861c.968 0 .968-1.5 0-1.5s-.968 1.5 0 1.5zM33.26 88.332v.667c0 .968 1.5.968 1.5 0v-.667c0-.968-1.5-.968-1.5 0zm172.75 5.112h.667"/><path fill="#FEF9C8" d="M369.085 46.666l3.129-3.207-3.373 2.754-.164-4.213-.36 4.109-3.177-2.65 3.144 3.139-4.611.402h4.437l-2.97 3.541 3.351-3.283.186 4.74.267-4.705 3.27 3.248-2.99-3.541h4.457zM538.9 30l3.129-3.208-3.373 2.754-.164-4.213-.359 4.11-3.178-2.651 3.145 3.139-4.612.402h4.438l-2.971 3.542 3.352-3.284.185 4.741.268-4.706 3.269 3.249-2.99-3.542h4.457zm-50.931 56.884l2.338-2.397-2.52 2.059-.123-3.15-.268 3.072-2.375-1.981 2.35 2.346-3.445.299h3.316l-2.221 2.646 2.506-2.451.137 3.541.201-3.515 2.442 2.425-2.233-2.646h3.33zM302 103.491l2.338-2.396-2.52 2.058-.123-3.15-.267 3.072-2.375-1.98 2.349 2.345-3.445.299h3.316l-2.22 2.647 2.506-2.451.136 3.541.201-3.516 2.442 2.426-2.233-2.647h3.331zM84.72 89.508l2.338-2.397-2.52 2.059-.123-3.15-.268 3.072-2.375-1.981 2.35 2.346-3.445.3h3.316l-2.221 2.645 2.506-2.451.137 3.542.201-3.516 2.442 2.425-2.233-2.645h3.33zm473.899 7.117l3.522-3.609-3.795 3.099-.186-4.744-.402 4.627-3.577-2.982 3.539 3.532-5.19.452h4.995l-3.344 3.984 3.774-3.691.205 5.334.304-5.297 3.677 3.654L558.778 97h5.016z"/><path fill="#E4DDCC" d="M507.721 118.308c.967 0 .967-1.5 0-1.5s-.967 1.5 0 1.5zm51.917-79.417c.083 1.188 1.067 1.415 2.083 1.417.968.001.967-1.499 0-1.5-.174 0-.347-.003-.521-.013-.269-.016-.074-.069-.062.096-.068-.959-1.568-.966-1.5 0zm112.75 12.75c.839-.001 1.282-.306 1.863-.887.685-.685-.376-1.745-1.061-1.061-.151.151-.304.337-.481.448.115-.072-.1.003.01-.006-.109.009-.222.005-.331.005-.968.003-.968 1.503 0 1.501zm36.667 81.333c1.016-.002 2-.229 2.083-1.416.067-.966-1.433-.959-1.5 0 .008-.11.217-.156-.025-.1-.173.04-.382.016-.558.016-.967.001-.968 1.501 0 1.5zm-112.667 55.334h.667c.967 0 .967-1.5 0-1.5h-.667c-.968 0-.968 1.5 0 1.5zM561.055 26.974h.666c.967 0 .967-1.5 0-1.5h-.666c-.967 0-.967 1.5 0 1.5zm-68.667 83.334c.968 0 .968-1.5 0-1.5s-.968 1.5 0 1.5zm164.667-48.667c.967 0 .967-1.5 0-1.5s-.967 1.5 0 1.5zm-35.334 65.333c.967 0 .967-1.5 0-1.5s-.967 1.5 0 1.5zm-13.25 65.917c0-.038.024-.414-.002-.27-.083.225-.219.344-.406.357.107-.01.218-.005.325-.005.968-.002.968-1.502 0-1.5-.379.001-.808-.001-1.097.287-.309.31-.319.719-.32 1.13-.002.968 1.498.967 1.5.001zm86.584-60.583c.967 0 .967-1.5 0-1.5s-.967 1.5 0 1.5zm-220.75 7.25c-.006.094-.207.23-.274.309-.261.301-.366.632-.393 1.024-.065.966 1.435.96 1.5 0 .007-.095.207-.231.274-.31.26-.301.366-.631.393-1.023.065-.966-1.435-.96-1.5 0zM450.388 10.974h.667c.967 0 .967-1.5 0-1.5h-.667c-.968 0-.968 1.5 0 1.5zm13.25 4.584v.667c0 .967 1.5.967 1.5 0v-.667c0-.968-1.5-.968-1.5 0zm182 2.666v.667c0 .967 1.5.967 1.5 0v-.667c0-.967-1.5-.967-1.5 0zm46.083-1.416h-.666c-.967 0-.967 1.5 0 1.5h.666c.967 0 .967-1.5 0-1.5zM455.138 78.891c-.013.187-.544.156-.315.256.145.064.255.168.368.274.705.66 1.769-.398 1.061-1.061-.456-.427-1.039-.82-1.694-.691-.609.12-.879.651-.919 1.222-.069.965 1.431.959 1.499 0zm57.833-63.333c.02.822.619 1.362 1.417 1.417.966.066.96-1.435 0-1.5-.06-.004.073.053.099.119-.076-.2-.015.002-.016-.035-.023-.967-1.523-.969-1.5-.001zm66.084 69.416c.821-.02 1.361-.619 1.416-1.416.065-.966-1.435-.96-1.5 0-.004.059.053-.074.119-.1-.2.076.002.015-.035.016-.966.022-.968 1.522 0 1.5zM719.638 6.891c0 .077 0 .154-.002.231-.026.271.075.144.306-.381l.379-.103c.344.166.43.18.256.042-.112-.102-.218-.213-.325-.32-.685-.684-1.746.376-1.061 1.061.352.351.77.845 1.329.691.565-.156.617-.732.618-1.221.002-.968-1.498-.968-1.5 0zm-11.917 69.417c.967 0 .967-1.5 0-1.5s-.967 1.5 0 1.5zM594.305 16.891v.667c0 .967 1.5.967 1.5 0v-.667c0-.968-1.5-.968-1.5 0zm-186.584 93.417h.667c.968 0 .968-1.5 0-1.5h-.667c-.967 0-.967 1.5 0 1.5zm96-43.334h.667c.968 0 .968-1.5 0-1.5h-.667c-.967 0-.967 1.5 0 1.5zm177.25-20.083c-.004.06.053-.073.119-.099-.2.076.002.015-.035.016-.966.022-.968 1.522 0 1.5.821-.02 1.361-.62 1.416-1.417.065-.966-1.435-.96-1.5 0zm16-32.667c-.004.059.053-.074.119-.099-.2.077.002.015-.035.016-.966.022-.968 1.522 0 1.5.821-.019 1.361-.62 1.416-1.417.065-.966-1.435-.959-1.5 0zm-69.916 112.084h.666c.967 0 .967-1.5 0-1.5h-.666c-.967 0-.967 1.5 0 1.5zM500.388 71.641c.968 0 .968-1.5 0-1.5s-.968 1.5 0 1.5zm131.333-57.333c.967 0 .967-1.5 0-1.5s-.967 1.5 0 1.5zm-181.333 100h1.333c.967 0 .967-1.5 0-1.5h-1.333c-.968 0-.968 1.5 0 1.5zm222-19.334c.821-.02 1.362-.618 1.417-1.416.066-.966-1.435-.96-1.5 0-.004.06.053-.074.118-.1-.2.076.002.015-.035.016-.966.022-.968 1.522 0 1.5zm36.136-46.886c.336.359.335.579 0 .939-.658.706.399 1.77 1.061 1.061.903-.969.904-2.092 0-3.061-.661-.709-1.72.355-1.061 1.061zm-94.803 15.553c.363-.001.772-.032.969-.396a.953.953 0 00.114-.421c.002-.068-.003-.045-.014.069-.014.073.088-.096.128-.139.659-.706-.399-1.769-1.061-1.061-.334.357-.507.672-.556 1.154l.103-.378c.218-.405.793-.33.316-.329-.966.003-.967 1.503.001 1.501zM457.857 52.754l.667.667c.685.685 1.745-.376 1.061-1.061l-.667-.667c-.685-.684-1.745.376-1.061 1.061zm174 47.334l.667.666c.685.685 1.746-.377 1.061-1.061l-.667-.666c-.685-.684-1.746.377-1.061 1.061zm-75.469 30.053h-.667c-.967 0-.967 1.5 0 1.5h.667c.967 0 .967-1.5 0-1.5zm121.333 56.167c.967 0 .967-1.5 0-1.5s-.967 1.5 0 1.5zM635.055 49.641h.666c.967 0 .967-1.5 0-1.5h-.666c-.967 0-.967 1.5 0 1.5zm-24.667-9.333c.968 0 .968-1.5 0-1.5s-.968 1.5 0 1.5zm10.199 98.526a30.628 30.628 0 01-.409-.104l-.73 1.254.741.297c.898.36 1.285-1.092.398-1.447l-.74-.296c-.728-.291-1.226.757-.729 1.254.34.341.572.364 1.071.489.938.235 1.336-1.212.398-1.447zm27.801-5.193c.968 0 .968-1.5 0-1.5s-.968 1.5 0 1.5z"/><path fill="#FEF9C8" d="M684.611 23.667l3.129-3.208-3.373 2.754-.164-4.213-.359 4.11-3.178-2.651 3.145 3.139-4.612.402h4.438l-2.971 3.542 3.352-3.284.185 4.741.268-4.706 3.269 3.249L684.75 24h4.457zM633.68 79.438l2.338-2.396-2.52 2.059-.123-3.151-.268 3.072-2.375-1.98 2.35 2.346-3.445.299h3.316l-2.221 2.646 2.506-2.451.137 3.541.201-3.516 2.442 2.426-2.233-2.646h3.33zm70.65 10.854l3.522-3.609-3.795 3.099-.186-4.744-.402 4.627-3.577-2.982 3.539 3.532-5.19.452h4.995l-3.344 3.984 3.774-3.691.205 5.334.304-5.297 3.677 3.654-3.363-3.984h5.016zm-512.81-9.951l4.11-4.215-4.431 3.619-.216-5.534-.469 5.397-4.178-3.482 4.131 4.125-6.059.527h5.83l-3.902 4.655 4.404-4.315.243 6.229.355-6.182 4.292 4.268-3.927-4.655h5.856zM21.895 35.316l3.289-3.371-3.545 2.895-.173-4.428-.376 4.318-3.342-2.785 3.305 3.299-4.848.422h4.665l-3.122 3.723 3.523-3.451.195 4.982.284-4.944 3.434 3.413-3.143-3.723h4.686z"/><path fill="#4D7087" d="M442.488 400.26c2.921.066 5.064-1.838.386-2.059-4.679-.22-30.591-1.938-30.591-1.938s35.446-1.869 37.033-1.869c1.416 0-1.355-2.807-6.271-3.088l-41.407-2.371s24.44-3.284 28.385-2.933c4.249.379-31.933-3.42-31.933-3.42l28.824-2.82-25.72-4.021 44.743-7.083-23.75.495-72.002 3.809 24.399 4.733-55.231-1.309 21.373 3.375-106.734 4.286 76.254 4.217s-62.572 2.334-61.242 4.021c1.396 1.767 46.335 4.937 38.587 4.14 0 0 28.896 2.101 14.521 2.867-29.083 1.55-89.994-.711-85.875.771 6.156 2.214 83.23 4.344 83.23 4.344s-43.369 5.758-36.714 5.763c6.655.004 50.56 1.579 50.56 1.579l-22.595 4.553L360 423.973l81.043-7.605-28.386-4.618s25.878-2.047 29.7-2.372c3.823-.326 4.422-2.226-1.546-2.451-5.969-.227-41.459-5.948-41.459-5.948s40.213-.786 43.136-.719z"/><path fill="#608396" d="M409.943 403.594c1.872.055 3.246-1.538.247-1.723-2.999-.184-19.61-1.622-19.61-1.622s22.723-1.564 23.74-1.564c.908 0-.869-2.348-4.021-2.583l-26.544-1.985s15.668-2.747 18.196-2.454c2.724.317-20.471-2.861-20.471-2.861l18.478-2.359-16.487-3.364 28.195-3.315-18.917-1.637H382l-31.228 2.625 15.641 3.963-35.407-1.096 13.701 2.824-68.422 3.587 48.883 3.528s-40.112 1.953-39.26 3.365c.895 1.478 29.703 4.131 24.736 3.464 0 0 18.524 1.758 9.309 2.398-18.644 1.297-57.691-.595-55.05.646 3.946 1.853 53.355 3.635 53.355 3.635s-27.802 4.818-23.536 4.822 32.412 1.321 32.412 1.321l-14.484 3.81 44.414 6.419 51.954-6.364-18.197-3.864s16.589-1.713 19.04-1.984c2.45-.272 2.834-1.862-.991-2.051-3.826-.19-26.578-4.979-26.578-4.979s25.777-.658 27.651-.602z"/><path fill="#608396" d="M367.625 373.625l46.933-3.659-20.058 5.909 16.375 3.887L382 378.125l-14.375-4.5"/><path fill="#F88063" d="M526.595 456.912h-9.251s-5.264-3.118-5.632-11.928c-.27-6.452.667.843 4.658 4.138 1.945 1.606-1.278-3.161-1.338-11.215-.026-3.537 1.042-7.59 2.799-12.156.608-1.583 5.894 8.809 5.515 19.962 0 0 2.274-7.06 1.788-13.389s-1.826-12.174-1.703-13.146c.263-2.078 9.249 7.792 9.007 22.154-.242 14.363 1.461 3.164 2.921.486 1.461-2.677 4.087-4.43 2.922-8.52-.486-1.706 2.596 3.264 3.409 11.197.973 9.494-4.87 12.416-4.87 12.416h-10.225z"/><path opacity=".7" fill="#FCE1D9" d="M536.158 445.213c.521 3.958-.978 8.125-4.062 8.708-.729.138-1.346-1.516-1.5-3.831-.342-5.127-4.604-8.172-3.863-6.335 1.544 3.825-2.143 8.554-2.168 9.668-.542-.463-1.757-1.72-2.386-4.918-.336-1.708-2.667-4.75-2.667-4.75-1.073 2.785-.767 6.259-.235 8.94l-.007-.026c-.025-.127-2.02-.162-4.27-2.579s.917 4.946 4.907 6.835l.521-.013 14.292.051c7.079-4.75 1.176-13.739 1.438-11.75z"/><path fill="#0B111E" d="M546.014 458.156a2.1 2.1 0 01-2.1 2.1h-13.469a2.099 2.099 0 110-4.199h13.469a2.1 2.1 0 012.1 2.099zm-18.845 0a2.1 2.1 0 01-2.1 2.1H511.6a2.099 2.099 0 110-4.199h13.469a2.1 2.1 0 012.1 2.099z"/><path fill="#0B111E" d="M537.181 460.256a2.1 2.1 0 01-2.1 2.1h-13.469a2.099 2.099 0 110-4.199h13.469c1.16 0 2.1.94 2.1 2.099z"/><path opacity=".5" fill="#F88063" d="M570.027 390.5l-14.072 8.167 11.378.166-11.378 9.667 17.212-.994s-16.378 10.839-21.545 12.833c0 0 13.145-2.99 18.405-7.248s5.761-8.066 5.761-8.066l-13.455.396 9.955-9.299-11.788 1.058 9.527-6.68zm22.83 17.006l-4.78 4.162-2.887 8.671 15.435-10.701v12.03l8.94-9.962-7.898 4.607.514-10.893-13.991 10.893zm-16.748-28.673s17.363-7.216 18.945-11.932c.725-2.16 3.264 10.112 3.264 15.433 0 1.499 7.016-7.471 7.016-7.471v7.138l5.885-3.876 9.344 22.922L613 375.666l-6.254 2v-6.871l-6.205 4.068-3.81-10.942S585 374.232 576.109 378.833m68.872 11.667l-10.814 9.224 9.496-.723-7.33 9.666 7.33-1.161-6.625 8.924s8.295-2.596 10.962-5.096l-5.167.5 3.909-6.81-6.242.396 5.333-8.241h-6.166l5.314-6.679zM602.345 336l-1.91 11.75 8.483-10.051-.455 8.218 6.461-4.042 7.123 25.153-4.584-28.405L610 341.5v-7.925l-7.655 8.028zm15.405 110.75l-11.301 6.72 14.449-3.38-14.152 12.265 16.016 3.895-11.512-5 13.625-12.875-9.465 1.125z"/><path opacity=".5" fill="#F88063" d="M609.228 411.888l-2.779 27.487 4.5-28.5zm18.247 16.284c-.225.203-23.934 14.328-23.934 14.328l20.084-3.125-5.875 7.375 9.325-8.851-15.325 1.476 15.725-11.203zm-43.909-73.339c.101.334-11.899 9.088-11.899 9.088l10.834-2.374-8.5 11.415 13.886-14.075-9.699 1.543 5.378-5.597zm4.321-33.5l-8.549 5.167 4.274-.667-6.263 9.078 12.984-6.411s-13.152 14.397-12.146 13.654c.366-.271 15.646-10.41 15.646-10.41l-5.947 1.831 4.697-7.325-10.917 4.948 4.606-7.292 1.615-2.573zm17.988-21.208l-.75 12.375 7.322-10.25-1.242 7.948 10.149-9.375-7.558 5.177v-6.927l-7.347 6.714z"/><path fill="#3F2C36" d="M500.875 468.75c-.279-.279 56.25 0 56.25 0s7.375 2.375 4.625 2.625-8.25 1.25-8.25 1.25l5.75.625h-24.5s-22.121 1-20.498 0 8.748-2.027 8.748-2.027-19.75-.098-22.125-2.473z"/><path fill="#F4DFBB" d="M514.5 423c2.5-5.5 5-14 5-20.5 0-13.5-8-19.5-15-30-14.5-22.5-5.248-43.86 9.752-64.36 14.5-20.5 17.367-39.696-10.752-72.64 5.5 4 33.994 10.412 39.314 25.672 6.686 19.177-5.151 28.151-9.151 39.651-4 10-16.327 19.376-15.327 30.376C519.836 345.699 543.5 349 546 361.5c2.5 14.5-10 26.5-12.5 39.5-2 11.5 6.5 25.5.5 35.5 1.5-6.5 3.5-16.5-3.5-20.5-7-4.5-13.5 3-15 7" opacity=".1"/><path fill="#F4DFBB" d="M513 297.5c16.5-20.662 2.75-40.194-12-48.5 6.5 7 12 15.907 14 25.407 1 3.5.798 19.781-2 23.093m28.329 47.228c-4.954 1.377-11.165-2.29-12.666-4.667-3.532-5.595-5.629-10.877-3.334-16.666 5.335-13.457 20.298-22.765 21.667-31.667-1.333 10.667-9.333 19-14 28-4.333 8.333-3 22.667 8.333 25" opacity=".1"/><path fill="#F88063" d="M387.118 395.51c-.072.01-.163.137-.052.333l.012.02c.018-.03.027-.054.04-.08v-.273zm0 0v.272c.096-.2.061-.28 0-.272z"/><path fill="#F88063" d="M387.078 395.862l.04.071v-.151c-.013.027-.022.05-.04.08z"/><path fill="#805066" d="M234.799 287.72l-1.717 6.667-5.333 2.667-4.589 7.333 4.589 2.667s-29.188 18.666-27.196 18.666 18.23-4 18.23-4l117.181 37.223 8.371-7.626-109.536-63.597z"/><circle fill="#F4DFBB" cx="578.188" cy="213.605" r="29.588"/><circle fill="#E0CEB6" cx="588.944" cy="197.887" r="5.076"/><circle fill="#E0CEB6" cx="596.515" cy="207.649" r="2.511"/><circle fill="#E0CEB6" cx="585.882" cy="212.639" r="3.223"/><path fill="#0B111E" d="M416.131 394.658v.387l5.679 63.673-17.416 3.601z"/><path fill="#33242D" d="M416.131 394.451h-86.583l-1.552 2.413-45.52 70.775 85.072 2.479z"/><path fill="#101728" d="M367.548 470.118l-45.071 18.844-121.16 1.676 81.159-22.999zm81.853-18.588l-12.058 1.73.583 1.26 11.76-2.019z"/><path fill="#773D3C" d="M343.045 480.364c-.309.367.219.901.53.529l30.83-36.803c-.438.149-.889.289-1.336.432-10.007 11.948-20.016 23.895-30.024 35.842z"/><path fill="#C16256" d="M416.095 393.972v-.637c-.086.005-.17.029-.229.1l-42.796 51.088c.447-.143.898-.282 1.336-.432l14.754-17.611 24.212-28.903 2.441-2.914c.114-.137.188-.244.242-.338l-.012-.02c-.111-.197-.021-.324.052-.333z"/><path fill="#773D3C" d="M446.517 446.449c-.379-.161-.756-.324-1.138-.482l3.606 6.352c.239.42.888.042.648-.379l-3.116-5.491z"/><path fill="#F88063" d="M416.455 393.511c-.069-.122-.219-.184-.36-.176v.637c.061-.008.096.072 0 .272v.151l6.755 11.896 22.529 39.675c.382.158.759.321 1.138.482-10.021-17.644-20.041-35.291-30.062-52.937z"/><path fill="#542F2A" d="M257.837 473.597c-.323.357.206.89.53.529l52.223-58.044c-.478.161-.951.332-1.436.476l-51.317 57.039z"/><path fill="#7A483F" d="M329.283 394.186l-20.127 22.372c.485-.144.958-.314 1.436-.476l19.222-21.365c.322-.359-.207-.891-.531-.531z"/><path fill="#6D5867" d="M416.131 394.658s19.795 52.573 21.795 60.64l-16.671 3.42-5.124-64.06z"/><path fill="#604A58" d="M404.394 462.451l-37.25 7.799 48.987-75.667z"/><path opacity=".2" fill="#721" d="M415.688 395.081l-11.295 67.238s-20.541.955-23.708-7.8c.001.001 25.159-27.91 35.003-59.438z"/><path fill="#F88063" d="M416.292 394.451l-11.898 67.868s-13.917 0-16.417-5.701c0 0 19.815-30.25 28.315-62.167z"/><path fill="#1B243A" d="M420 457.5l-12.833-3.98-1.167 5.736z"/></svg>