<?xml version="1.0" encoding="utf-8"?>
<!-- Generator: Adobe Illustrator 23.1.0, SVG Export Plug-In . SVG Version: 6.00 Build 0)  -->
<svg version="1.1" id="publicdomainvectors.org" xmlns="http://www.w3.org/2000/svg" xmlns:xlink="http://www.w3.org/1999/xlink"
	 x="0px" y="0px" viewBox="0 0 660 660" style="enable-background:new 0 0 660 660;" xml:space="preserve">
<style type="text/css">
	.st0{fill-rule:evenodd;clip-rule:evenodd;fill:#46C3EB;}
	.st1{fill-rule:evenodd;clip-rule:evenodd;fill:#25ADD8;}
	.st2{fill-rule:evenodd;clip-rule:evenodd;fill:#6DCDF0;}
	.st3{fill-rule:evenodd;clip-rule:evenodd;fill:#009CC7;}
	.st4{fill-rule:evenodd;clip-rule:evenodd;fill:#0091BC;}
	.st5{fill-rule:evenodd;clip-rule:evenodd;fill:#0088B4;}
	.st6{fill-rule:evenodd;clip-rule:evenodd;fill:#72CFF2;}
	.st7{fill-rule:evenodd;clip-rule:evenodd;fill:#007297;}
	.st8{fill-rule:evenodd;clip-rule:evenodd;fill:#87D4EE;}
	.st9{fill-rule:evenodd;clip-rule:evenodd;fill:#B3E3F4;}
	.st10{fill-rule:evenodd;clip-rule:evenodd;fill:#FFFFFF;}
</style>
<g>
	<polygon class="st0" points="0,0.32 658.38,0.32 658.38,153.22 658.38,658.7 0,658.7 0,153.22 	"/>
	<polygon class="st1" points="462.17,243.51 517.83,201.06 528.67,204.83 571.12,170.88 582.44,175.59 592.81,173.23 643.28,204.83 
		658.38,195.69 658.38,329.51 	"/>
	<polygon class="st2" points="462.81,243.02 517.83,201.06 528.67,204.83 571.12,170.88 565.46,189.74 576.78,200.12 557.91,225.58 
		563.1,237.37 540.93,278.03 462.7,243.74 	"/>
	<polygon class="st1" points="0,256.7 35.36,235.49 60.83,233.6 107.99,206.25 141,219.45 187.22,217.57 307.96,264.73 0,369.43 	
		"/>
	<polygon class="st2" points="0,256.7 35.36,235.49 60.83,233.6 107.99,206.25 96.2,226.06 106.1,230.77 96.67,245.86 82.52,252.47 
		68.84,273.22 67.9,285.01 67.43,286.42 42.91,294.91 37.72,308.12 26.82,318.33 0,334.81 	"/>
	<polygon class="st3" points="0,325.21 80.4,304.58 141.71,264.02 197.36,262.13 269.99,162.15 363.37,86.69 446.38,179.13 
		521.84,218.74 581.26,270.62 624.65,278.17 658.38,301.78 658.38,503.6 0,491.34 	"/>
	<path class="st4" d="M578.24,329.94c0.14,5.88-0.91,10.21-3.08,13.09c1.14-0.12,2.16-0.44,3.08-0.94
		c-0.73,6.8-3.16,10.8-5.72,14.58c1.77,0.15,3.28-0.14,4.59-0.75c-0.22,9.59-3.45,16.47-7.27,22.81c2.43-0.7,4.58-1.92,6.54-3.55
		c-2.66,8.58-7.74,14.05-13.3,18.89c5.8,0,11.59,0,17.39,0c3.37,0,6.73,0,10.1,0c5.54,0,11.09,0,16.64,0
		c-7.32-4.29-12.89-10.86-17.37-18.89c2.2,1.76,4.65,2.91,7.3,3.55c-5.3-6.89-9.46-14.43-12.18-22.81c1.44,0.53,3.01,0.83,4.76,0.75
		c-3.99-3.7-6.76-8.77-8.86-14.58c1.02,0.45,2.11,0.76,3.28,0.94C581.41,340.25,579.65,335.45,578.24,329.94z"/>
	<path class="st5" d="M591.18,331.91c0.14,5.88-0.91,10.21-3.08,13.09c1.14-0.12,2.17-0.44,3.08-0.93
		c-0.73,6.8-3.16,10.8-5.72,14.59c1.77,0.14,3.28-0.14,4.6-0.75c-0.22,9.59-3.45,16.47-7.27,22.81c2.43-0.7,4.58-1.92,6.53-3.55
		c-2.66,8.58-7.73,14.05-13.3,18.89c5.8,0,11.59,0,17.39,0c3.37,0,6.73,0,10.1,0c5.55,0,11.1,0,16.65,0
		c-7.32-4.29-12.89-10.86-17.37-18.89c2.21,1.77,4.66,2.91,7.3,3.55c-5.3-6.89-9.46-14.43-12.18-22.81c1.44,0.54,3,0.84,4.75,0.75
		c-3.99-3.7-6.76-8.77-8.86-14.59c1.01,0.45,2.11,0.76,3.28,0.93C594.35,342.23,592.59,337.42,591.18,331.91z"/>
	<path class="st4" d="M536.06,330.55c0.14,5.88-0.91,10.21-3.08,13.09c1.14-0.12,2.16-0.44,3.08-0.93
		c-0.73,6.8-3.16,10.8-5.72,14.59c1.77,0.14,3.28-0.14,4.59-0.75c-0.22,9.59-3.45,16.47-7.27,22.81c2.43-0.69,4.58-1.92,6.54-3.55
		c-2.66,8.58-7.74,14.05-13.3,18.89c5.8,0,11.59,0,17.39,0c3.36,0,6.73,0,10.1,0c5.54,0,11.09,0,16.64,0
		c-7.31-4.28-12.89-10.86-17.37-18.89c2.2,1.77,4.65,2.91,7.3,3.55c-5.3-6.88-9.46-14.43-12.18-22.81c1.44,0.54,3.01,0.83,4.76,0.75
		c-4-3.7-6.76-8.77-8.86-14.59c1.02,0.45,2.11,0.76,3.28,0.93C539.22,340.87,537.47,336.06,536.06,330.55z"/>
	<polygon class="st6" points="363.37,86.69 348.75,118.29 356.77,118.76 337.9,154.6 323.76,159.79 311.97,194.22 330.83,193.75 
		314.8,231.48 324.7,237.61 317.63,253.64 329.42,277.7 303.01,313.54 289.8,324.39 289.33,345.14 266.22,385.7 259.62,438.52 
		149.73,432.86 186.51,399.38 170.01,374.38 179.44,356.93 152.56,337.12 190.29,297.98 186.51,286.66 168.59,276.75 197.36,262.13 
		269.99,162.15 	"/>
	<path class="st5" d="M464.37,326.77c0.14,5.88-0.91,10.21-3.08,13.09c1.14-0.12,2.17-0.44,3.08-0.93
		c-0.73,6.8-3.16,10.8-5.72,14.59c1.77,0.14,3.28-0.14,4.59-0.75c-0.22,9.59-3.45,16.47-7.27,22.81c2.43-0.7,4.58-1.92,6.54-3.55
		c-2.66,8.58-7.74,14.05-13.3,18.89c5.79,0,11.59,0,17.39,0c3.37,0,6.73,0,10.1,0c5.55,0,11.09,0,16.64,0
		c-7.32-4.29-12.89-10.86-17.37-18.89c2.21,1.76,4.65,2.91,7.3,3.55c-5.3-6.89-9.46-14.43-12.18-22.81c1.44,0.54,3,0.83,4.76,0.75
		c-4-3.7-6.76-8.77-8.86-14.59c1.02,0.45,2.11,0.76,3.28,0.93C467.54,337.09,465.78,332.29,464.37,326.77z"/>
	<path class="st5" d="M493.24,321.22c0.14,5.88-0.91,10.21-3.08,13.09c1.14-0.12,2.17-0.44,3.08-0.93
		c-0.73,6.8-3.16,10.8-5.72,14.59c1.77,0.14,3.28-0.14,4.59-0.75c-0.22,9.59-3.44,16.47-7.27,22.81c2.43-0.7,4.58-1.92,6.54-3.55
		c-2.66,8.59-7.74,14.05-13.3,18.89c5.8,0,11.59,0,17.39,0c3.37,0,6.73,0,10.1,0c5.55,0,11.09,0,16.64,0
		c-7.32-4.29-12.89-10.86-17.37-18.89c2.21,1.77,4.65,2.91,7.3,3.55c-5.3-6.89-9.46-14.43-12.18-22.81c1.44,0.54,3,0.83,4.76,0.75
		c-3.99-3.7-6.76-8.77-8.86-14.59c1.01,0.45,2.11,0.76,3.28,0.93C496.41,331.54,494.65,326.73,493.24,321.22z"/>
	<path class="st5" d="M517.78,325.58c0.15,5.88-0.91,10.21-3.08,13.09c1.14-0.12,2.16-0.44,3.08-0.93
		c-0.73,6.8-3.16,10.8-5.72,14.59c1.77,0.14,3.28-0.14,4.59-0.75c-0.22,9.59-3.45,16.47-7.27,22.81c2.43-0.7,4.58-1.92,6.54-3.55
		c-2.66,8.58-7.74,14.05-13.3,18.89c5.8,0,11.59,0,17.39,0c3.37,0,6.73,0,10.1,0c5.55,0,11.1,0,16.65,0
		c-7.32-4.28-12.89-10.86-17.37-18.89c2.2,1.76,4.65,2.91,7.3,3.55c-5.3-6.88-9.46-14.43-12.18-22.81c1.44,0.54,3,0.84,4.76,0.75
		c-4-3.7-6.76-8.77-8.86-14.59c1.01,0.45,2.11,0.76,3.28,0.93C520.94,335.89,519.19,331.09,517.78,325.58z"/>
	<path class="st5" d="M346.51,335.67c0.14,5.88-0.91,10.21-3.08,13.09c1.14-0.12,2.16-0.44,3.08-0.93
		c-0.73,6.8-3.16,10.8-5.72,14.59c1.77,0.14,3.28-0.14,4.59-0.75c-0.22,9.59-3.44,16.47-7.27,22.81c2.43-0.7,4.58-1.92,6.54-3.55
		c-2.66,8.58-7.74,14.05-13.3,18.89c5.8,0,11.59,0,17.39,0c3.37,0,6.73,0,10.1,0c5.55,0,11.09,0,16.64,0
		c-7.32-4.28-12.89-10.86-17.37-18.89c2.21,1.77,4.66,2.91,7.3,3.55c-5.3-6.88-9.46-14.43-12.18-22.81c1.44,0.54,3,0.84,4.76,0.75
		c-3.99-3.7-6.76-8.77-8.86-14.59c1.02,0.45,2.11,0.76,3.28,0.93C349.67,345.99,347.92,341.18,346.51,335.67z"/>
	<path class="st5" d="M369.14,338.96c0.15,5.88-0.91,10.21-3.08,13.09c1.14-0.12,2.17-0.44,3.08-0.94
		c-0.73,6.8-3.16,10.8-5.72,14.59c1.77,0.14,3.28-0.14,4.59-0.75c-0.22,9.59-3.45,16.47-7.27,22.81c2.43-0.7,4.58-1.92,6.54-3.55
		c-2.66,8.58-7.74,14.05-13.3,18.89c5.8,0,11.59,0,17.39,0c3.37,0,6.73,0,10.1,0c5.55,0,11.1,0,16.64,0
		c-7.32-4.29-12.89-10.86-17.37-18.89c2.21,1.76,4.65,2.91,7.3,3.55c-5.3-6.89-9.46-14.43-12.18-22.81c1.44,0.54,3,0.83,4.75,0.75
		c-4-3.7-6.76-8.77-8.86-14.59c1.01,0.45,2.11,0.76,3.28,0.94C372.3,349.28,370.55,344.47,369.14,338.96z"/>
	<path class="st5" d="M400.08,338.05c0.14,5.88-0.91,10.21-3.08,13.09c1.14-0.12,2.17-0.44,3.08-0.93
		c-0.73,6.8-3.16,10.8-5.72,14.59c1.77,0.14,3.28-0.14,4.59-0.75c-0.22,9.59-3.45,16.47-7.27,22.81c2.43-0.7,4.58-1.92,6.54-3.55
		c-2.66,8.58-7.74,14.05-13.3,18.89c5.79,0,11.59,0,17.39,0c3.37,0,6.73,0,10.1,0c5.55,0,11.09,0,16.64,0
		c-7.32-4.28-12.89-10.86-17.37-18.89c2.21,1.76,4.66,2.91,7.3,3.55c-5.3-6.89-9.46-14.43-12.18-22.81c1.44,0.54,3,0.84,4.75,0.75
		c-4-3.7-6.76-8.77-8.86-14.59c1.01,0.45,2.11,0.76,3.28,0.93C403.24,348.38,401.49,343.57,400.08,338.05z"/>
	<path class="st5" d="M233.17,357.46c-0.15,5.87,0.91,10.21,3.08,13.09c-1.14-0.12-2.17-0.44-3.08-0.93
		c0.73,6.8,3.16,10.8,5.72,14.59c-1.77,0.14-3.28-0.14-4.59-0.75c0.22,9.59,3.45,16.47,7.27,22.81c-2.43-0.69-4.58-1.92-6.54-3.55
		c2.66,8.58,7.74,14.05,13.3,18.89c-5.8,0-11.59,0-17.39,0c-3.37,0-6.73,0-10.1,0c-5.55,0-11.1,0-16.64,0
		c7.32-4.28,12.89-10.86,17.37-18.89c-2.21,1.77-4.65,2.91-7.3,3.55c5.3-6.88,9.46-14.43,12.18-22.81c-1.44,0.54-3,0.83-4.76,0.75
		c3.99-3.7,6.76-8.77,8.86-14.59c-1.01,0.45-2.11,0.76-3.28,0.93C230.01,367.78,231.76,362.98,233.17,357.46z"/>
	<path class="st5" d="M251.14,354.59c-0.15,5.88,0.91,10.21,3.08,13.09c-1.14-0.12-2.16-0.44-3.08-0.94
		c0.73,6.8,3.16,10.8,5.72,14.59c-1.77,0.14-3.28-0.14-4.59-0.75c0.22,9.59,3.45,16.47,7.27,22.81c-2.43-0.69-4.58-1.92-6.54-3.55
		c2.66,8.58,7.74,14.05,13.3,18.89c-5.8,0-11.59,0-17.39,0c-3.37,0-6.73,0-10.1,0c-5.55,0-11.1,0-16.64,0
		c7.32-4.28,12.89-10.86,17.37-18.89c-2.21,1.76-4.66,2.91-7.3,3.55c5.3-6.88,9.46-14.43,12.18-22.81c-1.44,0.54-3,0.84-4.75,0.75
		c3.99-3.7,6.76-8.77,8.86-14.59c-1.01,0.45-2.11,0.76-3.28,0.94C247.98,364.91,249.73,360.11,251.14,354.59z"/>
	<path class="st5" d="M195.63,364.43c-0.14,5.88,0.91,10.21,3.08,13.09c-1.14-0.12-2.16-0.44-3.08-0.93
		c0.73,6.8,3.16,10.8,5.72,14.58c-1.77,0.15-3.28-0.14-4.59-0.75c0.22,9.59,3.45,16.47,7.27,22.81c-2.43-0.7-4.58-1.92-6.54-3.55
		c2.66,8.58,7.74,14.05,13.3,18.89c-5.8,0-11.59,0-17.39,0c-3.37,0-6.73,0-10.1,0c-5.55,0-11.1,0-16.64,0
		c7.32-4.29,12.89-10.86,17.37-18.89c-2.21,1.76-4.66,2.91-7.3,3.55c5.3-6.89,9.46-14.43,12.18-22.81c-1.44,0.53-3,0.83-4.76,0.75
		c3.99-3.7,6.76-8.77,8.86-14.58c-1.01,0.45-2.11,0.76-3.28,0.93C192.47,374.75,194.22,369.95,195.63,364.43z"/>
	<path class="st5" d="M167.71,357.69c-0.15,5.88,0.91,10.21,3.08,13.09c-1.14-0.12-2.16-0.44-3.08-0.93
		c0.73,6.8,3.16,10.8,5.72,14.59c-1.77,0.14-3.28-0.14-4.59-0.75c0.22,9.59,3.45,16.47,7.27,22.81c-2.43-0.7-4.58-1.92-6.54-3.55
		c2.66,8.58,7.74,14.05,13.3,18.89c-5.8,0-11.59,0-17.39,0c-3.37,0-6.73,0-10.1,0c-5.55,0-11.1,0-16.64,0
		c7.32-4.28,12.89-10.86,17.37-18.89c-2.21,1.76-4.66,2.91-7.3,3.55c5.3-6.88,9.46-14.43,12.18-22.81c-1.44,0.54-3,0.83-4.76,0.75
		c3.99-3.7,6.76-8.77,8.86-14.59c-1.01,0.45-2.11,0.76-3.28,0.93C164.55,368.01,166.31,363.21,167.71,357.69z"/>
	<path class="st5" d="M133.67,365.02c-0.15,5.88,0.91,10.21,3.08,13.09c-1.14-0.12-2.16-0.44-3.08-0.93
		c0.73,6.8,3.16,10.8,5.72,14.58c-1.77,0.14-3.28-0.14-4.59-0.75c0.22,9.59,3.45,16.47,7.27,22.82c-2.43-0.7-4.58-1.92-6.54-3.55
		c2.66,8.58,7.74,14.05,13.3,18.89c-5.8,0-11.59,0-17.39,0c-3.37,0-6.73,0-10.1,0c-5.55,0-11.1,0-16.64,0
		c7.32-4.29,12.89-10.86,17.37-18.89c-2.21,1.76-4.66,2.91-7.3,3.55c5.3-6.89,9.46-14.43,12.18-22.82c-1.44,0.54-3,0.84-4.76,0.75
		c3.99-3.7,6.76-8.77,8.86-14.58c-1.01,0.45-2.11,0.76-3.28,0.93C130.51,375.34,132.26,370.54,133.67,365.02z"/>
	<path class="st5" d="M75.92,353.24c-0.14,5.88,0.91,10.21,3.08,13.09c-1.14-0.12-2.17-0.44-3.08-0.93
		c0.73,6.8,3.16,10.8,5.72,14.59c-1.77,0.14-3.28-0.14-4.59-0.75c0.22,9.59,3.45,16.47,7.27,22.81c-2.43-0.7-4.58-1.92-6.54-3.55
		c2.66,8.58,7.74,14.05,13.3,18.89c-5.8,0-11.59,0-17.39,0c-3.37,0-6.73,0-10.1,0c-5.55,0-11.1,0-16.64,0
		c7.32-4.29,12.89-10.86,17.37-18.89c-2.21,1.77-4.66,2.91-7.3,3.55c5.3-6.89,9.46-14.43,12.18-22.81c-1.44,0.54-3,0.83-4.76,0.75
		c3.99-3.7,6.76-8.77,8.86-14.59c-1.01,0.45-2.11,0.76-3.28,0.93C72.76,363.56,74.51,358.75,75.92,353.24z"/>
	<path class="st5" d="M66.51,355.66c-0.15,5.88,0.91,10.21,3.08,13.09c-1.14-0.12-2.17-0.44-3.08-0.94
		c0.73,6.8,3.16,10.8,5.72,14.59c-1.77,0.15-3.28-0.14-4.59-0.75c0.22,9.59,3.45,16.47,7.27,22.81c-2.43-0.69-4.58-1.92-6.54-3.55
		c2.66,8.58,7.74,14.05,13.3,18.89c-5.8,0-11.59,0-17.39,0c-3.37,0-6.73,0-10.1,0c-5.55,0-11.1,0-16.64,0
		c7.32-4.28,12.89-10.86,17.37-18.89c-2.21,1.77-4.66,2.91-7.3,3.55c5.3-6.89,9.46-14.43,12.18-22.81c-1.44,0.54-3,0.83-4.76,0.75
		c3.99-3.7,6.76-8.77,8.86-14.59c-1.01,0.45-2.11,0.76-3.28,0.94C63.35,365.98,65.1,361.18,66.51,355.66z"/>
	<path class="st5" d="M49.26,350.19c-0.15,5.88,0.91,10.21,3.08,13.09c-1.14-0.12-2.17-0.44-3.08-0.93
		c0.73,6.8,3.16,10.8,5.72,14.58c-1.77,0.14-3.28-0.14-4.59-0.75c0.22,9.59,3.45,16.47,7.27,22.82c-2.43-0.7-4.58-1.92-6.54-3.55
		c2.66,8.58,7.74,14.05,13.3,18.89c-5.8,0-11.59,0-17.39,0c-3.37,0-6.73,0-10.1,0c-5.55,0-11.1,0-16.64,0
		c7.32-4.29,12.89-10.86,17.37-18.89c-2.21,1.76-4.66,2.91-7.3,3.55c5.3-6.89,9.46-14.43,12.18-22.82c-1.44,0.54-3,0.84-4.76,0.75
		c3.99-3.7,6.76-8.77,8.86-14.58c-1.01,0.45-2.11,0.76-3.28,0.93C46.1,360.51,47.85,355.71,49.26,350.19z"/>
	<path class="st5" d="M22.38,342.88c-0.14,5.88,0.91,10.21,3.08,13.09c-1.14-0.12-2.17-0.44-3.08-0.93
		c0.73,6.8,3.16,10.8,5.72,14.59c-1.77,0.14-3.28-0.14-4.59-0.75c0.22,9.59,3.45,16.47,7.27,22.82c-2.43-0.7-4.58-1.92-6.54-3.55
		c2.66,8.58,7.74,14.05,13.3,18.89c-5.8,0-11.59,0-17.39,0c-3.37,0-6.73,0-10.1,0H0v-4.87c4.22-3.84,7.75-8.6,10.77-14.02
		c-2.21,1.77-4.66,2.91-7.3,3.55c5.3-6.89,9.46-14.43,12.18-22.82c-1.44,0.54-3,0.84-4.76,0.75c3.99-3.7,6.76-8.77,8.86-14.59
		c-1.01,0.45-2.11,0.76-3.28,0.93C19.21,353.2,20.97,348.4,22.38,342.88z"/>
	<path class="st7" d="M588.05,342.45c0.14,5.88-0.91,10.21-3.08,13.09c1.14-0.12,2.16-0.44,3.08-0.93
		c-0.73,6.8-3.16,10.8-5.72,14.59c1.77,0.14,3.28-0.14,4.59-0.75c-0.22,9.59-3.45,16.47-7.27,22.81c2.43-0.69,4.58-1.92,6.54-3.55
		c-2.66,8.58-7.74,14.05-13.3,18.89c5.8,0,11.59,0,17.39,0c3.37,0,6.73,0,10.1,0c5.55,0,11.09,0,16.64,0
		c-7.32-4.28-12.89-10.86-17.37-18.89c2.21,1.77,4.66,2.91,7.3,3.55c-5.3-6.88-9.46-14.43-12.18-22.81
		c1.44,0.54,3.01,0.83,4.76,0.75c-4-3.7-6.76-8.77-8.87-14.59c1.02,0.45,2.11,0.76,3.28,0.93
		C591.22,352.77,589.46,347.97,588.05,342.45z"/>
	<path class="st7" d="M606.56,339.15c0.14,5.88-0.91,10.21-3.08,13.09c1.14-0.12,2.17-0.44,3.08-0.93
		c-0.73,6.8-3.16,10.8-5.72,14.59c1.77,0.15,3.28-0.14,4.59-0.75c-0.22,9.59-3.44,16.47-7.27,22.81c2.43-0.69,4.58-1.92,6.54-3.55
		c-2.66,8.59-7.73,14.05-13.3,18.89c5.8,0,11.59,0,17.39,0c3.37,0,6.73,0,10.1,0c5.55,0,11.1,0,16.64,0
		c-7.31-4.28-12.89-10.86-17.37-18.89c2.21,1.77,4.66,2.91,7.3,3.55c-5.3-6.88-9.46-14.43-12.18-22.81
		c1.45,0.54,3.01,0.83,4.76,0.75c-3.99-3.7-6.76-8.77-8.86-14.59c1.02,0.45,2.11,0.76,3.28,0.93
		C609.73,349.47,607.97,344.67,606.56,339.15z"/>
	<path class="st7" d="M617.77,350.37c0.14,5.88-0.91,10.21-3.08,13.09c1.14-0.12,2.16-0.44,3.08-0.94
		c-0.73,6.8-3.16,10.8-5.72,14.59c1.77,0.14,3.28-0.14,4.59-0.75c-0.22,9.59-3.44,16.47-7.27,22.81c2.43-0.7,4.58-1.92,6.54-3.55
		c-2.66,8.58-7.74,14.05-13.3,18.89c5.8,0,11.59,0,17.39,0c3.37,0,6.73,0,10.1,0c5.55,0,11.1,0,16.64,0
		c-7.31-4.29-12.89-10.86-17.37-18.89c2.21,1.76,4.66,2.91,7.3,3.55c-5.3-6.89-9.46-14.43-12.18-22.81
		c1.44,0.54,3.01,0.83,4.76,0.75c-3.99-3.7-6.76-8.77-8.86-14.59c1.02,0.45,2.11,0.76,3.28,0.94
		C620.93,360.69,619.18,355.89,617.77,350.37z"/>
	<path class="st7" d="M633.18,355.56c0.14,5.88-0.91,10.21-3.08,13.09c1.14-0.12,2.17-0.44,3.08-0.94
		c-0.73,6.8-3.16,10.8-5.72,14.59c1.77,0.14,3.28-0.14,4.6-0.75c-0.22,9.59-3.45,16.47-7.27,22.81c2.43-0.69,4.58-1.92,6.53-3.55
		c-2.66,8.58-7.73,14.05-13.3,18.89c5.8,0,11.59,0,17.39,0c3.37,0,6.73,0,10.1,0h12.87v-2.52c-5.51-4.17-9.92-9.78-13.6-16.37
		c2.2,1.77,4.65,2.91,7.3,3.55c-5.3-6.89-9.46-14.43-12.18-22.81c1.44,0.54,3,0.83,4.75,0.75c-4-3.7-6.76-8.77-8.86-14.59
		c1.01,0.45,2.11,0.76,3.28,0.94C636.34,365.88,634.59,361.08,633.18,355.56z"/>
	<path class="st7" d="M639.39,349.67c0.14,5.88-0.91,10.21-3.08,13.09c1.14-0.12,2.16-0.44,3.08-0.93
		c-0.73,6.8-3.16,10.8-5.72,14.59c1.77,0.15,3.28-0.14,4.59-0.75c-0.22,9.59-3.45,16.47-7.27,22.81c2.43-0.69,4.58-1.92,6.54-3.55
		c-2.66,8.59-7.74,14.05-13.3,18.89c5.8,0,11.59,0,17.39,0c3.37,0,6.73,0,10.1,0h6.67v-8.29c-2.77-3.12-5.21-6.69-7.39-10.59
		c2.2,1.77,4.65,2.91,7.3,3.55c-5.3-6.89-9.46-14.43-12.18-22.81c1.44,0.54,3.01,0.83,4.76,0.75c-3.99-3.7-6.76-8.77-8.86-14.59
		c1.02,0.45,2.11,0.76,3.28,0.93C642.55,359.98,640.79,355.18,639.39,349.67z"/>
	<path class="st7" d="M570.91,346.6c0.14,5.88-0.91,10.21-3.08,13.09c1.14-0.12,2.17-0.44,3.08-0.94c-0.73,6.8-3.16,10.8-5.72,14.59
		c1.77,0.14,3.28-0.14,4.6-0.75c-0.22,9.59-3.45,16.47-7.27,22.81c2.43-0.7,4.59-1.92,6.54-3.55c-2.66,8.58-7.73,14.05-13.3,18.89
		c5.8,0,11.59,0,17.39,0c3.37,0,6.73,0,10.1,0c5.55,0,11.1,0,16.65,0c-7.32-4.29-12.89-10.86-17.37-18.89
		c2.21,1.76,4.66,2.91,7.3,3.55c-5.3-6.89-9.46-14.43-12.18-22.81c1.45,0.54,3.01,0.83,4.76,0.75c-4-3.7-6.76-8.77-8.86-14.59
		c1.01,0.45,2.11,0.76,3.28,0.94C574.07,356.92,572.32,352.12,570.91,346.6z"/>
	<path class="st7" d="M549.94,340.23c0.14,5.88-0.91,10.21-3.08,13.09c1.14-0.12,2.17-0.44,3.08-0.93
		c-0.73,6.8-3.16,10.8-5.72,14.58c1.77,0.15,3.28-0.14,4.59-0.75c-0.22,9.59-3.44,16.47-7.27,22.81c2.43-0.7,4.58-1.92,6.54-3.55
		c-2.66,8.58-7.73,14.05-13.3,18.89c5.8,0,11.59,0,17.39,0c3.37,0,6.73,0,10.1,0c5.55,0,11.1,0,16.64,0
		c-7.31-4.28-12.89-10.86-17.37-18.89c2.21,1.76,4.66,2.91,7.3,3.55c-5.3-6.89-9.46-14.43-12.18-22.81
		c1.45,0.54,3.01,0.84,4.76,0.75c-3.99-3.7-6.76-8.77-8.86-14.58c1.02,0.45,2.11,0.76,3.28,0.93
		C553.1,350.55,551.35,345.75,549.94,340.23z"/>
	<path class="st7" d="M536.9,352.73c0.15,5.88-0.91,10.21-3.08,13.09c1.14-0.12,2.17-0.44,3.08-0.94c-0.73,6.8-3.16,10.8-5.72,14.59
		c1.77,0.14,3.28-0.14,4.59-0.75c-0.22,9.59-3.44,16.47-7.27,22.81c2.43-0.69,4.58-1.92,6.54-3.55c-2.66,8.58-7.74,14.05-13.3,18.89
		c5.8,0,11.59,0,17.39,0c3.37,0,6.73,0,10.1,0c5.55,0,11.1,0,16.64,0c-7.32-4.28-12.89-10.86-17.37-18.89
		c2.21,1.77,4.66,2.91,7.3,3.55c-5.3-6.88-9.46-14.43-12.18-22.81c1.44,0.54,3,0.83,4.76,0.75c-3.99-3.7-6.76-8.77-8.86-14.59
		c1.01,0.45,2.11,0.76,3.28,0.94C540.06,363.05,538.31,358.25,536.9,352.73z"/>
	<path class="st7" d="M561.22,336.35c0.14,5.88-0.91,10.21-3.08,13.09c1.14-0.12,2.16-0.44,3.08-0.93
		c-0.73,6.8-3.16,10.8-5.72,14.59c1.77,0.14,3.28-0.14,4.6-0.75c-0.22,9.59-3.45,16.47-7.27,22.81c2.43-0.69,4.58-1.92,6.53-3.55
		c-2.66,8.58-7.73,14.05-13.3,18.89c5.79,0,11.59,0,17.39,0c3.37,0,6.73,0,10.1,0c5.55,0,11.1,0,16.64,0
		c-7.32-4.28-12.89-10.86-17.37-18.89c2.21,1.77,4.66,2.91,7.3,3.55c-5.3-6.88-9.46-14.43-12.18-22.81c1.44,0.54,3,0.83,4.75,0.75
		c-3.99-3.7-6.76-8.77-8.86-14.59c1.01,0.45,2.11,0.76,3.28,0.93C564.39,346.67,562.63,341.86,561.22,336.35z"/>
	<path class="st7" d="M532.58,353.07c0.14,5.88-0.91,10.21-3.08,13.09c1.14-0.12,2.16-0.44,3.08-0.93
		c-0.73,6.8-3.16,10.8-5.72,14.59c1.77,0.14,3.28-0.14,4.59-0.75c-0.22,9.59-3.44,16.47-7.27,22.81c2.43-0.7,4.58-1.92,6.54-3.55
		c-2.66,8.58-7.74,14.05-13.3,18.89c5.8,0,11.59,0,17.39,0c3.37,0,6.73,0,10.1,0c5.55,0,11.1,0,16.64,0
		c-7.32-4.29-12.89-10.86-17.37-18.89c2.21,1.77,4.66,2.91,7.3,3.55c-5.3-6.88-9.46-14.43-12.18-22.81c1.44,0.54,3,0.84,4.75,0.75
		c-3.99-3.7-6.76-8.77-8.86-14.59c1.02,0.45,2.11,0.76,3.28,0.93C535.74,363.39,533.98,358.58,532.58,353.07z"/>
	<path class="st7" d="M496.02,346.94c0.14,5.88-0.91,10.21-3.08,13.09c1.14-0.12,2.17-0.44,3.08-0.93
		c-0.73,6.8-3.16,10.8-5.72,14.59c1.77,0.14,3.28-0.14,4.59-0.75c-0.22,9.59-3.45,16.47-7.27,22.81c2.43-0.7,4.58-1.92,6.54-3.55
		c-2.66,8.58-7.74,14.05-13.3,18.89c5.8,0,11.59,0,17.39,0c3.36,0,6.73,0,10.1,0c5.55,0,11.1,0,16.64,0
		c-7.32-4.28-12.89-10.86-17.37-18.89c2.21,1.76,4.65,2.91,7.3,3.55c-5.3-6.88-9.46-14.43-12.18-22.81c1.44,0.54,3,0.83,4.75,0.75
		c-3.99-3.7-6.76-8.77-8.86-14.59c1.01,0.45,2.11,0.76,3.28,0.93C499.19,357.25,497.43,352.45,496.02,346.94z"/>
	<path class="st7" d="M514.65,356.6c0.14,5.88-0.91,10.21-3.08,13.09c1.14-0.12,2.17-0.44,3.08-0.93c-0.73,6.8-3.16,10.8-5.72,14.59
		c1.77,0.14,3.28-0.14,4.59-0.75c-0.22,9.59-3.44,16.47-7.27,22.81c2.43-0.7,4.58-1.92,6.54-3.55c-2.66,8.58-7.74,14.05-13.3,18.89
		c5.8,0,11.59,0,17.39,0c3.37,0,6.73,0,10.1,0c5.55,0,11.1,0,16.64,0c-7.32-4.29-12.89-10.86-17.37-18.89
		c2.2,1.77,4.65,2.91,7.3,3.55c-5.3-6.88-9.46-14.43-12.18-22.81c1.44,0.54,3,0.84,4.76,0.75c-4-3.7-6.76-8.77-8.87-14.59
		c1.02,0.45,2.11,0.76,3.28,0.93C517.82,366.92,516.06,362.12,514.65,356.6z"/>
	<path class="st7" d="M517.05,344.84c0.14,5.88-0.91,10.21-3.08,13.09c1.14-0.12,2.17-0.44,3.08-0.93
		c-0.73,6.8-3.16,10.8-5.72,14.59c1.77,0.14,3.28-0.14,4.6-0.75c-0.22,9.59-3.45,16.47-7.27,22.81c2.43-0.7,4.58-1.92,6.54-3.55
		c-2.66,8.58-7.74,14.05-13.3,18.89c5.8,0,11.59,0,17.39,0c3.37,0,6.73,0,10.1,0c5.55,0,11.1,0,16.64,0
		c-7.32-4.28-12.89-10.86-17.37-18.89c2.21,1.77,4.66,2.91,7.3,3.55c-5.3-6.88-9.46-14.43-12.18-22.81c1.44,0.53,3,0.83,4.75,0.75
		c-3.99-3.7-6.76-8.77-8.86-14.59c1.01,0.45,2.11,0.76,3.28,0.93C520.21,355.16,518.46,350.35,517.05,344.84z"/>
	<path class="st7" d="M505.89,349.92c0.14,5.88-0.91,10.21-3.08,13.09c1.14-0.12,2.17-0.44,3.08-0.94
		c-0.73,6.8-3.16,10.8-5.72,14.59c1.77,0.14,3.28-0.14,4.6-0.75c-0.22,9.59-3.45,16.47-7.27,22.82c2.43-0.7,4.58-1.92,6.54-3.55
		c-2.66,8.58-7.74,14.05-13.3,18.89c5.8,0,11.59,0,17.39,0c3.37,0,6.73,0,10.1,0c5.55,0,11.09,0,16.64,0
		c-7.31-4.29-12.89-10.86-17.37-18.89c2.21,1.77,4.65,2.91,7.3,3.55c-5.3-6.89-9.46-14.43-12.18-22.82c1.44,0.54,3,0.84,4.75,0.75
		c-4-3.7-6.76-8.77-8.86-14.59c1.01,0.45,2.11,0.76,3.28,0.94C509.05,360.25,507.3,355.44,505.89,349.92z"/>
	<path class="st7" d="M480.42,341.67c0.14,5.88-0.91,10.21-3.08,13.09c1.14-0.12,2.17-0.44,3.08-0.93
		c-0.73,6.8-3.16,10.8-5.72,14.59c1.77,0.14,3.28-0.14,4.59-0.75c-0.22,9.59-3.44,16.47-7.27,22.81c2.43-0.7,4.58-1.92,6.54-3.55
		c-2.66,8.58-7.74,14.05-13.3,18.89c5.8,0,11.59,0,17.39,0c3.37,0,6.73,0,10.1,0c5.55,0,11.1,0,16.64,0
		c-7.31-4.28-12.89-10.86-17.37-18.89c2.21,1.77,4.66,2.91,7.3,3.55c-5.3-6.88-9.46-14.43-12.18-22.81c1.44,0.54,3,0.84,4.75,0.75
		c-3.99-3.7-6.76-8.77-8.86-14.59c1.01,0.45,2.11,0.76,3.28,0.93C483.59,351.99,481.83,347.19,480.42,341.67z"/>
	<path class="st7" d="M470.95,352.82c0.14,5.88-0.91,10.21-3.08,13.09c1.14-0.12,2.17-0.44,3.08-0.94
		c-0.73,6.8-3.16,10.8-5.72,14.58c1.77,0.15,3.28-0.14,4.59-0.75c-0.22,9.59-3.45,16.47-7.27,22.81c2.43-0.7,4.58-1.92,6.54-3.55
		c-2.66,8.58-7.74,14.05-13.3,18.89c5.8,0,11.59,0,17.39,0c3.37,0,6.73,0,10.1,0c5.55,0,11.09,0,16.64,0
		c-7.32-4.28-12.89-10.86-17.37-18.89c2.21,1.76,4.66,2.91,7.3,3.55c-5.3-6.89-9.46-14.43-12.18-22.81c1.44,0.53,3,0.83,4.75,0.75
		c-3.99-3.7-6.76-8.77-8.86-14.58c1.01,0.45,2.11,0.76,3.28,0.94C474.11,363.13,472.36,358.33,470.95,352.82z"/>
	<path class="st7" d="M457.98,344.33c0.14,5.88-0.91,10.21-3.08,13.09c1.14-0.12,2.17-0.44,3.08-0.93
		c-0.73,6.8-3.16,10.8-5.72,14.59c1.77,0.15,3.28-0.14,4.59-0.75c-0.22,9.59-3.45,16.47-7.27,22.81c2.43-0.69,4.58-1.92,6.54-3.55
		c-2.66,8.58-7.74,14.05-13.3,18.89c5.8,0,11.59,0,17.39,0c3.36,0,6.73,0,10.1,0c5.55,0,11.1,0,16.64,0
		c-7.32-4.28-12.89-10.86-17.37-18.89c2.21,1.77,4.65,2.91,7.3,3.55c-5.3-6.88-9.46-14.43-12.18-22.81c1.44,0.54,3,0.83,4.75,0.75
		c-3.99-3.7-6.76-8.77-8.86-14.59c1.02,0.45,2.11,0.76,3.28,0.93C461.14,354.65,459.39,349.84,457.98,344.33z"/>
	<path class="st7" d="M71.04,372.5c-0.15,5.88,0.91,10.21,3.08,13.09c-1.14-0.12-2.17-0.44-3.08-0.93c0.73,6.8,3.16,10.8,5.72,14.59
		c-1.77,0.14-3.28-0.14-4.6-0.75c0.22,9.59,3.45,16.47,7.27,22.81c-2.43-0.7-4.58-1.92-6.54-3.55c2.66,8.59,7.74,14.05,13.3,18.89
		c-5.8,0-11.59,0-17.39,0c-3.37,0-6.73,0-10.1,0c-5.55,0-11.1,0-16.64,0c7.32-4.28,12.89-10.86,17.37-18.89
		c-2.21,1.77-4.66,2.91-7.3,3.55c5.3-6.88,9.46-14.43,12.18-22.81c-1.44,0.54-3,0.84-4.76,0.75c3.99-3.7,6.76-8.77,8.86-14.59
		c-1.01,0.45-2.11,0.76-3.28,0.93C67.88,382.82,69.63,378.01,71.04,372.5z"/>
	<path class="st7" d="M88.19,376.64c-0.14,5.88,0.91,10.21,3.08,13.09c-1.14-0.12-2.17-0.44-3.08-0.93
		c0.73,6.8,3.16,10.8,5.72,14.58c-1.77,0.15-3.28-0.14-4.59-0.75c0.22,9.59,3.45,16.47,7.27,22.81c-2.43-0.7-4.58-1.92-6.54-3.55
		c2.66,8.58,7.74,14.05,13.3,18.89c-5.8,0-11.59,0-17.39,0c-3.37,0-6.73,0-10.1,0c-5.55,0-11.1,0-16.64,0
		c7.32-4.28,12.89-10.86,17.37-18.89c-2.21,1.76-4.65,2.91-7.3,3.55c5.3-6.89,9.46-14.43,12.18-22.81c-1.44,0.53-3,0.83-4.76,0.75
		c3.99-3.7,6.76-8.77,8.86-14.58c-1.01,0.45-2.11,0.76-3.28,0.93C85.03,386.96,86.78,382.16,88.19,376.64z"/>
	<path class="st7" d="M109.15,370.28c-0.14,5.88,0.91,10.21,3.08,13.09c-1.14-0.12-2.17-0.44-3.08-0.94
		c0.73,6.8,3.16,10.8,5.72,14.59c-1.77,0.15-3.28-0.14-4.59-0.75c0.22,9.59,3.45,16.47,7.27,22.81c-2.43-0.69-4.58-1.92-6.54-3.55
		c2.66,8.59,7.74,14.05,13.3,18.89c-5.8,0-11.59,0-17.39,0c-3.37,0-6.73,0-10.1,0c-5.55,0-11.1,0-16.64,0
		c7.32-4.28,12.89-10.86,17.37-18.89c-2.21,1.77-4.66,2.91-7.3,3.55c5.3-6.89,9.46-14.43,12.18-22.81c-1.44,0.54-3,0.83-4.76,0.75
		c4-3.7,6.76-8.77,8.86-14.59c-1.02,0.45-2.11,0.76-3.28,0.94C105.99,380.6,107.75,375.79,109.15,370.28z"/>
	<path class="st7" d="M122.19,382.78c-0.14,5.88,0.91,10.21,3.08,13.09c-1.14-0.12-2.17-0.44-3.08-0.94
		c0.73,6.8,3.16,10.8,5.72,14.59c-1.77,0.14-3.28-0.14-4.59-0.75c0.22,9.59,3.45,16.47,7.27,22.81c-2.43-0.7-4.58-1.92-6.54-3.55
		c2.66,8.58,7.74,14.05,13.3,18.89c-5.8,0-11.59,0-17.39,0c-3.37,0-6.73,0-10.1,0c-5.55,0-11.1,0-16.64,0
		c7.31-4.29,12.89-10.86,17.37-18.89c-2.21,1.76-4.65,2.91-7.3,3.55c5.3-6.89,9.46-14.43,12.18-22.81c-1.44,0.54-3,0.83-4.76,0.75
		c3.99-3.7,6.76-8.77,8.86-14.59c-1.01,0.45-2.11,0.76-3.28,0.94C119.03,393.1,120.78,388.29,122.19,382.78z"/>
	<path class="st7" d="M97.87,366.39c-0.14,5.88,0.91,10.21,3.08,13.09c-1.14-0.12-2.17-0.44-3.08-0.94
		c0.73,6.8,3.16,10.8,5.72,14.59c-1.77,0.14-3.28-0.14-4.59-0.75c0.22,9.59,3.45,16.47,7.27,22.81c-2.43-0.7-4.58-1.92-6.54-3.55
		c2.66,8.58,7.74,14.05,13.3,18.89c-5.8,0-11.59,0-17.39,0c-3.37,0-6.73,0-10.1,0c-5.55,0-11.1,0-16.64,0
		c7.32-4.29,12.89-10.86,17.37-18.89c-2.21,1.76-4.66,2.91-7.3,3.55c5.3-6.89,9.46-14.43,12.18-22.81c-1.44,0.54-3,0.83-4.75,0.75
		c3.99-3.7,6.76-8.77,8.86-14.59c-1.02,0.45-2.11,0.76-3.28,0.94C94.71,376.71,96.46,371.91,97.87,366.39z"/>
	<path class="st7" d="M126.52,383.11c-0.14,5.88,0.91,10.21,3.08,13.09c-1.14-0.12-2.16-0.44-3.08-0.93
		c0.73,6.8,3.16,10.79,5.72,14.58c-1.77,0.14-3.28-0.14-4.59-0.75c0.22,9.59,3.45,16.47,7.27,22.81c-2.43-0.7-4.58-1.92-6.54-3.55
		c2.66,8.58,7.74,14.05,13.3,18.89c-5.8,0-11.59,0-17.39,0c-3.37,0-6.73,0-10.1,0c-5.55,0-11.1,0-16.64,0
		c7.32-4.29,12.89-10.86,17.37-18.89c-2.21,1.77-4.65,2.91-7.3,3.55c5.3-6.89,9.46-14.43,12.18-22.81c-1.44,0.54-3,0.84-4.76,0.75
		c3.99-3.7,6.76-8.77,8.86-14.58c-1.02,0.45-2.11,0.76-3.28,0.93C123.36,393.43,125.11,388.63,126.52,383.11z"/>
	<path class="st7" d="M144.44,386.65c-0.14,5.88,0.91,10.21,3.08,13.09c-1.14-0.12-2.17-0.44-3.08-0.93
		c0.73,6.8,3.16,10.79,5.72,14.58c-1.77,0.14-3.28-0.14-4.6-0.75c0.22,9.59,3.45,16.47,7.27,22.81c-2.43-0.7-4.58-1.92-6.54-3.55
		c2.66,8.58,7.74,14.05,13.3,18.89c-5.8,0-11.59,0-17.39,0c-3.37,0-6.73,0-10.1,0c-5.55,0-11.1,0-16.64,0
		c7.32-4.29,12.89-10.86,17.37-18.89c-2.21,1.77-4.65,2.91-7.3,3.55c5.3-6.89,9.46-14.43,12.18-22.81c-1.44,0.54-3,0.83-4.76,0.75
		c3.99-3.7,6.76-8.77,8.86-14.58c-1.02,0.45-2.11,0.76-3.28,0.93C141.28,396.97,143.03,392.17,144.44,386.65z"/>
	<path class="st7" d="M142.05,374.88c-0.14,5.88,0.91,10.21,3.08,13.09c-1.14-0.12-2.17-0.44-3.08-0.94
		c0.73,6.8,3.16,10.8,5.72,14.59c-1.77,0.15-3.28-0.14-4.59-0.75c0.22,9.59,3.45,16.47,7.27,22.81c-2.43-0.69-4.58-1.92-6.54-3.55
		c2.66,8.58,7.74,14.05,13.3,18.89c-5.8,0-11.59,0-17.39,0c-3.37,0-6.73,0-10.1,0c-5.55,0-11.1,0-16.64,0
		c7.32-4.28,12.89-10.86,17.37-18.89c-2.21,1.77-4.66,2.91-7.3,3.55c5.3-6.88,9.46-14.43,12.18-22.81c-1.44,0.54-3,0.84-4.75,0.75
		c3.99-3.7,6.76-8.77,8.86-14.59c-1.02,0.45-2.11,0.76-3.28,0.94C138.88,385.2,140.64,380.4,142.05,374.88z"/>
	<path class="st7" d="M153.2,379.97c-0.14,5.88,0.91,10.21,3.08,13.09c-1.14-0.12-2.17-0.44-3.08-0.93
		c0.73,6.8,3.16,10.8,5.72,14.58c-1.77,0.14-3.28-0.14-4.6-0.75c0.22,9.59,3.45,16.47,7.27,22.82c-2.43-0.7-4.58-1.92-6.54-3.55
		c2.66,8.58,7.74,14.05,13.3,18.89c-5.8,0-11.59,0-17.39,0c-3.37,0-6.73,0-10.1,0c-5.55,0-11.1,0-16.64,0
		c7.32-4.29,12.89-10.86,17.37-18.89c-2.21,1.77-4.65,2.91-7.3,3.55c5.3-6.89,9.46-14.43,12.18-22.82c-1.44,0.54-3,0.84-4.75,0.75
		c3.99-3.7,6.76-8.77,8.86-14.58c-1.02,0.45-2.11,0.76-3.28,0.93C150.04,390.29,151.79,385.49,153.2,379.97z"/>
	<path class="st7" d="M18.44,364.19c-0.14,5.88,0.91,10.21,3.08,13.09c-1.14-0.12-2.16-0.44-3.08-0.93
		c0.73,6.8,3.16,10.8,5.72,14.59c-1.77,0.14-3.28-0.14-4.59-0.75c0.22,9.59,3.45,16.47,7.27,22.81c-2.43-0.7-4.58-1.92-6.54-3.55
		c2.66,8.58,7.74,14.05,13.3,18.89c-5.8,0-11.59,0-17.39,0c-3.37,0-6.73,0-10.1,0H0v-8.93c2.55-2.97,4.81-6.31,6.84-9.96
		c-2.08,1.66-4.37,2.77-6.84,3.43v-0.49c5.08-6.72,9.08-14.07,11.72-22.21c-1.44,0.54-3,0.84-4.76,0.75
		c3.99-3.7,6.76-8.77,8.86-14.59c-1.01,0.45-2.11,0.76-3.28,0.93C15.28,374.51,17.03,369.7,18.44,364.19z"/>
	<path class="st7" d="M8.58,367.18c-0.14,5.88,0.91,10.21,3.08,13.09c-1.14-0.12-2.17-0.44-3.08-0.94c0.73,6.8,3.16,10.8,5.72,14.59
		c-1.77,0.14-3.28-0.14-4.59-0.75c0.22,9.59,3.45,16.47,7.27,22.82c-2.43-0.7-4.58-1.92-6.54-3.55c2.66,8.58,7.74,14.05,13.3,18.89
		c-5.8,0-11.59,0-17.39,0H0v-33.1c0.68-1.65,1.29-3.33,1.85-5.05c-0.59,0.22-1.21,0.4-1.85,0.53v-2.97c2.5-3.23,4.41-7.11,5.96-11.4
		c-1.01,0.45-2.11,0.76-3.28,0.94C5.41,377.5,7.17,372.69,8.58,367.18z"/>
	<path class="st7" d="M34.04,358.93c-0.15,5.87,0.91,10.21,3.08,13.09c-1.14-0.12-2.16-0.44-3.08-0.93
		c0.73,6.8,3.16,10.8,5.72,14.59c-1.77,0.14-3.28-0.14-4.59-0.75c0.22,9.59,3.45,16.47,7.27,22.81c-2.43-0.7-4.58-1.92-6.54-3.55
		c2.66,8.58,7.74,14.05,13.3,18.89c-5.8,0-11.59,0-17.39,0c-3.37,0-6.73,0-10.1,0c-5.55,0-11.1,0-16.64,0
		c7.32-4.29,12.89-10.86,17.37-18.89c-2.21,1.77-4.65,2.91-7.3,3.55c5.3-6.88,9.46-14.43,12.18-22.81c-1.44,0.54-3,0.84-4.76,0.75
		c3.99-3.7,6.76-8.77,8.86-14.59c-1.01,0.45-2.11,0.76-3.28,0.93C30.88,369.24,32.63,364.44,34.04,358.93z"/>
	<path class="st7" d="M43.52,370.07c-0.15,5.88,0.91,10.21,3.08,13.09c-1.14-0.12-2.16-0.44-3.08-0.94
		c0.73,6.8,3.16,10.8,5.72,14.58c-1.77,0.15-3.28-0.14-4.59-0.75c0.22,9.59,3.45,16.47,7.27,22.81c-2.43-0.7-4.58-1.92-6.54-3.55
		c2.66,8.58,7.74,14.05,13.3,18.89c-5.8,0-11.59,0-17.39,0c-3.37,0-6.73,0-10.1,0c-5.55,0-11.1,0-16.64,0
		c7.32-4.28,12.89-10.86,17.37-18.89c-2.21,1.77-4.65,2.91-7.3,3.55c5.3-6.89,9.46-14.43,12.18-22.81c-1.44,0.53-3,0.83-4.76,0.75
		c3.99-3.7,6.76-8.77,8.86-14.58c-1.02,0.45-2.11,0.76-3.28,0.94C40.36,380.39,42.11,375.59,43.52,370.07z"/>
	<path class="st7" d="M56.49,361.58c-0.14,5.88,0.91,10.21,3.08,13.09c-1.14-0.12-2.17-0.44-3.08-0.93
		c0.73,6.8,3.16,10.8,5.72,14.59c-1.77,0.15-3.28-0.14-4.59-0.75c0.22,9.59,3.45,16.47,7.27,22.81c-2.43-0.69-4.58-1.92-6.54-3.55
		c2.66,8.58,7.74,14.05,13.3,18.89c-5.8,0-11.59,0-17.39,0c-3.37,0-6.73,0-10.1,0c-5.55,0-11.1,0-16.64,0
		c7.32-4.28,12.89-10.86,17.37-18.89c-2.21,1.77-4.66,2.91-7.3,3.55c5.3-6.88,9.46-14.43,12.18-22.81c-1.44,0.54-3,0.84-4.75,0.75
		c3.99-3.7,6.76-8.77,8.86-14.59c-1.02,0.45-2.11,0.76-3.28,0.93C53.33,371.9,55.08,367.1,56.49,361.58z"/>
	<path class="st7" d="M167.12,377.61c-0.14,5.88,0.91,10.21,3.08,13.09c-1.14-0.12-2.17-0.44-3.08-0.93
		c0.73,6.8,3.16,10.8,5.72,14.59c-1.77,0.14-3.28-0.14-4.59-0.75c0.22,9.59,3.45,16.47,7.27,22.81c-2.43-0.7-4.58-1.92-6.54-3.55
		c2.66,8.58,7.74,14.05,13.3,18.89c-5.8,0-11.59,0-17.39,0c-3.37,0-6.73,0-10.1,0c-5.55,0-11.1,0-16.64,0
		c7.32-4.29,12.89-10.86,17.37-18.89c-2.21,1.76-4.65,2.91-7.3,3.55c5.3-6.88,9.46-14.43,12.18-22.81c-1.44,0.54-3,0.83-4.76,0.75
		c3.99-3.7,6.76-8.77,8.86-14.59c-1.01,0.45-2.11,0.76-3.28,0.93C163.95,387.93,165.71,383.13,167.12,377.61z"/>
	<path class="st7" d="M180.09,368.18c-0.14,5.88,0.91,10.21,3.08,13.09c-1.14-0.12-2.17-0.44-3.08-0.94
		c0.73,6.8,3.16,10.8,5.72,14.59c-1.77,0.14-3.28-0.14-4.59-0.75c0.22,9.59,3.45,16.47,7.27,22.81c-2.43-0.7-4.58-1.92-6.54-3.55
		c2.66,8.58,7.74,14.05,13.3,18.89c-5.8,0-11.59,0-17.39,0c-3.37,0-6.73,0-10.1,0c-5.55,0-11.1,0-16.64,0
		c7.32-4.29,12.89-10.86,17.37-18.89c-2.21,1.76-4.66,2.91-7.3,3.55c5.3-6.89,9.46-14.43,12.18-22.81c-1.44,0.54-3,0.83-4.75,0.75
		c3.99-3.7,6.76-8.77,8.86-14.59c-1.02,0.45-2.11,0.76-3.28,0.94C176.92,378.5,178.68,373.7,180.09,368.18z"/>
	<path class="st7" d="M190.93,377.61c-0.14,5.88,0.91,10.21,3.08,13.09c-1.14-0.12-2.17-0.44-3.08-0.93
		c0.73,6.8,3.16,10.8,5.72,14.59c-1.77,0.14-3.28-0.14-4.59-0.75c0.22,9.59,3.45,16.47,7.27,22.81c-2.43-0.7-4.58-1.92-6.54-3.55
		c2.66,8.58,7.74,14.05,13.3,18.89c-5.8,0-11.59,0-17.39,0c-3.37,0-6.73,0-10.1,0c-5.55,0-11.1,0-16.64,0
		c7.32-4.28,12.89-10.86,17.37-18.89c-2.21,1.77-4.65,2.91-7.3,3.55c5.3-6.88,9.46-14.43,12.18-22.81c-1.44,0.54-3,0.84-4.76,0.75
		c3.99-3.7,6.76-8.77,8.86-14.59c-1.01,0.45-2.11,0.76-3.28,0.93C187.77,387.93,189.52,383.13,190.93,377.61z"/>
	<path class="st7" d="M208.38,371.01c-0.14,5.88,0.91,10.21,3.08,13.09c-1.14-0.12-2.17-0.44-3.08-0.94
		c0.73,6.8,3.16,10.8,5.72,14.59c-1.77,0.15-3.28-0.14-4.59-0.75c0.22,9.59,3.45,16.47,7.27,22.81c-2.43-0.69-4.58-1.92-6.54-3.55
		c2.66,8.59,7.74,14.05,13.3,18.89c-5.8,0-11.59,0-17.39,0c-3.37,0-6.73,0-10.1,0c-5.55,0-11.1,0-16.64,0
		c7.31-4.28,12.89-10.86,17.37-18.89c-2.21,1.77-4.65,2.91-7.3,3.55c5.3-6.89,9.46-14.43,12.18-22.81c-1.44,0.54-3,0.83-4.76,0.75
		c3.99-3.7,6.76-8.77,8.86-14.59c-1.01,0.45-2.11,0.76-3.28,0.94C205.22,381.33,206.97,376.53,208.38,371.01z"/>
	<path class="st7" d="M222.06,370.07c-0.14,5.88,0.91,10.21,3.08,13.09c-1.14-0.12-2.17-0.44-3.08-0.94
		c0.73,6.8,3.16,10.8,5.72,14.58c-1.77,0.15-3.28-0.14-4.59-0.75c0.22,9.59,3.45,16.47,7.27,22.81c-2.43-0.7-4.58-1.92-6.54-3.55
		c2.66,8.58,7.74,14.05,13.3,18.89c-5.8,0-11.59,0-17.39,0c-3.37,0-6.73,0-10.1,0c-5.55,0-11.1,0-16.64,0
		c7.32-4.28,12.89-10.86,17.37-18.89c-2.21,1.77-4.65,2.91-7.3,3.55c5.3-6.89,9.46-14.43,12.18-22.81c-1.44,0.53-3,0.83-4.76,0.75
		c3.99-3.7,6.76-8.77,8.86-14.58c-1.01,0.45-2.11,0.76-3.28,0.94C218.9,380.38,220.65,375.58,222.06,370.07z"/>
	<path class="st7" d="M239.13,377.54c-0.14,5.88,0.91,10.21,3.08,13.09c-1.14-0.12-2.17-0.44-3.08-0.93
		c0.73,6.8,3.16,10.8,5.72,14.59c-1.77,0.15-3.28-0.14-4.6-0.75c0.22,9.59,3.45,16.47,7.27,22.81c-2.43-0.69-4.58-1.92-6.54-3.55
		c2.66,8.59,7.74,14.05,13.3,18.89c-5.8,0-11.59,0-17.39,0c-3.37,0-6.73,0-10.1,0c-5.55,0-11.1,0-16.64,0
		c7.32-4.28,12.89-10.86,17.37-18.89c-2.2,1.77-4.65,2.91-7.3,3.55c5.3-6.88,9.46-14.43,12.18-22.81c-1.44,0.54-3,0.83-4.76,0.75
		c3.99-3.7,6.76-8.77,8.86-14.59c-1.01,0.45-2.11,0.76-3.28,0.93C235.97,387.86,237.72,383.05,239.13,377.54z"/>
	<path class="st7" d="M251.14,380.01c-0.14,5.88,0.91,10.21,3.08,13.09c-1.14-0.12-2.17-0.44-3.08-0.93
		c0.73,6.8,3.16,10.8,5.72,14.59c-1.77,0.15-3.28-0.14-4.59-0.75c0.22,9.59,3.45,16.47,7.27,22.81c-2.43-0.7-4.58-1.92-6.54-3.55
		c2.66,8.58,7.74,14.05,13.3,18.89c-5.8,0-11.59,0-17.39,0c-3.37,0-6.73,0-10.1,0c-5.55,0-11.1,0-16.64,0
		c7.32-4.28,12.89-10.86,17.37-18.89c-2.21,1.76-4.66,2.91-7.3,3.55c5.3-6.89,9.46-14.43,12.18-22.81c-1.44,0.53-3,0.83-4.76,0.75
		c3.99-3.7,6.76-8.77,8.86-14.59c-1.02,0.45-2.11,0.76-3.28,0.93C247.98,390.33,249.73,385.53,251.14,380.01z"/>
	<path class="st7" d="M265.77,365.86c-0.14,5.88,0.91,10.21,3.08,13.09c-1.14-0.12-2.17-0.44-3.08-0.93
		c0.73,6.8,3.16,10.8,5.72,14.58c-1.77,0.15-3.28-0.14-4.59-0.75c0.22,9.59,3.45,16.47,7.27,22.81c-2.43-0.7-4.58-1.92-6.54-3.55
		c2.66,8.58,7.74,14.05,13.3,18.89c-5.8,0-11.59,0-17.39,0c-3.37,0-6.73,0-10.1,0c-5.55,0-11.1,0-16.64,0
		c7.32-4.28,12.89-10.86,17.37-18.89c-2.21,1.76-4.65,2.91-7.3,3.55c5.3-6.89,9.46-14.43,12.18-22.81
		c-1.44,0.53-3.01,0.83-4.76,0.75c3.99-3.7,6.76-8.77,8.86-14.58c-1.02,0.45-2.11,0.76-3.28,0.93
		C262.61,376.18,264.36,371.38,265.77,365.86z"/>
	<path class="st7" d="M230.77,363.59c-0.14,5.88,0.91,10.21,3.08,13.09c-1.14-0.12-2.17-0.44-3.08-0.94
		c0.73,6.8,3.16,10.8,5.72,14.58c-1.77,0.15-3.28-0.14-4.59-0.75c0.22,9.59,3.45,16.47,7.27,22.81c-2.43-0.7-4.58-1.92-6.54-3.55
		c2.66,8.59,7.74,14.05,13.3,18.89c-5.8,0-11.59,0-17.39,0c-3.37,0-6.73,0-10.1,0c-5.55,0-11.1,0-16.64,0
		c7.32-4.28,12.89-10.86,17.37-18.89c-2.21,1.77-4.65,2.91-7.3,3.55c5.3-6.89,9.46-14.43,12.18-22.81c-1.44,0.53-3,0.83-4.76,0.75
		c3.99-3.69,6.76-8.77,8.86-14.58c-1.01,0.45-2.11,0.76-3.28,0.94C227.61,373.91,229.37,369.1,230.77,363.59z"/>
	<path class="st7" d="M288.74,356.5c-0.14,5.88,0.91,10.21,3.08,13.09c-1.14-0.12-2.16-0.44-3.08-0.93
		c0.73,6.8,3.16,10.8,5.72,14.59c-1.77,0.14-3.28-0.14-4.59-0.75c0.22,9.59,3.45,16.47,7.27,22.81c-2.43-0.7-4.58-1.92-6.54-3.55
		c2.66,8.59,7.74,14.05,13.3,18.89c-5.8,0-11.59,0-17.39,0c-3.37,0-6.73,0-10.1,0c-5.55,0-11.1,0-16.64,0
		c7.32-4.29,12.89-10.86,17.37-18.89c-2.21,1.77-4.66,2.91-7.3,3.55c5.3-6.88,9.46-14.43,12.18-22.81c-1.44,0.54-3,0.84-4.76,0.75
		c3.99-3.7,6.76-8.77,8.86-14.59c-1.02,0.45-2.11,0.76-3.28,0.93C285.58,366.82,287.34,362.01,288.74,356.5z"/>
	<path class="st7" d="M301.49,365.51c-0.14,5.88,0.91,10.21,3.08,13.09c-1.14-0.12-2.17-0.44-3.08-0.93
		c0.73,6.8,3.16,10.8,5.72,14.59c-1.77,0.14-3.28-0.14-4.6-0.75c0.22,9.59,3.45,16.47,7.27,22.81c-2.43-0.7-4.58-1.92-6.54-3.55
		c2.66,8.58,7.74,14.05,13.3,18.89c-5.8,0-11.59,0-17.39,0c-3.37,0-6.73,0-10.1,0c-5.55,0-11.1,0-16.64,0
		c7.32-4.29,12.89-10.86,17.37-18.89c-2.21,1.77-4.65,2.91-7.3,3.55c5.3-6.88,9.46-14.43,12.18-22.81c-1.44,0.54-3,0.84-4.75,0.75
		c3.99-3.7,6.76-8.77,8.86-14.59c-1.01,0.45-2.11,0.76-3.28,0.93C298.32,375.83,300.08,371.02,301.49,365.51z"/>
	<path class="st7" d="M432.04,342.91c0.14,5.88-0.91,10.21-3.08,13.09c1.14-0.12,2.17-0.44,3.08-0.94
		c-0.73,6.8-3.16,10.8-5.72,14.59c1.77,0.14,3.28-0.14,4.59-0.75c-0.22,9.59-3.44,16.47-7.27,22.81c2.43-0.69,4.58-1.92,6.54-3.55
		c-2.66,8.58-7.74,14.05-13.3,18.89c5.8,0,11.59,0,17.39,0c3.37,0,6.73,0,10.1,0c5.55,0,11.1,0,16.64,0
		c-7.32-4.28-12.89-10.86-17.37-18.89c2.21,1.77,4.65,2.91,7.3,3.55c-5.3-6.88-9.46-14.43-12.18-22.81c1.44,0.54,3,0.84,4.76,0.75
		c-3.99-3.7-6.76-8.77-8.86-14.59c1.02,0.45,2.11,0.76,3.28,0.94C435.2,353.23,433.45,348.43,432.04,342.91z"/>
	<path class="st7" d="M441.69,347.56c0.14,5.88-0.91,10.21-3.08,13.09c1.14-0.12,2.17-0.44,3.08-0.94
		c-0.73,6.8-3.16,10.8-5.72,14.59c1.77,0.14,3.28-0.14,4.59-0.75c-0.22,9.59-3.45,16.47-7.27,22.81c2.43-0.69,4.58-1.92,6.54-3.55
		c-2.66,8.58-7.74,14.05-13.3,18.89c5.8,0,11.59,0,17.39,0c3.37,0,6.73,0,10.1,0c5.55,0,11.1,0,16.64,0
		c-7.32-4.29-12.89-10.86-17.37-18.89c2.21,1.76,4.65,2.91,7.3,3.55c-5.3-6.88-9.46-14.43-12.18-22.81c1.44,0.54,3,0.84,4.76,0.75
		c-4-3.7-6.76-8.77-8.86-14.59c1.01,0.45,2.11,0.76,3.28,0.94C444.85,357.88,443.1,353.08,441.69,347.56z"/>
	<path class="st7" d="M417.64,339.31c0.14,5.88-0.91,10.21-3.08,13.09c1.14-0.12,2.17-0.44,3.08-0.93
		c-0.73,6.8-3.16,10.8-5.72,14.59c1.77,0.14,3.28-0.14,4.59-0.75c-0.22,9.59-3.44,16.47-7.27,22.81c2.43-0.69,4.58-1.92,6.54-3.55
		c-2.66,8.58-7.74,14.05-13.3,18.89c5.8,0,11.59,0,17.39,0c3.37,0,6.73,0,10.1,0c5.55,0,11.1,0,16.64,0
		c-7.32-4.28-12.89-10.86-17.37-18.89c2.21,1.77,4.65,2.91,7.3,3.55c-5.3-6.88-9.46-14.43-12.18-22.81c1.44,0.54,3,0.83,4.76,0.75
		c-3.99-3.7-6.76-8.77-8.86-14.59c1.02,0.45,2.11,0.76,3.28,0.93C420.8,349.63,419.05,344.82,417.64,339.31z"/>
	<path class="st7" d="M409.74,348.03c0.14,5.88-0.91,10.21-3.08,13.09c1.14-0.12,2.17-0.44,3.08-0.93
		c-0.73,6.8-3.16,10.8-5.72,14.58c1.77,0.15,3.28-0.14,4.59-0.75c-0.22,9.59-3.45,16.47-7.27,22.81c2.43-0.7,4.58-1.92,6.54-3.55
		c-2.66,8.58-7.74,14.05-13.3,18.89c5.8,0,11.59,0,17.39,0c3.37,0,6.73,0,10.1,0c5.55,0,11.09,0,16.64,0
		c-7.32-4.28-12.89-10.86-17.37-18.89c2.21,1.76,4.66,2.91,7.3,3.55c-5.3-6.89-9.46-14.43-12.18-22.81c1.44,0.53,3,0.83,4.75,0.75
		c-3.99-3.7-6.76-8.77-8.86-14.58c1.01,0.45,2.11,0.76,3.28,0.93C412.9,358.35,411.15,353.55,409.74,348.03z"/>
	<path class="st7" d="M395.71,352.28c0.14,5.87-0.91,10.21-3.08,13.09c1.14-0.12,2.17-0.44,3.08-0.94
		c-0.73,6.8-3.16,10.8-5.72,14.59c1.77,0.14,3.28-0.14,4.59-0.75c-0.22,9.59-3.44,16.47-7.27,22.81c2.43-0.69,4.58-1.92,6.54-3.55
		c-2.66,8.58-7.74,14.05-13.3,18.89c5.8,0,11.59,0,17.39,0c3.37,0,6.73,0,10.1,0c5.55,0,11.1,0,16.64,0
		c-7.32-4.28-12.89-10.86-17.37-18.89c2.21,1.77,4.66,2.91,7.3,3.55c-5.3-6.88-9.46-14.43-12.18-22.81c1.44,0.54,3,0.83,4.76,0.75
		c-3.99-3.7-6.76-8.77-8.86-14.59c1.02,0.45,2.11,0.76,3.28,0.94C398.87,362.6,397.12,357.79,395.71,352.28z"/>
	<path class="st7" d="M310.09,356.9c-0.14,5.87,0.91,10.21,3.08,13.09c-1.14-0.12-2.17-0.44-3.08-0.93
		c0.73,6.8,3.16,10.8,5.72,14.59c-1.77,0.14-3.28-0.14-4.6-0.75c0.22,9.59,3.45,16.47,7.27,22.81c-2.43-0.69-4.58-1.92-6.54-3.55
		c2.66,8.59,7.74,14.05,13.3,18.89c-5.8,0-11.59,0-17.39,0c-3.37,0-6.73,0-10.1,0c-5.55,0-11.1,0-16.64,0
		c7.32-4.29,12.89-10.86,17.37-18.89c-2.21,1.77-4.65,2.91-7.3,3.55c5.3-6.88,9.46-14.43,12.18-22.81
		c-1.44,0.54-3.01,0.83-4.76,0.75c3.99-3.7,6.76-8.77,8.86-14.59c-1.02,0.45-2.11,0.76-3.28,0.93
		C306.93,367.22,308.68,362.42,310.09,356.9z"/>
	<path class="st7" d="M329.19,359.26c-0.14,5.87,0.91,10.21,3.08,13.09c-1.14-0.12-2.17-0.44-3.08-0.94
		c0.73,6.8,3.16,10.8,5.72,14.59c-1.77,0.14-3.28-0.14-4.59-0.75c0.22,9.59,3.45,16.47,7.27,22.81c-2.43-0.69-4.58-1.92-6.54-3.55
		c2.66,8.59,7.73,14.05,13.3,18.89c-5.8,0-11.59,0-17.39,0c-3.37,0-6.73,0-10.1,0c-5.55,0-11.1,0-16.64,0
		c7.32-4.28,12.89-10.86,17.37-18.89c-2.21,1.77-4.66,2.91-7.3,3.55c5.3-6.88,9.46-14.43,12.18-22.81c-1.44,0.54-3,0.83-4.75,0.75
		c3.99-3.7,6.76-8.77,8.86-14.59c-1.01,0.45-2.11,0.76-3.28,0.94C326.03,369.58,327.78,364.77,329.19,359.26z"/>
	<path class="st7" d="M340.16,350.42c-0.14,5.88,0.91,10.21,3.08,13.09c-1.14-0.12-2.17-0.44-3.08-0.94
		c0.73,6.8,3.16,10.8,5.72,14.59c-1.77,0.15-3.28-0.14-4.59-0.75c0.22,9.59,3.45,16.47,7.27,22.81c-2.43-0.69-4.58-1.92-6.54-3.55
		c2.66,8.59,7.74,14.05,13.3,18.89c-5.8,0-11.59,0-17.39,0c-3.37,0-6.73,0-10.1,0c-5.55,0-11.1,0-16.64,0
		c7.31-4.28,12.89-10.86,17.37-18.89c-2.21,1.76-4.65,2.91-7.3,3.55c5.3-6.88,9.46-14.43,12.18-22.81
		c-1.44,0.54-3.01,0.84-4.76,0.75c4-3.7,6.76-8.77,8.86-14.59c-1.01,0.45-2.11,0.76-3.28,0.94
		C337,360.74,338.75,355.93,340.16,350.42z"/>
	<path class="st7" d="M353.72,354.31c-0.14,5.88,0.91,10.21,3.08,13.09c-1.14-0.12-2.17-0.44-3.08-0.93
		c0.73,6.8,3.16,10.8,5.72,14.59c-1.77,0.14-3.28-0.14-4.59-0.75c0.22,9.59,3.45,16.47,7.27,22.81c-2.43-0.7-4.58-1.92-6.54-3.55
		c2.66,8.58,7.74,14.05,13.3,18.89c-5.8,0-11.59,0-17.39,0c-3.37,0-6.73,0-10.1,0c-5.55,0-11.1,0-16.64,0
		c7.31-4.28,12.89-10.86,17.37-18.89c-2.21,1.77-4.66,2.91-7.3,3.55c5.3-6.88,9.46-14.43,12.18-22.81
		c-1.44,0.54-3.01,0.84-4.76,0.75c3.99-3.7,6.76-8.77,8.86-14.59c-1.01,0.45-2.11,0.76-3.28,0.93
		C350.55,364.63,352.31,359.82,353.72,354.31z"/>
	<path class="st7" d="M372.58,350.65c-0.14,5.88,0.91,10.21,3.08,13.09c-1.14-0.12-2.17-0.44-3.08-0.93
		c0.73,6.8,3.16,10.8,5.72,14.59c-1.77,0.14-3.28-0.14-4.59-0.75c0.22,9.59,3.45,16.47,7.27,22.81c-2.43-0.7-4.58-1.92-6.54-3.55
		c2.66,8.58,7.74,14.05,13.3,18.89c-5.79,0-11.59,0-17.39,0c-3.37,0-6.73,0-10.1,0c-5.55,0-11.09,0-16.64,0
		c7.32-4.28,12.89-10.86,17.37-18.89c-2.21,1.77-4.65,2.91-7.3,3.55c5.3-6.88,9.46-14.43,12.18-22.81
		c-1.44,0.54-3.01,0.84-4.76,0.75c4-3.7,6.76-8.77,8.86-14.59c-1.01,0.45-2.11,0.76-3.28,0.93
		C369.42,360.97,371.17,356.17,372.58,350.65z"/>
	<path class="st7" d="M387.32,346.17c-0.14,5.88,0.91,10.21,3.08,13.09c-1.14-0.12-2.16-0.44-3.08-0.93
		c0.73,6.8,3.16,10.8,5.72,14.58c-1.77,0.15-3.28-0.14-4.6-0.75c0.22,9.59,3.45,16.47,7.27,22.81c-2.43-0.7-4.58-1.92-6.54-3.55
		c2.66,8.58,7.74,14.05,13.3,18.89c-5.8,0-11.59,0-17.39,0c-3.37,0-6.73,0-10.1,0c-5.55,0-11.09,0-16.64,0
		c7.31-4.29,12.89-10.86,17.37-18.89c-2.21,1.76-4.65,2.91-7.3,3.55c5.3-6.89,9.46-14.43,12.18-22.81
		c-1.44,0.53-3.01,0.83-4.76,0.75c4-3.7,6.76-8.77,8.86-14.58c-1.02,0.45-2.11,0.76-3.28,0.93
		C384.16,356.49,385.91,351.69,387.32,346.17z"/>
	<path class="st8" d="M0,412.52c240.21,46.22,449.3-49.99,658.38,0V658.7H0V412.52z"/>
	<path class="st9" d="M658.38,471.28c-240.21,35.19-449.3-38.06-658.38,0V658.7h658.38V471.28z"/>
</g>
<path class="st10" d="M29.83,35.78c2.34,0,4.24-1.91,4.24-4.24c0-2.34-1.91-4.25-4.24-4.25c-2.34,0-4.24,1.91-4.24,4.25
	C25.58,33.88,27.49,35.78,29.83,35.78z"/>
<path class="st10" d="M113.77,90.49c1.82,0,3.3-1.48,3.3-3.3c0-1.82-1.48-3.3-3.3-3.3c-1.82,0-3.3,1.48-3.3,3.3
	C110.47,89.01,111.96,90.49,113.77,90.49z"/>
<path class="st10" d="M183.1,55.59c1.56,0,2.83-1.27,2.83-2.83c0-1.56-1.27-2.83-2.83-2.83c-1.56,0-2.83,1.27-2.83,2.83
	C180.27,54.32,181.54,55.59,183.1,55.59z"/>
<path class="st10" d="M253.37,58.42c2.86,0,5.19-2.33,5.19-5.19c0-2.86-2.33-5.19-5.19-5.19c-2.86,0-5.19,2.33-5.19,5.19
	C248.19,56.09,250.52,58.42,253.37,58.42z"/>
<path class="st10" d="M391.56,69.74c1.04,0,1.89-0.85,1.89-1.89c0-1.04-0.85-1.89-1.89-1.89c-1.04,0-1.89,0.85-1.89,1.89
	C389.67,68.89,390.52,69.74,391.56,69.74z"/>
<path class="st10" d="M489.18,77.29c1.82,0,3.3-1.48,3.3-3.3c0-1.82-1.48-3.3-3.3-3.3c-1.82,0-3.3,1.48-3.3,3.3
	C485.88,75.8,487.36,77.29,489.18,77.29z"/>
<path class="st10" d="M566.06,58.42c2.08,0,3.77-1.69,3.77-3.77c0-2.08-1.69-3.77-3.77-3.77s-3.77,1.69-3.77,3.77
	C562.28,56.73,563.98,58.42,566.06,58.42z"/>
<path class="st10" d="M422.21,173.5c2.34,0,4.25-1.91,4.25-4.24c0-2.34-1.91-4.25-4.25-4.25s-4.25,1.91-4.25,4.25
	C417.97,171.59,419.88,173.5,422.21,173.5z"/>
<path class="st10" d="M357.6,202.74c1.04,0,1.88-0.85,1.88-1.89c0-1.04-0.85-1.89-1.88-1.89c-1.04,0-1.89,0.85-1.89,1.89
	C355.71,201.89,356.56,202.74,357.6,202.74z"/>
<path class="st10" d="M224.13,177.27c0.78,0,1.41-0.64,1.41-1.41c0-0.78-0.64-1.41-1.41-1.41c-0.78,0-1.41,0.63-1.41,1.41
	C222.72,176.63,223.35,177.27,224.13,177.27z"/>
<path class="st10" d="M164.71,137.65c2.34,0,4.25-1.91,4.25-4.24c0-2.34-1.91-4.25-4.25-4.25c-2.34,0-4.24,1.91-4.24,4.25
	C160.46,135.75,162.37,137.65,164.71,137.65z"/>
<path class="st10" d="M92.55,191.42c1.56,0,2.83-1.27,2.83-2.83c0-1.56-1.27-2.83-2.83-2.83c-1.56,0-2.83,1.27-2.83,2.83
	C89.72,190.15,90.99,191.42,92.55,191.42z"/>
<path class="st10" d="M69.91,143.31c2.6,0,4.72-2.12,4.72-4.72c0-2.6-2.12-4.72-4.72-4.72c-2.6,0-4.72,2.12-4.72,4.72
	C65.2,141.19,67.32,143.31,69.91,143.31z"/>
<path class="st10" d="M207.63,208.4c1.56,0,2.83-1.27,2.83-2.83c0-1.56-1.27-2.83-2.83-2.83c-1.56,0-2.83,1.27-2.83,2.83
	C204.8,207.12,206.07,208.4,207.63,208.4z"/>
<path class="st10" d="M256.57,248.46c1.3,0,2.36-1.06,2.36-2.37c0-1.3-1.06-2.37-2.36-2.37c-1.3,0-2.37,1.06-2.37,2.37
	C254.21,247.4,255.27,248.46,256.57,248.46z"/>
<path class="st10" d="M462.07,326.77c4.55,0,8.25-3.71,8.25-8.25c0-4.55-3.71-8.25-8.25-8.25c-4.55,0-8.25,3.71-8.25,8.25
	C453.81,323.07,457.52,326.77,462.07,326.77z"/>
<path class="st10" d="M515.9,402.7c4.78,0,8.67-3.9,8.67-8.67c0-4.78-3.9-8.67-8.67-8.67c-4.78,0-8.67,3.9-8.67,8.67
	C507.22,398.81,511.12,402.7,515.9,402.7z"/>
<path class="st10" d="M414.86,489.48c3.35,0,6.08-2.73,6.08-6.08c0-3.35-2.73-6.08-6.08-6.08s-6.08,2.73-6.08,6.08
	C408.78,486.75,411.51,489.48,414.86,489.48z"/>
<path class="st10" d="M333.52,506.13c2.38,0,4.33-1.94,4.33-4.33c0-2.39-1.95-4.33-4.33-4.33c-2.39,0-4.33,1.95-4.33,4.33
	C329.19,504.19,331.14,506.13,333.52,506.13z"/>
<path class="st10" d="M260.92,542.3c2.34,0,4.24-1.91,4.24-4.24c0-2.34-1.91-4.24-4.24-4.24c-2.34,0-4.25,1.91-4.25,4.24
	C256.67,540.4,258.58,542.3,260.92,542.3z"/>
<path class="st10" d="M155.29,472.29c3.37,0,6.12-2.75,6.12-6.12c0-3.37-2.75-6.12-6.12-6.12c-3.37,0-6.12,2.75-6.12,6.12
	C149.17,469.54,151.92,472.29,155.29,472.29z"/>
<path class="st10" d="M121.5,434.42c1.45,0,2.63-1.18,2.63-2.63c0-1.45-1.18-2.63-2.63-2.63c-1.45,0-2.63,1.18-2.63,2.63
	C118.88,433.24,120.06,434.42,121.5,434.42z"/>
<path class="st10" d="M265.64,331.02c2.86,0,5.19-2.33,5.19-5.19c0-2.86-2.33-5.19-5.19-5.19c-2.86,0-5.19,2.33-5.19,5.19
	C260.45,328.69,262.78,331.02,265.64,331.02z"/>
<path class="st10" d="M359.96,305.55c1.3,0,2.36-1.06,2.36-2.36s-1.06-2.36-2.36-2.36c-1.3,0-2.36,1.06-2.36,2.36
	S358.66,305.55,359.96,305.55z"/>
<path class="st10" d="M483.54,238.58c2.27,0,4.12-1.85,4.12-4.12c0-2.27-1.85-4.12-4.12-4.12c-2.27,0-4.12,1.85-4.12,4.12
	C479.43,236.73,481.28,238.58,483.54,238.58z"/>
<path class="st10" d="M521.73,175.38c1.56,0,2.83-1.27,2.83-2.83c0-1.56-1.27-2.83-2.83-2.83c-1.56,0-2.83,1.27-2.83,2.83
	C518.89,174.11,520.17,175.38,521.73,175.38z"/>
<path class="st10" d="M582.56,231.98c1.3,0,2.36-1.06,2.36-2.36c0-1.3-1.06-2.36-2.36-2.36c-1.3,0-2.36,1.06-2.36,2.36
	C580.21,230.92,581.27,231.98,582.56,231.98z"/>
<path class="st10" d="M592,138.6c1.3,0,2.36-1.06,2.36-2.36c0-1.3-1.06-2.36-2.36-2.36c-1.3,0-2.36,1.06-2.36,2.36
	C589.64,137.54,590.7,138.6,592,138.6z"/>
<path class="st10" d="M612.75,97.09c1.82,0,3.3-1.48,3.3-3.3c0-1.82-1.49-3.3-3.3-3.3c-1.82,0-3.3,1.48-3.3,3.3
	C609.45,95.61,610.93,97.09,612.75,97.09z"/>
<path class="st10" d="M605.2,33.9c1.82,0,3.3-1.48,3.3-3.3c0-1.82-1.48-3.3-3.3-3.3c-1.82,0-3.3,1.48-3.3,3.3
	C601.9,32.41,603.38,33.9,605.2,33.9z"/>
<path class="st10" d="M488.24,40.5c1.3,0,2.36-1.06,2.36-2.36c0-1.3-1.06-2.36-2.36-2.36c-1.3,0-2.36,1.06-2.36,2.36
	C485.88,39.44,486.94,40.5,488.24,40.5z"/>
<path class="st10" d="M488.24,137.65c1.3,0,2.36-1.06,2.36-2.36s-1.06-2.36-2.36-2.36c-1.3,0-2.36,1.06-2.36,2.36
	S486.94,137.65,488.24,137.65z"/>
<path class="st10" d="M516.54,311.21c0.78,0,1.41-0.64,1.41-1.41c0-0.78-0.64-1.42-1.41-1.42c-0.78,0-1.41,0.64-1.41,1.42
	C515.12,310.57,515.76,311.21,516.54,311.21z"/>
<path class="st10" d="M520.78,531.93c2.08,0,3.77-1.7,3.77-3.77c0-2.08-1.7-3.77-3.77-3.77c-2.08,0-3.77,1.7-3.77,3.77
	C517.01,530.23,518.7,531.93,520.78,531.93z"/>
<path class="st10" d="M600.01,438.55c2.08,0,3.77-1.69,3.77-3.77c0-2.08-1.69-3.77-3.77-3.77s-3.77,1.7-3.77,3.77
	C596.24,436.85,597.93,438.55,600.01,438.55z"/>
<path class="st10" d="M573.13,517.78c0.78,0,1.42-0.64,1.42-1.41c0-0.78-0.64-1.41-1.42-1.41c-0.78,0-1.41,0.63-1.41,1.41
	C571.72,517.14,572.35,517.78,573.13,517.78z"/>
</svg>
