<?xml version="1.0" encoding="utf-8"?>
<!-- Generator: Adobe Illustrator 23.1.0, SVG Export Plug-In . SVG Version: 6.00 Build 0)  -->
<svg version="1.1" xmlns="http://www.w3.org/2000/svg" xmlns:xlink="http://www.w3.org/1999/xlink" x="0px" y="0px"
	 viewBox="0 0 750 500" style="enable-background:new 0 0 750 500;" xml:space="preserve">
<style type="text/css">
	.st0{fill:url(#SVGID_1_);}
	.st1{clip-path:url(#SVGID_3_);fill:url(#SVGID_4_);}
	.st2{clip-path:url(#SVGID_3_);}
	.st3{fill:url(#SVGID_5_);}
	.st4{opacity:0.15;fill:#272763;}
	.st5{fill:url(#SVGID_6_);}
	.st6{opacity:0.32;fill:#FFFFFF;}
	.st7{fill:url(#SVGID_7_);}
	.st8{opacity:0.33;fill:#272763;}
	.st9{opacity:0.9;clip-path:url(#SVGID_3_);fill:url(#SVGID_8_);}
	.st10{opacity:0.47;clip-path:url(#SVGID_3_);fill:url(#SVGID_9_);}
	.st11{fill:url(#SVGID_10_);}
	.st12{opacity:0.1;fill:#FFFFFF;}
	.st13{clip-path:url(#SVGID_3_);fill:url(#SVGID_11_);}
	.st14{opacity:0.32;fill:#EEE8C1;}
	.st15{fill:#53307D;}
	.st16{clip-path:url(#SVGID_3_);fill:url(#SVGID_12_);}
	.st17{clip-path:url(#SVGID_3_);fill:url(#SVGID_13_);}
</style>
<g id="BACKGROUND">
	<linearGradient id="SVGID_1_" gradientUnits="userSpaceOnUse" x1="375" y1="212.5925" x2="375" y2="-27.4">
		<stop  offset="0" style="stop-color:#C3CFBB"/>
		<stop  offset="0.1754" style="stop-color:#BFC6BF"/>
		<stop  offset="0.4616" style="stop-color:#B4AECB"/>
		<stop  offset="0.8207" style="stop-color:#A286DD"/>
		<stop  offset="1" style="stop-color:#9870E8"/>
	</linearGradient>
	<rect class="st0" width="750" height="500"/>
</g>
<g id="OBJECTS">
	<g>
		<defs>
			<rect id="SVGID_2_" width="750" height="500"/>
		</defs>
		<clipPath id="SVGID_3_">
			<use xlink:href="#SVGID_2_"  style="overflow:visible;"/>
		</clipPath>
		<linearGradient id="SVGID_4_" gradientUnits="userSpaceOnUse" x1="289.1667" y1="329.4419" x2="289.1667" y2="183.697">
			<stop  offset="0" style="stop-color:#C3CFBB"/>
			<stop  offset="0.1754" style="stop-color:#BFC6BF"/>
			<stop  offset="0.4616" style="stop-color:#B4AECB"/>
			<stop  offset="0.8207" style="stop-color:#A286DD"/>
			<stop  offset="1" style="stop-color:#9870E8"/>
		</linearGradient>
		<path class="st1" d="M-6.47,239L31,230h32l48.5-14l89,31l36,3c0,0,73-38.33,80-40.17c7-1.83,43-4.33,43-4.33L422,216l169.33,81.75
			v40.02H-13L-6.47,239z"/>
		<g class="st2">
			<linearGradient id="SVGID_5_" gradientUnits="userSpaceOnUse" x1="434.6667" y1="344.3333" x2="434.6667" y2="198.7418">
				<stop  offset="0.0344" style="stop-color:#D4BFE0"/>
				<stop  offset="0.3155" style="stop-color:#BAA2E2"/>
				<stop  offset="0.922" style="stop-color:#7859E7"/>
				<stop  offset="1" style="stop-color:#6F4FE8"/>
			</linearGradient>
			<polygon class="st3" points="278,282.92 343.51,236.33 390.5,216 436.84,164.33 446.12,155 461.33,155 482,167.67 496,167 
				504,177.67 555.33,218.96 591.33,330.99 278,330.99 			"/>
			<polygon class="st4" points="343.51,236.33 398,265.5 480,330.99 496,330.99 434.67,258.33 425.5,239 407,234 390.5,216 			"/>
			<polygon class="st4" points="461.33,155 481,189.5 510.12,200.33 556.5,239.5 572.86,273.49 555.33,218.96 504,177.67 496,167 
				482,167.67 			"/>
		</g>
		<g class="st2">
			<linearGradient id="SVGID_6_" gradientUnits="userSpaceOnUse" x1="365.3333" y1="423" x2="365.3333" y2="281.9295">
				<stop  offset="0" style="stop-color:#AA94D0"/>
				<stop  offset="0.184" style="stop-color:#957EC8"/>
				<stop  offset="0.5332" style="stop-color:#725ABB"/>
				<stop  offset="0.8177" style="stop-color:#5C44B3"/>
				<stop  offset="1" style="stop-color:#543CB0"/>
			</linearGradient>
			<polygon class="st5" points="756,209.83 724.67,200.33 709.33,205.08 670,217 596,269.67 490,285.67 423.06,279.67 
				392.23,272.33 375,275.67 311.93,258.33 290,247 260,247.67 246,258.33 226.67,259 158,277.67 73.33,290.33 -25.33,309.81 
				-25.33,395.17 756,395.17 			"/>
			<polygon class="st6" points="290,247 263.33,252.33 251.67,266.67 222.33,265 158,277.67 226.67,259 246,258.33 260,247.67 			
				"/>
			<polygon class="st4" points="349.67,303.67 313.33,326 242,334 188.41,395.17 525.06,395.17 492.16,285.34 490,285.67 
				423.06,279.67 392.23,272.33 375,275.67 311.93,258.33 349.67,290.33 			"/>
		</g>
		<g class="st2">
			<linearGradient id="SVGID_7_" gradientUnits="userSpaceOnUse" x1="366.5" y1="472" x2="366.5" y2="238.9992">
				<stop  offset="6.149840e-03" style="stop-color:#846DC2"/>
				<stop  offset="0.0941" style="stop-color:#7760B9"/>
				<stop  offset="0.3223" style="stop-color:#5B44A4"/>
				<stop  offset="0.5506" style="stop-color:#463096"/>
				<stop  offset="0.7771" style="stop-color:#3A248D"/>
				<stop  offset="1" style="stop-color:#36208A"/>
			</linearGradient>
			<path class="st7" d="M-34,338c0,0,43-69,61-72s39,0,39,0s74.2,65,96.1,72s114.9,8,114.9,8l67.93-14l51.07-17l13.82-19l16.79-5.67
				h8.35c0,0,16.04-27.33,20.04-40.33s13-22,13-22s1-16,7-17.5s16.5,0,16.5,0L502,212l29-35c0,0,11.5-17,17-19.5
				s14.5-17.5,14.5-17.5H586l39,15c0,0,15.5,31.5,27,37.5s24,18,24,18s17,36.5,25,43s22,17.5,22,17.5l44,47v194H-34V338z"/>
			<path class="st8" d="M524.5,296.5l24.07,36.76L558,356l47-12c0,0-33.5-50.5-45.5-60.75s-32-19.75-32-19.75L502,212l-10.5-1.5
				c0,0-10.5-1.5-16.5,0c0,0,20,29,23.5,46.5S524.5,296.5,524.5,296.5z"/>
			<path class="st8" d="M656.5,225l21,61l4.5-16.5l37.5,36l47.5,25.49V318l-44-47c0,0-14-11-22-17.5s-25-43-25-43s-12.5-12-24-18
				S625,155,625,155l17,46L656.5,225z"/>
			<path class="st6" d="M-34,374.85l27.53-31.35l22.97-33.69l23.57-45.05l0,0c-4.31,0.15-8.77,0.53-13.07,1.24c-18,3-61,72-61,72
				V374.85z"/>
		</g>
		<radialGradient id="SVGID_8_" cx="696" cy="337.7718" r="320.7532" gradientUnits="userSpaceOnUse">
			<stop  offset="0.0495" style="stop-color:#AEEEBF"/>
			<stop  offset="1" style="stop-color:#AEEEBF;stop-opacity:0"/>
		</radialGradient>
		<circle class="st9" cx="696" cy="337.77" r="320.75"/>
		<radialGradient id="SVGID_9_" cx="18" cy="0" r="533.293" gradientUnits="userSpaceOnUse">
			<stop  offset="0.0495" style="stop-color:#AEEEBF"/>
			<stop  offset="1" style="stop-color:#AEEEBF;stop-opacity:0"/>
		</radialGradient>
		<circle class="st10" cx="18" cy="0" r="533.29"/>
		<g class="st2">
			<linearGradient id="SVGID_10_" gradientUnits="userSpaceOnUse" x1="298.6667" y1="428" x2="298.6667" y2="305.9996">
				<stop  offset="0" style="stop-color:#5741A2"/>
				<stop  offset="0.6176" style="stop-color:#38267A"/>
				<stop  offset="1" style="stop-color:#281866"/>
			</linearGradient>
			<path class="st11" d="M614.67,464.35c0,0-96.83-33.01-110.42-37.85S446.34,393,436.84,389c-9.5-4-35.74-4-35.74-4l-11.35-9.33
				l-21.74-5.33l-8.56-3.33l-21.81-20.67c0,0-21.22-1.33-33.76-4c-12.54-2.67-34.54-6.67-34.54-6.67L224,315l-54.67-20.67l-38.67-4
				L115.33,305c0,0-10.67,32.67-20,38c-9.33,5.33-32,17-32,17l-24.67,17.34H18l-35.33,33.56V500h632V464.35z"/>
			<path class="st12" d="M74,360l36-15.67l28.67-34.53l30.67-15.47l-38.67-4L115.33,305c0,0-10.67,32.67-20,38
				c-9.33,5.33-32,17-32,17l-24.67,17.34L50,377.67L74,360z"/>
		</g>
		<linearGradient id="SVGID_11_" gradientUnits="userSpaceOnUse" x1="382.4328" y1="496.0034" x2="382.4328" y2="307.2943">
			<stop  offset="0.2014" style="stop-color:#3F2D7F"/>
			<stop  offset="0.4" style="stop-color:#352470"/>
			<stop  offset="0.7653" style="stop-color:#26185A"/>
			<stop  offset="1" style="stop-color:#201352"/>
		</linearGradient>
		<path class="st13" d="M-6.47,480.67c0,0,165.13-48.33,166.13-49c1-0.67,10,0.33,13,0c3-0.33,27.33-12,28.67-12.67
			c1.33-0.67,9,0.33,15,5s8.33-2,9.33-1s10.33,11.33,11,10c0.67-1.33,5.33,0.67,7.33,0s16.33-9.33,23.67-13
			c7.33-3.67,13.33-2.33,26.67-4c13.33-1.67,33-8.33,36.33-9.33c3.33-1,15.33,4.67,25.46,6.33c10.13,1.67,13.87-3,18.87-2.67
			c11,0.73,25-4,28.85-5.33c3.85-1.33,42.28-11.33,42.28-11.33l108.54-64l22.67-19.86c0,0,21.33,5.19,31.33,1.19
			s24.67,3.33,24.67,3.33s29.33,7.33,42,11.33c12.67,4,33.33,21.33,33.33,21.33l26.67,13h36v152H-6.47V480.67z"/>
		<g class="st2">
			<path class="st14" d="M584.67-10.33c0,0-30.67,18.67-44.67,21.33s-8,3.33-20,4.67c-12,1.33-12.67-2.67-26.67,0
				c-14,2.67-24,2-27.33,8.67C462.67,31,487.33,27,486,33c-1.33,6-19.33,4-24.67,7.33C456,43.67,480,43.67,444,47.67
				s-28.67-8-51.33,6.67C370,69,370.67,66.33,348,69.67C325.33,73,306,74.33,319.33,83c13.33,8.67,71.33,7.33,75.33,12
				s-33.33,6.67-58,6c-24.67-0.67-39.33-8.42-70,0.12c-30.67,8.54-33.33,14.54-64,14.54c-30.67,0-38-1.33-90,4
				c-52,5.33-46.32-0.67-80.67,0C-2.34,120.33-6.47,119-6.47,119V-7L584.67-10.33z"/>
			<path class="st14" d="M-22,79c0,0,44.63-4,62.07-3C57.5,77,77,83,98.5,85s66.67,2.5,70.83,9S180,105,196,107s15,10.29,31.5,14.9
				s45,10.6,45,10.6s-34,2-54,0s-24-3.5-40-1.5s-21-6.5-36-6s-15,3.28-26.5,8.39S107.5,146,79,140s-33.5-1.5-54.5,0s-37,2-39.5,0
				S-22,79-22,79z"/>
			<path class="st14" d="M295,137.5c0,0,15,3.94,39.5,4.72c24.5,0.78,50.5-1.78,70.5,0c20,1.78,46-3.72,63.5-4.72s43.5-1,46.5,0
				s21-0.75,21-0.75s-16.5-5.25-32.5-5.75s-29,0.5-39-3.5s-24.17-0.5-29.83,0c-5.67,0.5-22.17,6-38.67,4s-37-1.5-37-1.5L295,137.5z"
				/>
			<path class="st14" d="M547,119c0,0,17.5-8.21,41.5-7.1s36,6.19,47.5-0.1c11.5-6.29,16-8.29,30-9.29s17,4.5,32.5,5s51.5-3,51.5-3
				V155c0,0-23-5-39.5-6s-21.5-1.5-36-8s-12.5-3.5-34-6s-14,1.38-35-6.31C584.5,121,556,115.5,547,119z"/>
			<path class="st14" d="M607.5,62.5c0,0,26.5-7.5,35.5-12s16,0,26.5,2.5s19.5,5.58,30.5,2.54c11-3.04,19.5,0.96,26.5,2.46
				s29.5,1,29.5,1v13c0,0-43-2-54-3.5S690,73,672.5,67s-15-10.42-31-6.71C625.5,64,607.5,62.5,607.5,62.5z"/>
		</g>
		<g class="st2">
			<path class="st15" d="M485.88,123.79c0,0-3.98-1.79-5.91,0c0,0,3.71-0.55,5.91,2.2c2.2-2.75,5.91-2.2,5.91-2.2
				C489.87,122,485.88,123.79,485.88,123.79z"/>
			<path class="st15" d="M338.86,180.74c0,0-5.01-2.25-7.43,0c0,0,4.66-0.69,7.43,2.76c2.76-3.46,7.43-2.76,7.43-2.76
				C343.87,178.5,338.86,180.74,338.86,180.74z"/>
			<path class="st15" d="M549.86,97.58c0,0-6.65-2.98-9.86,0c0,0,6.19-0.92,9.86,3.67c3.67-4.59,9.86-3.67,9.86-3.67
				C556.52,94.59,549.86,97.58,549.86,97.58z"/>
			<path class="st15" d="M504.99,118.11c0,0-2.34-1.05-3.47,0c0,0,2.18-0.32,3.47,1.29c1.29-1.61,3.47-1.29,3.47-1.29
				C507.33,117.06,504.99,118.11,504.99,118.11z"/>
			<path class="st15" d="M662.74,174.29c0,0-2.19-0.98-3.24,0c0,0,2.04-0.3,3.24,1.21c1.21-1.51,3.24-1.21,3.24-1.21
				C664.92,173.31,662.74,174.29,662.74,174.29z"/>
			<path class="st15" d="M356.74,187c0,0-2.19-0.98-3.24,0c0,0,2.04-0.3,3.24,1.21c1.21-1.51,3.24-1.21,3.24-1.21
				C358.92,186.02,356.74,187,356.74,187z"/>
			<path class="st15" d="M302.14,199.92c0,0-2.34-1.05-3.47,0c0,0,2.18-0.32,3.47,1.29c1.29-1.61,3.47-1.29,3.47-1.29
				C304.48,198.87,302.14,199.92,302.14,199.92z"/>
		</g>
		<linearGradient id="SVGID_12_" gradientUnits="userSpaceOnUse" x1="162.0995" y1="582.9999" x2="162.0995" y2="471.1206">
			<stop  offset="0.3395" style="stop-color:#3F2D7F"/>
			<stop  offset="0.5038" style="stop-color:#352470"/>
			<stop  offset="0.8059" style="stop-color:#26185A"/>
			<stop  offset="1" style="stop-color:#201352"/>
		</linearGradient>
		<path class="st16" d="M330.67,517c0,0-7.37-21-11.85-27.33c-4.48-6.33-13.48-11.35-13.48-11.35s-11.67,1.31-15.33,0
			c-3.67-1.31-3.67-9.38-6-10.85c-2.33-1.47-4.33-17.47-9.67-18.47c-0.67,5.33,4.33,12.06-2,15.7c-6.33,3.64-9.33,8.05-9.33,10.84
			s-3,7.46-3,7.46s-1.58-4.62-4.98-5.59c-3.4-0.97-4.85,0.75-4.85,0.75l-0.97-2.87c0,0-4.69,2.28-6.47,0.18
			c-1.78-2.1-3.4-3.8-3.4-3.8s-3.72,2.68-4.85,0.09c-1.13-2.6-1.94-8.26-3.4-9.23c-1.46-0.97,0-13.52,0-13.52s-4.05,7.21-4.37,12.06
			c-0.32,4.85-2.75,7.13-4.85,10.69c-2.1,3.55-0.81,7.13-2.27,11.25c-1.46,4.12-5.34,6.06-5.99,3.15c-0.65-2.91,1.13-4.85-2.59-4.21
			c-3.72,0.65-5.99,1.94-5.99,1.94s1.46-3.35-1.62-5.72s-2.59,1.48-5.34-2.87c-2.75-4.35-7.44,0.62-10.19-2.19
			c-2.75-2.81-4.21-7.58-4.21-7.58s0-5.1-1.13-7.69c-1.13-2.59-4.21-1.94-4.21-1.94s-0.32-5.5-3.56-9.39
			c-3.24-3.88-1.78-5.66-2.75-7.93c-0.97-2.27-3.72-3.85-4.21-2.57s-0.65,7.43-3.56,10.5c-2.91,3.07-5.66-2.43-8.09,1.62
			c-2.43,4.05-4.53,6.8-4.53,6.8s-6.47-2.59-7.61-4.37c-1.13-1.78-0.97-4.37-2.43-5.18c-1.46-0.81-2.43-13.92-4.21-14.56
			c-1.78-0.65,0,4.08-0.97,5.19s-7.77-0.66-7.61,6.62c0.16,7.28-4.53-4.05-4.53-4.05l-2.75-5.99c0,0-1.94-14.24-3.24-12.14
			c-1.29,2.1-1.78,10.84-1.78,10.84s-3.4,1.94-4.05,6.63c-0.65,4.69-1.13,8.09-1.62,8.74c-0.49,0.65-2.43-3.07-3.56-3.56
			c-1.13-0.49-1.46-19.9-2.43-19.9c-0.97,0-2.91,5.99-2.91,7.28s-0.49,8.58-2.59,8.74s-4.53-0.65-5.66,0.49s-4.05-12.46-6.15-8.74
			c-2.1,3.72-2.59,5.34-2.59,5.34l-3.24-5.34c0,0-2.1-19.74-4.37-18.61c-2.27,1.13-1.94,7.61-1.94,8.25c0,0.65,1.13,2.59-1.29,5.5
			c-2.43,2.91-2.91,6.15-3.07,7.28c-0.16,1.13-1.78,3.4-1.78,3.4l-3.72-8.25c0,0-2.75-11.65-3.07-12.3
			c-0.32-0.65-2.59-0.49-1.94,5.5c0.65,5.99,0.16,8.74-1.29,9.71c-1.46,0.97-6.63-4.85-6.63-4.85l-3.4-6.15c0,0-2.43,0.16-2.1,5.99
			c0.32,5.83-0.81,9.22-1.13,10.19c-0.32,0.97-4.53-11.97-4.53-12.46c0-0.49-4.05-5.66-4.37-6.47c-0.32-0.81,2.43-16.18-0.81-14.24
			c-3.24,1.94-3.24,8.41-2.91,9.87s1.46,9.55-1.13,10.84c-2.59,1.29-3.88,4.05-4.05,5.34s-3.24-8.58-3.24-8.58s-5.18,0-6.47-2.27
			c-1.29-2.27-2.91-9.71-2.91-9.71s-1.13-8.09-2.75-3.56s0.16,8.25-1.13,10.36c-1.29,2.1-4.53,1.94-4.53,1.94l-4.05-5.5l-9.55-9.71
			V517H330.67z"/>
		<linearGradient id="SVGID_13_" gradientUnits="userSpaceOnUse" x1="510.125" y1="575.0001" x2="510.125" y2="453.7358">
			<stop  offset="0.0477" style="stop-color:#3F2D7F"/>
			<stop  offset="0.4361" style="stop-color:#2B1D5E"/>
			<stop  offset="0.7798" style="stop-color:#1E1348"/>
			<stop  offset="1" style="stop-color:#190F40"/>
		</linearGradient>
		<path class="st17" d="M760.25,446.25c0,0-12.75-8-14-12.25s0.75-8.25,0-12.75s-0.42-10.5-0.42-10.5l-2.58-13
			c0,0-0.25,4.5-2.25,9.75s-4.25,11.25-3.25,14.5s-1.25,8-1.25,8s1,10-1.25,8s-3.75-7.25-3.75-7.25s1.75,7.75-1.5,6s-5-7-5-7
			s-2.75,5-4,4s-6,0-7.5-3.25s-4-12.25-7-14.75s-4-9-5.75-9s-2.25,11-3.5,13.25s-3,7.75-3,7.75s-2-6.75-3.25-10.5s-2-5.25-3-9.75
			s-2.75-6.5-2.75-6.5s-1.5,4-1.75,7s0,11.5,0,11.5l-0.11,5.5c0,0-7.89-6-8.14-12.5s-3-7.5-3-7.5s-2.75-4-4.25-5.75
			S667.25,383,665.75,381s-3.5-11.5-3.5-11.5s-2,10.5-2.5,16.5s-2,14-2,14L654,412.75l-4,4.25c0,0-0.25-3.25-2.25-12.25
			S645,393,645,392.25s-2.25-20-4-22.75c0,0-0.75,1-2,4.25s-3.25,7.75-3.25,9S634.5,393,634.5,393l-2,8c0,0-3-4.5-3.5-8
			s-2.25-10-2.5-10.75s-2-22.25-2-22.25s-5.25,8.75-6.75,18.75s-2,6.25-2.75,13.75s-1.25,18.25-1.25,18.25s-4-10.5-4.75-11.75
			s0-13.25,0-13.25s0.83-16.5-0.33-18.75c-1.17-2.25-2.17,4-2.17,4s-0.75,10.5-4.5,15.25s-3,14.25-3,14.25l-2.75,10.5v6.5
			c0,0-1.5-11-3.5-15.5s-2-15.75-2-15.75s-2.25,2.5-2.75,7s0,12,0,12s-4,5.75-4,7.75c0,0-0.75-9-2-9.88s-1,3.62-2.25,3.62
			s-6-14.5-6-14.5l-1.25-5c0,0,0.5,0.5,0,7.25s0,12.75,0,12.75l-4-2.75c0,0-0.75-10.75-2-11.5s-1.25,6.75-1.75,8
			s-3.5,2.25-3.75,10.5s-1.75,12-1.75,12s-4.5-4-5.25,2.5s-7,3.5-7,3.5s-2.75,6.25-5,3.75s-7.5,5.75-9.25,2.75s0.5-5.5,0-9.5
			s-1.5-6.25-2-9s0-12.5,0-12.5s-3.5-1.75-3.5,4s0.25,9.75-2,14.25s-3.75,7.5-3.75,7.5s-0.25-4.25,0-9s1.28-10.25-0.11-10.25
			c-1.39,0-1.39,1-2.14,5.75s-3.75,14.25-3.75,14.25s-1-4.75-1.5-9s0-6.75,0-6.75s-3.75,0.25-3.75,3.25S508,430.25,508,430.25
			l-1.5,5.5c0,0-3-5.5-2.25-9.25s-0.12-14.25-0.12-14.25s-3.13,2-3.13,6s0.75,8.5,0,10s-3,3.75-3,5.25s0,5.5,0,5.5
			s-7.75,3.75-7.75,4.5s-1.75,4.75-1.75,4.75s-6.75-0.75-8-3.5S475.75,433,475.75,433s-0.25,2.75-1.25,5.5s-0.5,5.5-1.75,9.75
			s-2,5-3,3.75s-4-4.25-3-8.5s-0.25-1.75-1.25-8.75S464,423,464,423s-3.25,3.75-4.25,10s2.25,8,0,11.75s-4.25,5.59-4.25,7.8
			c0,2.2-1,4.95-1.5,3.7s-1-7.75-3.25-10s-1,4.5-1.75,5.25s-4,3.75-4,3.75s1-4.75,0-8s0.25-10,0-11.25s-2.39-5.75-2.39-5.75
			s-2.66,5.75-3.51,8.5s-3.64,0-3.5,4.75c0.15,4.75-1.35,12-2.35,11.75s-2.08-6-2.04-7.25c0.04-1.25,1.71-2.75,0-8.5
			c-1.71-5.75-3.79-9.25-3.75-10.25c0.04-1-0.04,3,0,3.75c0.04,0.75-0.47,10-0.84,10.75s-1.12,0.5-2.37,8.75s-3,8.8-3.5,8.78
			c-0.5-0.03-1.24-13.53-1.24-13.53L416.5,441c0,0-1.61,13.5-4.18,13.5s-5.62-5.25-5.72-6.25c-0.1-1-6.1-7.25-6.6-12s-1.25-7-1.25-7
			s-4.92,8.5-4.46,13.5s-2.06,13.75-2.06,13.75s-6.24-4.75-8.23-11.5c-1.99-6.75-5.21-15.25-5.21-15.25s-4.81,14.75-3.54,17.25
			c1.26,2.5-8.22,7-7.23,10s-8.56,4.28-8.56,4.28l-5.45-6.53l-4.25-12c0,0-3.39,10.5-4.82,13.75s-4.36,9.22-4.36,9.22l-7.07-9.97
			l-4.31-8.25c0,0-3.23,10.25-2.71,12.5c0.52,2.25-2.48,4.68-2.48,5.47s-3.5-1.12-3.5-1.12v-10.1l-3.25-9.25c0,0-2.25,8.5-1.88,9.25
			c0.38,0.75-1.37,7.03-1.37,7.03l-6.81,3.07l-4.69,6.16c0,0-0.75-5.76-1.75-10.51s0-10.5,0-10.5s-4.5,4.62-3.25,13.44
			s0.5,13.44-1.25,15.38c-1.75,1.94-4.75-0.81-5.75,5.19s-5.75,9.75-6.75,10.5S271,501.25,271,502s-11,10-11,10h497.33
			L760.25,446.25z"/>
	</g>
</g>
<g id="DESIGNED_BY_FREEPIK">
</g>
</svg>
