<?xml version="1.0" encoding="utf-8"?>
<!-- Generator: Adobe Illustrator 23.1.0, SVG Export Plug-In . SVG Version: 6.00 Build 0)  -->
<svg version="1.1" id="publicdomainvectors.org" xmlns="http://www.w3.org/2000/svg" xmlns:xlink="http://www.w3.org/1999/xlink"
	 x="0px" y="0px" viewBox="0 0 660 660" style="enable-background:new 0 0 660 660;" xml:space="preserve">
<style type="text/css">
	.st0{fill-rule:evenodd;clip-rule:evenodd;fill:#9EC1E3;}
	.st1{fill-rule:evenodd;clip-rule:evenodd;fill:#C3DFFA;}
	.st2{fill-rule:evenodd;clip-rule:evenodd;fill:#497BAD;}
	.st3{fill-rule:evenodd;clip-rule:evenodd;fill:#FFFFFF;}
	.st4{fill-rule:evenodd;clip-rule:evenodd;fill:#578ABD;}
	.st5{fill-rule:evenodd;clip-rule:evenodd;fill:#5F93C7;}
	.st6{fill-rule:evenodd;clip-rule:evenodd;fill:#9FC4E6;}
	.st7{fill-rule:evenodd;clip-rule:evenodd;fill:#AFD0F0;}
	.st8{fill-rule:evenodd;clip-rule:evenodd;fill:#78A7D6;}
</style>
<g>
	<rect x="1.33" y="-0.09" class="st0" width="659.38" height="659.38"/>
	<polygon class="st1" points="18.73,306.7 95.39,262.45 128.19,281.39 193.77,243.53 248.58,275.18 349.23,217.07 381.82,235.89 
		450.87,196.02 560.64,259.4 569.13,356.16 14.15,348.83 	"/>
	<rect x="1.33" y="348.83" class="st2" width="659.38" height="310.46"/>
	<path class="st0" d="M41.53,306.71l48.54-34.34l-3.66,12.82l9.85,18.55l-16.03,28.85L41.53,306.71L41.53,306.71z M397.33,276.72
		l7.33-38.92l40.75-28.39l-7.78,45.33L397.33,276.72L397.33,276.72z M318.57,263.66l17.4-16.71l-2.75-15.34l14.42-9.16l-4.12,10.76
		l11.22,16.71l-9.61,46.94L318.57,263.66L318.57,263.66z M105.42,311.29l-11.68,26.56l24.73-25.18l24.5-12.13l6.18-16.48
		L105.42,311.29L105.42,311.29z M193.22,246.84l38.52,36.75l-72.29,35.26L193.22,246.84z"/>
	<polygon class="st3" points="660.71,239.85 553.57,177.99 366.65,285.91 312.26,254.5 294.33,263.68 262.53,245.32 110.18,333.28 
		1.33,270.12 1.33,348.83 660.71,348.83 	"/>
	<path class="st1" d="M359.98,348.83l72.47-77.84l70.83-21.06l48.01-58.61l-21.73,82.42l-40.24,25.64l-16.43,49.45H359.98
		L359.98,348.83z M642.41,348.83l-39.38-80.13l57.68,44.88v35.25H642.41z"/>
	<polygon class="st1" points="312.26,348.83 262.81,254.51 212.89,301.22 185.88,304.42 132.76,348.83 134.59,349.29 	"/>
	<polygon class="st3" points="186.8,348.83 214.73,325.48 232.13,322.28 243.58,306.25 241.29,333.72 223.43,349.06 	"/>
	<polygon class="st1" points="39.38,349.16 1.84,309.93 1.33,348.83 	"/>
	<polygon class="st4" points="18.73,370.93 95.39,394.02 128.19,384.14 193.77,403.89 248.58,387.38 349.23,417.69 381.82,407.88 
		450.87,428.67 560.64,395.61 568.49,348.95 14.15,348.95 	"/>
	<polygon class="st5" points="660.71,405.81 553.57,438.08 366.65,381.78 312.26,398.16 294.33,393.37 262.53,402.95 110.18,357.06 
		1.33,390.02 1.33,348.95 660.71,348.95 	"/>
	<polygon class="st3" points="85.52,458.97 105.79,428.57 154.43,425.33 175.51,404.25 263.08,416.41 303.62,443.97 365.23,458.57 
		387.94,492.62 41.74,492.62 	"/>
	<polygon class="st1" points="298.19,492.62 263.08,416.41 227.21,442.71 224.47,472.47 208.9,492.62 	"/>
	<polygon class="st6" points="105.79,428.57 160.82,446.37 193.79,441.34 227.21,442.71 224.47,472.47 208.9,492.62 41.74,492.62 
		85.52,458.97 	"/>
	<polygon class="st5" points="85.52,507.27 105.79,520.5 154.43,521.91 175.51,531.09 263.08,525.79 303.62,513.79 365.23,507.44 
		387.94,492.62 41.74,492.62 	"/>
	<path class="st7" d="M1.33,161.1l659.38-24.73v19.23L1.33,227.95V161.1L1.33,161.1z M1.33,92.41l473.62,15.57L1.33,134.54V92.41z"
		/>
	<polygon class="st3" points="660.71,609.85 394.35,609.85 428.24,545.74 485.94,521.93 507.92,480.72 582.1,464.23 626.05,501.78 
		660.71,504.06 	"/>
	<polygon class="st6" points="485.94,521.93 567.44,553.75 631.55,543.68 660.71,577.56 660.71,609.85 394.35,609.85 428.24,545.74 
			"/>
	<polygon class="st1" points="567.44,553.75 626.05,501.78 631.55,543.68 567.44,553.75 485.94,521.93 507.92,480.72 	"/>
	<polygon class="st5" points="660.71,609.85 394.35,609.85 428.24,639.58 485.94,650.62 495.9,659.29 660.71,659.29 	"/>
	<polygon class="st5" points="208.9,557.87 274.84,560.39 340.78,562.91 274.84,565.43 208.9,567.95 142.96,565.43 77.02,562.91 
		142.96,560.39 	"/>
	<polygon class="st5" points="472.42,444.77 518.1,446.51 563.78,448.26 518.1,450 472.42,451.75 426.75,450 381.07,448.26 
		426.75,446.51 	"/>
	<polygon class="st8" points="562.63,414.55 608.31,416.29 653.99,418.04 608.31,419.78 562.63,421.53 516.96,419.78 471.28,418.04 
		516.96,416.29 	"/>
	<polygon class="st8" points="330.94,375.93 376.62,377.67 422.29,379.42 376.62,381.16 330.94,382.9 285.26,381.16 239.59,379.42 
		285.26,377.67 	"/>
	<polygon class="st8" points="91.48,386.79 124.24,388.04 156.99,389.3 124.24,390.55 91.48,391.8 58.73,390.55 25.97,389.3 
		58.73,388.04 	"/>
	<polygon class="st8" points="162.96,361.73 188.68,362.72 214.4,363.7 188.68,364.68 162.96,365.66 137.24,364.68 111.53,363.7 
		137.24,362.72 	"/>
	<polygon class="st8" points="522.83,369.68 548.54,370.66 574.26,371.65 548.54,372.63 522.83,373.61 497.11,372.63 471.39,371.65 
		497.11,370.66 	"/>
</g>
</svg>
