<?xml version="1.0" encoding="utf-8"?>
<!-- Generator: Adobe Illustrator 23.1.0, SVG Export Plug-In . SVG Version: 6.00 Build 0)  -->
<svg version="1.1" id="publicdomainvectors.org" xmlns="http://www.w3.org/2000/svg" xmlns:xlink="http://www.w3.org/1999/xlink"
	 x="0px" y="0px" viewBox="0 0 660 660" style="enable-background:new 0 0 660 660;" xml:space="preserve">
<style type="text/css">
	.st0{fill-rule:evenodd;clip-rule:evenodd;fill:#C0D2D5;}
	.st1{fill-rule:evenodd;clip-rule:evenodd;fill:#D4E5E7;}
	.st2{fill-rule:evenodd;clip-rule:evenodd;fill:#FD9644;}
	.st3{fill-rule:evenodd;clip-rule:evenodd;fill:#E27330;}
	.st4{fill-rule:evenodd;clip-rule:evenodd;fill:#773D20;}
</style>
<polygon class="st0" points="0,0 660.54,0 660.54,660.54 0,660.54 0,46.07 "/>
<path class="st1" d="M0,209.8h660.54V228H0V209.8L0,209.8z M0,0h660.54v79.11H0V0L0,0z M0,149.48h660.54v38.78H0V149.48z"/>
<g>
	<polygon class="st2" points="387.83,406.35 539.85,254.33 660.54,375.02 660.54,406.35 	"/>
	<polygon class="st3" points="539.85,254.33 589.51,406.35 660.54,406.35 660.54,375.02 	"/>
</g>
<rect y="370.92" class="st2" width="660.54" height="289.62"/>
<path class="st3" d="M660.54,435.51v225.02H0V430.96c27.69,4.9,56.71,4.01,85.3-2.73c64.62-15.23,129.86-15.96,195.61-2.18
	l42.76,8.96c62.01,12.99,122.11,13.64,185.63,2.01C559.08,427.9,610.62,427.39,660.54,435.51z"/>
<g>
	<polygon class="st2" points="116.72,370.92 308.71,178.93 500.69,370.92 	"/>
	<polygon class="st3" points="308.71,178.93 371.42,370.92 500.69,370.92 	"/>
</g>
<g>
	<polygon class="st2" points="54.54,370.92 146.23,279.23 237.92,370.92 	"/>
	<polygon class="st3" points="146.23,279.23 176.18,370.92 237.92,370.92 	"/>
</g>
<g>
	<polygon class="st2" points="0,316.3 37.07,279.23 128.76,370.92 0,370.92 	"/>
	<polygon class="st3" points="37.07,279.23 67.02,370.92 128.76,370.92 	"/>
</g>
<g>
	<path class="st4" d="M660.54,537.1v123.44H0v-30.8V517.65c27.69,9.12,56.71,8.05,85.3-3.33c64.62-25.74,129.86-25.9,195.61-0.48
		l42.76,16.53c62.01,23.98,122.11,26.16,185.63,6.76C559.08,521.92,610.62,521.91,660.54,537.1z"/>
	<g>
		<path class="st4" d="M600.74,563.61c15.64-248.34,15.82-459.39-55.54-497.91c10.85-3.51,21.7-7.02,32.56-10.53
			c53.77,41.86,74.29,152.44,82.77,287.9v211.01L600.74,563.61z"/>
		<path class="st4" d="M566.27,67.62c-44.05-82.51-212.09-5.11-186.72,91.44l33.46-16.39l-9.93-29.11L423,137.79l49.78-24.38
			l-9.37-24.73l16.9,21.05l34.98-17.13l-7.35-23.07l15.56,19.05L566.27,67.62z"/>
		<path class="st4" d="M552.62,61.63c20.15-40.42,66.26-50.81,107.92-40.62v79.15l-14.43-5.15l9.37-25.98l-16.9,23.29L603.6,79.83
			l7.35-24.04L595.39,76.9L552.62,61.63z"/>
		<path class="st4" d="M591.66,72.09c-70.36-69.26-211.4,37.42-154.95,123.68l27.76-22.16l-19.27-25.55L472.76,167l41.31-32.98
			l-17.3-21.52l23.54,16.54l29.03-23.17l-14.76-20.35l21.58,14.91L591.66,72.09z"/>
		<path class="st4" d="M551.5,19.74c27.06,0,49,10.46,49,23.37c0,12.91-21.94,23.37-49,23.37c-27.06,0-49-10.46-49-23.37
			C502.5,30.2,524.44,19.74,551.5,19.74z"/>
		<path class="st4" d="M578.95,74.36c22.69-22.34,54.66-21.6,81.59-8.25v73.38l-20.06-16.01l13.72-17.07l-18.67,13.12l-23.02-18.38
			L624.21,85L607.1,96.83L578.95,74.36z"/>
	</g>
	<g>
		<path class="st4" d="M578.22,648.04c13.59-215.77,13.75-399.14-48.25-432.6c9.43-3.05,18.86-6.1,28.29-9.15
			c69.42,54.04,75.05,239.89,77.37,432.6C616.49,641.94,597.35,644.99,578.22,648.04z"/>
		<path class="st4" d="M548.27,217.1C510,145.42,364,212.66,386.04,296.55l29.07-14.24l-8.63-25.29l17.3,21.04l43.25-21.18
			l-8.14-21.49l14.68,18.29l30.39-14.88l-6.39-20.04l13.52,16.55L548.27,217.1z"/>
		<path class="st4" d="M536.4,211.9c22.68-45.49,83.18-47.21,124.13-23.01v67.32l-42.9-15.31l8.14-22.57l-14.68,20.24l-30.39-10.85
			l6.39-20.89l-13.52,18.34L536.4,211.9z"/>
		<path class="st4" d="M570.32,220.99C509.2,160.81,386.66,253.5,435.7,328.45l24.12-19.25l-16.75-22.2l23.94,16.46l35.89-28.65
			l-15.03-18.7l20.46,14.37l25.22-20.13l-12.83-17.68l18.75,12.96L570.32,220.99z"/>
		<path class="st4" d="M535.44,175.5c23.51,0,42.57,9.09,42.57,20.3c0,11.21-19.06,20.3-42.57,20.3c-23.51,0-42.57-9.09-42.57-20.3
			C492.86,184.59,511.92,175.5,535.44,175.5z"/>
		<path class="st4" d="M559.28,222.96c29.62-29.16,77.41-13.06,101.25,17.43v63.39l-13.61-10.87l13.28-17.61l-18.99,13.05
			l-28.47-22.73l11.92-14.83l-16.22,11.4l-20-15.97l10.17-14.02l-14.87,10.28L559.28,222.96z"/>
	</g>
	<g>
		<path class="st4" d="M32.29,586.46C18.7,370.7,18.54,187.33,80.54,153.86c-9.43-3.05-18.86-6.1-28.28-9.15
			C27.8,163.75,11.27,199.16,0,245.45v335.87L32.29,586.46z"/>
		<path class="st4" d="M62.24,155.53c38.27-71.68,184.27-4.44,162.23,79.45l-29.07-14.24l8.63-25.29l-17.3,21.04l-43.25-21.18
			l8.14-21.49l-14.68,18.29l-30.39-14.88l6.39-20.04L99.4,173.73L62.24,155.53z"/>
		<path class="st4" d="M74.1,150.33C59.73,121.49,30.16,110.25,0,112.03v64.74l29.8-10.64l-6.39-20.89l13.52,18.34L74.1,150.33z"/>
		<path class="st4" d="M40.18,159.41c61.13-60.17,183.67,32.51,134.62,107.46l-24.12-19.26l16.74-22.2l-23.94,16.45l-35.89-28.65
			l15.03-18.7l-20.46,14.37l-25.22-20.13l12.83-17.68l-18.75,12.96L40.18,159.41z"/>
		<path class="st4" d="M75.07,113.93c-23.51,0-42.57,9.09-42.57,20.3c0,11.21,19.06,20.3,42.57,20.3c23.51,0,42.57-9.09,42.57-20.3
			C117.64,123.02,98.58,113.93,75.07,113.93z"/>
		<path class="st4" d="M51.22,161.38C36.83,147.21,18.14,143.73,0,147.39v51.78l2.06,1.45l20-15.97l-10.17-14.03l14.87,10.28
			L51.22,161.38z"/>
	</g>
</g>
</svg>
