<?xml version="1.0" encoding="utf-8"?>
<!-- Generator: Adobe Illustrator 23.1.0, SVG Export Plug-In . SVG Version: 6.00 Build 0)  -->
<svg version="1.1" xmlns="http://www.w3.org/2000/svg" xmlns:xlink="http://www.w3.org/1999/xlink" x="0px" y="0px"
	 viewBox="0 0 750 500" style="enable-background:new 0 0 750 500;" xml:space="preserve">
<style type="text/css">
	.st0{opacity:0.8;}
	.st1{fill:url(#SVGID_1_);}
	.st2{clip-path:url(#SVGID_3_);}
	.st3{fill:#FFFCF9;}
	.st4{fill:url(#SVGID_4_);}
	.st5{opacity:0.4;fill:url(#SVGID_5_);}
	.st6{fill:url(#SVGID_6_);}
	.st7{opacity:0.4;fill:url(#SVGID_7_);}
	.st8{fill:url(#SVGID_8_);}
	.st9{opacity:0.5;fill:url(#SVGID_9_);}
	.st10{opacity:0.5;fill:url(#SVGID_10_);}
	.st11{opacity:0.5;fill:url(#SVGID_11_);}
	.st12{opacity:0.5;fill:url(#SVGID_12_);}
	.st13{opacity:0.5;fill:url(#SVGID_13_);}
	.st14{fill:url(#SVGID_14_);}
	.st15{fill:url(#SVGID_15_);}
	.st16{opacity:0.5;fill:url(#SVGID_16_);}
	.st17{opacity:0.5;fill:url(#SVGID_17_);}
	.st18{fill:url(#SVGID_18_);}
	.st19{opacity:0.7;fill:url(#SVGID_19_);}
	.st20{fill:url(#SVGID_20_);}
	.st21{fill:url(#SVGID_21_);}
	.st22{opacity:0.3;fill:url(#SVGID_22_);}
	.st23{fill:url(#SVGID_23_);}
	.st24{fill:url(#SVGID_24_);}
	.st25{opacity:0.6;fill:url(#SVGID_25_);}
	.st26{opacity:0.5;fill:url(#SVGID_26_);}
	.st27{fill:url(#SVGID_27_);}
	.st28{fill:#224469;}
</style>
<g id="BACKGROUND">
	<g>
		<g>
			<g class="st0">
				<g>
					<linearGradient id="SVGID_1_" gradientUnits="userSpaceOnUse" x1="375" y1="500" x2="375" y2="-9.094947e-13">
						<stop  offset="0.1505" style="stop-color:#FFCE68"/>
						<stop  offset="0.2513" style="stop-color:#FFD06D"/>
						<stop  offset="0.3729" style="stop-color:#FFD47C"/>
						<stop  offset="0.5053" style="stop-color:#FFDC94"/>
						<stop  offset="0.6444" style="stop-color:#FFE7B6"/>
						<stop  offset="0.7473" style="stop-color:#FFF0D4"/>
						<stop  offset="0.8863" style="stop-color:#FFF0D6"/>
						<stop  offset="0.9431" style="stop-color:#FFF0DD"/>
						<stop  offset="0.9848" style="stop-color:#FFF0E9"/>
						<stop  offset="1" style="stop-color:#FFF0F0"/>
					</linearGradient>
					<rect class="st1" width="750" height="500"/>
				</g>
			</g>
		</g>
	</g>
</g>
<g id="OBJECTS">
	<g>
		<g>
			<defs>
				<rect id="SVGID_2_" width="750" height="500"/>
			</defs>
			<clipPath id="SVGID_3_">
				<use xlink:href="#SVGID_2_"  style="overflow:visible;"/>
			</clipPath>
			<g class="st2">
				<path class="st3" d="M429.24,183.24c0,29.96-24.29,54.24-54.24,54.24c-29.96,0-54.24-24.29-54.24-54.24
					c0-29.96,24.29-54.24,54.24-54.24C404.96,129,429.24,153.29,429.24,183.24z"/>
				<g>
					<linearGradient id="SVGID_4_" gradientUnits="userSpaceOnUse" x1="589.5356" y1="321.0637" x2="589.5356" y2="208.6553">
						<stop  offset="0" style="stop-color:#C3B6E6"/>
						<stop  offset="0.1492" style="stop-color:#D1BCDA"/>
						<stop  offset="0.4712" style="stop-color:#EAC6C5"/>
						<stop  offset="0.7642" style="stop-color:#FACCB8"/>
						<stop  offset="1" style="stop-color:#FFCEB3"/>
					</linearGradient>
					<path class="st4" d="M759.07,287.93c-3.71-3.51-19.8-1.64-25.09-1.91c-7.69-0.38-15.94,0.45-23.98,0
						c-16.4-0.92-34.62-6.68-50.05-13.02c-24.23-9.96-38.53-28.88-57.45-46.08c-3.73-3.39-7.61-8.24-12.2-5.17
						c-10.43,0.25-11.32-8.95-15.5-11.55c-5.82-3.62-19.74-0.13-22.63,2.98c-2.04,2.87-1.98,2.38-5,4
						c-3.17,4.32-10.3,11.58-17.55,7.95c-14.9-3.16-14.25,16-26.38,12.5c-17-6.75-34.48,11.64-40,14.62
						c-13.79,7.47-30.32,2.2-43.25,7.75l44,34c20.05,4.17,43.62,4.25,64.27,5.78c26.06,1.92,50.5,12.53,76.5,15
						c51.41,4.89,101.49,8.21,153.05,5.05c0.5-0.99,0.9-2.05,1.25-3.17V287.93z"/>
					
						<radialGradient id="SVGID_5_" cx="627.624" cy="275.9171" r="63.3533" gradientTransform="matrix(1.8115 0.1559 -0.0857 0.9963 -563.431 -77.0348)" gradientUnits="userSpaceOnUse">
						<stop  offset="0" style="stop-color:#FFFFFF"/>
						<stop  offset="1" style="stop-color:#FFFFFF;stop-opacity:0"/>
					</radialGradient>
					<path class="st5" d="M664.63,305.58c-3,34.86-56.81,58.7-120.2,53.24c-63.38-5.45-112.33-38.13-109.33-72.99
						c3-34.86,56.81-58.7,120.19-53.25C618.68,238.04,667.63,270.72,664.63,305.58z"/>
					<linearGradient id="SVGID_6_" gradientUnits="userSpaceOnUse" x1="376.5903" y1="405.0536" x2="376.5903" y2="143.9324">
						<stop  offset="0" style="stop-color:#ADA2CC"/>
						<stop  offset="1" style="stop-color:#FFCEB3"/>
					</linearGradient>
					<path class="st6" d="M753.02,371c-0.52-5.59,3.52-11.38,6.05-17.25v-19.66c-3.29-11.14-9.34-21.38-6.2-32.94
						c-32.54-1.65-64.41-1.03-96.62-4.93c-22.98-2.78-46.14-5.38-69.05-8.22c-12.81-1.59-24.71-5.43-37.22-6
						c-32.44-1.47-69.72-6.44-99.73-17.25c-25.32-9.12-53.13-14.19-74.52-32.48c-4.98-4.26-9.55-10.48-15.75-12.24
						c-2.95-0.84-7.23,0.96-10.97-0.04c-3.58-0.95-4.19-3.72-7.2-5.02c-7.1-3.08-14.22-2.77-20.55-8.23
						c-6.09-5.25-8.44-9.03-16.25-13c-7.01-3.57-14.48-5.68-20.73-10.02c-5.31-3.69-7.77-8.83-12.03-14
						c-4.24-5.14-10.34-11.55-15.22-15.75c-7.25-6.25-10.57-2.84-18.85-2.15c-1.52-2.9-4.15-5.39-7.18-6.93
						c-6.5-4.9-15.21,10.04-21.27,17.07c-3.42,3.96-15.23-4.48-24.56,5.2c-6.05,12.4-22.2,20.2-33.23,26.55
						c-5.54,3.19-10.52,9.72-16.7,11.52c-7.24,2.11-13.98-1.65-20.97,2.03c-10.12,5.32-22.52,14.03-31.47,21.7
						c-6.5,5.56-25.3-1.31-34.53,3.17c-2,2.17-4.11,8.69-7.33,5.75c-2.2-2.98-6.67-1.93-8.7-0.3c-2.47,1.44-2.99,1.54-5.25,3.5
						c-7.34-6.7-11.89,1.55-17.27,4.7c-4.83,2.83-10.71,4.59-15.62,7.72v94.07c1.11,0.11,2.14,0.24,2.89,0.39
						c9.54,1.87,16.56,7.07,25.78,11.08c23.17,10.07,44.68,19.29,70.27,22.22c97.39,11.14,196.38,4.4,293.94,13.45
						c47.63,4.42,95.16,9.83,143.03,10.3c39.15,0.38,77.95-3.02,117.02-3.02c23.11,0,45.38,0.06,68.23-3
						c13-1.74,27.05-0.43,39.33-4.18C751.8,387.15,753.78,379.06,753.02,371z"/>
					
						<radialGradient id="SVGID_7_" cx="429.7573" cy="288.8496" r="96.7218" gradientTransform="matrix(1.8115 0.1559 -0.0857 0.9963 -563.431 -77.0348)" gradientUnits="userSpaceOnUse">
						<stop  offset="0" style="stop-color:#FFFFFF"/>
						<stop  offset="1" style="stop-color:#FFFFFF;stop-opacity:0"/>
					</radialGradient>
					<path class="st7" d="M365.53,292.82c-4.58,53.22-86.74,89.61-183.5,81.29c-96.77-8.33-171.5-58.22-166.92-111.44
						c4.58-53.22,86.74-89.62,183.5-81.29C295.38,189.71,370.11,239.6,365.53,292.82z"/>
					<linearGradient id="SVGID_8_" gradientUnits="userSpaceOnUse" x1="376.5903" y1="230.334" x2="376.5903" y2="414.8527">
						<stop  offset="0" style="stop-color:#9488AE"/>
						<stop  offset="1" style="stop-color:#C3B6E6"/>
					</linearGradient>
					<path class="st8" d="M759.07,270.75c-18.47,6.65-37.48,12.23-55.16,20.22c-11.17,5.04-23.58,12.42-36.41,15.34
						c-0.15-0.02-0.3-0.04-0.45-0.06c-4.13-0.58-8.18,0.41-12.31-0.24c-1.49-0.23-3.97-1.25-4.95-2.55
						c-0.98-1.3-0.58-3.94-3.01-3.74c-0.47-2.62-5.91-2.87-8.01-2.75c0.13-2.24-0.19-6.48-2.29-7.52c-2.6-1.29-5.66-0.35-8.44-2
						c-2-1.19-3.87-0.98-5.81-1.94c-1.21-0.6-0.91-1.66-1.75-2.19c-0.85-0.55-1.83,0.05-2.7-0.36c-1.04-0.48-3.36-2.36-4.12-3.12
						c-0.79-0.79-0.6-1.82-1.69-2.51c-0.98-0.62-2.18-0.16-3.27-0.3c-3.57-0.46-7.92-1.75-11.24-3.31c-0.81-0.38-2.03-1.09-2.74-1.5
						c-0.52-0.31-1.87-1.58-2.25-1.71c-1.42-0.49-1.87,0.4-3.06,0.47c-0.98,0.06-1.55-0.38-2.44-0.46
						c-3.76-0.32-7.22-2.49-10.75-2.5c-1.19,0-2.11,0.63-3.25,0.75c-0.98,0.11-1.35-0.45-2.5-0.23c-2.32,0.43-2.65,2.75-4.75,3.68
						c-2.13,0.95-4.16-0.76-6.25,0.04c-1.29,0.5-1.77,1.55-3.25,1.77c-1,0.15-1.51-0.55-2.49-0.26c-3.4,1.01-6.31,5.06-8.21,8
						c-1.34,2.09-1.22,3.91-3.86,4.82c-2.48,0.85-3.74-0.71-5.96-1.32c-3.58-0.98-8.36-0.51-11.99-0.69
						c-1.75-0.09-4.59-0.17-6.25,0.18c-1.18,0.25-2.04,1.46-3.2,1.82c-0.83,0.26-1.96-0.1-2.8,0.18c-2,0.65-3.21,2.08-5.49,2.27
						c-2.28,0.2-4-0.93-5.95-1.26c-2.41-0.41-2.5,1.23-5.06,1.75c-3.13,0.63-2.55,1.01-4.8,2.96c-0.62,0.54-1.6,0.73-2.4,1.53
						c-0.49,0.49-0.9,1.45-1.55,2.07c-1.13,1.07-3,2.08-4.3,3.13c-2.84,2.27-5.76,4.88-8.69,7.51c-1.12,1.01-2.14,2.06-3.33,2.94
						c-3.91,1.56-7.53,2.11-10.43,0.67c-16.36,17.44-37.12-9.49-50.25-19.38c-2.32-1.75-6.4,1.1-8.73-0.6
						c-1.56-1.14-2.96-7.22-3.18-7.32c-6.71-2.84-5.92-2.13-13.24-2.89c-12.53-1.3-19.18,4.12-30,6.04
						c-8.93,1.58-25.89,1.63-34.53-0.04c-11.71-2.26-13.1-12.46-19.76-19.23c-2.96-3.01-7.22-5.82-11.65-7.83
						c-1.22-1.43-2.62-2.71-4.06-3.8c-2.38-1.8-4.19-2.75-7.11-2.25c-1.3,0.22-2.65,1.16-3.98,1.41c-1.47,0.28-2.59,0.07-4,0.25
						c-4.01,0.52-8.15,9-12.35,7.35c-1.7-0.67-2.4-4-3.39-5.35c-2.23-3.02-3.6-1.94-6.25-2.42c-2.32-0.42-5.09-1.73-7.68-1.6
						c-2.5,0.13-5.47,4.11-7.33,2.32c-3.66,0.73-2.98,3.16-4.75,5.62c-1.41,1.96-3.91,3.03-5.67,4.66
						c-1.78,1.65-3.47,3.83-5.49,5.18c-2.4,1.61-4.86,1.33-7.42,2.15c-3.26,1.04-4.61,2.76-8.33,2.75
						c-2.87-0.01-5.56,0.36-8.33,0.07c-5.24-0.54-10.56-1.73-15.08-4.33c-4.37-2.51-8.22-5.05-12.92-6.07
						c-2.84-0.62-4.96-0.93-7.67-2.33c-2.88-1.49-3.82-2.34-6.94-1.72c-0.02-0.09-0.04-0.18-0.07-0.27
						c-2.66-1.07-2.2-3.34-5.73-3.11c-1.1,0.07-2.5,1.03-3.57,1.12c-1.56,0.12-2.2-0.29-3.61-0.45c-5.68-0.64-8.07-3.6-11.74-7.59
						c-1.51-1.63-0.88-1.24-3-1.98c-1.4-0.49-1.96-0.22-3.08-0.92c-1.65-1.03-2.62-3.36-3.9-4.83c-0.93-1.07-3.61-3.76-5.08-4.52
						c-2.55-1.31-5.22-0.01-7.88-0.46c-0.7-2.02-2.96-2.16-4.73-2.53c-2.21-0.47-3.3-1.33-5.32-2.09c-4.06-1.53-7.4-2.98-12.02-2.98
						c-4.05,0-8.71,0.46-12.09,2.24c-0.48,0.25-0.94,0.53-1.38,0.82c-5.88,2.17-11.05,6.01-16.92,8.86
						c-20.08,9.76-34.91,10-55.16,11.66v135.33c19.08,10.1,44.89,13.07,63.66,17.17c65.02,14.21,129.25,6.3,195.49,5.66
						c38.21-0.37,76.61-2.14,114.74-4.17c40.93-2.18,83.35-1.83,124-6.71c71.25-8.54,143.29-6.44,214.24-17.62
						c17.3-2.73,36.92-5.46,52.83-13.15V270.75z"/>
					
						<radialGradient id="SVGID_9_" cx="371.7408" cy="308.0407" r="69.5841" gradientTransform="matrix(1.7678 -0.4251 0.2338 0.9723 -637.1844 179.5819)" gradientUnits="userSpaceOnUse">
						<stop  offset="0" style="stop-color:#FFFFFF"/>
						<stop  offset="1" style="stop-color:#FFFFFF;stop-opacity:0"/>
					</radialGradient>
					<path class="st9" d="M215.01,291.48c8.99,37.36-38.81,80.9-106.74,97.24c-67.94,16.34-130.3-0.71-139.28-38.08
						c-8.98-37.37,38.81-80.9,106.74-97.24C143.67,237.07,206.03,254.12,215.01,291.48z"/>
					
						<radialGradient id="SVGID_10_" cx="332.5673" cy="322.3237" r="69.5841" gradientTransform="matrix(1.7678 -0.4251 0.2338 0.9723 -637.1844 179.5819)" gradientUnits="userSpaceOnUse">
						<stop  offset="0" style="stop-color:#FFFFFF"/>
						<stop  offset="1" style="stop-color:#FFFFFF;stop-opacity:0"/>
					</radialGradient>
					<path class="st10" d="M149.1,322.02c8.99,37.36-38.81,80.9-106.74,97.24c-67.94,16.34-130.3-0.71-139.28-38.08
						c-8.98-37.37,38.81-80.9,106.74-97.24C77.76,267.61,140.11,284.66,149.1,322.02z"/>
					
						<radialGradient id="SVGID_11_" cx="471.6453" cy="366.2372" r="69.586" gradientTransform="matrix(1.8023 0.24 -0.132 0.9912 -518.7145 -141.8522)" gradientUnits="userSpaceOnUse">
						<stop  offset="0" style="stop-color:#FFFFFF"/>
						<stop  offset="1" style="stop-color:#FFFFFF;stop-opacity:0"/>
					</radialGradient>
					<path class="st11" d="M408.4,351.06c-5.07,38.09-65.34,61.5-134.6,52.27c-69.26-9.22-121.3-47.58-116.23-85.68
						c5.07-38.09,65.33-61.5,134.6-52.27C361.44,274.61,413.47,312.96,408.4,351.06z"/>
					
						<radialGradient id="SVGID_12_" cx="624.7007" cy="354.8642" r="69.5841" gradientTransform="matrix(1.8022 -0.2407 0.1324 0.9912 -608.4157 158.2284)" gradientUnits="userSpaceOnUse">
						<stop  offset="0" style="stop-color:#FFFFFF"/>
						<stop  offset="1" style="stop-color:#FFFFFF;stop-opacity:0"/>
					</radialGradient>
					<path class="st12" d="M689.81,342.86c5.09,38.09-46.94,76.47-116.2,85.72c-69.26,9.25-129.53-14.13-134.61-52.23
						c-5.09-38.09,46.94-76.47,116.19-85.72C624.45,281.38,684.72,304.77,689.81,342.86z"/>
					
						<radialGradient id="SVGID_13_" cx="725.879" cy="379.434" r="69.5841" gradientTransform="matrix(1.8022 -0.2407 0.1324 0.9912 -608.4157 158.2284)" gradientUnits="userSpaceOnUse">
						<stop  offset="0" style="stop-color:#FFFFFF"/>
						<stop  offset="1" style="stop-color:#FFFFFF;stop-opacity:0"/>
					</radialGradient>
					<path class="st13" d="M875.41,342.86c5.09,38.09-46.94,76.47-116.2,85.72c-69.26,9.25-129.53-14.13-134.61-52.23
						c-5.09-38.09,46.94-76.47,116.19-85.72C810.05,281.38,870.32,304.77,875.41,342.86z"/>
					<g>
						<g>
							<linearGradient id="SVGID_14_" gradientUnits="userSpaceOnUse" x1="283.0201" y1="334.3571" x2="283.0201" y2="334.415">
								<stop  offset="0" style="stop-color:#566BAC"/>
								<stop  offset="1" style="stop-color:#9488AE"/>
							</linearGradient>
							<path class="st14" d="M282.99,334.42c0.02-0.01,0.04-0.03,0.06-0.04C282.99,334.34,282.98,334.36,282.99,334.42z"/>
							<linearGradient id="SVGID_15_" gradientUnits="userSpaceOnUse" x1="376.5903" y1="465.1043" x2="376.5903" y2="295.7085">
								<stop  offset="0" style="stop-color:#9488AE"/>
								<stop  offset="1" style="stop-color:#566BAC"/>
							</linearGradient>
							<path class="st15" d="M759.07,352.5c-4.29-2.8-8.57-5.14-12.1-6.75c-6.46-2.94-13.94-5.65-20.97-7.81
								c-9.45-2.9-9.81-6.75-17.95-11.17c-7.93-4.31-14.42,0.82-22.35-2.48c-2.75-1.14-4.69-5.03-8.7-6.37
								c-3.09-1.03-6.08,0.63-9.78-1.15c-3.4-1.63-2.33-6.12-8.22-6.57c-1.51-0.12-9.57,3.16-11,3.8
								c-5.94,2.64-12.74,5.53-18.98,9.22c-7.53,4.46-9.39,9.96-18.02,13c-6.98,2.46-15.41,3.02-22.23,6.48
								c-8.58,4.36-11.33,10.15-21.8,7.32c-7.44-2.01-13.79-5.76-21.98-6.02c-2.15-0.07-5.42,0.33-9.19,0.76
								c-0.64-0.04-1.26-0.07-1.81-0.1c-5.5-0.27-10.17,0.26-15.33-1.01c-5.53-1.36-8.13-4.64-12.01-8.33
								c-0.33-0.32-2.07-1.8-2.73-2.25c-1.17-0.79-1.97-0.93-3.27-1.41c-2.24-0.83-5.15-0.45-7.33-1.33
								c-2.3-0.93-2.61-4.24-3.67-6.34c-1.44-2.85-3.39-3.03-6.67-3.67c-2.96-0.57-4.46,0.92-7-0.33c-2.14-1.05-2.61-3.63-5.68-1.76
								c-1.6,0.97-2.59,3.75-4.4,5.01c-2.15,1.49-3.66,2.76-5.57,4.5c-1.1,1-1.98,1.43-3.07,2.59c-1,1.06-1.75,2.05-2.94,2.9
								c-2,1.43-5.99,2.67-8.33,3.03c-1.48,0.22-2.46-0.37-3.93,0.12c-1.05,0.36-2.27,2.13-3.42,2.61
								c-2.87,1.19-5.21-0.14-7.98-0.02c-1.51,0.07-2.62,1.12-4.02,1.02c-1.36-0.1-1.81-1.05-2.92-1.34
								c-2.4-0.63-4.43,0.03-6.73-0.23c-2.63-0.3-4.74-0.97-6.69,0.9c-1.99,1.91-1.63,4.83-5.66,3.27c-1.83-0.71-3.41-2.7-4.92-4.33
								c-2.47-2.66-3.16-1.85-6.33-3c-4.01-1.45-8.3-5.98-12.69-5.33c-0.9-2.59-2.67-4.83-3.63-7.37c-0.92-2.43-1.09-4.68-3-6.66
								c-2.66-2.76-6.24-3.57-10-3.81c-1.76-0.68-3.51-1.04-5.09-0.88c-5.41,0.55-11.62,6.71-15.97,7.7
								c-6.63,1.5-14.24,1.55-20.02,4.08c-8.14,3.57-11.79,4.65-21.06,5.94c-1.03,0.14-2.31,0.36-3.7,0.65
								c-4.94,0.08-9.88,0.37-14.92,0.74c-10.45,0.76-16.16,8.6-25.48,11.18c-8.86,2.45-20.41,6.8-28.37,2.67
								c-5.46-2.83-5.18-6.55-8.81-10.52c-2.82-3.08-8.98-2.18-10.78-7.88c-1.31-0.19-4.91,0.03-5.88-0.77
								c-1.96-1.63-0.97-2.62-2.69-4.7c-2.52-3.06-3.01-3.98-6.79-4.8c-6.16-1.34-13.82-1.92-20.51-2.5
								c-7.12-0.62-12.81-5.46-19.35-5.36c-4.58,0.07-13.04-6.03-18.1-3.22c-3.94,2.25-8.78-1.83-13.23-2.93
								c-4.2-1.04-3.84-0.38-6.83-0.21c-2.07-0.36-3.34-0.13-5.29-3.54c-7.38-6.09-22.07,2.54-25.85,11.17
								c-8.46-2.68-15.69,5.96-22.05,10.25c-4.26,2.88-7.51,3.1-12.01,5.14c-3.26,1.47-6.61,6.05-9.97,6.73
								c-1.72,0.35-4.07-0.91-6-0.7c-2.05,0.22-4.53,1.51-6.66,2.04c-4.45,1.1-8.87,2.08-12.66,4.78
								c-3.83,2.73-7.52,4.85-11.37,6.56c-3.23-0.05-6.9-0.27-10.52-0.29v113.36c4.12,1.48,7.81,2.69,9.94,3.5
								c11.31,4.32,23.04,3.73,35.13,3.73c22.94-0.01,46,1.47,68.87,1.02c33.72-0.66,68.79-7.11,101.95-13.27
								c16.95-3.15,34.02-6.89,51.02-9.55c17.26-2.7,35.3-0.21,52.75-0.2c63.02,0.01,126.42,1.16,189-5
								c29.33-2.89,58.72-8.1,88.22-9.02c28.34-0.88,56.74,0.23,85-1c26.33-1.15,57.03,4.1,83.07-3.15V352.5z"/>
							
								<radialGradient id="SVGID_16_" cx="387.8585" cy="348.9994" r="48.1831" gradientTransform="matrix(1.7678 -0.4251 0.2338 0.9723 -637.0903 179.4627)" gradientUnits="userSpaceOnUse">
								<stop  offset="0" style="stop-color:#FFFFFF"/>
								<stop  offset="1" style="stop-color:#FFFFFF;stop-opacity:0"/>
							</radialGradient>
							<path class="st16" d="M215.35,333.43c6.22,25.87-26.87,56.02-73.91,67.33c-47.04,11.31-90.22-0.49-96.44-26.37
								c-6.22-25.87,26.87-56.02,73.91-67.33C165.94,295.75,209.12,307.55,215.35,333.43z"/>
							
								<radialGradient id="SVGID_17_" cx="572.5302" cy="442.7609" r="48.1832" gradientTransform="matrix(1.8098 0.1744 -0.0959 0.9954 -516.6294 -170.8104)" gradientUnits="userSpaceOnUse">
								<stop  offset="0" style="stop-color:#FFFFFF"/>
								<stop  offset="1" style="stop-color:#FFFFFF;stop-opacity:0"/>
							</radialGradient>
							<path class="st17" d="M564.28,378.17c-2.55,26.49-43.66,44.2-91.83,39.56c-48.16-4.64-85.13-29.88-82.58-56.36
								c2.55-26.49,43.67-44.2,91.82-39.56C529.86,326.44,566.83,351.68,564.28,378.17z"/>
						</g>
					</g>
					<linearGradient id="SVGID_18_" gradientUnits="userSpaceOnUse" x1="376.5903" y1="512.993" x2="376.5903" y2="306.6828">
						<stop  offset="0" style="stop-color:#566BAC"/>
						<stop  offset="0.3003" style="stop-color:#5269AA"/>
						<stop  offset="0.5892" style="stop-color:#4763A3"/>
						<stop  offset="0.8726" style="stop-color:#335A98"/>
						<stop  offset="1" style="stop-color:#285491"/>
					</linearGradient>
					<path class="st18" d="M759.07,408.41c-4.28-0.75-8.59-1.03-11.57-1.39c-9.29-1.13-17.94-3.4-27.5-3.51
						c-4.29-0.05-8.28-0.57-12.5-1c-5.28-0.53-6.63-2.04-11.01-4.42c-6.71-3.63-15.22-1.97-22.11-5.07
						c-1.91-0.86-2.35-1.78-4.49-2.16c-0.42-0.08-2.01,1.15-2.89,1.16c-1.37,0.01-1.55-1.57-2.36-1.65
						c-3.63-0.39-7.43,0.77-11.14,1.15c-8.78,0.89-16.22,3.14-25.01,1.5c-7.18-1.34-13.92-4.59-20.49-7.5
						c-2.92-1.29-6.08-3.68-8.99-4.01c-2.58-0.3-3.89,1.87-5.99,2.04c-2.33,0.18-3.97-1.03-6.05-1.55
						c-1.48-0.37-3.04-0.22-4.97-0.98c-1.69-0.66-2.43-2.26-4.5-2.51c-3.71-0.45-7.88,2.32-11.5,2.9
						c-8.52,1.36-14.28,1.47-21.88-2.51c-0.61-0.32-1.22-0.65-1.84-0.97c-1.82-1.54-3.65-3-5.62-4.24
						c-7.33-4.62-13.97-8.57-21.82-12.85c-3.62-1.98-6.21-5.58-9.5-7.17c-4.82-2.33-9.92,1.1-14.02,1.36
						c-5.04,0.33-9.61-3.85-13.34-3.88c-6.86-0.04-7.59,6.77-11.97,9.75c-2.05,1.4-5.27,0.47-7.2,2.28
						c-2.22,2.09-1.23,5.06-2.97,7.03c-2.25,2.54-10.07,6.38-13.18,8.12c-4.58,2.55-9.39,4.77-13.31,6.02
						c-4.31,1.37-11.84,3.79-17.37,3.35c-6.26-0.5-8.93-0.72-15.33-0.02c-6.44,0.71-8.36-1.73-13.32-3.35
						c-2.36-0.77-5.29-0.42-7.51-1.15c-1.93-0.63-3.5-2.69-5.82-2.85c-5.94-0.4-7.35,3.94-13.5,0.83
						c-7.87-3.98-13.03-9.33-17.65-15.66c-2.32-3.18-2.67-9.9-5.66-12.35c-1.59-1.3-5.23-0.42-7.4-1.97
						c-1.42-1.02-2.27-4.21-3.8-5.53c-3.07-2.64-8.73-3.73-12.66-4.63c-4.93-1.14-9.5-5.57-14.55-4.76
						c-0.3-0.41-0.33-1.19-0.58-1.66c-3.38,0.05-7.17-2.01-10.18-4.26c-0.73-0.55-2.74-2.75-3.52-3.13
						c-2.21-1.08-3.75-0.23-5.7-0.97c-3.15-1.2-6.06-3.24-8.63-4.56c-3.5-1.8-5.47-5.69-10.06-4.75c0-0.78-4.19-0.97-4.18-1.75
						c-2.83-2.31-4.77-1.24-9.25-2.15c-5.39-1.09-8.44,1.08-13.37,0.71c-1.13-0.08-3.75-2.36-5.3-2.72
						c-1.64-0.38-4.27,0.48-5.37,0.05c-2.06-0.81-1.57-3.29-3.95-4.06c-2.16-0.7-4.18,0.02-5.85,0.18
						c-3.43,0.35-8.51,1.58-12.15,2.52c-1.39,0.36-4.77,1.75-6,1.82c-1.55,0.08-4.59-0.58-5.5-0.5c-5.44,0.5-5.66,1.34-9.22,6.01
						c-2.6,3.42-4.14,5.18-5.4,10.55c-3.82,0.06-7.83,5.63-11.05,6.8c-2.08,0.76-4.3,0.54-6.37,1.78c-1.47,0.89-2.48,3.27-4.34,4.36
						c-3.05,1.79-9.67,2.79-12.96,3.67c-2.43,0.65-2.95,1.14-5.2,1.5c-1.51,0.25-4.2-0.77-5.98-0.54
						c-9.37,1.25-11.77,14.65-21.34,14.51c-7.09-0.1-21.75-10.08-27.48-2.06c-10.02-7.4-17.3,6.27-25.85,9.41
						c-2.4,0.88-5,1.52-7.69,1.94c-11.2-1.84-21.75-7.72-32.31-11.23c-3.78-1.26-9.57-3.36-15.89-5.33v136.86
						c36.69,10.69,78.5,11.3,115.78,12.99c35.6,1.61,70.63,6.87,106.33,6.76c4.57-0.01,9.08,0.22,13.57,0.57h134.88
						c90.59-4.83,181.03-16.07,271.55-19.58c39.26-1.52,84.03,3.9,122.85-5.27V408.41z"/>
					
						<radialGradient id="SVGID_19_" cx="409.0302" cy="403.852" r="96.7201" gradientTransform="matrix(1.7678 -0.4251 0.2338 0.9723 -637.1844 179.5819)" gradientUnits="userSpaceOnUse">
						<stop  offset="0" style="stop-color:#FFFFFF"/>
						<stop  offset="1" style="stop-color:#FFFFFF;stop-opacity:0"/>
					</radialGradient>
					<path class="st19" d="M351.3,357.25c12.49,51.94-53.94,112.45-148.37,135.16c-94.43,22.71-181.11-0.99-193.6-52.92
						c-12.49-51.94,53.94-112.45,148.37-135.16C252.14,281.62,338.81,305.32,351.3,357.25z"/>
					<linearGradient id="SVGID_20_" gradientUnits="userSpaceOnUse" x1="376.5903" y1="533.6112" x2="376.5903" y2="306.4871">
						<stop  offset="0" style="stop-color:#285491"/>
						<stop  offset="0.0664" style="stop-color:#27528C"/>
						<stop  offset="0.3696" style="stop-color:#234A78"/>
						<stop  offset="0.6787" style="stop-color:#21456D"/>
						<stop  offset="1" style="stop-color:#204369"/>
					</linearGradient>
					<path class="st20" d="M759.07,385.43c-1-0.32-1.98-0.79-2.96-1.57c-2.75-2.17-3.73-4.6-6.99-6.49c-5.73-3.31-11.1-8.2-16-12.53
						c-2.59-2.29-3.09-4.92-7.24-5.74c-5.75-1.13-3.94,2.52-8.38,3.44c-8.8-10.28-22.61-14.24-32.88-22.67
						c-1.5-1.23-2.36-1.97-3.62-3.85c-0.66-0.98-1.74-4.58-2.36-5.05c-2.73-2.09-6.4-1.78-9.65-4.46
						c-4.97-4.11-11.86-10.75-17.99-12.65c-7.37-2.29-8.82,3.15-14.47,4.27c-3.93,0.78-9.66-3.85-13.03-6.27
						c-5.1-3.67-8.34-5.44-15.51-5.38c-5.67,0.05-9.24,6.98-13.9,6.6c-0.93,2.09-4.72,5.48-6.46,7.05
						c-3.36,3.02-6.05,1.99-10.02,3.48c-2.79,1.04-5.83,5.08-8.45,6.54c-3.18,1.76-6.39,1.93-9.14,4.35
						c-0.71,0.62-3.34,3.37-3.89,3.65c-1.8,0.92-4.23-0.16-6.13,0.97c-4.19,2.49-2.22,7.71-4.12,11.27c-1.15,2.16-5.03,5.96-7,7.49
						c-1.47,1.14-3.25,0.85-4.37,1.7c-1.92,1.44-2.53,4.16-4.36,5.57c-1.29,0.99-2.87,0.49-4.15,1.48c-1.24,0.95-1.63,2.48-2.6,3.26
						c-2.09,1.68-4.32,3.06-6.51,4.6c-2.7,1.9-5.18,3.89-7.9,5.58c-4.94-0.43-9.87-1.12-14.98-2.4c-9.25-2.3-19.37-10.83-29.22-8.1
						c-1.48-10.04-19.68-4.21-18.22-16.46c-4.13,0.38-6.17,0.39-9.72-0.95c-3.27-1.24-3.78-4.91-8.07-2.37
						c1.75,12.32-13.27,4.27-18.12,3.37c-5.05-0.94-6.33-0.35-10.16-4.8c-2.42-2.81-3.86-6.1-6.67-8.58
						c-4.18,2.35-10.33,1.69-12.62-2.65c-7.41,0.57-7.19-3.5-12.73-5.97c-2.24-0.99-4.16,0.11-6.32-0.32
						c-1.11-0.22-4.19-2.03-5.5-2.5c-3.83-1.36-10.25-3.51-14.67-2.67c-5.65,1.08-6.16,4.44-11.85,2.67
						c-5.69-1.78-5.24-5.62-11.33-1.15c-3.81,2.79-5.81,4.97-9.52,7.11c-8.02,4.65-13.58,14.16-21.94,20.06
						c-2.91,2.05-7.55,6.79-11.5,7.85c-5.09,1.36-11.49-0.28-16.52-0.53c-7.12-0.35-9.8,0.51-15.34,3.86
						c-4.33,2.62-9.27,2.78-13.15,5.6c-2.52,1.84-3.18,6.11-6.19,7.25c-1.52,0.58-5.49-0.62-7.33-0.71
						c-4.31-0.21-12.08-0.29-15.85,1.43c-4.89,2.23-7.98,6.74-14.15,7.23c-4.53,0.36-9.17-4-12.67-6.53
						c-0.47-0.34-6.72-3.34-6.67-3.35c-3.82,0.36-3.47,3.93-5.85,5.21c-4.1,2.21-7.3-0.71-12.64,0.83c0.56-0.16-6.33,4.14-5.53,3.14
						c-2.05,2.58-0.89,2.95-1.34,5.51c-0.15,0.85,1.58,2.14,0.86,4.02c-0.63,1.64-2.34,1.06-2.84,1.84c-1.17,1.8-3.21,2.54-3.43,5.9
						c-3.57,0.12-2.97,2.69-5.06,4.1c-1.71,1.15-3.22,1.51-5.46,2.71c-4.56,2.42-5.29,4.33-9.39,7.98
						c-6.55,5.84-16.53,7.49-24.65,6.65c-9.97-1.03-22.14-1.11-32,0c-6.21,0.7-10.42,1.47-15.51,3.21
						c-2.98,1.02-8.89,4.74-11.8,4.81c-5.19,0.12-8.93-4.43-14.7-2.03c-3.82,1.59-5.85,6.5-9.95,8.05c-2.38,0.9-5.18,0.01-7.55,1.1
						c-1.53,0.7-3.1,3.1-4.65,4.03c-0.77,0.46-1.58,0.85-2.39,1.21v64.87h764.96V385.43z"/>
				</g>
				<g>
					
						<linearGradient id="SVGID_21_" gradientUnits="userSpaceOnUse" x1="291.201" y1="153.3553" x2="291.201" y2="46.479" gradientTransform="matrix(0.9955 -0.0953 0.0953 0.9955 -12.0956 58.7805)">
						<stop  offset="0.3548" style="stop-color:#F4F7EA;stop-opacity:0"/>
						<stop  offset="0.7263" style="stop-color:#F9FBF4;stop-opacity:0.5757"/>
						<stop  offset="1" style="stop-color:#FFFFFF"/>
					</linearGradient>
					<path class="st21" d="M465.25,146.07c-10.47-1.2-22.71-4.29-33.22-6.9c-37.44-9.33-67.63-27.34-101.96-42.52
						c-9.82-4.35-31.33-22.02-41.3-19.94c-10.75,2.24-12.54,11.11-25.91,9.87c-12.33-1.15-22.95-1.59-35.25,2.8
						c-13.43,4.79-23.29,13.01-36.71,18.52c-9.19,3.77-24.8,4.58-32.65,11.81c-5.69,5.24-4.61,13.77-9.76,18.98
						c-5.2,5.26-12.6,3.95-18.74,6.35c-7.14,2.79-9.63,6.78-18.06,6.11c-5.17-0.41-8.75-3.27-15.66-2.86
						c-14.9,0.87-22.81,11.85-37.62,12.27l463.67,1.13c-11.75-1.2-25.92-5.36-34.23-8.59C478.86,149.61,475.49,147.25,465.25,146.07
						z"/>
					
						<linearGradient id="SVGID_22_" gradientUnits="userSpaceOnUse" x1="468.6356" y1="245.3272" x2="468.6356" y2="168.3425" gradientTransform="matrix(0.9955 -0.0953 0.0953 0.9955 -12.0956 58.7805)">
						<stop  offset="0.3548" style="stop-color:#F4F7EA;stop-opacity:0"/>
						<stop  offset="0.7263" style="stop-color:#F9FBF4;stop-opacity:0.5757"/>
						<stop  offset="1" style="stop-color:#FFFFFF"/>
					</linearGradient>
					<path class="st22" d="M602.31,231.24c-7.54-0.87-16.36-3.09-23.93-4.97c-26.97-6.72-48.72-19.69-73.44-30.63
						c-7.08-3.13-22.57-15.86-29.75-14.36c-7.74,1.62-9.03,8.01-18.66,7.11c-8.88-0.83-16.53-1.14-25.39,2.02
						c-9.68,3.45-16.78,9.37-26.44,13.34c-6.62,2.72-17.86,3.3-23.52,8.51c-4.1,3.78-3.32,9.92-7.03,13.67
						c-3.75,3.79-9.08,2.85-13.5,4.58c-5.15,2.01-6.94,4.88-13.01,4.4c-3.73-0.3-6.3-2.35-11.28-2.06
						c-10.73,0.63-16.43,8.54-27.1,8.84l333.99,0.81c-8.46-0.87-18.67-3.86-24.66-6.19C612.11,233.79,609.69,232.1,602.31,231.24z"
						/>
					
						<linearGradient id="SVGID_23_" gradientUnits="userSpaceOnUse" x1="526.9678" y1="109.2034" x2="526.9678" y2="68.5821" gradientTransform="matrix(0.9955 -0.0953 0.0953 0.9955 -12.0956 58.7805)">
						<stop  offset="0.3548" style="stop-color:#F4F7EA;stop-opacity:0"/>
						<stop  offset="0.7263" style="stop-color:#F9FBF4;stop-opacity:0.5757"/>
						<stop  offset="1" style="stop-color:#FFFFFF"/>
					</linearGradient>
					<path class="st23" d="M588.6,102.97c-3.98-0.46-8.63-1.63-12.63-2.62c-14.23-3.55-25.71-10.39-38.75-16.16
						c-3.73-1.65-11.91-8.37-15.7-7.58c-4.08,0.85-4.77,4.22-9.85,3.75c-4.69-0.44-8.72-0.6-13.4,1.07
						c-5.11,1.82-8.85,4.94-13.95,7.04c-3.49,1.43-9.43,1.74-12.41,4.49c-2.16,1.99-1.75,5.23-3.71,7.21c-1.98,2-4.79,1.5-7.12,2.41
						c-2.71,1.06-3.66,2.58-6.87,2.32c-1.97-0.16-3.33-1.24-5.95-1.09c-5.66,0.33-8.67,4.51-14.3,4.66l176.23,0.43
						c-4.46-0.46-9.85-2.04-13.01-3.27C593.77,104.32,592.49,103.42,588.6,102.97z"/>
					
						<linearGradient id="SVGID_24_" gradientUnits="userSpaceOnUse" x1="32.6786" y1="67.9118" x2="32.6786" y2="27.2905" gradientTransform="matrix(0.9955 -0.0953 0.0953 0.9955 -12.0956 58.7805)">
						<stop  offset="0.3548" style="stop-color:#F4F7EA;stop-opacity:0"/>
						<stop  offset="0.7263" style="stop-color:#F9FBF4;stop-opacity:0.5757"/>
						<stop  offset="1" style="stop-color:#FFFFFF"/>
					</linearGradient>
					<path class="st24" d="M92.6,108.97c-3.98-0.46-8.63-1.63-12.63-2.62c-14.23-3.55-25.71-10.39-38.75-16.16
						c-3.73-1.65-11.91-8.37-15.7-7.58c-4.08,0.85-4.77,4.22-9.85,3.75c-4.69-0.44-8.72-0.6-13.4,1.07
						c-5.11,1.82-8.85,4.94-13.95,7.04c-3.49,1.43-9.43,1.74-12.41,4.49c-2.16,1.99-1.75,5.23-3.71,7.21c-1.98,2-4.79,1.5-7.12,2.41
						c-2.71,1.06-3.66,2.58-6.87,2.32c-1.97-0.16-3.33-1.24-5.95-1.09c-5.66,0.33-8.67,4.51-14.3,4.66l176.23,0.43
						c-4.46-0.46-9.85-2.04-13.01-3.27C97.77,110.32,96.49,109.42,92.6,108.97z"/>
					
						<linearGradient id="SVGID_25_" gradientUnits="userSpaceOnUse" x1="649.4492" y1="200.7704" x2="649.4492" y2="142.7559" gradientTransform="matrix(0.9955 -0.0953 0.0953 0.9955 -12.0956 58.7805)">
						<stop  offset="0.2204" style="stop-color:#F4F7EA;stop-opacity:0"/>
						<stop  offset="0.6693" style="stop-color:#F9FBF4;stop-opacity:0.5757"/>
						<stop  offset="1" style="stop-color:#FFFFFF"/>
					</linearGradient>
					<path class="st25" d="M747.38,176.33c-5.68-0.65-12.33-2.33-18.03-3.75c-20.32-5.07-36.71-14.84-55.34-23.08
						c-5.33-2.36-17.01-11.95-22.42-10.82c-5.83,1.22-6.81,6.03-14.06,5.36c-6.69-0.62-12.46-0.86-19.13,1.52
						c-7.29,2.6-12.64,7.06-19.93,10.05c-4.99,2.05-13.46,2.49-17.72,6.41c-3.09,2.85-2.5,7.47-5.3,10.3
						c-2.82,2.86-6.84,2.15-10.17,3.45c-3.88,1.52-5.23,3.68-9.81,3.32c-2.81-0.22-4.75-1.77-8.5-1.55
						c-8.09,0.47-12.38,6.43-20.42,6.66l251.69,0.61c-6.38-0.65-14.07-2.91-18.58-4.66C754.77,178.25,752.94,176.98,747.38,176.33z"
						/>
					
						<linearGradient id="SVGID_26_" gradientUnits="userSpaceOnUse" x1="45.4072" y1="183.1818" x2="45.4072" y2="125.1672" gradientTransform="matrix(0.9955 -0.0953 0.0953 0.9955 -12.0956 58.7805)">
						<stop  offset="0.2204" style="stop-color:#F4F7EA;stop-opacity:0"/>
						<stop  offset="0.6693" style="stop-color:#F9FBF4;stop-opacity:0.5757"/>
						<stop  offset="1" style="stop-color:#FFFFFF"/>
					</linearGradient>
					<path class="st26" d="M144.38,216.39c-5.68-0.65-12.33-2.33-18.03-3.75c-20.32-5.07-36.71-14.84-55.34-23.08
						c-5.33-2.36-17.01-11.95-22.42-10.82c-5.83,1.22-6.81,6.03-14.06,5.36c-6.69-0.62-12.46-0.86-19.13,1.52
						c-7.29,2.6-12.64,7.06-19.93,10.05c-4.99,2.05-13.46,2.49-17.72,6.41c-3.09,2.85-2.5,7.47-5.3,10.3
						c-2.82,2.86-6.84,2.15-10.17,3.45c-3.88,1.52-5.23,3.68-9.81,3.32c-2.81-0.22-4.75-1.77-8.5-1.55
						c-8.09,0.47-12.38,6.43-20.42,6.66l251.69,0.61c-6.38-0.65-14.07-2.91-18.58-4.67C151.77,218.31,149.94,217.03,144.38,216.39z"
						/>
				</g>
				<linearGradient id="SVGID_27_" gradientUnits="userSpaceOnUse" x1="747.022" y1="162.3095" x2="747.022" y2="161.707">
					<stop  offset="0" style="stop-color:#F4F7EA;stop-opacity:0"/>
					<stop  offset="0.4169" style="stop-color:#F4EAEA;stop-opacity:0.4169"/>
					<stop  offset="1" style="stop-color:#F4DBEA"/>
				</linearGradient>
				<path class="st27" d="M750,162.29l-5.96-0.59C746.23,162.14,748.28,162.38,750,162.29z"/>
			</g>
			<g class="st2">
				<g>
					<g>
						<path class="st28" d="M694.1,107.54c0,0,19.3-31.05,44.88-42.43c25.58-11.37,64.12-18.43,79.95-17.45
							c-4.2,1.05-7.86,1.58-11.75,3.21c14.64-1.1,24.44,5.96,24.44,5.96c-6.37-2.34-19.62-3.46-22.46-2.96
							c4.44,0.89,24.03,6.02,27.78,4.74c-2,1.71-11.42,1.59-14.85,0.51c9.64,5.51,11.58,8.83,12.91,12.87
							c-4.22-5-13.17-12.62-24.41-12.95c15.72,6.85,20.92,14.5,21.65,16.26c-3.92-3.91-21.17-13.52-30.54-12.2
							c13.82,4.36,20.82,11.6,20.82,11.6s-14.58-8.72-22.74-8.86c11.39,5.42,20.41,13.44,20.41,13.44s-21.27-12.99-30.97-13.48
							c8.8,4.94,15.31,12.88,15.31,12.88c-4.21-2.6-17.15-10.26-17.15-10.26s10.96,13.11,17.27,13.99c-4.12,0.93-15.25-6-18-8.64
							c3.64,6.46,5.57,12.7,5.22,13.7c-3.63-6.36-10.38-13.33-10.38-13.33s3.76,9.58,2.68,15.31c-1.89-5.41-5.14-14.46-6.08-14.4
							c2.2,8.38,2.01,17.4,2.01,17.4s-1.99-13.75-6.9-17.28c4.51,12.05,3.98,20.92,3.25,22.09c-0.04-4.38-6.55-18.9-6.55-18.9
							s-0.02,13.58,3.92,19.36c-1.53-0.35-8.63-12.9-9.1-19.18c-0.18,9.74,1.52,21.24,4.44,25.33c-2.65-1.42-8.69-13.2-8.06-20.93
							c-0.61,7.21,4.11,19.84,4.11,19.84s-9.41-9-8.96-20.15c-1.06,7.08,2.74,17.48,2.74,17.48s-5.4-6.36-5.81-15.27
							c-0.69,8.58,1.43,20.11,3.95,21.97c-3.5-2.73-7.19-13.67-7.6-16c-1.43,3.17,1.27,13.25,1.82,13.98
							c-2.11-0.78-5.96-13.15-5.96-13.15s-0.13,10.56,2.83,13.7c-1.73-0.94-5.66-7.25-6.74-12.18c-0.89,6.85,4.18,14.31,4.18,14.31
							s-7.77-5.64-8.22-14.75c-1.74,6.78,1.3,13.98,1.3,13.98s-4.66-5.76-4.3-12.61c-2.19,3.61-0.6,11.48,1.05,14.33
							c-1.89-0.61-5.85-9.53-5.49-13.45c-1.95,2.01-0.46,10.52-0.46,10.52s-3.25-6.63-2.51-9.58c-1.93,1.48,0.28,11.12,0.28,11.12
							s-3.7-8.02-3.04-10.85c-1.83,3.24-0.25,11.12,2.21,14.44c-2.13-0.25-6.88-6.8-8.04-18.74c-2.67,4.38-2.35,13.41-0.65,15.92
							c-2.23-0.23-5.2-11.77-4.31-15.68c-2.89,5.83-2.69,11.43-2.69,11.43l-0.77-10.67c0,0-3.47,0.77-5.21,5.14
							c-1.74,4.38-8.07,12.07-9.29,12.28C694.31,110.53,694.1,107.54,694.1,107.54z"/>
					</g>
					<g>
						<path class="st28" d="M690.4,109.21c0,0,3.58-36.39,21.49-57.91C729.79,29.8,761.24,6.42,775.87,0.3
							c-3.3,2.79-6.35,4.9-9.12,8.07c12.64-7.46,24.54-5.47,24.54-5.47c-6.73,0.72-19.12,5.57-21.44,7.27
							c4.37-1.17,24.21-5.23,27-8.03c-1.03,2.41-9.54,6.47-13.08,7.02c11.08,0.68,14.28,2.8,17.27,5.84
							c-5.99-2.62-17.39-5.49-27.61-0.82c17.13-0.8,25.17,3.76,26.6,5.01c-5.24-1.77-24.96-2.76-32.78,2.57
							c14.33-2.19,23.81,1.19,23.81,1.19s-16.94-1.37-24.32,2.12c12.61-0.18,24.26,3.02,24.26,3.02s-24.82-2.23-33.74,1.61
							c10.08,0.54,19.42,4.78,19.42,4.78c-4.93-0.47-19.91-1.62-19.91-1.62s15.63,6.91,21.68,4.91c-3.28,2.65-16.33,1.37-19.97,0.21
							c6.12,4.19,10.62,8.93,10.74,9.98c-6.06-4.1-15.2-7.36-15.2-7.36s7.61,6.92,9.18,12.54c-4.09-4.02-11-10.69-11.81-10.22
							c5.68,6.55,9.5,14.71,9.5,14.71S753,46.21,747.06,45.21c9.38,8.81,12.81,17,12.67,18.39c-1.96-3.92-14.22-14.07-14.22-14.07
							s5.98,12.19,12.07,15.64c-1.52,0.35-13.44-7.75-16.65-13.17c4.15,8.81,10.77,18.37,15.18,20.74
							c-3-0.09-13.63-7.99-16.48-15.21c2.63,6.73,12.46,15.99,12.46,15.99s-12.42-3.92-16.95-14.11c2.19,6.81,10.2,14.46,10.2,14.46
							s-7.65-3.31-11.96-11.13c3.17,8,10.18,17.41,13.26,17.96c-4.35-0.9-12.51-9.08-13.9-10.99c0.12,3.48,7,11.32,7.82,11.74
							c-2.24,0.24-11.17-9.17-11.17-9.17s4.56,9.54,8.59,11.05c-1.97-0.09-8.28-4-11.42-7.95c2.23,6.53,10.07,10.98,10.07,10.98
							s-9.46-1.62-13.89-9.58c1.44,6.85,7.34,11.96,7.34,11.96s-6.73-3.11-9.43-9.41c-0.36,4.21,4.54,10.56,7.27,12.39
							c-1.95,0.28-9.46-5.95-10.87-9.64c-0.86,2.66,4.24,9.64,4.24,9.64s-5.85-4.51-6.49-7.48c-1.07,2.18,5.17,9.85,5.17,9.85
							s-6.87-5.56-7.54-8.38c-0.21,3.72,4.7,10.08,8.38,11.96c-2.02,0.72-9.17-3.05-15.5-13.26c-0.47,5.12,3.82,13.07,6.46,14.58
							c-2.11,0.78-9.87-8.26-10.81-12.17c-0.02,6.51,2.64,11.45,2.64,11.45l-5.41-9.23c0,0-2.77,2.22-2.39,6.91
							c0.37,4.69-1.9,14.39-2.9,15.12C691.91,111.8,690.4,109.21,690.4,109.21z"/>
					</g>
					<g>
						<path class="st28" d="M694.88,116.93c0,0-18.34-31.64-16.37-59.56c1.98-27.92,13.85-65.26,22.16-78.78
							c-1.04,4.21-2.29,7.7-2.69,11.89c5.91-13.43,16.73-18.76,16.73-18.76c-5.05,4.51-12.26,15.69-13.15,18.42
							c2.87-3.49,16.6-18.38,17.23-22.29c0.57,2.57-3.97,10.83-6.53,13.35c9.4-5.91,13.24-6.07,17.44-5.35
							c-6.4,1.38-17.33,5.69-22.9,15.46c13.43-10.65,22.63-11.65,24.52-11.46c-5.3,1.63-21.88,12.33-25.11,21.22
							c10.35-10.14,20.02-12.93,20.02-12.93s-14.55,8.77-18.5,15.92c10.13-7.51,21.45-11.72,21.45-11.72s-21.45,12.69-26.44,21.01
							c8.48-5.45,18.55-7.46,18.55-7.46c-4.28,2.5-17.11,10.32-17.11,10.32s16.73-3.52,20.47-8.68
							c-1.11,4.08-12.46,10.65-16.09,11.84c7.41-0.17,13.82,1.06,14.54,1.83c-7.32,0.2-16.64,2.9-16.64,2.9s10.23,1.17,14.77,4.82
							c-5.67-0.87-15.17-2.25-15.56-1.4c8.44,2,16.31,6.4,16.31,6.4s-13.08-4.69-18.49-2.03c12.76,1.68,20.33,6.32,21.02,7.52
							c-3.88-2.03-19.75-3.1-19.75-3.1s11.97,6.4,18.93,5.64c-1.03,1.18-15.44,1.56-21.21-0.97c8.51,4.72,19.47,8.63,24.44,7.98
							c-2.5,1.66-15.73,1.46-22.26-2.73c6.07,3.93,19.45,5.7,19.45,5.7s-12.37,4.07-22-1.56c5.75,4.26,16.72,5.79,16.72,5.79
							s-8.15,1.77-16.21-2.05c7.25,4.64,18.43,8.18,21.25,6.83c-4.05,1.82-15.45-0.06-17.7-0.8c2.13,2.75,12.29,5.1,13.21,4.96
							c-1.68,1.5-14.42-0.92-14.42-0.92s9.27,5.08,13.42,3.95c-1.65,1.09-9.06,1.59-13.91,0.21c5.62,4,14.59,3.04,14.59,3.04
							s-8.62,4.22-16.88,0.33c5.17,4.72,12.94,5.42,12.94,5.42s-7.27,1.41-13.15-2.14c2.17,3.63,9.86,5.93,13.15,5.81
							c-1.42,1.37-11.15,0.68-14.45-1.47c0.86,2.66,9.07,5.35,9.07,5.35s-7.38-0.25-9.64-2.29c0.4,2.41,9.95,4.99,9.95,4.99
							s-8.82-0.5-11.01-2.41c2.01,3.14,9.7,5.44,13.79,4.83c-1.23,1.76-9.23,2.88-20.33-1.71c2.62,4.42,10.74,8.37,13.76,8.06
							c-1.26,1.86-12.84-0.95-15.88-3.56c3.79,5.29,8.83,7.75,8.83,7.75l-9.78-4.34c0,0-0.95,3.43,2.09,7.01
							c3.05,3.59,6.86,12.79,6.48,13.97C697.61,118.13,694.88,116.93,694.88,116.93z"/>
					</g>
					<g>
						<path class="st28" d="M695.46,109.15c0,0,32.65-16.46,60.4-12.86c27.76,3.6,64.35,17.63,77.35,26.71
							c-4.13-1.29-7.54-2.74-11.71-3.38c13.07,6.67,17.77,17.8,17.77,17.8c-4.23-5.31-14.95-13.16-17.63-14.21
							c3.33,3.07,17.38,17.65,21.25,18.5c-2.59,0.41-10.58-4.6-12.95-7.29c5.35,9.73,5.28,13.56,4.32,17.72
							c-1-6.47-4.68-17.64-14.1-23.76c9.85,14.03,10.31,23.27,10.02,25.14c-1.32-5.38-11.03-22.56-19.73-26.3
							c9.53,10.92,11.75,20.74,11.75,20.74s-7.91-15.03-14.82-19.4c6.91,10.56,10.44,22.11,10.44,22.11s-11.42-22.16-19.44-27.62
							c4.95,8.79,6.37,18.95,6.37,18.95c-2.25-4.41-9.3-17.68-9.3-17.68s2.53,16.91,7.47,20.94c-4-1.34-9.9-13.05-10.88-16.75
							c-0.26,7.41-1.86,13.74-2.68,14.41c0.22-7.32-1.92-16.77-1.92-16.77s-1.77,10.13-5.67,14.45c1.2-5.61,3.12-15.01,2.31-15.45
							c-2.49,8.3-7.35,15.9-7.35,15.9s5.46-12.78,3.11-18.34c-2.42,12.64-7.49,19.93-8.73,20.55c2.25-3.76,4.24-19.55,4.24-19.55
							s-7.08,11.59-6.73,18.58c-1.12-1.11-0.65-15.51,2.21-21.12c-5.22,8.23-9.75,18.93-9.39,23.93
							c-1.52-2.59-0.54-15.79,4.03-22.06c-4.28,5.83-6.83,19.09-6.83,19.09s-3.35-12.59,2.83-21.87
							c-4.58,5.49-6.75,16.35-6.75,16.35s-1.29-8.24,2.99-16.06c-5.05,6.96-9.24,17.92-8.06,20.81c-1.57-4.15,0.96-15.42,1.83-17.61
							c-2.87,1.97-5.8,11.97-5.72,12.89c-1.41-1.77,1.76-14.34,1.76-14.34s-5.62,8.96-4.72,13.18c-0.99-1.71-1.05-9.14,0.59-13.91
							c-4.32,5.38-3.87,14.39-3.87,14.39s-3.71-8.86,0.65-16.87c-5.01,4.88-6.16,12.61-6.16,12.61s-0.99-7.35,2.89-13.01
							c-3.76,1.95-6.49,9.5-6.56,12.78c-1.29-1.5-0.04-11.17,2.31-14.34c-2.71,0.7-5.87,8.75-5.87,8.75s0.68-7.36,2.85-9.5
							c-2.42,0.27-5.55,9.65-5.55,9.65s1.01-8.78,3.04-10.85c-3.25,1.82-6,9.36-5.62,13.49c-1.69-1.32-2.33-9.38,2.9-20.19
							c-4.57,2.35-8.99,10.23-8.86,13.27c-1.78-1.37,1.7-12.76,4.49-15.64c-5.51,3.47-8.25,8.36-8.25,8.36l4.89-9.51
							c0,0-3.36-1.15-7.12,1.68c-3.77,2.83-13.16,6.1-14.32,5.65C694.08,111.81,695.46,109.15,695.46,109.15z"/>
					</g>
					<g>
						<path class="st28" d="M694.52,107.96c0,0,36.33,4.13,57.56,22.36c21.24,18.23,44.15,50.02,50.04,64.76
							c-2.75-3.35-4.81-6.44-7.94-9.25c7.26,12.76,5.09,24.63,5.09,24.63c-0.62-6.75-5.28-19.2-6.95-21.55
							c1.09,4.39,4.85,24.29,7.62,27.12c-2.4-1.07-6.33-9.63-6.83-13.19c-0.86,11.08-3.02,14.24-6.1,17.18
							c2.71-5.95,5.75-17.31,1.24-27.6c0.54,17.14-4.14,25.12-5.41,26.52c1.85-5.22,3.15-24.92-2.07-32.81
							c1.97,14.35-1.55,23.78-1.55,23.78s1.63-16.9-1.75-24.34c-0.01,12.61-3.39,24.21-3.39,24.21s2.6-24.79-1.11-33.76
							c-0.68,10.07-5.08,19.35-5.08,19.35c0.54-4.92,1.92-19.89,1.92-19.89s-7.15,15.53-5.23,21.61
							c-2.61-3.32-1.12-16.35,0.08-19.98c-4.27,6.06-9.08,10.48-10.14,10.6c4.19-6,7.59-15.08,7.59-15.08s-7.04,7.51-12.67,8.98
							c4.08-4.02,10.85-10.84,10.39-11.65c-6.62,5.58-14.86,9.28-14.86,9.28s11.56-7.69,12.65-13.64
							c-8.96,9.25-17.19,12.56-18.57,12.41c3.94-1.91,14.27-14.02,14.27-14.02s-12.28,5.81-15.82,11.84
							c-0.33-1.54,7.95-13.32,13.43-16.45c-8.88,4.02-18.54,10.49-20.98,14.86c0.14-3,8.2-13.5,15.46-16.25
							c-6.77,2.53-16.17,12.22-16.17,12.22s4.1-12.36,14.36-16.73c-6.85,2.08-14.62,9.97-14.62,9.97s3.44-7.6,11.3-11.79
							c-8.04,3.05-17.55,9.92-18.14,12.99c0.96-4.34,9.26-12.37,11.2-13.73c-3.48,0.06-11.43,6.83-11.85,7.64
							c-0.21-2.25,9.33-11.03,9.33-11.03s-9.61,4.41-11.17,8.43c0.11-1.98,4.13-8.22,8.12-11.31c-6.56,2.13-11.13,9.9-11.13,9.9
							s1.76-9.43,9.8-13.74c-6.87,1.34-12.07,7.16-12.07,7.16s3.2-6.68,9.55-9.28c-4.2-0.43-10.64,4.38-12.5,7.09
							c-0.25-1.96,6.1-9.36,9.8-10.72c-2.65-0.9-9.7,4.09-9.7,4.09s4.61-5.77,7.58-6.38c-2.18-1.1-9.93,5.03-9.93,5.03
							s5.66-6.78,8.5-7.4c-3.72-0.27-10.15,4.54-12.1,8.19c-0.69-2.04,3.19-9.12,13.49-15.29c-5.11-0.55-13.12,3.63-14.67,6.23
							c-0.75-2.12,8.42-9.74,12.33-10.62c-6.51-0.11-11.49,2.46-11.49,2.46l9.31-5.27c0,0-2.18-2.81-6.88-2.5
							c-4.69,0.3-14.35-2.11-15.07-3.12C691.91,109.43,694.52,107.96,694.52,107.96z"/>
					</g>
					<g>
						<path class="st28" d="M693.03,114.43c0,0-28.71-22.64-56.63-24.65c-27.92-2-66.57,4.46-81.13,10.77
							c4.31-0.44,7.94-1.18,12.15-0.98c-14.14,3.93-20.95,13.9-20.95,13.9c5.19-4.35,17.26-9.91,20.1-10.41
							c-3.87,2.35-20.54,13.83-24.51,13.9c2.46,0.92,11.28-2.39,14.13-4.56c-7.18,8.47-7.88,12.25-7.75,16.5
							c2.26-6.14,8.1-16.35,18.54-20.48c-12.45,11.79-14.74,20.75-14.83,22.64c2.36-5,15.31-19.9,24.57-21.84
							c-11.5,8.81-15.64,17.99-15.64,17.99s10.75-13.16,18.38-16.06c-8.87,8.97-14.64,19.58-14.64,19.58s15.6-19.44,24.55-23.2
							c-6.6,7.63-10.02,17.32-10.02,17.32c3.08-3.88,12.64-15.47,12.64-15.47s-5.85,16.06-11.5,19.03
							c4.19-0.53,12.31-10.82,14-14.26c-1.22,7.32-0.91,13.85-0.24,14.67c1.24-7.21,5.22-16.06,5.22-16.06s-0.29,10.28,2.68,15.3
							c-0.07-5.73-0.08-15.33,0.81-15.59c0.79,8.63,4.03,17.05,4.03,17.05s-2.8-13.61,0.6-18.59c-0.15,12.88,3.38,21.02,4.46,21.88
							c-1.46-4.13-0.27-20-0.27-20s4.64,12.75,2.9,19.54c1.31-0.86,3.74-15.07,2.04-21.14c3.48,9.1,5.78,20.49,4.44,25.33
							c2.01-2.24,3.68-15.36,0.46-22.43c3.03,6.57,2.88,20.07,2.88,20.07s5.79-11.67,1.58-22c3.4,6.29,3.36,17.37,3.36,17.37
							s2.91-7.81,0.27-16.33c3.56,7.84,5.49,19.4,3.74,22c2.38-3.76,2.13-15.3,1.72-17.63c2.42,2.5,3.3,12.89,3.04,13.78
							c1.73-1.45,1.13-14.41,1.13-14.41s3.72,9.9,2.01,13.85c1.31-1.49,2.86-8.75,2.18-13.75c3.16,6.13,0.93,14.87,0.93,14.87
							s5.39-7.93,2.73-16.65c3.93,5.78,3.53,13.58,3.53,13.58s2.43-7-0.25-13.33c3.29,2.67,4.46,10.6,3.88,13.84
							c1.57-1.22,2.26-10.95,0.59-14.51c2.52,1.23,4.01,9.74,4.01,9.74s0.79-7.35-0.9-9.86c2.33,0.74,3.53,10.55,3.53,10.55
							s0.75-8.79-0.82-11.23c2.83,2.44,4,10.37,2.83,14.33c1.92-0.96,4.16-8.72,1.18-20.36c4.02,3.22,6.77,11.81,6.04,14.77
							c2.02-0.98,0.88-12.84-1.27-16.23c4.7,4.49,6.42,9.84,6.42,9.84l-2.9-10.29c0,0,3.52-0.46,6.65,3.05
							c3.12,3.53,11.68,8.61,12.9,8.39C693.85,117.31,693.03,114.43,693.03,114.43z"/>
					</g>
					<g>
						<path class="st28" d="M697.08,114.73c0,0-15.73-33-39.89-47.15c-24.15-14.14-61.68-25.44-77.52-26.23
							c4.06,1.51,7.65,2.45,11.33,4.5c-14.42-2.72-24.94,3.2-24.94,3.2c6.58-1.61,19.87-1.25,22.63-0.45
							c-4.51,0.4-24.55,3.33-28.13,1.63c1.8,1.92,11.17,2.84,14.7,2.16c-10.19,4.41-12.48,7.49-14.25,11.36
							c4.74-4.5,14.49-11.08,25.69-10.16c-16.38,5.07-22.4,12.09-23.31,13.75c4.33-3.44,22.53-11.09,31.7-8.72
							c-14.22,2.81-21.98,9.21-21.98,9.21s15.46-7.05,23.59-6.27c-11.92,4.12-21.78,11.09-21.78,11.09s22.58-10.53,32.27-9.95
							c-9.29,3.92-16.63,11.1-16.63,11.1c4.48-2.11,18.18-8.29,18.18-8.29s-12.36,11.82-18.73,11.98
							c3.99,1.39,15.83-4.26,18.87-6.59c-4.33,6.02-6.95,12.01-6.71,13.04c4.31-5.92,11.79-12.09,11.79-12.09s-4.81,9.1-4.36,14.9
							c2.48-5.16,6.71-13.79,7.64-13.63c-3.12,8.09-3.93,17.08-3.93,17.08s3.51-13.45,8.77-16.41c-5.82,11.48-6.27,20.35-5.68,21.59
							c0.53-4.35,8.61-18.06,8.61-18.06s-1.48,13.5-6.04,18.81c1.55-0.19,10.01-11.86,11.18-18.06c-0.91,9.7-3.88,20.95-7.22,24.68
							c2.79-1.12,10.09-12.16,10.33-19.91c-0.19,7.23-6.28,19.27-6.28,19.27s10.35-7.9,11.14-19.03c0.26,7.15-4.67,17.06-4.67,17.06
							s6.07-5.73,7.47-14.53c-0.27,8.59-3.66,19.82-6.37,21.39c3.79-2.33,8.67-12.79,9.34-15.06c1.07,3.32-2.74,13.02-3.36,13.7
							c2.19-0.54,7.38-12.41,7.38-12.41s-1.04,10.52-4.33,13.3c1.83-0.75,6.43-6.58,8.05-11.35c0.12,6.89-5.75,13.75-5.75,13.75
							s8.36-4.73,9.82-13.74c0.97,6.93-2.85,13.74-2.85,13.74s5.28-5.21,5.68-12.06c1.77,3.83-0.68,11.48-2.64,14.12
							c1.94-0.4,6.87-8.81,6.95-12.76c1.71,2.22-0.72,10.51-0.72,10.51s3.96-6.23,3.56-9.25c1.75,1.7-1.51,11.03-1.51,11.03
							s4.56-7.56,4.24-10.44c1.46,3.43-0.99,11.07-3.81,14.11c2.14-0.02,7.59-5.99,10.07-17.74c2.17,4.66,0.85,13.59-1.12,15.91
							c2.24,0.02,6.46-11.13,6.03-15.11c2.22,6.11,1.41,11.66,1.41,11.66l1.96-10.52c0,0,3.36,1.14,4.6,5.69
							c1.24,4.55,6.68,12.88,7.87,13.23C696.53,117.68,697.08,114.73,697.08,114.73z"/>
					</g>
					<g>
						<path class="st28" d="M695.49,123.51c0,0,6.5-35.98-4.85-61.57c-11.34-25.58-35.2-56.67-47.61-66.55
							c2.42,3.59,4.78,6.45,6.58,10.26C639.49-4.98,627.48-6.31,627.48-6.31c6.28,2.53,16.87,10.58,18.64,12.85
							c-3.89-2.31-21.86-11.65-23.78-15.1c0.34,2.6,7.41,8.84,10.66,10.34c-10.84-2.36-14.5-1.21-18.21,0.9
							c6.48-0.88,18.24-0.54,26.79,6.75c-16.26-5.44-25.24-3.27-26.96-2.45c5.53-0.27,24.77,4.16,30.82,11.43
							c-13.17-6.03-23.22-5.37-23.22-5.37s16.67,3.31,22.82,8.68C632.97,18.1,620.89,18,620.89,18s24.49,4.63,32,10.77
							c-9.83-2.24-19.99-0.71-19.99-0.71c4.88,0.89,19.6,3.89,19.6,3.89s-16.93,2.38-22.2-1.21c2.43,3.45,15.33,5.79,19.15,5.67
							c-7.03,2.36-12.65,5.68-13.06,6.67c6.94-2.29,16.62-2.93,16.62-2.93s-9.21,4.57-12.24,9.55c5.03-2.75,13.5-7.27,14.16-6.6
							c-7.27,4.75-13.16,11.57-13.16,11.57s10.7-8.87,16.7-8.2c-11.43,5.91-16.97,12.85-17.22,14.21
							c2.96-3.22,17.53-9.63,17.53-9.63s-9.09,10.09-15.88,11.74c1.37,0.76,15.05-3.79,19.62-8.13
							c-6.4,7.35-15.38,14.73-20.27,15.81c2.91,0.73,15.29-3.97,20.01-10.13c-4.38,5.76-16.35,11.97-16.35,11.97
							s13.02-0.37,20.16-8.94c-3.96,5.96-13.76,11.13-13.76,11.13s8.27-1.11,14.55-7.44c-5.24,6.83-14.55,13.96-17.66,13.65
							c4.43,0.32,14.5-5.32,16.37-6.77c-1.07,3.31-9.82,8.96-10.73,9.15c2.09,0.84,13.24-5.76,13.24-5.76s-6.99,7.93-11.28,8.27
							c1.91,0.46,9.06-1.59,13.16-4.52c-3.92,5.66-12.69,7.8-12.69,7.8s9.54,1.03,15.98-5.42c-3.26,6.2-10.33,9.5-10.33,9.5
							s7.33-1.15,11.65-6.47c-0.81,4.15-7.26,8.92-10.39,9.92c1.8,0.81,10.72-3.15,13.09-6.3c0.1,2.8-6.72,8.11-6.72,8.11
							s6.87-2.74,8.3-5.42c0.44,2.4-7.67,8.06-7.67,8.06s8.13-3.47,9.54-6c-0.82,3.64-7.27,8.41-11.33,9.23
							c1.75,1.24,9.66-0.43,18.53-8.52c-0.95,5.05-7.25,11.52-10.19,12.26c1.82,1.33,11.74-5.25,13.72-8.75
							c-1.76,6.27-5.67,10.3-5.67,10.3l7.73-7.4c0,0,2.06,2.89,0.42,7.3c-1.65,4.41-2.1,14.36-1.34,15.34
							C693.33,125.59,695.49,123.51,695.49,123.51z"/>
					</g>
					<g>
						<path class="st28" d="M692.3,116.4c0,0-36.3-4.39-61.18,8.43c-24.88,12.81-54.52,38.45-63.67,51.41
							c3.45-2.62,6.16-5.14,9.87-7.16c-10.02,10.73-10.65,22.78-10.65,22.78c2.16-6.41,9.58-17.45,11.75-19.35
							c-2.08,4.02-10.35,22.5-13.7,24.62c2.58-0.49,8.38-7.91,9.7-11.25c-1.73,10.96-0.36,14.56,1.96,18.13
							c-1.26-6.42-1.59-18.18,5.18-27.15c-4.5,16.55-1.79,25.39-0.88,27.06c-0.59-5.5,2.71-24.97,9.61-31.44
							c-5.25,13.51-4,23.51-4,23.51s2.33-16.84,7.33-23.29c-2.9,12.28-2.3,24.33-2.3,24.33s3.2-24.71,8.88-32.58
							c-1.66,9.95,0.46,20.01,0.46,20.01c0.6-4.92,2.74-19.79,2.74-19.79s3.36,16.75,0.09,22.23c3.3-2.62,4.87-15.64,4.53-19.46
							c2.77,6.89,6.42,12.3,7.42,12.65c-2.7-6.8-3.9-16.43-3.9-16.43s5.11,8.93,10.25,11.67c-3.03-4.86-8.05-13.05-7.42-13.74
							c5.17,6.97,12.32,12.46,12.32,12.46s-9.48-10.16-9.16-16.19c6.57,11.06,13.82,16.2,15.2,16.36
							c-3.39-2.77-10.64-16.94-10.64-16.94s10.6,8.48,12.64,15.17c0.67-1.41-4.65-14.8-9.26-19.11c7.71,5.97,15.61,14.5,16.97,19.32
							c0.56-2.95-4.85-15.04-11.28-19.39c6.01,4.04,12.91,15.64,12.91,15.64s-1.12-12.98-10.1-19.6c6.18,3.61,11.9,13.08,11.9,13.08
							s-1.58-8.19-8.27-14.09c7.13,4.84,14.78,13.71,14.66,16.84c0.07-4.44-6.16-14.18-7.72-15.95c3.37,0.87,9.53,9.28,9.77,10.17
							c0.72-2.14-6.52-12.88-6.52-12.88s8.32,6.51,8.92,10.78c0.35-1.94-2.12-8.96-5.29-12.88c5.9,3.59,8.54,12.22,8.54,12.22
							s0.48-9.59-6.35-15.64c6.37,2.89,10.08,9.76,10.08,9.76s-1.57-7.24-7.14-11.24c4.19,0.56,9.33,6.73,10.52,9.79
							c0.7-1.85-3.77-10.52-7.05-12.7c2.78-0.26,8.49,6.23,8.49,6.23s-3.14-6.69-5.9-7.96c2.37-0.58,8.5,7.18,8.5,7.18
							s-3.93-7.9-6.55-9.17c3.68,0.6,8.81,6.77,9.87,10.76c1.14-1.82-0.99-9.61-9.59-18c5.09,0.66,11.93,6.57,12.83,9.47
							c1.22-1.89-5.93-11.43-9.53-13.19c6.35,1.4,10.6,5.06,10.6,5.06l-7.83-7.29c0,0,2.76-2.22,7.27-0.84
							c4.5,1.39,14.45,1.26,15.38,0.45C694.5,118.44,692.3,116.4,692.3,116.4z"/>
					</g>
					<g>
						<path class="st28" d="M692.78,114.97c0,0-32.76,16.24-46.54,40.6c-13.78,24.37-24.52,62.05-25.05,77.9
							c1.45-4.07,2.34-7.67,4.32-11.39c-2.5,14.46,3.58,24.89,3.58,24.89c-1.71-6.55-1.56-19.85-0.79-22.62
							c0.46,4.5,3.69,24.5,2.05,28.1c1.9-1.82,2.67-11.21,1.94-14.72c4.57,10.12,7.68,12.37,11.58,14.09
							c-4.58-4.68-11.3-14.33-10.55-25.53c5.32,16.29,12.43,22.21,14.1,23.1c-3.51-4.28-11.43-22.36-9.2-31.56
							c3.02,14.18,9.55,21.85,9.55,21.85s-7.28-15.35-6.63-23.49c4.29,11.85,11.41,21.62,11.41,21.62s-10.87-22.43-10.43-32.12
							c4.06,9.23,11.34,16.47,11.34,16.47c-2.18-4.44-8.56-18.05-8.56-18.05s12,12.18,12.26,18.54c1.33-4.01-4.5-15.75-6.87-18.76
							c6.09,4.23,12.11,6.76,13.14,6.51c-5.98-4.22-12.26-11.61-12.26-11.61s9.16,4.67,14.97,4.14c-5.21-2.4-13.89-6.51-13.74-7.43
							c8.13,3,17.13,3.67,17.13,3.67s-13.5-3.3-16.53-8.52c11.56,5.65,20.43,5.97,21.67,5.36c-4.36-0.46-18.18-8.34-18.18-8.34
							s13.52,1.28,18.9,5.76c-0.21-1.55-12.01-9.83-18.22-10.9c9.71,0.76,20.99,3.56,24.78,6.85c-1.15-2.77-12.3-9.91-20.06-10.03
							c7.23,0.08,19.36,5.99,19.36,5.99s-8.06-10.23-19.19-10.85c7.15-0.37,17.13,4.42,17.13,4.42s-5.81-5.98-14.64-7.25
							c8.6,0.13,19.88,3.36,21.49,6.05c-2.38-3.75-12.92-8.48-15.2-9.12c3.3-1.11,13.06,2.55,13.75,3.16
							c-0.57-2.18-12.53-7.2-12.53-7.2s10.54,0.88,13.38,4.12c-0.78-1.81-6.68-6.32-11.49-7.87c6.9-0.23,13.84,5.54,13.84,5.54
							s-4.86-8.28-13.88-9.6c6.91-1.08,13.78,2.63,13.78,2.63s-5.29-5.19-12.14-5.48c3.81-1.83,11.49,0.51,14.16,2.42
							c-0.42-1.94-8.91-6.74-12.85-6.76c2.18-1.75,10.51,0.56,10.51,0.56s-6.3-3.87-9.3-3.42c1.66-1.78,11.05,1.34,11.05,1.34
							s-7.62-4.45-10.51-4.07c3.41-1.51,11.09,0.83,14.16,3.6c-0.05-2.15-6.1-7.5-17.89-9.79c4.63-2.24,13.57-1.06,15.92,0.88
							c-0.02-2.25-11.22-6.3-15.2-5.8c6.09-2.32,11.64-1.59,11.64-1.59l-10.54-1.79c0,0,1.09-3.38,5.61-4.69
							c4.53-1.31,12.78-6.87,13.12-8.07C695.74,115.46,692.78,114.97,692.78,114.97z"/>
					</g>
					<path class="st28" d="M708.65,115.45c0.95,5.4-3.03,10.6-8.87,11.63c-5.85,1.02-11.35-2.52-12.3-7.92
						c-0.95-5.41,3.03-10.61,8.87-11.64C702.19,106.5,707.71,110.04,708.65,115.45z"/>
					<path class="st28" d="M695.81,129.02c1.06,6.05-1.66,11.58-6.08,12.36c-4.42,0.77-8.86-3.5-9.92-9.55
						c-1.06-6.05,1.66-11.58,6.09-12.36C690.31,118.69,694.75,122.97,695.81,129.02z"/>
					<path class="st28" d="M711.56,129.97c0.92,5.23-1.28,10-4.92,10.64c-3.64,0.64-7.33-3.1-8.24-8.33
						c-0.92-5.24,1.28-10,4.92-10.64C706.96,121.01,710.65,124.73,711.56,129.97z"/>
					<path class="st28" d="M694.21,131.58c0,0,55.11,262.26,7.71,394.6c12.45,3.46,15.16-2.65,15.16-2.65s40.44-136.76-18.91-404.51
						C683.08,101.33,694.21,131.58,694.21,131.58z"/>
				</g>
			</g>
			<g class="st2">
				<g>
					<g>
						<path class="st28" d="M40.23,341.85c0,0-12.86-14.84-27.38-18.71c-14.52-3.87-35.56-4.36-43.87-2.5
							c2.31,0.2,4.3,0.17,6.5,0.71c-7.85,0.65-12.46,5.22-12.46,5.22c3.18-1.78,10.11-3.49,11.66-3.47
							c-2.28,0.85-12.24,5.22-14.33,4.86c1.21,0.74,6.19-0.12,7.92-0.98c-4.65,3.74-5.39,5.66-5.76,7.92
							c1.81-3,5.92-7.81,11.85-8.93c-7.76,4.96-9.87,9.46-10.11,10.45c1.75-2.41,10.09-8.96,15.17-9.05
							c-6.96,3.48-10.06,7.91-10.06,7.91s6.99-5.86,11.31-6.62c-5.58,3.83-9.69,8.85-9.69,8.85s10.18-8.68,15.29-9.76
							c-4.25,3.36-7.03,8.12-7.03,8.12c2.02-1.74,8.23-6.89,8.23-6.89s-4.71,7.88-7.98,8.88c2.26,0.15,7.58-4.47,8.82-6.1
							c-1.38,3.74-1.88,7.21-1.61,7.71c1.39-3.68,4.38-7.94,4.38-7.94s-1.19,5.4-0.13,8.34c0.54-3.03,1.51-8.1,2.01-8.15
							c-0.46,4.63,0.4,9.4,0.4,9.4s-0.1-7.46,2.2-9.75c-1.38,6.77-0.34,11.43,0.14,11.99c-0.35-2.33,1.88-10.57,1.88-10.57
							s1.15,7.2-0.45,10.6c0.78-0.32,3.49-7.57,3.21-10.94c0.92,5.15,0.99,11.39-0.21,13.8c1.29-0.98,3.49-7.74,2.51-11.78
							c0.93,3.77-0.5,10.87-0.5,10.87s4.23-5.56,3.05-11.44c1.16,3.67,0.02,9.5,0.02,9.5s2.33-3.83,1.79-8.59
							c1.09,4.49,0.94,10.78-0.24,11.98c1.63-1.74,2.66-7.86,2.68-9.13c1.03,1.56,0.44,7.13,0.22,7.57
							c1.06-0.59,2.05-7.48,2.05-7.48s0.96,5.59-0.34,7.5c0.84-0.64,2.39-4.32,2.54-7.03c1.05,3.56-1.01,7.94-1.01,7.94
							s3.65-3.65,3.11-8.52c1.49,3.45,0.49,7.52,0.49,7.52s1.99-3.45,1.21-7.05c1.47,1.73,1.29,6.04,0.65,7.69
							c0.95-0.48,2.3-5.54,1.78-7.6c1.2,0.9,1.13,5.54,1.13,5.54s1.16-3.79,0.53-5.29c1.15,0.62,0.79,5.92,0.79,5.92
							s1.28-4.57,0.7-6.01c1.25,1.57,1.07,5.87,0.04,7.85c1.11-0.31,3.08-4.19,2.68-10.62c1.79,2.1,2.38,6.91,1.69,8.39
							c1.16-0.31,1.76-6.68,0.96-8.68c2.02,2.85,2.39,5.83,2.39,5.83l-0.49-5.72c0,0,1.91,0.11,3.2,2.29
							c1.29,2.18,5.3,5.72,5.96,5.73C40.37,343.45,40.23,341.85,40.23,341.85z"/>
					</g>
					<g>
						<path class="st28" d="M42.33,342.42c0,0-4.97-19-16.29-28.9c-11.31-9.9-29.96-19.64-38.24-21.65c1.99,1.2,3.78,2.06,5.52,3.51
							c-7.33-2.89-13.48-0.83-13.48-0.83c3.63-0.19,10.61,1.34,11.98,2.05c-2.42-0.25-13.28-0.73-15-1.98
							c0.75,1.19,5.6,2.63,7.53,2.62c-5.82,1.3-7.34,2.69-8.66,4.55c2.96-1.9,8.76-4.38,14.57-2.77c-9.15,1.02-13.03,4.12-13.68,4.9
							c2.63-1.38,13-3.57,17.6-1.4c-7.78,0.05-12.53,2.64-12.53,2.64s8.87-2.16,13.08-0.93c-6.7,0.97-12.61,3.65-12.61,3.65
							s12.98-3.28,18.03-1.99c-5.3,1.13-9.9,4.17-9.9,4.17c2.58-0.66,10.42-2.54,10.42-2.54s-7.7,4.98-11.08,4.44
							c1.96,1.13,8.77-0.65,10.61-1.58c-2.89,2.74-4.88,5.63-4.85,6.2c2.87-2.69,7.44-5.19,7.44-5.19s-3.45,4.31-3.81,7.42
							c1.83-2.48,4.93-6.6,5.4-6.42c-2.46,3.95-3.8,8.6-3.8,8.6s3.21-6.73,6.28-7.77c-4.23,5.47-5.36,10.1-5.17,10.82
							c0.71-2.24,6.36-8.66,6.36-8.66s-2.14,6.97-5.08,9.31c0.84,0.06,6.48-5.25,7.72-8.39c-1.46,5.02-4.16,10.65-6.3,12.28
							c1.58-0.3,6.55-5.39,7.46-9.45c-0.83,3.79-5.26,9.53-5.26,9.53s6.26-3.13,7.8-8.91c-0.59,3.79-4.19,8.53-4.19,8.53
							s3.78-2.4,5.41-6.91c-1.01,4.51-3.93,10.09-5.52,10.64c2.23-0.84,5.87-5.87,6.44-7c0.23,1.86-2.76,6.59-3.16,6.88
							c1.21-0.06,5.15-5.8,5.15-5.8s-1.61,5.44-3.62,6.58c1.04-0.21,4.05-2.82,5.39-5.18c-0.63,3.65-4.41,6.67-4.41,6.67
							s4.88-1.66,6.56-6.25c-0.19,3.75-2.89,6.96-2.89,6.96s3.31-2.22,4.21-5.79c0.55,2.2-1.52,5.99-2.81,7.18
							c1.06-0.01,4.51-3.96,4.95-6.03c0.68,1.34-1.44,5.47-1.44,5.47s2.72-2.88,2.81-4.51c0.75,1.07-1.91,5.66-1.91,5.66
							s3.17-3.53,3.29-5.08c0.42,1.95-1.64,5.74-3.43,7.05c1.13,0.21,4.61-2.39,7.1-8.34c0.68,2.67-0.92,7.25-2.19,8.28
							c1.18,0.23,4.54-5.21,4.7-7.37c0.56,3.45-0.43,6.3-0.43,6.3l2.09-5.35c0,0,1.66,0.94,1.85,3.46c0.2,2.52,2.22,7.47,2.81,7.77
							C41.75,343.92,42.33,342.42,42.33,342.42z"/>
					</g>
					<g>
						<path class="st28" d="M40.61,346.89c0,0,7.06-18.33,3.65-32.97c-3.41-14.64-12.85-33.44-18.4-39.91
							c0.91,2.15,1.87,3.89,2.43,6.08c-4.27-6.63-10.46-8.54-10.46-8.54c3.06,1.97,7.83,7.29,8.53,8.66
							c-1.82-1.61-10.36-8.34-11.02-10.37c-0.09,1.41,3.02,5.41,4.59,6.53c-5.48-2.34-7.53-2.1-9.7-1.36
							c3.51,0.19,9.67,1.56,13.45,6.26c-8.02-4.52-12.98-4.27-13.97-4.01c2.95,0.42,12.65,4.69,15.11,9.13
							c-6.34-4.5-11.71-5.17-11.71-5.17s8.45,3.42,11.16,6.88c-6.01-3.13-12.37-4.4-12.37-4.4s12.45,4.92,15.79,8.91
							c-4.96-2.17-10.47-2.39-10.47-2.39c2.48,0.96,9.95,4.03,9.95,4.03s-9.17-0.45-11.59-2.88c0.93,2.07,7.51,4.6,9.53,4.92
							c-3.94,0.53-7.24,1.73-7.56,2.2c3.9-0.51,9.07,0.13,9.07,0.13s-5.33,1.49-7.43,3.8c2.93-0.94,7.86-2.47,8.13-2.06
							c-4.31,1.77-8.11,4.77-8.11,4.77s6.54-3.59,9.63-2.64c-6.63,1.97-10.25,5.07-10.51,5.76c1.89-1.4,10.21-3.31,10.21-3.31
							s-5.81,4.4-9.56,4.59c0.65,0.54,8.32-0.47,11.17-2.31c-4.12,3.22-9.6,6.22-12.29,6.3c1.46,0.67,8.47-0.55,11.57-3.33
							c-2.88,2.6-9.83,4.67-9.83,4.67s6.9,1.12,11.53-2.68c-2.69,2.75-8.38,4.48-8.38,4.48s4.47,0.25,8.42-2.46
							c-3.45,3.07-9.08,5.9-10.69,5.42c2.3,0.62,8.19-1.34,9.32-1.92c-0.9,1.64-6.09,3.74-6.59,3.75c1.02,0.66,7.57-1.7,7.57-1.7
							s-4.49,3.48-6.79,3.23c0.97,0.44,4.94,0.08,7.4-1.06c-2.64,2.6-7.48,2.84-7.48,2.84s4.93,1.51,8.98-1.25
							c-2.34,2.94-6.41,3.97-6.41,3.97s3.98,0.13,6.79-2.24c-0.84,2.11-4.73,3.97-6.48,4.19c0.87,0.61,5.97-0.58,7.54-2
							c-0.23,1.48-4.36,3.6-4.36,3.6s3.89-0.75,4.92-2.03c-0.01,1.31-4.86,3.49-4.86,3.49s4.63-1.01,5.63-2.21
							c-0.8,1.84-4.68,3.71-6.91,3.72c0.8,0.83,5.14,0.75,10.64-2.63c-1.01,2.57-4.99,5.35-6.62,5.44c0.83,0.88,6.73-1.59,8.12-3.23
							c-1.56,3.13-4.03,4.86-4.03,4.86l4.82-3.13c0,0,0.79,1.74-0.52,3.9c-1.31,2.16-2.56,7.36-2.26,7.95
							C39.26,347.76,40.61,346.89,40.61,346.89z"/>
					</g>
					<g>
						<path class="st28" d="M39.64,342.82c0,0-18.7-5.98-33.12-1.72c-14.42,4.25-32.64,14.78-38.77,20.69
							c2.08-1.03,3.77-2.09,5.92-2.78c-6.37,4.64-7.92,10.94-7.92,10.94c1.79-3.17,6.82-8.24,8.15-9.03
							c-1.5,1.91-7.73,10.83-9.71,11.61c1.41,0,5.22-3.33,6.25-4.96c-2.02,5.61-1.66,7.64-0.8,9.76c-0.02-3.52,0.99-9.75,5.47-13.79
							c-4.04,8.27-3.51,13.21-3.19,14.18c0.24-2.96,3.95-12.9,8.25-15.62c-4.13,6.59-4.48,11.99-4.48,11.99s2.92-8.64,6.22-11.54
							c-2.77,6.18-3.67,12.61-3.67,12.61s4.18-12.72,7.98-16.29c-1.88,5.08-1.78,10.59-1.78,10.59c0.82-2.53,3.44-10.16,3.44-10.16
							s0.08,9.18-2.19,11.74c2.01-1.05,4.15-7.76,4.36-9.8c0.76,3.91,2.15,7.13,2.64,7.42c-0.73-3.86-0.4-9.05-0.4-9.05
							s1.79,5.22,4.23,7.18c-1.11-2.87-2.92-7.7-2.53-8c2.02,4.19,5.24,7.81,5.24,7.81s-3.97-6.32-3.2-9.46
							c2.35,6.5,5.66,9.94,6.37,10.16c-1.51-1.8-3.9-10.01-3.9-10.01s4.73,5.55,5.14,9.29c0.5-0.68-0.96-8.28-2.95-11.02
							c3.46,3.92,6.77,9.22,7,11.9c0.59-1.5-1.05-8.42-4-11.36c2.76,2.73,5.23,9.54,5.23,9.54s0.71-6.96-3.35-11.36
							c2.89,2.52,4.96,8.1,4.96,8.1s-0.01-4.48-2.94-8.26c3.27,3.26,6.41,8.72,6.03,10.35c0.48-2.33-1.81-8.09-2.46-9.19
							c1.69,0.8,4.09,5.86,4.12,6.35c0.6-1.06-2.14-7.46-2.14-7.46s3.73,4.28,3.62,6.59c0.38-0.99-0.21-4.94-1.49-7.33
							c2.74,2.49,3.27,7.3,3.27,7.3s1.22-5.01-1.77-8.89c3.07,2.17,4.33,6.17,4.33,6.17s-0.1-3.98-2.63-6.66
							c2.16,0.72,4.25,4.49,4.56,6.22c0.56-0.91-0.92-5.93-2.44-7.41c1.5,0.14,3.85,4.14,3.85,4.14s-0.98-3.85-2.31-4.8
							c1.31-0.06,3.76,4.65,3.76,4.65s-1.28-4.57-2.53-5.5c1.88,0.69,3.97,4.46,4.12,6.68c0.78-0.84,0.45-5.17-3.24-10.46
							c2.62,0.86,5.63,4.67,5.82,6.29c0.83-0.88-1.98-6.62-3.7-7.92c3.21,1.38,5.08,3.74,5.08,3.74l-3.39-4.63
							c0,0,1.68-0.89,3.92,0.29c2.24,1.18,7.5,2.12,8.07,1.79C40.6,344.12,39.64,342.82,39.64,342.82z"/>
					</g>
					<g>
						<path class="st28" d="M40.04,342.11c0,0-18.92,5.26-28.64,16.72c-9.72,11.46-19.19,30.25-21.08,38.57
							c1.18-2.01,2.01-3.82,3.43-5.58c-2.78,7.38-0.62,13.49-0.62,13.49c-0.24-3.63,1.18-10.63,1.86-12.02
							c-0.21,2.42-0.52,13.29-1.75,15.02c1.18-0.77,2.54-5.64,2.51-7.57c1.39,5.8,2.8,7.3,4.69,8.6c-1.94-2.93-4.51-8.7-2.99-14.53
							c1.16,9.13,4.32,12.97,5.11,13.61c-1.42-2.61-3.77-12.95-1.67-17.58c0.16,7.77,2.83,12.48,2.83,12.48s-2.29-8.83-1.13-13.06
							c1.07,6.69,3.84,12.55,3.84,12.55s-3.47-12.93-2.26-18c1.21,5.28,4.32,9.83,4.32,9.83c-0.7-2.56-2.7-10.38-2.7-10.38
							s5.1,7.63,4.6,11.02c1.1-1.98-0.78-8.76-1.73-10.59c2.78,2.85,5.7,4.79,6.27,4.76c-2.73-2.83-5.3-7.36-5.3-7.36
							s4.36,3.39,7.48,3.69c-2.5-1.79-6.67-4.83-6.5-5.3c3.98,2.4,8.66,3.67,8.66,3.67s-6.78-3.1-7.86-6.16
							c5.53,4.15,10.18,5.21,10.9,5.01c-2.25-0.68-8.75-6.23-8.75-6.23s7,2.04,9.39,4.94c0.04-0.84-5.34-6.4-8.51-7.59
							c5.05,1.38,10.72,4,12.38,6.11c-0.33-1.58-5.49-6.47-9.57-7.31c3.81,0.77,9.61,5.11,9.61,5.11s-3.22-6.21-9.03-7.66
							c3.81,0.52,8.59,4.06,8.59,4.06s-2.47-3.74-6.99-5.3c4.52,0.94,10.14,3.78,10.72,5.36c-0.88-2.22-5.96-5.78-7.1-6.34
							c1.85-0.26,6.63,2.66,6.93,3.05c-0.08-1.21-5.88-5.06-5.88-5.06s5.47,1.53,6.64,3.53c-0.23-1.04-2.89-4.01-5.26-5.31
							c3.66,0.57,6.74,4.31,6.74,4.31s-1.73-4.85-6.36-6.46c3.76,0.13,7,2.78,7,2.78s-2.26-3.27-5.85-4.12
							c2.19-0.58,6.01,1.42,7.23,2.7c-0.03-1.06-4.02-4.45-6.1-4.86c1.33-0.7,5.49,1.35,5.49,1.35s-2.93-2.67-4.56-2.74
							c1.06-0.77,5.69,1.83,5.69,1.83s-3.57-3.12-5.13-3.21c1.95-0.46,5.76,1.55,7.11,3.32c0.19-1.14-2.46-4.57-8.44-6.97
							c2.66-0.72,7.26,0.82,8.31,2.07c0.22-1.19-5.29-4.46-7.44-4.59c3.45-0.61,6.3,0.34,6.3,0.34l-5.38-2.01
							c0,0,0.92-1.67,3.44-1.91c2.51-0.24,7.43-2.33,7.73-2.93C41.55,342.67,40.04,342.11,40.04,342.11z"/>
					</g>
					<g>
						<path class="st28" d="M41.38,345.41c0,0,13.32-14.43,27.95-17.85c14.64-3.42,35.68-3.25,43.93-1.14
							c-2.33,0.13-4.31,0.04-6.53,0.51c7.83,0.89,12.28,5.6,12.28,5.6c-3.12-1.87-9.99-3.8-11.54-3.82
							c2.25,0.92,12.06,5.6,14.17,5.3c-1.23,0.7-6.19-0.32-7.88-1.23c4.52,3.88,5.21,5.83,5.5,8.1c-1.72-3.07-5.67-7.99-11.56-9.3
							c7.6,5.2,9.57,9.76,9.77,10.76c-1.68-2.45-9.8-9.26-14.87-9.51c6.85,3.7,9.81,8.22,9.81,8.22s-6.81-6.07-11.11-6.97
							c5.46,4.01,9.42,9.15,9.42,9.15s-9.91-8.99-14.98-10.23c4.14,3.49,6.78,8.34,6.78,8.34c-1.96-1.8-8.01-7.14-8.01-7.14
							s4.46,8.02,7.7,9.12c-2.27,0.07-7.44-4.7-8.63-6.38c1.27,3.78,1.65,7.27,1.37,7.76c-1.27-3.72-4.13-8.08-4.13-8.08
							s1.02,5.43-0.13,8.34c-0.45-3.05-1.25-8.14-1.75-8.2c0.31,4.64-0.7,9.38-0.7,9.38s0.34-7.45-1.89-9.81
							c1.17,6.82-0.02,11.43-0.52,11.98c0.42-2.31-1.54-10.63-1.54-10.63s-1.38,7.16,0.11,10.61c-0.77-0.35-3.25-7.67-2.87-11.04
							c-1.08,5.12-1.34,11.35-0.21,13.8c-1.26-1.02-3.25-7.84-2.14-11.85c-1.05,3.74,0.16,10.89,0.16,10.89s-4.06-5.7-2.69-11.53
							c-1.27,3.62-0.31,9.49-0.31,9.49s-2.2-3.9-1.52-8.64c-1.23,4.46-1.27,10.75-0.13,11.99c-1.58-1.79-2.42-7.94-2.4-9.21
							c-1.07,1.53-0.66,7.11-0.45,7.56c-1.04-0.62-1.82-7.54-1.82-7.54s-1.14,5.56,0.1,7.52c-0.82-0.68-2.25-4.4-2.32-7.11
							c-1.16,3.52,0.76,7.96,0.76,7.96s-3.53-3.75-2.85-8.6c-1.6,3.4-0.73,7.5-0.73,7.5s-1.88-3.51-0.99-7.09
							c-1.52,1.69-1.47,6-0.89,7.67c-0.93-0.51-2.12-5.61-1.54-7.65c-1.23,0.86-1.3,5.5-1.3,5.5s-1.04-3.83-0.35-5.31
							c-1.17,0.59-0.98,5.89-0.98,5.89s-1.14-4.6-0.51-6.03c-1.3,1.53-1.25,5.84-0.29,7.84c-1.1-0.35-2.94-4.27-2.34-10.7
							c-1.86,2.04-2.6,6.83-1.96,8.34c-1.15-0.35-1.55-6.74-0.69-8.71c-2.11,2.78-2.57,5.76-2.57,5.76l0.67-5.7
							c0,0-1.91,0.05-3.27,2.18c-1.36,2.13-5.47,5.55-6.13,5.54C41.18,347.01,41.38,345.41,41.38,345.41z"/>
					</g>
					<g>
						<path class="st28" d="M39.25,345.92c0,0,5.56-18.83,17.18-28.37c11.61-9.54,30.56-18.7,38.9-20.45
							c-2.02,1.14-3.85,1.95-5.63,3.34c7.42-2.66,13.5-0.41,13.5-0.41c-3.62-0.3-10.64,1.01-12.04,1.67
							c2.42-0.17,13.3-0.31,15.05-1.51c-0.79,1.17-5.69,2.45-7.61,2.39c5.78,1.48,7.25,2.92,8.52,4.82
							c-2.89-1.99-8.62-4.65-14.48-3.22c9.11,1.3,12.9,4.52,13.52,5.32c-2.59-1.46-12.89-3.98-17.55-1.95
							c7.78,0.29,12.44,3.03,12.44,3.03s-8.79-2.43-13.04-1.33c6.67,1.18,12.49,4.04,12.49,4.04s-12.86-3.68-17.95-2.55
							c5.26,1.29,9.76,4.48,9.76,4.48c-2.55-0.74-10.34-2.86-10.34-2.86s7.55,5.23,10.94,4.77c-2,1.07-8.75-0.92-10.56-1.9
							c2.81,2.83,4.7,5.78,4.66,6.35c-2.78-2.78-7.27-5.41-7.27-5.41s3.32,4.42,3.57,7.53c-1.75-2.53-4.72-6.75-5.2-6.58
							c2.34,4.03,3.52,8.72,3.52,8.72s-3-6.84-6.03-7.96c4.06,5.59,5.04,10.26,4.83,10.97c-0.65-2.26-6.09-8.85-6.09-8.85
							s1.92,7.04,4.79,9.47c-0.84,0.03-6.31-5.45-7.45-8.63c1.3,5.07,3.83,10.78,5.91,12.48c-1.57-0.36-6.38-5.59-7.16-9.69
							c0.71,3.82,4.96,9.69,4.96,9.69s-6.16-3.32-7.51-9.15c0.46,3.81,3.92,8.65,3.92,8.65s-3.7-2.52-5.19-7.07
							c0.87,4.53,3.61,10.21,5.18,10.81c-2.2-0.91-5.68-6.05-6.22-7.2c-0.29,1.85,2.55,6.67,2.94,6.98
							c-1.21-0.1-4.96-5.96-4.96-5.96s1.44,5.49,3.42,6.69c-1.03-0.24-3.97-2.95-5.23-5.34c0.52,3.66,4.21,6.81,4.21,6.81
							s-4.83-1.8-6.36-6.46c0.07,3.76,2.67,7.05,2.67,7.05s-3.24-2.32-4.03-5.92c-0.62,2.18,1.33,6.03,2.59,7.27
							c-1.06-0.05-4.39-4.09-4.76-6.18c-0.72,1.32,1.27,5.51,1.27,5.51s-2.63-2.97-2.67-4.6c-0.79,1.05,1.73,5.72,1.73,5.72
							s-3.06-3.62-3.13-5.18c-0.49,1.94,1.46,5.78,3.21,7.16c-1.14,0.17-4.53-2.54-6.84-8.56c-0.76,2.65,0.7,7.28,1.94,8.34
							c-1.19,0.2-4.37-5.36-4.47-7.5c-0.66,3.43,0.24,6.3,0.24,6.3l-1.93-5.41c0,0-1.69,0.89-1.96,3.4
							c-0.27,2.52-2.46,7.4-3.05,7.68C39.79,347.43,39.25,345.92,39.25,345.92z"/>
					</g>
					<g>
						<path class="st28" d="M40.84,350.44c0,0-6.48-18.53-2.62-33.06c3.85-14.53,13.89-33.02,19.63-39.31
							c-0.98,2.11-1.99,3.82-2.62,6c4.47-6.49,10.72-8.21,10.72-8.21c-3.12,1.87-8.05,7.03-8.8,8.39
							c1.87-1.55,10.61-8.02,11.34-10.02c0.04,1.41-3.18,5.31-4.78,6.38c5.55-2.17,7.59-1.87,9.73-1.06
							c-3.51,0.08-9.72,1.26-13.64,5.84c8.16-4.26,13.11-3.86,14.09-3.57c-2.95,0.32-12.79,4.3-15.38,8.67
							c6.48-4.31,11.86-4.81,11.86-4.81S61.8,288.83,59,292.2c6.1-2.94,12.5-4.01,12.5-4.01s-12.59,4.52-16.06,8.41
							c5.03-2.02,10.54-2.06,10.54-2.06c-2.51,0.88-10.07,3.72-10.07,3.72s9.18-0.17,11.67-2.51c-1,2.04-7.64,4.36-9.68,4.62
							c3.93,0.66,7.19,1.95,7.49,2.43c-3.88-0.63-9.06-0.15-9.06-0.15s5.27,1.65,7.3,4.03c-2.9-1.03-7.77-2.72-8.07-2.31
							c4.25,1.91,7.96,5.02,7.96,5.02s-6.42-3.8-9.55-2.94c6.56,2.17,10.09,5.38,10.33,6.08c-1.84-1.46-10.11-3.63-10.11-3.63
							s5.67,4.58,9.41,4.88c-0.66,0.52-8.3-0.74-11.09-2.66c4.01,3.36,9.4,6.52,12.09,6.68c-1.48,0.63-8.45-0.81-11.47-3.68
							c2.81,2.69,9.68,4.97,9.68,4.97s-6.94,0.9-11.44-3.04c2.6,2.83,8.24,4.74,8.24,4.74s-4.48,0.11-8.34-2.72
							c3.35,3.18,8.89,6.18,10.52,5.75c-2.32,0.55-8.14-1.6-9.25-2.21c0.84,1.66,5.97,3.92,6.46,3.95
							c-1.04,0.62-7.51-1.94-7.51-1.94s4.38,3.62,6.68,3.43c-0.98,0.4-4.94-0.08-7.36-1.29c2.56,2.67,7.39,3.07,7.39,3.07
							s-4.97,1.35-8.94-1.53c2.25,3.01,6.28,4.17,6.28,4.17s-3.98,0.01-6.72-2.45c0.78,2.13,4.6,4.12,6.35,4.39
							c-0.89,0.58-5.95-0.76-7.47-2.24c0.18,1.49,4.25,3.74,4.25,3.74s-3.87-0.88-4.86-2.18c-0.03,1.31,4.75,3.63,4.75,3.63
							s-4.6-1.15-5.57-2.38c0.74,1.86,4.57,3.84,6.79,3.94c-0.82,0.81-5.16,0.59-10.54-2.95c0.93,2.6,4.82,5.5,6.44,5.64
							c-0.85,0.86-6.67-1.79-8.02-3.48c1.46,3.18,3.88,4.98,3.88,4.98l-4.72-3.27c0,0-0.85,1.71,0.4,3.91
							c1.25,2.2,2.33,7.44,2.01,8.02C42.16,351.36,40.84,350.44,40.84,350.44z"/>
					</g>
					<g>
						<path class="st28" d="M41.93,346.4c0,0,18.88-5.39,33.16-0.69c14.28,4.69,32.16,15.79,38.11,21.89
							c-2.05-1.1-3.7-2.21-5.84-2.97c6.22,4.84,7.57,11.18,7.57,11.18c-1.69-3.22-6.55-8.45-7.86-9.27
							c1.44,1.96,7.39,11.06,9.34,11.9c-1.41-0.04-5.11-3.49-6.09-5.15c1.85,5.67,1.42,7.69,0.49,9.78
							c0.13-3.51-0.69-9.78-5.04-13.96c3.78,8.4,3.09,13.32,2.75,14.28c-0.15-2.97-3.54-13.01-7.75-15.86
							c3.92,6.72,4.1,12.13,4.1,12.13s-2.66-8.73-5.85-11.73c2.58,6.27,3.27,12.71,3.27,12.71s-3.78-12.84-7.46-16.53
							c1.72,5.14,1.44,10.65,1.44,10.65c-0.74-2.56-3.12-10.26-3.12-10.26s-0.37,9.17,1.83,11.79c-1.97-1.11-3.9-7.88-4.05-9.94
							c-0.88,3.89-2.37,7.06-2.87,7.34c0.86-3.83,0.68-9.04,0.68-9.04s-1.96,5.17-4.45,7.05c1.2-2.83,3.17-7.6,2.77-7.91
							c-2.15,4.13-5.48,7.65-5.48,7.65s4.17-6.19,3.49-9.36c-2.55,6.42-5.96,9.76-6.68,9.96c1.57-1.75,4.21-9.88,4.21-9.88
							s-4.9,5.39-5.43,9.11c-0.48-0.69,1.22-8.24,3.3-10.92c-3.59,3.82-7.05,9.01-7.37,11.68c-0.54-1.52,1.3-8.38,4.35-11.23
							c-2.85,2.65-5.53,9.38-5.53,9.38s-0.5-6.98,3.7-11.25c-2.97,2.43-5.21,7.94-5.21,7.94s0.15-4.47,3.2-8.17
							c-3.37,3.17-6.68,8.52-6.35,10.17c-0.41-2.35,2.07-8.04,2.75-9.11c-1.71,0.74-4.27,5.73-4.32,6.22
							c-0.56-1.07,2.37-7.38,2.37-7.38s-3.87,4.15-3.82,6.47c-0.35-1,0.37-4.93,1.72-7.28c-2.82,2.4-3.5,7.2-3.5,7.2
							s-1.06-5.04,2.05-8.83c-3.13,2.07-4.52,6.02-4.52,6.02s0.22-3.97,2.84-6.56c-2.17,0.65-4.38,4.35-4.75,6.08
							c-0.53-0.92,1.11-5.9,2.67-7.33c-1.5,0.1-3.98,4.02-3.98,4.02s1.1-3.81,2.46-4.72c-1.31-0.11-3.9,4.52-3.9,4.52
							s1.42-4.52,2.7-5.41c-1.9,0.63-4.1,4.33-4.33,6.54c-0.76-0.87-0.28-5.18,3.56-10.35c-2.64,0.78-5.77,4.49-6.01,6.11
							c-0.81-0.9,2.18-6.56,3.94-7.8c-3.25,1.28-5.2,3.58-5.2,3.58l3.54-4.53c0,0-1.65-0.95-3.93,0.17
							c-2.27,1.11-7.56,1.89-8.12,1.54C40.93,347.66,41.93,346.4,41.93,346.4z"/>
					</g>
					<g>
						<path class="st28" d="M41.56,345.68c0,0,18.74,5.85,28.11,17.6c9.36,11.76,18.24,30.84,19.86,39.2
							c-1.11-2.04-1.89-3.87-3.25-5.68c2.55,7.46,0.2,13.5,0.2,13.5c0.35-3.62-0.85-10.66-1.49-12.07
							c0.13,2.43,0.11,13.3,1.28,15.07c-1.16-0.81-2.36-5.72-2.27-7.65c-1.57,5.75-3.03,7.21-4.95,8.45
							c2.03-2.87,4.78-8.55,3.44-14.43c-1.45,9.09-4.72,12.83-5.53,13.44c1.5-2.56,4.17-12.83,2.22-17.52
							c-0.4,7.78-3.22,12.39-3.22,12.39s2.57-8.75,1.53-13.02c-1.28,6.65-4.23,12.43-4.23,12.43s3.87-12.81,2.82-17.92
							c-1.38,5.24-4.62,9.69-4.62,9.69c0.78-2.54,3.01-10.3,3.01-10.3s-5.34,7.47-4.94,10.87c-1.04-2.01,1.06-8.74,2.06-10.53
							c-2.87,2.76-5.85,4.61-6.42,4.56c2.82-2.74,5.52-7.19,5.52-7.19s-4.46,3.25-7.59,3.46c2.56-1.71,6.82-4.62,6.66-5.1
							c-4.06,2.28-8.78,3.39-8.78,3.39s6.88-2.89,8.05-5.92c-5.65,3.97-10.33,4.89-11.04,4.67c2.27-0.61,8.94-5.96,8.94-5.96
							s-7.06,1.82-9.54,4.65c-0.02-0.84,5.54-6.22,8.74-7.32c-5.09,1.22-10.83,3.66-12.56,5.72c0.38-1.57,5.69-6.29,9.79-7.01
							c-3.83,0.65-9.76,4.81-9.76,4.81s3.41-6.11,9.26-7.38c-3.82,0.41-8.71,3.79-8.71,3.79s2.58-3.66,7.15-5.08
							c-4.55,0.79-10.26,3.46-10.89,5.02c0.95-2.19,6.13-5.59,7.29-6.12c-1.84-0.31-6.71,2.46-7.02,2.84
							c0.12-1.21,6.04-4.87,6.04-4.87s-5.51,1.36-6.75,3.31c0.26-1.02,3.01-3.92,5.43-5.14c-3.68,0.46-6.87,4.1-6.87,4.1
							s1.88-4.8,6.55-6.26c-3.76,0.01-7.09,2.56-7.09,2.56s2.37-3.2,5.98-3.93c-2.18-0.65-6.05,1.24-7.31,2.48
							c0.06-1.06,4.16-4.33,6.24-4.67c-1.3-0.74-5.53,1.19-5.53,1.19s3.01-2.59,4.64-2.6c-1.03-0.8-5.75,1.64-5.75,1.64
							s3.67-3,5.23-3.05c-1.93-0.51-5.81,1.37-7.21,3.1c-0.15-1.14,2.6-4.49,8.66-6.7c-2.64-0.8-7.29,0.58-8.37,1.81
							c-0.18-1.19,5.42-4.29,7.57-4.36c-3.42-0.72-6.31,0.14-6.31,0.14l5.44-1.84c0,0-0.86-1.7-3.37-2.01
							c-2.51-0.31-7.36-2.57-7.64-3.17C40.03,346.19,41.56,345.68,41.56,345.68z"/>
					</g>
					<path class="st28" d="M33.18,347.27c-0.04,2.94,2.5,5.37,5.69,5.42c3.19,0.05,5.81-2.29,5.85-5.24
						c0.05-2.95-2.5-5.37-5.69-5.42C35.85,341.98,33.22,344.33,33.18,347.27z"/>
					<path class="st28" d="M41.13,353.38c-0.05,3.3,1.86,6,4.27,6.04c2.41,0.04,4.4-2.6,4.46-5.9c0.05-3.3-1.86-6-4.27-6.04
						C43.18,347.44,41.19,350.08,41.13,353.38z"/>
					<path class="st28" d="M32.86,355.22c-0.04,2.85,1.52,5.2,3.51,5.23c1.98,0.03,3.62-2.26,3.67-5.11
						c0.04-2.86-1.52-5.19-3.51-5.23C34.54,350.08,32.9,352.36,32.86,355.22z"/>
					<path class="st28" d="M42.2,354.61c0,0-7.09,143.73,29.21,209.92c-6.31,2.89-8.26-0.13-8.26-0.13s-32.99-69.11-24.11-216.12
						C45.54,337.62,42.2,354.61,42.2,354.61z"/>
				</g>
			</g>
		</g>
	</g>
</g>
<g id="DESIGNED_BY_FREEPIK">
</g>
</svg>
