<?xml version="1.0" encoding="utf-8"?>
<!-- Generator: Adobe Illustrator 23.1.0, SVG Export Plug-In . SVG Version: 6.00 Build 0)  -->
<svg version="1.1" id="publicdomainvectors.org" xmlns="http://www.w3.org/2000/svg" xmlns:xlink="http://www.w3.org/1999/xlink"
	 x="0px" y="0px" viewBox="0 0 660 660" style="enable-background:new 0 0 660 660;" xml:space="preserve">
<style type="text/css">
	.st0{fill-rule:evenodd;clip-rule:evenodd;fill:#DDEDF8;}
	.st1{fill-rule:evenodd;clip-rule:evenodd;fill:#BEDCF2;}
	.st2{fill-rule:evenodd;clip-rule:evenodd;fill:#FFFFFF;}
	.st3{fill-rule:evenodd;clip-rule:evenodd;fill:#A1CDEC;}
	.st4{fill-rule:evenodd;clip-rule:evenodd;fill:#6EA9D9;}
	.st5{fill-rule:evenodd;clip-rule:evenodd;fill:#4B8EC8;}
	.st6{fill-rule:evenodd;clip-rule:evenodd;fill:#276BB0;}
	.st7{fill-rule:evenodd;clip-rule:evenodd;fill:#0F59A0;}
</style>
<g>
	<rect y="1.08" class="st0" width="659.42" height="659.42"/>
	<path class="st1" d="M42.51,330.19l102.62-102.2c55.13-54.9,138.61-64.64,203.85-27.52c27.02,15.37,58.36,14.14,84.09-3.31
		c34.83-23.62,80.76-20.73,112.52,7.79l16.43,14.75c27.32,24.52,67.42,25.9,96.36,3.32l1.05-0.82v287.1L124.35,507L42.51,330.19z"/>
	<polygon class="st2" points="105.69,260.99 106.32,277.45 108.41,332.1 104.23,332.1 100.05,332.1 102.14,277.45 102.77,260.99 	
		"/>
	<path class="st2" d="M105.03,258.52c1.36,0.44,2.11,1.9,1.67,3.26c-0.44,1.36-1.9,2.11-3.26,1.66c-1.36-0.44-2.1-1.9-1.67-3.26
		C102.21,258.83,103.67,258.08,105.03,258.52z"/>
	<polygon class="st2" points="104.23,260.99 116.32,223.66 117.53,223.48 109.65,256 	"/>
	<polygon class="st2" points="104.23,260.99 65.86,269.18 65.09,268.22 97.19,258.79 	"/>
	<polygon class="st2" points="104.23,260.99 130.51,290.12 130.06,291.26 105.84,268.18 	"/>
	<polygon class="st2" points="195.91,261.03 196.54,277.49 198.63,332.15 194.45,332.15 190.26,332.15 192.35,277.49 192.98,261.03 
			"/>
	<path class="st2" d="M194.45,263.62c1.43,0,2.59-1.16,2.59-2.59c0-1.43-1.16-2.59-2.59-2.59c-1.43,0-2.59,1.16-2.59,2.59
		C191.86,262.45,193.02,263.62,194.45,263.62z"/>
	<polygon class="st2" points="194.45,261.03 175.68,226.57 176.38,225.57 194.55,253.66 	"/>
	<polygon class="st2" points="194.45,261.03 173.99,294.51 172.77,294.41 188.01,264.62 	"/>
	<polygon class="st2" points="194.45,261.03 233.67,262.01 234.19,263.12 200.77,264.81 	"/>
	<g>
		<polygon class="st2" points="270.48,286 271.11,302.46 273.2,357.12 269.02,357.12 264.84,357.12 266.93,302.46 267.56,286 		"/>
		<path class="st2" d="M269.02,288.59c1.43,0,2.59-1.16,2.59-2.59c0-1.43-1.16-2.59-2.59-2.59c-1.43,0-2.59,1.16-2.59,2.59
			C266.43,287.42,267.6,288.59,269.02,288.59z"/>
		<polygon class="st2" points="269.02,286 269.02,246.76 270.12,246.22 272.64,279.58 		"/>
		<polygon class="st2" points="269.02,286 235.04,305.62 234.02,304.94 261.65,286.07 		"/>
		<polygon class="st2" points="269.02,286 303,305.62 302.93,306.84 272.77,292.35 		"/>
	</g>
	<path class="st3" d="M659.42,340.39l-39.1-22.58c-42.53-24.55-92.68-23.57-132.88,0.64c-29.35,17.68-60.49,23.11-94.1,16.42
		c-46.21-9.2-92.99,2.53-131.04,33.84l-39.54,32.53l198.38,164.78h238.28V340.39z"/>
	<path class="st4" d="M98.26,317.46h67.03c54.89,0,103.56,15.91,145.49,47.51c43.52,32.8,90.31,48.51,144.81,48.62
		c20.96,0.04,39.51,5.36,56.43,16.21c15.72,10.09,32.12,14.24,50.74,12.85c33.46-2.5,62.21-18.39,82.71-45.89l13.96-18.73V602.9
		l-488.28-49.26L98.26,317.46z"/>
	<rect x="197.91" y="438.17" class="st2" width="461.51" height="9.22"/>
	<path class="st2" d="M659.42,450.51H239.39v156.66h24.58v-120.5c0-33.97,51.36-33.97,51.36,0v120.5h15.89v-120.5
		c0-33.97,51.36-33.97,51.36,0v120.5h15.89v-120.5c0-33.97,51.36-33.97,51.36,0v120.5h15.89v-120.5c0-33.97,51.36-33.97,51.36,0
		v120.5h15.89v-120.5c0-33.97,51.36-33.97,51.36,0v120.5h15.89v-120.5c0-33.97,51.36-33.97,51.36,0v120.5h7.81V450.51z"/>
	<rect x="197.91" y="447" class="st0" width="461.51" height="3.51"/>
	<path class="st5" d="M0,327.49l1.32-1.32c20.36-20.36,45.18-30.59,73.97-30.49c28.8,0.1,53.54,10.49,73.77,30.99l89.73,90.95
		c16.37,16.59,36.86,24.55,60.13,23.36c18.53-0.95,36.71,5.48,51.27,18.7c40.48,36.77,91.7,50.34,145.07,38.43
		c51.19-11.41,104.9,0.48,148.53,34.87l15.63,12.31V660.5H0V327.49z"/>
	<path class="st6" d="M542.52,660.5l-123.07-81.12c-27.66-18.23-60.35-22.46-90.04-13.14c-39.46,12.4-79.64,2.9-109.37-25.85
		l-10-9.67c-21.34-20.64-50.23-28.86-77.58-24.7c-42.8,6.5-82.71-8.63-110.43-41.87L0,437.74V660.5H542.52z"/>
	<path class="st2" d="M488.88,63.42c2.3-2.76,5.06-4.37,8.03-4.37c1.48,0,2.92,0.4,4.26,1.15c3.46,1.92,7.43,1.76,10.74-0.42
		c2.44-1.61,5.07-2.48,7.81-2.48c2.59,0,5.08,0.78,7.41,2.23c4.18,2.6,9.45,1.96,12.89-1.56c2.6-2.66,5.61-4.18,8.82-4.18
		c3.67,0,7.09,2,9.93,5.42c3.03,3.65,7.95,4.78,12.28,2.82c1.74-0.79,3.57-1.21,5.45-1.21c3.85,0,7.48,1.77,10.64,4.87
		c6.19,6.09,13.3,9.51,21.92,10.56l6.71,0.81c-51.34,0-102.68,0-154.03,0l2.7-0.33C474.35,75.52,482.48,71.1,488.88,63.42z"/>
	<path class="st2" d="M103.3,113.48c1.61,0,3.18,0.22,4.66,0.63c5.72,1.59,11.33,0.5,16.03-3.13c4.35-3.35,9.79-5.34,15.71-5.34
		c7.6,0,14.43,3.29,19.14,8.53c3.5,3.89,7.96,5.93,13.2,6.04c0.16,0,0.31,0.01,0.47,0.02c5.38,0.23,10.1-1.65,13.85-5.5
		c4.78-4.91,11.46-7.96,18.85-7.96c9.06,0,17.05,4.58,21.78,11.55c2.4,3.54,5.52,5.86,9.6,7.15c4.47,1.41,8.13,4.65,10.12,8.83
		c2.63,5.54,7.37,9.13,13.41,10.17l13.7,2.34H170.77H67.72l3.13-0.54c8.39-1.44,14.52-8.2,15.13-16.69
		C86.63,120.58,94.13,113.48,103.3,113.48z"/>
	<path class="st2" d="M266.45,48.75c-1.05-1.25-2.3-1.98-3.65-1.98c-0.67,0-1.32,0.18-1.94,0.52c-1.57,0.87-3.38,0.8-4.88-0.19
		c-1.11-0.73-2.3-1.13-3.55-1.13c-1.18,0-2.31,0.36-3.37,1.01c-1.9,1.18-4.29,0.89-5.86-0.71c-1.18-1.21-2.55-1.9-4.01-1.9
		c-1.67,0-3.22,0.91-4.52,2.46c-1.38,1.66-3.61,2.17-5.58,1.28c-0.79-0.36-1.62-0.55-2.48-0.55c-1.75,0-3.4,0.8-4.83,2.21
		c-2.82,2.77-6.04,4.32-9.96,4.8l-3.05,0.37c23.33,0,46.67,0,70,0l-1.23-0.15C273.06,54.25,269.36,52.24,266.45,48.75z"/>
	<path class="st2" d="M383.59,118.29c2.06,0,4.06,0.28,5.95,0.81c7.31,2.03,14.47,0.63,20.48-4c5.55-4.28,12.51-6.83,20.07-6.83
		c9.71,0,18.44,4.21,24.46,10.89c4.47,4.97,10.18,7.58,16.86,7.71c0.2,0,0.4,0.01,0.6,0.02c6.87,0.29,12.9-2.1,17.7-7.03
		c6.11-6.27,14.64-10.16,24.09-10.16c11.58,0,21.78,5.85,27.83,14.75c3.07,4.52,7.06,7.49,12.27,9.13
		c5.71,1.8,10.39,5.93,12.93,11.28c3.36,7.08,9.41,11.67,17.14,12.99l17.5,3H469.79H338.14l4-0.68
		c10.72-1.83,18.55-10.47,19.33-21.32C362.29,127.36,371.88,118.29,383.59,118.29z"/>
	<path class="st7" d="M659.42,619.26v41.24H0v-27.23c34.71-1.97,69.9,18.02,119.82-9.99c55.46-31.12,63.14,35.57,157.01,6.87
		c60.69-18.55,59.33,29.87,172.16-4.62c50.85-15.54,84.02,23.05,133.3,0.53C609.63,613.57,635.68,612.48,659.42,619.26z"/>
	<rect x="405.02" y="426.46" class="st5" width="224.3" height="9"/>
	<path class="st2" d="M364,430.29l2.37-1.5c5.62-3.56,11.33-5.21,17.98-5.21h51.44c3.66,0,6.64,2.98,6.64,6.64v0.33
		c0,3.66-2.98,6.64-6.64,6.64H366c-1.69,0-3.12-1.08-3.59-2.7C361.94,432.87,362.58,431.19,364,430.29z"/>
	<path class="st5" d="M364,430.29l2.37-1.5c2.51-1.59,5.04-2.8,7.66-3.65h66.03c1.45,1.22,2.37,3.04,2.37,5.08v0.33
		c0,0.27-0.02,0.54-0.05,0.8H362.9C363.19,430.93,363.55,430.57,364,430.29z"/>
	<path class="st2" d="M379.04,426.46L379.04,426.46c0.72,0,1.32,0.59,1.32,1.32v0.99c0,0.73-0.59,1.32-1.32,1.32l0,0
		c-0.73,0-1.32-0.59-1.32-1.32v-0.99C377.73,427.05,378.32,426.46,379.04,426.46L379.04,426.46z M437.48,426.46L437.48,426.46
		c0.72,0,1.32,0.59,1.32,1.32v0.99c0,0.73-0.59,1.32-1.32,1.32l0,0c-0.72,0-1.32-0.59-1.32-1.32v-0.99
		C436.17,427.05,436.76,426.46,437.48,426.46L437.48,426.46z M430.99,426.46L430.99,426.46c0.72,0,1.32,0.59,1.32,1.32
		c0,0.33,0,0.66,0,0.99c0,0.73-0.59,1.32-1.32,1.32l0,0c-0.73,0-1.32-0.59-1.32-1.32c0-0.33,0-0.66,0-0.99
		C429.67,427.05,430.27,426.46,430.99,426.46L430.99,426.46z M424.5,426.46L424.5,426.46c0.72,0,1.32,0.59,1.32,1.32
		c0,0.33,0,0.66,0,0.99c0,0.73-0.59,1.32-1.32,1.32l0,0c-0.72,0-1.32-0.59-1.32-1.32c0-0.33,0-0.66,0-0.99
		C423.18,427.05,423.77,426.46,424.5,426.46L424.5,426.46z M418,426.46L418,426.46c0.72,0,1.32,0.59,1.32,1.32c0,0.33,0,0.66,0,0.99
		c0,0.73-0.59,1.32-1.32,1.32l0,0c-0.73,0-1.32-0.59-1.32-1.32c0-0.33,0-0.66,0-0.99C416.69,427.05,417.28,426.46,418,426.46
		L418,426.46z M411.51,426.46L411.51,426.46c0.72,0,1.32,0.59,1.32,1.32c0,0.33,0,0.66,0,0.99c0,0.73-0.59,1.32-1.32,1.32l0,0
		c-0.73,0-1.32-0.59-1.32-1.32c0-0.33,0-0.66,0-0.99C410.19,427.05,410.79,426.46,411.51,426.46L411.51,426.46z M405.02,426.46
		L405.02,426.46c0.72,0,1.32,0.59,1.32,1.32c0,0.33,0,0.66,0,0.99c0,0.73-0.59,1.32-1.32,1.32l0,0c-0.72,0-1.32-0.59-1.32-1.32
		c0-0.33,0-0.66,0-0.99C403.7,427.05,404.29,426.46,405.02,426.46L405.02,426.46z M398.52,426.46L398.52,426.46
		c0.72,0,1.32,0.59,1.32,1.32c0,0.33,0,0.66,0,0.99c0,0.73-0.59,1.32-1.32,1.32l0,0c-0.73,0-1.32-0.59-1.32-1.32
		c0-0.33,0-0.66,0-0.99C397.21,427.05,397.8,426.46,398.52,426.46L398.52,426.46z M392.03,426.46L392.03,426.46
		c0.72,0,1.32,0.59,1.32,1.32c0,0.33,0,0.66,0,0.99c0,0.73-0.59,1.32-1.32,1.32l0,0c-0.73,0-1.32-0.59-1.32-1.32
		c0-0.33,0-0.66,0-0.99C390.71,427.05,391.3,426.46,392.03,426.46L392.03,426.46z M385.54,426.46L385.54,426.46
		c0.72,0,1.32,0.59,1.32,1.32c0,0.33,0,0.66,0,0.99c0,0.73-0.59,1.32-1.32,1.32l0,0c-0.73,0-1.32-0.59-1.32-1.32
		c0-0.33,0-0.66,0-0.99C384.22,427.05,384.81,426.46,385.54,426.46z"/>
	<g>
		<path class="st2" d="M452.03,423.58h65.41c3.74,0,6.81,3.06,6.81,6.8l0,0c0,3.74-3.06,6.8-6.81,6.8h-65.41
			c-3.74,0-6.81-3.06-6.81-6.8l0,0C445.22,426.64,448.29,423.58,452.03,423.58z"/>
		<path class="st5" d="M521.77,425.14c1.51,1.25,2.48,3.14,2.48,5.24l0,0c0,0.33-0.03,0.65-0.07,0.96h-78.88
			c-0.05-0.31-0.07-0.63-0.07-0.96l0,0c0-2.1,0.97-3.99,2.48-5.24H521.77z"/>
		<path class="st2" d="M450.69,426.46L450.69,426.46c0.72,0,1.32,0.59,1.32,1.32v0.99c0,0.73-0.59,1.32-1.32,1.32l0,0
			c-0.72,0-1.32-0.59-1.32-1.32v-0.99C449.38,427.05,449.97,426.46,450.69,426.46L450.69,426.46z M519.69,426.46L519.69,426.46
			c0.72,0,1.32,0.59,1.32,1.32v0.99c0,0.73-0.59,1.32-1.32,1.32l0,0c-0.73,0-1.32-0.59-1.32-1.32v-0.99
			C518.37,427.05,518.96,426.46,519.69,426.46L519.69,426.46z M513.41,426.46L513.41,426.46c0.73,0,1.32,0.59,1.32,1.32
			c0,0.33,0,0.66,0,0.99c0,0.73-0.59,1.32-1.32,1.32l0,0c-0.72,0-1.32-0.59-1.32-1.32c0-0.33,0-0.66,0-0.99
			C512.09,427.05,512.69,426.46,513.41,426.46L513.41,426.46z M507.14,426.46L507.14,426.46c0.72,0,1.31,0.59,1.31,1.32
			c0,0.33,0,0.66,0,0.99c0,0.73-0.59,1.32-1.31,1.32l0,0c-0.73,0-1.32-0.59-1.32-1.32c0-0.33,0-0.66,0-0.99
			C505.82,427.05,506.42,426.46,507.14,426.46L507.14,426.46z M500.87,426.46L500.87,426.46c0.73,0,1.32,0.59,1.32,1.32
			c0,0.33,0,0.66,0,0.99c0,0.73-0.59,1.32-1.32,1.32l0,0c-0.73,0-1.32-0.59-1.32-1.32c0-0.33,0-0.66,0-0.99
			C499.55,427.05,500.14,426.46,500.87,426.46L500.87,426.46z M494.59,426.46L494.59,426.46c0.73,0,1.32,0.59,1.32,1.32
			c0,0.33,0,0.66,0,0.99c0,0.73-0.59,1.32-1.32,1.32l0,0c-0.72,0-1.31-0.59-1.31-1.32c0-0.33,0-0.66,0-0.99
			C493.28,427.05,493.87,426.46,494.59,426.46L494.59,426.46z M488.32,426.46L488.32,426.46c0.72,0,1.32,0.59,1.32,1.32
			c0,0.33,0,0.66,0,0.99c0,0.73-0.59,1.32-1.32,1.32l0,0c-0.73,0-1.32-0.59-1.32-1.32c0-0.33,0-0.66,0-0.99
			C487.01,427.05,487.6,426.46,488.32,426.46L488.32,426.46z M482.05,426.46L482.05,426.46c0.73,0,1.32,0.59,1.32,1.32
			c0,0.33,0,0.66,0,0.99c0,0.73-0.59,1.32-1.32,1.32l0,0c-0.72,0-1.32-0.59-1.32-1.32c0-0.33,0-0.66,0-0.99
			C480.74,427.05,481.33,426.46,482.05,426.46L482.05,426.46z M475.78,426.46L475.78,426.46c0.72,0,1.32,0.59,1.32,1.32
			c0,0.33,0,0.66,0,0.99c0,0.73-0.59,1.32-1.32,1.32l0,0c-0.72,0-1.32-0.59-1.32-1.32c0-0.33,0-0.66,0-0.99
			C474.46,427.05,475.06,426.46,475.78,426.46L475.78,426.46z M469.51,426.46L469.51,426.46c0.72,0,1.32,0.59,1.32,1.32
			c0,0.33,0,0.66,0,0.99c0,0.73-0.59,1.32-1.32,1.32l0,0c-0.72,0-1.32-0.59-1.32-1.32c0-0.33,0-0.66,0-0.99
			C468.19,427.05,468.78,426.46,469.51,426.46L469.51,426.46z M463.24,426.46L463.24,426.46c0.72,0,1.32,0.59,1.32,1.32
			c0,0.33,0,0.66,0,0.99c0,0.73-0.59,1.32-1.32,1.32l0,0c-0.72,0-1.32-0.59-1.32-1.32c0-0.33,0-0.66,0-0.99
			C461.92,427.05,462.51,426.46,463.24,426.46L463.24,426.46z M456.96,426.46L456.96,426.46c0.72,0,1.32,0.59,1.32,1.32
			c0,0.33,0,0.66,0,0.99c0,0.73-0.59,1.32-1.32,1.32l0,0c-0.72,0-1.32-0.59-1.32-1.32c0-0.33,0-0.66,0-0.99
			C455.65,427.05,456.24,426.46,456.96,426.46z"/>
		<path class="st2" d="M455.6,435.46h12.29v4.83H455.6V435.46L455.6,435.46z M501.58,435.46h12.29v4.83h-12.29V435.46z"/>
	</g>
	<path class="st2" d="M373.29,435.46h12.29v4.83h-12.29V435.46L373.29,435.46z M419.27,435.46h12.29v4.83h-12.29V435.46z"/>
	<g>
		<path class="st2" d="M535,423.58h65.41c3.74,0,6.8,3.06,6.8,6.8l0,0c0,3.74-3.06,6.8-6.8,6.8H535c-3.74,0-6.8-3.06-6.8-6.8l0,0
			C528.19,426.64,531.25,423.58,535,423.58z"/>
		<path class="st5" d="M604.73,425.14c1.51,1.25,2.48,3.14,2.48,5.24l0,0c0,0.33-0.02,0.65-0.07,0.96h-78.88
			c-0.04-0.31-0.07-0.63-0.07-0.96l0,0c0-2.1,0.97-3.99,2.48-5.24H604.73z"/>
		<path class="st2" d="M533.66,426.46L533.66,426.46c0.73,0,1.32,0.59,1.32,1.32v0.99c0,0.73-0.59,1.32-1.32,1.32l0,0
			c-0.73,0-1.32-0.59-1.32-1.32v-0.99C532.34,427.05,532.93,426.46,533.66,426.46L533.66,426.46z M602.65,426.46L602.65,426.46
			c0.73,0,1.32,0.59,1.32,1.32v0.99c0,0.73-0.59,1.32-1.32,1.32l0,0c-0.72,0-1.32-0.59-1.32-1.32v-0.99
			C601.34,427.05,601.93,426.46,602.65,426.46L602.65,426.46z M596.38,426.46L596.38,426.46c0.72,0,1.32,0.59,1.32,1.32
			c0,0.33,0,0.66,0,0.99c0,0.73-0.59,1.32-1.32,1.32l0,0c-0.73,0-1.32-0.59-1.32-1.32c0-0.33,0-0.66,0-0.99
			C595.06,427.05,595.66,426.46,596.38,426.46L596.38,426.46z M590.11,426.46L590.11,426.46c0.73,0,1.32,0.59,1.32,1.32
			c0,0.33,0,0.66,0,0.99c0,0.73-0.59,1.32-1.32,1.32l0,0c-0.73,0-1.32-0.59-1.32-1.32c0-0.33,0-0.66,0-0.99
			C588.79,427.05,589.38,426.46,590.11,426.46L590.11,426.46z M583.84,426.46L583.84,426.46c0.73,0,1.32,0.59,1.32,1.32
			c0,0.33,0,0.66,0,0.99c0,0.73-0.59,1.32-1.32,1.32l0,0c-0.72,0-1.32-0.59-1.32-1.32c0-0.33,0-0.66,0-0.99
			C582.52,427.05,583.11,426.46,583.84,426.46L583.84,426.46z M577.57,426.46L577.57,426.46c0.72,0,1.32,0.59,1.32,1.32
			c0,0.33,0,0.66,0,0.99c0,0.73-0.59,1.32-1.32,1.32l0,0c-0.73,0-1.32-0.59-1.32-1.32c0-0.33,0-0.66,0-0.99
			C576.25,427.05,576.84,426.46,577.57,426.46L577.57,426.46z M571.29,426.46L571.29,426.46c0.73,0,1.32,0.59,1.32,1.32
			c0,0.33,0,0.66,0,0.99c0,0.73-0.59,1.32-1.32,1.32l0,0c-0.72,0-1.31-0.59-1.31-1.32c0-0.33,0-0.66,0-0.99
			C569.98,427.05,570.57,426.46,571.29,426.46L571.29,426.46z M565.02,426.46L565.02,426.46c0.72,0,1.32,0.59,1.32,1.32
			c0,0.33,0,0.66,0,0.99c0,0.73-0.59,1.32-1.32,1.32l0,0c-0.73,0-1.32-0.59-1.32-1.32c0-0.33,0-0.66,0-0.99
			C563.7,427.05,564.3,426.46,565.02,426.46L565.02,426.46z M558.75,426.46L558.75,426.46c0.73,0,1.32,0.59,1.32,1.32
			c0,0.33,0,0.66,0,0.99c0,0.73-0.59,1.32-1.32,1.32l0,0c-0.72,0-1.32-0.59-1.32-1.32c0-0.33,0-0.66,0-0.99
			C557.43,427.05,558.03,426.46,558.75,426.46L558.75,426.46z M552.48,426.46L552.48,426.46c0.72,0,1.32,0.59,1.32,1.32
			c0,0.33,0,0.66,0,0.99c0,0.73-0.59,1.32-1.32,1.32l0,0c-0.73,0-1.32-0.59-1.32-1.32c0-0.33,0-0.66,0-0.99
			C551.16,427.05,551.75,426.46,552.48,426.46L552.48,426.46z M546.2,426.46L546.2,426.46c0.73,0,1.32,0.59,1.32,1.32
			c0,0.33,0,0.66,0,0.99c0,0.73-0.59,1.32-1.32,1.32l0,0c-0.72,0-1.32-0.59-1.32-1.32c0-0.33,0-0.66,0-0.99
			C544.89,427.05,545.48,426.46,546.2,426.46L546.2,426.46z M539.93,426.46L539.93,426.46c0.72,0,1.32,0.59,1.32,1.32
			c0,0.33,0,0.66,0,0.99c0,0.73-0.59,1.32-1.32,1.32l0,0c-0.73,0-1.32-0.59-1.32-1.32c0-0.33,0-0.66,0-0.99
			C538.62,427.05,539.21,426.46,539.93,426.46z"/>
		<path class="st2" d="M538.57,435.46h12.29v4.83h-12.29V435.46L538.57,435.46z M584.55,435.46h12.29v4.83h-12.29V435.46z"/>
	</g>
	<g>
		<path class="st2" d="M617.01,423.58h42.41v13.61h-42.41c-3.74,0-6.81-3.06-6.81-6.8l0,0C610.2,426.64,613.26,423.58,617.01,423.58
			z"/>
		<path class="st5" d="M659.42,431.34h-49.15c-0.05-0.31-0.07-0.63-0.07-0.96l0,0c0-2.1,0.97-3.99,2.48-5.24h46.74V431.34z"/>
		<path class="st2" d="M615.67,426.46L615.67,426.46c0.72,0,1.32,0.59,1.32,1.32v0.99c0,0.73-0.59,1.32-1.32,1.32l0,0
			c-0.73,0-1.32-0.59-1.32-1.32v-0.99C614.35,427.05,614.94,426.46,615.67,426.46L615.67,426.46z M659.42,430.07
			c-0.65-0.08-1.16-0.64-1.16-1.31c0-0.33,0-0.66,0-0.99c0-0.67,0.51-1.23,1.16-1.31V430.07L659.42,430.07z M653.3,426.46
			L653.3,426.46c0.73,0,1.32,0.59,1.32,1.32c0,0.33,0,0.66,0,0.99c0,0.73-0.59,1.32-1.32,1.32l0,0c-0.73,0-1.32-0.59-1.32-1.32
			c0-0.33,0-0.66,0-0.99C651.98,427.05,652.57,426.46,653.3,426.46L653.3,426.46z M647.03,426.46L647.03,426.46
			c0.72,0,1.32,0.59,1.32,1.32c0,0.33,0,0.66,0,0.99c0,0.73-0.59,1.32-1.32,1.32l0,0c-0.73,0-1.32-0.59-1.32-1.32
			c0-0.33,0-0.66,0-0.99C645.71,427.05,646.3,426.46,647.03,426.46L647.03,426.46z M640.75,426.46L640.75,426.46
			c0.73,0,1.32,0.59,1.32,1.32c0,0.33,0,0.66,0,0.99c0,0.73-0.59,1.32-1.32,1.32l0,0c-0.73,0-1.32-0.59-1.32-1.32
			c0-0.33,0-0.66,0-0.99C639.44,427.05,640.03,426.46,640.75,426.46L640.75,426.46z M634.48,426.46L634.48,426.46
			c0.73,0,1.32,0.59,1.32,1.32c0,0.33,0,0.66,0,0.99c0,0.73-0.59,1.32-1.32,1.32l0,0c-0.72,0-1.32-0.59-1.32-1.32
			c0-0.33,0-0.66,0-0.99C633.17,427.05,633.76,426.46,634.48,426.46L634.48,426.46z M628.21,426.46L628.21,426.46
			c0.72,0,1.32,0.59,1.32,1.32c0,0.33,0,0.66,0,0.99c0,0.73-0.59,1.32-1.32,1.32l0,0c-0.73,0-1.32-0.59-1.32-1.32
			c0-0.33,0-0.66,0-0.99C626.89,427.05,627.49,426.46,628.21,426.46L628.21,426.46z M621.94,426.46L621.94,426.46
			c0.73,0,1.32,0.59,1.32,1.32c0,0.33,0,0.66,0,0.99c0,0.73-0.59,1.32-1.32,1.32l0,0c-0.72,0-1.31-0.59-1.31-1.32
			c0-0.33,0-0.66,0-0.99C620.62,427.05,621.21,426.46,621.94,426.46z"/>
		<rect x="620.57" y="435.46" class="st2" width="12.29" height="4.83"/>
	</g>
	<polygon class="st6" points="69.28,448.54 71.85,483.27 74.42,518 69.28,518 64.15,518 66.72,483.27 	"/>
	<polygon class="st6" points="99.35,467.85 102.4,495.18 105.44,522.5 99.35,522.5 93.27,522.5 96.31,495.18 	"/>
	<polygon class="st6" points="139.74,474.44 143.16,501.43 146.58,528.43 139.74,528.43 132.9,528.43 136.32,501.43 	"/>
	<polygon class="st6" points="161.47,451.61 166.13,481.57 170.79,511.53 161.47,511.53 152.16,511.53 156.81,481.57 	"/>
	<polygon class="st6" points="127.89,484.53 131.88,505.11 135.87,525.69 127.89,525.69 119.9,525.69 123.9,505.11 	"/>
	<polygon class="st6" points="207.78,492.87 212.92,521.52 218.05,550.16 207.78,550.16 197.52,550.16 202.65,521.52 	"/>
	<polygon class="st6" points="221.83,495.51 225.82,527.28 229.81,559.05 221.83,559.05 213.85,559.05 217.84,527.28 	"/>
	<polygon class="st6" points="284.61,522.72 289.17,553.67 293.73,584.62 284.61,584.62 275.48,584.62 280.04,553.67 	"/>
	<polygon class="st6" points="355.5,511.31 362.44,548.35 369.38,585.39 355.5,585.39 341.63,585.39 348.57,548.35 	"/>
	<polygon class="st6" points="400.72,544.67 404.81,563.11 408.89,581.55 400.72,581.55 392.54,581.55 396.63,563.11 	"/>
	<polygon class="st6" points="431.67,553.89 436.04,578.42 440.41,602.95 431.67,602.95 422.92,602.95 427.3,578.42 	"/>
	<polygon class="st6" points="341.28,522.72 345.63,554.66 349.99,586.6 341.28,586.6 332.58,586.6 336.93,554.66 	"/>
	<polygon class="st6" points="389.31,521.41 395.29,552.68 401.28,583.96 389.31,583.96 377.33,583.96 383.32,552.68 	"/>
	<polygon class="st6" points="269.68,529.75 275.77,557.07 281.85,584.4 269.68,584.4 257.52,584.4 263.6,557.07 	"/>
	<polygon class="st6" points="171.75,475.12 174.62,493.63 177.48,512.14 171.75,512.14 166.01,512.14 168.88,493.63 	"/>
	<polygon class="st5" points="173.26,335.2 175.88,352.4 178.51,369.6 173.26,369.6 168.01,369.6 170.63,352.4 	"/>
	<polygon class="st5" points="183.41,337.05 185.75,354.15 188.09,371.25 183.41,371.25 178.73,371.25 181.07,354.15 	"/>
	<polygon class="st5" points="195.79,350.49 198.71,365.71 201.62,380.93 195.79,380.93 189.97,380.93 192.88,365.71 	"/>
	<polygon class="st5" points="215.17,373.68 218.02,390.78 220.87,407.88 215.17,407.88 209.46,407.88 212.31,390.78 	"/>
	<polygon class="st5" points="233.09,387.92 235.72,403.83 238.34,419.74 233.09,419.74 227.84,419.74 230.47,403.83 	"/>
	<polygon class="st5" points="252.6,404.79 254.99,421.29 257.39,437.8 252.6,437.8 247.8,437.8 250.2,421.29 	"/>
	<polygon class="st5" points="227.42,387.65 229.54,401.69 231.65,415.72 227.42,415.72 223.2,415.72 225.31,401.69 	"/>
	<polygon class="st5" points="153.1,314.64 154.64,326.8 156.18,338.96 153.1,338.96 150.01,338.96 151.55,326.8 	"/>
	<polygon class="st5" points="201.07,358.13 203.52,373.45 205.97,388.77 201.07,388.77 196.16,388.77 198.61,373.45 	"/>
	<polygon class="st5" points="551.51,474.87 554.93,491.67 558.35,508.46 551.51,508.46 544.67,508.46 548.09,491.67 	"/>
	<polygon class="st5" points="491.81,478.39 494.66,491.72 497.51,505.05 491.81,505.05 486.11,505.05 488.96,491.72 	"/>
	<polygon class="st5" points="615.82,498.14 618.39,511.97 620.96,525.8 615.82,525.8 610.69,525.8 613.26,511.97 	"/>
	<polygon class="st5" points="607.48,486.68 610.62,504.14 613.76,521.61 607.48,521.61 601.21,521.61 604.35,504.14 	"/>
	<polygon class="st5" points="558.42,469.17 561.23,487.85 564.03,506.54 558.42,506.54 552.82,506.54 555.62,487.85 	"/>
	<polygon class="st5" points="486.43,483.22 489.42,494.66 492.42,506.1 486.43,506.1 480.44,506.1 483.44,494.66 	"/>
	<polygon class="st5" points="512,482.34 514.85,494.68 517.71,507.03 512,507.03 506.3,507.03 509.15,494.68 	"/>
	<polygon class="st5" points="441.43,482.56 443.76,494.82 446.09,507.08 441.43,507.08 436.78,507.08 439.1,494.82 	"/>
	<polygon class="st5" points="413.56,480.36 416.36,492.79 419.17,505.22 413.56,505.22 407.95,505.22 410.75,492.79 	"/>
	<polygon class="st5" points="421.02,476.41 423.35,490.57 425.68,504.72 421.02,504.72 416.36,504.72 418.69,490.57 	"/>
	<polygon class="st5" points="426.31,483.49 429.1,495.98 431.9,508.47 426.31,508.47 420.72,508.47 423.52,495.98 	"/>
	<polygon class="st7" points="594.99,518.38 602.44,558.26 596.03,559.14 602.73,559.85 606.89,582.11 597.08,583.39 607.47,585.21 
		607.75,586.74 614.08,620.65 601.47,621.86 614.76,624.27 620.51,655.09 594.99,655.09 569.46,655.09 573.56,633.16 588.3,631.89 
		574.12,630.15 580.13,597.95 590.39,595.93 580.85,594.11 582.22,586.74 585.41,569.66 591.02,567.5 585.95,566.79 	"/>
	<polygon class="st7" points="542.23,508.72 549.67,548.6 543.27,549.48 549.97,550.19 554.13,572.45 544.32,573.73 554.71,575.55 
		554.99,577.08 561.32,610.99 548.71,612.2 562,614.61 567.75,645.44 542.23,645.44 516.7,645.44 520.8,623.5 535.54,622.23 
		521.36,620.49 527.37,588.29 537.63,586.28 528.09,584.45 529.46,577.08 532.65,560 538.26,557.85 533.19,557.13 	"/>
	<polygon class="st7" points="501.32,530.41 506.94,560.46 502.11,561.13 507.16,561.66 510.29,578.44 502.9,579.4 510.73,580.78 
		510.94,581.92 515.71,607.48 506.21,608.39 516.22,610.22 520.56,633.44 501.32,633.44 482.08,633.44 485.17,616.91 496.28,615.95 
		485.59,614.64 490.12,590.38 497.86,588.86 490.67,587.48 491.7,581.92 494.11,569.05 498.33,567.43 494.51,566.89 	"/>
	<polygon class="st7" points="418.57,543.36 424.18,573.41 419.36,574.08 424.41,574.61 427.54,591.39 420.15,592.35 427.98,593.72 
		428.19,594.87 432.96,620.43 423.46,621.34 433.47,623.16 437.81,646.39 418.57,646.39 399.33,646.39 402.42,629.86 413.53,628.91 
		402.85,627.59 407.38,603.33 415.11,601.81 407.92,600.43 408.95,594.87 411.36,582 415.58,580.38 411.76,579.84 	"/>
	<polygon class="st7" points="140.01,500.72 147.45,540.6 141.05,541.48 147.75,542.19 151.91,564.45 142.1,565.73 152.49,567.55 
		152.77,569.08 159.1,602.99 146.49,604.2 159.78,606.61 165.53,637.43 140.01,637.43 114.48,637.43 118.58,615.5 133.32,614.23 
		119.14,612.49 125.15,580.29 135.41,578.28 125.87,576.45 127.24,569.08 130.43,552 136.04,549.85 130.97,549.13 	"/>
	<polygon class="st7" points="188.87,536.51 194.96,569.14 189.72,569.87 195.2,570.44 198.6,588.66 190.58,589.71 199.08,591.2 
		199.31,592.45 204.49,620.2 194.17,621.19 205.05,623.16 209.76,648.39 188.87,648.39 167.98,648.39 171.33,630.44 183.39,629.4 
		171.79,627.97 176.71,601.62 185.1,599.98 177.3,598.48 178.42,592.45 181.03,578.47 185.62,576.71 181.47,576.12 	"/>
	<polygon class="st7" points="224.34,514.6 231.3,551.9 225.31,552.72 231.58,553.38 235.46,574.21 226.29,575.4 236.01,577.11 
		236.27,578.53 242.2,610.25 230.4,611.38 242.83,613.64 248.21,642.46 224.34,642.46 200.46,642.46 204.29,621.95 218.08,620.76 
		204.82,619.13 210.44,589.02 220.04,587.13 211.11,585.43 212.4,578.53 215.38,562.56 220.62,560.54 215.88,559.88 	"/>
	<polygon class="st7" points="31.14,509.5 38.59,549.38 32.18,550.26 38.88,550.97 43.04,573.23 33.23,574.51 43.62,576.33 
		43.9,577.86 50.23,611.77 37.62,612.98 50.91,615.39 56.67,646.21 31.14,646.21 5.61,646.21 9.71,624.28 24.45,623.01 
		10.27,621.27 16.28,589.07 26.54,587.06 17,585.23 18.38,577.86 21.56,560.78 27.17,558.63 22.1,557.91 	"/>
</g>
</svg>
