<?xml version="1.0" encoding="utf-8"?>
<!-- Generator: Adobe Illustrator 23.1.0, SVG Export Plug-In . SVG Version: 6.00 Build 0)  -->
<svg version="1.1" id="Layer_1" xmlns="http://www.w3.org/2000/svg" xmlns:xlink="http://www.w3.org/1999/xlink" x="0px" y="0px"
	 viewBox="0 0 530.97 551.99" style="enable-background:new 0 0 530.97 551.99;" xml:space="preserve">
<style type="text/css">
	.st0{fill-rule:evenodd;clip-rule:evenodd;fill:#FFFFFF;}
	.st1{fill:#FFFFFF;}
</style>
<g>
	<path class="st0" d="M265.49,34.02c-137,0-248.1,111.07-248.1,248.1c0,109.62,71.09,202.62,169.67,235.42
		c12.4,2.3,16.95-5.38,16.95-11.94c0-5.91-0.23-25.46-0.34-46.19c-69.02,15.01-83.59-29.27-83.59-29.27
		c-11.29-28.68-27.55-36.3-27.55-36.3c-22.51-15.4,1.7-15.08,1.7-15.08c24.91,1.75,38.03,25.57,38.03,25.57
		c22.13,37.93,58.04,26.96,72.2,20.62c2.23-16.03,8.65-26.98,15.75-33.18c-55.11-6.27-113.04-27.55-113.04-122.61
		c0-27.09,9.69-49.22,25.57-66.59c-2.58-6.25-11.07-31.48,2.4-65.66c0,0,20.83-6.66,68.24,25.44c19.79-5.5,41.02-8.25,62.1-8.35
		c21.08,0.1,42.32,2.85,62.15,8.35c47.36-32.1,68.16-25.44,68.16-25.44c13.5,34.18,5.01,59.41,2.44,65.66
		c15.91,17.37,25.53,39.51,25.53,66.59c0,95.29-58.04,116.27-113.29,122.42c8.9,7.7,16.83,22.8,16.83,45.94
		c0,33.2-0.28,59.91-0.28,68.09c0,6.6,4.47,14.34,17.04,11.9c98.53-32.84,169.53-125.81,169.53-235.39
		C513.59,145.09,402.51,34.02,265.49,34.02z"/>
	<path class="st1" d="M111.35,390.24c-0.55,1.24-2.49,1.6-4.25,0.76c-1.8-0.81-2.81-2.49-2.23-3.73c0.53-1.27,2.48-1.62,4.27-0.77
		C110.95,387.3,111.98,389,111.35,390.24L111.35,390.24z M108.3,387.97"/>
	<path class="st1" d="M121.4,401.45c-1.18,1.1-3.5,0.59-5.07-1.15c-1.62-1.73-1.93-4.04-0.73-5.16c1.22-1.1,3.46-0.58,5.09,1.15
		C122.32,398.04,122.64,400.33,121.4,401.45L121.4,401.45z M119.04,398.91"/>
	<path class="st1" d="M131.19,415.73c-1.52,1.06-4.01,0.07-5.54-2.14c-1.52-2.21-1.52-4.85,0.04-5.91c1.54-1.06,3.99-0.1,5.55,2.08
		C132.74,412.01,132.74,414.65,131.19,415.73L131.19,415.73z M131.19,415.73"/>
	<path class="st1" d="M144.59,429.54c-1.36,1.5-4.26,1.1-6.38-0.95c-2.17-2-2.77-4.84-1.41-6.34c1.38-1.5,4.29-1.08,6.43,0.95
		C145.38,425.2,146.04,428.05,144.59,429.54L144.59,429.54z M144.59,429.54"/>
	<path class="st1" d="M163.08,437.55c-0.6,1.94-3.39,2.82-6.2,2c-2.81-0.85-4.64-3.13-4.08-5.09c0.58-1.96,3.39-2.88,6.21-1.99
		C161.82,433.32,163.66,435.58,163.08,437.55L163.08,437.55z M163.08,437.55"/>
	<path class="st1" d="M183.38,439.04c0.07,2.05-2.32,3.74-5.26,3.78c-2.97,0.07-5.37-1.59-5.4-3.6c0-2.07,2.33-3.74,5.3-3.8
		C180.96,435.36,183.38,437.01,183.38,439.04L183.38,439.04z M183.38,439.04"/>
	<path class="st1" d="M202.27,435.83c0.35,1.99-1.7,4.04-4.63,4.59c-2.88,0.53-5.54-0.71-5.91-2.68c-0.36-2.05,1.73-4.1,4.61-4.63
		C199.27,432.6,201.9,433.8,202.27,435.83L202.27,435.83z M202.27,435.83"/>
</g>
</svg>
