<?xml version="1.0" encoding="utf-8"?>
<svg version="1.1" id="Calque_1" xmlns="http://www.w3.org/2000/svg" xmlns:xlink="http://www.w3.org/1999/xlink" x="0px" y="0px"
	 viewBox="0 0 189 195" style="enable-background:new 0 0 189 195;" xml:space="preserve">
<style type="text/css">.st1{fill:#FFFFFF;}</style>
<path class="st1" d="M155.6,94.4L97.7,36.5c0,0,0,0,0,0c-0.2-0.2-0.4-0.4-0.7-0.5c-0.1,0-0.1-0.1-0.2-0.1c-0.2-0.1-0.4-0.2-0.6-0.3
	c-0.1,0-0.2-0.1-0.3-0.1c-0.2-0.1-0.4-0.1-0.6-0.2c-0.1,0-0.1,0-0.2-0.1c-0.2,0-0.5-0.1-0.8-0.1l-28.6-0.6c-1.3-0.1-2.5,0.5-3.5,1.4
	l-29,29c-0.1,0.1-0.3,0.3-0.4,0.5c0,0.1-0.1,0.1-0.1,0.2c-0.1,0.2-0.2,0.4-0.3,0.6c0,0.1-0.1,0.2-0.1,0.2c-0.1,0.2-0.1,0.4-0.2,0.6
	c0,0.1-0.1,0.2-0.1,0.3c0,0.2-0.1,0.4-0.1,0.6c0,0.1,0,0.2,0,0.3c0,0,0,0,0,0c0,0.2,0,0.4,0,0.6c0,0.1,0,0.2,0,0.3
	c0,0.2,0.1,0.3,0.1,0.5c0,0.1,0.1,0.3,0.1,0.4c0,0.1,0.1,0.2,0.2,0.3c0.1,0.2,0.2,0.3,0.3,0.5c0.1,0.1,0.1,0.2,0.2,0.2
	c0.1,0.2,0.3,0.3,0.4,0.5c0,0,0,0,0,0L59,97.2l-25.6,25.6c-0.2,0.2-0.3,0.3-0.4,0.5c0,0.1-0.1,0.1-0.1,0.1c-0.1,0.2-0.2,0.4-0.3,0.6
	c0,0.1-0.1,0.2-0.1,0.2c-0.1,0.2-0.1,0.4-0.2,0.6c0,0.1-0.1,0.2-0.1,0.3c0,0.2-0.1,0.4-0.1,0.6c0,0.1,0,0.2,0,0.3c0,0,0,0,0,0
	c0,0.2,0,0.4,0,0.6c0,0.1,0,0.2,0,0.3c0,0.2,0.1,0.3,0.1,0.5c0,0.1,0.1,0.3,0.1,0.4c0,0.1,0.1,0.2,0.2,0.3c0.1,0.2,0.2,0.3,0.3,0.5
	c0.1,0.1,0.1,0.2,0.2,0.2c0.1,0.2,0.3,0.3,0.4,0.5c0,0,0,0,0,0l29,29c0.9,0.9,2,1.4,3.3,1.4l28.6,0.6c0,0,0.1,0,0.1,0c0,0,0,0,0,0
	s0,0,0,0c0,0,0,0,0,0c0.3,0,0.6,0,0.8-0.1c0.1,0,0.2,0,0.2-0.1c0.2,0,0.4-0.1,0.6-0.2c0.1,0,0.1-0.1,0.2-0.1
	c0.3-0.1,0.5-0.2,0.7-0.4c0,0,0,0,0,0c0.2-0.2,0.4-0.3,0.6-0.5c0,0,0.1,0,0.1-0.1l57.9-57.9c0.9-0.9,1.4-2.1,1.4-3.4
	S156.5,95.3,155.6,94.4z M67.7,44.1L83,44.4L63.4,64L48,63.7L67.7,44.1z M69.1,93.9L48.5,73.3l14.8,0.3l24.2,24.2L63.4,122L48,121.7
	l21.1-21.1C71,98.7,71,95.7,69.1,93.9z M67.8,150.4l-19.2-19.2l14.8,0.3l19.2,19.2L67.8,150.4z M94.3,149l-22.2-22.2l25.6-25.6
	c1.9-1.9,1.9-4.9,0-6.7L72.1,68.8l22.2-22.2l51.2,51.2L94.3,149z"/>
</svg>
