<?xml version="1.0" encoding="utf-8"?>
<!-- Generator: Adobe Illustrator 23.1.0, SVG Export Plug-In . SVG Version: 6.00 Build 0)  -->
<svg version="1.1" id="Layer_1" xmlns="http://www.w3.org/2000/svg" xmlns:xlink="http://www.w3.org/1999/xlink" x="0px" y="0px"
	 viewBox="0 0 300 303.51" style="enable-background:new 0 0 300 303.51;" xml:space="preserve">
<style type="text/css">
	.st0{fill:#008FD5;}
	.st1{fill:#002A78;}
	.st2{fill:#001F5B;}
</style>
<g>
	<g>
		<g>
			<g>
				<path class="st0" d="M198.81,218.51h-21.53c-1.47,0-2.72,1.07-2.95,2.52l-8.7,55.2c-0.17,1.09,0.67,2.07,1.77,2.07h11.04
					c1.03,0,1.91-0.75,2.07-1.77l2.47-15.65c0.23-1.45,1.48-2.52,2.95-2.52h6.81c14.18,0,22.36-6.86,24.5-20.46
					c0.96-5.95,0.04-10.62-2.75-13.89C211.44,220.41,206.01,218.51,198.81,218.51z M201.29,238.67c-1.18,7.73-7.08,7.73-12.79,7.73
					h-3.25l2.28-14.43c0.14-0.87,0.89-1.51,1.77-1.51h1.49c3.89,0,7.56,0,9.45,2.21C201.38,234,201.72,235.96,201.29,238.67z"/>
				<path class="st1" d="M45.27,218.51H23.74c-1.47,0-2.72,1.07-2.95,2.52l-8.7,55.2c-0.17,1.09,0.67,2.07,1.77,2.07h10.28
					c1.47,0,2.72-1.07,2.95-2.52l2.35-14.89c0.23-1.45,1.48-2.52,2.95-2.52h6.81c14.18,0,22.36-6.86,24.5-20.46
					c0.96-5.95,0.04-10.62-2.75-13.89C57.9,220.41,52.47,218.51,45.27,218.51z M47.76,238.67c-1.18,7.73-7.08,7.73-12.79,7.73h-3.25
					L34,231.97c0.14-0.87,0.89-1.51,1.77-1.51h1.49c3.89,0,7.56,0,9.45,2.21C47.84,234,48.18,235.96,47.76,238.67z"/>
				<path class="st1" d="M109.61,238.42H99.31c-0.88,0-1.64,0.64-1.77,1.51l-0.45,2.88l-0.72-1.04c-2.23-3.24-7.21-4.32-12.18-4.32
					c-11.39,0-21.12,8.63-23.01,20.73c-0.99,6.04,0.41,11.81,3.84,15.84c3.15,3.7,7.63,5.24,12.98,5.24c9.18,0,14.27-5.9,14.27-5.9
					l-0.46,2.87c-0.17,1.09,0.67,2.08,1.77,2.08h9.28c1.47,0,2.72-1.07,2.95-2.52l5.57-35.29
					C111.56,239.41,110.72,238.42,109.61,238.42z M95.25,258.49c-1,5.89-5.67,9.84-11.63,9.84c-2.99,0-5.38-0.96-6.92-2.78
					c-1.52-1.81-2.1-4.38-1.62-7.24c0.93-5.84,5.68-9.92,11.55-9.92c2.93,0,5.3,0.97,6.87,2.81
					C95.08,253.05,95.7,255.64,95.25,258.49z"/>
				<path class="st0" d="M263.15,238.42h-10.31c-0.88,0-1.64,0.64-1.77,1.51l-0.45,2.88l-0.72-1.04c-2.23-3.24-7.21-4.32-12.18-4.32
					c-11.39,0-21.12,8.63-23.01,20.73c-0.99,6.04,0.41,11.81,3.84,15.84c3.15,3.7,7.63,5.24,12.98,5.24c9.18,0,14.27-5.9,14.27-5.9
					l-0.46,2.87c-0.17,1.09,0.67,2.08,1.77,2.08h9.28c1.47,0,2.72-1.07,2.95-2.52l5.57-35.29
					C265.09,239.41,264.25,238.42,263.15,238.42z M248.78,258.49c-1,5.89-5.67,9.84-11.63,9.84c-2.99,0-5.38-0.96-6.92-2.78
					c-1.52-1.81-2.1-4.38-1.62-7.24c0.93-5.84,5.68-9.92,11.55-9.92c2.93,0,5.3,0.97,6.87,2.81
					C248.62,253.05,249.24,255.64,248.78,258.49z"/>
				<path class="st1" d="M164.51,238.42h-10.36c-0.99,0-1.92,0.49-2.47,1.31l-14.29,21.05l-6.06-20.23
					c-0.38-1.27-1.54-2.13-2.87-2.13h-10.18c-1.23,0-2.1,1.21-1.7,2.37l11.41,33.49l-10.73,15.14c-0.84,1.19,0.01,2.83,1.46,2.83
					h10.35c0.98,0,1.9-0.48,2.46-1.29l34.46-49.73C166.81,240.05,165.96,238.42,164.51,238.42z"/>
				<path class="st0" d="M275.3,220.03l-8.84,56.21c-0.17,1.09,0.67,2.07,1.77,2.07h8.89c1.47,0,2.72-1.07,2.95-2.52l8.71-55.2
					c0.17-1.09-0.67-2.07-1.77-2.07h-9.94C276.19,218.51,275.44,219.16,275.3,220.03z"/>
			</g>
		</g>
	</g>
</g>
<g>
	<path class="st0" d="M217.56,63.71c2.18-13.89-0.02-23.35-7.53-31.91c-8.27-9.43-23.22-13.47-42.35-13.47h-55.51
		c-3.91,0-7.24,2.84-7.85,6.7L81.21,171.62c-0.46,2.89,1.78,5.51,4.71,5.51h34.27l-2.37,15c-0.4,2.53,1.56,4.82,4.12,4.82h28.89
		c3.42,0,6.33-2.49,6.86-5.87l0.28-1.47l5.44-34.51l0.35-1.91c0.53-3.38,3.44-5.87,6.86-5.87h4.32c27.98,0,49.9-11.37,56.3-44.25
		c2.68-13.74,1.29-25.21-5.78-33.27C223.32,67.37,220.66,65.36,217.56,63.71L217.56,63.71"/>
	<path class="st2" d="M217.56,63.71c2.18-13.89-0.02-23.35-7.53-31.91c-8.27-9.43-23.22-13.47-42.35-13.47h-55.51
		c-3.91,0-7.24,2.84-7.85,6.7L81.21,171.62c-0.46,2.89,1.78,5.51,4.71,5.51h34.27l8.61-54.59l-0.27,1.71
		c0.61-3.86,3.91-6.7,7.82-6.7h16.29c31.99,0,57.04-13,64.36-50.58C217.2,65.85,217.39,64.77,217.56,63.71"/>
	<path class="st1" d="M138.04,63.9c0.37-2.32,1.86-4.22,3.86-5.19c0.91-0.44,1.93-0.68,3-0.68h43.51c5.16,0,9.96,0.34,14.36,1.05
		c1.26,0.2,2.48,0.43,3.66,0.7s2.34,0.56,3.45,0.88c0.56,0.16,1.11,0.33,1.65,0.51c2.16,0.72,4.17,1.56,6.02,2.54
		c2.18-13.89-0.02-23.35-7.53-31.91c-8.27-9.43-23.22-13.47-42.35-13.47h-55.51c-3.91,0-7.24,2.84-7.85,6.7L81.21,171.62
		c-0.46,2.89,1.78,5.51,4.71,5.51h34.27l8.61-54.59L138.04,63.9z"/>
</g>
</svg>
