<svg xmlns="http://www.w3.org/2000/svg" width="2800" height="2800"><linearGradient id="a" gradientUnits="userSpaceOnUse" x1="1400" y1="2524.83" x2="1400" y2="0"><stop offset="0" stop-color="#ffffba"/><stop offset=".72" stop-color="#0070ad"/><stop offset="1" stop-color="#002863"/></linearGradient><path fill="url(#a)" d="M0 0h2800v2524.8H0z"/><g fill="#FFF"><circle transform="rotate(-32.085 187.82 669.92)" cx="187.8" cy="670" r="3.7"/><circle transform="rotate(-32.081 617.566 674.433)" cx="617.5" cy="674.4" r="3.7"/><circle transform="rotate(-32.085 320.311 377.522)" cx="320.3" cy="377.6" r="3.7"/><circle transform="rotate(-32.085 112.962 101.433)" cx="113" cy="101.4" r="3.7"/><circle transform="rotate(-32.081 320.392 1011.67)" cx="320.3" cy="1011.6" r="3.7"/><circle transform="rotate(-32.085 1202.607 954.773)" cx="1202.7" cy="954.8" r="3.7"/><circle transform="rotate(-32.081 1139.486 421.485)" cx="1139.4" cy="421.5" r="3.7"/><circle transform="rotate(-32.081 1139.485 138.106)" cx="1139.4" cy="138.1" r="3.7"/><circle transform="rotate(-32.081 1444.584 320.38)" cx="1444.5" cy="320.4" r="6"/><circle transform="rotate(-32.081 826.258 896.277)" cx="826.2" cy="896.2" r="3.7"/><circle transform="rotate(-32.085 659.797 1119.939)" cx="659.8" cy="1120" r="3.7"/><circle transform="rotate(-32.081 867.145 538.05)" cx="867.1" cy="538" r="3.7"/><circle transform="rotate(-32.085 2294.79 1326.113)" cx="2295" cy="1326.2" r="3.7"/><circle transform="rotate(-32.081 2365.52 801.657)" cx="2365.4" cy="801.6" r="3.7"/><circle transform="rotate(-32.081 2693.608 576.982)" cx="2693.5" cy="577" r="3.7"/><circle transform="rotate(-32.085 2148.62 510.729)" cx="2148.8" cy="510.8" r="3.7"/><circle transform="rotate(-32.081 705.828 366.259)" cx="705.8" cy="366.2" r="3.7"/><circle transform="rotate(-32.081 1340.84 670.028)" cx="1340.7" cy="670" r="3.7"/><circle transform="rotate(-32.081 1196.87 1401.956)" cx="1196.8" cy="1401.9" r="6"/><circle transform="rotate(-32.081 1785.85 1027.16)" cx="1785.7" cy="1027.1" r="3.7"/><circle transform="rotate(-32.081 1748.692 621.79)" cx="1748.5" cy="621.8" r="3.7"/><circle transform="rotate(-32.085 1582.042 845.487)" cx="1582.2" cy="845.5" r="3.7"/><circle transform="rotate(-32.085 2462.914 1089.565)" cx="2463" cy="1089.6" r="3.7"/><circle transform="rotate(-32.081 2723.505 1305.354)" cx="2723.2" cy="1305.3" r="3.7"/><circle transform="rotate(-32.085 1837.221 245.137)" cx="1837.4" cy="245.1" r="3.7"/><circle transform="rotate(-32.081 2508.783 83.225)" cx="2508.5" cy="83.2" r="3.7"/><circle transform="rotate(-32.085 2004.367 805.288)" cx="2004.5" cy="805.3" r="3.7"/><circle transform="rotate(-32.081 2457.97 362.54)" cx="2457.8" cy="362.5" r="6"/><circle transform="rotate(-32.085 2597.203 780.649)" cx="2597.4" cy="780.7" r="4.5"/><circle transform="rotate(-32.081 1833.044 785.23)" cx="1832.9" cy="785.2" r="4.5"/><circle transform="rotate(-32.081 2400.497 572.482)" cx="2400.3" cy="572.5" r="4.5"/><circle transform="rotate(-32.085 1284.7 308.038)" cx="1284.8" cy="308" r="4.5"/><circle transform="rotate(-32.081 1542.776 90.487)" cx="1542.7" cy="90.5" r="7.2"/><circle transform="rotate(-32.081 1898.355 433.222)" cx="1898.2" cy="433.2" r="7.2"/><circle transform="rotate(-32.081 2191.292 934.813)" cx="2191.1" cy="934.8" r="7.2"/><circle transform="rotate(-32.081 2205.792 205.608)" cx="2205.6" cy="205.6" r="7.2"/><circle transform="rotate(-32.081 87.547 382.027)" cx="87.5" cy="382" r="7.2"/><circle transform="rotate(-32.081 2672.29 1085.18)" cx="2672.1" cy="1085.1" r="4.5"/><circle transform="rotate(-32.081 2686.456 212.852)" cx="2686.2" cy="212.9" r="7.2"/><circle transform="rotate(-32.085 1535.28 1182.22)" cx="1535.4" cy="1182.3" r="4.5"/><circle transform="rotate(-32.085 1018.923 750.95)" cx="1019" cy="751" r="4.5"/><circle transform="rotate(-32.081 1535.503 673.392)" cx="1535.4" cy="673.4" r="7.2"/><circle transform="rotate(-32.081 1917.922 1175.138)" cx="1917.8" cy="1175.1" r="7.2"/><circle transform="rotate(-32.085 1026.16 1235.992)" cx="1026.3" cy="1236.1" r="7.2"/><circle transform="rotate(-32.081 507.228 493.56)" cx="507.2" cy="493.5" r="4.5"/><circle transform="rotate(-32.081 634.576 1043.125)" cx="634.5" cy="1043" r="4.5"/><circle transform="rotate(-32.081 428.03 138.11)" cx="428" cy="138.1" r="4.5"/><circle transform="rotate(-32.081 863.021 425.989)" cx="862.9" cy="426" r="7.2"/><circle transform="rotate(-32.085 895.233 124.375)" cx="895.3" cy="124.4" r="4.5"/><circle transform="rotate(-32.081 315.25 755.741)" cx="315.2" cy="755.7" r="7.2"/><circle transform="rotate(-32.081 102.038 1207.323)" cx="102" cy="1207.2" r="7.2"/><path d="M2212.8 357.7c0 17.4-14.1 31.6-31.6 31.6 17.4 0 31.6 14.1 31.6 31.6 0-17.4 14.1-31.6 31.6-31.6-17.5-.1-31.6-14.2-31.6-31.6zm-2025 510.7c0 17.4-14.1 31.6-31.6 31.6 17.4 0 31.6 14.1 31.6 31.6 0-17.4 14.1-31.6 31.6-31.6-17.4-.1-31.6-14.2-31.6-31.6zm1101.5 267.9c0 17.4-14.1 31.6-31.6 31.6 17.4 0 31.6 14.1 31.6 31.6 0-17.4 14.1-31.6 31.6-31.6-17.5-.1-31.6-14.2-31.6-31.6zm-715.6-955c0 17.4-14.1 31.6-31.6 31.6 17.4 0 31.6 14.1 31.6 31.6 0-17.4 14.1-31.6 31.6-31.6-17.5 0-31.6-14.2-31.6-31.6z"/></g><linearGradient id="b" gradientUnits="userSpaceOnUse" x1="1400" y1="2800" x2="1400" y2="1297.382"><stop offset="0" stop-color="#53bd84"/><stop offset=".559" stop-color="#005e95"/><stop offset="1" stop-color="#00325f"/></linearGradient><path opacity=".6" fill="url(#b)" d="M0 1386.2c58 6.3 144.5 9.5 245-12 129.4-27.7 154.2-69.1 240-76 133-10.7 183.6 80 344 148 196.1 83.2 383.8 59.2 472 48 260.7-33.2 335.8-153.1 560-120 82 12.1 116.3 34.7 180 56 153.5 51.3 391.9 66.4 759-104V2800H0V1386.2z"/><linearGradient id="c" gradientUnits="userSpaceOnUse" x1="1400" y1="2800" x2="1400" y2="1448.955"><stop offset="0" stop-color="#53bd84"/><stop offset=".559" stop-color="#005e95"/><stop offset="1" stop-color="#00325f"/></linearGradient><path opacity=".6" fill="url(#c)" d="M2800 1590.8c-149-73.1-263.3-77.3-340.9-67.2-150.5 19.6-220 100.7-352 66.3-73.9-19.3-103.5-58.1-168-44.8-68.7 14.2-70.2 65.4-145.6 89.6-78.2 25.1-113.7-18.2-204.4-8.4-89.8 9.7-117.4 59-187.6 92.4-195.3 93-476.6-52.8-666.4-151.2-149.8-77.7-189.5-125.8-282.8-117.6-92.1 8.1-138.9 62.7-277.2 84-72.7 11.2-134.2 7.7-175.2 2.8V2800h2800V1590.8z"/><linearGradient id="d" gradientUnits="userSpaceOnUse" x1="1400" y1="2800" x2="1400" y2="1657.955"><stop offset="0" stop-color="#53bd84"/><stop offset=".559" stop-color="#005e95"/><stop offset="1" stop-color="#00325f"/></linearGradient><path opacity=".6" fill="url(#d)" d="M0 1658c98.7 46.1 247.9 101.1 437 114.7 89.7 6.4 116.5-1.6 228 3.5 240.8 10.9 307.1 57.1 468 73 249 24.6 250.8-70 588-86.9 250.7-12.5 298.4 37.4 560 31.3 223.2-5.2 403.2-46.5 519-79.9V2800H0V1658z"/><path fill="#1C164A" d="M1505.9 2189.8l-6.1-5.7-14.7 18.6-26.9 15.8-3.4 6.7-3.9 2.1-4.7-2.6-34.4.5-24-3.1.5-2-18.1-28.1-42.2-79.3 5.4-18.7-11.4-13-33-8.1-13.8-7.9-39-11.8-13.5-1.1.9-2.1 8.1-3.4 8.4.2 2.9-2.6-1.6-7 1.1-2.3-.3-1.6-1.8-.6-.4-2.5 3.1-1.8.3-2.4-1.3-3.1 4.7-2.5.9-2.8-10.4-11.7.4-5.7-5-9.3.8-4-.7-3.8c-.4-2.5-2.2-4.6-4.6-5.4l-8.5-2.8c-3.2-1-6.6-1.4-9.9-.9l-18.3 2.5c-1.3.2-2.5.9-3.3 1.9l-5.5 7.2c-4.8 6.3-7.4 14-7.4 21.9v.3c0 6.9 2 13.6 5.7 19.5l8.3 12.9-5.2 12.3-6.3.2-14.9 19.6-18.9 24v23.1l-1.6 22.6-16.8 58.2-5.4 22.5 2.7 4.1-5.4 9.2-10.8 3.8h-18.3l-15.2 10v3.2l5.5-1.9.8 2.4 6.6-2.8 7.4-.9.4 2.3 2.6 1.5 8-1.9h18l8.9-5.8 7.8-15 4.1-.9 17.8-40.3 5 32.6 10.6 3.9 11.6 18.5 40.2 15 79.8-3.5h50.1v7l19.8 3.2 4.9-3.5 21.1 6.5h32.2l4.1-7.3-15.3-6.9 34.6 1.5 13.8 5.4 6.8 1.7 8-18.4-2.2-5.6 11.4-18.9 8.3-31.1zm-229.7-68.4l-19.2 29.8-4.6-43.3 15.7-6.5 21.4 7.8-13.3 12.2zm52.9 95l-13-1.3-18.8-6.5 10.6-34.5 13.8 22.7 21.9 22.6-14.5-3z"/><linearGradient id="e" gradientUnits="userSpaceOnUse" x1="1730.506" y1="2228.977" x2="1730.506" y2="1904.507"><stop offset="0" stop-color="#ffff69"/><stop offset="1" stop-color="#ff4545"/></linearGradient><path fill="url(#e)" d="M1736.9 1904.5c-6.7 97.6-103.7 112.5-103.7 198.1 0 94 103.7 126.4 103.7 126.4s138-51.1 73.9-169.5c0 0-4.8 30.4-36.7 48.5 0 0 70.4-92.5-37.2-203.5z"/><linearGradient id="f" gradientUnits="userSpaceOnUse" x1="1732.928" y1="2228.977" x2="1732.928" y2="2045.355"><stop offset="0" stop-color="#fff"/><stop offset="1" stop-color="#fff94d"/></linearGradient><path fill="url(#f)" d="M1737.8 2045.4s-107.6 59.6-30.7 183.6h62.2s35.9-44.5 3.9-91.8c0 0-1.7 37.4-25.1 46.9 15.4-59.8-26.1-64.3-10.3-138.7z"/><path fill="#212F69" d="M1798.8 2190h-136.6c-27.8 0-50.4 22.5-50.4 50.4v18.5c0 27.8 22.5 50.4 50.4 50.4h136.6c27.8 0 50.4-22.5 50.4-50.4v-18.5c0-27.8-22.6-50.4-50.4-50.4z"/><path fill="#1C164A" d="M1798.8 2205.9h-136.6c-27.8 0-50.4 19.6-50.4 43.7v16.1c0 24.1 22.5 43.7 50.4 43.7h136.6c27.8 0 50.4-19.6 50.4-43.7v-16.1c0-24.2-22.6-43.7-50.4-43.7z"/><path fill="#212F69" d="M1649.1 2217.1h-74.6c-15.2 0-27.5 12.3-27.5 27.5v10.1c0 15.2 12.3 27.5 27.5 27.5h74.6c15.2 0 27.5-12.3 27.5-27.5v-10.1c0-15.2-12.3-27.5-27.5-27.5zm237.4 0h-74.6c-15.2 0-27.5 12.3-27.5 27.5v10.1c0 15.2 12.3 27.5 27.5 27.5h74.6c15.2 0 27.5-12.3 27.5-27.5v-10.1c0-15.2-12.3-27.5-27.5-27.5z"/><path fill="#1C164A" d="M1649.1 2225.7h-74.6c-15.2 0-27.5 10.7-27.5 23.9v8.8c0 13.2 12.3 23.9 27.5 23.9h74.6c15.2 0 27.5-10.7 27.5-23.9v-8.8c0-13.2-12.3-23.9-27.5-23.9zm237.4 0h-74.6c-15.2 0-27.5 10.7-27.5 23.9v8.8c0 13.2 12.3 23.9 27.5 23.9h74.6c15.2 0 27.5-10.7 27.5-23.9v-8.8c0-13.2-12.3-23.9-27.5-23.9zm38.6 36.4l4.1 7.3h32.2l21.1-6.5 4.9 3.5 19.8-3.2v-7h50.1l79.8 3.5 40.2-15 11.6-18.5 10.6-3.9 5.3-34.1 8.5-34.7 12 25.8 16.4 50.7 4.1.9 7.8 15 8.9 5.8h18l8 1.9 2.6-1.5.4-2.3 7.4.9 6.6 2.8.8-2.4 5.5 1.9v-3.2l-15.2-10h-18.3l-10.8-3.8-5.4-9.2 2.7-4.1-5.4-22.5-16.8-58.2-1.6-22.6v-23.1l-25.2-30.8-28-12.8 3.2-12.5 3.7-2 3.6-11.5-1.1-2.8-2.6 1.2v-12.2l-3.9-11.8-10.8-8.9-11.4-1.4-9 1.4-10.1 6.6-6.2 14.5v11.2l-3.4-.8-1 1.6 4.5 14 2.2 1.6 1.8 10.8-17.5 1.4-39 11.8-13.8 7.9-33 8.1-11.4 13 5.4 18.7-42.2 79.3-18.1 28.1 1.4 5.1-3 3.2-7.3 1.6-21.9 22.2-21.8 10zm164.7-140.7l-13.3-12.2 21.4-7.8 15.7 6.5-4.6 43.3-19.2-29.8zM2018 2224l26.4-27.2 13.8-22.7 10.6 34.5 7.8 13-20.4 2.4-7.7-6.5-30.5 6.5z"/><g fill="#212F69"><path d="M2147.6 2040.7v-.1c-.1-.6-.4-1.1-.9-1.4l-1.7-1.2-4.1-11.9 1.7.4h.5c1 0 1.7-.8 1.7-1.8l-.3-11c1.9-4.7 3.7-9.4 5.5-14.1 3.2-2.3 6.4-4.5 9.6-6.8l8.8-1.7-9.1.9h-.1c-3.5 2.1-6.9 4.1-10.4 6.2l-.3.3v.1c-2.3 4.7-4.5 9.5-6.7 14.3-.1.1-.1.3-.1.5v.1l-.3 8.9-1.3-.3c-.7-.2-1.6.1-2 .8l-.1.1-1.1 1.6c-.3.4-.4 1-.2 1.5v.1l4.1 14.1c.1.4.4.8.8 1.1l.1.1 1.4 1 1 6.9-14.6.9c-.2 0-.4 0-.5.1h-.1l-19.6 5.5-19.5 5.7c-.2.1-.5.2-.7.3h-.1l-13.4 7.5c-5.4 1.2-10.7 2.5-16.1 3.8l-16.5 4c-.7.2-1.4.6-2 1.2l-11.4 12.9c-.8 1-1.2 2.4-.8 3.7 1.6 5.7 3.3 11.4 5 17.1l-9.7 18.4-5.2 9.9-5.2 10-10.3 19.9c-3.5 6.6-6.8 13.3-10.2 19.9l-8.7 14.1c-3 4.7-5.8 9.5-8.7 14.3l-.1.1c-.3.5-.4 1.2-.2 1.8l1.1 3.9-1.6 1.8-6.5 1.6h-.1c-.3.1-.6.3-.9.5l-10.6 11.4c-3.5 3.8-7 7.5-10.5 11.4l-10.4 5.2-10.6 5.4 11-4.4 11-4.4c.1 0 .2-.1.2-.2l.1-.1c3.8-3.5 7.6-7.1 11.3-10.7l10.8-10.3 6.8-1.3c.4-.1.8-.3 1.1-.6l.1-.1 3.1-3.2c.5-.5.7-1.3.6-2v-.1l-1-4.1c2.9-4.3 5.9-8.7 8.8-13l9.3-13.9.1-.1.1-.1c3.6-6.5 7.3-13.1 10.9-19.7l10.8-19.7 5.4-9.9 5.3-9.9 10.6-19.8c.5-.9.6-1.9.3-2.9-1.6-5.5-3.2-11.1-4.8-16.6l9.1-10.5 15.3-3.8c5.5-1.4 11-2.7 16.5-4.2h.1c.3-.1.6-.2.9-.4l13.4-7.9 19-6 19.1-6.1 17.1-1.7h.3c1.4-.3 2.3-1.7 2.1-3.1l-2.6-10.2z"/><path d="M2114.9 2104.8c-1.4-.4-2.7-.8-4.1-1.1-1.4-.4-2.8-.7-4.2-1-2.8-.6-5.7-1.1-8.7-1.3 2.2 2 4.6 3.6 7 5.2 1.2.8 2.4 1.5 3.7 2.3.4.3.9.5 1.3.7-1.2 6.5-2 13-2.3 19.5-.2 3.6-.2 7.3 0 10.9.2 3.7.5 7.4 1.4 11.1 1.6-3.5 2.7-7 3.7-10.6 1-3.5 1.7-7.1 2.3-10.7 1.2-7.2 1.9-14.4 1.9-21.7v-.7c.1-1.1-.7-2.2-2-2.6zm-35.4 115c-1.1-2.3-2.3-4.5-3.5-6.7-1.1-2.1-2.3-4.1-3.5-6.1l-1.2-3.8c-.5-1.4-1-2.9-1.5-4.3-1-2.8-2.1-5.6-3.3-8.4-1.2-2.8-2.4-5.6-3.8-8.3-1.4-2.7-2.8-5.4-4.5-8.1 0 3.1.4 6.2.8 9.2.4 3 .9 6 1.5 9s1.3 5.9 2 8.8c.4 1.5.8 2.9 1.2 4.4l1.3 4.3c.1.3.2.6.4.9 1.3 2.2 2.7 4.3 4.1 6.4.5.8 1 1.5 1.6 2.3-1.6.4-3.2.8-4.8 1.3-1.7.5-3.3 1-5 1.5-1.7.6-3.3 1.2-5 1.9 1.8.3 3.5.5 5.3.6 1.7.1 3.5.2 5.2.3 1.7.1 3.5.1 5.2.1 1.7 0 3.4 0 5.2-.1.4 0 .9-.1 1.3-.3 1.6-.8 2.2-2.7 1.4-4.3l-.4-.6z"/></g><path d="M1400.1 2222.8c-3.3-.7-6.6-1.3-10-1.9l.1-.3c.1-.4.1-.8-.1-1.2l-.1-.2c-2.7-4.9-5.6-9.7-8.4-14.5-1.4-2.4-2.8-4.8-4.3-7.2l-4.2-7c-3.3-6.7-6.7-13.4-10.1-20-3.4-6.7-6.9-13.3-10.3-19.9l-10.5-19.8c-3.3-6.2-6.7-12.3-10-18.4l2.1-7.9 2.5-9.4v-.2c.3-1 0-2.1-.8-3-3.9-4.2-7.8-8.4-11.8-12.6l-.1-.1c-.3-.4-.8-.6-1.3-.7-5.5-1.2-11.1-2.2-16.7-3.4-2.8-.6-5.6-1.1-8.4-1.6l-8.3-1.5c-4.7-2.3-9.4-4.6-14.2-6.8 4.4 3.1 8.8 6 13.2 8.9.1 0 .1.1.2.1h.1l8.1 2.5c2.7.8 5.4 1.7 8.1 2.5 5.1 1.5 10.2 3 15.4 4.5 3.1 3.8 6.1 7.5 9.2 11.2l-2.4 7.6-2.9 9.3c-.3.9-.2 1.8.2 2.7l.1.1c3.4 6.7 6.9 13.3 10.4 19.9 3.5 6.6 7 13.2 10.6 19.8 3.6 6.6 7.2 13.1 10.8 19.7 3.6 6.5 7.3 13.1 11 19.6l.1.2v.1l4.8 6.9 4.8 6.9c3.1 4.4 6.2 8.8 9.3 13.1l-.2 1.2v.4c-.1.9.6 1.6 1.5 1.7 4 .3 8.1.6 12.1.8 2 .1 4 .3 6.1.3l6.1.3-5.9-1.3c-2-.6-4-1-5.9-1.4zm106.4-33.6c-2.2-1.8-4.4-3.5-6.6-5.2 1.7 2 3.4 4 5.2 5.9-.8 2.4-1.6 4.9-2.3 7.3-.8 2.6-1.5 5.1-2.3 7.7l-2.2 7.8c-.7 2.5-1.3 5-2 7.5l-2.7 4.5-2.8 4.7c-1.9 3.1-3.7 6.4-5.5 9.6v.1c-.2.4-.3 1-.1 1.4.7 1.7 1.5 3.3 2.2 5-.5 1.3-1 2.7-1.5 4.1-.6 1.6-1.2 3.1-1.7 4.7s-1.1 3.2-1.6 4.7l-1.5 4.8c.8-1.5 1.7-2.9 2.5-4.4.8-1.5 1.6-3 2.4-4.4.8-1.5 1.5-3 2.3-4.5.8-1.5 1.5-3 2.2-4.5.1-.3.2-.7.1-1v-.1c-.6-1.6-1.1-3.2-1.7-4.8 1.8-2.9 3.7-5.7 5.5-8.7l2.9-4.7c1-1.6 1.9-3.2 2.8-4.7.1-.2.2-.3.2-.5.6-2.6 1.3-5.2 1.9-7.8l1.8-7.9c.5-2.6 1.1-5.3 1.6-7.9.5-2.6 1-5.3 1.5-7.9v-.1c-.4-.3-.4-.5-.6-.7zm-176.9 24.7h-.3c-2.1-.5-4.3-.9-6.4-1.3-1.1-.2-2.1-.4-3.2-.6l-2.6-.4c-3-1.2-6-2.4-9.1-3.5-1.6-.5-3.1-1.1-4.7-1.6-.4-.1-.8-.3-1.2-.4.4-1.7.9-3.3 1.3-5 .7-2.9 1.4-5.9 2-8.8.6-3 1.1-5.9 1.6-9 .4-3 .8-6 1-9.1-1.6 2.7-3 5.4-4.3 8.1-1.3 2.7-2.5 5.5-3.7 8.3-1.2 2.8-2.3 5.6-3.3 8.4-1 2.8-2 5.7-3 8.5-.6 1.9.4 4.1 2.3 4.8l.2.1c1.6.6 3.1 1.1 4.7 1.7 1.6.6 3.1 1.1 4.7 1.6 3.1 1 6.3 2 9.5 2.9l.4.1c.1 0 .3.1.4.1l3.3.1c1.1.1 2.2.1 3.3.1 2.2 0 4.4.1 6.6 0h-.3c2.5.2 5 .4 7.5.5 2.5.1 5 .1 7.5.1-2.3-1.1-4.6-2.1-6.9-3-2.6-1.1-4.9-1.9-7.3-2.7zm-80.4-197.1c-3.3-3.8-6.7-7.5-10-11.2l.3-5.1v-.1c0-.2 0-.5-.2-.7l-4.9-8.9.7-3.5v-.5l-.7-3.7c-.2-1.4-.9-2.8-1.9-3.8-1-1.1-2.2-1.9-3.6-2.3l-3.6-1.1-3.6-1c-1.2-.3-2.5-.7-3.7-.9-2.5-.4-5.1-.4-7.6.1 2.5-.2 5 0 7.4.7 1.2.3 2.3.7 3.5 1.2l3.5 1.3 3.6 1.3c1 .4 2 1.1 2.6 1.9.7.9 1.1 1.9 1.2 3l.5 3.5-.9 3.8c-.1.3 0 .5.1.8l4.6 9c-.2 1.8-.3 3.5-.4 5.3 0 .4.1.8.4 1.1 3.3 3.7 6.5 7.4 9.8 11l-.5 1.4-4.2 2.2c-.6.3-.9 1.1-.6 1.8l1.2 2.7-.2 1.3-2.5 1.5c-.4.3-.7.8-.6 1.3l.4 2.5c.1.5.4.8.9 1l1.1.3.1.5-.9 1.9c-.1.2-.1.5-.1.7l1.6 6.4-2.2 2c-2.7 0-5.4.1-8.1.1h-.2c-2.7 1.3-5.3 2.5-8 3.8l-.1.1-.8 2.2 1-2 8.1-3c2.8.2 5.6.4 8.3.5.2 0 .4-.1.6-.2l3-2.5c.3-.2.4-.6.3-.9v-.1l-1.3-6.6 1-1.9c.1-.2.2-.5.1-.7v-.1l-.3-1.6c-.1-.4-.4-.8-.8-.9l-1-.3-.1-.9 2.4-1.4c.3-.2.6-.5.7-1l.3-2.4c0-.2 0-.5-.1-.7l-.8-1.9 3.5-1.9c.3-.2.6-.5.7-.8l.9-2.8c.6.1.5-.4.1-.8zm6 86.8c-1.4.4-2.8.7-4.1 1.1-1.2.3-2.1 1.5-2.1 2.8v.7c.1 7.3.7 14.5 1.9 21.7.6 3.6 1.4 7.2 2.3 10.7 1 3.5 2.1 7.1 3.7 10.6.8-3.7 1.2-7.4 1.4-11.1.2-3.7.2-7.3 0-10.9-.3-6.6-1.1-13.1-2.3-19.5.4-.2.9-.5 1.3-.7 1.2-.7 2.5-1.5 3.7-2.3 2.4-1.6 4.8-3.2 7-5.2-3 .2-5.8.7-8.7 1.3-1.3.2-2.7.5-4.1.8z" fill="#212F69"/><path opacity=".5" fill="#1C164A" d="M1972 1980.7v-65l-45.4 8.1v59.4c-3.1-2.5-8.1-3.4-13.2-2-7.4 2-12.3 7.9-10.8 13.2 1.4 5.3 8.6 8.1 16 6.1 6.7-1.8 11.3-6.8 11.1-11.7v-54.9l39.5-7v48.3c-3.1-2.5-8.1-3.4-13.2-2-7.4 2-12.3 7.9-10.8 13.2s8.6 8.1 16 6.1c6.4-1.8 11-6.9 10.8-11.8zM1679.4 1598v-55.6l-38.9 6.9v50.8c-2.6-2.1-6.9-2.9-11.3-1.7-6.3 1.7-10.5 6.7-9.3 11.3 1.2 4.6 7.3 6.9 13.7 5.2 5.7-1.5 9.7-5.8 9.5-10v-47l33.8-6v41.3c-2.6-2.1-6.9-2.9-11.3-1.7-6.3 1.7-10.5 6.7-9.3 11.3s7.3 6.9 13.7 5.2c5.6-1.5 9.6-5.8 9.4-10zm-108 261.8c-12.1-5.1-17.4-12.9-17.4-22l-4.3.8v85.6c-4.4-3.6-11.7-4.9-19.1-2.9-10.7 2.8-17.7 11.4-15.6 19 2 7.7 12.3 11.6 23 8.8 9.7-2.6 16.3-9.8 16-16.9v-71.7c4.5 5.8 14 2.2 18.9 8.7 6 8 .4 15.4.4 15.4 6.4-2.6 10.2-19.7-1.9-24.8zm253-131.2c-10.3-4.4-14.9-11-14.9-18.8l-3.7.7v73.1c-3.8-3-10-4.2-16.3-2.5-9.1 2.4-15.1 9.7-13.4 16.3 1.7 6.6 10.6 9.9 19.7 7.5 8.3-2.2 14-8.4 13.6-14.4v-44.2c3.8 4.9 12 1.9 16.2 7.5 5.1 6.9.4 13.2.4 13.2 4.6-2 7.6-12.8 2.1-18.7 4-4.6 5.2-15.9-3.7-19.7zm0 17.1c-9.2-3.9-13.8-9.6-14.7-16.3 3.9 4.6 11.9 1.7 16 7.2 3.2 4.3 2.6 8.3 1.6 10.8-.8-.6-1.7-1.2-2.9-1.7z"/><path fill="#1C164A" d="M0 2249.7h2800V2800H0zm1058 0l-151.8-167.1L529 1667.3l-377.2 415.3L0 2249.7l160.8-137.2 41 137.2h654.4l41.1-137.2zm1742 0l-157.3-172.5 52.1 17.3-26.1-47.9 103.8 20.6-154-168.9 43.3 14.4-20.5-37.6 81.4 16.2-138.5-151.9 48.7 16.2-15.5-28.5 61.8 12.2-115.1-126.1 40.8 13.5-10.8-19.7 42.7 8.5-85.2-93.5 50.5 15.8-60-103.9-60.1 103.9 50.5-15.8-85.2 93.5 42.7-8.5-10.8 19.7 40.8-13.5-115.1 126.1 61.8-12.2-15.5 28.5 48.7-16.2-138.5 151.9 81.4-16.2-20.5 37.6 43.3-14.4-154 168.9 103.8-20.6-26.1 47.9 52.1-17.3-157.3 172.5z"/><path d="M2542.1 1433.9l-60.1 103.9 14.2-4.4zm-61.1 464.4l-24.9 10.4-144.5 158.5 54.4-10.8zm-69.6 155.7l-22.1 40.5 36.1-12 15.6-35.9zm17.5 36.9l-144.8 158.8h52.2l125.4-172.5zm10.7-210l-17.3 31.8 28.3-9.4 12.3-28.2zm84.8-267.7l-7.2 3-112.3 123.1 32.4-6.4zm10-91.2l-3 1.2-84.1 92.3 22.4-4.5zm-46.1 88l-9.1 16.7 14.9-4.9 6.4-14.8zm20.1 129.4l-13.7 5.7-133.3 146.2 42.7-8.5zm-44.1-7.9l-13.1 24.1 21.5-7.2 9.2-21.3z" fill="#212F69"/><path fill="#1C164A" d="M2800 2249.7v-924l-68 117.8 57.2-18-96.6 105.9 48.4-9.6-12.1 22.3 46.1-15.3-130.3 142.9 70-13.9-17.6 32.3 55.1-18.3-156.8 172 92.2-18.3-23.2 42.5 49-16.2L2539 2043l117.6-23.3-29.6 54.2 59-19.6-178.1 195.4z"/><path d="M2800 1325.7l-68 117.8 16.1-5.1zm-69.1 526.1l-28.2 11.7L2539 2043l61.7-12.2zM2652 2028l-25 45.9 40.9-13.6 17.7-40.6zm19.9 41.8l-164 179.9h59l142.1-195.4zm12.1-237.7l-19.6 35.9 32-10.6 13.9-31.9zm96-303.3l-8.1 3.4-127.2 139.5 36.7-7.3zm11.4-103.3l-3.4 1.4-95.4 104.5 25.4-5zm-52.2 99.8l-10.3 18.8 16.8-5.6 7.3-16.7zm22.7 146.5l-15.6 6.4-150.9 165.6 48.3-9.6zm-49.9-9l-14.9 27.3 24.3-8.1 10.5-24.2z" fill="#212F69"/><path fill="#1C164A" d="M0 2249.7l157.3-172.5-52.1 17.3 26.1-47.9-103.8 20.6 154-168.9-43.3 14.4 20.5-37.6-81.4 16.2 138.5-151.9-48.7 16.2 15.5-28.5-61.8 12.2 115.1-126.1-40.8 13.5 10.8-19.7-42.7 8.5 85.2-93.5-50.5 15.8 60-103.9 60.1 103.9-50.5-15.8 85.2 93.5-42.7-8.5 10.8 19.7-40.8-13.5 115.1 126.1-61.8-12.2 15.5 28.5-48.7-16.2 138.5 151.9-81.4-16.2 20.5 37.6-43.3-14.4 154 168.9-103.8-20.6 26.1 47.9-52.1-17.3 157.3 172.5z"/><path d="M257.9 1433.9l60.1 103.9-14.2-4.4zm61.1 464.4l24.9 10.4 144.5 158.5-54.4-10.8zm69.6 155.7l22.1 40.5-36.1-12-15.6-35.9zm-17.5 36.9l144.8 158.8h-52.2l-125.4-172.5zm-10.7-210l17.3 31.8-28.3-9.4-12.3-28.2zm-84.8-267.7l7.2 3 112.3 123.1-32.4-6.4zm-10-91.2l3 1.2 84.1 92.3-22.4-4.5zm46.1 88l9.1 16.7-14.9-4.9-6.4-14.8zm-20.1 129.4l13.7 5.7 133.3 146.2-42.7-8.5zm44.1-7.9l13.1 24.1-21.5-7.2-9.2-21.3z" fill="#212F69"/><path fill="#1C164A" d="M0 2249.7v-924l68 117.8-57.2-18 96.6 105.9-48.4-9.6 12.1 22.3-46.1-15.3 130.3 142.9-70-13.9 17.6 32.3-55.1-18.3 156.8 172-92.2-18.3 23.2 42.5-49-16.2L261 2043l-117.6-23.3 29.6 54.2-59-19.6 178.1 195.4z"/><path d="M0 1325.7l68 117.8-16.1-5.1zm69.1 526.1l28.2 11.7L261 2043l-61.7-12.2zM148 2028l25 45.9-40.9-13.6-17.7-40.6zm-19.9 41.8l164 179.9h-59L91 2054.3zM116 1832.1l19.6 35.9-32-10.6-13.9-31.9zm-96-303.3l8.1 3.4 127.2 139.5-36.7-7.3zM8.6 1425.5l3.4 1.4 95.4 104.5-25.4-5zm52.2 99.8l10.3 18.8-16.8-5.6-7.3-16.7zm-22.7 146.5l15.6 6.4 150.9 165.6-48.3-9.6zm49.9-9l14.9 27.3-24.3-8.1-10.5-24.2z" fill="#212F69"/><radialGradient id="g" cx="1732.928" cy="2065.427" r="695.573" gradientUnits="userSpaceOnUse"><stop offset="0" stop-color="#fff"/><stop offset="1" stop-color="#fff" stop-opacity="0"/></radialGradient><circle opacity=".3" fill="url(#g)" cx="1732.9" cy="2065.4" r="695.6"/></svg>