<svg xmlns="http://www.w3.org/2000/svg" xmlns:xlink="http://www.w3.org/1999/xlink" viewBox="0 0 750 500"><defs><linearGradient id="linear-gradient" x1="375" y1="1.27" x2="375" y2="-295.98" gradientTransform="matrix(1 0 0 -1 0 412.96)" gradientUnits="userSpaceOnUse"><stop offset="0" stop-color="#5277bd"/><stop offset=".03" stop-color="#4e6eb0"/><stop offset=".08" stop-color="#465c95"/><stop offset=".15" stop-color="#404f82"/><stop offset=".21" stop-color="#3c4877"/><stop offset=".28" stop-color="#3b4573"/><stop offset=".64" stop-color="#222a4a"/><stop offset=".83" stop-color="#0f1f3b"/><stop offset=".88" stop-color="#0d1b33"/><stop offset=".94" stop-color="#070f1f"/><stop offset="1" stop-color="#000004"/></linearGradient><linearGradient id="linear-gradient-2" x1="413.18" y1="-113" x2="358.28" y2="-53.88" gradientTransform="matrix(1 0 0 -1 0 412.96)" gradientUnits="userSpaceOnUse"><stop offset="0" stop-color="#fff"/><stop offset="1" stop-color="#fff" stop-opacity="0"/></linearGradient><linearGradient id="linear-gradient-3" x1="375" y1="414.72" x2="375" y2="2.89" xlink:href="#linear-gradient"/><linearGradient id="linear-gradient-4" x1="207.75" y1="144.39" x2="274.87" y2="69.87" xlink:href="#linear-gradient-2"/><linearGradient id="linear-gradient-5" x1="420.59" y1="258.9" x2="349.09" y2="335.9" xlink:href="#linear-gradient-2"/><linearGradient id="linear-gradient-6" x1="-289.34" y1="1.27" x2="-289.34" y2="-295.98" xlink:href="#linear-gradient"/><linearGradient id="linear-gradient-7" x1="-289.34" y1="414.72" x2="-289.34" y2="2.89" xlink:href="#linear-gradient"/><clipPath id="clip-path"><path class="cls-1" d="M0 0h750v500H0z"/></clipPath><clipPath id="clip-path-2"><path class="cls-1" d="M0 412.96h750v298.07H0z"/></clipPath><clipPath id="clip-path-3"><path class="cls-1" d="M0 0h750v412.96H0z"/></clipPath><clipPath id="clip-path-4"><path class="cls-1" d="M-539.34 0h500v500.46h-500z"/></clipPath><clipPath id="clip-path-5"><path class="cls-1" d="M-664.34 412.96h750v298.07h-750z"/></clipPath><clipPath id="clip-path-6"><path class="cls-1" d="M-664.34 0h750v412.96h-750z"/></clipPath><radialGradient id="radial-gradient" cx="373" cy="23.81" r="533.19" gradientTransform="matrix(1 0 0 -.72 0 412.81)" xlink:href="#linear-gradient"/><radialGradient id="radial-gradient-3" cx="384" cy="300.6" r="277.27" gradientTransform="matrix(1 0 0 2.06 0 -439.73)" xlink:href="#linear-gradient-2"/><radialGradient id="radial-gradient-5" cx="373" cy="436.98" r="533.19" xlink:href="#linear-gradient"/><radialGradient id="radial-gradient-7" cx="-291.34" cy="23.81" r="533.19" gradientTransform="matrix(1 0 0 -.72 0 412.81)" xlink:href="#linear-gradient"/><radialGradient id="radial-gradient-9" cx="-291.34" cy="436.98" r="533.19" xlink:href="#linear-gradient"/><symbol id="New_Symbol" data-name="New Symbol" viewBox="0 0 1.12 1.12"><circle cx=".56" cy=".56" r=".56" fill="#519ef2"/></symbol><style>.cls-1{fill:none}.cls-9{fill:#000001}.cls-11{fill:#fff}.cls-12{fill:#ffde39}</style></defs><g style="isolation:isolate"><g clip-path="url(#clip-path)" id="Background_1" data-name="Background 1"><g clip-path="url(#clip-path-2)"><path fill="url(#linear-gradient)" d="M0 412.96h750v298.07H0z"/><path style="mix-blend-mode:screen" fill="url(#radial-gradient)" opacity=".5" d="M0 412.96h750v298.07H0z"/><path style="mix-blend-mode:overlay" opacity=".9" fill="url(#radial-gradient)" d="M0 412.96h750v298.07H0z"/><path class="cls-9" d="M750 511.15s-23 11.16-34.3 11.16-34.36-19.85-40.36-20.21-22-3.25-23.5-3.61-2-2.52-4-2.89-15.58-4.21-18.08-4.57-13-12.63-15-12.63-37-3.25-40-4.33-17.5-12.27-20-12.63-6 .72-8 0-4.5-2.17-6-2.89-17.5-7.22-19-7.22-4-6.13-4-6.13h-8.5l-6.5-5.78h-4.5s-4-6.13-7-6.13-9 1.08-10.5 0-10.42 2.41-11.42 1.32-8.5 2.17-10 2.17-17-10.11-19.5-10.47-23.5 3.61-26 3.25-15.5-9.38-17.5-9-16 7.22-18 6.86-5-2.53-6.5-2.53-14 3.25-15.5 3.25-13-3.61-15-3.61-30.5 8.3-32 7.94-7.5-3.61-9.5-4-10.5 3.25-10.5 3.25l-16.5-.72s-12.5 5.77-14 5.77-6-.72-6-.72l-13.5 4.33s-5 .36-6.5 0-15.5 5.05-17 5.41-7 5.05-9 5.42-9-.73-9-.73-12-2.52-14-2.88-17.5 2.88-19 2.88-14.5 9.39-16.5 10.11-18.5-5.41-20-5.05-27.5 16.23-31 15.87-11 1.08-13 0-28 10.47-31 10.47-22.5-7.94-27-8.66S0 492.72 0 492.72V413h750z"/><path d="M475.32 433.05a24.54 24.54 0 01-6.86 6.31c-3.06 1.71-6.88 2.5-10.34 3.75s-6.84 3.25-7.43 6c-.35 1.58.26 3.27-.61 4.74-1.19 2-4.68 2.88-5.82 4.89s.42 4.11.64 6.21-2.71 4.68-5 3.42c1.1-.72-1.07-1.85-2.37-1.35s-2 1.63-3.33 2.08c-2.18.71-5.83-.26-6.43 1.41-.24.67.33 1.33.53 2 .52 1.73-1.52 3.38-3.79 4s-4.79.68-7.17 1.12c-6.51 1.2-11.4 5.94-11.14 10.79.09 1.78.77 3.69-.37 5.27-2.19 3-9.72 3.54-11.29 6.76-1.2 2.44-4.88 4.12-8.45 3.85a3.22 3.22 0 00-2.15.25c-.47.39-.29 1-.34 1.47-.13 1.18-1.64 2.05-3.18 2.46s-3.21.52-4.7 1c-7.48 2.56-4.47 12.16-11.63 15.17-2.33 1-5.2 1-7.72 1.67-5.53 1.53-8.16 6-10.21 10-1.44 2.82-7.17 2.53-10.61 4.23a10.86 10.86 0 00-3.18 2.63q-5.16 5.54-10.31 11.08l-13.56 14.56a28 28 0 01-5.82 5.17c-1.54.95-3.32 1.7-4.78 2.71-2.19 1.51-3.58 3.53-5.61 5.14s-5.2 2.86-8 2.11a12.42 12.42 0 005.41-8.34 6.17 6.17 0 01.57-2.52c1-1.63 3.53-2.34 5.61-3.28 5.27-2.38 8.1-7.28 6.74-11.66-1-3.08-3.65-6.53-1.09-9.09 1.67-1.68 4.87-2 7.72-2.27-1.45-1.78-.21-4.13 1.77-5.62s4.6-2.45 6.68-3.87c5.07-3.47 6-9.66 2-13.82-1.35-1.43-3.18-2.61-4.46-4.07s-2-3.39-.81-4.9 3.51-2.05 5.36-3 3.2-3 1.54-4.2l3.9 1.54c0-.93 1.78-.8 2.81-.24.7-4.36-2.79-8.89-.82-13.05 1.46-3.08 5.5-5.05 8.88-7.21s6.47-5.36 5.09-8.46c-.44-1-1.33-2-1.18-3 .24-1.6 2.8-2.46 5-2.48s4.45.48 6.64.22c3.42-.4 5.88-2.51 8-4.47 1.41-1.28 2.87-2.66 3.15-4.29a14.64 14.64 0 00-.2-3.09c-.3-6.19 8.87-11.68 6.4-17.62-1.76-4.23-9-6.79-9.25-11.2-.26-4.91 8.56-8.79 6.66-13.51 8.72-3.24 22.93-2.85 32.74-2.83 31 .07 61.7-6.39 92.5-4.22z" style="mix-blend-mode:overlay" fill="url(#linear-gradient-2)" opacity=".3"/><use width="1.12" height="1.12" transform="matrix(1 0 0 -.72 254.79 493.74)" xlink:href="#New_Symbol"/><use width="1.12" height="1.12" transform="matrix(1 0 0 -.72 400.9 493.71)" xlink:href="#New_Symbol"/><use width="1.12" height="1.12" transform="matrix(1 0 0 -.72 435.9 462.18)" xlink:href="#New_Symbol"/><use width="1.12" height="1.12" transform="matrix(1 0 0 -.72 347.27 496.73)" xlink:href="#New_Symbol"/><use width="1.12" height="1.12" transform="matrix(1 0 0 -.72 358.16 482.27)" xlink:href="#New_Symbol"/><use width="1.12" height="1.12" transform="matrix(1 0 0 -.72 357.79 460.72)" xlink:href="#New_Symbol"/><use width="1.12" height="1.12" transform="matrix(1 0 0 -.72 341.23 456.16)" xlink:href="#New_Symbol"/><use width="1.12" height="1.12" transform="matrix(1 0 0 -.72 304.41 459.84)" xlink:href="#New_Symbol"/><use width="1.12" height="1.12" transform="matrix(1 0 0 -.72 293.8 495.78)" xlink:href="#New_Symbol"/><use width="1.12" height="1.12" transform="matrix(1 0 0 -.72 232.73 469.81)" xlink:href="#New_Symbol"/><use width="1.12" height="1.12" transform="matrix(1 0 0 -.72 206.22 496.22)" xlink:href="#New_Symbol"/><use width="1.12" height="1.12" transform="matrix(1 0 0 -.72 494.09 486.22)" xlink:href="#New_Symbol"/><use width="1.12" height="1.12" transform="matrix(1 0 0 -.72 474.64 489.08)" xlink:href="#New_Symbol"/><use width="1.12" height="1.12" transform="matrix(1 0 0 -.72 536.15 499.57)" xlink:href="#New_Symbol"/><use width="1.12" height="1.12" transform="matrix(1 0 0 -.72 385.64 499.29)" xlink:href="#New_Symbol"/><use width="1.12" height="1.12" transform="matrix(1 0 0 -.72 394.39 487.77)" xlink:href="#New_Symbol"/><use width="1.12" height="1.12" transform="matrix(1 0 0 -.72 413.85 475.63)" xlink:href="#New_Symbol"/><use width="1.12" height="1.12" transform="matrix(1 0 0 -.72 418.73 482.22)" xlink:href="#New_Symbol"/><path class="cls-11" d="M385.89 495.65c0-.32-.36-.57-.79-.57s-.79.25-.79.57.35.57.79.57.79-.22.79-.57zm.91-10.19c0-.31-.35-.57-.79-.57s-.79.26-.79.57.35.57.79.57.79-.25.79-.57zm-6.74-2.91c0-.32-.35-.57-.79-.57s-.79.25-.79.57.35.57.79.57.79-.26.79-.57zm18.57-14.92c0-.31-.36-.57-.79-.57s-.8.26-.8.57.36.57.8.57.79-.2.79-.57zm17.75-12.08c0-.31-.36-.57-.79-.57s-.79.26-.79.57.35.57.79.57.79-.25.79-.57zm20.25-4.01c0-.31-.35-.57-.79-.57s-.79.26-.79.57.35.58.79.58.79-.26.79-.58zm17.63 5.59c0-.32-.36-.57-.79-.57s-.79.25-.79.57.35.57.79.57.79-.25.79-.57zm-33.69-11.21c0-.31-.36-.57-.79-.57s-.8.26-.8.57.36.57.8.57.79-.25.79-.57zm-2.09 26.72c0-.32-.36-.57-.79-.57s-.8.25-.8.57.36.57.8.57.79-.21.79-.57zm20.03-26.22c0-.32-.36-.57-.79-.57s-.79.25-.79.57.35.57.79.57.79-.26.79-.57zm9.78-7.65c0-.32-.35-.57-.79-.57s-.79.25-.79.57.35.57.79.57.79-.26.79-.57zm14.71 1.06c0-.31-.35-.57-.79-.57s-.79.26-.79.57.35.57.79.57.79-.25.79-.57zm-28 38.35c0-.31-.35-.57-.79-.57s-.79.26-.79.57.35.57.79.57.79-.25.79-.57zm-56.84 12.03c0-.31-.35-.57-.79-.57s-.79.26-.79.57.35.58.79.58.79-.26.79-.58zm3.95-14.48c0-.31-.36-.57-.79-.57s-.8.26-.8.57.36.57.8.57.79-.25.79-.57zm10.08 17.13c0-.31-.36-.57-.8-.57s-.79.26-.79.57.36.57.79.57.8-.25.8-.57zm14.24-4.79c0-.31-.35-.57-.79-.57s-.79.26-.79.57.35.58.79.58.79-.26.79-.58zM357.31 499c0-.31-.35-.57-.79-.57s-.79.26-.79.57.35.57.79.57.79-.25.79-.57zm56.69.86c0-.32-.35-.57-.79-.57s-.79.25-.79.57.35.57.79.57.79-.25.79-.57zm21.49-14.93c0-.31-.35-.57-.79-.57s-.79.26-.79.57.35.57.79.57.79-.25.79-.57zM460 461.32c0-.32-.35-.58-.79-.58s-.79.26-.79.58.36.57.79.57.79-.26.79-.57zm12.12-8.32c0-.32-.35-.57-.79-.57s-.79.25-.79.57.35.57.79.57.79-.26.79-.57zm15.11-6.92c0-.32-.35-.57-.79-.57s-.79.25-.79.57.35.57.79.57.79-.26.79-.57zm-78.89-3.53c0-.32-.35-.58-.79-.58s-.79.26-.79.58.35.57.79.57.79-.26.79-.57zm112.17 34.2c0-.32-.35-.57-.79-.57s-.79.25-.79.57.35.57.79.57.79-.26.79-.57zM540.53 493c0-.31-.35-.57-.79-.57s-.79.26-.79.57.35.57.79.57.79-.25.79-.57zm-286.02-33c0-.32-.36-.57-.79-.57s-.8.25-.8.57.36.57.8.57.79-.27.79-.57z"/><path class="cls-12" d="M416.77 476.68c0-.16-.18-.3-.41-.3s-.4.14-.4.3.18.29.4.29.41-.13.41-.29zm3.51-15.24c0-.17-.19-.3-.41-.3s-.41.13-.41.3.19.29.41.29.41-.13.41-.29zM391.62 464c0-.16-.19-.3-.41-.3s-.41.14-.41.3.18.29.41.29.41-.18.41-.29zm-41.02 26.87c0-.16-.18-.29-.4-.29s-.41.13-.41.29.18.3.41.3.4-.17.4-.3zm13.09-26.35c0-.16-.18-.29-.4-.29s-.41.13-.41.29.18.29.41.29.4-.13.4-.29zm5.99-10.86c0-.16-.18-.3-.4-.3s-.41.14-.41.3.18.29.41.29.4-.13.4-.29zm91.53 30.92c0-.16-.18-.29-.41-.29s-.4.13-.4.29.18.29.4.29.41-.13.41-.29zm-323.35 4.32c0-.16-.18-.29-.4-.29s-.41.13-.41.29.18.29.41.29.4-.13.4-.29zm43.8-11.76c0-.16-.18-.29-.41-.29s-.4.13-.4.29.18.29.4.29.41-.13.41-.29zm34.12.51c0-.16-.18-.29-.4-.29s-.41.13-.41.29.18.29.41.29.4-.13.4-.29zm64.65-.65c0-.16-.18-.29-.4-.29s-.41.13-.41.29.18.29.41.29.4-.18.4-.29zM14 496.07c0-.17-.18-.3-.4-.3s-.41.13-.41.3.18.29.41.29.4-.13.4-.29zm75.48-9.96c0-.16-.18-.29-.4-.29s-.41.13-.41.29.18.3.41.3.4-.14.4-.3zm272.41 11.52c0-.16-.18-.29-.41-.29s-.41.13-.41.29.19.29.41.29.41-.13.41-.29zm9.11-9.43c0-.16-.18-.29-.4-.29s-.41.13-.41.29.18.3.41.3.4-.13.4-.3zm5.52-10.59c0-.16-.18-.3-.4-.3s-.41.14-.41.3.18.29.41.29.4-.13.4-.29zm13.54-11.12c0-.16-.18-.29-.4-.29s-.41.13-.41.29.18.3.41.3.4-.13.4-.3zm10.55-8.77c0-.16-.18-.29-.4-.29s-.41.13-.41.29.18.29.41.29.4-.13.4-.29zm-4.52 37.35c0-.16-.18-.3-.4-.3s-.41.14-.41.3.18.29.41.29.4-.13.4-.29zm32.54-25.59c0-.17-.19-.3-.41-.3s-.41.13-.41.3.19.29.41.29.41-.13.41-.29zM421.45 482c0-.16-.18-.29-.41-.29s-.4.13-.4.29.18.3.4.3.41-.15.41-.3zM439 470.2c0-.17-.18-.3-.4-.3s-.41.13-.41.3.18.29.41.29.4-.13.4-.29z"/><path class="cls-11" d="M266.35 496.81l2.8.18-2.8.18-.25 2.03-.25-2.03-2.8-.18 2.8-.18.25-2.02.25 2.02zm-77.04-18.47l2.81.18-2.81.18-.25 2.03-.25-2.03-2.8-.18 2.8-.18.25-2.02.25 2.02zm221.14 4.41l2.8.18-2.8.18-.26 2.02-.25-2.02-2.8-.18 2.8-.18.25-2.02.26 2.02zm26.07-24.52l2.81.18-2.81.19-.25 2.02-.25-2.02-2.8-.19 2.8-.18.25-2.02.25 2.02zm16.75-16.95l2.8.18-2.8.19-.26 2.02-.25-2.02-2.8-.19 2.8-.18.25-2.02.26 2.02zm-76.58 39.02l2.81.19-2.81.18-.25 2.02-.25-2.02-2.8-.18 2.8-.19.25-2.02.25 2.02zm4.51-26.14l2.8.18-2.8.18-.25 2.02-.26-2.02-2.8-.18 2.8-.18.26-2.03.25 2.03z"/></g><ellipse cx="375" cy="413.46" rx="218.67" ry="39.9" style="mix-blend-mode:overlay" fill="url(#radial-gradient-3)"/><ellipse cx="375" cy="413.46" rx="218.67" ry="39.9" style="mix-blend-mode:screen" opacity=".7" fill="url(#radial-gradient-3)"/><g clip-path="url(#clip-path-3)"><path fill="url(#linear-gradient-3)" d="M0 0h750v412.96H0z"/><path style="mix-blend-mode:screen" fill="url(#radial-gradient-5)" opacity=".5" d="M0 0h750v412.96H0z"/><path style="mix-blend-mode:overlay" fill="url(#radial-gradient-5)" opacity=".9" d="M0 0h750v412.96H0z"/><path class="cls-9" d="M750 276.93s-23-15.47-34.3-15.47-34.36 27.5-40.36 28-22 4.5-23.5 5-2 3.5-4 4-15.58 5.84-18.08 6.34-13 17.5-15 17.5-37 4.5-40 6-17.5 17-20 17.5-6-1-8 0a62.43 62.43 0 00-6 4c-1.5 1-17.5 10-19 10s-4 8.5-4 8.5h-8.5l-6.5 8h-4.5s-4 8.5-7 8.5-9-1.5-10.5 0-10.42-3.34-11.42-1.84-8.5-3-10-3-17 14-19.5 14.5-23.5-5-26-4.5-15.5 13-17.5 12.5-16-10-18-9.5-5 3.5-6.5 3.5-14-4.5-15.5-4.5-13 5-15 5-30.5-11.5-32-11-7.5 5-9.5 5.5-10.5-4.5-10.5-4.5l-16.5 1s-12.5-8-14-8a48.4 48.4 0 00-6 1l-13.5-6s-5-.5-6.5 0-15.5-7-17-7.5-7-7-9-7.5-9 1-9 1-12 3.5-14 4-17.5-4-19-4-14.5-13-16.5-14-18.5 7.5-20 7-27.5-22.48-31-22-11-1.49-13 0-28-14.51-31-14.51-22.5 11-27 12S0 302.46 0 302.46V413h750z"/><path d="M363 216.71c-3.24.53-5.07-3.44-6.49-6.39s-5.88-5.56-7.47-2.69c-8.84-1.3-11.06-14.67-19.62-17.26a29 29 0 01-4.46-1.21 11.55 11.55 0 01-4-4.06c-2.12-3-3.78-7.64-6.78-9.77q-9.08-6.39-17.59-13.52l-4.81-2.06a7.69 7.69 0 00-2.67-8.24c-3 2.18-7-1-9.34-3.9q-14.19-17.25-30-33.08c-6.35-6.36-13.09-12.67-21.37-16.14-2.63-1.1-5.61-2.09-7-4.56s-1.28-6.22-3.93-7.19-6.47 1.25-7.39-1.26c-.56-1.55 1.11-3 1.18-4.7.14-3.25-4.68-3.38-7.77-4.43-3.57-1.21-5.57-4.88-8.07-7.71s-7.05-4.93-9.86-2.41c-.92-2.1-3.77-4.24-4.78-6.3l-1.83-3.7a4.58 4.58 0 01-4.82 1.44q-2.7-5.39-5.39-10.78a4.94 4.94 0 00-1.87-2.36c-1.45-.75-3.17.09-4.76.43-5.85 1.27-10.74-4.08-15.19-8.08s-9.38-6.86-13.29-11.11S127 15.28 129 9.84c.44-1.22-.22-4.68-.28-6A12.69 12.69 0 01117.41 0h37.43c2 .34 3.95.65 5.9 1a87 87 0 0138.82 18.4c5.83 4.84 11.93 10.82 19.51 10.6 5.21-.14 9.85-3.28 14.94-4.4s11.93 1.31 12 6.53c2.65-5.6 11.72-3.79 15.32 1.25s4.05 11.64 6.61 17.28c5 11 18 18.84 17.56 30.91l5 1c3.83 6.9-7.68 17.75-1 22 5 3.18 11.86-1.41 17.29-3.83 3.51-1.57 7.57 2 8.07 5.77s-1.35 7.48-3.12 10.89-3.56 7.13-2.93 10.92a19 19 0 00.64 2.44l1.5 4.79c1.84 5.9 5 12.9 11.15 13.35 2.65.2 5.26-1 7.91-.82s5.52 2.82 4.25 5.16c-1.12 2.06-4.92 3.08-4 5.23 2.47 3.2 2.5 7.6 2.41 11.65.87-2.16 4.3-2.07 5.77-.27s1.41 4.39.91 6.66-1.37 4.5-1.26 6.82a8.33 8.33 0 004.09 6.71c-.93 3.37 1.33 7 4.35 8.7s6.64 2.05 10.12 2.29a34.74 34.74 0 016.35 15.68z" style="mix-blend-mode:overlay" fill="url(#linear-gradient-4)" opacity=".5"/><path d="M475.32 385.12c-1.92-3.19-3.91-6.46-6.86-8.74s-6.88-3.46-10.34-5.19-6.84-4.5-7.43-8.32c-.35-2.19.26-4.54-.61-6.57-1.19-2.77-4.68-4-5.82-6.78s.42-5.69.64-8.59-2.71-6.49-5-4.74c1.1 1-1.07 2.56-2.37 1.86s-2-2.26-3.33-2.87c-2.18-1-5.83.35-6.43-2-.24-.93.33-1.85.53-2.79.52-2.4-1.52-4.68-3.79-5.6s-4.79-.94-7.17-1.55a15.3 15.3 0 01-11.14-14.94c.09-2.48.77-5.12-.37-7.31-2.19-4.19-9.72-4.91-11.29-9.36a8.33 8.33 0 00-8.45-5.34c-.76.08-1.65.22-2.15-.35s-.29-1.33-.34-2c-.13-1.64-1.64-2.84-3.18-3.4s-3.21-.73-4.7-1.44c-7.48-3.55-4.47-16.85-11.63-21-2.33-1.36-5.2-1.34-7.72-2.31-5.53-2.12-8.16-8.3-10.21-13.86-1.44-3.91-7.17-3.52-10.61-5.86a12.83 12.83 0 01-3.18-3.65q-5.16-7.66-10.31-15.35l-13.56-20.18a33.86 33.86 0 00-5.82-7.16c-1.54-1.32-3.32-2.36-4.78-3.76-2.19-2.09-3.58-4.88-5.61-7.12s-5.2-4-8-2.91a18.76 18.76 0 015.41 11.55 11.34 11.34 0 00.57 3.49c1 2.25 3.53 3.24 5.61 4.54a15.56 15.56 0 016.74 16.16c-1 4.27-3.65 9-1.09 12.59 1.67 2.33 4.87 2.83 7.72 3.15-1.45 2.46-.21 5.72 1.77 7.78s4.6 3.4 6.68 5.37a15.31 15.31 0 012 19.15c-1.35 2-3.18 3.6-4.46 5.62s-2 4.71-.81 6.8 3.51 2.84 5.36 4.19 3.2 4.23 1.54 5.81l3.9-2.13c0 1.29 1.78 1.11 2.81.33.7 6.05-2.79 12.32-.82 18.08 1.46 4.27 5.5 7 8.88 10s6.47 7.42 5.09 11.72c-.44 1.39-1.33 2.71-1.18 4.15.24 2.21 2.8 3.41 5 3.44s4.45-.67 6.64-.31c3.42.56 5.88 3.47 8 6.18 1.41 1.79 2.87 3.7 3.15 5.95a28 28 0 01-.2 4.28c-.3 8.58 8.87 16.19 6.4 24.41-1.76 5.87-9 9.41-9.25 15.53-.26 6.8 8.56 12.17 6.66 18.71 8.72 4.49 22.93 4 32.74 3.92 31-.1 61.7 8.86 92.5 5.84q-8.16-13.57-16.33-27.12z" style="mix-blend-mode:overlay" fill="url(#linear-gradient-5)" opacity=".3"/><use width="1.12" height="1.12" transform="translate(279.42 166.58)" xlink:href="#New_Symbol"/><use width="1.12" height="1.12" transform="translate(300.85 165.46)" xlink:href="#New_Symbol"/><use width="1.12" height="1.12" transform="translate(292.42 174.49)" xlink:href="#New_Symbol"/><use width="1.12" height="1.12" transform="translate(276.37 176.9)" xlink:href="#New_Symbol"/><use width="1.12" height="1.12" transform="translate(266.95 169.91)" xlink:href="#New_Symbol"/><use width="1.12" height="1.12" transform="translate(268.06 149.85)" xlink:href="#New_Symbol"/><use width="1.12" height="1.12" transform="translate(283.81 138.52)" xlink:href="#New_Symbol"/><use width="1.12" height="1.12" transform="translate(300.26 130.1)" xlink:href="#New_Symbol"/><use width="1.12" height="1.12" transform="translate(312.77 95.87)" xlink:href="#New_Symbol"/><use width="1.12" height="1.12" transform="translate(331.44 104.87)" xlink:href="#New_Symbol"/><use width="1.12" height="1.12" transform="translate(328.08 120.6)" xlink:href="#New_Symbol"/><use width="1.12" height="1.12" transform="translate(333.2 127.36)" xlink:href="#New_Symbol"/><use width="1.12" height="1.12" transform="translate(320.68 86.37)" xlink:href="#New_Symbol"/><use width="1.12" height="1.12" transform="translate(295.95 69.84)" xlink:href="#New_Symbol"/><use width="1.12" height="1.12" transform="translate(253.28 76.57)" xlink:href="#New_Symbol"/><use width="1.12" height="1.12" transform="translate(270.03 56.36)" xlink:href="#New_Symbol"/><use width="1.12" height="1.12" transform="translate(270.85 42.95)" xlink:href="#New_Symbol"/><use width="1.12" height="1.12" transform="translate(249.18 36.89)" xlink:href="#New_Symbol"/><use width="1.12" height="1.12" transform="translate(164 16.62)" xlink:href="#New_Symbol"/><use width="1.12" height="1.12" transform="translate(158.67 24.32)" xlink:href="#New_Symbol"/><use width="1.12" height="1.12" transform="translate(119.31 30.61)" xlink:href="#New_Symbol"/><use width="1.12" height="1.12" transform="translate(108.02 13.53)" xlink:href="#New_Symbol"/><use width="1.12" height="1.12" transform="translate(105.81 8.51)" xlink:href="#New_Symbol"/><use width="1.12" height="1.12" transform="translate(38.61 17.74)" xlink:href="#New_Symbol"/><use width="1.12" height="1.12" transform="translate(25.24 21.36)" xlink:href="#New_Symbol"/><use width="1.12" height="1.12" transform="translate(31.27 58.18)" xlink:href="#New_Symbol"/><use width="1.12" height="1.12" transform="translate(28.74 76.71)" xlink:href="#New_Symbol"/><use width="1.12" height="1.12" transform="translate(42.92 69.13)" xlink:href="#New_Symbol"/><use width="1.12" height="1.12" transform="translate(60.9 47.79)" xlink:href="#New_Symbol"/><use width="1.12" height="1.12" transform="translate(72.3 37.59)" xlink:href="#New_Symbol"/><use width="1.12" height="1.12" transform="translate(127.05 43.02)" xlink:href="#New_Symbol"/><use width="1.12" height="1.12" transform="translate(134.35 58.71)" xlink:href="#New_Symbol"/><use width="1.12" height="1.12" transform="translate(99.78 83.79)" xlink:href="#New_Symbol"/><use width="1.12" height="1.12" transform="translate(57.29 120.4)" xlink:href="#New_Symbol"/><use width="1.12" height="1.12" transform="translate(32.7 146.93)" xlink:href="#New_Symbol"/><use width="1.12" height="1.12" transform="translate(48.1 156.94)" xlink:href="#New_Symbol"/><use width="1.12" height="1.12" transform="translate(80.31 148.92)" xlink:href="#New_Symbol"/><use width="1.12" height="1.12" transform="translate(115.15 129.74)" xlink:href="#New_Symbol"/><use width="1.12" height="1.12" transform="translate(139.02 122.99)" xlink:href="#New_Symbol"/><use width="1.12" height="1.12" transform="translate(168.37 111.03)" xlink:href="#New_Symbol"/><use width="1.12" height="1.12" transform="translate(173.18 88.8)" xlink:href="#New_Symbol"/><use width="1.12" height="1.12" transform="translate(205.91 92.73)" xlink:href="#New_Symbol"/><use width="1.12" height="1.12" transform="translate(213.34 120.59)" xlink:href="#New_Symbol"/><use width="1.12" height="1.12" transform="translate(204.09 138.44)" xlink:href="#New_Symbol"/><use width="1.12" height="1.12" transform="translate(170.76 149.65)" xlink:href="#New_Symbol"/><use width="1.12" height="1.12" transform="translate(145.14 160.92)" xlink:href="#New_Symbol"/><use width="1.12" height="1.12" transform="translate(114.41 180.16)" xlink:href="#New_Symbol"/><use width="1.12" height="1.12" transform="translate(61.07 211.07)" xlink:href="#New_Symbol"/><use width="1.12" height="1.12" transform="translate(42.08 229.54)" xlink:href="#New_Symbol"/><use width="1.12" height="1.12" transform="translate(73.28 235.56)" xlink:href="#New_Symbol"/><use width="1.12" height="1.12" transform="translate(99.47 225.29)" xlink:href="#New_Symbol"/><use width="1.12" height="1.12" transform="translate(110.7 187.6)" xlink:href="#New_Symbol"/><use width="1.12" height="1.12" transform="translate(105.87 155.54)" xlink:href="#New_Symbol"/><use width="1.12" height="1.12" transform="translate(144.2 133.58)" xlink:href="#New_Symbol"/><use width="1.12" height="1.12" transform="translate(160.97 121.21)" xlink:href="#New_Symbol"/><use width="1.12" height="1.12" transform="translate(123.77 83.83)" xlink:href="#New_Symbol"/><use width="1.12" height="1.12" transform="translate(141.59 82.25)" xlink:href="#New_Symbol"/><use width="1.12" height="1.12" transform="translate(115.89 102.82)" xlink:href="#New_Symbol"/><use width="1.12" height="1.12" transform="translate(90.35 112.45)" xlink:href="#New_Symbol"/><use width="1.12" height="1.12" transform="translate(241.19 108.34)" xlink:href="#New_Symbol"/><use width="1.12" height="1.12" transform="translate(229.36 92.61)" xlink:href="#New_Symbol"/><use width="1.12" height="1.12" transform="translate(207.42 47.8)" xlink:href="#New_Symbol"/><use width="1.12" height="1.12" transform="translate(211.55 32.14)" xlink:href="#New_Symbol"/><use width="1.12" height="1.12" transform="translate(225.05 31.98)" xlink:href="#New_Symbol"/><use width="1.12" height="1.12" transform="translate(179.62 73.67)" xlink:href="#New_Symbol"/><use width="1.12" height="1.12" transform="translate(235.84 188.28)" xlink:href="#New_Symbol"/><use width="1.12" height="1.12" transform="translate(206.64 197.88)" xlink:href="#New_Symbol"/><use width="1.12" height="1.12" transform="translate(181.84 205.71)" xlink:href="#New_Symbol"/><use width="1.12" height="1.12" transform="translate(168.38 228.95)" xlink:href="#New_Symbol"/><use width="1.12" height="1.12" transform="translate(179.13 241.46)" xlink:href="#New_Symbol"/><use width="1.12" height="1.12" transform="translate(215.44 231)" xlink:href="#New_Symbol"/><use width="1.12" height="1.12" transform="translate(196.95 172.82)" xlink:href="#New_Symbol"/><use width="1.12" height="1.12" transform="translate(140.61 224.8)" xlink:href="#New_Symbol"/><use width="1.12" height="1.12" transform="translate(122.88 266.84)" xlink:href="#New_Symbol"/><use width="1.12" height="1.12" transform="translate(114.99 286.92)" xlink:href="#New_Symbol"/><use width="1.12" height="1.12" transform="translate(53.24 288.46)" xlink:href="#New_Symbol"/><use width="1.12" height="1.12" transform="translate(238.64 236.77)" xlink:href="#New_Symbol"/><use width="1.12" height="1.12" transform="translate(254.79 301.04)" xlink:href="#New_Symbol"/><use width="1.12" height="1.12" transform="translate(337.9 259.69)" xlink:href="#New_Symbol"/><use width="1.12" height="1.12" transform="translate(366.43 274.63)" xlink:href="#New_Symbol"/><use width="1.12" height="1.12" transform="translate(383.13 287.07)" xlink:href="#New_Symbol"/><use width="1.12" height="1.12" transform="translate(400.9 301.09)" xlink:href="#New_Symbol"/><use width="1.12" height="1.12" transform="translate(435.9 344.77)" xlink:href="#New_Symbol"/><use width="1.12" height="1.12" transform="translate(386.13 258.4)" xlink:href="#New_Symbol"/><use width="1.12" height="1.12" transform="translate(374.82 241.45)" xlink:href="#New_Symbol"/><use width="1.12" height="1.12" transform="translate(376.01 220.3)" xlink:href="#New_Symbol"/><use width="1.12" height="1.12" transform="translate(393.09 209.39)" xlink:href="#New_Symbol"/><use width="1.12" height="1.12" transform="translate(347.27 296.91)" xlink:href="#New_Symbol"/><use width="1.12" height="1.12" transform="translate(358.16 316.93)" xlink:href="#New_Symbol"/><use width="1.12" height="1.12" transform="translate(357.79 346.79)" xlink:href="#New_Symbol"/><use width="1.12" height="1.12" transform="translate(341.23 353.1)" xlink:href="#New_Symbol"/><use width="1.12" height="1.12" transform="translate(304.41 348.01)" xlink:href="#New_Symbol"/><use width="1.12" height="1.12" transform="translate(293.8 298.21)" xlink:href="#New_Symbol"/><use width="1.12" height="1.12" transform="translate(232.73 334.19)" xlink:href="#New_Symbol"/><use width="1.12" height="1.12" transform="translate(299.21 231.17)" xlink:href="#New_Symbol"/><use width="1.12" height="1.12" transform="translate(206.22 297.6)" xlink:href="#New_Symbol"/><use width="1.12" height="1.12" transform="translate(308.61 251.17)" xlink:href="#New_Symbol"/><use width="1.12" height="1.12" transform="translate(431.19 249.75)" xlink:href="#New_Symbol"/><use width="1.12" height="1.12" transform="translate(453.57 249.67)" xlink:href="#New_Symbol"/><use width="1.12" height="1.12" transform="translate(445.6 227.51)" xlink:href="#New_Symbol"/><use width="1.12" height="1.12" transform="translate(392.95 191.17)" xlink:href="#New_Symbol"/><use width="1.12" height="1.12" transform="translate(391.01 160.55)" xlink:href="#New_Symbol"/><use width="1.12" height="1.12" transform="translate(391.62 142.93)" xlink:href="#New_Symbol"/><use width="1.12" height="1.12" transform="translate(335.01 34.22)" xlink:href="#New_Symbol"/><use width="1.12" height="1.12" transform="translate(383.67 34.56)" xlink:href="#New_Symbol"/><use width="1.12" height="1.12" transform="translate(411.9 45.36)" xlink:href="#New_Symbol"/><use width="1.12" height="1.12" transform="translate(426.91 69.77)" xlink:href="#New_Symbol"/><use width="1.12" height="1.12" transform="translate(372.25 93.33)" xlink:href="#New_Symbol"/><use width="1.12" height="1.12" transform="translate(340.13 74.7)" xlink:href="#New_Symbol"/><use width="1.12" height="1.12" transform="translate(380.75 43.88)" xlink:href="#New_Symbol"/><use width="1.12" height="1.12" transform="translate(390.68 46.45)" xlink:href="#New_Symbol"/><use width="1.12" height="1.12" transform="translate(348.03 56.16)" xlink:href="#New_Symbol"/><use width="1.12" height="1.12" transform="translate(296.17 23.3)" xlink:href="#New_Symbol"/><use width="1.12" height="1.12" transform="translate(318.74 17.67)" xlink:href="#New_Symbol"/><use width="1.12" height="1.12" transform="translate(350.96 18.78)" xlink:href="#New_Symbol"/><use width="1.12" height="1.12" transform="translate(315.58 41.54)" xlink:href="#New_Symbol"/><use width="1.12" height="1.12" transform="translate(469.21 31.82)" xlink:href="#New_Symbol"/><use width="1.12" height="1.12" transform="translate(489.55 31.01)" xlink:href="#New_Symbol"/><use width="1.12" height="1.12" transform="translate(555.25 35.16)" xlink:href="#New_Symbol"/><use width="1.12" height="1.12" transform="translate(561.55 31.34)" xlink:href="#New_Symbol"/><use width="1.12" height="1.12" transform="translate(651.13 30.04)" xlink:href="#New_Symbol"/><use width="1.12" height="1.12" transform="translate(667.43 26.9)" xlink:href="#New_Symbol"/><use width="1.12" height="1.12" transform="translate(687.38 20.52)" xlink:href="#New_Symbol"/><use width="1.12" height="1.12" transform="translate(699.08 21.55)" xlink:href="#New_Symbol"/><use width="1.12" height="1.12" transform="translate(709.93 31.98)" xlink:href="#New_Symbol"/><use width="1.12" height="1.12" transform="translate(724.07 60.2)" xlink:href="#New_Symbol"/><use width="1.12" height="1.12" transform="translate(718.68 74.01)" xlink:href="#New_Symbol"/><use width="1.12" height="1.12" transform="translate(697.12 60.56)" xlink:href="#New_Symbol"/><use width="1.12" height="1.12" transform="translate(685.67 44.94)" xlink:href="#New_Symbol"/><use width="1.12" height="1.12" transform="translate(715.44 29.12)" xlink:href="#New_Symbol"/><use width="1.12" height="1.12" transform="translate(726.05 17.72)" xlink:href="#New_Symbol"/><use width="1.12" height="1.12" transform="translate(585.86 11.23)" xlink:href="#New_Symbol"/><use width="1.12" height="1.12" transform="translate(547.31 18.79)" xlink:href="#New_Symbol"/><use width="1.12" height="1.12" transform="translate(511.33 10.64)" xlink:href="#New_Symbol"/><use width="1.12" height="1.12" transform="translate(440.05 10.07)" xlink:href="#New_Symbol"/><use width="1.12" height="1.12" transform="translate(541.9 66.16)" xlink:href="#New_Symbol"/><use width="1.12" height="1.12" transform="translate(567.33 90.83)" xlink:href="#New_Symbol"/><use width="1.12" height="1.12" transform="translate(628.7 70.76)" xlink:href="#New_Symbol"/><use width="1.12" height="1.12" transform="translate(649.08 83.3)" xlink:href="#New_Symbol"/><use width="1.12" height="1.12" transform="translate(659.19 131.75)" xlink:href="#New_Symbol"/><use width="1.12" height="1.12" transform="translate(681.45 147.07)" xlink:href="#New_Symbol"/><use width="1.12" height="1.12" transform="translate(706.82 151.08)" xlink:href="#New_Symbol"/><use width="1.12" height="1.12" transform="translate(712.7 186.51)" xlink:href="#New_Symbol"/><use width="1.12" height="1.12" transform="translate(712.75 212.01)" xlink:href="#New_Symbol"/><use width="1.12" height="1.12" transform="translate(699.23 223.47)" xlink:href="#New_Symbol"/><use width="1.12" height="1.12" transform="translate(615.38 256.1)" xlink:href="#New_Symbol"/><use width="1.12" height="1.12" transform="translate(623.58 235.41)" xlink:href="#New_Symbol"/><use width="1.12" height="1.12" transform="translate(661.39 185.73)" xlink:href="#New_Symbol"/><use width="1.12" height="1.12" transform="translate(614.46 188.71)" xlink:href="#New_Symbol"/><use width="1.12" height="1.12" transform="translate(580.63 218.17)" xlink:href="#New_Symbol"/><use width="1.12" height="1.12" transform="translate(612.35 159.97)" xlink:href="#New_Symbol"/><use width="1.12" height="1.12" transform="translate(537.91 163.09)" xlink:href="#New_Symbol"/><use width="1.12" height="1.12" transform="translate(509.5 129.92)" xlink:href="#New_Symbol"/><use width="1.12" height="1.12" transform="translate(486.03 128.74)" xlink:href="#New_Symbol"/><use width="1.12" height="1.12" transform="translate(518.09 91.31)" xlink:href="#New_Symbol"/><use width="1.12" height="1.12" transform="translate(446.95 148.39)" xlink:href="#New_Symbol"/><use width="1.12" height="1.12" transform="translate(450.18 173.69)" xlink:href="#New_Symbol"/><use width="1.12" height="1.12" transform="translate(493.21 148.8)" xlink:href="#New_Symbol"/><use width="1.12" height="1.12" transform="translate(453.9 103.05)" xlink:href="#New_Symbol"/><use width="1.12" height="1.12" transform="translate(418.81 110.86)" xlink:href="#New_Symbol"/><use width="1.12" height="1.12" transform="translate(479.89 84.78)" xlink:href="#New_Symbol"/><use width="1.12" height="1.12" transform="translate(501.09 185.86)" xlink:href="#New_Symbol"/><use width="1.12" height="1.12" transform="translate(529.61 186.93)" xlink:href="#New_Symbol"/><use width="1.12" height="1.12" transform="translate(501.15 223.58)" xlink:href="#New_Symbol"/><use width="1.12" height="1.12" transform="translate(514.13 261.34)" xlink:href="#New_Symbol"/><use width="1.12" height="1.12" transform="translate(554.47 273.43)" xlink:href="#New_Symbol"/><use width="1.12" height="1.12" transform="translate(540.15 232.72)" xlink:href="#New_Symbol"/><use width="1.12" height="1.12" transform="translate(494.09 311.47)" xlink:href="#New_Symbol"/><use width="1.12" height="1.12" transform="translate(474.64 307.5)" xlink:href="#New_Symbol"/><use width="1.12" height="1.12" transform="translate(472.03 277.8)" xlink:href="#New_Symbol"/><use width="1.12" height="1.12" transform="translate(536.15 292.96)" xlink:href="#New_Symbol"/><use width="1.12" height="1.12" transform="translate(555.67 228.47)" xlink:href="#New_Symbol"/><use width="1.12" height="1.12" transform="translate(544.78 141.32)" xlink:href="#New_Symbol"/><use width="1.12" height="1.12" transform="translate(519.3 164.07)" xlink:href="#New_Symbol"/><use width="1.12" height="1.12" transform="translate(462.39 151.71)" xlink:href="#New_Symbol"/><use width="1.12" height="1.12" transform="translate(418.13 153.77)" xlink:href="#New_Symbol"/><use width="1.12" height="1.12" transform="translate(420.01 132.68)" xlink:href="#New_Symbol"/><use width="1.12" height="1.12" transform="translate(363.72 145.74)" xlink:href="#New_Symbol"/><use width="1.12" height="1.12" transform="translate(380.62 111.9)" xlink:href="#New_Symbol"/><use width="1.12" height="1.12" transform="translate(352.88 173.66)" xlink:href="#New_Symbol"/><use width="1.12" height="1.12" transform="translate(326.74 173.28)" xlink:href="#New_Symbol"/><use width="1.12" height="1.12" transform="translate(321.83 155.01)" xlink:href="#New_Symbol"/><use width="1.12" height="1.12" transform="translate(340.79 209.27)" xlink:href="#New_Symbol"/><use width="1.12" height="1.12" transform="translate(195.77 54.45)" xlink:href="#New_Symbol"/><use width="1.12" height="1.12" transform="translate(221.34 85.8)" xlink:href="#New_Symbol"/><use width="1.12" height="1.12" transform="translate(238.95 86.71)" xlink:href="#New_Symbol"/><use width="1.12" height="1.12" transform="translate(241.87 113.23)" xlink:href="#New_Symbol"/><use width="1.12" height="1.12" transform="translate(234.92 132.71)" xlink:href="#New_Symbol"/><use width="1.12" height="1.12" transform="translate(209.48 111.76)" xlink:href="#New_Symbol"/><use width="1.12" height="1.12" transform="translate(193.92 103.71)" xlink:href="#New_Symbol"/><use width="1.12" height="1.12" transform="translate(159.26 88.95)" xlink:href="#New_Symbol"/><use width="1.12" height="1.12" transform="translate(157.61 53.43)" xlink:href="#New_Symbol"/><use width="1.12" height="1.12" transform="translate(140.64 40.64)" xlink:href="#New_Symbol"/><use width="1.12" height="1.12" transform="translate(209.8 82.5)" xlink:href="#New_Symbol"/><use width="1.12" height="1.12" transform="translate(287.68 131.48)" xlink:href="#New_Symbol"/><use width="1.12" height="1.12" transform="translate(243.82 148.15)" xlink:href="#New_Symbol"/><use width="1.12" height="1.12" transform="translate(252.49 119.57)" xlink:href="#New_Symbol"/><use width="1.12" height="1.12" transform="translate(279.47 118.05)" xlink:href="#New_Symbol"/><use width="1.12" height="1.12" transform="translate(322.7 202.27)" xlink:href="#New_Symbol"/><use width="1.12" height="1.12" transform="translate(320.4 195.44)" xlink:href="#New_Symbol"/><use width="1.12" height="1.12" transform="translate(332.42 203.5)" xlink:href="#New_Symbol"/><use width="1.12" height="1.12" transform="translate(306.9 212.72)" xlink:href="#New_Symbol"/><use width="1.12" height="1.12" transform="translate(281.61 205.38)" xlink:href="#New_Symbol"/><use width="1.12" height="1.12" transform="translate(278.66 190.68)" xlink:href="#New_Symbol"/><use width="1.12" height="1.12" transform="translate(301.92 187.77)" xlink:href="#New_Symbol"/><use width="1.12" height="1.12" transform="translate(327.1 215.92)" xlink:href="#New_Symbol"/><use width="1.12" height="1.12" transform="translate(322.23 207.38)" xlink:href="#New_Symbol"/><use width="1.12" height="1.12" transform="translate(334.79 231.86)" xlink:href="#New_Symbol"/><use width="1.12" height="1.12" transform="translate(309.59 220.25)" xlink:href="#New_Symbol"/><use width="1.12" height="1.12" transform="translate(343.65 238.04)" xlink:href="#New_Symbol"/><use width="1.12" height="1.12" transform="translate(378.94 280.75)" xlink:href="#New_Symbol"/><use width="1.12" height="1.12" transform="translate(385.64 293.36)" xlink:href="#New_Symbol"/><use width="1.12" height="1.12" transform="translate(370.87 268.16)" xlink:href="#New_Symbol"/><use width="1.12" height="1.12" transform="translate(394.39 309.31)" xlink:href="#New_Symbol"/><use width="1.12" height="1.12" transform="translate(413.85 326.14)" xlink:href="#New_Symbol"/><use width="1.12" height="1.12" transform="translate(418.73 317.01)" xlink:href="#New_Symbol"/><use width="1.12" height="1.12" transform="translate(397.12 276.39)" xlink:href="#New_Symbol"/><use width="1.12" height="1.12" transform="translate(370.86 245.5)" xlink:href="#New_Symbol"/><use width="1.12" height="1.12" transform="translate(366.31 213.67)" xlink:href="#New_Symbol"/><use width="1.12" height="1.12" transform="translate(364.6 196.87)" xlink:href="#New_Symbol"/><use width="1.12" height="1.12" transform="translate(359.16 177.43)" xlink:href="#New_Symbol"/><use width="1.12" height="1.12" transform="translate(346.09 153.25)" xlink:href="#New_Symbol"/><use width="1.12" height="1.12" transform="translate(336.65 140.88)" xlink:href="#New_Symbol"/><use width="1.12" height="1.12" transform="translate(331.35 117.83)" xlink:href="#New_Symbol"/><use width="1.12" height="1.12" transform="translate(277.27 76.35)" xlink:href="#New_Symbol"/><use width="1.12" height="1.12" transform="translate(274.99 59.56)" xlink:href="#New_Symbol"/><use width="1.12" height="1.12" transform="translate(210.06 39.62)" xlink:href="#New_Symbol"/><use width="1.12" height="1.12" transform="translate(199.37 61.75)" xlink:href="#New_Symbol"/><use width="1.12" height="1.12" transform="translate(174.1 21.37)" xlink:href="#New_Symbol"/><use width="1.12" height="1.12" transform="translate(186.51 4.82)" xlink:href="#New_Symbol"/><use width="1.12" height="1.12" transform="translate(188.88 13.99)" xlink:href="#New_Symbol"/><use width="1.12" height="1.12" transform="translate(128.96 11.39)" xlink:href="#New_Symbol"/><use width="1.12" height="1.12" transform="translate(171.95 45.42)" xlink:href="#New_Symbol"/><use width="1.12" height="1.12" transform="translate(180.79 48.67)" xlink:href="#New_Symbol"/><use width="1.12" height="1.12" transform="translate(231.23 77.42)" xlink:href="#New_Symbol"/><use width="1.12" height="1.12" transform="translate(338.45 181.58)" xlink:href="#New_Symbol"/><use width="1.12" height="1.12" transform="translate(392.52 254.27)" xlink:href="#New_Symbol"/><use width="1.12" height="1.12" transform="translate(353.54 219.66)" xlink:href="#New_Symbol"/><use width="1.12" height="1.12" transform="translate(315.01 162.99)" xlink:href="#New_Symbol"/><path class="cls-11" d="M354.92 211.35a.79.79 0 11-.79-.8.79.79 0 01.79.8zm-.19-144.04a.79.79 0 11-.79-.79.79.79 0 01.79.79zm95.76-29.92a.79.79 0 11-.79-.8.79.79 0 01.79.8zm28.64 35.8a.79.79 0 11-.79-.79.79.79 0 01.79.79zm20.15 36.6a.79.79 0 11-.79-.79.79.79 0 01.79.79zm-82.5 31.3a.79.79 0 11-.79-.79.79.79 0 01.79.79zm-40.43-34.64a.79.79 0 11-.79-.79.79.79 0 01.79.79zm-28.1.85a.79.79 0 11-.79-.79.79.79 0 01.79.79zm-85.42 25a.79.79 0 11-.79-.8.79.79 0 01.79.8zM251 107.7a.8.8 0 11-.8-.79.79.79 0 01.8.79zm-32.68-22.58a.79.79 0 11-.79-.79.79.79 0 01.79.79z"/><circle class="cls-11" cx="194.35" cy="67.91" r=".79"/><path class="cls-11" d="M150.56 42.45a.79.79 0 11-.79-.79.79.79 0 01.79.79zm3.6-27.91a.79.79 0 11-.79-.8.79.79 0 01.79.8z"/><circle class="cls-11" cx="182.59" cy="51.4" r=".79"/><path class="cls-11" d="M111.86 23.11a.79.79 0 11-1.58 0 .79.79 0 011.58 0zm-5.42-6.95a.8.8 0 11-.8-.8.8.8 0 01.8.8zM168 20.94a.79.79 0 11-.79-.79.79.79 0 01.79.79zm12.89 12.83a.79.79 0 11-.79-.79.79.79 0 01.79.79zM174.6 58.7a.79.79 0 11-.79-.79.79.79 0 01.79.79zm-18.05-2.61a.79.79 0 11-1.58 0 .79.79 0 111.58 0zM113.7 12.41a.79.79 0 11-.79-.79.79.79 0 01.79.79zm126.91 93.93a.79.79 0 01-1.58 0 .79.79 0 011.58 0zm33 44.31a.8.8 0 11-.79-.79.79.79 0 01.79.79zm20.29 19.49a.79.79 0 11-.79-.8.79.79 0 01.79.8zm16.25 23.37a.8.8 0 01-1.59 0 .8.8 0 011.59 0zm27.69 23.66a.79.79 0 11-.79-.8.8.8 0 01.79.8z"/><circle class="cls-11" cx="347.5" cy="237.98" r=".79"/><path class="cls-11" d="M369 269.05a.79.79 0 11-.79-.79.79.79 0 01.79.79zm16.89 29.35a.79.79 0 11-.79-.79.79.79 0 01.79.79zm.91 14.11a.79.79 0 11-.79-.79.79.79 0 01.79.79zm-41.71-45.44a.79.79 0 11-.79-.79.79.79 0 01.79.79zm-9.41-11.66a.79.79 0 11-.79-.79.79.79 0 01.79.79zm44.38 61.14a.79.79 0 11-.79-.79.79.79 0 01.79.79zm18.57 20.67a.8.8 0 11-.79-.79.8.8 0 01.79.79zM416.38 354a.79.79 0 11-.79-.79.79.79 0 01.79.79z"/><circle class="cls-11" cx="435.84" cy="359.51" r=".79"/><path class="cls-11" d="M454.26 351.77a.79.79 0 11-.79-.8.8.8 0 01.79.8zm-33.69 15.52a.8.8 0 11-.79-.79.8.8 0 01.79.79zm-5.5-87.04a.79.79 0 11-.79-.79.79.79 0 01.79.79zm-27.54-26.43a.8.8 0 11-.8-.79.8.8 0 01.8.79zm30.95 76.46a.8.8 0 11-.79-.79.79.79 0 01.79.79zm20.03 36.33a.79.79 0 11-.79-.79.79.79 0 01.79.79zm9.78 10.6a.79.79 0 11-.79-.79.79.79 0 01.79.79zm14.71-1.48a.79.79 0 11-.79-.79.79.79 0 01.79.79zm-28-53.13a.79.79 0 11-.79-.79.79.79 0 01.79.79z"/><circle class="cls-11" cx="39.07" cy="19.05" r=".79"/><path class="cls-11" d="M16.16 36a.79.79 0 11-.79-.79.79.79 0 01.79.79zm38.35-1.11a.79.79 0 11-.79-.79.79.79 0 01.79.79zm-8.29-21.36a.79.79 0 11-.79-.79.79.79 0 01.79.79zm-35.09 2.06a.79.79 0 11-.79-.79.79.79 0 01.79.79zm67.28 18.18a.79.79 0 11-.79-.79.79.79 0 01.79.79z"/><circle class="cls-11" cx="119.53" cy="47.57" r=".79"/><path class="cls-11" d="M163.43 45.05a.79.79 0 11-.79-.79.79.79 0 01.79.79z"/><circle class="cls-11" cx="161.45" cy="35.88" r=".79"/><path class="cls-11" d="M136.39 26.73a.79.79 0 11-.79-.8.79.79 0 01.79.8zm-14.07-14.45a.79.79 0 11-.79-.79.79.79 0 01.79.79zm-37.96 6.6a.79.79 0 11-.79-.79.79.79 0 01.79.79zm60.03 11.32a.79.79 0 11-.79-.79.79.79 0 01.79.79zm32.43-3.68a.8.8 0 11-.8-.79.8.8 0 01.8.79z"/><circle class="cls-11" cx="183.64" cy="20.11" r=".79"/><path class="cls-11" d="M198.53 35.14a.79.79 0 11-.79-.79.79.79 0 01.79.79zm14.05 23.32a.79.79 0 11-1.58 0 .79.79 0 011.58 0zm2.99 9.46a.8.8 0 11-.8-.79.79.79 0 01.8.79zM162.18 6.38a.8.8 0 01-1.59 0 .8.8 0 011.59 0zm28.54 82.89a.79.79 0 11-.79-.79.79.79 0 01.79.79zm37.05-2.9a.8.8 0 11-.8-.8.8.8 0 01.8.8zm21.76 15.5a.79.79 0 11-.79-.79.79.79 0 01.79.79zm7.17 39.71a.79.79 0 11-.79-.79.79.79 0 01.79.79zm-20.56-9.11a.79.79 0 11-.79-.79.79.79 0 01.79.79zM209.35 96.4a.8.8 0 11-.79-.79.79.79 0 01.79.79zm107.34 86.43a.79.79 0 11-.79-.79.79.79 0 01.79.79zm17.37 38.6a.8.8 0 11-.79-.79.79.79 0 01.79.79z"/><circle class="cls-11" cx="301.93" cy="208.52" r=".79"/><path class="cls-11" d="M287.48 190a.79.79 0 11-.79-.79.79.79 0 01.79.79zm12.41 7a.79.79 0 11-.79-.79.79.79 0 01.79.79zm39.17 53.09a.79.79 0 11-.79-.79.79.79 0 01.79.79zm30.5 25.29a.8.8 0 11-.8-.79.79.79 0 01.8.79zm8.6 30.55a.79.79 0 11-.79-.79.79.79 0 01.79.79zm3.95 20.07a.8.8 0 01-1.59 0 .8.8 0 011.59 0zm10.08-23.74a.8.8 0 11-.8-.79.79.79 0 01.8.79zm14.24 6.63a.79.79 0 11-.79-.79.79.79 0 01.79.79zm-49.12-15.14a.79.79 0 11-.79-.79.79.79 0 01.79.79zm-4.38-62.58a.79.79 0 11-.79-.79.79.79 0 01.79.79zm61.07 61.4a.79.79 0 11-.79-.8.79.79 0 01.79.8zm-59.09-49.08a.79.79 0 11-.79-.79.79.79 0 01.79.79zm-40.59-26.72a.79.79 0 11-1.58 0 .79.79 0 011.58 0zm121.17 96.48a.79.79 0 11-.79-.79.79.79 0 01.79.79zM460 346a.79.79 0 11-.79-.79.79.79 0 01.79.79zm12.12 11.5a.79.79 0 11-.79-.79.79.79 0 01.79.79zm15.11 9.58a.79.79 0 11-.79-.79.79.79 0 01.79.79zM408.34 372a.79.79 0 11-.79-.79.79.79 0 01.79.79zM58.7 121.77a.79.79 0 11-.79-.79.79.79 0 01.79.79zm-12.03 51.39a.79.79 0 11-.79-.79.79.79 0 01.79.79zm-8.93 29.75a.8.8 0 11-.79-.79.8.8 0 01.79.79zm105.01-29.37a.79.79 0 11-.79-.79.79.79 0 01.79.79z"/><circle class="cls-11" cx="135.54" cy="136.21" r=".79"/><path class="cls-11" d="M101.5 275a.8.8 0 11-.8-.8.8.8 0 01.8.8zm35.5-9a.79.79 0 11-.79-.79.79.79 0 01.79.79zm-2.75-57.54a.79.79 0 11-.79-.79.79.79 0 01.79.79zm-55.13-26.97a.79.79 0 11-.79-.79.79.79 0 01.79.79zm13.04 46.93a.8.8 0 11-.8-.79.79.79 0 01.8.79zM123 203.86a.79.79 0 11-.79-.79.79.79 0 01.79.79zm71 9.32a.8.8 0 11-.79-.79.8.8 0 01.79.79zm10.07 31.68a.79.79 0 11-.79-.79.79.79 0 01.79.79zm203.65-115.7a.8.8 0 01-1.59 0 .8.8 0 011.59 0zm8.61-57.08a.79.79 0 11-.79-.79.79.79 0 01.79.79zm4.08-29.9a.79.79 0 11-.79-.79.79.79 0 01.79.79z"/><circle class="cls-11" cx="505.64" cy="52.72" r=".79"/><path class="cls-11" d="M489.47 87a.79.79 0 11-.79-.79.79.79 0 01.79.79zm-43.21-7.77a.8.8 0 01-1.59 0 .8.8 0 011.59 0zm-9.54 11.01a.8.8 0 11-.79-.79.8.8 0 01.79.79zm34.88 101.2a.8.8 0 11-.8-.79.79.79 0 01.8.79zm24.4 35.71a.79.79 0 11-.79-.8.79.79 0 01.79.8zM614.72 222a.79.79 0 11-.79-.8.8.8 0 01.79.8z"/><circle class="cls-11" cx="684.95" cy="215.69" r=".79"/><path class="cls-11" d="M708.68 181.84a.79.79 0 11-.79-.79.79.79 0 01.79.79zm-49.26-1.92a.79.79 0 11-.79-.79.79.79 0 01.79.79zm-50.66 11.24a.8.8 0 11-.8-.79.8.8 0 01.8.79z"/><circle class="cls-11" cx="644.35" cy="215.68" r=".79"/><path class="cls-11" d="M663.38 237.37a.79.79 0 11-.79-.79.79.79 0 01.79.79zm17.09-198.71a.79.79 0 11-.79-.79.79.79 0 01.79.79zm36.64-13.24a.8.8 0 11-.8-.79.79.79 0 01.8.79zM713.49 76a.8.8 0 11-.8-.79.79.79 0 01.8.79z"/><circle class="cls-11" cx="679.6" cy="108.97" r=".79"/><path class="cls-11" d="M653.77 65a.8.8 0 11-.79-.79.8.8 0 01.79.79zm-46.41-37.19a.79.79 0 11-.79-.79.79.79 0 01.79.79z"/><circle class="cls-11" cx="576.32" cy="56.16" r=".79"/><path class="cls-11" d="M553.44 103.87a.79.79 0 11-.79-.79.79.79 0 01.79.79zm38.46 34.25a.8.8 0 11-.8-.8.8.8 0 01.8.8zm10.77-38.83a.79.79 0 11-.79-.79.79.79 0 01.79.79zm5.01-28.69a.8.8 0 11-.8-.79.8.8 0 01.8.79zm-34.29 78.91a.79.79 0 11-.79-.79.79.79 0 01.79.79zm-27.28-29.57a.8.8 0 11-.8-.79.79.79 0 01.8.79zm81.02 2.91a.8.8 0 11-.79-.79.79.79 0 01.79.79zm19.18 26.57a.79.79 0 11-.79-.8.79.79 0 01.79.8zm-85.95 25.7a.79.79 0 11-.79-.79.79.79 0 01.79.79zM342.37 26a.79.79 0 11-.79-.79.79.79 0 01.79.79z"/><circle class="cls-11" cx="289.24" cy="7.6" r=".79"/><path class="cls-11" d="M259.84 27.91a.8.8 0 11-.8-.79.79.79 0 01.8.79zm41.46 33.2a.79.79 0 11-.79-.79.79.79 0 01.79.79z"/><circle class="cls-11" cx="310.52" cy="106.89" r=".79"/><path class="cls-11" d="M296.89 73.33a.79.79 0 11-.79-.8.79.79 0 01.79.8zm-10.05 39.87a.8.8 0 11-.8-.79.8.8 0 01.8.79zm103.01 114.91a.79.79 0 11-.79-.79.79.79 0 01.79.79zm130.66 96.48a.79.79 0 11-.79-.79.79.79 0 01.79.79zm20.02-22.52a.79.79 0 11-.79-.8.79.79 0 01.79.8zm-312.32-24.74a.79.79 0 11-1.58 0 .79.79 0 011.58 0zm26.3 70.49a.8.8 0 11-.79-.79.8.8 0 01.79.79zm476.58-152.51a.8.8 0 11-.79-.79.8.8 0 01.79.79zm3.81-62.94a.79.79 0 11-.79-.79.79.79 0 01.79.79zm1.29-83.85a.79.79 0 11-.79-.79.79.79 0 01.79.79zm-.28-29.22a.79.79 0 11-.79-.8.79.79 0 01.79.8zm-38.41-6.46a.79.79 0 11-.79-.79.79.79 0 01.79.79zm17.64 36.57a.8.8 0 11-.8-.8.8.8 0 01.8.8zm-392.31 159.2a.79.79 0 11-.79-.79.79.79 0 01.79.79zm16.7-13.61a.79.79 0 11-.79-.79.79.79 0 01.79.79z"/><path class="cls-12" d="M309.77 251a.41.41 0 01-.81 0 .41.41 0 11.81 0zm-70.19-112.58a.41.41 0 01-.41.41.41.41 0 110-.81.41.41 0 01.41.4zm45.71 58.96a.41.41 0 11-.81 0 .41.41 0 01.81 0zm8.24.7a.42.42 0 01-.41.41.41.41 0 010-.82.42.42 0 01.41.41zm-21.22-55.68a.41.41 0 11-.41-.41.4.4 0 01.41.41zm-73.59-62.28a.41.41 0 11-.41-.41.4.4 0 01.41.41zm5.03 25.04a.41.41 0 11-.4-.4.4.4 0 01.4.4zM203 59.6a.41.41 0 01-.81 0 .41.41 0 11.81 0zm-48.95-20.72a.41.41 0 11-.81 0 .41.41 0 11.81 0zm-21.94-15.04a.4.4 0 01-.41.4.41.41 0 110-.81.41.41 0 01.41.41zm37.98-2.3a.41.41 0 11-.81 0 .41.41 0 01.81 0zm37.66 20.86a.41.41 0 11-.4-.41.41.41 0 01.4.41zm43.71 75.08a.41.41 0 01-.81 0 .41.41 0 11.81 0zM318 198.66a.41.41 0 11-.41-.41.4.4 0 01.41.41zm25.48 50.25a.41.41 0 11-.81 0 .41.41 0 11.81 0zm25.46 21.27a.41.41 0 01-.41.4.41.41 0 110-.81.41.41 0 01.41.41zm47.83 54.5a.41.41 0 11-.81 0 .41.41 0 01.81 0zm3.51 21.12a.41.41 0 11-.41-.4.41.41 0 01.41.4zm-28.66-3.48a.41.41 0 01-.41.41.41.41 0 01-.41-.41.41.41 0 01.41-.41.42.42 0 01.41.41zM350.6 305a.41.41 0 01-.81 0 .41.41 0 11.81 0zm-34-40.15a.41.41 0 11-.41-.41.4.4 0 01.41.41zm47.09 76.68a.41.41 0 01-.81 0 .41.41 0 11.81 0zm5.99 15.05a.41.41 0 01-.81 0 .41.41 0 11.81 0zm91.53-42.84a.41.41 0 11-.41-.41.4.4 0 01.41.41zm-32.5-44.97a.41.41 0 11-.81 0 .41.41 0 11.81 0zm2.07-43.07a.41.41 0 11-.41-.41.42.42 0 01.41.41zm4.94-41.57a.41.41 0 11-.4-.41.41.41 0 01.4.41zm-50.63-25.3a.41.41 0 11-.81 0 .41.41 0 01.81 0zm-36.98-52.04a.41.41 0 01-.81 0 .41.41 0 11.81 0zm64.03-5.7a.41.41 0 11-.81 0 .41.41 0 01.81 0zm8.04 65.75a.41.41 0 11-.41-.41.42.42 0 01.41.41zm-88.42-45.99a.41.41 0 11-.41-.41.4.4 0 01.41.41zM276.44 85.7a.41.41 0 11-.81 0 .41.41 0 01.81 0zm46.45-36.81a.41.41 0 11-.4-.4.4.4 0 01.4.4zm22.46-10.82a.41.41 0 11-.4-.4.4.4 0 01.4.4zm14.05 1.67a.42.42 0 01-.41.41.41.41 0 010-.82.42.42 0 01.41.41zm14.6 7.6a.41.41 0 11-.4-.4.4.4 0 01.4.4zM297.17 23.2a.41.41 0 11-.41-.41.4.4 0 01.41.41zm-29.31-1.14a.41.41 0 11-.81 0 .41.41 0 11.81 0zm-59.46 5.32a.4.4 0 01-.41.4.41.41 0 110-.81.41.41 0 01.41.41zm54.66 23.86a.42.42 0 01-.41.41.41.41 0 110-.82.42.42 0 01.41.41zm6.94-6.15a.41.41 0 11-.41-.41.41.41 0 01.41.41zm-41.13-28.91a.41.41 0 11-.4-.41.41.41 0 01.4.41zm16.37 42.89a.41.41 0 11-.4-.4.4.4 0 01.4.4zM241.4 76.6a.41.41 0 11-.41-.41.4.4 0 01.41.41zm225.24-34.09a.41.41 0 11-.4-.4.4.4 0 01.4.4zm36.36-.84a.41.41 0 11-.41-.41.41.41 0 01.41.41zm15.5 15.71a.41.41 0 11-.4-.41.41.41 0 01.4.41zm-31.57 37.36a.41.41 0 11-.81 0 .41.41 0 11.81 0zm23.46 28.56a.41.41 0 11-.41-.41.4.4 0 01.41.41zm26.8 12.26a.41.41 0 11-.4-.4.4.4 0 01.4.4zm-2.39 39.08a.41.41 0 11-.4-.4.4.4 0 01.4.4zm-19.35 31.72a.41.41 0 11-.41-.4.41.41 0 01.41.4zm-61.83 7.96a.41.41 0 11-.81 0 .41.41 0 01.81 0zm-51.47-28.51a.41.41 0 01-.81 0 .41.41 0 11.81 0zM547 239a.41.41 0 11-.4-.4.4.4 0 01.4.4zm-26.57 35.8a.41.41 0 11-.4-.41.41.41 0 01.4.41zm66.04-19.45a.41.41 0 11-.41-.41.4.4 0 01.41.41zm37.85-15.42a.41.41 0 11-.4-.4.4.4 0 01.4.4zm45.06-19.32a.41.41 0 11-.41-.4.41.41 0 01.41.4zM701.7 206a.41.41 0 11-.41-.4.41.41 0 01.41.4zm10.23-6a.4.4 0 01-.41.4.41.41 0 110-.81.41.41 0 01.41.41zm-29.67-9a.41.41 0 11-.41-.41.4.4 0 01.41.41zm-51.67-13.68a.41.41 0 01-.81 0 .41.41 0 11.81 0zM617.58 139a.41.41 0 11-.41-.41.41.41 0 01.41.41zM660 105.87a.41.41 0 11-.4-.4.4.4 0 01.4.4zm10.75-20.57a.41.41 0 11-.81 0 .41.41 0 11.81 0zm20.35-37.38a.41.41 0 01-.41.41.41.41 0 110-.81.41.41 0 01.41.4zm11.83-13.87a.41.41 0 11-.81 0 .41.41 0 01.81 0zM695.77 27a.41.41 0 11-.81 0 .41.41 0 11.81 0zm-69.32 7.58a.41.41 0 11-.41-.41.4.4 0 01.41.41zm-35.58 8.93a.41.41 0 11-.81 0 .41.41 0 11.81 0zm-23.33 28.61a.41.41 0 11-.41-.41.4.4 0 01.41.41zm49.15 13.08a.4.4 0 01-.41.4.41.41 0 110-.81.41.41 0 01.41.41zm56.89 7.45a.41.41 0 01-.81 0 .41.41 0 11.81 0zm3.24 14.17a.41.41 0 11-.41-.41.42.42 0 01.41.41zm38.86 6.29a.41.41 0 11-.4-.41.41.41 0 01.4.41zm12.97 4.27a.41.41 0 11-.4-.4.4.4 0 01.4.4zm-13.53 26.1a.41.41 0 11-.41-.41.42.42 0 01.41.41zm-15.78-19.61a.41.41 0 11-.41-.41.41.41 0 01.41.41zm23.3-20.3a.41.41 0 11-.41-.41.41.41 0 01.41.41zm7.26 83.32a.41.41 0 11-.4-.4.4.4 0 01.4.4zm.73 32.01a.41.41 0 11-.41-.41.4.4 0 01.41.41zm-6.78 23.73a.41.41 0 11-.41-.41.4.4 0 01.41.41zm9.99-170.41a.41.41 0 11-.4-.4.4.4 0 01.4.4zm3.74-52.43a.41.41 0 11-.41-.41.4.4 0 01.41.41zm1.63-10.45a.41.41 0 11-.4-.4.4.4 0 01.4.4zM191.1 162.73a.41.41 0 01-.81 0 .41.41 0 11.81 0zm25.17 45.15a.41.41 0 11-.4-.4.4.4 0 01.4.4zm25.44 5.5a.4.4 0 01-.41.4.41.41 0 110-.81.41.41 0 01.41.41zm-9.32 35.93a.41.41 0 11-.4-.4.4.4 0 01.4.4zm-84.7 41.88a.41.41 0 01-.81 0 .41.41 0 11.81 0zm-9.83 16.56a.41.41 0 01-.81 0 .41.41 0 11.81 0zm43.8 16.25a.41.41 0 11-.81 0 .41.41 0 01.81 0zm34.12-.66a.41.41 0 01-.81 0 .41.41 0 11.81 0zm64.65.97a.41.41 0 01-.81 0 .41.41 0 11.81 0zm3.93-46.45a.41.41 0 01-.41.41.41.41 0 01-.41-.41.42.42 0 01.41-.41.41.41 0 01.41.41zm-37.99 2.47a.41.41 0 11-.41-.41.4.4 0 01.41.41zm-43.77 7.06a.41.41 0 11-.4-.4.4.4 0 01.4.4zm49.63-44.7a.41.41 0 01-.81 0 .41.41 0 11.81 0zM97.4 224a.41.41 0 01-.82 0 .41.41 0 11.82 0zM53 259.45a.41.41 0 11-.4-.4.4.4 0 01.4.4zm-36.63 20.97a.41.41 0 01-.81 0 .41.41 0 11.81 0zM14 297.82a.41.41 0 11-.4-.4.4.4 0 01.4.4zM17.06 244a.41.41 0 01-.41.41.41.41 0 110-.81.4.4 0 01.41.4zm36.02 45.68a.41.41 0 11-.81 0 .41.41 0 11.81 0zm36.4 21.93a.41.41 0 11-.4-.4.4.4 0 01.4.4zM9.36 185.43A.41.41 0 119 185a.4.4 0 01.36.43zm22.93.02a.41.41 0 11-.81 0 .41.41 0 11.81 0zm11.92 3.49a.41.41 0 01-.81 0 .41.41 0 11.81 0zm-25.64 21.94a.41.41 0 01-.81 0 .41.41 0 11.81 0zm18.97-83.06a.41.41 0 11-.41-.41.4.4 0 01.41.41zm-25.89 6.59a.41.41 0 11-.81 0 .41.41 0 01.81 0zm17.19-41.87a.41.41 0 11-.81 0 .41.41 0 01.81 0zm15.71-5.79a.41.41 0 11-.41-.41.41.41 0 01.41.41zm26.66 14.97a.41.41 0 11-.81 0 .41.41 0 01.81 0zM35.2 123.18a.41.41 0 11-.41-.41.4.4 0 01.41.41zM12.3 96.7a.41.41 0 11-.41-.41.41.41 0 01.41.41zm1.08-52.98a.41.41 0 11-.81 0 .41.41 0 11.81 0zM41.3 45.3a.41.41 0 11-.41-.41.41.41 0 01.41.41zM31.2 22.42a.41.41 0 01-.81 0 .41.41 0 11.81 0zM38.42 17a.41.41 0 11-.4-.4.4.4 0 01.4.4zM96 71.47a.41.41 0 11-.81 0 .41.41 0 01.81 0zm-1.36 51.65a.41.41 0 11-.81 0 .41.41 0 01.81 0zm23.47 21.3a.41.41 0 11-.41-.41.4.4 0 01.41.41zm28.46 22.05a.41.41 0 01-.82 0 .41.41 0 01.82 0zm-10.5 25.29a.41.41 0 11-.4-.4.4.4 0 01.4.4zM391.21 44.71a.41.41 0 11-.41-.41.4.4 0 01.41.41zm14.34 32.68a.41.41 0 11-.4-.41.41.41 0 01.4.41zm-4.16 40.15a.41.41 0 11-.81 0 .41.41 0 01.81 0zm-248.1-49.72a.41.41 0 11-.41-.41.4.4 0 01.41.41zM182.27 96a.41.41 0 11-.81 0 .41.41 0 11.81 0zm26.6 18a.41.41 0 11-.41-.41.4.4 0 01.41.41zm30.73 19.33a.41.41 0 11-.41-.41.4.4 0 01.41.41zm-11.38 9.31a.41.41 0 01-.41.41.41.41 0 110-.81.41.41 0 01.41.4zM102.89 31.65a.41.41 0 11-.41-.41.4.4 0 01.41.41zM119.77 35a.41.41 0 11-.81 0 .41.41 0 01.81 0zm15.45 11.88a.41.41 0 11-.4-.4.4.4 0 01.4.4zm10.6 11.61a.41.41 0 11-.81 0 .41.41 0 01.81 0zm22.94 15.42a.41.41 0 01-.81 0 .41.41 0 11.81 0zm6.52 8.49a.41.41 0 11-.41-.4.41.41 0 01.41.4zm25.6 15.1a.41.41 0 11-.41-.41.4.4 0 01.41.41zm5.12 11.9a.41.41 0 11-.41-.41.41.41 0 01.41.41zm17.79 12.51a.41.41 0 11-.4-.4.4.4 0 01.4.4zm18.45 26.37a.41.41 0 01-.41.41.41.41 0 110-.81.4.4 0 01.41.4zm-3.15-5.28a.41.41 0 11-.81 0 .41.41 0 01.81 0zm-17.19-30a.41.41 0 01-.41.4.41.41 0 110-.81.41.41 0 01.41.41zm-11.84-11.92a.41.41 0 11-.81 0 .41.41 0 01.81 0zm-19.83-14.27a.41.41 0 11-.81 0 .41.41 0 11.81 0zm12.7 2.59a.41.41 0 11-.81 0 .41.41 0 01.81 0zm-29.2-27.8a.41.41 0 11-.81 0 .41.41 0 01.81 0zm-16.54-15.21a.41.41 0 11-.81 0 .41.41 0 11.81 0zM140.14 29a.41.41 0 11-.41-.4.41.41 0 01.41.4zm-1.62 2.5a.41.41 0 11-.41-.41.4.4 0 01.41.41zm26.93 15.24a.42.42 0 01-.41.41.41.41 0 110-.82.42.42 0 01.41.41zm23.87 22.82a.41.41 0 11-.81 0 .41.41 0 11.81 0zm110.27 144.38a.41.41 0 11-.4-.4.4.4 0 01.4.4zM326 242.35a.41.41 0 11-.4-.4.4.4 0 01.4.4zm10 16.33a.41.41 0 11-.81 0 .41.41 0 01.81 0zm10.12 11.46a.41.41 0 11-.81 0 .41.41 0 11.81 0zm5.15 7.01a.41.41 0 11-.4-.41.41.41 0 01.4.41zm10.62 18.51a.4.4 0 01-.41.4.41.41 0 110-.81.41.41 0 01.41.41zm9.11 13.06a.41.41 0 01-.81 0 .41.41 0 11.81 0zm5.52 14.67a.41.41 0 11-.4-.4.4.4 0 01.4.4zm13.54 15.4a.41.41 0 11-.4-.4.4.4 0 01.4.4zM400.61 351a.41.41 0 11-.4-.4.4.4 0 01.4.4zm-56.08-95.88a.41.41 0 11-.41-.4.41.41 0 01.41.4zm25.3 23.42a.41.41 0 11-.81 0 .41.41 0 01.81 0zm26.26 20.67a.41.41 0 01-.81 0 .41.41 0 11.81 0zm32.54 35.45a.41.41 0 11-.41-.4.41.41 0 01.41.4zm-64.26-85.33a.41.41 0 11-.4-.4.4.4 0 01.4.4zm23.27 25.33a.41.41 0 11-.4-.4.4.4 0 01.4.4zM381 263.33a.41.41 0 01-.81 0 .41.41 0 11.81 0zm40.45 53.99a.41.41 0 11-.81 0 .41.41 0 01.81 0zM439 333.66a.41.41 0 11-.4-.4.4.4 0 01.4.4z"/><path class="cls-11" d="M40.75 223.16l2.8-.25-2.8-.25-.25-2.81-.25 2.81-2.8.25 2.8.25.25 2.8.25-2.8zm11.3-147.24l2.81-.25-2.81-.25-.25-2.8-.25 2.8-2.8.25 2.8.25.25 2.8.25-2.8zm43.26 46.64l2.8-.25-2.8-.26-.25-2.8-.25 2.8-2.81.26 2.81.25.25 2.8.25-2.8zm35.31 74.63l2.8-.26-2.8-.25-.26-2.8-.25 2.8-2.8.25 2.8.26.25 2.8.26-2.8zm-63.49 60.94l2.81-.25-2.81-.25-.25-2.81-.25 2.81-2.8.25 2.8.25.25 2.8.25-2.8zm-43.76 6.91l2.8-.25-2.8-.26-.25-2.8-.25 2.8-2.8.26 2.8.25.25 2.8.25-2.8zm408.19-53.56l2.8-.25-2.8-.25-.25-2.8-.25 2.8-2.81.25 2.81.25.25 2.8.25-2.8zm20.85-24.97l2.8-.26-2.8-.25-.25-2.8-.25 2.8-2.8.25 2.8.26.25 2.8.25-2.8zM414.83 24.2l2.8-.25-2.8-.25-.25-2.8-.25 2.8-2.81.25 2.81.25.25 2.8.25-2.8zm-89.96 103.96l2.81-.25-2.81-.25-.25-2.8-.25 2.8-2.8.25 2.8.25.25 2.8.25-2.8zm-184.18-34.4l2.8-.25-2.8-.25-.25-2.8-.25 2.8-2.8.25 2.8.25.25 2.8.25-2.8zm45.2 28.31l2.8-.26-2.8-.25-.25-2.8-.25 2.8-2.8.25 2.8.26.25 2.8.25-2.8zm80.46 174.72l2.8-.25-2.8-.25-.25-2.8-.25 2.8-2.8.25 2.8.25.25 2.8.25-2.8zm20-37.57l2.8-.25-2.8-.25-.25-2.8-.25 2.8-2.8.25 2.8.25.25 2.8.25-2.8zm-56.1-11.12l2.8-.25-2.8-.25-.25-2.8-.26 2.8-2.8.25 2.8.25.26 2.8.25-2.8zm-40.94 74.28l2.81-.25-2.81-.25-.25-2.81-.25 2.81-2.8.25 2.8.25.25 2.8.25-2.8zm394.73-76.3l2.8-.25-2.8-.25-.25-2.8-.25 2.8-2.8.25 2.8.25.25 2.8.25-2.8zm8.93 38.31l2.8-.25-2.8-.25-.25-2.8-.25 2.8-2.8.25 2.8.25.25 2.81.25-2.81zm-83.96-20.11l2.8-.25-2.8-.25-.25-2.8-.25 2.8-2.8.25 2.8.25.25 2.8.25-2.8zm124.86-139.05l2.8-.25-2.8-.25-.25-2.8-.25 2.8-2.8.25 2.8.25.25 2.81.25-2.81zm24.96-40.56l2.8-.25-2.8-.25-.25-2.8-.25 2.8-2.81.25 2.81.25.25 2.81.25-2.81zm-80.31-60.25l2.8-.25-2.8-.25-.25-2.8-.25 2.8-2.8.25 2.8.25.25 2.8.25-2.8zm-91.32 76.05l2.8-.25-2.8-.25-.25-2.8-.25 2.8-2.8.25 2.8.25.25 2.8.25-2.8zm64.51 4.59l2.8-.26-2.8-.25-.25-2.8-.25 2.8-2.8.25 2.8.26.25 2.8.25-2.8zm143.17-43.65l2.81-.25-2.81-.25-.25-2.8-.25 2.8-2.8.25 2.8.25.25 2.81.25-2.81zM713.91 100l2.8-.25-2.8-.25-.26-2.8-.25 2.8-2.8.25 2.8.25.25 2.8.26-2.8zm26.14-4.69l2.8-.25-2.8-.25-.25-2.81-.25 2.81-2.8.25 2.8.25.25 2.8.25-2.8zm.04 99.41l2.8-.25-2.8-.25-.26-2.8-.25 2.8-2.8.25 2.8.25.25 2.81.26-2.81zm-18.95 42.24l2.8-.25-2.8-.25-.26-2.8-.25 2.8-2.8.25 2.8.25.25 2.8.26-2.8zm-28.53 13.58l2.8-.25-2.8-.25-.26-2.8-.25 2.8-2.8.25 2.8.25.25 2.8.26-2.8zm-59.38 37.73l2.8-.25-2.8-.25-.25-2.8-.25 2.8-2.8.25 2.8.25.25 2.8.25-2.8zm-235.84-93.14l2.8-.25-2.8-.25-.25-2.81-.26 2.81-2.8.25 2.8.25.26 2.8.25-2.8zm-.87 81.72l2.8-.25-2.8-.25-.25-2.81-.25 2.81-2.81.25 2.81.25.25 2.8.25-2.8zm13.93 39.42l2.8-.25-2.8-.25-.26-2.8-.25 2.8-2.8.25 2.8.25.25 2.8.26-2.8zm26.07 33.97l2.81-.25-2.81-.25-.25-2.8-.25 2.8-2.8.25 2.8.25.25 2.8.25-2.8zm16.75 23.48l2.8-.25-2.8-.25-.26-2.8-.25 2.8-2.8.25 2.8.25.25 2.8.26-2.8zM309.43 191.9l2.8-.25-2.8-.25-.26-2.81-.25 2.81-2.8.25 2.8.25.25 2.8.26-2.8zm-37.09-32.55l2.8-.26-2.8-.25-.25-2.8-.26 2.8-2.8.25 2.8.26.26 2.8.25-2.8zm1.64-22l2.8-.25-2.8-.25-.25-2.8-.25 2.8-2.8.25 2.8.25.25 2.81.25-2.81zm-30.37-15.81l2.8-.25-2.8-.25-.26-2.8-.25 2.8-2.8.25 2.8.25.25 2.8.26-2.8zm-2.07 7.34l2.8-.25-2.8-.26-.25-2.8-.25 2.8-2.8.26 2.8.25.25 2.8.25-2.8zM220.6 86.45l2.8-.25-2.8-.25-.25-2.8-.25 2.8-2.8.25 2.8.25.25 2.8.25-2.8zm-38.85-11.64l2.8-.25-2.8-.26-.25-2.8-.25 2.8-2.8.26 2.8.25.25 2.8.25-2.8zm2.41-30.52l2.81-.25-2.81-.25-.25-2.81-.25 2.81-2.8.25 2.8.25.25 2.8.25-2.8zm-2.93-21.66l2.8-.25-2.8-.25-.26-2.8-.25 2.8-2.8.25 2.8.25.25 2.8.26-2.8zm-39-9.89l2.8-.25-2.8-.25-.25-2.8-.25 2.8-2.8.25 2.8.25.25 2.8.25-2.8zm.5 21.23l2.8-.25-2.8-.25-.25-2.81-.25 2.81-2.81.25 2.81.25.25 2.8.25-2.8zM281.08 185.6l2.8-.25-2.8-.25-.25-2.81-.25 2.81-2.8.25 2.8.25.25 2.8.25-2.8zm95.61 134.06l2.81-.25-2.81-.25-.25-2.8-.25 2.8-2.8.25 2.8.25.25 2.8.25-2.8zm4.51 36.23l2.8-.25-2.8-.26-.25-2.8-.26 2.8-2.8.26 2.8.25.26 2.8.25-2.8z"/></g></g><g clip-path="url(#clip-path-4)" id="Background_2" data-name="Background 2"><g clip-path="url(#clip-path-5)"><path fill="url(#linear-gradient-6)" d="M-664.34 412.96h750v298.07h-750z"/><path style="mix-blend-mode:screen" fill="url(#radial-gradient-7)" opacity=".5" d="M-664.34 412.96h750v298.07h-750z"/><path style="mix-blend-mode:overlay" fill="url(#radial-gradient-7)" opacity=".9" d="M-664.34 412.96h750v298.07h-750z"/><path class="cls-9" d="M85.66 511.15s-22.95 11.16-34.31 11.16S17 502.46 11 502.1s-22-3.25-23.5-3.61-2-2.52-4-2.89-15.58-4.21-18.08-4.57-13-12.63-15-12.63-37-3.25-40-4.33-17.5-12.27-20-12.63-6 .72-8 0-4.5-2.17-6-2.89-17.5-7.22-19-7.22-4-6.13-4-6.13h-8.5l-6.5-5.78h-4.5s-4-6.13-7-6.13-9 1.08-10.5 0-10.42 2.41-11.42 1.32-8.5 2.17-10 2.17-17-10.11-19.5-10.47-23.5 3.61-26 3.25-15.5-9.38-17.5-9-16 7.22-18 6.86-5-2.53-6.5-2.53-14 3.25-15.5 3.25-13-3.61-15-3.61-30.5 8.3-32 7.94-7.5-3.61-9.5-4-10.5 3.25-10.5 3.25l-16.5-.72s-12.5 5.77-14 5.77-6-.72-6-.72l-13.5 4.33s-5 .36-6.5 0-15.5 5.05-17 5.41-7 5.05-9 5.42-9-.73-9-.73-12-2.52-14-2.88-17.5 2.88-19 2.88-14.5 9.4-16.5 10.12-18.5-5.41-20-5.05-27.5 16.23-31 15.87-11 1.08-13 0-28 10.47-31 10.47-22.5-7.94-27-8.66-26.34 19.49-26.34 19.49V413h750z"/></g><g clip-path="url(#clip-path-6)"><path fill="url(#linear-gradient-7)" d="M-664.34 0h750v412.96h-750z"/><path style="mix-blend-mode:screen" fill="url(#radial-gradient-9)" opacity=".5" d="M-664.34 0h750v412.96h-750z"/><path style="mix-blend-mode:overlay" fill="url(#radial-gradient-9)" opacity=".9" d="M-664.34 0h750v412.96h-750z"/><path class="cls-9" d="M85.66 276.93s-22.95-15.47-34.31-15.47S17 289 11 289.46s-22 4.5-23.5 5-2 3.5-4 4-15.58 5.84-18.08 6.34-13 17.5-15 17.5-37 4.5-40 6-17.5 17-20 17.5-6-1-8 0a62.43 62.43 0 00-6 4c-1.5 1-17.5 10-19 10s-4 8.5-4 8.5h-8.5l-6.5 8h-4.5s-4 8.5-7 8.5-9-1.5-10.5 0S-194 381.46-195 383s-8.5-3-10-3-17 14-19.5 14.5-23.5-5-26-4.5-15.5 13-17.5 12.5-16-10-18-9.5-5 3.5-6.5 3.5-14-4.5-15.5-4.5-13 5-15 5-30.5-11.5-32-11-7.5 5-9.5 5.5S-375 387-375 387l-16.5 1s-12.5-8-14-8a48.4 48.4 0 00-6 1l-13.5-6s-5-.5-6.5 0-15.5-7-17-7.5-7-7-9-7.5-9 1-9 1-12 3.5-14 4-17.5-4-19-4-14.5-13-16.5-14-18.5 7.5-20 7-27.5-22.48-31-22-11-1.49-13 0-28-14.51-31-14.51-22.5 11-27 12-26.34-27-26.34-27V413h750z"/><use width="1.12" height="1.12" transform="translate(3.09 26.9)" xlink:href="#New_Symbol"/><use width="1.12" height="1.12" transform="translate(23.03 20.52)" xlink:href="#New_Symbol"/><use width="1.12" height="1.12" transform="translate(34.74 21.55)" xlink:href="#New_Symbol"/><use width="1.12" height="1.12" transform="translate(45.59 31.98)" xlink:href="#New_Symbol"/><use width="1.12" height="1.12" transform="translate(59.73 60.2)" xlink:href="#New_Symbol"/><use width="1.12" height="1.12" transform="translate(54.34 74.01)" xlink:href="#New_Symbol"/><use width="1.12" height="1.12" transform="translate(32.78 60.56)" xlink:href="#New_Symbol"/><use width="1.12" height="1.12" transform="translate(21.33 44.94)" xlink:href="#New_Symbol"/><use width="1.12" height="1.12" transform="translate(51.1 29.12)" xlink:href="#New_Symbol"/><use width="1.12" height="1.12" transform="translate(61.71 17.72)" xlink:href="#New_Symbol"/><use width="1.12" height="1.12" transform="translate(17.11 147.07)" xlink:href="#New_Symbol"/><use width="1.12" height="1.12" transform="translate(42.48 151.08)" xlink:href="#New_Symbol"/><use width="1.12" height="1.12" transform="translate(48.36 186.51)" xlink:href="#New_Symbol"/><use width="1.12" height="1.12" transform="translate(48.41 212.01)" xlink:href="#New_Symbol"/><use width="1.12" height="1.12" transform="translate(34.89 223.47)" xlink:href="#New_Symbol"/><path class="cls-11" d="M21.4 215.69a.8.8 0 11-.79-.79.79.79 0 01.79.79zm22.94-33.85a.79.79 0 11-.79-.79.79.79 0 01.79.79zM16.13 38.66a.79.79 0 11-.79-.79.79.79 0 01.79.79zm36.63-13.24a.79.79 0 11-.79-.79.79.79 0 01.79.79zM49.14 76a.79.79 0 11-.79-.79.79.79 0 01.79.79zm-33.09 33a.8.8 0 11-.8-.79.8.8 0 01.8.79zm50.7 86.31a.8.8 0 11-.8-.79.8.8 0 01.8.79zm3.81-62.94a.8.8 0 11-.8-.79.79.79 0 01.8.79zm1.29-83.85a.8.8 0 11-.79-.79.8.8 0 01.79.79zm-.28-29.22a.79.79 0 11-.79-.8.79.79 0 01.79.8zm-38.41-6.46a.79.79 0 11-.79-.79.79.79 0 01.79.79zm17.63 36.57a.79.79 0 11-.79-.8.79.79 0 01.79.8z"/><path class="cls-12" d="M5 220.61a.41.41 0 11-.4-.4.4.4 0 01.4.4zM37.35 206a.41.41 0 11-.4-.4.4.4 0 01.4.4zm10.23-6a.41.41 0 01-.81 0 .41.41 0 11.81 0zm-29.66-9a.4.4 0 01-.41.4.41.41 0 110-.81.41.41 0 01.41.41zM6.4 85.3a.41.41 0 11-.81 0 .41.41 0 11.81 0zm20.35-37.38a.41.41 0 11-.4-.4.4.4 0 01.4.4zm11.84-13.87a.41.41 0 11-.81 0 .41.41 0 01.81 0zM31.43 27a.41.41 0 01-.41.41.41.41 0 01-.41-.41.41.41 0 01.41-.41.42.42 0 01.41.41zM9.24 92.65a.41.41 0 11-.41-.41.4.4 0 01.41.41zm3.23 14.17a.41.41 0 11-.4-.41.41.41 0 01.4.41zm38.87 6.29a.41.41 0 11-.41-.41.41.41 0 01.41.41zm12.97 4.27a.41.41 0 11-.81 0 .41.41 0 01.81 0zm-13.54 26.1a.41.41 0 11-.4-.41.41.41 0 01.4.41zM35 123.87a.41.41 0 11-.41-.41.41.41 0 01.41.41zm23.3-20.3a.41.41 0 01-.41.41.41.41 0 010-.82.41.41 0 01.41.41zm7.26 83.32a.41.41 0 11-.4-.4.4.4 0 01.4.4zm.73 32.01a.41.41 0 01-.41.4.41.41 0 110-.81.41.41 0 01.41.41zm-6.78 23.73a.41.41 0 11-.41-.41.41.41 0 01.41.41zM69.5 72.22a.41.41 0 11-.4-.4.4.4 0 01.4.4zm3.74-52.43a.41.41 0 11-.41-.41.41.41 0 01.41.41zm1.63-10.45a.41.41 0 11-.81 0 .41.41 0 01.81 0z"/><path class="cls-11" d="M30.54 61.41l2.8-.25-2.8-.25-.25-2.8-.25 2.8-2.8.25 2.8.25.25 2.81.25-2.81zM49.56 100l2.81-.25-2.81-.25-.25-2.8-.25 2.8-2.8.25 2.8.25.25 2.8.25-2.8zm26.15-4.69l2.8-.25-2.8-.25-.26-2.81-.25 2.81-2.8.25 2.8.25.25 2.8.26-2.8zm.03 99.41l2.8-.25-2.8-.25-.25-2.8-.25 2.8-2.8.25 2.8.25.25 2.81.25-2.81zm-18.95 42.24l2.8-.25-2.8-.25-.25-2.8-.25 2.8-2.8.25 2.8.25.25 2.8.25-2.8zm-28.53 13.58l2.8-.25-2.8-.25-.25-2.8-.25 2.8-2.8.25 2.8.25.25 2.8.25-2.8z"/></g></g></g></svg>