<svg id="Layer_1" data-name="Layer 1" xmlns="http://www.w3.org/2000/svg" viewBox="0 0 1400 980"><defs><style>.cls-2{fill:#e2edd3}.cls-2,.cls-5,.cls-6{fill-rule:evenodd}.cls-5{fill:#354226}.cls-6{fill:#253018}</style></defs><path fill="#c9dbb2" d="M0 0h1400v980H0z"/><path class="cls-2" d="M361 245.4c.4-5.2-93.7-7.2-101.5-7-29.2.8-43.1-10.5-65.5-15.4-10-2.2-46.2-.7-48.9-3.8-19.1-22.4-39.8 12-60-4-10.5-8.3-31.6.2-30.4-4.9 3.2-14.3-14.4-7.7-15.6-7.8-4.9-.4-15.8 7.2-17.1.7-4-19.6-12.2-28.2-22-29.5v109.9c13.2-.2 24.4-.5 31.5.1 17 1.4 28.3 4.3 45.2-5.9 11.3-6.9 43.4-9 54.4-3.2 11.3 6 53 4.5 59.2-3.9 10.3-14 50.7-6.8 65.2-12.1 7.1-2.6 79.9-4.4 88.3-3.7 6.5.4 24.2-8 17.2-9.5zm894.8-176.2c-7.1 3.8-36.9-4.9-55.1 11.4-12.6 11.4-63.1-3.9-93.2 2.2-17.9 3.7-47.6 0-78.1 6.3-14.9 3-29.1 7.4-11.6 10.6 13.9 2.6 58.6 3.3 62.7 11.5 14.4 29 66.4.6 93 19.5 4.2 3 45.7-4.3 57.4-4.3 12.6 0 25.1 21.4 46.9 23.3 39.3 3.4 22.4 8.6 60.9-7.3 10.7-4.4 35.2-3.3 61.4-1.4V52.7c-14.5 9.6-23.6-3.8-50.9 15.6-14 9.9-56.8-18.7-93.4.9z"/><path d="M1229.7 238.4c-26.2 7.3-73.8 7.7-90.1 40.6-19.5 39.2 3.3 48.5-33.4 91.6-7.9 9.2-26.6 17.9-30.1 38.7-2.4 14.3-23.2 56.4-35 66.5-10.5 9-10 50.1-54.7 12-3.7-3.1-10.2-38.5-37.1-64.5-92-89 19.5-153.3-98.3-153.3-30.3 0-40.5-7.3-54.2 15.8-24.7 41.7-62.1 22.3-69.2 64.1-.9 5.1-7.3 19.1 2.5 30 15.3 16.9 16.4 49.9-6.1 64.7-12.8 8.4-33.2 26.3-25.8 44.3 7.9 19.1-21.6 54.5-60.2 27-21.1-15-41 17.1-46.6-47.3-2.4-28.1-51.4-18-51.4-95.3 0-36.4-70-46.8-90.9-16-13.6 20.1-62.1 38.9-77.3 5.1-11.2-24.9-66.5-58.7-85.4-26.7-22.9 38.6-34.3 32.7-59.4 68.5-11.7 16.7-42.1 64.8-64.8 31.3-45.6-67.2-14.2-93.7-131.5-88.7-8 .3-18.8-2.6-30.6-5.8v639h1400V232.9c-66-1.5-152.5.5-170.4 5.5z" fill="#6c7d56" fill-rule="evenodd"/><path d="M1281.4 547.9c-7.3-17.6-1.2-43.8-18.4-43.8-43.1 0-20.5-3.4-49.9 13-24.1 13.5-33.8 14.8-54.6-.9-29.8-22.7-49.4-7.8-66.3 19.2-45.9 73.1-40.2 29.7-74.6 52.7-15.1 10.1-50.3 29.5-65.8 9.8-17.1-21.8-41.3-32.1-44.2-35.4-27.5-32.3 1.5-13.4-40.1-42.9-31.5-22.3-66.3-11.7-68.9 28.7-3.2 50-56.8 48.5-62.5 82.3-1.9 11.1-97.7 5.3-96.1-30.6 0-1.1-17.3-34.9-18.2-36.4-27-43-35.3-14.8-41.8-12.5-13.6 4.7-28.3 58.9-28.1 62.5 2.6 65.5-46.8 34.5-50 23.4-3.3-11.5-38.4-8-37.5-31.3 1.2-29.6-47.1-27.5-45.3-68.8 1.1-25.1-23.9-18-42.2-17.2-57.2 2.4-35.6 46.2-41 59.4-12.8 31-31.2 59.2-59 62.7-25.7 3.2-29.3-15.5-35.9-34.5-10.2-29.4-43.8-12.7-45.4-3.3-4.4 25.8-19 25.5-22.9 33.3-14.9 30.1-44.8 9.6-45.6 1.2-.6-6.3-20.4-41.2-23-44.2-22.9-25.3-6.5-98-19.1-112C51.3 444.8 11.8 358 0 432.8V980h1400V608.8c-27.8-1.2-48.6-6.2-79.2-6.2-50.9 0-30.7-33.6-39.4-54.7z" fill="#4a5938" fill-rule="evenodd"/><path class="cls-5" d="M488.1 575.2c.1 0 .2-.1.3-.2-.2.2-.4.3-.3.2zm-35.6 9.4c-.1.2-.1.3-.2.3s.1 0 .2-.3z"/><path class="cls-5" d="M1316.6 652.4c-15.3 1.6-56.5 1.6-63.3 15.4a55.76 55.76 0 01-29.2 26.6c1.6-8.1 6.7-19.5 8.8-21.7 6-6.7 10.2-29.2 18.9-30.7 8-1.4 12.2-10.5 14.3-12.3a4.73 4.73 0 001.1-1.3l1.7 6.5-.7-8.5c.3-.8.6-1.6.9-2.5l4.9 12.2-1.8-16.7 7 13.5-5.4-15.6 8.1 11.1-6.9-12.6 9.9 7.6-10.5-14.2 10.1 4.2-9-7.1 9.7.2-9.8-1.9 10.2-4.3-13 3.7 8.8-8.3-13 7.4 8.1-10.7-10.3 10.2 3.4-11.1-5.8 11.6.3-10.7-2 11.7-3.4-9.5 1.2 9.7-5.9-7.8 1.7 3.8-6.4-5.2 4.7 1.4 4.7 1.4-8.5-6.5 10.8 1.9-11.7-4.3 11.7-1.8-12.2.2 16.7-7.7-17.4 5.8 8.6-6.3-9.1 4 4.2-8.1-5.7 6.9 3.6-10.6-5.9 10.5.4-10.8-3.2 10.5-.4-10.1-1.9 11.3-2.7-9.3.2 10.1-5.4-4.9 4.1 8.2-5.3-4.7 4.5 7.6-4.4-1.8.9-3.8-5.5 8-2.3-11.7 1 12.7-3.8-14.6 2.3 14.6-6.2-9.2 3.9 10.1-.2.3-5-4.7 4.1 6-1 1.4-3.9-.6 3.3 1.5-6.7 9.5 1.9-17.6-2.5 10.2-3.2-1.2-.7-3.3v3.1l-4.2-1.6-.6-1.7 7.4-1.6-8.2-.5-.8-2.1 10.8-3.7-16.2 1.7 15.1-6.2-17.4 4.2 11.4-7.5-16.8 7.6 6.1-8.4-10.1 8.8 2.8-8.7-4.3 7.9-1.9-10.6.5 12.7-5.7-11.9 3.4 12.6-8.9-9.1 8.8 12.8-15-4.5 15.4 7.7-14.8 1.4 15.6 1-12.1 6.5 11.5-4.9-12.6 10.2 13.4-5.9-6.4 5.7 5.5-2-4.3 10.3 7.8-10-5.2 19 5.8-13.5c.1 3.9 1.3 11.7 1.8 15.2.4 3.3 1.3 7.9 3.4 10.7 3.5 4.7 3.9 4.5 8.1 10.6 0 3 .8 6.2.8 8.2 0 9.1 11.8 24.9 14.4 32a34.39 34.39 0 01.7 7 55.64 55.64 0 01-29.2-3.5c-41.7-17.2-55 11-73.8 20.3-16 8-27.3 52.2-80.8 66-26.4 6.8-11.1 15.6-56.3 15.6-18.4 0-97-29.4-107.3-39.6-14.9-14.9-71.3-14.9-89.2-2.2-12.5 8.9-104.3 7.9-115-4.6-17.1-20.1-49.5-16.2-74.5-16.2-21.4 0-49.2 12.7-66.8 23.8-5.9 3.7-30.1 4.7-53.8 4.4-1.5-46.1-4.9-109.9 6.7-125.2 3.2-4.3 8-2.6 12.4-2.2l1.1 1.6-3.2-.8 2.9 2.4-4.3-.9 4 2.8-4.4-.3 4.6 2-5.3.9 5.5.5-4.4 3.2 5.3-2.2-3.9 4.6 4.6-3.8-3.2 5.6 4.4-5.3-2.3 7.2 3.6-6.9-1.8 8.7 2.9-8.7v8.5l1.3-8.4 2.2 8.4-1.2-8.5 4.8 6.7-3.7-7.3 6.9 6.2-5.5-7.3 7.1 3.9-6.1-5.4 8.1 2-7.9-3.5 8.7 1-8.6-1.9 9.2-1.4-9.5.3 8.6-2.8-9.3 2.1 8.4-4.2-8.7 3.3 6.8-7.1-8 6 4.7-6.8-4 2.7v-1.6l1.5-2.3-1.5 1.6c.3-3.1 2.8-5.5 2.9-8.3l.4-.5.7 3.8.4-3.5.7 6.2.4-7 2 4.1-1.2-4.9 2.9 4.1-2-4.7 5.1 3.7-3.6-5 4.9 5.2-3.5-6.3 1.5-1.4 4.9 8.6-3.1-7.8 5.7 4.8-4.4-4.8 7.8 2.5-6.5-3.2 8.1 1.4-6.6-2.3 7.8-.3-7.9-.9 8.4-.9-8.5-.7 9.2-.7-9.3-.8 7-1.4-7 .3 6.7-3.5-7.2 2.3 5.5-4.8-5.9 3.5 4.6-6.1-5.3 4.7 1.8-5.8-2.4 4.6-1.1-6.6-.1 7.3-3-6.9 1.1 6.9-3.2-6.6 1.6 7.5-.3.2-1.9-3.8.3-.5-.3.4-1.7-3.4.2 3.6-2 2.4-.8-1.1.6 1.4-2.3 2.8-.3-.1 3.5-8.1-4.5 7.8-.2-.1 2.1-9-3.2 9.2-.8-8.7-.3 8.9-2.3-6.9.9 7.6-3.5-6.1 2.8 7.1-4.3-3 4.1 3.9-6.9-1 7 2.1-8.5 2.5 8.1-1.2-2.4 2.5 3.2-1.9-1.6 3-4.5.1 6.2 1.3-8.1.1 8.2.9-5 2.1 5.1-.9-5.6 4.3 5.1-2.6a12 12 0 00-1.6 3.4c-1.9 5.2.7 6.4-4.7 6.4-6.2 0-4.9-3-6.1-7.1-.7-2.4.6-6 .7-7.7.4-4.2 3-6.3 4.4-9.5 1.3-2.9 3-4.6 4.5-6.8s4.6-4.5 6.6-6.8l-.1 1 3.3-5.5-1.5 3.9 3.7-6.1-1.9 6 4-7.1-1.5 4.8 2.9-5.5-2 4.5 4.4-6.8-2.1 5.1 4.8-7.6s-2.8 7.3-3 7.6 4.3-7 4.3-7l-2 6.5 3.8-8.1 2.1 3.8-.5-6.8 1.8 4.8-.7-5.8.8 3.6.3-4.6.4 3.1.7-3.1.8 5 1-5.6.7 5.6.6-6.6 2.3 6.1-.4-5.2 3.6 4.7-3.8-5.9 7.5 4.1-5.3-4.9 7.4 3-6.4-4.5 7.4 1.9-7.4-3.7 7.6-1.9-8.7.4 9.3-3.1-8.1 1.2 7.1-7.9-8.3 5.3 4.9-5.7-5.1 4.4 2.5-6.5-4.1 7.2.4-8.5-2.6 8.3-.2-7.7-.7 6-2.5-6.9s.4 6.9.4 7.2-1.1-4-1.1-4l-1.6 6.5-.4-5.6-1.7 5.6.3-6.2-1.7 5.8-1.4-6.2.4 6.3-2.7-5.8 1.7 6.8-.3.2-4.2-6.1 3.2 6.7-.6.3-1.3-1.5c.1-.4.2-.7.2-.7l-.4.5-2.1-2.3.3-1.5-.5 1.4-1.3-1.5 1.1 2.2-1.9 5.5-1.8-8.4.3 7.4-4.4-7.6 2.6 8.5-4.4-6.2 3.4 8-7.4-6.6 5.1 7.4-6.2-4.7 4.6 5.6-3-1.7 3.7 3.2-3 1.3 2.4.1a40.76 40.76 0 01-3 3 19.07 19.07 0 013.1-1.4l-2.7 4.2 2.7-1.3-2.9 3.1 3.1-1.1-3.6 3.2 1.9.2-4 1.7 2.3.7-6.3 1.7 5.7-.6c-2.1 1.5-4 4.6-6.1 6.9-2.5 2.8-7.6 11.8-8.9 12.9-4.3 3.8-2.9 1.9-4 1-3.2-2.7-3.5-7.2-3-11.3 0-.3.1-.6.1-.9l.8-3.2c.2-.7.4-1.4.6-2.2l.7 4.8-.4-6.7 2.4 3.4-.6-5.2 2.5 6.7-.7-7 2.9 4-1.6-5 4.5 4-2.1-5 4.4 2.2-2.8-3 6.1 2.1-5.3-3.7 9.2 2.1-8.8-3.7 10 1.3-8.7-3.1 8.5-1.4-7.9-.2 8.5-2.8-9.3 1.7 9.5-4.5L478 573l5.5-5.8-6.3 4.7 4.5-8.1-1.9 2.4-1.4-.6 2.1-5.1-3.4 4.5-2.6-1.2.1-.5-.2.4-2.9-1.3v-.6l-.1.5-1.1-.5 8-.3-8.1-1 14.2-2.8-13.3 1 10.2-3.4-9 1.3 5.7-3.9-4.8 1 6-8.1-7.7 6.4 2.6-6.3-3.8 5.8.2-6.8-2 6.3-.8-6.7-2.7 9.2-.6-.1-.3-3.2-.4-4.6 1.9-1-1.9.8-7.8 3.2 7.7-6.3-10 6.8 8.2-9-7.5 7.2 5.1-9-6.3 8.8 3.7-10.8-4.8 9.9 2.1-8.5-4.1 9.3-.3-10.6-1.3 8-.8-9.4-.7 9.1-3.4-7.3 1.7 8.5-4.3-6.3 2.4 8.9-5.4-8.5 4 10.8-7.6-8 6.4 9-9.4-5.3 10 8.3-4.4-.4.2-1.5-.6 1.4-3-.3 2.7 1.1-2.6 6.3-.1-7.4v-1.8l-2.1 8.2-1.5-10.8v9.7l-2.1-6.2.3 7.9s-3-7.9-3-7.2.1 4 .1 4l-2.1-4.3-.1 3.7-3.8-3.7 1.9 5.3-2.6-3.7.4 3.8-3.7-3.3 1.6 3.9-4.6-2.5 2.6 2.9-5.1-1.5 2.8 3.3-4.6-1.1 6.8 4.9-6.9-.8 4.4 2.3-4.6 1.6 6.2-.2-5.1 3 6.1-1.6-4.8 4.2 5.8-3-3 4.4 5-1.9-3.4 5.8 4.2-4.4-3.7 6.9 5.7-4.7-4.6 5.1-8.5.1-.7-.4 8.9-2.5-11.3 1.3-3.6-1.8 13.6.2-15.3-4.6 10.4-2.1-9.5.6 8.4-6.1-9.8 4.4 5.8-6.7-7.6 5.9 3.3-8.8-4.3 6.2 3.3-9.5-5.6 9.7 3-10-5 9.7-1.6-8.7-1 8.4-6.1-10.8 4.4 15.4-5.3-9.6 1.6 6.4-3.8-7.4 2.1 8.9-3.2-6.1 2.8 8.9-4.2-6.6 2.2 7.2-4.4-6.2 1.8 6.9-3.9-5.9 3.3 7.9-5.9-4.6 5.8 6.7-8.5-3.3 8.5 4.4-8 .2 8.6 1.5-9.4 3 9.3-2-9.7 5.4 9.9-4-5.6 5.3 5.2-4.3-4.1 6.2 6.3-6.4-6 8.2 9.9-8.7-5.3 7.1 7.4-6.2-5.9 7.9 6.9-8-1.4 5 3.8-6.2 1.4 11.7.7-8.5 1.6 10.9-.2-11.3 2.1 11.2-.4-8.8s3.1 10.1 3 9.5v-6.6l2.3 6.3 1.2-3.1c.1.2.3.5.4.7l-1.1 5.6 2.1-4.2c.1.2.3.3.4.5l-2.2 7 3.5-5.3.2.2-2.3 6 3.9-4.1.5.6-2.7 4.6 3.1-4.1a21 21 0 011.4 1.7l-1.1 4.3 1.7-3.7c.5.6.9 1.2 1.3 1.7l-.4 3.4 1.1-2.4a4.06 4.06 0 01.8 1.9c-.2 5.8 1.3 10.2-2.9 11.3l-3.3-2.1-1.1-10-.3 9.9-4.4-11.5 1.6 10.5-2.9-3 2.8 4.9-4.8-1.5 1.8-.4-5.2-1.7 2.6.9-7.8-3.2 5-.3-3.8-.7 4.4-2.3-4.8 1.1 7.2-5.8-7.8 4.7 5.2-7.1-4.9 5.6 1-7.4-1.5 5.9-3.1-6.4.9 5.3-4.7-8.6 3 7.5-5-5.8 4.1 6.8-6.3-2.9 6.2 6.4-7.2-.6 6 1.5s-8 1.6-7.8 1.6 7.3.5 7.3.5l-7.1 3.3 6.8-1-4.4 3.9 6.1-3.1-2.7 4.8 3.3-4.4-.8 7.8 1.8-7.1 2.4 8.2-.1-5.4 2.7 9.7-.6-7.6 4.9 7.2-1.9-5.3 6 9.2-1.1-5.3 3.8 6-1.2-4.1 3.2 3-1.4-2.4 4.7 2-.6-1c3.5 1.7 8.2 3.7 9.1 4.1 9.7 4-19.9 5.2-21.4 17-.7 6-1.8 8.3-3.8 9.1l-1.9-1.5 2.8-.8-3.4-.8 3.6-3.2-4.5 2.6 5.4-7.5-5.8 6.3 4.4-8-5.3 6.5 3.2-9-4.4 7.8 1.6-4.6-2.5 2.9 1.7-8.7-3.6 8.7-.1-10.4-1.5 11.5-1.7-8.4.3 10-2.4-6.9 1.5 9.2-.9-1.9-.3 3.1-4.6-.9 3.6-3.5-6.2 2.7 4.4-4.9-6 4.6 3-4.7-4 5.1-1.4-7.2v7.4l-1.5-3.6.8 4.6-4.7-.5 4.1 2.9.2 8 1.5-6.2 3.7 6.1-1.6 2.4 3.2-2.1.2 5.2 1.2-4.4 2.1 4.3-.1-2.5 3.6 3v-1.5l3.4 4.4-2.3-5.7 4 4.6-2.7-4.9 4.6 3.9-2.4-3.9 3.4 3.7.7-2.5.8 2.6 1.2-2.8.2 2.7.7-2.8.3 1.5 1.3-2 .3 2.1.9-2.3 2.6.5-.4-2.4 2 .8v-2.7l1.1.9-1.4-2.6.6-.9 3.2 1.8-2.5-2.8a17.39 17.39 0 001.1-1.8l.3-.5 2.9.1-2.4-1.1c6.6-12.3.5-10.3 18.9-16.7 7.4-2.6 6.3-1.8 12.9 2.2 14.2 8.6 9.5 5.4 10.1 18.5.4 9.4-3.3 21.3-3 29.6.5 12.3-2.4 26.9-2 37.5.1 3.1-1.3 14.8-1.9 17.8-.3 1.3-.7 7.8-1 12.6-9.5-.7-16.5-1.5-18.5-2.3-15.9-6.6-63.8 4.5-79.7 10.2-27.5 9.8-115.5-19.9-130.8-39.5-16.3-20.7-78.4-8.9-97.3-1.2-25.7 10.6-59.7 8.2-86.1 2.9-6.8-1.4-13.1-2.5-19.2-3.4V980h1400V658.9c-22.1-11-46.9-10.2-82.5-6.5zm-60.6-51.6l2.5 5.7-7.7-7.7-1.1-1.6zm-15.9 15c1.6-4.7 2.7-6.8 3.3-9.5l.3 5.4 2.1-7.4.3 5.3.5-7.2 5.2 4.4-5.2-8.4 6.5 5 4.1 5.3-7.6-.1 9.5 2.8-.1.2c-.2.3-.3.5-.5.8l-10.1-.4 9.5 1.7c-.3.5-.5 1-.7 1.4l-10.5 2.4 10-1.2-.9 2.1-6.5 4.8 5.8-3.1a35.11 35.11 0 01-6.3 10.2c-2.6 3-9 5.9-7.7 4.5-.2-.2-1.5-6-1.8-6.7-1.3-3.6-.4-8.7.8-12.3zm-735.9-10.6l.2 1-.4-.8zm-5 2.8l-.9-.3.8-1.4.6 1.4zm1.7-1l-.2.1-1.1-1.6 1-1.8zm-.4-5.5l.1 1.5-1.5 1.9-.3-.4zm-1.9 3.4l.2.5-1.6 2h-.1zm-3.1 2.4l-.1.3zm-1.1-.7l-.1.4zm13.3-43.4l.2.6-.3-.5zm-1 1.1l.7 1.5-1-1.2zm-3.1-.1l.3.5c-.4.2-.7.3-.6.2a2.39 2.39 0 00.3-.7zm-1.8-3.5l1.3 2.5-2.3 2.5zm-30.4 8.3l-.1-2.8 1.2.4zm1.6.4l.4-2.4 1.1.4zm4.8-3.9l1.5.4-3.5 4.4zm-3.9-1l2.4.6-1.5 2-1.2-.8zm-.4-.1l-.7 1.4-1.6-1.1v-1zm-2.9-.8l-.1.7-1.8-1.2zm-2.2 1.6l1.7.6-.7 3.2-1.3-3.2zm-1.1 2.4l.3 1.8-.6-1zm-2.9-14l-.4 1.3-.1-1.4zm-1.2-8.2l-.4 4.6-7.8-.1zm-8.1 7.1l4.2.5.9 2.2zm4.3 5.6h-.3l-3.6-2.1 1.8.3zm.6-5l2.4.3-.3 2.8h-.1zm-.5-.8l-1.1-1.6 4.3-.6-.3 2.8zm-1.2-1.6l.6 1.4-4.4-.9zm-3.6 28.8s-.5 1.1-1 2.4l-1.7-.1zm-10.3-20.3l-4.5 4.9 7.6-4.5-2.4 5.8 4.3-5.8 1.5 1.5s-3.2 5.7-3.4 6a29.94 29.94 0 002.4-1.8v3.2l-2.9.9 5.2-.3.8.1-8.6 3.8 6.2-1.1-6.7 2.5-4-1.8 5.4-1.2-6.7-2.2 5.7-2.9-5.9.2 5.4-4-4.1 1.9-3.3 1.5 3-4.1zm3.3 15.6l-4.2 2.2-1.8-1.3zm-6.7.4l-1.7-1.2 3.7.5zm7.9 1.3l-2.8 2.5-1.5-1.1zm-7.5-20l-5.3 6.6 3.9-7.2zm-5.1-2.1l3.5 1.4-4.7 5.6zm-10.6 32.8zm-1-1.4l-.2 1.3-2.4-.2zm-3.5 1.1l-6.3-.4 8.3-2.8zm1.7-6.4l-5.7 3.1-1.9-.1zm-7.5 1.5l-1.4 1.5-3.6-.1-.9-.5zm-8.4 4l8.1-1.2-2.8 1.5zm2.2 2.1l-2-.8h3.4zm11.9 17.1q-.15-.9-.3-1.5l2 .9-1.2 3-.2-.2c-.1-.9-.2-1.7-.3-2.2zm.4 6.4a13.4 13.4 0 00-.1-2l.2-.7 1.3 1.2zm2.6-.3l.7.6-2 1.9zm14.7 18.9c-.5-.2-2.4-1.6-2.6-1.6-1.2-.3-6.1-3.2-9.8-5.8l-.8-1.9 7.1 3.8-6.7-5.8 8.4.3-8.1-1.8 7.4-1.3-7.6.1 7-4.8-8.5 3.6 1.2-1.9.3.2-.1-.3 3.1-5.1-4.1 3.9-.7-.8 2.2-4.3-3.2 3.1-1.4-1.7 1-3.4 1.1.5-1-.9.8-2.6-1 2.4-2.6-2.3c-.2-.6-.4-1.2-.8-2.3a8.87 8.87 0 00-1.4-2.5l5.3 2.6-7.2-5a16.65 16.65 0 00-2.9-3.5l8.3 1.9-11.8-4.9 3-1h8.3l-.1.2.5-.2h3l-1.5 8.4 2.8-8.4V598l1.3-7.4 1.2 9.1 1.9-9.6.7 14.7 2-7 .7.6a49.55 49.55 0 011.6 5.4c0 .6 5.6 11.7 5.4 14.6 0 3.5-1.2 14.2-1.7 11.8zm.2-52.8l2.7.7-.7.4zm4.4 2.4l-1.8-1 1.3-.4 2.2 1.5zm5.9 60.6c-.2-.3-.5-5.9-.8-6.6-.5-1.3-.2-8.7.2-9.9s.7-5.1.9-6.6c.9-7.5 1-15.6-1.6-22.7l-.1-.4 4.7 3.2-6-6.3c-.3-.6-.5-1.2-.8-1.8l.5-.4 7.2 3.8-6.4-4.6.8-.8-1.3.4-1.1-.8 2.2-1.7 5.9.4-5.3-.8 2-1.5-.1-.1 1.3-1.1 2.2-.4c-.5 1.1-.9 2.2-1.2 2.7.6-1.1 2.9-4.9 4.2-7l-.1 5.2.8-1.5-.1 5.3 1.3-3-1.2 7.1 2-3-4.3 8.3 2.6-2.9-2.2 7 1.1-.6-.7 6.7.7-2.1 1.7 6.8v-2.1l2.4 4.1-.4-2.8c2 2.7 3.8 3.7 3.8 9 0 2.4-1.2 5.9-1.3 7.6-.2 2.2-1.8 3.9-2.9 5.8-.4 1.2-10.9 8.7-10.6 8.1zm787.1-27.7c-1.9 3.9-3.8 3.1-5.2 1.1l-.8-6.8 2.6 2.2-2.1-5.1-.1-.3.4.2-.3.2.5-.1 2.7.9-1-1.3 3.6-.9-3.7 6.4 4.5-4.6zm.4-12.3l-4.2 2.7-1.1-1.4 1.2-.8zm-5-1l-1.5.1 2.7-2.9 2.5.2zm-3.1-1.7l1-1.4 2.2.1zm.8-9.7l5.5 5.4-4.8 2.2 2.5-3.5-4.8 2.3zm-7 25.4l.7-.2c.1.9.3 1.9.4 3l-2.1-.7zm-.8-1.5h-.9c.6-.7 1.1-1.2 1.1-1.2zm-.4 1.8l-.3 1.6-2.6-.9zm-4.8-2l2.9-1.5-.6 1.6zm3.4-3.1l-2.9.8 3.8-3.3zm-4.2 1.2l-.9.2 2.4-3.8zm4.4-15.6l.2.6-.4-.4zm-.9 1.7l.9 1.3-1.5-.2zm-1.2 2.3l2.4 1.1-1.4 3.3-6.1 5.6zm-8.2 1.9l-1.6 6.5-1.3-6.6zm-3.7 8.7l-2.1-5.7 2 .1zm-.1-8.9v3l-2.4-1-.8-2.2zm-5.8 17.9l1.8.2-1.2 1zm.4 1.3l-2.8 2.1-1.5-3.9 3.3.4zm-1.4-3.4l-2.4-5.1 6.1 4.3zm1.1-4.5l-4.6-8.4 2.2.1 4.5 9.3zm1.1-8.2l.8 4.7-3.2-4.8zm-.6-3.3l.2 1.3-3.5-1.4zm-.6-3.3l-1.6-.6 1.4-.3zm-.9-5.3l.4 2-5.2-.3zm0 19.6l-3.3-1.6-2-4.3zm-.9 5.2l-2.3.5-3.1-8.4zm5.6 20.7c-3.2 8.6-3 5.2-6.4 2.5-4.5-3.5-4.6-10.8-6.1-14.4-.2-.5-.4-1.5-.7-2.7l.7 2.7-.6-15.3 3.9 7.3-1.4.3 1.7.2 2.3 4.4-3 2.3 3.7-.9 1 1.8-.7-1.9 5-1.2-6 7.1 6.9-3.2-6.6 7.7 7.7-4.9c0 .6-.1 1.3-.1 1.9l-5.3 8.1 4.9-5.1a20.25 20.25 0 01-.9 3.3zm2.8 24.8c-.6-1.4-1.1-7.2-1.2-7.4-1.4-2.5 2.6-8.8 4-10.8a14.31 14.31 0 002.7-6.2l.7 4.6.1-8.3c.1-.4.3-.8.4-1.2q.3-.9.6-2.1l2.4 9.2.4-14.2 3.9 9.2-4.2-16.2 6.5 11.9-5-14.2 2.8.5-.2 1 .4-1 2.6.5v.4c.5 3.9 4.2 10.2 6.7 13.3 3.4 4.2 5.3 11.6 4.6 17-.9 7.6-8.4 16.5-12.4 23.2-6.7 12.1-12.3-.6-15.8-9.2z"/><path class="cls-6" d="M95.9 636.5a16.46 16.46 0 00.9-3.6 30.82 30.82 0 00-1.4 4.6c-1.2 7.6 0 0 .5-1zm95.4-233.7c0-.4-.1-.4 0 0zM81.1 616.3c-.1.2-.2.3-.2.4 0-.1.1-.2.2-.4zm134.5-32.7c.1.2.2.3.2.4.1-.1 0-.2-.2-.4zm-75.3-25.1l-.1-.1c0-.1 0 0 .1.1zm-66.6-75.7c-.1-.1-.1-.2-.2-.3.5.6.6.7.2.3zm155.8-34.3c.1-.1.2-.1.3-.2-.6.5-.7.6-.3.2z"/><path class="cls-6" d="M1302.1 794.1c-40.9 6.2-56.3 74-133.6 33.7-56.5-29.5-58.6-9.7-87.2 8.2-27.5 17.2-6 15.2-41.7 15.2-70.1 0-81.7-46.3-111.7-18.3-41.2 38.5-113.9 3.9-143.8 23.7-27.4 18.1-57.4 5.9-68.8 22.7-27.9 41.2-97.5-25.9-128.1-44.8-21.7-13.4-33.1-69.4-53.1-39.8-14.9 22-42.5 16.2-47.9 35.8-2.6 9.2-64.7 10.7-65.5 19.6-2.9 29.4-100.3 32.8-181.9 21.6h-.1q-9.15-1.2-18-2.7a58.49 58.49 0 00-6.4-2.3c.6-.1 8.4.4 11.1.3-1.7-.1-12.8-3.9-14.7-4.2-2.1-.3-14.9-5.7-15.1-5.7 1.7-.1 19.6.4 20.8.6 5.3.8 22.9 2 24.8 2.3-.7-1.3-9.3-4.4-10.7-5.2-3.9-2.2-18.6-4.2-22-5.4-2.3-.8-8.2-.8-5.2-1.3 7.4-1.3 15.1-1.2 22.6-2.2a37.32 37.32 0 016.4-.4c-.6-.1-1.9-.3-3.9-.8-4-1.1-34-1.6-39.9-1.3 4.6-.2 8.6-.7 13.1-.9 10.8-.5 25.8-4.7 35.3-5.1-.2 0-6.5-.6-6.6-.6-1.2-.3-27.2-1.1-28.8-1-5.4.4 7.6-1.4 7.9-1.5a139 139 0 0021.2-5l-20.3.9c-4 .2-6.6-.6-9.5-.7-7.2-.2 5.2-2.6 5.3-2.6 3.5 0 16.2-5.9 19.6-6.6 4-.9 21.9-10.4 23.8-11-1.3.3-11.3 2.8-12.1 3-6.3 1.7-30.1 7.5-35.2 7.8 1.5.1 13.1-7.1 13.4-7.1-1.2.1-16.5 4.4-18.4 5-2.9.9-11.1 2-6.3 1 7.9-1.7 25.2-10.8 25.1-10.8-1.5.1-31.3 7.9-33.2 8.7-4.5 2.1 14.2-9.2 14.4-9.3 3.7-2.7 32.1-13.2 35.7-13.5 12.5-1-10.4 0-10.8 0-8.3.4-11.6 2.4-18.1 3.5s-19.9 9.3-19.7 9.2c.2-1.3 14-18.9 13.9-18.7-1.9.5-14.8 14.2-17.4 17.5-.5.7-.6.8-.2.3.1-.1.1-.2.2-.3 4-5.4 33.2-45.7 32.1-45.3-7.4 2.2-33.3 31.2-33.3 30.9.1-1.1 5.7-9.3 5.6-17.9-.3 3.4-5 11.1-6.3 13.8-.7 1.5-10.3 12.9-5.3 5.1 5.9-9.2 5.5-23.2 5-33.8-.1-2.1.2 16.9-5.5 27.4a42.89 42.89 0 01-13.4 15c.5-2.9 5.4-13.5 12.3-23.2-6.5 3.6-18.3 21.1-24.7 32.6l-2.1-.7c4.9-15.5 19.2-36.1 19.6-37.3.6-1.6 6.6-7.9 4.9-6.5-16.1 13.4-21.6 23.2-32.7 39.5.4-2.3.8-4.2 1.1-5.2.7-2.5 1.3-5 2-7.3 8.7-14.3 18.5-27 27.8-35.6a74.09 74.09 0 00-20 14.1c1.1-2.4 2.3-4.9 3.6-7.4.8-1.6-6.5 8.2-8.2 10.4a56 56 0 00-5.4 8.8 92 92 0 00-7.3 12.4c6-19.9 13.1-39.8 20.6-53.1-12 9.4-20 23.6-25.1 39.6 3.4-94 18.8-138.1 47.3-202-.4 2.6-.7 4.7-.8 5.3-.3 3.5-6 21.3-4.9 19.1 2.9-5.8 7.1-19.5 11.4-24.4l.1-.1a.1.1 0 00.1-.1h.2l.1.1c0 .1.1.2.1.4v1l-.1.6v2.5l-.1.3v1.6c-.7 3-1.6 6.6-2.4 10 .8-2.5 1.7-5.2 2.6-7.7v-6.1c1.1-2.8 2-5.1 2.4-5.9 1.2-2.1 1.9-3.5 2.4-4.3v-.1l.1-.1v-.4l.1-.1v3.5c.3 4.7 1.7 26.1 1.7 27.5-.4 12.8 1.2-8.4 1.1-9.4a48.31 48.31 0 01.6-7.9v-.2l.1-.4v-.7a104.87 104.87 0 001.4-12.3c-.1 2.3 2.5 11.6 3.1 14.2.9 3.6 3.3 9.6 4.8 14-.8-5.1-1.4-13.6-1.9-15.9 0-.1-.4-3.1-.6-6.3v-8.5h.3l.1.1.1.1c.1.1.1.2.2.3l.1.2.1.2v.1l.1.1.1.2.2.7v.1l.1.3v.2l.1.2.1.3.1.3v.8l.1.1v.2l.1.1v.1l.1.1.1.1.1.1.1.1v.2l.1.2v.2l.1.2.1.1.1.1.1.2v.2l.1.2v.2l.1.2.1.1.1.1.1.2.1.1.1.2v.2l.1.2.1.1.1.2.1.2.1.1.1.2v.2l.1.2.1.1.1.2.1.3.1.2v.2l.1.2.1.1.1.2.1.2.1.1.1.2v.2l.1.2v.1l.1.1.1.2.1.1.1.1.1.2.1.1v.1l.1.2v.1l.1.1a76.15 76.15 0 013.5 7.1c1.6 4.1 9.6 19.8 9.6 21.6 0-3.4-3.3-13.2-3.9-16.9 0-.2-3.3-12.4-5.3-19.5v-.1l-1.4-5c-3.8-9.2 4.2 5.9 4.4 6.6.9 2.6 4.5 6.5 5.5 7.8-1.3-2.4-4.4-12.9-5.3-15.1-1.1-2.6-3-8.1-4.6-13.5l.3.8c.4-.5.3-2.5.1-5.2a65 65 0 012.5 6.1 45.71 45.71 0 012.2 7.8 34.81 34.81 0 01-.2-5 65.64 65.64 0 00-1.4-11.5v-4.2c.4.7.4-.3.4-4.9v.1l.1.1v.1l.1.1v.1l.1.1.1.1.1.1.1.1v.1l.1.1v.2l.1.2.1.1.1.1.1.1.1.1v.2l.1.1v.1l.1.1.1.1.1.1.1.2.1.3.1.1v.1l.1.1c1.1 2.3 2 4.6 2 4.6a26.67 26.67 0 011.3 2.6c1.3 3.5 2.5 6.7 3.1 8.2 5.7 12 8.4 22.8 4.2.4-.6-3.2-1.7-6.4-2.1-9.8.3 1.1 14.3 26.1 14.3 26.2 3.8.7-23.3-49.9.9-14.9.2.2 5.1 8.6 2.3 3.3a163.56 163.56 0 01-10.4-25.8l24.9 30.2-20.7-37.6 3.7 1.8c13 11.5 24.1 25.4 30.7 38.6a87.55 87.55 0 00-9.6-28.1l20.9 10.4-22.3-12.8a61.67 61.67 0 00-19.4-20c2.9 1.2 5.8 2.4 8.7 3.8a69.35 69.35 0 018.9 7.5c-.4-1.3-.9-2.6-1.4-3.8 9.3 4.9 17.9 10.6 24.8 17.2a72 72 0 00-13.3-16.4l21.1 10.7-30.8-25.8a64 64 0 0120.7 14.1c-2.7-10.1-10.7-17.5-20.5-22.1l41.5-1.6a254.44 254.44 0 00-41-5.2c14.6-5.4 27.2-13.3 35.4-24.7-11.8 7.4-29.7 14.7-47.6 21a80.34 80.34 0 0011-7.2 48.55 48.55 0 007.8-5.3c1.9-1.6 10.5-8.8 9.1-8q-3.3 1.95-6.6 3.6a68.4 68.4 0 0012.1-18.9c-7.4 8.8-18.6 18.3-31.3 26.8q-3.15 1-6.6 2.1c-.9.3-2.6.7-4.7 1.2 14.5-10.9 23.2-16.3 34.7-31.6 1.2-1.6-4.3 4.2-5.7 4.8s-26.5 19.9-40.3 21.3c8-3.9 31.3-20 35-27.6-8.5 6.7-18 11.7-20.6 12.2a39.48 39.48 0 0113.1-12.8c9.3-5.7 26.7-6.2 24.8-6.2-9.6 0-22.4.2-30.6 6-7 4.9 3.1-4.3 4.4-5.1 2.4-1.3 9.2-5.9 12.3-6.3-7.8.3-15.1 5.8-16.1 5.9-.3 0 25.1-24.8 26.8-31.7.3-1.1-35.2 27.3-40 31.2-.1.1-.2.2-.3.2-.5.4-.3.3.3-.2 2.9-2.5 14.9-14.9 15.2-16.7.2 0-15.2 13.3-16.4 13.5 0 .2 6.8-12.3 7.6-18.4s2.5-9.1 2.5-16.7c0-.4-.1-21.4-.5-9.9-.1 3.3-8.4 29.7-10.8 33.2-.1.2-9.6 17.7-7.9 13.5.7-1.8 6.6-29.3 6.6-30.7 0-.1-7.6 16-8.8 23.3-.7 4.4 0-3.2.7-5.8.5-1.8 3.7-16 3.7-17 0 .3-6 11.1-5.9 12.5 0-4.6 4.3-26.6 5.6-32.4.1-.7 2-9.9 2.2-11.1-.5 1.8-8.4 18.5-9 22.2-.5 3.1-5.3 14.9-5.2 18.1 0 0-1.7 11.4-2.2 4.9-.2-2.6-1-5-1-8.7v-18.6a144.09 144.09 0 00-3.7 19.6c0 .2-1.1 12.2-1 7.3 0-1.5-1.8-25.2-2.1-26.3 0-.1-.8-5.8-.8-6 0 8.7-3.2 22.6-3.2 32.4 0 4.1-.2 7.9-.2 12 0-5.4-1.7-32.7-2.9-36.3a21.85 21.85 0 01-.9-3.5 29.25 29.25 0 01-.1 5.9c-.6 6.9-.2 13.9-1 20.7-.3 2.7-.5-2.6-1.4-4.7-1.3-3-3.7-16.4-5.9-19.9-.8-1.2-4-8.9-5.2-9.5.3 1.7 2.2 17.7 3.2 22.5.2 1.1 1.5 17.3 1.5 18.9 0-.2-5.4-11.6-5.8-13.5s-4.6-12.4-4.5-13.4c0 2.3.8 9.6.7 10.2-.7-2.8-3.9-7.6-4.2-12.3-.2-3-1.5-6.4-1.5-10.2v10.3c0-.3-7.6-18.8-8.3-22.3-1.3-5.7.2 8.4.3 9.1.7 3.5 2.7 15.2 4.1 17.8.8 1.5-11.5-18.1-13.8-25.1-1.7-5.1-4.4-7.9-1.7.9a389.75 389.75 0 0013.5 36.7c3.3 8-2.3-2.2-5.2-5.1-.6-.6-21-25-17.6-19.4 3.9 6.4 7.1 13 11.6 19.4 0 .1 6.8 9.9 4 8.1-6.8-4.3-11-4.9-17.1-12-1.9-2.2-12.4-16.2-6.1-6.2 6.8 10.7 9.6 12.9 18.7 21.5 0 0 3.8 4.3 2.2 3.4-8.4-4.5-10.6-5-17.3-12.7-7.8-8.9 7.6 10.3 7.8 10.6 1 1.3 5.8 5.9 10.3 10.3a12.24 12.24 0 00-2.7.9c-4.6-3.4-9-6.9-10.1-8-7.7-7.9-8.5-11.5-3.4-2.2a72.27 72.27 0 008.9 12.3 23.92 23.92 0 00-2.1 1.3c-1.2-1.4-2.2-2.5-2.3-2.6a9.37 9.37 0 001.3 3.2 41.15 41.15 0 00-11.7 14.3l.3-41.5a263.91 263.91 0 00-7.1 40.7c-4.7-14.8-12.1-27.8-23.1-36.5 6.8 12.1 13.3 30.4 18.8 48.5a81.82 81.82 0 00-6.6-11.3 53.43 53.43 0 00-4.9-8c-1.6-2-8.3-10.9-7.5-9.5 1.2 2.3 2.3 4.5 3.3 6.7A67.53 67.53 0 0084 438.8c8.4 7.8 17.4 19.5 25.4 32.5.6 2.2 1.2 4.4 1.8 6.7.2.9.6 2.6 1 4.8-10.2-15-15.2-23.9-29.9-36.1-1.5-1.2 4 4.5 4.5 5.9s18.7 27.4 19.4 41.2C104 485 89 461 81.6 456.9c6.3 8.8 10.8 18.6 11.2 21.2a39.32 39.32 0 01-12.2-13.7c-5.2-9.6-5-26.9-5.1-25-.4 9.6-.8 22.4 4.5 30.8 4.6 7.2-4.2-3.3-4.8-4.6-1.2-2.4-5.4-9.5-5.7-12.6-.1 7.8 5.1 15.4 5.1 16.4 0 .3-23.6-26.2-30.4-28.2-1-.3 25.7 36.4 29.3 41.4.1.1.2.2.2.3.3.5.2.3-.2-.3-2.4-3.1-14.2-15.6-15.9-16 0-.2 12.5 15.8 12.7 17.1.2 0-12-7.3-18-8.4s-9-2.9-16.6-3.2c-.4 0-21.3-.9-9.9 0 3.3.3 29.3 9.8 32.6 12.3.1.1 17.3 10.4 13.1 8.5-1.7-.8-29-7.9-30.3-8-.1 0 15.7 8.4 22.9 9.9 4.4.9-3.2-.1-5.8-.9-1.8-.6-15.8-4.5-16.8-4.5.3 0 10.8 6.5 12.2 6.5-4.6-.2-26.4-5.6-32.1-7.1-.7-.2-9.8-2.5-11-2.8 1.7.6 18.1 9.3 21.8 10.1 3.1.7 14.7 6 17.9 6 0 0 11.3 2.2 4.8 2.4-2.7.1-5 .8-8.7.6l-18.6-.9a140.4 140.4 0 0019.4 4.6c.2 0 12.1 1.7 7.2 1.3-1.5-.1-25.3.7-26.3.9-.1 0-5.8.5-6 .5 8.7.4 22.4 4.2 32.2 4.7 4.1.2 7.8.6 12 .8-5.4-.2-32.7.2-36.4 1.2-1.8.5-3 .7-3.5.8a31.79 31.79 0 015.9.4c6.8.9 13.9.8 20.6 2 2.7.5-2.7.4-4.8 1.2-3.1 1.1-16.6 2.9-20.1 5-1.3.7-9.1 3.6-9.7 4.7 1.7-.3 17.8-1.3 22.6-2.1 1.1-.2 17.4-.6 19-.6-.2 0-11.8 4.9-13.8 5.2-1.8.3-11.9 3.8-13.5 3.9 2.4.1 9.5-.3 10.1-.3-2.9.6-7.8 3.5-12.5 3.6-3 0-6.4 1.2-10.3 1 3.4.2 6.9.3 10.3.5-.3 0-19.1 6.7-22.7 7.3-5.8 1 8.4.2 9.1.1 3.5-.6 15.3-2 17.9-3.2 1.6-.7-18.6 10.6-25.7 12.6-5.2 1.4-8.1 4 .8 1.8 13-3.3 25-7.4 37.3-11.8 8.2-2.9-2.3 2.2-5.3 4.9-.6.5-25.9 19.8-20.2 16.7 6.5-3.6 13.3-6.5 19.9-10.7.1 0 10.2-6.3 8.3-3.6-4.6 6.6-5.4 10.7-12.7 16.5-2.3 1.8-16.8 11.6-6.4 5.8 11.1-6.3 13.3-9 22.4-17.6 0 0 4.4-3.6 3.5-2-4.8 8.2-5.4 10.4-13.5 16.7-9.3 7.4 10.6-7.1 10.9-7.3 2.6-1.9 19.6-18.3 19.7-18.4-.7 2.5-14.2 18.8-16.7 21-8.2 7.3-11.9 8-2.3 3.2 8.5-4.2 13.3-9.2 20.3-14.2 3.7-2.7 7.6-5.7 11.4-8.7-.3.8-.5 1.6-.8 2.4-3.6 3.4-7.2 7.1-10.8 9.5-.3.2-8.7 6.9-8.8 7 2 .1 10.1-4.7 17.4-9.8-3 9.8-5.9 20.8-5.7 25.3 0 1.1-4 18.1-.4 8.2.5-1.4 6.7-15 7.1-15.4l2-4.6.1-.1v-.1l.1-.1v-.2l.1-.1v-.1l.1-.3.1-.1.1-.1v-.1l.1-.1v-.2l.1-.1.1-.1.1-.1.1-.1v-.1l.1-.1v-.2l.1-.1v-.1l.1-.1.1-.1.1-.1.1-.1v-.1l.1-.1v-.1l.1-.1v-.1l.1-.1.1-.1v-.1l.1-.1v-.8l.1-.1v.5c-3.5 9.3-7 18.5-6.9 18.3a93 93 0 015.6-8.2v.2a65.64 65.64 0 00-1.4 11.5c0 3-.2 4.6-.2 5a48.53 48.53 0 012.2-7.8c1.7-4.6 4.1-9.2 5.5-13.2 0 4.5-5.2 20.2-7.2 25.1-.9 2.3-4 12.7-5.3 15.1 1-1.3 4.5-5.2 5.5-7.8.2-.7 8.2-15.7 4.4-6.6l-1.4 5v.1c-1.9 7.1-5.3 19.3-5.3 19.5-.6 3.7-3.9 13.5-3.9 16.9 0-1.8 8.1-17.5 9.6-21.6a76.15 76.15 0 013.5-7.1l.1-.1v-.1l.1-.2v-.1l.1-.1.1-.2.1-.1.1-.2.1-.2.1-.1.1-.2v-.2l.2-.3.1-.2.1-.2.1-.1.1-.2v-.2l.1-.2.1-.1.1-.2.1-.2.1-.1.1-.2v-.2l.1-.2.1-.1.1-.2.1-.2.1-.1.1-.2v-.2l.1-.2.1-.1.1-.2.1-.1.1-.1.1-.2v-.2l.1-.2v-.2l.1-.2.1-.1.1-.1.1-.2v-.2l.1-.2v-.2l.1-.1v-.1l.1-.1.1-.1v-.1l.1-.1v-.2l.1-.1v-1l.1-.4.1-.2v-.1l.1-.3.1-.3.1-.2v-.1l.1-.2.1-.2.1-.1v-.1l.1-.2.1-.1v-.1l.4-.7v-.2l.1-.1.1-.1h.3l.1.1v.1a.37.37 0 00.1.3v8.1c-.3 3.3-.6 6.2-.6 6.3-.5 2.2-1.1 10.7-1.9 15.9 1.6-4.4 4-10.4 4.9-14.1.6-2.6 3.3-12 3.1-14.2a114.84 114.84 0 001.3 11.5c-2.5 42-15.6 85.1-19.9 142.6l-6.4-7 6.1 10.8c-.1 1.8-.2 3.7-.3 5.5a67.6 67.6 0 00-11.6-7.5 101.31 101.31 0 0111.3 12.9c-.2 4.4-.3 8.8-.4 13.3a44.78 44.78 0 00-4.7-2.8L65 760.1l12.4 22.3a97.65 97.65 0 00-31.3-9.1c12.2 5.4 25.1 14.2 36.7 24.8a75.89 75.89 0 00-9.9 1.4l-23-11.3 16.9 12.7c-3.7.9-7.5 1.9-11.5 2.9-2.9-1.3-2.1-.8-.5.1-16.6 4.2-35.5 8.2-54.8 3V980h1400V766.4c-25-1.1-81.3 25.2-97.9 27.7zM152.7 585.2c-1.3-1.8-2.3-3.4-3.4-5 .7-1.1 1.7-2.5 2.8-4 1 .9 2.1 1.9 3.1 2.9-.8 2-1.6 4-2.5 6.1zm-12.4-26.8a.1.1 0 00.1.1 87.87 87.87 0 008.3 4.6c-.3.2-.4.4-.5.4s.2 0 .5-.4c2.6 1.3 5.5 2.7 8.3 3.9l-.1.1-.2.4-.1.2-.1.2-.2.3v.1l-.2.4-.2.3-.1.2-.1.2-.2.3v.1l-.2.3c-.8 1.6-1.6 2.9-2.2 3.9-4.7-5.4-12.2-14.4-12.7-15.5-.2-.1-.2-.2-.1-.1zm-.4-27.2a2.09 2.09 0 00-.6-.4h.9zm11.2-.3c-.7 1.6-1.4 3.3-2 4.9-2.8-1.2-5.5-2.5-7.4-3.4l1.5-1.4c2.4-.1 5.2-.1 7.9-.1zm-6.7-50.1c.9-1.9 1.7-3.7 2.7-5.6.5.2.9.3 1.4.5a50.81 50.81 0 00-4.1 5.1zm16.5 46.2l-2.1 3.3a5.65 5.65 0 00-1.6-.9c.4-.7.8-1.5 1.2-2.2.8-.1 1.6-.1 2.5-.2zm-.9-2.5c.4-.7.8-1.3 1.2-1.9l1.2-.2c-.1.6-.3 1.3-.4 2.1zm-1.5 6.2a19.15 19.15 0 01-1.6 2.1c-5.9 7.2-.3 2.2 3.5-1.1-.6 2.8-1.2 5.7-1.6 8.2-1.5-.7-3.6-1.6-5.9-2.6 1.1-2.2 2.3-4.4 3.5-6.6a7.24 7.24 0 002.1 0zm0 10.6l-.1.6c-.8 1.2-1.5 2.3-2.2 3.2l-6.1-2.3.8-1.7c2.6 0 5.1.1 7.6.2zm-.4 4.3v.2l-.6-.2.6-.4zm-13.1 3.7l-.2.7c-3.8-1.2-2.4-1.1.2-.7zm-1.1 3.9l-.2.8a17 17 0 01-1.4-1c-.3-.2.3-.1 1.6.2zm1 .2c2.3.6 5.7 1.5 9.2 2.4q-1.35 1.8-2.4 3.3c-2.6-1.6-5.1-3.2-7.3-4.7zm3.9-2.3c-.9-.2-1.7-.5-2.4-.7l.4-.8c2 .4 4.1.9 5.1 1.2a30.39 30.39 0 005.2 1.1l-.8 1.1c-2.5-.7-5-1.3-7.5-1.9zm-3.7-10.2c.7 0 1.5.1 2.3.1l-.2.7a18.67 18.67 0 00-2.1-.8zm2.9 31.6c1.3 1 2.6 2.2 3.9 3.4-.6.9-1.8 3.1-2.5 4.3-1.7-2.7-3.3-5.6-5.7-10.1-2.1-4 2.3.8 4.3 2.4zm8 4.8c-.6-.7-1.5-1.6-2.5-2.8l.8-1c.9-1 1.7-2 2.5-2.9l.9.4c1 .2-.4 3.2-1.7 6.3zm5.7-19.5l-.2.5v.1l-.2.3-.1.2-.1.2-.2.4-.2.4-.1.1-.2.3-.1.3-.1.2-.2.2-.2.4-.1.1-.1.3-.2.3-.1.1-.2.4-.2.4-.1.2-.1.1c-2.1-1.2-4.2-2.5-6.3-3.7 1.2-1 2.5-2.1 3.9-3.2l.8.2c-.3 5-.3 8.2 1.5.4 1.1.3 2.2.5 3.1.8zm2-4.3l-.1.2-.1.3-.1.3v.1l-.1.2-3.5-.9h.1l.1-.1.1-.1.1-.1.2-.2.1-.1.1-.1.1-.1.1-.1.1-.1h.2l.1-.1.1-.1.1-.1c.7.1 1.5.1 2.2.2zm.2-10.9l-.1.2-.1.1-.1.1-.1.1-.1.2-.1.1v.1l-.1.1-.1.1v.1l-.1.1-.1.1-.1.1-.1.1-.1.1-.1.1-.1.1-.1.1-.1.1-.1.1-.1.1-.1.1v.2l-.1.1-.1.1-.2.2-.1.1-.1.1-.1.1-.1.1-.1.1-.1.1-.1.1-.1.1-.1.1.7-3.6a17.37 17.37 0 012.4-1.2zm3.2-70.9l.7.9a5.35 5.35 0 01-.9-.7zm-1.4 55.6c-.2 1-.4 1.9-.5 2.4a8 8 0 00-.4 1.8c-.4.8-1 1.7-1.5 2.6l1.2-5.7a12 12 0 001.2-1.1zm-2.4-47.1c.9.1-2.1.2-5.8.4a18.48 18.48 0 011.4-1.4 36.35 36.35 0 004.4 1zm-5.9-32.7l1.6 1.5-.7.6a13 13 0 01-1.5-1zm-1 11.4c1.6 1.9 3.3 3.9 5 5.8a8.79 8.79 0 01-1 .6c-1.6-1.6-3.3-3.3-5-4.9a13 13 0 011-1.5zm-3.5-15.8l1.9 1.8-1.3 1.4-2.2-1.6a8.08 8.08 0 011.6-1.6zm1 21.4c-.4.1-.9.3-1.3.4l.7-1.2zm.7 1c.7.9 1.4 1.7 2.1 2.5-1.2 1-2.5 2-3.6 3l-2.8-.9a61.68 61.68 0 014.3-4.6zm-4.7 59.3a39.64 39.64 0 014.5-1.2l-.5 1c-1.5.1-2.9.1-4.2.2zm-2.2-76.3l1.8 2.1-1.7 1.8-1.7-2a14.62 14.62 0 011.6-1.9zm-2.9 3.5c.4.7.9 1.4 1.4 2.1l-7.7 8.4a74.85 74.85 0 016.3-10.5zm-12.9 131.3v-.1h1.1l.1.1h.3l.1.1h.1l.1.1.1.1h.1l.1.1.1.1.1.1.1.1h.1l.1.1.1.1.1.1.1.1.1.1.1.1.1.1.1.1.1.1.1.1.1.1.1.1h.2l.1.1.4.3.1.1.1.1.1.1.1.1.1.1.1.1.1.1h.1l.1.1.1.1.3.2.1.1.1.1c1.2 1.6 1.5 2 .3.2 3.9 3.1 8.3 7 9.8 8.3-1.6-1.9-6.5-8.6-10.6-14.2l-.2-.3-.1-.1v.2l-.1-.1-.1-.1-.9-1.2-.1-.1-.1-.1-.1-.1-.1-.2-.1-.1-.1-.1-.1-.1-.3-.3-.2-.2-.1-.1-.1-.1-.1-.1-.2-.2-.1-.1-.1-.1-.1-.1-.1-.1-.1-.1-.1-.1-.1-.1-.1-.1-.1-.1-.1-.1-.1-.1-.1-.1-.1-.1-.1-.1-.1-.1-.1-.1-.1-.1-.1-.1-.1-.1-.1-.1-.1-.1-.1-.1-.1-.1-.1-.1-.1-.1-.1-.1-.1-.1-.1-.1-.1-.1v-.1l-.1-.1v-.1c.4-.3 3.4 1.5 6.2 3.2a78.75 78.75 0 0012.4 12.1c-.8 2-1.6 4.1-2.4 6.2a1.38 1.38 0 00-.4-.3c.1.2.3.3.4.4-1.4 3.7-2.8 7.5-4.3 11.4-.6-1-1.5-2.6-2.6-4.6l-.1-.2-.1-.2-.2-.3v-.1l-.2-.4-.2-.4-.1-.1-.1-.3-.1-.2-.1-.2-.2-.3v-.1l-.2-.4-.2-.3-.1-.2-.1-.2-.1-.3-.1-.1-.2-.4-.2-.4v-.1l-.2-.3-.1-.2-.1-.2-.2-.3-.1-.1-.2-.4-.2-.4-.1-.1-.2-.3-.1-.2-.1-.2-.6-1.2-.1-.1-.7-1.5v-.1l-.3-.5-.1-.2-.4-.8-.9-1.8-.2-.3-.1-.1-.6-1.2-.1-.3-.1-.1-.1-.2-.1-.2v-.1l-.1-.3a6.31 6.31 0 01-.4-.9v-.1l-.1-.2-.1-.2v-.1l-.1-.1v-.1l-.1-.2-.1-.2v-.2c1-.4 1-.4 1-.5zm-14.3 34.9l-.2-.7v-.4l-.2-1.1v-.1l-.1-.5v-3.1c0-.1.1-.1.2 0l.1.1.1.1c4.3 5 8.6 18.7 11.4 24.4 1.1 2.2-4.7-15.6-4.9-19.1-.1-1.6-1.8-11.7-2.9-18.6v-.3l-.3-1.7v-4l.2.2.1.1.1.1.1.1.1.1v.1l.1.1.1.1.1.1.1.1v.2l.1.1.1.1.1.1.1.1v.2l.1.1.1.1.1.1.1.2v.2l.1.2.1.2.1.2.1.2v.1l.1.1.1.2.1.2.1.2.1.2.1.1.1.1.1.2.1.2.1.2.1.2.1.1.1.1.1.2.1.2.1.2.1.2.1.1.1.1.1.2.1.2.1.2.1.2.1.1.1.1.1.2.1.2.1.2.1.2.1.1.1.1.1.2.1.2.1.2.1.2.1.1.1.1.1.2.1.2.2.5.1.1.1.1c3.9 7.4 8.1 16.3 8.9 19.5 0 0-.1-.4-.3-1l-.1-.2-.1-.2-.1-.2v-.1l-.2-.7v-.1l-.1-.2v-.1l-.1-.3-.1-.3-.1-.4v-.1l-.1-.3v-.1l-.1-.3v-.2l-.1-.2-.1-.2v-.2l-.1-.3v-.1l-.1-.4-.1-.4-.1-.4v-.1l-.1-.4v-.1l-.1-.3-.1-.2-.1-.2-.1-.3v-.2l-.1-.4v-.1l-.1-.4-.3-1v-.1l-.1-.4v-.2l-.1-.3-.1-.2-.1-.2-.1-.3v-.2l-.1-.4v-.1l-.1-.5-.1-.5-.1-.4v-.1l-.1-.4v-.2l-.1-.3-.1-.2-.2-.7-.1-.4v-.1l-.1-.4-.1-.4-.1-.4v-.1l-.1-.3v-.2l-.1-.3-.1-.2v-.2l-.1-.3v-.1l-.1-.3v-.1l-.1-.4-.1-.4-.1-.3v-.1l-.1-.3v-.9l-.1-.2-.1-.3-.1-.2v-4.2l-.1-.2-.1-.2-.1-.2-.1-.2v-.9l-.1-.2-.1-.2-.1-.2-.1-.2V591h.5l.1.1.1.1.1.1.2.1.2.1.2.1.6.6.2.2.1.1.2.2.3.3c.8.9 1.9 2 3.1 3.5 1.6 1.8 4 4.5 6.5 7.4l.1.2.1.1.2.2.1.1.1.1 1.5 1.8c-10.8 29.7-21.1 63.7-29.3 96 1.1-28 2.3-57.7 2.2-85.3l.1.3v.8l.1.2v.1l.1.4v.1c.9 2.6 1.8 5.3 2.7 7.9-.6-2.1-1.5-5.7-2.2-8.7z"/><path class="cls-6" d="M150.9 589.9a71 71 0 01-12.4-12.1c-2.8-1.7-5.8-3.5-6.2-3.2v.1l.1.1v.1l.1.1.1.1.1.1.1.1.1.1.1.1.1.1.1.1.1.1.1.1.1.1.1.1.1.1.1.1.1.1.1.1.1.1.1.1.1.1.1.1.1.1.1.1.1.1.1.1.1.1.1.1.1.1.1.1.1.1.2.2.1.1.1.1.1.1.2.2.3.3.1.1.1.1.1.1.1.2.1.1.1.1.1.1.9 1.2.1.1.1.1.1.1.1.1.2.3c4.1 5.5 9 12.3 10.6 14.2.2.1.3.3.4.3-.3-2 .6-4.1 1.4-6.1zm-30.8 38.4c1.4 5.5 2.8 10.4 2.8 10.8 0-1.3-1.2-5.8-2.8-10.8zm60.5 177.6c-.1.1-.2.2-.2.3-.4.5-.3.3.2-.3zm-3.9-210.5c-1.6 5.1-2.9 9.6-2.8 10.9 0-.4 1.4-5.3 2.8-10.9zm24.6 9.3a34.8 34.8 0 00-1.4-4.6 16.46 16.46 0 00.9 3.6c.6 1 1.7 8.7.5 1zm31 240.9c.5.1.5 0 0 0z"/><path class="cls-2" d="M907.8 317c.3-3.6-64.8-5-70.2-4.9-20.2.5-29.8-7.3-45.3-10.7-7-1.5-32-.5-33.8-2.7-13.2-15.5-27.5 8.3-41.5-2.7-7.3-5.7-21.8.2-21-3.4 2.2-9.9-9.9-5.3-10.8-5.4-3.4-.3-10.9 5-11.8.5-7-34.4-32.9-19.7-47.6 1.7a190 190 0 00-20 1.1c-10.5 1.3-28.9 18.5-29.2 25.2-2 36.6 80.6 25.8 103.4 27.7 11.8 1 19.6 3 31.2-4.1 7.8-4.7 30-6.2 37.6-2.2 7.8 4.2 36.7 3.1 40.9-2.7 7.1-9.7 35.1-4.7 45.1-8.4 4.9-1.8 55.3-3.1 61.1-2.6 4.4.5 16.7-5.4 11.9-6.4z"/><path class="cls-6" d="M1377.2 541.5c.2.3.3.6.4.7a7.76 7.76 0 00-.4-.7zM777.9 927.6c-7.8-2.2-29.9-14.6-28.2-13.8 2.9 1.3 15.8 2.9 19.6 3.5.7.1 16.3 1 9.9-.1-3.9-.7-24.5-8-24.8-8 3.8-.2 7.5-.4 11.3-.5-4.3.2-8-1.1-11.3-1.1-5.2-.1-10.6-3.3-13.7-3.9.6-.1 8.4.4 11.1.3-1.7-.1-12.8-3.9-14.7-4.2-2.1-.3-14.9-5.7-15.1-5.7 1.7-.1 19.6.4 20.8.6 5.3.8 22.9 2 24.8 2.3-.7-1.3-9.3-4.4-10.7-5.2-3.9-2.2-18.6-4.2-22-5.4-2.3-.8-8.2-.8-5.2-1.3 7.4-1.3 15.1-1.2 22.6-2.2a37.32 37.32 0 016.4-.4c-.6-.1-1.9-.3-3.9-.8-4-1.1-34-1.6-39.9-1.3 4.6-.2 8.6-.7 13.1-.9 10.8-.5 25.8-4.7 35.3-5.1-.2 0-6.5-.6-6.6-.6-1.2-.3-27.2-1.1-28.8-1-5.4.4 7.7-1.4 7.9-1.5a139 139 0 0021.2-5l-20.3.9c-4 .2-6.6-.6-9.5-.7-7.2-.2 5.2-2.6 5.3-2.6 3.5 0 16.2-5.9 19.6-6.6 4-.9 21.9-10.4 23.8-11-1.3.3-11.3 2.8-12.1 3-6.3 1.7-30.1 7.5-35.2 7.8 1.5.1 13.1-7.1 13.4-7.1-1.2.1-16.5 4.3-18.4 5-2.9.9-11.1 2-6.3 1 7.9-1.7 25.2-10.8 25.1-10.8-1.5.1-31.3 7.9-33.2 8.7-4.5 2.1 14.2-9.2 14.4-9.3 3.7-2.7 32.1-13.2 35.7-13.5 12.5-1-10.4 0-10.8 0-8.3.4-11.6 2.4-18.1 3.5s-19.9 9.3-19.7 9.2c.2-1.3 14-18.9 13.9-18.7-1.9.5-14.8 14.2-17.4 17.5-.5.7-.6.8-.2.3.1-.1.1-.2.2-.3 4-5.4 33.2-45.7 32.1-45.3-7.4 2.2-33.3 31.2-33.3 30.9.1-1.1 5.7-9.3 5.6-17.9-.3 3.4-5 11.1-6.3 13.8-.7 1.5-10.3 12.9-5.3 5.1 5.9-9.2 5.5-23.2 5-33.8-.1-2.1.2 16.9-5.5 27.4a42.89 42.89 0 01-13.4 15c.5-2.9 5.4-13.5 12.3-23.2-8.1 4.5-24.5 30.7-28.4 39.7.8-15.1 20.7-43.7 21.2-45.1.6-1.6 6.6-7.9 4.9-6.5-16.1 13.4-21.6 23.2-32.7 39.5.4-2.3.8-4.2 1.1-5.2.7-2.5 1.3-5 2-7.3 8.7-14.3 18.5-27 27.8-35.6a74.09 74.09 0 00-20 14.1c1.1-2.4 2.3-4.9 3.6-7.4.8-1.6-6.5 8.2-8.2 10.4a56 56 0 00-5.4 8.8 92 92 0 00-7.3 12.4c6-19.9 13.1-39.8 20.6-53.1-12 9.5-20.1 23.7-25.2 39.9a274.55 274.55 0 00-7.8-44.6l.4 45.5c-5.4-10.6-14-18.9-25.2-21.3a69.92 69.92 0 0116.5 21.9l-29.7-32.3 12.8 22.5a75.15 75.15 0 00-18.6-13.7c7.6 7.2 14.3 16.3 20.1 26.3-1.4-.5-2.8-.9-4.3-1.3a76.12 76.12 0 018.7 9.3c1.6 3.1 3.1 6.2 4.6 9.3a67.91 67.91 0 00-22.9-20.2l-15.2-23.8 12.4 22.3a97.65 97.65 0 00-31.3-9.1c14.8 6.5 30.5 18 43.8 31.6l2.2 4-42.2-20.7 34.2 25.7a188.22 188.22 0 01-28.8-10.1c-6-2.7 3.4 2.2 3.7 2.4 39.5 24.7-17.2-2.4-16.2 1.8.1 0 28.1 14.1 29.4 14.3-3.7-.2-7.2-1.3-10.8-1.8-24.7-3.5-12.8-1 .7 4.6 4.8 2 26.2 8 24.6 8.1-18.7.9-2.1.3 2.2 5.8-2.6-.8-22.8-3-24.4-1.6 4.7 1.4 13.7 3.9 18.2 4.8 3.6.7-15.1 2.7-15.6 2.8-4 .7-5.3-.1-2.8 1.1 5.8 2.6 26.8 3.7 33.2 6.3-7.9-.5-20-.7-27.9-.3-3.3.2 14.3 3.1 20.1 2.8 9.6-.4-2.6 2.2-2.6 3.8 1.1.3 19.2.2 21.5.1-2.6 2.4-23.9 10.7-23.9 11.6 5.9-.3 12-.3 17.6-.6-.3 0-17.7 6.8-19.4 7.4-3.1 1-14.1 6.2-14.6 6.3 5.9-.3 21.6-1.1 26.6-2.9 3.3-1.2 19.3-3.9 3.3.3-10.6 2.8-21.1 5.1-31.8 7.9-17.9 4.8 9.3.4 11.6.3 5.4-.1 29.1-7.3 27.5-6.2-8 5.7-22 13.8-30.9 18.5-16.6 8.8 1.1 1.5 7.7-.5 8.3-2.4 23.9-11 25.3-12.1v-.1c.1 0 .1 0 0 .1-.9 1.8-16 19.7-18 21.5-1.3 1.2-14.9 19.2-9.1 12.5a164.19 164.19 0 0118.7-18.6c2.1-1.7 6.9-6.9 4.7-2.7-5.5 10.4-7.3 13-14.3 22.8-1.8 2.5-7.1 6.6-4.5 5.4 13.6-6.1 22.6-16.4 31.2-28.2 3.8-5.2 4-6.7 6.8-11.8a19.63 19.63 0 001.1-2.4v-.4c0-.8.4-.8 0 .4-.1 8.5-8.8 25.7-13.8 32.6-8.4 11.7 22.8-30.3 22.8-29.4-.2 7.1-4.5 25.3-7.5 31.9-1.3 2.8-5.1 16.5-3.2 13.4 8.8-14.7 13.3-31.7 18.4-48 6.3-20 1.5 44 1.5 44.2 0-1 5.8-29.5 6.5-34.4.5-3.5-.1-19.3.3-17.4 1.4 6.5 3.6 9.9 5.5 15.4 3.1 9.1 12.5 18.7 16.8 26.4.2.4-16.4-43-15.5-41.3 1.8 3.5 29.3 22.3 33.4 22.1-.1-.1-9.3-7.4-9.6-7.6-5.6-3.8-11.4-10.5-16.8-14.8-.6-.5-5.8-5.3-5.7-5.6 7.2 5.1 15 11.6 22.3 16.9 7.6 5.5 12.9 11 22.2 15.6 10.5 5.2 6.5 4.4-2.5-3.6-2.7-2.4-17.6-20.2-18.3-23 .1 0 18.7 18 21.6 20.1.3.2 22.1 16 12 8-8.8-7-9.5-9.4-14.8-18.3-1-1.7 3.9 2.2 3.9 2.2 9.9 9.4 12.4 12.4 24.5 19.3 11.3 6.4-4.5-4.3-7.1-6.3-8-6.3-8.9-10.9-13.9-18.1-2.1-3 9 3.9 9.1 3.9 7.2 4.6 14.6 7.8 21.7 11.7 6.3 3.4-21.5-17.7-22.1-18.3-3.3-2.9-14.8-8.6-5.8-5.4 13.4 4.8 26.5 9.3 40.8 12.9 9 2.9 5.8.1.2-1.5zm572.6-347a66.53 66.53 0 00-2.5-8.5 26 26 0 001.7 6.7c1 1.9 3.1 16.2.8 1.8zm-223-99.8a2.74 2.74 0 00-.4.7 2.15 2.15 0 00.4-.7zm72.4 22.3c2.6 10.2 5.1 19.1 5.1 19.9.1-2.3-2.1-10.6-5.1-19.9z"/><path class="cls-6" d="M650.5 924v.4c.4-1.2-.1-1.2 0-.4zM1155 518.2a27.07 27.07 0 001.7-6.8 53.21 53.21 0 00-2.5 8.5c-2.3 14.4-.2.1.8-1.7zM758.6 882.6c.5.1.5 0 0 0zm-124.7 43.3v.1c.1-.1.1-.1 0-.1zm73-83c-.1.1-.2.2-.2.3-.4.5-.2.3.2-.3zM1267.4 434a.31.31 0 01-.1.2c.2-.1.2-.2.1-.2zm123.8-140.7a2.18 2.18 0 01-.4.5c-.6.8-.4.6.4-.5zm-152.9 602.8v.4c.4-1.3-.1-1.2 0-.4z"/><path class="cls-6" d="M1389.1 268.8c.1-1.8 9.8-16 9.5-30.6-.3 5.7-8.4 19-10.6 23.6-1.2 2.5-17.5 21.9-9 8.6 10-15.7 9.3-39.4 8.4-57.2-.2-3.5.3 28.6-9.4 46.4a72.52 72.52 0 01-22.7 25.4c.8-4.9 9.1-22.9 20.8-39.3-13.8 7.7-41.5 52.1-48.1 67.3 1.3-25.6 35.1-74.1 36-76.4 1-2.7 11.1-13.3 8.3-11-27.3 22.7-36.6 39.3-55.5 67 .7-3.9 1.3-7.1 1.8-8.8 1.1-4.3 2.2-8.4 3.4-12.4 14.7-24.2 31.4-45.8 47-60.3a126.75 126.75 0 00-33.9 24c1.9-4.1 3.9-8.2 6.1-12.5 1.4-2.7-11.1 13.8-14 17.6a97.18 97.18 0 00-9.1 14.9 151.2 151.2 0 00-12.3 20.9c10.1-33.7 22.2-67.5 34.9-90-20.4 16.1-34 40.2-42.8 67.7-3.1-37.8-12.1-70.5-13.2-75.6l.6 77.1c-5.4-10.6-12.7-19.8-21.7-26.5 1.5-2.8 2.4-4.9 2.4-6-.1.1-1.9 2.1-4.2 4.8a30.3 30.3 0 00-3.8-2.4c5.8-6.7 11.5-13.5 16.6-22.8 9.6-17.4 8-10.6-6.2 4-2 2.1-10.2 8.6-18.7 14.9-1.7-.6-3.4-1.1-5.1-1.6 8.4-8.1 17.3-16.8 19.2-19.1.4-.5 28.9-36.2 14.5-19.6-12.5 14.4-16.6 15.3-32.2 23.6-2.9 1.6 4.1-6.3 4.1-6.4 16.7-16 22-20 34.6-40 11.7-18.6-7.7 7.3-11.3 11.5-11.4 13.1-19.1 14.3-31.7 22.2-5.2 3.3 7.3-15 7.3-15.1 8.4-11.8 14.4-24.1 21.6-35.9 6.3-10.3-31.7 35-32.7 36.1-5.2 5.4-15.7 24.3-9.6 9.4 9.2-22.3 17.9-44.2 25.1-68 4.9-16.3-.1-11.1-3.2-1.6-4.3 13.1-27.1 49.5-25.5 46.6 2.5-4.7 6.2-26.5 7.5-32.9.3-1.3 2.9-27.5.6-16.8-1.4 6.5-15.5 40.8-15.5 41.4v-19.1c0 7.2-2.5 13.5-2.8 19-.5 8.7-6.3 17.6-7.7 22.9-.1-1.1 1.3-14.2 1.4-18.7-.3 2.9-7.7 21.4-8.3 24.6-.7 3.5-10.8 24.7-10.8 25 0-2.9 2.3-33.2 2.7-35.1 1.8-9 5.2-38.7 5.9-41.8-2.2 1.1-8.1 15.4-9.6 17.7-4.1 6.4-8.6 31.2-10.9 36.8-1.6 3.8-2 13.8-2.6 8.7-1.5-12.6-.8-25.6-1.9-38.4a69.32 69.32 0 01-.2-10.9c-.2 1-.7 3.2-1.7 6.5-2.2 6.8-5.3 57.4-5.3 67.4 0-7.7-.5-14.7-.5-22.3 0-18.2-5.9-44-5.9-60.1 0 .4-1.5 11-1.5 11.1-.6 2-4.1 45.9-4 48.7.2 9.2-1.8-13.1-1.9-13.5a236.81 236.81 0 00-6.8-36.3v34.5c0 6.8-1.5 11.2-1.9 16.1-1 12.1-4.1-9-4.1-9.1.3-6-8.7-27.9-9.6-33.7-1.1-6.9-15.9-38-16.8-41.2.4 2.3 3.9 19.4 4.2 20.7 2.3 10.8 10.4 51.6 10.4 60.1.2-2.6-11-22.8-10.9-23.2 0 2 6.1 28.2 6.9 31.6 1.3 4.9 2.6 19 1.2 10.8-2.2-13.5-16.4-43.5-16.4-43.3 0 2.5 10.8 53.7 12.2 56.9 3.2 7.9-14.4-24.8-14.6-25-4.3-6.4-19.8-55.4-20-61.5-.7-21.2-.9 17.7-.9 18.4 0 14.1 3.1 19.7 4.6 31s14.1 34.4 14 34.1c-2.3-.5-30.9-25.1-30.5-25 .7 3.3 22.8 26.2 28.3 30.9 1.1.9 1.3 1.1.5.4-.1-.1-.3-.2-.5-.4-8.9-7.2-74.7-59.9-74.2-57.9 3.2 12.8 50.2 58.9 49.7 58.8-1.8-.2-15.5-10.5-30.1-10.9 5.7.6 18.6 9.3 23.1 11.7 2.4 1.3 21 18.5 8.2 9.4-15.2-10.7-38.9-11.1-56.8-11.1-3.5 0 28.6 1 46 11.5 17 10.3 24.4 24 24.3 23.8-4.8-1-22.4-10.2-38.3-22.6 7 14.1 50.1 43.9 65 51.2-25.5-2.5-72.4-38.5-74.7-39.5-2.7-1.1-12.8-11.7-10.6-8.8 21.4 28.4 37.5 38.4 64.4 58.6-3.9-.9-7-1.7-8.7-2.2q-6.3-1.95-12.3-3.9c-23.5-15.8-44.3-33.5-58-49.8a124.19 124.19 0 0022.4 35c-4-2.1-8.1-4.3-12.2-6.7-2.6-1.6 13.3 11.7 16.9 14.8a94.37 94.37 0 0014.5 9.8 161.82 161.82 0 0020.3 13.3c-33.2-11.7-66.4-25.4-88.3-39 15.1 21.1 38.6 35.9 65.6 45.9-37.9 1.3-71 8.8-76.1 9.7l77 3c-18.3 8.4-33.1 22.2-38.1 41a116.41 116.41 0 0138.4-26.1l-57.1 47.8 39.1-19.9a130.74 130.74 0 00-24.7 30.4c12.8-12.3 28.8-22.9 46-31.9-.9 2.3-1.8 4.6-2.6 7.1a112.86 112.86 0 0116.4-13.9c5.3-2.5 10.7-4.8 16.1-7a115.07 115.07 0 00-36 37.2l-41.4 23.8 38.8-19.2c-9.2 16.3-14.9 34.4-17.8 52.2 12.2-24.6 33-50.3 57-71.6l6.9-3.4-38.4 69.8 46.2-55.9a299.72 299.72 0 01-19.4 47.9c-5.1 9.9 4.1-5.6 4.4-6 44.9-64.9-5.3 28.9 1.7 27.6 0-.2 26.1-46.5 26.6-48.6-.6 6.3-2.7 12.1-3.8 18.1-7.8 41.5-2.7 21.5 7.8-.8 1.3-2.7 3.5-8.6 5.8-15.1 1.3-2.7 2.2-4.6 2.4-4.8 0 0 1.8-4.2 3.8-8.6l.1-.3.1-.2v-.1l.1-.3.1-.1.1-.1.1-.3v-.1l.1-.2.1-.3.1-.2.1-.2.1-.3.1-.2v-.1l.1-.3v-.1l.1-.1.1-.2.1-.2.1-.2.1-.2.1-.2v-.1l.1-.2.1-.1.1-.1.1-.2v-.1l.1-.2.1-.2.1-.2.1-.2.1-.2.1-.1v-.1l.1-.2v-.1l.1-.1.1-.2.1-.2v-.1c0 8.6.2 10.5.8 9.2v2.3l-.1.3v.4l-.1.3-.1.3-.1.3v.4l-.1.3-.1.3-.1.3v.4l-.1.3v.4l-.1.3v.4l-.1.7-.1.3v.1l-.2 1.2c-1.3 7.1-2.6 14.5-2.6 21.4a82.09 82.09 0 01-.4 9.3 85.54 85.54 0 014.1-14.4c1.4-3.8 3.1-7.6 4.7-11.2-.4 5-.5 8.8.2 9.7l.5-1.4c-3 9.9-6.6 20.2-8.5 24.9-1.7 4.2-7.5 23.6-9.8 28.1 1.8-2.5 8.4-9.6 10.1-14.5.4-1.2 15.2-29.2 8.2-12.2 0 .1-1.1 3.9-2.5 9.3v.1c-3.6 13.2-9.8 35.7-9.8 36.2-1.2 6.8-7.2 25-7.2 31.3 0-3.3 15-32.4 17.9-40.1a140 140 0 016.4-13.2c1.4-2.7 2.9-5.4 4.2-8.1l.4-.9.1-.2.1-.1.1-.3v-.1c.3-.6.6-1.3.9-1.9v-.1l.3-.7.1-.2.2-.5v-.1l.1-.3v-.1l.1-.2.1-.3.1-.2.1-.2.1-.3.1-.2.1-.3v-.1l.3-.9.1-.3.1-.2.1-.3v-.2l.1-.2v-.1l.1-.2.1-.2.2-.7.1-.4v-.1l.2-.6.2-.7v-.1l.2-.5.1-.3.1-.4.1-.2.2-.4v-.1l.2-.4v-.1l.2-.3v-.1l.1-.2v-.1c0-.1.1-.1.1-.2a.1.1 0 01.1-.1l.1-.1h.2c.1 0 .1.1.2.2 0 .1 0 .1.1.2v16.2c-.5 6.1-1.1 11.5-1.2 11.8-.9 4.2-2 19.9-3.5 29.5 2.9-8.2 7.4-19.3 9-26.1 1.1-4.6 5.7-21 5.8-25.9.1 5.2 1.4 13.8 2.7 22.3l.1.5v.1l.1.4v5.2a95.88 95.88 0 011.2 14.7c0 1.9 2.8 41.2 2.1 17.5-.1-2.6 2.5-42.4 3.1-51l.1-.2v-.6l.1-.2v-9.3h.1v.2l.1.1.1.1v.2l.1.1.1.1.1.1v.2l.1.1.1.2.1.2c.8 1.5 2.1 4 4.4 8a100.37 100.37 0 014.5 10.9v2.1l.1.2v.1l.2.5v.2l.1.2v.4l.2.5.4 1v.1l.1.3v.1l.5 1.5v.1c1.7 4.7 3.4 9.8 4.9 14.5-1.7-6.4-3.4-13.3-4.6-18.8l-.1-.3v-.3l-.1-.3-.1-.3v-.3l-.1-.3-.1-.3-.1-.3-.1-.3-.1-.3v-.3l-.1-.3-.1-.3-.1-.3-.1-.3-.1-.3-.1-.3v-5.6c0-.1 0-.1.1-.2l.1-.1h.2c.1 0 .1.1.2.1s.3.2.4.3l.3.3c.1.1.2.3.4.4 8.1 8.8 16.2 34.9 21.6 45.8 2 4.1-8.6-29-9.2-35.4-.1-1.2-.7-5-1.4-9.9 46 102.8 73.4 178 84.1 310.1a36.9 36.9 0 01-3.6 10.3 42.89 42.89 0 01-13.4 15c.5-2.9 5.4-13.5 12.3-23.2-8.1 4.5-24.5 30.7-28.4 39.7.8-15.1 20.7-43.7 21.2-45.1.6-1.6 6.6-7.9 4.9-6.5-16.1 13.4-21.6 23.2-32.7 39.5.4-2.3.8-4.2 1.1-5.2.7-2.5 1.3-5 2-7.3 8.7-14.3 18.5-27 27.8-35.6a74.09 74.09 0 00-20 14.1c1.1-2.4 2.3-4.9 3.6-7.4.8-1.6-6.5 8.2-8.2 10.4a56 56 0 00-5.4 8.8 98.71 98.71 0 00-7.3 12.4c6-19.9 13.1-39.8 20.6-53.1-12 9.5-20.1 23.7-25.2 39.9a274.55 274.55 0 00-7.8-44.6l.4 45.5c-5.4-10.6-14-18.9-25.2-21.3a69.92 69.92 0 0116.5 21.9l-29.7-32.3 12.8 22.5a75.15 75.15 0 00-18.6-13.7c7.6 7.2 14.3 16.3 20.1 26.3-1.4-.5-2.8-.9-4.3-1.3a76.12 76.12 0 018.7 9.3c1.6 3.1 3.1 6.2 4.6 9.3a67.91 67.91 0 00-22.9-20.2l-15.2-23.8 12.4 22.3a97.65 97.65 0 00-31.3-9.1c14.8 6.5 30.5 18 43.8 31.6l2.2 4-42.2-20.7 34.2 25.7a188.22 188.22 0 01-28.8-10.1c-6-2.7 3.4 2.2 3.7 2.4 39.5 24.7-17.2-2.4-16.2 1.8.1 0 28.1 14.1 29.4 14.3-3.7-.2-7.2-1.3-10.8-1.8-24.7-3.5-12.8-1 .7 4.6 4.8 2 26.2 8 24.6 8.1-18.7.9-2.1.3 2.2 5.8-2.6-.8-22.8-3-24.4-1.6 4.7 1.4 13.7 3.9 18.2 4.8 3.6.7-15.1 2.7-15.6 2.8-4 .7-5.3-.1-2.8 1.1 5.8 2.6 26.8 3.7 33.2 6.3-7.9-.5-20-.7-27.9-.3-3.3.2 14.3 3.1 20.1 2.8 9.6-.4-2.6 2.2-2.6 3.8 1.1.3 19.2.2 21.5.1-2.6 2.4-23.9 10.7-23.9 11.6 5.9-.3 12-.3 17.6-.6-.3 0-17.7 6.8-19.4 7.4-3.1 1-14.1 6.2-14.6 6.3 5.9-.3 21.6-1.1 26.6-2.9 3.3-1.2 19.3-3.9 3.3.3-10.6 2.8-21.1 5.1-31.8 7.9-17.9 4.8 9.3.4 11.6.3 5.4-.1 29.1-7.3 27.5-6.2-8 5.7-22 13.8-30.9 18.5-16.6 8.8 1.1 1.5 7.7-.5 8.3-2.4 23.9-11 25.3-12.1v-.1c.1 0 .1 0 0 .1-.9 1.8-16 19.7-18 21.5-1.3 1.2-14.9 19.2-9.1 12.5a164.19 164.19 0 0118.7-18.6c2.1-1.7 6.9-6.9 4.7-2.7-5.5 10.4-7.3 13-14.3 22.8-1.8 2.5-7.1 6.6-4.5 5.4 13.6-6.1 22.6-16.4 31.2-28.2 3.8-5.2 4-6.7 6.8-11.8a19.63 19.63 0 001.1-2.4v-.4c0-.8.4-.8 0 .4-.1 8.5-8.8 25.7-13.8 32.6-8.4 11.7 22.8-30.3 22.8-29.4-.2 7.1-4.5 25.3-7.5 31.9-1.3 2.8-5.1 16.5-3.2 13.4 8.8-14.7 13.3-31.7 18.4-48 6.3-20 1.5 44 1.5 44.2 0-1 5.8-29.5 6.5-34.4.5-3.6-.1-19.3.3-17.4 1.4 6.5 3.6 9.9 5.5 15.4 3.1 9.1 12.5 18.7 16.8 26.4.2.4-16.4-43-15.5-41.3 1.3 2.4 14.4 11.9 24 17.6-3.4 25.9-13.1 54.2-17.9 72.6h113.2c-5.2-19.5-15.7-50.3-18.5-77.5.4-.1.3-.4-.1-.7a123.43 123.43 0 01-.6-13.4c2.6-150.4-33.6-250.6-39.4-347.3 1.2-8.1 2.4-16 2.5-20.9.1 4.9 4.7 21.3 5.8 25.9 1.6 6.7 6.1 17.9 9 26.1-1.5-9.5-2.6-25.3-3.5-29.5-.1-.2-.7-5.7-1.2-11.8v-15.5l.1-.2c0-.1 0-.1.1-.2a.22.22 0 01.2-.2h.2a.1.1 0 01.1.1l.1.1c0 .1.1.1.1.2v.1l.1.2v.1l.2.3v.1l.2.4v.1l.2.4.1.2.1.3.1.3.2.5v.1l.2.7.2.6v.1l.1.4.2.7.1.2.1.2v.1l.1.2v.2l.1.3.1.2.1.3.3.8.1.1v.1l.1.3.1.2.1.3.1.2.1.2.1.3.1.2v.1l.1.3v.1l.2.5.1.2.1.2.2.5v.1l.5 1.1.1.3.4.9.1.1.1.2.4.9c.8 1.6 1.6 3.1 2.4 4.7v.1c.6 1.1 1.2 2.2 1.7 3.3a119 119 0 016.4 13.2c2.9 7.7 17.9 36.8 17.9 40.1 0-6.3-6-24.5-7.2-31.3-.1-.4-6.2-22.9-9.8-36.2v-.1c-1.5-5.4-2.5-9.2-2.5-9.3-7.1-17 7.8 10.9 8.2 12.2 1.7 4.9 8.3 12 10.1 14.5-2.4-4.5-8.1-23.9-9.8-28.1-3.7-9.1-13.4-38.2-13.4-46.5 2.6 7.5 7.1 16 10.3 24.5a85.54 85.54 0 014.1 14.4 82.09 82.09 0 01-.4-9.3c0-6.8-1.3-14.2-2.6-21.4l-.1-.4a166.51 166.51 0 0110.4 15.2c.2.3-6.3-16.6-12.8-33.9v-1.2h.3l.1.1.1.1.1.1v.1l.1.1v.1l.1.1.1.1.1.1.1.1.1.1.1.1v.2l.1.2.1.1.1.2.1.2.1.2.1.2.1.1v.1l.1.2v.1l.1.1.1.2.1.2.1.2.1.2.1.2v.1l.1.2.1.1.1.1.1.2v.1l.1.2.1.2.5 1 .1.3v.1l.1.2.1.3.1.2.1.2.1.3.1.2v.1l.1.3.1.1.1.1.1.3v.1l.1.2.1.3c2 4.3 3.7 8.5 3.8 8.6.8.7 12.2 26 13.2 28.6 6.7 18.3-.8-13.3-.7-15.2.4-8.3-5-28.8-10.6-46.9 9.5 6.5 19.7 12.9 26.3 16v-2.7c-4.5-3.6-10-7.9-10.3-8.1-6.6-4.5-13.4-11.4-20-17.7l-1.5-4.5c7.1 5.5 14.3 11.2 21.2 16.2 3.8 2.8 7.3 5.5 10.7 8.3v-14.5c-4.5-5.8-8-10.7-8.4-12.3.1 0 3.6 3.4 8.4 8V310.5c-2.8.8-4.7 1.4-5.2 1.6-3.1 1.4.2-.8 5.2-3.9v-14.7a23.18 23.18 0 01-2.9 1.7 25.72 25.72 0 012.9-4.6v-7.3c-4 4.3-7.3 8-8.8 9.9-.8 1.1-1 1.4-.4.5.1-.1.2-.3.4-.5 1.4-1.9 4.6-6.3 8.8-12.1v-23.9a70.09 70.09 0 01-8.7 11.6zm-130.2-32.1a122 122 0 0111.8 19.5l-14.4-15.6c.9-1.3 1.8-2.6 2.6-3.9zM1243.7 463c-1.1-1.8-2.5-4.3-4-7.2l-.4-.7-.1-.1-.3-.6-.2-.3-.2-.3-.3-.6v-.1l-.4-.7-.1-.2-.3-.5-.2-.4-.2-.3-.4-.7-.1-.2c5.1-2.2 10.5-4.8 15.3-7.3.6.7.9.9.9.7 0 0-.3-.3-.8-.7 8-4.1 14.3-7.7 15.4-8.5a.35.35 0 01.1-.2c.1 0 .1.1-.1.2-1.1 2.1-14.9 18.6-23.6 28.7zm17.4-7.4c-4.4 8.3-7.4 13.7-10.6 18.8-1.3-2.3-3.6-6.3-4.6-7.9 2.5-2.2 4.9-4.3 7.2-6.2 3.6-3 11.7-11.9 8-4.7zm-27.4-52.1l-.2-1.2c4.7-.2 9.4-.3 14-.4l1.6 3.1c-3.5 1.3-7.6 2.9-11.3 4.4-1.3-1.7-2.6-3.7-4.1-5.9zm1.8 6.8l-1.1.4v-1.1zm-1.7-34.1c.7 1.3 1.5 2.7 2.3 4a11.21 11.21 0 00-3 1.8c-1.3-1.9-2.6-4-3.9-6.1zm-6.6-5.1c-.3-1.4-.6-2.8-.8-3.9l2.3.3c.7 1.2 1.4 2.4 2.2 3.6zm9.5 15.7c-1-1.2-2-2.6-3-4 .9.1 2.2.1 3.9.1 2.2 4 4.4 8.1 6.5 12.2-4.2 1.8-8 3.5-10.9 4.9-.8-4.6-1.9-10-3-15.2 7.1 6 17.5 15.3 6.5 2zm25.1-3.8c1 .9 1.9 1.8 2.8 2.6-3.5 1.8-8.5 4.1-13.7 6.4-1.1-3-2.4-6-3.6-9zm-9.6-102.3c.8-.3 1.7-.6 2.5-.9 1.7 3.4 3.3 6.9 4.9 10.3a74.63 74.63 0 00-7.4-9.4zm11.5 143.3c-.8.6-1.7 1.2-2.6 1.8a11.31 11.31 0 00-.4-1.5c2.4-.5 3.6-.7 3-.3zm-4.7-5.6l-.4-1.3c4.8-.7 7.4-.8.4 1.3zm-.6-16.8c-.1 0-1.6.5-3.9 1.4l-.3-1.2c1.4-.1 2.8-.1 4.2-.2zm-12.5 18.4a90.67 90.67 0 019.4-2.2l.7 1.5q-1.95.6-4.5 1.2c-4.6 1.2-9.2 2.4-13.7 3.5l-1.5-2a56.06 56.06 0 009.6-2zm12.9 4.9c.4.7.7 1.4 1 1.9-4.1 2.8-8.7 5.7-13.6 8.7-1.4-1.9-2.9-3.9-4.5-6.1 6.5-1.8 12.9-3.5 17.1-4.5zm8.6-42h1.7c-.3.2-.6.5-1.1.8zm-13.7-152.8c1 1.2 2 2.4 2.9 3.5l-3.2 3.7-3.1-3.4c1.1-1.2 2.2-2.5 3.4-3.8zm-3.9 141.8c-2.4-.2-5-.3-7.7-.4l-.9-1.9a78.37 78.37 0 018.4 2.1zm-6.1-99.9c-2.2-2-4.4-3.8-6.7-5.6 1.2-1.5 2.5-3.1 3.8-4.7a109.85 109.85 0 018.1 8.7zm-1.6-12.1l1.1-1.4c.4.7.9 1.5 1.3 2.2a22.5 22.5 0 01-2.4-.8zm1.9-39.7c1 1 2.1 1.9 3.1 2.9-1.4 1-2.8 2-4.1 3l-2.4-2.6zm-8.4 8.1l1.2 2.1a32.31 32.31 0 01-2.8 1.8 13.44 13.44 0 00-1.4-1.1zm1.9 21.1c.6 1 1.3 1.9 1.9 2.9-3.2 3.1-6.4 6.1-9.4 9.1l-1.8-1.2c3.1-3.5 6.3-7.2 9.3-10.8zm-12.8 39.6a72.4 72.4 0 008.2-1.8c.9.8 1.7 1.7 2.5 2.5-6.7-.2-12.2-.4-10.7-.7zm-8.4-14.1c.4-.6.9-1.1 1.3-1.7l.4.4a8.67 8.67 0 01-1.7 1.3zm4.8 106c-.3-1-.6-2.6-1-4.5a18.4 18.4 0 002.5 2.1l2.1 10.5c-1.1-1.8-2-3.4-2.9-4.9a16.54 16.54 0 00-.7-3.2zm2.7 24.1l-.1-.1-.1-.1v-1.3a38.78 38.78 0 014.5 2.3c.4 2.2.9 4.4 1.3 6.7l-.1-.2-.1-.1-.2-.2-.2-.2-.2-.2-.2-.2-.2-.2-.2-.2-.2-.2-.2-.2-.2-.2-.1-.1-.1-.2-.2-.2-.2-.2-.1-.1-.1-.1-.2-.2-.2-.2-.1-.2-.2-.2-.2-.2-.1-.2-.2-.2-.1-.2-.1-.2-.1-.2-.1-.2-.1-.2-.1-.1-.1-.1-.1-.2-.1-.2-.1-.1v-.1l-.1-.2-.1-.2-.1-.1-.1-.2-.1-.2-.1-.4zm.9 21.8l-.1-.1-.3-.6v-.1l-.2-.5-.1-.3-.1-.1v-1.7c1.4-.1 2.8-.2 4.1-.4l.1.1.2.1h.1l.2.2.2.2.2.2.2.2.2.2.2.1.2.2.2.2.2.2.2.2.2.1.1.1.2.2.4.3-6.5 1.6zm6 12.2l-.4-.7-.1-.3-.2-.5-.3-.6-.1-.2-.4-.7v-.1l-.5-1-.2-.4-.3-.6-.1-.1-.4-.7-.1-.1-.1-.1c1.8-.4 3.7-.8 5.6-1.3 3.3 14.6 3.3 8.6 2.7-.7l1.5-.4c2.5 2.1 5 4.1 7.2 6-3.8 2.3-7.7 4.6-11.6 6.9l-.1-.2-.2-.4-.4-.7v-.1l-.4-.8-.1-.2-.3-.6-.3-.5-.1-.3-.3-.6zm.1 13.5a12.2 12.2 0 001.7-.7c1.6 1.8 3.3 3.8 5 5.7l.1.1.1.1.1.1.1.1.1.1.3.4.1.1.1.1.1.1.1.1v.1l.1.1.1.1.1.1.1.1.1.1.1.2.1.1.1.1.1.2.1.1.1.1.1.1.1.1.1.1.1.1.1.1.1.1.1.1.1.1.1.1.1.1.1.1.1.1.1.1.1.1.1.1v.1l.1.1.1.1.1.1.1.1.1.1.1.1.1.1.1.1.1.1.1.1.1.1.1.1 1.5 1.8c-1.9 2.2-3.5 4-4.7 5.2-3.6-6.6-6.1-12.1-8.5-17.5zm8.7 19.9q2.85-2.85 5.7-5.4a87.59 87.59 0 015.2 7.4c-1.9 3-3.9 6-6.2 9.4-1.5-3.9-3.1-7.7-4.7-11.4zm12.8 31.7l.7-.7c-.3.3-.6.5-.7.6-1.5-3.9-3-7.7-4.5-11.5a135.84 135.84 0 0023.1-22.4c5.1-3.2 10.7-6.5 11.4-6l-.1.1-.1.1-.1.1-.1.1-.1.1-.1.1-.1.1-.1.1-.1.1-.1.1-.1.1-.1.1-.1.2-.1.2-.1.1-.1.2-.1.2-.1.2-.1.2-.1.2-.1.2-.1.2-.1.2-.1.2-.1.2-.1.2-.1.2-.1.2-.2.2-.1.2-.2.2-.2.2-.1.2-.2.2-.2.2-.1.2-.2.2-.2.2-.1.2-.2.2-.2.2-.1.2-.2.2-.2.2-.1.2-.2.2-.2.2-.1.2v.1l-.2.2-.2.2-.1.2v.1l-.2.3-.2.3-.1.2v.1l-.2.3-.2.3-.1.2v.1l-.2.3-.2.3-.1.2-.1.1-.2.3-.2.3c-7.6 10.4-17 23.3-20 26.8 2.8-2.4 11-9.6 18.2-15.3-2.3 3.2-1.7 2.6.6-.5l.2-.1.2-.2.5-.4.2-.2.1-.1.1-.1.2-.2.5-.4.2-.2.2-.2.2-.2.2-.2.1-.1.2-.1.2-.2.2-.2.2-.2.2-.2.1-.1.1-.1.2-.2.2-.2.2-.1.2-.2.1-.1h.1l.2-.1.2-.1.2-.1.2-.1.2-.1.2-.1.2-.1.1-.1.1-.1.2-.1.2-.1.2-.1.2-.1.1-.1h.1l.2-.1.2-.1.1-.1.2-.1.1-.1.3-.2.1-.1.1-.1.1-.1.1-.1.1-.1h.2l.2-.1.2-.1h.1l.2-.1.2-.1h.5v.5l-.1.2v.1l-.1.2-.1.3-.1.3-.1.1-.1.3v.2l-.2.4-.2.4v.1l-.1.3v.1l-.2.4-.2.4v.1l-.2.5-.2.5-.1.2-.3.6-.1.2-.2.5v.1l-.3.6v.1l-.2.5-.1.2-.2.4-.2.4-.1.2-.3.6-.3.7-.1.1-.3.5-.2.3-.2.4-.3.5-.1.2-.3.7-.4.7-.1.2-.3.5-.2.4-.2.3-.3.6-.1.1-.4.7v.1l-.3.7-.1.3-.2.5-.2.5-.1.3-.4.7v.1l-.4.8-.1.1-.3.6-.2.3-.2.4-.3.5-.1.2-.4.8-.4.8-.1.2-.3.6-.2.4-.2.4-.3.6-.1.2-.4.8-.4.7-.1.2-.3.5-.2.4-.2.3-.3.6v.1l-.4.7-.1.1-.3.6-.2.3-.2.4-.3.5-.5.9-.4.7-.1.2-.3.5-.2.3-.2.3c-2 3.7-3.8 6.8-4.9 8.6-3.1-6.7-5.8-13.8-8.4-20.6zm35.3 297.4a28.61 28.61 0 003.6-8.8c.1 1.8.3 3.7.4 5.5-2.7 3.5-8 9.6-4 3.3zm6.8 103.2l-.5-.4c-5.6-3.8-11.4-10.5-16.8-14.8-.6-.5-5.8-5.3-5.7-5.6 7.2 5.1 15 11.6 22.3 16.9l1.1.8c-.2 1-.3 2.1-.4 3.1zm.9-14.1a1.33 1.33 0 01-.3-.7l.3.3zm-34.7-364.3c.9-1.2 1.9-2.4 2.9-3.6l.1-.1.1-.1v-.1l.1-.1.1-.1.1-.1.1-.1.1-.1.1-.1.1-.1.1-.1.1-.1.1-.1.1-.1.1-.1.1-.1.1-.1.1-.1.1-.1.1-.1.1-.1.1-.1.1-.2.1-.1.1-.1v-.1l.1-.1.1-.1.1-.1.1-.1v-.1l.1-.1.1-.1.1-.1.1-.1.1-.1.1-.1.1-.2.1-.1.1-.1.1-.1.1-.1.1-.2.1-.1.1-.1v-.1l.1-.1.1-.1.1-.1.1-.1.1-.1.1-.1.1-.1.1-.1c4.6-5.3 9.2-10.4 12.2-13.9 2.4-2.7 4.3-4.8 5.8-6.4l1.8-1.8.7-.7.3-.3a7.29 7.29 0 011.1-.9l.2-.1.1-.1.1-.1.1-.1.1-.1h.7v1.5c0 .2-.1.3-.1.5l-.1.3-.1.3-.2.7-.1.2-.1.2v.1l-.1.3v.1l-.1.3-.1.4-.1.4v.1l-.1.3-.1.4-.1.2-.1.2-.1.2-.1.2-.1.3v.1l-.1.3v.1l-.1.4-.1.4v.1l-.1.3v.1l-.1.3-.1.4v.1l-.2.8-.1.3v.1l-.1.4-.1.4-.1.4v3.2l-.1.3v.1l-.1.4-.1.4v.1l-.1.5-.1.5v.1l-.1.4v.2l-.1.4-.1.3-.1.3-.1.4-.1.2-.1.5v.2l-.1.6v.1l-.2.7-.2.7v.1l-.1.6-.1.2-.1.5-.1.4-.1.4-.1.5-.1.3-.2.6v.2l-.2.7v.1l-.2.8-.2.8v.2l-.2.7-.1.3-.2.6-.1.4-.1.4-.1.6-.1.3-.2.7v.2l-.2.8v.1l-.2.9v.1l-.2.8v.2l-.2.7-.1.3-.2.6-.1.5-.1.4-.2.6-.1.3-.2.7v.2l-.2.8v.1l-.2.9v.1l-.2.8-.1.2-.2.7-.1.3-.1.5-.1.5-.1.4-.2.6-.1.3-.2.7v.2l-.2.8-.2.8v.1l-.2.7-.1.2-.2.6-.1.3-.1.5-.1.4-.1.3-.1.5-.1.2-.2.6v.1l-.2.7-.2.6v.1l-.1.5v.2l-.1.4-.1.2-.1.3-.1.3-.1.2-.1.4v.1l-.1.4v.1l-.1.4-.1.4c-.3 1.2-.5 1.9-.5 1.9 1.5-5.8 9.1-22 16.3-35.7.6-1.1 1.2-2.3 1.8-3.4l.2-.4.2-.4.2-.4c.9-1.6 1.7-3.2 2.6-4.6l.2-.4.2-.3.6-1.1.2-.3.8-1.3.2-.3.2-.3.4-.6.2-.3.4-.6.2-.3.2-.3.2-.3.2-.3.2-.3.2-.3.1-.1.1-.1.2-.2.2-.2.2-.2.2-.2.1-.1.1-.1.2-.2.1-.2.1-.2.1-.2.1-.1.1-.1.3-.4c.2-.3.4-.5.6-.8v12.2c-2 12.8-5.1 31.6-5.4 34.5-.5 6.5-11.2 39.6-9.2 35.4 5.4-10.8 13.5-36.9 21.6-45.7.1-.1.2-.3.4-.4l.3-.3c.1-.1.3-.2.4-.3.1-.1.2 0 .3.1v6.2l-.1.3-.1.3-.1.3-.1.3-.1.3-.1.3-.1.3-.1.3v.1l-.1.2-.1.3v.3l-.1.3-.1.3-.1.3-.1.3v.3c-1.2 5.6-3 12.4-4.6 18.8 1.5-4.8 3.2-9.8 4.9-14.5v-.1l.1-.3v-.1l.4-1.1v-.4l.4-1v-.1c-.3 51.3 1.9 106.4 4 158.3-18.4-59.4-37.5-122.5-57.5-177.6z"/><path class="cls-6" d="M1221.7 898v.1c0-.1.1-.1 0-.1zm51.5-421.8l.2-.3.1-.1.1-.2.2-.3.2-.3v-.1l.1-.2.2-.3.2-.3v-.1l.1-.2.2-.3.2-.3v-.1l.1-.2.2-.2.2-.2v-.1l.1-.2.2-.2.2-.2.1-.2.2-.2.2-.2.1-.2.2-.2.2-.2.1-.2.2-.2.2-.2.1-.2.2-.2.2-.2.1-.2.2-.2.2-.2.1-.2.2-.2.1-.2.1-.2.1-.2.1-.2.1-.2.1-.2.1-.2.1-.2.1-.2.1-.2.1-.2.1-.2.1-.2.1-.1.1-.2.1-.2.1-.1.1-.1.1-.1.1-.1.1-.1.1-.1.1-.1.1-.1.1-.1.1-.1.1-.1.1-.1c-.7-.5-6.3 2.8-11.4 6a135.84 135.84 0 01-23.1 22.4c1.5 3.8 3 7.6 4.5 11.5.2-.1.4-.4.7-.6 3.1-3.5 12.4-16.5 20-26.8zm26.6 107.5c0-.7 2.5-9.8 5.1-19.9-3 9.4-5.3 17.6-5.1 19.9zm-102-452.1a.1.1 0 00.1-.1c0-.3 0-.3-.1.1zm-96.5 98.3a1.76 1.76 0 00.5.4c.9.7.6.5-.5-.4zm297.3 7.4v.9a1.39 1.39 0 000-.9z"/></svg>